# Blender v2.81 (sub 16) OBJ File: ''
# www.blender.org
mtllib Aland.mtl
o 0_Aland_sphere.001
v 2.338786 4.330606 -0.879250
v 2.340400 4.330386 -0.876050
v 2.339443 4.331308 -0.874091
v 2.340803 4.331192 -0.871057
v 2.340269 4.331651 -0.870234
v 2.338267 4.332588 -0.870971
v 2.336429 4.333152 -0.873087
v 2.335593 4.332916 -0.876447
v 2.336974 4.331654 -0.878941
vn 0.4699 0.8647 -0.1776
vn 0.4700 0.8645 -0.1778
vn 0.4699 0.8647 -0.1773
vn 0.4698 0.8647 -0.1773
vn 0.4698 0.8647 -0.1775
vn 0.4698 0.8647 -0.1777
vn 0.4698 0.8647 -0.1776
vn 0.4697 0.8648 -0.1774
usemtl None
s 1
f 2//1 1//2 9//3
f 9//3 8//4 2//1
f 8//4 7//5 3//6
f 7//5 6//7 3//6
f 6//7 5//8 4//7
f 3//6 6//7 4//7
f 3//6 2//1 8//4
o 1_Aland_sphere.001
v 2.342366 4.337193 -0.837190
v 2.342503 4.337438 -0.835488
v 2.343475 4.337095 -0.834467
v 2.345732 4.335876 -0.834354
v 2.345643 4.336307 -0.832325
v 2.343088 4.338033 -0.830612
v 2.338422 4.340629 -0.830443
v 2.337128 4.340756 -0.833549
v 2.340831 4.338184 -0.836400
vn 0.4752 0.8647 -0.1626
vn 0.4753 0.8647 -0.1626
vn 0.4750 0.8648 -0.1626
vn 0.4750 0.8648 -0.1628
vn 0.4751 0.8648 -0.1626
vn 0.4752 0.8647 -0.1628
vn 0.4751 0.8647 -0.1628
usemtl None
s 1
f 15//9 12//10 11//11
f 10//12 18//13 11//11
f 18//13 17//10 16//10
f 11//11 18//13 15//9
f 16//10 15//9 18//13
f 15//9 14//14 12//10
f 14//14 13//15 12//10
o 2_Aland_sphere.001
v 2.336869 4.339436 -0.841319
v 2.346342 4.333589 -0.844730
v 2.326094 4.345983 -0.837440
v 2.327772 4.344985 -0.838044
v 2.329747 4.343157 -0.842047
v 2.325068 4.343157 -0.854430
v 2.323933 4.345269 -0.846766
v 2.323109 4.345634 -0.847100
v 2.322757 4.345358 -0.849428
v 2.324308 4.343699 -0.853706
v 2.328712 4.343927 -0.840896
v 2.328391 4.344503 -0.838833
v 2.324035 4.346997 -0.837766
v 2.321962 4.347643 -0.839990
v 2.324587 4.345568 -0.843528
v 2.324358 4.345293 -0.845520
v 2.345886 4.334340 -0.842068
v 2.337456 4.340180 -0.835653
v 2.334785 4.341702 -0.835366
v 2.333013 4.342367 -0.837011
v 2.332184 4.342509 -0.838673
v 2.337200 4.339359 -0.840761
v 2.327155 4.345451 -0.837271
v 2.325550 4.342797 -0.854908
v 2.325478 4.342319 -0.857429
v 2.326724 4.341362 -0.858785
v 2.332490 4.338402 -0.857947
v 2.333170 4.338357 -0.856364
v 2.333009 4.338737 -0.854940
v 2.334330 4.338418 -0.852999
v 2.335689 4.337868 -0.852082
v 2.337835 4.336637 -0.852393
v 2.341988 4.334052 -0.853992
v 2.335778 4.339658 -0.843127
v 2.332117 4.341734 -0.842706
vn 0.4571 0.8725 -0.1727
vn 0.4571 0.8725 -0.1726
vn 0.4629 0.8690 -0.1751
vn 0.4752 0.8647 -0.1627
vn 0.4752 0.8647 -0.1626
vn 0.4753 0.8647 -0.1621
vn 0.4578 0.8725 -0.1706
vn 0.4622 0.8725 -0.1582
vn 0.4580 0.8724 -0.1704
vn 0.4699 0.8647 -0.1776
vn 0.4699 0.8648 -0.1768
vn 0.4649 0.8678 -0.1754
vn 0.4570 0.8725 -0.1729
vn 0.4572 0.8723 -0.1730
vn 0.4570 0.8724 -0.1729
vn 0.4571 0.8724 -0.1729
vn 0.4573 0.8724 -0.1727
vn 0.4570 0.8725 -0.1728
vn 0.4721 0.8647 -0.1715
vn 0.4722 0.8647 -0.1708
vn 0.4752 0.8647 -0.1629
vn 0.4753 0.8646 -0.1627
vn 0.4754 0.8646 -0.1626
vn 0.4698 0.8647 -0.1777
vn 0.4699 0.8647 -0.1775
vn 0.4698 0.8647 -0.1776
vn 0.4698 0.8647 -0.1775
vn 0.4705 0.8643 -0.1777
vn 0.4699 0.8646 -0.1777
usemtl None
s 1
f 25//16 34//17 23//18
f 36//19 35//20 40//21
f 21//22 41//23 22//24
f 44//25 42//26 47//25
f 23//18 24//27 25//16
f 24//27 28//28 25//16
f 28//28 27//17 25//16
f 27//17 26//29 25//16
f 29//30 23//18 33//31
f 33//31 23//18 34//17
f 22//24 30//32 33//31
f 30//32 29//30 33//31
f 31//16 21//22 33//31
f 21//22 22//24 33//31
f 33//31 32//33 31//16
f 20//34 19//35 35//20
f 19//35 40//21 35//20
f 40//21 39//36 38//37
f 38//37 37//38 40//21
f 37//38 36//19 40//21
f 19//35 20//34 52//39
f 20//34 51//40 50//40
f 20//34 50//40 52//39
f 52//39 50//40 49//41
f 24//27 23//18 53//41
f 53//41 52//39 49//41
f 53//41 49//41 48//41
f 42//26 24//27 48//41
f 24//27 53//41 48//41
f 44//25 43//42 42//26
f 46//43 45//44 47//25
f 45//44 44//25 47//25
f 48//41 47//25 42//26
