# Blender v2.81 (sub 16) OBJ File: ''
# www.blender.org
mtllib Andorra.mtl
o 0_Andorra_sphere.001
v 3.684870 3.377602 -0.107982
v 3.687409 3.374954 -0.102124
v 3.688314 3.374032 -0.098778
v 3.688807 3.373551 -0.095706
v 3.688680 3.373730 -0.093293
v 3.687283 3.375264 -0.091924
v 3.685113 3.377610 -0.092010
v 3.683198 3.379692 -0.091427
v 3.682130 3.380855 -0.090945
v 3.679324 3.383878 -0.091740
v 3.677740 3.385558 -0.093665
v 3.676457 3.386900 -0.096358
v 3.676805 3.386451 -0.100658
v 3.678447 3.384519 -0.109807
v 3.680089 3.382710 -0.111759
v 3.681217 3.381488 -0.111843
v 3.683106 3.379472 -0.110210
v 3.684430 3.378048 -0.109741
vn 0.7342 0.6788 -0.0115
vn 0.7342 0.6787 -0.0115
vn 0.7342 0.6788 -0.0116
vn 0.7341 0.6789 -0.0116
vn 0.7343 0.6787 -0.0115
vn 0.7343 0.6787 -0.0114
vn 0.7343 0.6787 -0.0117
vn 0.7343 0.6787 -0.0107
vn 0.7345 0.6785 -0.0113
vn 0.7343 0.6787 -0.0116
usemtl None
s 1
f 4//1 3//1 7//2
f 16//3 15//4 14//2
f 14//2 13//5 1//5
f 13//5 12//1 11//3
f 8//6 11//3 10//7
f 13//5 11//3 8//6
f 10//7 9//8 8//6
f 7//2 6//5 4//1
f 6//5 5//9 4//1
f 8//6 7//2 2//5
f 13//5 8//6 2//5
f 14//2 1//5 17//6
f 17//6 16//3 14//2
f 1//5 18//10 17//6
f 3//1 2//5 7//2
f 2//5 1//5 13//5
