# Blender v2.81 (sub 16) OBJ File: ''
# www.blender.org
mtllib Anguilla.mtl
o 0_Anguilla_sphere.001
v 2.155501 1.567176 4.230418
v 2.156037 1.563636 4.231470
v 2.156067 1.563437 4.231529
v 2.157039 1.566994 4.229672
v 2.144789 1.559207 4.238626
v 2.144935 1.561594 4.237668
v 2.153534 1.567385 4.231304
vn 0.4225 0.3166 0.8492
vn 0.4440 0.3164 0.8383
vn 0.4299 0.3164 0.8456
vn 0.4174 0.3164 0.8518
vn 0.4179 0.3165 0.8515
vn 0.4173 0.3164 0.8518
usemtl None
s 1
f 2//1 4//2 1//3
f 7//4 3//5 2//1
f 2//1 1//3 7//4
f 7//4 6//6 3//5
f 6//6 5//6 3//5
