# Blender v2.81 (sub 16) OBJ File: ''
# www.blender.org
mtllib Austria.mtl
o 0_Austria_sphere.001
v 3.175272 3.750555 -0.922496
v 3.231451 3.698155 -0.938818
v 3.259346 3.698155 -0.836852
v 3.315207 3.644842 -0.851194
v 3.340308 3.644842 -0.746641
v 3.362113 3.644842 -0.641351
v 3.166308 3.758655 -0.919892
v 3.349325 3.636029 -0.748657
v 3.359353 3.644842 -0.654678
v 3.343992 3.644842 -0.728856
v 3.362622 3.644842 -0.638433
v 3.210879 3.750555 -0.788160
v 3.207408 3.750555 -0.802616
v 3.316652 3.687624 -0.632679
v 3.162574 3.750555 -0.963772
v 3.278461 3.652903 -0.952475
v 3.290342 3.644842 -0.942087
v 3.363157 3.643828 -0.641550
v 3.202903 3.750350 -0.822360
v 3.278305 3.698155 -0.757881
v 3.226593 3.698155 -0.954610
v 3.222522 3.698155 -0.967841
v 3.217011 3.698155 -0.985756
v 3.202599 3.750555 -0.822608
v 3.198600 3.750555 -0.837225
v 3.198235 3.750555 -0.838559
v 3.288818 3.698155 -0.710911
v 3.287976 3.698155 -0.714980
v 3.337861 3.622531 -0.857011
v 3.286701 3.695619 -0.734659
v 3.198392 3.750415 -0.838574
v 3.296125 3.639057 -0.943928
v 3.296755 3.638556 -0.943613
v 3.298209 3.637351 -0.943084
v 3.299201 3.639348 -0.931527
v 3.299363 3.639294 -0.931148
v 3.302135 3.638542 -0.924005
v 3.306209 3.635876 -0.919705
v 3.309401 3.634371 -0.914010
v 3.312121 3.635160 -0.900932
v 3.316554 3.634159 -0.888710
v 3.318140 3.633395 -0.885947
v 3.319439 3.632987 -0.882816
v 3.321802 3.631476 -0.880179
v 3.324498 3.629288 -0.879016
v 3.328084 3.626589 -0.876632
v 3.331481 3.624436 -0.872765
v 3.334442 3.622820 -0.868360
v 3.336149 3.621444 -0.867584
v 3.337381 3.620660 -0.866197
v 3.337032 3.621728 -0.863231
v 3.337684 3.621676 -0.861055
v 3.337652 3.622422 -0.858208
v 3.288423 3.698526 -0.710778
v 3.287665 3.699084 -0.711366
v 3.342213 3.646847 -0.726753
v 3.337430 3.652675 -0.718762
v 3.334584 3.655630 -0.716738
v 3.331429 3.658217 -0.718176
v 3.328959 3.660146 -0.719809
v 3.328134 3.660974 -0.719381
v 3.328001 3.661414 -0.717677
v 3.333107 3.658866 -0.706612
v 3.338850 3.655650 -0.696032
v 3.339851 3.655574 -0.691607
v 3.340022 3.656257 -0.687141
v 3.341118 3.656335 -0.681426
v 3.343155 3.655490 -0.676101
v 3.345854 3.655093 -0.665188
v 3.349656 3.652771 -0.659213
v 3.355318 3.648235 -0.656065
v 3.315953 3.687461 -0.636923
v 3.317193 3.686322 -0.637013
v 3.318832 3.684515 -0.638733
v 3.320900 3.681914 -0.642622
v 3.322351 3.680223 -0.644634
v 3.321993 3.679870 -0.648244
v 3.319900 3.680781 -0.653495
v 3.318256 3.681708 -0.656486
v 3.318733 3.681025 -0.657826
v 3.316984 3.681701 -0.662666
v 3.313902 3.683750 -0.666619
v 3.311970 3.685360 -0.667364
v 3.309870 3.686472 -0.671569
v 3.305898 3.689046 -0.677021
v 3.302092 3.691029 -0.684819
v 3.294158 3.693238 -0.711350
v 3.292230 3.694857 -0.712028
v 3.287689 3.697356 -0.720618
v 3.288175 3.696076 -0.725103
v 3.289406 3.694379 -0.728211
v 3.288914 3.694350 -0.730742
v 3.286824 3.695567 -0.734339
v 3.349685 3.637109 -0.741333
v 3.348954 3.638903 -0.735589
v 3.346168 3.642314 -0.731413
v 3.359679 3.644559 -0.654563
v 3.361280 3.643376 -0.652950
v 3.362530 3.642939 -0.649173
v 3.363305 3.643342 -0.643348
v 3.166129 3.758520 -0.921001
v 3.163738 3.758419 -0.929172
v 3.160830 3.760317 -0.931186
v 3.158043 3.761877 -0.934128
v 3.157171 3.761661 -0.937811
v 3.157130 3.760819 -0.941243
v 3.158275 3.758071 -0.948291
v 3.158180 3.757361 -0.951379
v 3.157521 3.756902 -0.955322
v 3.157314 3.756317 -0.958290
v 3.161798 3.751563 -0.962341
v 3.163474 3.749699 -0.964095
v 3.165913 3.747505 -0.964498
v 3.169518 3.744743 -0.963262
v 3.174096 3.741127 -0.962109
v 3.177414 3.737976 -0.963289
v 3.187346 3.726961 -0.972822
v 3.192866 3.720262 -0.980314
v 3.195267 3.717720 -0.982157
v 3.196306 3.715760 -0.986224
v 3.199936 3.713297 -0.983775
v 3.204027 3.709645 -0.984339
v 3.206405 3.708029 -0.982745
v 3.208812 3.705930 -0.982887
v 3.210572 3.704026 -0.984395
v 3.213096 3.701666 -0.985150
v 3.216248 3.698377 -0.987395
v 3.221434 3.700290 -0.963272
v 3.221712 3.700945 -0.959882
v 3.222592 3.700769 -0.957692
v 3.224506 3.699460 -0.956437
v 3.162762 3.750300 -0.964130
v 3.218579 3.697680 -0.982406
v 3.220383 3.697790 -0.976135
v 3.221222 3.697636 -0.973978
v 3.222823 3.696710 -0.972180
v 3.223004 3.697177 -0.969875
v 3.227197 3.697765 -0.954080
v 3.229281 3.696560 -0.951739
v 3.230233 3.695465 -0.952672
v 3.229595 3.692614 -0.965234
v 3.233453 3.688279 -0.968641
v 3.237795 3.684757 -0.967483
v 3.239822 3.683027 -0.967258
v 3.242065 3.681680 -0.964919
v 3.244292 3.680529 -0.961919
v 3.245829 3.680252 -0.957938
v 3.247933 3.678363 -0.958052
v 3.253247 3.672770 -0.961349
v 3.254905 3.671557 -0.960420
v 3.257104 3.669824 -0.959649
v 3.261488 3.665231 -0.962297
v 3.261069 3.664891 -0.964908
v 3.261994 3.663832 -0.965796
v 3.264052 3.661981 -0.965915
v 3.266249 3.659997 -0.966073
v 3.268700 3.657902 -0.965815
v 3.269807 3.656966 -0.965658
v 3.270877 3.656426 -0.964164
v 3.272140 3.656763 -0.958823
v 3.275364 3.654997 -0.954836
v 3.360381 3.647540 -0.634304
v 3.361080 3.647940 -0.627775
v 3.362076 3.647973 -0.621866
v 3.361742 3.648545 -0.620182
v 3.359562 3.650578 -0.619880
v 3.355858 3.654440 -0.616804
v 3.355276 3.655617 -0.612732
v 3.364762 3.648337 -0.604182
v 3.365941 3.647676 -0.601585
v 3.365205 3.649686 -0.593164
v 3.363115 3.652793 -0.585586
v 3.360849 3.655046 -0.584401
v 3.359054 3.656914 -0.582930
v 3.358176 3.658700 -0.576723
v 3.358163 3.659912 -0.569175
v 3.358584 3.659897 -0.566856
v 3.357245 3.661005 -0.567558
v 3.355141 3.662837 -0.568086
v 3.353639 3.664333 -0.567275
v 3.352324 3.665848 -0.565283
v 3.350736 3.667490 -0.564047
v 3.349087 3.669081 -0.563490
v 3.347795 3.670378 -0.562732
v 3.346544 3.671602 -0.562206
v 3.345629 3.672548 -0.561495
v 3.337167 3.679703 -0.564963
v 3.332244 3.684160 -0.565127
v 3.330147 3.686806 -0.560500
v 3.329634 3.687575 -0.558601
v 3.328772 3.688147 -0.559943
v 3.328276 3.687646 -0.565935
v 3.326046 3.689123 -0.569420
v 3.324162 3.690570 -0.571115
v 3.324705 3.689205 -0.576590
v 3.326340 3.686412 -0.584794
v 3.327693 3.684545 -0.588785
v 3.328984 3.683087 -0.590558
v 3.330158 3.681851 -0.591614
v 3.332444 3.679777 -0.591560
v 3.333020 3.678950 -0.593459
v 3.332689 3.678665 -0.597159
v 3.332952 3.678023 -0.599688
v 3.336033 3.675267 -0.599375
v 3.338472 3.673002 -0.599642
v 3.337538 3.673329 -0.602941
v 3.334924 3.675094 -0.606810
v 3.331033 3.678214 -0.609482
v 3.327447 3.681252 -0.610913
v 3.319366 3.688595 -0.611012
v 3.318629 3.689203 -0.611415
v 3.318769 3.688656 -0.614051
v 3.316601 3.689021 -0.624179
v 3.317141 3.687720 -0.629271
v 3.362959 3.644422 -0.639066
v 3.201208 3.751452 -0.823771
v 3.199721 3.751997 -0.826828
v 3.199559 3.751252 -0.830671
v 3.193552 3.754557 -0.838198
v 3.187590 3.758827 -0.841345
v 3.185339 3.760354 -0.842905
v 3.183977 3.760206 -0.848532
v 3.180014 3.763427 -0.848948
v 3.169726 3.772333 -0.847665
v 3.168302 3.773322 -0.848554
v 3.167395 3.773140 -0.852661
v 3.168146 3.771475 -0.857190
v 3.169257 3.770177 -0.858796
v 3.168586 3.770265 -0.860865
v 3.166778 3.771168 -0.863533
v 3.165225 3.771771 -0.866572
v 3.164924 3.770794 -0.871942
v 3.166426 3.766762 -0.884060
v 3.166536 3.765280 -0.890125
v 3.165227 3.765583 -0.893590
v 3.164347 3.765554 -0.896933
v 3.167706 3.759350 -0.911743
v 3.284686 3.648532 -0.947637
v 3.286718 3.647422 -0.944757
v 3.209600 3.751611 -0.788273
v 3.205473 3.755314 -0.787181
v 3.201481 3.758815 -0.786533
v 3.200056 3.759947 -0.786881
v 3.200148 3.759523 -0.788589
v 3.201081 3.757716 -0.793621
v 3.202471 3.755698 -0.797791
v 3.278290 3.698567 -0.755971
v 3.278841 3.698783 -0.752645
v 3.278692 3.699305 -0.750769
v 3.277002 3.700723 -0.751026
v 3.272487 3.704295 -0.752751
v 3.267248 3.709120 -0.751502
v 3.262648 3.714645 -0.744242
v 3.258068 3.719976 -0.737826
v 3.256114 3.721771 -0.737383
v 3.251959 3.724910 -0.739680
v 3.248159 3.727364 -0.743771
v 3.241193 3.731467 -0.753169
v 3.239479 3.732316 -0.756243
v 3.237688 3.733029 -0.760297
v 3.234418 3.734698 -0.765934
v 3.231791 3.736470 -0.768405
v 3.229282 3.738349 -0.769869
v 3.217807 3.748287 -0.770145
v 3.217191 3.748708 -0.770700
v 3.216367 3.749284 -0.771372
v 3.217510 3.745885 -0.782872
v 3.216671 3.746448 -0.783670
v 3.215637 3.747005 -0.785311
v 3.211959 3.749635 -0.788054
v 3.206947 3.749230 -0.810872
v 3.204618 3.749167 -0.820871
v 3.284794 3.696310 -0.739401
v 3.285557 3.694477 -0.744719
v 3.287253 3.692544 -0.746608
v 3.288469 3.691589 -0.745971
v 3.290104 3.690018 -0.746435
v 3.291098 3.688725 -0.748286
v 3.292423 3.686565 -0.752774
v 3.293137 3.684722 -0.758340
v 3.292359 3.684856 -0.760961
v 3.290255 3.686628 -0.761519
v 3.285589 3.690843 -0.761421
v 3.280751 3.695352 -0.760683
v 3.278319 3.697927 -0.758878
v 3.339119 3.623128 -0.849091
v 3.340236 3.624343 -0.838978
v 3.340147 3.625536 -0.833997
v 3.340436 3.626502 -0.828453
v 3.341038 3.627255 -0.822569
v 3.342073 3.627439 -0.817426
v 3.342332 3.627792 -0.814767
v 3.343127 3.629899 -0.801996
v 3.344904 3.630059 -0.793872
v 3.346569 3.630937 -0.782996
v 3.348231 3.634285 -0.761042
v 3.348374 3.635594 -0.754570
vn 0.6322 0.7552 -0.1729
vn 0.6453 0.7445 -0.1710
vn 0.6519 0.7396 -0.1674
vn 0.6430 0.7453 -0.1761
vn 0.6488 0.7448 -0.1558
vn 0.6488 0.7448 -0.1557
vn 0.6601 0.7343 -0.1584
vn 0.6601 0.7343 -0.1585
vn 0.6681 0.7289 -0.1493
vn 0.6647 0.7343 -0.1376
vn 0.6724 0.7289 -0.1282
vn 0.6687 0.7343 -0.1167
vn 0.6687 0.7342 -0.1167
vn 0.6658 0.7235 -0.1821
vn 0.6631 0.7289 -0.1702
vn 0.6534 0.7448 -0.1353
vn 0.6587 0.7399 -0.1364
vn 0.6635 0.7354 -0.1374
vn 0.6688 0.7304 -0.1385
vn 0.6759 0.7235 -0.1400
vn 0.6760 0.7235 -0.1400
vn 0.6734 0.7236 -0.1517
vn 0.6265 0.7552 -0.1928
vn 0.6263 0.7554 -0.1928
vn 0.6265 0.7552 -0.1926
vn 0.6377 0.7449 -0.1962
vn 0.6351 0.7501 -0.1845
vn 0.6377 0.7448 -0.1962
vn 0.6488 0.7343 -0.1996
vn 0.6489 0.7343 -0.1993
vn 0.6401 0.7426 -0.1969
vn 0.6487 0.7344 -0.1996
vn 0.6489 0.7342 -0.1997
vn 0.6800 0.7235 -0.1186
vn 0.6716 0.7316 -0.1172
vn 0.6322 0.7552 -0.1730
vn 0.6321 0.7553 -0.1729
vn 0.6419 0.7463 -0.1760
vn 0.6463 0.7396 -0.1877
vn 0.6548 0.7342 -0.1791
vn 0.6373 0.7552 -0.1530
vn 0.6713 0.7235 -0.1611
vn 0.6712 0.7235 -0.1611
vn 0.6391 0.7490 -0.1748
vn 0.6296 0.7553 -0.1819
vn 0.6323 0.7551 -0.1730
vn 0.6321 0.7553 -0.1730
vn 0.6323 0.7552 -0.1729
vn 0.6322 0.7553 -0.1728
vn 0.6439 0.7445 -0.1763
vn 0.6499 0.7438 -0.1560
vn 0.6488 0.7448 -0.1559
vn 0.6487 0.7449 -0.1558
vn 0.6488 0.7449 -0.1554
vn 0.6487 0.7449 -0.1557
vn 0.6456 0.7478 -0.1550
vn 0.6487 0.7450 -0.1556
vn 0.6440 0.7492 -0.1546
vn 0.6483 0.7453 -0.1555
vn 0.6488 0.7448 -0.1560
vn 0.6485 0.7450 -0.1557
vn 0.6486 0.7450 -0.1557
vn 0.6601 0.7342 -0.1585
vn 0.6595 0.7348 -0.1584
vn 0.6619 0.7345 -0.1494
vn 0.6600 0.7343 -0.1585
vn 0.6601 0.7342 -0.1588
vn 0.6685 0.7307 -0.1384
vn 0.6617 0.7371 -0.1371
vn 0.6648 0.7342 -0.1377
vn 0.6646 0.7344 -0.1375
vn 0.6648 0.7342 -0.1376
vn 0.6647 0.7343 -0.1375
vn 0.6647 0.7343 -0.1374
vn 0.6647 0.7343 -0.1377
vn 0.6648 0.7342 -0.1375
vn 0.6644 0.7345 -0.1381
vn 0.6668 0.7343 -0.1269
vn 0.6688 0.7342 -0.1168
vn 0.6688 0.7342 -0.1167
vn 0.6687 0.7343 -0.1168
vn 0.6688 0.7342 -0.1164
vn 0.6687 0.7343 -0.1166
vn 0.6691 0.7339 -0.1167
vn 0.6688 0.7343 -0.1166
vn 0.6688 0.7342 -0.1166
vn 0.6685 0.7345 -0.1167
vn 0.6685 0.7344 -0.1171
vn 0.6687 0.7342 -0.1169
vn 0.6686 0.7344 -0.1168
vn 0.6686 0.7344 -0.1165
vn 0.6684 0.7236 -0.1723
vn 0.6658 0.7235 -0.1820
vn 0.6661 0.7232 -0.1822
vn 0.6658 0.7235 -0.1823
vn 0.6656 0.7237 -0.1822
vn 0.6658 0.7235 -0.1822
vn 0.6594 0.7299 -0.1803
vn 0.6662 0.7228 -0.1835
vn 0.6659 0.7234 -0.1823
vn 0.6657 0.7236 -0.1821
vn 0.6658 0.7236 -0.1821
vn 0.6658 0.7236 -0.1820
vn 0.6530 0.7451 -0.1355
vn 0.6776 0.7235 -0.1318
vn 0.6759 0.7236 -0.1400
vn 0.6759 0.7235 -0.1401
vn 0.6756 0.7239 -0.1397
vn 0.6759 0.7235 -0.1399
vn 0.6345 0.7479 -0.1948
vn 0.6266 0.7551 -0.1928
vn 0.6265 0.7552 -0.1929
vn 0.6265 0.7552 -0.1927
vn 0.6264 0.7552 -0.1928
vn 0.6264 0.7553 -0.1927
vn 0.6384 0.7442 -0.1964
vn 0.6378 0.7448 -0.1961
vn 0.6377 0.7446 -0.1971
vn 0.6377 0.7448 -0.1963
vn 0.6377 0.7449 -0.1961
vn 0.6402 0.7425 -0.1969
vn 0.6379 0.7447 -0.1963
vn 0.6377 0.7449 -0.1960
vn 0.6377 0.7448 -0.1961
vn 0.6377 0.7450 -0.1956
vn 0.6382 0.7449 -0.1942
vn 0.6377 0.7447 -0.1968
vn 0.6533 0.7343 -0.1843
vn 0.6488 0.7343 -0.1997
vn 0.6488 0.7343 -0.1995
vn 0.6488 0.7343 -0.1998
vn 0.6487 0.7344 -0.1993
vn 0.6487 0.7343 -0.1996
vn 0.6489 0.7342 -0.1996
vn 0.6488 0.7342 -0.1996
vn 0.6489 0.7343 -0.1995
vn 0.6490 0.7341 -0.1996
vn 0.6489 0.7341 -0.1999
vn 0.6488 0.7342 -0.1998
vn 0.6489 0.7342 -0.1995
vn 0.6487 0.7343 -0.1998
vn 0.6487 0.7344 -0.1994
vn 0.6320 0.7554 -0.1729
vn 0.6547 0.7343 -0.1791
vn 0.6373 0.7552 -0.1531
vn 0.6373 0.7552 -0.1529
vn 0.6373 0.7552 -0.1532
vn 0.6713 0.7235 -0.1612
vn 0.6712 0.7236 -0.1610
vn 0.6712 0.7235 -0.1612
usemtl None
s 1
f 222//1 234//1 233//1
f 19//2 3//3 25//4
f 261//5 260//5 252//6
f 280//7 279//8 5//9
f 71//10 70//10 6//11
f 192//12 189//12 188//13
f 41//14 40//14 4//15
f 55//16 27//17 28//18
f 9//19 6//11 99//20
f 94//21 8//22 5//9
f 105//23 104//24 103//25
f 116//26 1//27 130//28
f 151//29 150//30 148//29
f 22//31 135//32 134//33
f 215//34 6//11 11//35
f 217//36 216//37 24//38
f 2//39 3//3 239//40
f 241//41 240//41 246//41
f 289//42 288//43 4//15
f 26//44 1//27 234//1
f 1//27 7//45 237//1
f 237//1 236//46 235//1
f 1//27 237//1 234//1
f 26//44 234//1 222//1
f 220//47 219//1 222//1
f 219//1 26//44 222//1
f 222//1 221//37 220//47
f 225//46 224//1 226//48
f 224//1 223//1 228//1
f 226//48 224//1 227//1
f 224//1 228//1 227//1
f 223//1 222//1 229//1
f 228//1 223//1 229//1
f 231//36 230//49 232//1
f 230//49 229//1 232//1
f 237//1 235//1 234//1
f 232//1 229//1 233//1
f 229//1 222//1 233//1
f 3//3 2//39 31//50
f 2//39 1//27 31//50
f 1//27 26//44 31//50
f 31//50 25//4 3//3
f 25//4 24//38 19//2
f 20//51 3//3 261//5
f 3//3 19//2 272//5
f 3//3 272//5 271//6
f 249//52 248//53 250//5
f 248//53 247//5 250//5
f 247//5 20//51 251//54
f 3//3 271//6 267//55
f 262//5 3//3 267//55
f 271//6 13//56 269//57
f 13//56 12//58 270//6
f 3//3 262//5 261//5
f 251//54 250//5 247//5
f 13//56 270//6 269//57
f 269//57 268//59 267//55
f 251//54 20//51 252//6
f 254//6 253//6 256//5
f 253//6 252//6 258//6
f 254//6 256//5 255//60
f 252//6 20//51 261//5
f 271//6 269//57 267//55
f 267//55 266//5 265//61
f 265//61 264//62 267//55
f 264//62 263//60 267//55
f 262//5 267//55 263//60
f 257//5 253//6 258//6
f 257//5 256//5 253//6
f 259//6 258//6 252//6
f 260//5 259//6 252//6
f 5//9 4//15 281//63
f 4//15 3//3 281//63
f 3//3 20//51 285//64
f 3//3 285//64 284//8
f 273//63 30//65 276//8
f 30//65 5//9 278//8
f 276//8 30//65 277//66
f 275//67 274//8 276//8
f 274//8 273//63 276//8
f 3//3 284//8 283//8
f 3//3 283//8 282//63
f 277//66 30//65 278//8
f 3//3 282//63 281//63
f 279//8 278//8 5//9
f 5//9 281//63 280//7
f 10//68 5//9 56//10
f 5//9 30//65 61//10
f 61//10 30//65 92//10
f 30//65 93//69 92//10
f 91//10 90//10 87//10
f 90//10 89//70 87//10
f 87//10 89//70 88//71
f 89//70 28//18 88//71
f 5//9 61//10 60//72
f 92//10 91//10 61//10
f 58//73 57//10 59//74
f 57//10 56//10 60//72
f 59//74 57//10 60//72
f 56//10 5//9 60//72
f 28//18 27//17 88//71
f 87//10 86//10 62//10
f 86//10 85//10 63//75
f 91//10 87//10 61//10
f 86//10 63//75 62//10
f 85//10 84//10 63//75
f 84//10 83//74 82//10
f 84//10 82//10 66//10
f 63//75 84//10 66//10
f 62//10 61//10 87//10
f 65//10 64//72 66//10
f 64//72 63//75 66//10
f 82//10 81//75 67//10
f 80//70 79//76 78//72
f 66//10 82//10 67//10
f 80//70 78//72 69//10
f 78//72 77//10 69//10
f 81//75 80//70 68//10
f 67//10 81//75 68//10
f 69//10 68//10 80//70
f 76//75 75//77 74//10
f 77//10 76//75 70//10
f 69//10 77//10 70//10
f 76//75 74//10 6//11
f 70//10 76//75 6//11
f 73//72 72//75 14//78
f 74//10 73//72 14//78
f 6//11 74//10 14//78
f 6//11 9//19 71//10
f 11//35 6//11 162//12
f 6//11 14//78 162//12
f 214//79 213//80 209//12
f 213//80 212//12 209//12
f 14//78 214//79 208//12
f 162//12 14//78 167//12
f 212//12 211//81 210//12
f 14//78 208//12 167//12
f 165//82 164//12 166//12
f 164//12 163//12 166//12
f 163//12 162//12 167//12
f 214//79 209//12 208//12
f 212//12 210//12 209//12
f 167//12 166//12 163//12
f 208//12 207//83 167//12
f 167//12 207//83 168//12
f 207//83 206//80 168//12
f 170//84 169//80 171//80
f 169//80 168//12 171//80
f 168//12 206//80 205//80
f 173//80 172//85 171//80
f 174//12 173//80 168//12
f 173//80 171//80 168//12
f 168//12 205//80 174//12
f 204//79 203//81 202//86
f 205//80 204//79 201//87
f 174//12 205//80 175//12
f 175//12 205//80 200//12
f 204//79 202//86 201//87
f 200//12 199//80 198//88
f 201//87 200//12 205//80
f 178//83 177//89 176//80
f 176//80 175//12 179//90
f 200//12 198//88 197//13
f 175//12 200//12 180//12
f 179//90 175//12 180//12
f 179//90 178//83 176//80
f 182//86 181//91 180//12
f 183//12 182//86 180//12
f 200//12 197//13 196//12
f 196//12 195//12 188//13
f 195//12 194//80 193//12
f 195//12 193//12 188//13
f 180//12 200//12 183//12
f 200//12 196//12 187//13
f 184//83 183//12 187//13
f 187//13 183//12 200//12
f 187//13 186//80 185//81
f 185//81 184//83 187//13
f 192//12 191//81 189//12
f 191//81 190//81 189//12
f 196//12 188//13 187//13
f 193//12 192//12 188//13
f 4//15 29//92 53//93
f 53//93 52//94 51//95
f 51//95 50//96 49//93
f 48//14 47//14 4//15
f 47//14 46//14 4//15
f 51//95 49//93 48//14
f 4//15 53//93 48//14
f 53//93 51//95 48//14
f 32//97 17//98 35//99
f 17//98 4//15 37//14
f 35//99 17//98 36//100
f 35//99 34//101 33//97
f 33//97 32//97 35//99
f 46//14 45//97 4//15
f 45//97 44//102 4//15
f 37//14 36//100 17//98
f 39//97 38//103 37//14
f 40//14 39//97 37//14
f 43//14 42//102 41//14
f 4//15 44//102 43//14
f 40//14 37//14 4//15
f 4//15 43//14 41//14
f 55//16 54//104 27//17
f 6//11 18//105 100//106
f 100//106 99//20 6//11
f 99//20 98//107 9//19
f 98//107 97//108 9//19
f 5//9 10//68 96//109
f 96//109 95//109 5//9
f 95//109 94//21 5//9
f 1//27 15//110 111//111
f 111//111 110//112 109//113
f 111//111 109//113 108//113
f 7//45 1//27 101//114
f 1//27 111//111 107//113
f 101//114 1//27 102//113
f 102//113 1//27 107//113
f 111//111 108//113 107//113
f 107//113 106//115 102//113
f 106//115 105//23 103//25
f 102//113 106//115 103//25
f 22//31 23//116 126//28
f 23//116 127//117 126//28
f 126//28 125//118 124//119
f 128//28 22//31 124//119
f 22//31 126//28 124//119
f 129//119 128//28 123//28
f 128//28 124//119 123//28
f 123//28 122//119 121//120
f 21//121 131//122 2//39
f 131//122 130//28 2//39
f 130//28 129//119 117//28
f 129//119 123//28 118//28
f 121//120 120//123 119//124
f 129//119 118//28 117//28
f 123//28 121//120 119//124
f 118//28 123//28 119//124
f 15//110 1//27 114//28
f 1//27 2//39 130//28
f 15//110 114//28 112//125
f 112//125 132//126 15//110
f 114//28 113//127 112//125
f 115//26 114//28 1//27
f 115//26 1//27 116//26
f 116//26 130//28 117//28
f 2//39 16//128 151//29
f 16//128 161//129 151//29
f 160//29 159//29 157//130
f 159//29 158//131 157//130
f 161//129 160//29 151//29
f 138//132 21//121 2//39
f 139//133 138//132 2//39
f 152//134 160//29 156//135
f 157//130 156//135 160//29
f 155//33 154//136 152//134
f 154//136 153//137 152//134
f 156//135 155//33 152//134
f 140//29 139//133 2//39
f 142//130 141//29 143//29
f 141//29 140//29 143//29
f 145//138 144//139 143//29
f 143//29 140//29 146//29
f 140//29 2//39 147//140
f 146//29 145//138 143//29
f 147//140 146//29 140//29
f 160//29 152//134 151//29
f 150//30 149//141 148//29
f 148//29 147//140 2//39
f 2//39 151//29 148//29
f 22//31 137//135 135//32
f 137//135 136//142 135//32
f 133//138 23//116 134//33
f 23//116 22//31 134//33
f 215//34 18//105 6//11
f 24//38 25//4 218//143
f 218//143 217//36 24//38
f 4//15 17//98 3//3
f 17//98 239//40 3//3
f 239//40 238//144 16//128
f 16//128 2//39 239//40
f 12//58 13//56 240//41
f 13//56 246//41 240//41
f 246//41 245//41 241//41
f 245//41 244//145 241//41
f 241//41 244//145 242//146
f 244//145 243//147 242//146
f 5//9 8//22 297//148
f 297//148 296//43 5//9
f 296//43 295//43 5//9
f 295//43 294//43 5//9
f 294//43 293//43 5//9
f 293//43 292//43 4//15
f 292//43 291//149 290//43
f 4//15 292//43 290//43
f 4//15 5//9 293//43
f 286//43 29//92 4//15
f 288//43 287//150 4//15
f 287//150 286//43 4//15
f 290//43 289//42 4//15
