# Blender v2.81 (sub 16) OBJ File: ''
# www.blender.org
mtllib Barbados.mtl
o 0_Barbados_sphere.001
v 2.470291 1.129983 4.197346
v 2.463301 1.133356 4.200434
v 2.460489 1.137436 4.200949
v 2.458689 1.150444 4.198505
v 2.462610 1.151694 4.195935
v 2.471457 1.141437 4.193625
v 2.476360 1.137715 4.191822
v 2.472210 1.131666 4.195802
vn 0.4827 0.2257 0.8462
vn 0.4827 0.2258 0.8462
vn 0.4826 0.2257 0.8462
usemtl None
s 1
f 6//1 2//1 8//1
f 6//1 5//1 3//1
f 5//1 4//1 3//1
f 3//1 2//1 6//1
f 2//1 1//2 8//1
f 8//1 7//3 6//1
