# Blender v2.81 (sub 16) OBJ File: ''
# www.blender.org
mtllib Belgium.mtl
o 0_Belgium_sphere.001
v 3.172977 3.852566 -0.299929
v 3.114389 3.900477 -0.294390
v 3.180640 3.852566 -0.202575
v 3.121126 3.901271 -0.196359
v 3.175806 3.856666 -0.199799
v 3.117638 3.902151 -0.226910
v 3.113299 3.902151 -0.282033
v 3.121399 3.902151 -0.167632
v 3.120622 3.902151 -0.184114
v 3.227331 3.806673 -0.305067
v 3.167217 3.852566 -0.352103
v 3.175650 3.856803 -0.199534
v 3.174508 3.857988 -0.192873
v 3.174428 3.858395 -0.183934
v 3.172932 3.859707 -0.181462
v 3.168985 3.862977 -0.179929
v 3.164165 3.866939 -0.178834
v 3.159693 3.870697 -0.175652
v 3.158602 3.871645 -0.174090
v 3.156660 3.873330 -0.171329
v 3.157761 3.872611 -0.166746
v 3.160745 3.870392 -0.161320
v 3.161659 3.869773 -0.158073
v 3.161992 3.869550 -0.156839
v 3.159588 3.871680 -0.152271
v 3.155701 3.875040 -0.147100
v 3.151525 3.878597 -0.142920
v 3.149178 3.880547 -0.141851
v 3.146126 3.882988 -0.142934
v 3.143958 3.884811 -0.141369
v 3.139955 3.888155 -0.139058
v 3.136756 3.890785 -0.138307
v 3.124215 3.900095 -0.161548
v 3.121321 3.901573 -0.184346
v 3.123090 3.900083 -0.185697
v 3.124213 3.899105 -0.187387
v 3.124313 3.898940 -0.189555
v 3.122761 3.900112 -0.191927
v 3.121053 3.901372 -0.195279
v 3.114005 3.900645 -0.295990
v 3.112922 3.901300 -0.298468
v 3.113411 3.900743 -0.300268
v 3.115675 3.898737 -0.302220
v 3.118014 3.896488 -0.306208
v 3.119162 3.894843 -0.314213
v 3.119986 3.893952 -0.316727
v 3.121668 3.892424 -0.318584
v 3.124390 3.890241 -0.318368
v 3.131349 3.884883 -0.315299
v 3.133333 3.883303 -0.315004
v 3.133949 3.882755 -0.315571
v 3.135243 3.881762 -0.314959
v 3.140160 3.878179 -0.310524
v 3.141743 3.876923 -0.310235
v 3.144111 3.874839 -0.312113
v 3.146077 3.873109 -0.313664
v 3.145640 3.873463 -0.313673
v 3.142962 3.874978 -0.320971
v 3.146421 3.871841 -0.324736
v 3.146000 3.871683 -0.330321
v 3.147111 3.870714 -0.331111
v 3.150013 3.867774 -0.337722
v 3.152636 3.865452 -0.339958
v 3.154880 3.863209 -0.344735
v 3.158738 3.860385 -0.341392
v 3.160215 3.859125 -0.342123
v 3.161630 3.857844 -0.343634
v 3.162005 3.857078 -0.348807
v 3.163978 3.855232 -0.351600
v 3.225096 3.808735 -0.302218
v 3.223279 3.810461 -0.299123
v 3.221586 3.811976 -0.297656
v 3.221165 3.812571 -0.293997
v 3.219433 3.814373 -0.288695
v 3.217407 3.816319 -0.284941
v 3.216224 3.817518 -0.281773
v 3.215832 3.818134 -0.277423
v 3.216225 3.818038 -0.273892
v 3.212384 3.821347 -0.272520
v 3.207927 3.825135 -0.271715
v 3.205148 3.827671 -0.268582
v 3.193105 3.837570 -0.271530
v 3.192162 3.838521 -0.269095
v 3.193315 3.837718 -0.266623
v 3.196383 3.835374 -0.263165
v 3.199893 3.832531 -0.261672
v 3.202933 3.830037 -0.260858
v 3.206224 3.827674 -0.254866
v 3.208006 3.826827 -0.245080
v 3.207816 3.827702 -0.234219
v 3.207174 3.828342 -0.232665
v 3.206369 3.829067 -0.231914
v 3.205327 3.829946 -0.231829
v 3.203673 3.831290 -0.232467
v 3.201631 3.832886 -0.234204
v 3.198831 3.835216 -0.234465
v 3.196595 3.837228 -0.232368
v 3.195746 3.838027 -0.231047
v 3.193423 3.839952 -0.231377
v 3.190436 3.842376 -0.232585
v 3.188766 3.843765 -0.232741
v 3.184308 3.848004 -0.225128
v 3.183701 3.848863 -0.219817
v 3.183917 3.849018 -0.214717
v 3.183609 3.849533 -0.210814
v 3.184005 3.849349 -0.208579
v 3.185591 3.848120 -0.207054
v 3.186759 3.847245 -0.205480
v 3.185609 3.848295 -0.204175
v 3.117655 3.904801 -0.175671
v 3.115479 3.906267 -0.182366
v 3.114646 3.900918 -0.284229
v 3.115494 3.899886 -0.289605
v 3.176870 3.855703 -0.201358
v 3.121390 3.900770 -0.200855
v 3.122507 3.899601 -0.204964
v 3.123881 3.898388 -0.206493
v 3.125068 3.897249 -0.209246
v 3.125113 3.896961 -0.213159
v 3.121923 3.899083 -0.220492
v 3.167423 3.852391 -0.352134
v 3.172894 3.847656 -0.353905
v 3.179569 3.842991 -0.344018
v 3.186105 3.837742 -0.341698
v 3.187344 3.836720 -0.341562
v 3.187178 3.836894 -0.341186
v 3.185282 3.838605 -0.339798
v 3.185509 3.838591 -0.337895
v 3.185111 3.839335 -0.333441
v 3.191387 3.834598 -0.327939
v 3.196357 3.830657 -0.325652
v 3.199933 3.827787 -0.324367
v 3.202952 3.825465 -0.322184
v 3.205924 3.823001 -0.321987
v 3.207134 3.821949 -0.322420
v 3.208798 3.820621 -0.321738
v 3.210457 3.819224 -0.321862
v 3.213381 3.816425 -0.325721
v 3.215060 3.814924 -0.326783
v 3.220395 3.810014 -0.331682
v 3.222679 3.808208 -0.330560
v 3.225083 3.806277 -0.329731
v 3.226850 3.804900 -0.328650
v 3.228014 3.804051 -0.327307
v 3.228432 3.804115 -0.322833
v 3.229737 3.803539 -0.317250
v 3.231284 3.802588 -0.313544
v 3.231511 3.802581 -0.311571
v 3.229013 3.805071 -0.307200
v 3.107373 3.908045 -0.262061
v 3.107847 3.907578 -0.263595
v 3.107121 3.907828 -0.268776
v 3.104342 3.909863 -0.271184
v 3.102514 3.911180 -0.273121
v 3.103483 3.910317 -0.274764
v 3.106586 3.907814 -0.275806
v 3.110582 3.904561 -0.277604
v 3.117296 3.902388 -0.227416
v 3.114297 3.904628 -0.229323
v 3.111699 3.906632 -0.229933
v 3.113047 3.905302 -0.234314
v 3.113119 3.905010 -0.238104
v 3.112247 3.905598 -0.239693
v 3.108184 3.908876 -0.238327
v 3.105780 3.910587 -0.241202
v 3.104488 3.911398 -0.244511
v 3.106120 3.910012 -0.246182
v 3.107712 3.908561 -0.249423
v 3.107540 3.908544 -0.251881
v 3.102258 3.912312 -0.258085
v 3.103055 3.911584 -0.259707
v 3.104620 3.910258 -0.261277
v 3.105953 3.909184 -0.261689
vn 0.6294 0.7754 -0.0496
vn 0.6294 0.7754 -0.0495
vn 0.6294 0.7754 -0.0494
vn 0.6307 0.7754 -0.0297
vn 0.6308 0.7754 -0.0297
vn 0.6306 0.7754 -0.0309
vn 0.6276 0.7754 -0.0693
vn 0.6277 0.7754 -0.0691
vn 0.6415 0.7654 -0.0505
vn 0.6415 0.7655 -0.0505
vn 0.6253 0.7798 -0.0295
vn 0.6184 0.7853 -0.0291
vn 0.6288 0.7770 -0.0296
vn 0.6396 0.7654 -0.0706
vn 0.6346 0.7705 -0.0600
vn 0.6172 0.7852 -0.0485
vn 0.6172 0.7853 -0.0483
vn 0.6172 0.7853 -0.0486
vn 0.6348 0.7710 -0.0499
vn 0.6284 0.7755 -0.0605
vn 0.6294 0.7755 -0.0495
vn 0.6301 0.7755 -0.0387
vn 0.6297 0.7755 -0.0449
vn 0.6264 0.7779 -0.0493
vn 0.6271 0.7773 -0.0494
vn 0.6292 0.7756 -0.0497
vn 0.6292 0.7756 -0.0496
vn 0.6307 0.7754 -0.0296
vn 0.6308 0.7753 -0.0297
vn 0.6306 0.7755 -0.0297
vn 0.6307 0.7755 -0.0297
vn 0.6307 0.7754 -0.0301
vn 0.6307 0.7754 -0.0298
vn 0.6308 0.7754 -0.0299
vn 0.6308 0.7754 -0.0298
vn 0.6308 0.7753 -0.0301
vn 0.6304 0.7757 -0.0298
vn 0.6339 0.7702 -0.0709
vn 0.6276 0.7754 -0.0692
vn 0.6276 0.7754 -0.0694
vn 0.6275 0.7755 -0.0693
vn 0.6272 0.7757 -0.0693
vn 0.6273 0.7757 -0.0692
vn 0.6275 0.7755 -0.0692
vn 0.6277 0.7754 -0.0693
vn 0.6276 0.7754 -0.0695
vn 0.6277 0.7753 -0.0693
vn 0.6283 0.7748 -0.0697
vn 0.6276 0.7754 -0.0697
vn 0.6276 0.7754 -0.0696
vn 0.6275 0.7755 -0.0696
vn 0.6277 0.7753 -0.0689
vn 0.6415 0.7654 -0.0504
vn 0.6415 0.7655 -0.0504
vn 0.6414 0.7655 -0.0506
vn 0.6418 0.7652 -0.0504
vn 0.6414 0.7655 -0.0504
vn 0.6400 0.7655 -0.0662
vn 0.6417 0.7653 -0.0501
vn 0.6414 0.7655 -0.0505
vn 0.6413 0.7656 -0.0508
vn 0.6417 0.7653 -0.0504
vn 0.6415 0.7654 -0.0506
vn 0.6416 0.7654 -0.0505
vn 0.6417 0.7653 -0.0514
vn 0.6416 0.7653 -0.0508
vn 0.6185 0.7852 -0.0291
vn 0.6395 0.7655 -0.0707
vn 0.6395 0.7655 -0.0704
vn 0.6401 0.7646 -0.0743
vn 0.6396 0.7654 -0.0705
vn 0.6395 0.7655 -0.0701
vn 0.6396 0.7655 -0.0700
vn 0.6395 0.7656 -0.0703
vn 0.6396 0.7654 -0.0707
vn 0.6397 0.7654 -0.0706
vn 0.6397 0.7654 -0.0707
vn 0.6396 0.7654 -0.0709
vn 0.6391 0.7658 -0.0709
vn 0.6397 0.7653 -0.0714
vn 0.6395 0.7654 -0.0712
vn 0.6172 0.7852 -0.0486
vn 0.6173 0.7852 -0.0486
vn 0.6173 0.7852 -0.0487
vn 0.6182 0.7844 -0.0495
vn 0.6173 0.7852 -0.0485
vn 0.6172 0.7853 -0.0485
vn 0.6174 0.7851 -0.0485
vn 0.6171 0.7854 -0.0486
usemtl None
s 1
f 114//1 120//2 119//3
f 17//4 13//5 12//6
f 49//7 44//7 53//8
f 85//9 96//9 86//10
f 9//11 110//12 8//13
f 133//14 131//14 1//15
f 169//16 168//17 163//18
f 3//19 1//15 114//1
f 1//15 2//20 113//2
f 1//15 113//2 112//21
f 114//1 1//15 120//2
f 4//22 5//23 117//21
f 5//23 114//1 119//3
f 117//21 5//23 118//2
f 112//21 7//24 6//25
f 1//15 112//21 120//2
f 120//2 112//21 6//25
f 115//26 4//22 117//21
f 117//21 116//27 115//26
f 118//2 5//23 119//3
f 9//11 8//13 34//4
f 8//13 33//4 36//28
f 34//4 8//13 35//29
f 33//4 32//30 31//31
f 31//31 30//4 33//4
f 30//4 29//4 33//4
f 29//4 28//32 27//4
f 27//4 26//4 29//4
f 26//4 25//33 21//33
f 29//4 26//4 21//33
f 25//33 24//34 23//35
f 23//35 22//33 25//33
f 22//33 21//33 25//33
f 20//33 19//33 37//4
f 19//33 18//33 37//4
f 21//33 20//33 29//4
f 35//29 8//13 36//28
f 33//4 29//4 20//33
f 39//36 38//37 4//22
f 38//37 37//4 4//22
f 37//4 36//28 20//33
f 36//28 33//4 20//33
f 17//4 16//4 13//5
f 16//4 15//36 14//35
f 18//33 17//4 37//4
f 16//4 14//35 13//5
f 4//22 37//4 12//6
f 37//4 17//4 12//6
f 12//6 5//23 4//22
f 1//15 11//38 67//39
f 11//38 69//40 68//41
f 67//39 11//38 68//41
f 40//42 2//20 43//7
f 2//20 1//15 54//39
f 53//8 2//20 54//39
f 42//7 41//43 40//42
f 43//7 42//7 40//42
f 1//15 67//39 66//44
f 65//7 64//40 63//7
f 1//15 66//44 65//7
f 2//20 53//8 44//7
f 43//7 2//20 44//7
f 46//45 45//7 48//7
f 45//7 44//7 49//7
f 1//15 65//7 59//39
f 65//7 63//7 61//39
f 59//39 65//7 61//39
f 63//7 62//46 61//39
f 61//39 60//7 59//39
f 59//39 58//7 56//47
f 58//7 57//48 56//47
f 56//47 55//7 1//15
f 55//7 54//39 1//15
f 45//7 49//7 48//7
f 48//7 47//49 46//45
f 1//15 59//39 56//47
f 50//50 49//7 53//8
f 52//51 51//52 50//50
f 53//8 52//51 50//50
f 3//19 109//53 106//10
f 109//53 108//54 107//55
f 106//10 109//53 107//55
f 105//56 104//57 3//19
f 104//57 103//10 3//19
f 3//19 106//10 105//56
f 70//53 10//58 1//15
f 72//53 71//59 70//53
f 74//60 73//61 72//53
f 75//53 74//60 72//53
f 72//53 70//53 1//15
f 1//15 3//19 103//10
f 75//53 72//53 1//15
f 76//53 75//53 82//53
f 75//53 1//15 82//53
f 1//15 103//10 102//60
f 1//15 102//60 83//53
f 102//60 101//9 83//53
f 77//62 76//53 79//63
f 80//9 76//53 82//53
f 79//63 78//60 77//62
f 82//53 81//53 80//9
f 80//9 79//63 76//53
f 101//9 100//10 85//9
f 84//9 101//9 85//9
f 100//10 99//53 97//53
f 99//53 98//64 97//53
f 101//9 84//9 83//53
f 100//10 97//53 96//9
f 100//10 96//9 85//9
f 83//53 82//53 1//15
f 96//9 95//9 89//53
f 95//9 94//9 90//9
f 94//9 93//53 90//9
f 93//53 92//65 91//66
f 91//66 90//9 93//53
f 90//9 89//53 95//9
f 89//53 88//9 96//9
f 88//9 87//63 86//10
f 88//9 86//10 96//9
f 9//11 111//67 110//12
f 1//15 10//58 133//14
f 10//58 149//14 146//14
f 137//68 10//58 139//68
f 149//14 148//69 147//14
f 149//14 147//14 146//14
f 121//70 11//38 123//14
f 11//38 1//15 123//14
f 123//14 122//71 121//70
f 126//72 125//73 124//74
f 126//72 124//74 127//75
f 124//74 123//14 127//75
f 129//14 128//75 123//14
f 128//75 127//75 123//14
f 10//58 137//68 136//76
f 10//58 146//14 139//68
f 145//14 144//68 143//75
f 146//14 145//14 139//68
f 123//14 1//15 129//14
f 145//14 143//75 142//77
f 142//77 141//75 145//14
f 141//75 140//78 139//68
f 139//68 138//79 137//68
f 136//76 135//80 134//75
f 141//75 139//68 145//14
f 136//76 134//75 10//58
f 134//75 133//14 10//58
f 130//14 129//14 1//15
f 133//14 132//81 131//14
f 131//14 130//14 1//15
f 6//25 7//24 162//82
f 7//24 157//83 151//18
f 162//82 7//24 151//18
f 156//82 155//82 153//82
f 155//82 154//84 153//82
f 157//83 156//82 152//82
f 6//25 162//82 158//85
f 151//18 157//83 152//82
f 156//82 153//82 152//82
f 161//86 160//87 159//82
f 162//82 161//86 158//85
f 161//86 159//82 158//85
f 165//82 164//82 163//18
f 166//88 165//82 167//82
f 165//82 163//18 167//82
f 163//18 162//82 151//18
f 150//89 173//83 169//16
f 173//83 172//86 169//16
f 163//18 151//18 169//16
f 151//18 150//89 169//16
f 168//17 167//82 163//18
f 172//86 171//86 169//16
f 171//86 170//86 169//16
