# Blender v2.81 (sub 16) OBJ File: ''
# www.blender.org
mtllib Benin.mtl
o 0_Benin_sphere.001
v 4.901741 0.936904 -0.308386
v 4.909009 0.936904 -0.154266
v 4.923114 0.859643 -0.154710
v 4.936000 0.782170 -0.155114
v 4.947675 0.704504 -0.155482
v 4.958124 0.626664 -0.155810
v 4.967351 0.548669 -0.156100
v 4.954247 0.626664 -0.238023
v 4.916040 0.859643 -0.304711
v 4.894382 0.973979 -0.307923
v 4.910299 0.936904 -0.072082
v 4.947913 0.704504 -0.140333
v 4.966141 0.548669 -0.181774
v 4.932072 0.782170 -0.238405
v 4.908919 0.897526 -0.308838
v 4.910633 0.888126 -0.308946
v 4.914262 0.868217 -0.309174
v 4.891716 1.013934 -0.195800
v 4.886481 1.013934 -0.306810
v 4.900716 0.936904 -0.321406
v 4.958363 0.626664 -0.140636
v 4.967739 0.544880 -0.156112
v 4.898224 0.991158 -0.153927
v 4.923731 0.859643 -0.115468
v 4.943994 0.704504 -0.233541
v 4.967383 0.548669 -0.154062
v 4.936269 0.782170 -0.137949
v 4.888876 1.025800 -0.201764
v 4.887726 1.030665 -0.203930
v 4.885755 1.039388 -0.205860
v 4.882483 1.055520 -0.201501
v 4.881858 1.058375 -0.201707
v 4.880695 1.061850 -0.210478
v 4.879598 1.064543 -0.221451
v 4.879352 1.064751 -0.225707
v 4.878925 1.066121 -0.228496
v 4.877986 1.069603 -0.232478
v 4.877123 1.072183 -0.238986
v 4.877130 1.071314 -0.242820
v 4.877126 1.070810 -0.245204
v 4.880611 1.049533 -0.268569
v 4.882449 1.038782 -0.278739
v 4.883508 1.033261 -0.281513
v 4.884116 1.029291 -0.286753
v 4.884275 1.026869 -0.294443
v 4.885127 1.021376 -0.301506
v 4.887796 1.008093 -0.303566
v 4.890308 0.996723 -0.298294
v 4.892082 0.987847 -0.298168
v 4.897832 0.991962 -0.158847
v 4.897767 0.989803 -0.169351
v 4.893182 1.007799 -0.190615
v 4.891900 1.013108 -0.195385
v 4.886533 1.013619 -0.307043
v 4.909772 0.893333 -0.307002
v 4.910155 0.891266 -0.306909
v 4.915886 0.860261 -0.305598
v 4.917017 0.855470 -0.298737
v 4.917500 0.854320 -0.292569
v 4.918074 0.852091 -0.288272
v 4.918684 0.849131 -0.285785
v 4.920261 0.839534 -0.286248
v 4.922145 0.830781 -0.277217
v 4.923398 0.824671 -0.272221
v 4.924129 0.820970 -0.269803
v 4.925955 0.809688 -0.270930
v 4.928001 0.798290 -0.267799
v 4.929760 0.789303 -0.262239
v 4.930681 0.787348 -0.249613
v 4.931364 0.786247 -0.239014
v 4.935046 0.763304 -0.235575
v 4.937225 0.748750 -0.235832
v 4.939500 0.733902 -0.234986
v 4.940492 0.727857 -0.233260
v 4.941736 0.719340 -0.234048
v 4.944598 0.700065 -0.233388
v 4.946708 0.684832 -0.232076
v 4.947167 0.680749 -0.233975
v 4.948316 0.671799 -0.235128
v 4.949559 0.662562 -0.235095
v 4.950293 0.656127 -0.237865
v 4.950908 0.650509 -0.240860
v 4.951300 0.647616 -0.240778
v 4.951616 0.645815 -0.239219
v 4.951999 0.643427 -0.237905
v 4.954841 0.621639 -0.238054
v 4.955588 0.615108 -0.238619
v 4.956117 0.610946 -0.237869
v 4.956630 0.607516 -0.235606
v 4.957893 0.596470 -0.236565
v 4.958639 0.589434 -0.238438
v 4.959165 0.584238 -0.240347
v 4.959762 0.579909 -0.238562
v 4.960511 0.574190 -0.237030
v 4.962346 0.559626 -0.234715
v 4.962951 0.554563 -0.234610
v 4.965085 0.551012 -0.198281
v 4.967628 0.545240 -0.157689
v 4.908816 0.944140 -0.074937
v 4.906951 0.953345 -0.077108
v 4.906926 0.953307 -0.079174
v 4.906286 0.956298 -0.082026
v 4.905377 0.960691 -0.084326
v 4.905523 0.959757 -0.086795
v 4.905627 0.958906 -0.090946
v 4.905287 0.960466 -0.092846
v 4.904617 0.963856 -0.092578
v 4.903908 0.967316 -0.093935
v 4.903551 0.968854 -0.097181
v 4.902924 0.971943 -0.098022
v 4.902218 0.975492 -0.098032
v 4.901988 0.976423 -0.100847
v 4.901942 0.976278 -0.105634
v 4.901659 0.977392 -0.109548
v 4.901245 0.979224 -0.112699
v 4.899758 0.986382 -0.116728
v 4.899227 0.988877 -0.118998
v 4.898863 0.990650 -0.119691
v 4.898513 0.992224 -0.121998
v 4.898267 0.992960 -0.128376
v 4.898295 0.992413 -0.133513
v 4.899065 0.988280 -0.136838
v 4.922760 0.864967 -0.115389
v 4.922245 0.867881 -0.114275
v 4.920865 0.876578 -0.101014
v 4.918906 0.888914 -0.082262
v 4.917413 0.898311 -0.067972
v 4.917305 0.898997 -0.066925
v 4.916900 0.901335 -0.065493
v 4.911797 0.929099 -0.067497
v 4.911088 0.932727 -0.070431
v 4.935562 0.786431 -0.137872
v 4.934360 0.793933 -0.134921
v 4.932439 0.806637 -0.122633
v 4.931396 0.813223 -0.119282
v 4.929953 0.821948 -0.118659
v 4.928500 0.830942 -0.115882
v 4.925886 0.846674 -0.115655
v 4.945701 0.719218 -0.140267
v 4.941985 0.744101 -0.138610
v 4.939243 0.762366 -0.138287
v 4.956404 0.641256 -0.140578
v 4.952263 0.672099 -0.140451
v 4.948727 0.698439 -0.140353
v 4.966136 0.559600 -0.151134
v 4.964689 0.573026 -0.142077
v 4.964451 0.575504 -0.138536
v 4.963689 0.582189 -0.136696
v 4.963134 0.586589 -0.138880
v 4.962801 0.589545 -0.137821
v 4.961740 0.598615 -0.137028
v 4.960625 0.608619 -0.132574
v 4.960445 0.609061 -0.140693
v 4.968337 0.541401 -0.140740
v 4.968050 0.544360 -0.139714
v 4.967431 0.548191 -0.154192
v 4.895080 0.969147 -0.311309
v 4.895340 0.967245 -0.312818
v 4.895664 0.964291 -0.316190
v 4.896214 0.960804 -0.318036
v 4.897921 0.951604 -0.319676
v 4.899913 0.941200 -0.320726
v 4.901179 0.934194 -0.321833
v 4.902492 0.924301 -0.328183
v 4.903183 0.920329 -0.328642
v 4.906207 0.905611 -0.324485
v 4.906572 0.904050 -0.323476
v 4.906740 0.903621 -0.322345
v 4.907026 0.904941 -0.315632
v 4.907546 0.903340 -0.312767
v 4.908743 0.898337 -0.309188
v 4.911445 0.881972 -0.312955
v 4.914176 0.868612 -0.309352
vn 0.9787 0.1999 -0.0460
vn 0.9785 0.2008 -0.0461
vn 0.9797 0.1950 -0.0462
vn 0.9807 0.1951 -0.0154
vn 0.9807 0.1950 -0.0154
vn 0.9836 0.1798 -0.0156
vn 0.9836 0.1797 -0.0154
vn 0.9846 0.1719 -0.0309
vn 0.9863 0.1641 -0.0155
vn 0.9887 0.1487 -0.0155
vn 0.9872 0.1564 -0.0310
vn 0.9910 0.1331 -0.0155
vn 0.9895 0.1409 -0.0311
vn 0.9929 0.1175 -0.0156
vn 0.9930 0.1175 -0.0155
vn 0.9765 0.2105 -0.0460
vn 0.9765 0.2105 -0.0461
vn 0.9765 0.2106 -0.0460
vn 0.9826 0.1796 -0.0463
vn 0.9853 0.1641 -0.0464
vn 0.9854 0.1640 -0.0464
vn 0.9878 0.1487 -0.0466
vn 0.9900 0.1331 -0.0466
vn 0.9900 0.1329 -0.0465
vn 0.9900 0.1331 -0.0468
vn 0.9919 0.1176 -0.0466
vn 0.9919 0.1175 -0.0468
vn 0.9937 0.1019 -0.0468
vn 0.9934 0.1097 -0.0312
vn 0.9944 0.1018 -0.0290
vn 0.9947 0.1020 -0.0157
vn 0.9778 0.1950 -0.0771
vn 0.9778 0.1950 -0.0770
vn 0.9803 0.1874 -0.0616
vn 0.9808 0.1797 -0.0753
vn 0.9823 0.1797 -0.0518
vn 0.9824 0.1797 -0.0502
vn 0.9807 0.1796 -0.0772
vn 0.9807 0.1797 -0.0772
vn 0.9818 0.1874 -0.0308
vn 0.9794 0.1950 -0.0520
vn 0.9797 0.1951 -0.0462
vn 0.9802 0.1950 -0.0324
vn 0.9796 0.1952 -0.0462
vn 0.9796 0.1954 -0.0459
vn 0.9825 0.1855 -0.0154
vn 0.9806 0.1955 -0.0154
vn 0.9807 0.1949 -0.0155
vn 0.9806 0.1952 -0.0153
vn 0.9808 0.1945 -0.0153
vn 0.9807 0.1949 -0.0154
vn 0.9807 0.1948 -0.0154
vn 0.9807 0.1951 -0.0155
vn 0.9807 0.1950 -0.0155
vn 0.9806 0.1952 -0.0152
vn 0.9807 0.1947 -0.0156
vn 0.9806 0.1953 -0.0155
vn 0.9850 0.1720 -0.0155
vn 0.9836 0.1797 -0.0155
vn 0.9832 0.1818 -0.0166
vn 0.9836 0.1796 -0.0154
vn 0.9875 0.1565 -0.0155
vn 0.9863 0.1642 -0.0156
vn 0.9863 0.1641 -0.0156
vn 0.9899 0.1409 -0.0155
vn 0.9920 0.1253 -0.0156
vn 0.9916 0.1253 -0.0312
vn 0.9910 0.1331 -0.0156
vn 0.9937 0.1113 -0.0156
vn 0.9929 0.1176 -0.0156
vn 0.9930 0.1172 -0.0155
vn 0.9929 0.1177 -0.0155
vn 0.9764 0.2107 -0.0461
vn 0.9766 0.2099 -0.0460
vn 0.9765 0.2104 -0.0460
vn 0.9765 0.2104 -0.0461
vn 0.9765 0.2103 -0.0460
vn 0.9766 0.2102 -0.0461
vn 0.9765 0.2103 -0.0461
vn 0.9765 0.2106 -0.0461
vn 0.9832 0.1766 -0.0463
vn 0.9827 0.1796 -0.0457
vn 0.9824 0.1796 -0.0503
vn 0.9864 0.1572 -0.0465
vn 0.9853 0.1642 -0.0464
vn 0.9853 0.1641 -0.0465
vn 0.9853 0.1642 -0.0466
vn 0.9853 0.1643 -0.0463
vn 0.9889 0.1412 -0.0466
vn 0.9878 0.1487 -0.0464
vn 0.9910 0.1253 -0.0467
vn 0.9900 0.1331 -0.0467
vn 0.9899 0.1334 -0.0468
vn 0.9900 0.1332 -0.0467
vn 0.9900 0.1330 -0.0467
vn 0.9920 0.1168 -0.0468
vn 0.9919 0.1176 -0.0468
vn 0.9920 0.1174 -0.0466
vn 0.9919 0.1177 -0.0468
vn 0.9946 0.1023 -0.0156
vn 0.9946 0.1022 -0.0156
vn 0.9794 0.1865 -0.0771
vn 0.9778 0.1950 -0.0769
vn 0.9777 0.1951 -0.0770
vn 0.9779 0.1943 -0.0766
vn 0.9807 0.1796 -0.0773
vn 0.9807 0.1797 -0.0769
vn 0.9807 0.1794 -0.0772
vn 0.9807 0.1794 -0.0774
vn 0.9807 0.1798 -0.0772
usemtl None
s 1
f 19//1 18//2 47//3
f 114//4 109//4 106//5
f 127//6 126//7 130//7
f 3//8 136//9 133//9
f 141//10 140//10 4//11
f 144//12 143//12 5//13
f 149//14 146//15 145//14
f 33//16 31//17 30//18
f 3//8 56//19 55//19
f 64//20 61//21 3//8
f 74//22 72//22 4//11
f 84//23 82//24 81//25
f 93//26 92//26 91//27
f 98//28 7//29 22//30
f 22//30 7//29 156//31
f 158//32 157//33 1//34
f 173//35 16//36 17//37
f 164//38 1//34 169//39
f 2//40 1//34 52//3
f 1//34 10//41 49//3
f 1//34 49//3 52//3
f 50//42 23//43 51//3
f 23//43 2//40 51//3
f 49//3 48//3 18//2
f 53//44 49//3 18//2
f 47//3 54//45 19//1
f 49//3 53//44 52//3
f 48//3 47//3 18//2
f 52//3 51//3 2//40
f 11//46 2//40 105//5
f 2//40 23//43 122//5
f 122//5 121//47 120//4
f 2//40 122//5 115//4
f 11//46 105//5 99//48
f 101//4 100//49 99//48
f 106//5 2//40 114//4
f 122//5 120//4 117//5
f 120//4 119//49 117//5
f 119//49 118//50 117//5
f 117//5 116//51 122//5
f 116//51 115//4 122//5
f 102//52 101//4 105//5
f 101//4 99//48 105//5
f 104//53 103//53 102//52
f 105//5 104//53 102//52
f 115//4 114//4 2//40
f 108//54 107//5 109//4
f 107//5 106//5 109//4
f 106//5 105//5 2//40
f 113//55 112//4 110//56
f 112//4 111//57 110//56
f 114//4 113//55 109//4
f 113//55 110//56 109//4
f 24//58 3//8 123//7
f 3//8 2//40 124//7
f 123//7 3//8 124//7
f 2//40 11//46 126//7
f 11//46 131//59 126//7
f 131//59 130//7 126//7
f 130//7 129//6 127//6
f 129//6 128//60 127//6
f 126//7 125//61 2//40
f 125//61 124//7 2//40
f 27//62 4//11 132//9
f 4//11 3//8 133//9
f 132//9 4//11 133//9
f 3//8 24//58 138//9
f 138//9 137//9 3//8
f 137//9 136//9 3//8
f 136//9 135//63 134//64
f 136//9 134//64 133//9
f 12//65 5//13 139//10
f 5//13 4//11 140//10
f 139//10 5//13 140//10
f 4//11 27//62 141//10
f 21//66 6//67 142//68
f 6//67 5//13 143//12
f 142//68 6//67 143//12
f 5//13 12//65 144//12
f 26//69 7//29 145//14
f 7//29 6//67 145//14
f 6//67 21//66 153//14
f 153//14 152//70 151//14
f 151//14 150//71 149//14
f 149//14 148//14 146//15
f 148//14 147//72 146//15
f 153//14 151//14 149//14
f 6//67 153//14 149//14
f 145//14 6//67 149//14
f 18//2 19//1 44//16
f 19//1 46//16 44//16
f 46//16 45//73 44//16
f 43//16 42//74 41//75
f 43//16 41//75 29//18
f 41//75 40//76 36//77
f 35//76 41//75 36//77
f 18//2 44//16 43//16
f 28//16 18//2 43//16
f 41//75 35//76 30//18
f 40//76 39//78 36//77
f 39//78 38//18 37//75
f 39//78 37//75 36//77
f 28//16 43//16 29//18
f 29//18 41//75 30//18
f 35//76 34//79 30//18
f 34//79 33//16 30//18
f 33//16 32//80 31//17
f 3//8 9//81 56//19
f 9//81 57//82 17//37
f 56//19 9//81 17//37
f 17//37 16//36 56//19
f 2//40 3//8 55//19
f 15//83 1//34 55//19
f 1//34 2//40 55//19
f 4//11 14//84 70//85
f 70//85 69//20 65//20
f 69//20 68//20 67//86
f 65//20 69//20 66//20
f 67//86 66//20 69//20
f 4//11 70//85 3//8
f 3//8 70//85 65//20
f 58//87 9//81 59//20
f 9//81 3//8 59//20
f 60//21 59//20 3//8
f 63//88 62//21 61//21
f 61//21 60//21 3//8
f 3//8 65//20 64//20
f 64//20 63//88 61//21
f 5//13 25//89 75//22
f 74//22 73//90 72//22
f 5//13 75//22 74//22
f 14//84 4//11 71//22
f 4//11 5//13 74//22
f 71//22 4//11 72//22
f 6//67 8//91 85//92
f 84//23 83//93 82//24
f 6//67 85//92 80//92
f 85//92 84//23 81//25
f 25//89 5//13 76//94
f 5//13 6//67 80//92
f 77//92 5//13 79//92
f 77//92 76//94 5//13
f 79//92 78//95 77//92
f 80//92 79//92 5//13
f 85//92 81//25 80//92
f 7//29 13//96 6//67
f 13//96 97//27 6//67
f 97//27 96//97 95//27
f 97//27 95//27 94//97
f 86//97 8//91 6//67
f 88//98 87//99 89//97
f 87//99 86//97 89//97
f 86//97 6//67 89//97
f 6//67 97//27 90//27
f 89//97 6//67 90//27
f 97//27 94//97 90//27
f 94//97 93//26 91//27
f 90//27 94//97 91//27
f 98//28 13//96 7//29
f 7//29 26//69 156//31
f 156//31 155//100 154//101
f 154//101 22//30 156//31
f 1//34 20//102 162//103
f 162//103 161//103 1//34
f 161//103 160//104 158//32
f 1//34 161//103 158//32
f 160//104 159//105 158//32
f 157//33 10//41 1//34
f 173//35 172//106 16//36
f 1//34 15//83 171//107
f 1//34 171//107 170//39
f 163//38 20//102 1//34
f 165//108 164//38 169//39
f 164//38 163//38 1//34
f 167//109 166//110 168//39
f 166//110 165//108 169//39
f 169//39 168//39 166//110
f 1//34 170//39 169//39
