# Blender v2.81 (sub 16) OBJ File: ''
# www.blender.org
mtllib Bhutan.mtl
o 0_Bhutan_sphere.001
v 0.000000 2.339648 -4.418829
v 0.000000 2.269951 -4.455033
v -0.139932 2.269951 -4.452804
v 0.000000 2.371124 -4.401845
v -0.140126 2.257634 -4.458956
v 0.000000 2.249150 -4.465427
v -0.139375 2.304063 -4.435093
v 0.089510 2.269951 -4.453627
v -0.159612 2.269951 -4.451876
v -0.126433 2.339648 -4.416814
v 0.050820 2.339648 -4.418031
v 0.046568 2.343916 -4.415794
v 0.039998 2.351768 -4.411661
v 0.035651 2.355400 -4.409770
v 0.026722 2.359351 -4.407778
v 0.019248 2.361670 -4.406644
v 0.014078 2.366929 -4.403888
v 0.007852 2.369865 -4.402401
v 0.001458 2.371216 -4.401772
v -0.136541 2.256707 -4.459476
v -0.130181 2.254416 -4.460723
v -0.118183 2.254774 -4.460735
v -0.113318 2.259409 -4.458497
v -0.111053 2.259399 -4.458538
v -0.100207 2.253351 -4.461732
v -0.088308 2.254380 -4.461408
v -0.066662 2.252370 -4.462758
v -0.057620 2.251904 -4.463135
v -0.048320 2.252574 -4.462948
v -0.043605 2.253862 -4.462379
v -0.034849 2.258131 -4.460385
v -0.026918 2.261235 -4.458961
v -0.018869 2.258454 -4.460478
v -0.016042 2.257959 -4.460771
v -0.009579 2.250736 -4.464483
v 0.004432 2.248363 -4.465751
v 0.018413 2.246549 -4.466437
v 0.022537 2.247499 -4.465898
v 0.030407 2.247886 -4.465581
v 0.030698 2.249581 -4.464729
v 0.030457 2.251232 -4.463908
v 0.032248 2.252527 -4.463233
v 0.035438 2.253861 -4.462516
v 0.040927 2.254411 -4.462155
v 0.047961 2.256221 -4.461140
v 0.052004 2.257929 -4.460224
v 0.066340 2.255379 -4.461272
v 0.074664 2.259183 -4.459241
v 0.084093 2.264434 -4.456469
v 0.088855 2.266734 -4.455245
v -0.125561 2.326957 -4.423420
v -0.123450 2.322282 -4.425882
v -0.122105 2.317192 -4.428548
v -0.123357 2.313040 -4.430684
v -0.128334 2.308092 -4.433176
v -0.134971 2.304173 -4.435106
v -0.125759 2.331872 -4.420864
v -0.126003 2.328722 -4.422497
v -0.160807 2.267884 -4.452853
v -0.161304 2.263162 -4.455192
v -0.159515 2.260059 -4.456829
v -0.155546 2.258536 -4.457778
v -0.151292 2.258996 -4.457748
v -0.147782 2.258966 -4.457929
v -0.143393 2.258428 -4.458405
v 0.090518 2.274840 -4.451072
v 0.092169 2.277422 -4.449705
v 0.095862 2.280159 -4.448225
v 0.097910 2.283355 -4.446532
v 0.096199 2.286662 -4.444841
v 0.086727 2.292780 -4.441813
v 0.085955 2.294214 -4.441080
v 0.081492 2.305653 -4.435207
v 0.075423 2.309835 -4.433130
v 0.069429 2.315603 -4.430228
v 0.064864 2.324803 -4.425521
v 0.056133 2.334247 -4.420753
v -0.008026 2.370490 -4.402060
v -0.016966 2.368559 -4.402959
v -0.026768 2.365937 -4.404217
v -0.027907 2.363816 -4.405344
v -0.027087 2.360109 -4.407357
v -0.025686 2.356334 -4.409416
v -0.025640 2.354411 -4.410454
v -0.027154 2.353345 -4.411005
v -0.036750 2.352587 -4.411262
v -0.048508 2.353161 -4.410764
v -0.055105 2.352627 -4.410947
v -0.069832 2.349134 -4.412597
v -0.074157 2.346691 -4.413847
v -0.078665 2.344801 -4.414795
v -0.083052 2.345158 -4.414532
v -0.088568 2.349171 -4.412279
v -0.094381 2.352582 -4.410346
v -0.098006 2.353148 -4.409983
v -0.100621 2.352062 -4.410527
v -0.105338 2.348813 -4.412205
v -0.115070 2.345795 -4.413678
v -0.123748 2.343518 -4.414769
v -0.126582 2.341349 -4.415894
v -0.143353 2.303875 -4.435003
v -0.151043 2.305374 -4.433860
v -0.154137 2.304734 -4.434048
v -0.158446 2.298076 -4.437306
v -0.161534 2.292325 -4.440151
v -0.157592 2.286442 -4.443396
v -0.155467 2.281251 -4.446195
v -0.154738 2.277583 -4.448137
v -0.155260 2.276000 -4.448936
v -0.157816 2.272995 -4.450377
vn 0.0138 0.4747 -0.8800
vn 0.0138 0.4748 -0.8800
vn -0.0001 0.4679 -0.8838
vn 0.0144 0.4609 -0.8873
vn 0.0140 0.4609 -0.8873
vn 0.0135 0.4609 -0.8873
vn -0.0001 0.4540 -0.8910
vn -0.0141 0.4609 -0.8873
vn -0.0142 0.4470 -0.8944
vn -0.0281 0.4540 -0.8906
vn 0.0141 0.4469 -0.8944
vn 0.0141 0.4469 -0.8945
vn -0.0421 0.4470 -0.8935
vn -0.0140 0.4748 -0.8799
vn -0.0140 0.4748 -0.8800
vn -0.0417 0.4609 -0.8864
vn -0.0418 0.4609 -0.8864
vn 0.0139 0.4647 -0.8853
vn 0.0006 0.4749 -0.8800
vn 0.0139 0.4748 -0.8799
vn 0.0144 0.4761 -0.8793
vn 0.0139 0.4748 -0.8800
vn 0.0139 0.4548 -0.8905
vn 0.0139 0.4609 -0.8873
vn 0.0142 0.4609 -0.8873
vn 0.0138 0.4609 -0.8873
vn 0.0141 0.4609 -0.8873
vn -0.0276 0.4610 -0.8870
vn -0.0142 0.4609 -0.8873
vn -0.0140 0.4609 -0.8873
vn -0.0141 0.4682 -0.8835
vn -0.0146 0.4609 -0.8873
vn -0.0136 0.4609 -0.8873
vn 0.0015 0.4469 -0.8945
vn -0.0142 0.4469 -0.8944
vn -0.0258 0.4470 -0.8941
vn -0.0143 0.4469 -0.8944
vn -0.0139 0.4471 -0.8943
vn -0.0142 0.4469 -0.8945
vn -0.0143 0.4470 -0.8944
vn -0.0143 0.4469 -0.8945
vn 0.0140 0.4469 -0.8944
vn 0.0137 0.4470 -0.8944
vn 0.0141 0.4468 -0.8945
vn 0.0141 0.4471 -0.8944
vn 0.0140 0.4469 -0.8945
vn 0.0138 0.4465 -0.8947
vn -0.0422 0.4470 -0.8935
vn -0.0420 0.4519 -0.8910
vn -0.0416 0.4471 -0.8935
vn -0.0423 0.4470 -0.8935
vn -0.0420 0.4470 -0.8935
vn -0.0143 0.4747 -0.8800
vn -0.0140 0.4747 -0.8800
vn -0.0139 0.4749 -0.8799
vn -0.0139 0.4747 -0.8800
vn -0.0140 0.4749 -0.8799
vn -0.0139 0.4748 -0.8800
vn -0.0142 0.4748 -0.8800
vn -0.0141 0.4748 -0.8800
vn -0.0138 0.4748 -0.8800
vn -0.0139 0.4748 -0.8799
vn -0.0142 0.4750 -0.8798
vn -0.0418 0.4610 -0.8864
vn -0.0419 0.4610 -0.8864
vn -0.0414 0.4609 -0.8865
vn -0.0416 0.4609 -0.8864
usemtl None
s 1
f 14//1 13//2 1//3
f 71//4 67//5 66//6
f 2//7 54//8 53//8
f 24//9 3//10 32//9
f 43//11 42//12 2//7
f 3//10 64//13 63//13
f 86//14 1//3 90//15
f 3//10 108//16 107//17
f 11//18 1//3 12//2
f 1//3 4//19 18//20
f 12//2 1//3 13//2
f 4//19 19//21 18//20
f 18//20 17//2 1//3
f 17//2 16//2 1//3
f 16//2 15//22 1//3
f 15//22 14//1 1//3
f 8//23 2//7 72//5
f 2//7 1//3 77//24
f 75//24 2//7 77//24
f 1//3 11//18 77//24
f 77//24 76//25 75//24
f 74//24 73//26 72//5
f 75//24 74//24 2//7
f 74//24 72//5 2//7
f 71//4 70//5 67//5
f 70//5 69//4 68//27
f 72//5 71//4 8//23
f 66//6 8//23 71//4
f 70//5 68//27 67//5
f 2//7 3//10 54//8
f 3//10 7//28 56//29
f 3//10 56//29 55//30
f 10//31 1//3 57//8
f 1//3 2//7 53//8
f 57//8 1//3 52//29
f 51//32 58//33 57//8
f 57//8 52//29 51//32
f 3//10 55//30 54//8
f 52//29 1//3 53//8
f 2//7 6//34 35//35
f 34//9 33//35 2//7
f 33//35 32//9 2//7
f 2//7 35//35 34//9
f 5//36 3//10 20//37
f 3//10 2//7 32//9
f 23//38 3//10 24//9
f 22//39 21//40 23//38
f 21//40 20//37 3//10
f 23//38 21//40 3//10
f 31//37 30//40 28//35
f 30//40 29//41 28//35
f 28//35 27//40 31//37
f 27//40 26//40 31//37
f 26//40 25//41 24//9
f 26//40 24//9 32//9
f 31//37 26//40 32//9
f 2//7 8//23 46//42
f 8//23 50//43 49//44
f 49//44 48//42 8//23
f 48//42 47//42 46//42
f 46//42 8//23 48//42
f 36//42 6//34 2//7
f 38//11 37//11 2//7
f 37//11 36//42 2//7
f 40//42 39//45 38//11
f 41//46 40//42 38//11
f 46//42 45//47 44//11
f 41//46 38//11 2//7
f 42//12 41//46 2//7
f 2//7 46//42 43//11
f 46//42 44//11 43//11
f 3//10 5//36 65//13
f 3//10 65//13 64//13
f 59//48 9//49 63//13
f 9//49 3//10 63//13
f 61//50 60//51 62//52
f 60//51 59//48 62//52
f 62//52 59//48 63//13
f 1//3 10//31 91//15
f 10//31 100//53 99//54
f 91//15 10//31 92//55
f 99//54 98//15 10//31
f 97//54 96//15 93//56
f 96//15 95//14 94//57
f 98//15 97//54 92//55
f 78//15 4//19 1//3
f 80//54 79//58 82//59
f 79//58 78//15 84//60
f 83//61 79//58 84//60
f 82//59 81//54 80//54
f 83//61 82//59 79//58
f 78//15 1//3 84//60
f 96//15 94//57 93//56
f 93//56 92//55 97//54
f 98//15 92//55 10//31
f 85//15 84//60 1//3
f 88//57 87//62 90//15
f 87//62 86//14 90//15
f 86//14 85//15 1//3
f 90//15 89//63 88//57
f 1//3 91//15 90//15
f 3//10 9//49 110//64
f 3//10 110//64 109//16
f 101//65 7//28 107//17
f 7//28 3//10 107//17
f 103//66 102//17 104//16
f 102//17 101//65 104//16
f 105//67 104//16 106//16
f 106//16 104//16 101//65
f 3//10 109//16 108//16
f 107//17 106//16 101//65
