# Blender v2.81 (sub 16) OBJ File: ''
# www.blender.org
mtllib British Virgin Islands.mtl
o 0_British_Virgin_Islands_sphere.001
v 2.029525 1.578067 4.288087
v 2.027663 1.579121 4.288608
v 2.030571 1.581652 4.286242
v 2.036611 1.581927 4.283181
v 2.038510 1.581266 4.282496
v 2.035295 1.578353 4.285154
vn 0.4173 0.3166 0.8518
vn 0.4174 0.3164 0.8518
vn 0.4173 0.3165 0.8518
vn 0.4172 0.3166 0.8519
usemtl None
s 1
f 1//1 6//2 3//3
f 5//2 4//2 6//2
f 4//2 3//3 6//2
f 3//3 2//4 1//1
o 1_British_Virgin_Islands_sphere.001
v 2.047502 1.582833 4.277509
v 2.046243 1.582976 4.278073
v 2.045636 1.584168 4.277927
v 2.046480 1.587458 4.276292
v 2.053958 1.587786 4.272507
v 2.049352 1.583419 4.276385
vn 0.4173 0.3164 0.8519
vn 0.4174 0.3164 0.8518
vn 0.4165 0.3164 0.8523
usemtl None
s 1
f 7//5 12//6 10//6
f 11//5 10//6 12//6
f 10//6 9//5 7//5
f 9//5 8//7 7//5
o 2_British_Virgin_Islands_sphere.001
v 2.055502 1.603475 4.265922
v 2.054843 1.603535 4.266222
v 2.050315 1.605457 4.267726
v 2.047022 1.605592 4.269289
v 2.045609 1.606101 4.269792
v 2.044731 1.607147 4.269834
v 2.051272 1.607251 4.266591
v 2.054023 1.606238 4.265620
vn 0.4174 0.3163 0.8519
vn 0.4180 0.3164 0.8515
vn 0.4173 0.3164 0.8519
vn 0.4185 0.3164 0.8513
vn 0.4172 0.3164 0.8519
vn 0.4172 0.3162 0.8520
usemtl None
s 1
f 15//8 14//9 20//10
f 13//11 20//10 14//9
f 20//10 19//10 15//8
f 19//10 18//12 16//10
f 18//12 17//13 16//10
f 16//10 15//8 19//10
