# Blender v2.81 (sub 16) OBJ File: ''
# www.blender.org
mtllib Brunei.mtl
o 0_Brunei_sphere.001
v -2.122326 0.392293 -4.510174
v -2.112465 0.392293 -4.514627
v -2.128281 0.392293 -4.507257
v -2.122699 0.379905 -4.510967
v -2.121345 0.418863 -4.508089
v -2.128644 0.388488 -4.507379
v -2.132557 0.381902 -4.505981
v -2.132010 0.380559 -4.506354
v -2.129802 0.379454 -4.507523
v -2.126383 0.378990 -4.509235
v -2.120356 0.380473 -4.511981
v -2.115256 0.382744 -4.514108
v -2.123720 0.414083 -4.507387
v -2.127116 0.403938 -4.506703
v -2.116296 0.427046 -4.509590
v -2.118672 0.424174 -4.508790
v -2.110294 0.399471 -4.514924
v -2.107988 0.408911 -4.515067
v -2.107725 0.420202 -4.514111
v -2.107311 0.427031 -4.513648
vn -0.4099 0.0864 -0.9080
vn -0.4100 0.0864 -0.9080
vn -0.4142 0.0864 -0.9060
vn -0.4389 0.0705 -0.8957
vn -0.4387 0.0781 -0.8952
vn -0.4245 0.0785 -0.9020
vn -0.4107 0.0705 -0.9090
vn -0.4269 0.0705 -0.9015
vn -0.4382 0.0864 -0.8947
vn -0.4101 0.0799 -0.9085
vn -0.4100 0.0863 -0.9080
vn -0.4100 0.0865 -0.9080
vn -0.4389 0.0705 -0.8958
vn -0.4388 0.0706 -0.8958
vn -0.4389 0.0706 -0.8957
vn -0.4105 0.0705 -0.9091
usemtl None
s 1
f 18//1 17//2 5//3
f 6//4 3//5 1//6
f 11//7 4//8 1//6
f 13//9 5//3 1//6
f 2//10 1//6 17//2
f 1//6 5//3 17//2
f 5//3 16//2 19//2
f 16//2 15//11 19//2
f 15//11 20//12 19//2
f 19//2 18//1 5//3
f 1//6 4//8 6//4
f 4//8 10//13 6//4
f 10//13 9//14 6//4
f 9//14 8//15 7//4
f 6//4 9//14 7//4
f 1//6 2//10 12//16
f 12//16 11//7 1//6
f 1//6 3//5 14//9
f 14//9 13//9 1//6
o 1_Brunei_sphere.001
v -2.042924 0.392293 -4.546026
v -2.089466 0.392293 -4.525012
v -2.089892 0.389115 -4.525065
v -2.092230 0.386057 -4.524247
v -2.094083 0.382968 -4.523650
v -2.093432 0.379595 -4.524206
v -2.089877 0.373176 -4.526309
v -2.092033 0.371938 -4.525432
v -2.089566 0.363430 -4.527206
v -2.085697 0.357136 -4.529441
v -2.080235 0.352007 -4.532305
v -2.076627 0.350813 -4.534027
v -2.073669 0.352999 -4.535193
v -2.068761 0.358608 -4.536974
v -2.063371 0.366442 -4.538799
v -2.060824 0.370996 -4.539597
v -2.053374 0.371595 -4.542913
v -2.050633 0.375201 -4.543871
v -2.050331 0.379599 -4.543666
v -2.048086 0.384782 -4.544278
v -2.044998 0.390319 -4.545242
v -2.100954 0.423244 -4.516879
v -2.094777 0.418506 -4.520118
v -2.088563 0.414414 -4.523314
v -2.085686 0.411222 -4.524917
v -2.086918 0.406737 -4.524787
v -2.088803 0.396872 -4.524875
v -2.040465 0.394588 -4.546917
v -2.034511 0.397922 -4.549289
v -2.031954 0.400309 -4.550216
v -2.040985 0.400155 -4.546153
v -2.050576 0.401563 -4.541688
v -2.060304 0.406192 -4.536855
v -2.069659 0.411776 -4.532100
v -2.077454 0.418177 -4.527971
v -2.084705 0.425380 -4.524012
v -2.092414 0.431072 -4.519990
v -2.104429 0.437691 -4.513935
v -2.108594 0.437173 -4.512104
v -2.108726 0.432486 -4.512490
v -2.107318 0.427028 -4.513645
vn -0.4105 0.0705 -0.9091
vn -0.4100 0.0864 -0.9080
vn -0.4102 0.0779 -0.9086
vn -0.4101 0.0827 -0.9083
vn -0.4105 0.0704 -0.9091
vn -0.4105 0.0706 -0.9091
vn -0.4100 0.0705 -0.9093
vn -0.4103 0.0705 -0.9092
vn -0.4106 0.0705 -0.9091
vn -0.4104 0.0705 -0.9091
vn -0.4107 0.0706 -0.9090
vn -0.4100 0.0706 -0.9093
vn -0.4103 0.0706 -0.9092
vn -0.4100 0.0865 -0.9080
vn -0.4099 0.0864 -0.9080
vn -0.4099 0.0863 -0.9080
usemtl None
s 1
f 33//17 32//17 31//17
f 56//18 55//18 44//18
f 22//19 21//20 41//21
f 22//19 41//21 40//22
f 25//23 24//24 26//25
f 24//24 23//26 27//26
f 26//25 24//24 27//26
f 23//26 22//19 36//17
f 22//19 40//22 36//17
f 39//27 38//28 37//26
f 40//22 39//27 36//17
f 29//22 28//29 27//26
f 39//27 37//26 36//17
f 36//17 35//17 27//26
f 35//17 34//22 27//26
f 27//26 34//22 29//22
f 27//26 23//26 36//17
f 31//17 30//22 33//17
f 30//22 29//22 34//22
f 33//17 30//22 34//22
f 21//20 22//19 52//18
f 22//19 47//30 53//18
f 47//30 46//18 54//18
f 46//18 45//18 54//18
f 44//18 43//31 56//18
f 43//31 42//18 57//18
f 56//18 43//31 57//18
f 22//19 53//18 52//18
f 53//18 47//30 54//18
f 45//18 44//18 55//18
f 50//31 49//18 51//18
f 49//18 48//18 51//18
f 48//18 21//20 51//18
f 42//18 61//18 58//18
f 61//18 60//18 58//18
f 52//18 51//18 21//20
f 54//18 45//18 55//18
f 60//18 59//32 58//18
f 58//18 57//18 42//18
