# Blender v2.81 (sub 16) OBJ File: ''
# www.blender.org
mtllib Bulgaria.mtl
o 0_Bulgaria_sphere.001
v 3.199280 3.479563 -1.630109
v 3.247582 3.422734 -1.654720
v 3.295084 3.365062 -1.678923
v 3.297956 3.422734 -1.551894
v 3.346194 3.365062 -1.574593
v 3.393607 3.306558 -1.596904
v 3.345075 3.422734 -1.447537
v 3.394002 3.365062 -1.468710
v 3.442093 3.306558 -1.489520
v 3.192566 3.479563 -1.642790
v 3.442413 3.306156 -1.489659
v 3.366455 3.306558 -1.652329
v 3.210429 3.479563 -1.607350
v 3.453774 3.306558 -1.461320
v 3.314511 3.479563 -1.379683
v 3.305221 3.479563 -1.402110
v 3.271533 3.453346 -1.539461
v 3.308054 3.348809 -1.685532
v 3.219335 3.422734 -1.708070
v 3.433753 3.306558 -1.507990
v 3.407514 3.306558 -1.566104
v 3.356033 3.422734 -1.421082
v 3.272576 3.365062 -1.721433
v 3.308460 3.464558 -1.431692
v 3.400066 3.298332 -1.599944
v 3.196022 3.483277 -1.628449
v 3.419815 3.365062 -1.406392
v 3.193083 3.483725 -1.633058
v 3.193286 3.482371 -1.635524
v 3.311865 3.482382 -1.378820
v 3.308744 3.485211 -1.379077
v 3.306302 3.486827 -1.380817
v 3.304388 3.487936 -1.382588
v 3.305105 3.485298 -1.387641
v 3.304818 3.481111 -1.399101
v 3.305514 3.463938 -1.439652
v 3.298532 3.459585 -1.465206
v 3.292675 3.458092 -1.481636
v 3.285688 3.460048 -1.492577
v 3.278902 3.456591 -1.515620
v 3.272506 3.453433 -1.537105
v 3.185212 3.441680 -1.733900
v 3.194044 3.434553 -1.731745
v 3.196405 3.436887 -1.722528
v 3.203624 3.434864 -1.713020
v 3.213332 3.426816 -1.711088
v 3.217011 3.424424 -1.709016
v 3.191175 3.474396 -1.655950
v 3.187260 3.474323 -1.663491
v 3.185214 3.472915 -1.670225
v 3.185821 3.470805 -1.673383
v 3.185435 3.470298 -1.675143
v 3.179493 3.472256 -1.682374
v 3.181287 3.467885 -1.687896
v 3.183409 3.461826 -1.696238
v 3.180968 3.458709 -1.707202
v 3.177913 3.456964 -1.716531
v 3.176708 3.456704 -1.719334
v 3.171805 3.456862 -1.728274
v 3.220817 3.421638 -1.707438
v 3.230478 3.411006 -1.710191
v 3.244865 3.393655 -1.717291
v 3.248706 3.391546 -1.714202
v 3.251184 3.390884 -1.710830
v 3.271747 3.375657 -1.702069
v 3.270645 3.371316 -1.712727
v 3.271266 3.368029 -1.718047
v 3.275188 3.358856 -1.728377
v 3.278550 3.348418 -1.742004
v 3.281611 3.343328 -1.745964
v 3.284825 3.344471 -1.737706
v 3.286542 3.344115 -1.735145
v 3.288722 3.342511 -1.734097
v 3.290401 3.342818 -1.730340
v 3.292735 3.342834 -1.725902
v 3.296683 3.340985 -1.721983
v 3.298660 3.340217 -1.719720
v 3.299097 3.341937 -1.715602
v 3.298456 3.347039 -1.707047
v 3.297672 3.350620 -1.701675
v 3.298491 3.351503 -1.698436
v 3.300853 3.350478 -1.695937
v 3.307261 3.349352 -1.685992
v 3.407497 3.307659 -1.563747
v 3.407765 3.309147 -1.559913
v 3.407191 3.310740 -1.557720
v 3.404069 3.316255 -1.552631
v 3.404755 3.316422 -1.550748
v 3.409139 3.314366 -1.545512
v 3.411700 3.314453 -1.539652
v 3.412967 3.314836 -1.536012
v 3.417840 3.314611 -1.525711
v 3.421547 3.310841 -1.525704
v 3.422601 3.310247 -1.524661
v 3.424034 3.309757 -1.522556
v 3.426326 3.310004 -1.516942
v 3.431759 3.307256 -1.510888
v 3.399783 3.300981 -1.594985
v 3.401046 3.304168 -1.585468
v 3.403541 3.306021 -1.576035
v 3.406037 3.304609 -1.573485
v 3.407509 3.303487 -1.572590
v 3.436546 3.305572 -1.503885
v 3.439209 3.305580 -1.497969
v 3.441280 3.306460 -1.491529
v 3.201008 3.482376 -1.620288
v 3.264153 3.452341 -1.556707
v 3.256732 3.454865 -1.566382
v 3.250067 3.458331 -1.572472
v 3.241284 3.464865 -1.576233
v 3.226086 3.473497 -1.588542
v 3.214367 3.478376 -1.601886
v 3.310148 3.347296 -1.684338
v 3.314393 3.344980 -1.680387
v 3.317711 3.343844 -1.675925
v 3.321834 3.343024 -1.669181
v 3.323574 3.343116 -1.665440
v 3.325484 3.342005 -1.663802
v 3.329011 3.338666 -1.663399
v 3.332216 3.335400 -1.663507
v 3.333772 3.334087 -1.663003
v 3.339420 3.332443 -1.654823
v 3.341861 3.330580 -1.653633
v 3.343615 3.328734 -1.653810
v 3.344993 3.326908 -1.654713
v 3.347012 3.328684 -1.646977
v 3.350637 3.327487 -1.642013
v 3.352389 3.326096 -1.641269
v 3.354578 3.324074 -1.640916
v 3.355980 3.321934 -1.642411
v 3.356672 3.319848 -1.645246
v 3.360268 3.314226 -1.649351
v 3.364444 3.308606 -1.652266
v 3.367565 3.305408 -1.652333
v 3.371384 3.303063 -1.649162
v 3.377484 3.300526 -1.641713
v 3.380512 3.301757 -1.633106
v 3.383053 3.300757 -1.629890
v 3.386253 3.300448 -1.623966
v 3.389468 3.299819 -1.618644
v 3.395448 3.297530 -1.610952
v 3.400245 3.296224 -1.603736
v 3.355484 3.425863 -1.414609
v 3.353772 3.428910 -1.411147
v 3.352093 3.432262 -1.406847
v 3.351769 3.434592 -1.401823
v 3.351704 3.438582 -1.392034
v 3.349461 3.442654 -1.387300
v 3.345438 3.447907 -1.383919
v 3.342820 3.451909 -1.380265
v 3.341538 3.454502 -1.376897
v 3.339848 3.456625 -1.375685
v 3.337986 3.459218 -1.373719
v 3.333563 3.464345 -1.371617
v 3.326784 3.471114 -1.371114
v 3.324157 3.473493 -1.371525
v 3.322399 3.474178 -1.374061
v 3.316145 3.477782 -1.380177
v 3.305579 3.478028 -1.405072
v 3.307389 3.476084 -1.405549
v 3.310001 3.474180 -1.403987
v 3.313442 3.472281 -1.400415
v 3.316663 3.469794 -1.398837
v 3.319686 3.466682 -1.399294
v 3.321325 3.464509 -1.400753
v 3.321748 3.462614 -1.404456
v 3.312108 3.465216 -1.421244
v 3.419513 3.365737 -1.405491
v 3.416752 3.366701 -1.409829
v 3.414531 3.368630 -1.410532
v 3.408125 3.373883 -1.413307
v 3.405699 3.376463 -1.412933
v 3.404671 3.377906 -1.411932
v 3.403805 3.380427 -1.407931
v 3.399994 3.385922 -1.403860
v 3.394926 3.391078 -1.403644
v 3.392586 3.393743 -1.402856
v 3.391009 3.396347 -1.400375
v 3.387568 3.399589 -1.400850
v 3.384679 3.401371 -1.403523
v 3.383354 3.401908 -1.405423
v 3.379431 3.402261 -1.414044
v 3.371560 3.408796 -1.417260
v 3.368366 3.410913 -1.419858
v 3.363797 3.414615 -1.421949
v 3.361947 3.416001 -1.423068
v 3.358889 3.418864 -1.423537
v 3.356178 3.421799 -1.422990
v 3.442442 3.319762 -1.457779
v 3.435106 3.327015 -1.458514
v 3.433932 3.328497 -1.457881
v 3.433309 3.329613 -1.456775
v 3.433565 3.330753 -1.453488
v 3.431195 3.334669 -1.450044
v 3.424512 3.344955 -1.442109
v 3.423812 3.347032 -1.438936
v 3.424848 3.349195 -1.431372
v 3.424890 3.352135 -1.424393
v 3.423726 3.356067 -1.417999
v 3.443328 3.305883 -1.488069
v 3.446947 3.305502 -1.480196
v 3.452398 3.301306 -1.476551
v 3.455521 3.301496 -1.468581
v 3.457709 3.302187 -1.461730
v 3.456345 3.303477 -1.462100
vn 0.6399 0.6959 -0.3260
vn 0.6400 0.7015 -0.3135
vn 0.6491 0.6911 -0.3180
vn 0.6495 0.6845 -0.3309
vn 0.6498 0.6902 -0.3183
vn 0.6590 0.6730 -0.3358
vn 0.6596 0.6845 -0.3104
vn 0.6692 0.6730 -0.3149
vn 0.6595 0.6902 -0.2978
vn 0.6690 0.6845 -0.2895
vn 0.6788 0.6730 -0.2937
vn 0.6789 0.6671 -0.3065
vn 0.6789 0.6672 -0.3065
vn 0.6685 0.6902 -0.2769
vn 0.6685 0.6901 -0.2770
vn 0.6785 0.6787 -0.2810
vn 0.6785 0.6787 -0.2811
vn 0.6883 0.6671 -0.2851
vn 0.6882 0.6671 -0.2851
vn 0.6298 0.7014 -0.3335
vn 0.6345 0.7016 -0.3243
vn 0.6584 0.7015 -0.2727
vn 0.6584 0.7014 -0.2727
vn 0.6395 0.6902 -0.3386
vn 0.6490 0.6787 -0.3436
vn 0.6489 0.6788 -0.3436
vn 0.6583 0.6671 -0.3486
vn 0.6797 0.6661 -0.3069
vn 0.6883 0.6614 -0.2979
vn 0.6875 0.6567 -0.3099
vn 0.6884 0.6551 -0.3111
vn 0.6885 0.6553 -0.3108
vn 0.6787 0.6612 -0.3194
vn 0.6689 0.6671 -0.3280
vn 0.6689 0.6671 -0.3277
vn 0.6690 0.6671 -0.3277
vn 0.6783 0.6554 -0.3323
vn 0.6783 0.6553 -0.3323
vn 0.6727 0.6623 -0.3297
vn 0.6981 0.6550 -0.2891
vn 0.6935 0.6556 -0.2985
vn 0.6548 0.6903 -0.3077
vn 0.6643 0.6902 -0.2868
vn 0.6808 0.6648 -0.3074
vn 0.6789 0.6672 -0.3064
vn 0.6790 0.6670 -0.3066
vn 0.6788 0.6671 -0.3068
vn 0.6789 0.6671 -0.3066
vn 0.6789 0.6671 -0.3067
vn 0.6786 0.6676 -0.3063
vn 0.6789 0.6673 -0.3063
vn 0.6790 0.6672 -0.3063
vn 0.6788 0.6672 -0.3066
vn 0.6706 0.6878 -0.2777
vn 0.6685 0.6902 -0.2770
vn 0.6687 0.6900 -0.2768
vn 0.6686 0.6901 -0.2769
vn 0.6684 0.6903 -0.2769
vn 0.6663 0.6926 -0.2760
vn 0.6686 0.6902 -0.2768
vn 0.6684 0.6902 -0.2770
vn 0.6637 0.6956 -0.2749
vn 0.6686 0.6902 -0.2767
vn 0.6785 0.6786 -0.2810
vn 0.6786 0.6787 -0.2809
vn 0.6814 0.6753 -0.2821
vn 0.6784 0.6788 -0.2810
vn 0.6784 0.6788 -0.2811
vn 0.6784 0.6787 -0.2812
vn 0.6784 0.6787 -0.2811
vn 0.6784 0.6787 -0.2810
vn 0.6932 0.6611 -0.2871
vn 0.6882 0.6671 -0.2850
vn 0.6883 0.6671 -0.2850
vn 0.6378 0.6922 -0.3377
vn 0.6299 0.7014 -0.3335
vn 0.6586 0.7013 -0.2727
vn 0.6585 0.7014 -0.2727
vn 0.6584 0.7014 -0.2728
vn 0.6421 0.6871 -0.3399
vn 0.6395 0.6902 -0.3385
vn 0.6395 0.6901 -0.3386
vn 0.6392 0.6905 -0.3385
vn 0.6395 0.6901 -0.3385
vn 0.6553 0.6710 -0.3469
vn 0.6490 0.6788 -0.3436
vn 0.6490 0.6788 -0.3434
vn 0.6490 0.6785 -0.3440
vn 0.6663 0.6671 -0.3330
vn 0.6585 0.6670 -0.3484
vn 0.6583 0.6671 -0.3485
vn 0.6584 0.6671 -0.3486
vn 0.6582 0.6672 -0.3486
vn 0.6583 0.6672 -0.3486
vn 0.6582 0.6671 -0.3487
vn 0.6885 0.6551 -0.3109
vn 0.6885 0.6552 -0.3109
vn 0.6883 0.6554 -0.3109
vn 0.6884 0.6554 -0.3107
vn 0.6884 0.6554 -0.3108
vn 0.6812 0.6554 -0.3262
vn 0.6692 0.6670 -0.3275
vn 0.6690 0.6672 -0.3276
vn 0.6690 0.6671 -0.3276
vn 0.6688 0.6676 -0.3271
vn 0.6690 0.6671 -0.3278
vn 0.6689 0.6672 -0.3277
vn 0.6689 0.6673 -0.3276
vn 0.6691 0.6670 -0.3278
vn 0.6783 0.6553 -0.3322
vn 0.6782 0.6553 -0.3324
vn 0.6784 0.6552 -0.3323
vn 0.6782 0.6550 -0.3332
vn 0.6978 0.6553 -0.2891
vn 0.6977 0.6554 -0.2889
vn 0.6978 0.6554 -0.2890
vn 0.6978 0.6554 -0.2888
vn 0.6979 0.6553 -0.2890
usemtl None
s 1
f 1//1 106//2 13//3
f 2//4 109//5 108//5
f 3//6 4//7 5//8
f 38//9 37//9 7//10
f 5//8 7//10 8//11
f 8//11 91//12 88//13
f 154//14 157//14 155//15
f 182//16 176//16 173//17
f 192//18 191//19 8//11
f 28//20 26//21 1//1
f 34//22 32//22 31//23
f 55//24 54//24 52//24
f 61//25 60//26 2//4
f 74//27 68//27 75//27
f 20//28 9//29 105//30
f 100//31 99//32 6//33
f 126//34 123//35 122//36
f 137//37 135//38 12//39
f 200//40 11//41 9//29
f 1//1 26//21 106//2
f 4//7 2//4 108//5
f 2//4 1//1 13//3
f 112//5 2//4 13//3
f 112//5 111//5 2//4
f 111//5 110//5 2//4
f 110//5 109//5 2//4
f 107//5 17//42 4//7
f 108//5 107//5 4//7
f 3//6 2//4 4//7
f 7//10 4//7 38//9
f 4//7 17//42 41//9
f 4//7 41//9 40//9
f 36//9 24//43 7//10
f 37//9 36//9 7//10
f 4//7 40//9 39//9
f 38//9 4//7 39//9
f 5//8 4//7 7//10
f 21//44 6//33 87//45
f 6//33 5//8 87//45
f 21//44 87//45 84//46
f 5//8 8//11 88//13
f 8//11 9//29 20//28
f 96//12 8//11 20//28
f 20//28 97//47 96//12
f 96//12 95//48 92//48
f 95//48 94//49 92//48
f 86//12 85//50 84//46
f 87//45 86//12 84//46
f 8//11 96//12 92//48
f 94//49 93//51 92//48
f 90//52 89//53 88//13
f 88//13 87//45 5//8
f 8//11 92//48 91//12
f 91//12 90//52 88//13
f 22//54 7//10 144//55
f 7//10 24//43 167//14
f 167//14 166//14 145//55
f 167//14 144//55 7//10
f 144//55 167//14 145//55
f 144//55 143//56 22//54
f 166//14 165//15 149//14
f 145//55 166//14 146//14
f 165//15 164//57 154//14
f 146//14 166//14 149//14
f 149//14 165//15 150//14
f 148//58 147//57 146//14
f 149//14 148//58 146//14
f 164//57 163//14 158//57
f 162//14 161//14 16//59
f 161//14 160//60 16//59
f 150//14 165//15 152//14
f 160//60 159//61 16//59
f 152//14 165//15 153//14
f 163//14 162//14 158//57
f 152//14 151//14 150//14
f 165//15 154//14 153//14
f 16//59 15//62 162//14
f 15//62 158//57 162//14
f 157//14 156//63 155//15
f 158//57 157//14 164//57
f 154//14 164//57 157//14
f 7//10 22//54 188//64
f 7//10 188//64 187//16
f 168//65 27//66 169//16
f 27//66 8//11 169//16
f 171//16 170//67 8//11
f 170//67 169//16 8//11
f 8//11 7//10 184//16
f 7//10 187//16 186//68
f 186//68 185//67 7//10
f 185//67 184//16 7//10
f 172//16 171//16 8//11
f 184//16 183//69 182//16
f 182//16 181//67 177//70
f 181//67 180//16 177//70
f 180//16 179//71 177//70
f 179//71 178//17 177//70
f 8//11 184//16 182//16
f 176//16 175//16 173//17
f 175//16 174//67 173//17
f 182//16 177//70 176//16
f 172//16 8//11 182//16
f 173//17 172//16 182//16
f 14//72 9//29 189//19
f 9//29 8//11 191//19
f 189//19 9//29 190//19
f 8//11 27//66 199//73
f 199//73 198//73 8//11
f 198//73 197//73 8//11
f 197//73 196//73 8//11
f 190//19 9//29 191//19
f 195//73 194//73 8//11
f 194//73 193//74 192//18
f 8//11 196//73 195//73
f 194//73 192//18 8//11
f 1//1 10//75 29//76
f 29//76 28//20 1//1
f 15//62 16//59 35//77
f 34//22 33//78 32//22
f 15//62 35//77 34//22
f 31//23 30//79 34//22
f 30//79 15//62 34//22
f 2//4 19//80 47//24
f 47//24 46//81 45//24
f 44//24 43//82 42//24
f 2//4 47//24 51//24
f 47//24 45//24 52//24
f 45//24 44//24 56//24
f 44//24 42//24 57//24
f 42//24 59//24 58//24
f 42//24 58//24 57//24
f 47//24 52//24 51//24
f 44//24 57//24 56//24
f 10//75 1//1 48//24
f 1//1 2//4 48//24
f 50//83 49//81 51//24
f 49//81 48//24 51//24
f 45//24 56//24 55//24
f 48//24 2//4 51//24
f 45//24 55//24 52//24
f 54//24 53//84 52//24
f 3//6 23//85 66//86
f 23//85 67//87 66//86
f 66//86 65//25 3//6
f 64//25 63//88 62//25
f 64//25 62//25 61//25
f 3//6 65//25 2//4
f 65//25 64//25 2//4
f 60//26 19//80 2//4
f 64//25 61//25 2//4
f 3//6 18//89 83//90
f 83//90 82//27 3//6
f 82//27 81//27 3//6
f 80//91 79//27 23//85
f 79//27 78//27 75//27
f 79//27 75//27 68//27
f 78//27 77//92 76//93
f 3//6 81//27 23//85
f 81//27 80//91 23//85
f 68//27 23//85 79//27
f 70//94 69//91 71//27
f 69//91 68//27 71//27
f 78//27 76//93 75//27
f 71//27 68//27 72//27
f 72//27 68//27 74//27
f 74//27 73//95 72//27
f 9//29 11//41 105//30
f 105//30 104//96 20//28
f 104//96 103//97 20//28
f 21//44 102//98 101//99
f 21//44 101//99 100//31
f 98//100 25//101 6//33
f 99//32 98//100 6//33
f 6//33 21//44 100//31
f 6//33 12//39 130//36
f 12//39 133//102 132//103
f 130//36 12//39 132//103
f 132//103 131//104 130//36
f 5//8 6//33 129//36
f 18//89 3//6 114//103
f 3//6 5//8 117//36
f 114//103 3//6 115//36
f 114//103 113//105 18//89
f 116//106 115//36 3//6
f 117//36 116//106 3//6
f 6//33 130//36 129//36
f 118//36 117//36 5//8
f 5//8 129//36 128//36
f 5//8 128//36 127//36
f 119//107 118//36 122//36
f 118//36 5//8 122//36
f 122//36 5//8 127//36
f 121//108 120//106 122//36
f 120//106 119//107 122//36
f 122//36 127//36 126//34
f 126//34 125//109 124//104
f 126//34 124//104 123//35
f 6//33 25//101 141//38
f 25//101 142//110 141//38
f 141//38 140//38 6//33
f 139//38 138//111 137//37
f 140//38 139//38 6//33
f 139//38 137//37 6//33
f 137//37 136//112 135//38
f 135//38 134//113 12//39
f 12//39 6//33 137//37
f 9//29 14//72 201//114
f 14//72 205//115 203//116
f 201//114 14//72 203//116
f 205//115 204//117 203//116
f 203//116 202//118 201//114
f 201//114 200//40 9//29
