# Blender v2.81 (sub 16) OBJ File: ''
# www.blender.org
mtllib Cayman Islands.mtl
o 0_Cayman_Islands_sphere.001
v 0.710559 1.654831 4.663870
v 0.713837 1.655834 4.663048
v 0.714691 1.657572 4.662310
v 0.727350 1.656314 4.660954
v 0.729429 1.652906 4.661867
v 0.719863 1.652782 4.663272
v 0.715679 1.650562 4.664655
v 0.713547 1.650097 4.665123
v 0.705281 1.650606 4.666120
v 0.703698 1.658546 4.663529
v 0.705937 1.659393 4.662910
v 0.707848 1.656410 4.663695
vn 0.1329 0.3313 0.9341
vn 0.1330 0.3313 0.9341
vn 0.1329 0.3312 0.9341
vn 0.1330 0.3313 0.9340
vn 0.1328 0.3312 0.9341
vn 0.1327 0.3312 0.9341
vn 0.1332 0.3311 0.9341
vn 0.1331 0.3312 0.9341
usemtl None
s 1
f 1//1 12//2 9//2
f 5//3 4//3 6//1
f 4//3 3//4 6//1
f 3//4 2//1 6//1
f 8//5 7//6 2//1
f 7//6 6//1 2//1
f 2//1 1//1 8//5
f 9//2 8//5 1//1
f 11//7 10//8 12//2
f 10//8 9//2 12//2
o 1_Cayman_Islands_sphere.001
v 0.818224 1.685475 4.635043
v 0.815606 1.685824 4.635375
v 0.809870 1.682454 4.637578
v 0.807295 1.682660 4.637954
v 0.808006 1.683837 4.637410
v 0.809175 1.684953 4.636808
v 0.810524 1.685760 4.636285
v 0.811809 1.686104 4.635939
v 0.815918 1.686768 4.634984
v 0.817880 1.686847 4.634614
v 0.819295 1.686106 4.634631
v 0.818980 1.685949 4.634742
vn 0.1625 0.3313 0.9294
vn 0.1622 0.3313 0.9295
vn 0.1624 0.3313 0.9294
vn 0.1638 0.3309 0.9293
vn 0.1622 0.3312 0.9295
vn 0.1631 0.3311 0.9294
vn 0.1623 0.3312 0.9295
vn 0.1622 0.3313 0.9294
vn 0.1621 0.3313 0.9295
usemtl None
s 1
f 14//9 13//10 21//11
f 23//12 22//13 24//14
f 22//13 21//11 13//10
f 24//14 22//13 13//10
f 21//11 20//15 14//9
f 20//15 19//13 15//10
f 14//9 20//15 15//10
f 19//13 18//16 15//10
f 18//16 17//17 15//10
f 17//17 16//16 15//10
o 2_Cayman_Islands_sphere.001
v 0.827858 1.685009 4.633528
v 0.824900 1.685486 4.633874
v 0.831319 1.688894 4.631539
v 0.832948 1.690079 4.630833
v 0.834373 1.690669 4.630373
v 0.835885 1.690686 4.630104
v 0.837889 1.689995 4.630000
v 0.837917 1.689472 4.630182
v 0.831551 1.686246 4.632442
vn 0.1620 0.3313 0.9295
vn 0.1621 0.3313 0.9295
vn 0.1622 0.3312 0.9295
vn 0.1621 0.3315 0.9294
vn 0.1622 0.3316 0.9293
vn 0.1619 0.3313 0.9295
vn 0.1624 0.3313 0.9294
vn 0.1623 0.3313 0.9294
usemtl None
s 1
f 33//18 32//19 28//19
f 31//20 30//21 32//19
f 30//21 29//22 32//19
f 29//22 28//19 32//19
f 28//19 27//23 33//18
f 27//23 26//24 25//25
f 25//25 33//18 27//23
