# Blender v2.81 (sub 16) OBJ File: ''
# www.blender.org
mtllib Cook Islands.mtl
o 0_Cook_Islands_sphere.001
v -4.372176 -1.811948 1.611032
v -4.373561 -1.811357 1.608014
v -4.374437 -1.811030 1.606055
v -4.374790 -1.810292 1.605928
v -4.375328 -1.807981 1.607033
v -4.375127 -1.806829 1.608827
v -4.373848 -1.806986 1.612037
v -4.372465 -1.808553 1.613984
v -4.371416 -1.811218 1.613844
v -4.371284 -1.811901 1.613444
vn -0.8724 -0.3608 0.3297
vn -0.8729 -0.3597 0.3297
vn -0.8726 -0.3604 0.3297
vn -0.8723 -0.3609 0.3297
vn -0.8724 -0.3609 0.3297
vn -0.8724 -0.3608 0.3296
vn -0.8723 -0.3609 0.3298
usemtl None
s 1
f 1//1 10//2 9//3
f 9//3 8//4 1//1
f 8//4 7//4 1//1
f 7//4 6//5 2//1
f 6//5 5//6 2//1
f 5//6 4//1 2//1
f 4//1 3//7 2//1
f 2//1 1//1 7//4
