# Blender v2.81 (sub 16) OBJ File: ''
# www.blender.org
mtllib Costa Rica.mtl
o 0_Costa_Rica_sphere.001
v 0.618947 0.782170 4.899489
v 0.462204 0.936904 4.889631
v 0.463534 0.859643 4.903682
v 0.603528 0.859643 4.888227
v 0.619143 0.782170 4.899461
v 0.461831 0.956845 4.885684
v 0.619168 0.770453 4.901238
v 0.375685 0.859643 4.910596
v 0.376041 0.859643 4.910568
v 0.435560 0.859643 4.905884
v 0.453675 0.859643 4.904458
v 0.617667 0.843595 4.889351
v 0.617887 0.833048 4.891092
v 0.618944 0.782314 4.899466
v 0.548042 0.782170 4.907317
v 0.496574 0.936904 4.885837
v 0.539158 0.936904 4.881136
v 0.548598 0.936904 4.880094
v 0.463955 0.832702 4.908144
v 0.612049 0.704504 4.912006
v 0.613428 0.704504 4.911854
v 0.365145 0.936904 4.897270
v 0.545789 0.943443 4.879096
v 0.548387 0.938091 4.879879
v 0.471333 0.953295 4.885345
v 0.478796 0.951811 4.884818
v 0.483348 0.952254 4.884227
v 0.491380 0.945464 4.884698
v 0.495790 0.940371 4.885230
v 0.542316 0.939959 4.880176
v 0.543614 0.946848 4.878654
v 0.620409 0.781335 4.899408
v 0.624047 0.777998 4.899398
v 0.625246 0.774921 4.899695
v 0.624235 0.773409 4.900068
v 0.611898 0.848523 4.889163
v 0.616749 0.845408 4.889149
v 0.614162 0.831305 4.891795
v 0.612884 0.826191 4.892792
v 0.610474 0.823555 4.893499
v 0.607413 0.822521 4.894010
v 0.606180 0.820804 4.894433
v 0.606278 0.803562 4.897308
v 0.606822 0.787321 4.899966
v 0.611880 0.786961 4.899468
v 0.547172 0.785118 4.906920
v 0.538455 0.795015 4.906226
v 0.524671 0.805864 4.905932
v 0.505489 0.814762 4.906561
v 0.496426 0.821914 4.906365
v 0.474071 0.827446 4.907907
v 0.465550 0.831093 4.908237
v 0.426804 0.878092 4.903193
v 0.411846 0.884919 4.903119
v 0.408599 0.888928 4.902640
v 0.406223 0.890174 4.902599
v 0.408697 0.877360 4.904752
v 0.415308 0.869640 4.905646
v 0.432389 0.862456 4.905618
v 0.370800 0.864571 4.910078
v 0.360708 0.879543 4.908128
v 0.355977 0.893221 4.905995
v 0.357481 0.902328 4.904208
v 0.368192 0.916506 4.900767
v 0.371519 0.922692 4.899372
v 0.370773 0.926497 4.898734
v 0.371055 0.932092 4.897686
v 0.366935 0.936010 4.897293
v 0.613641 0.701953 4.912176
v 0.619583 0.839805 4.889715
v 0.634019 0.835164 4.888441
v 0.638066 0.831760 4.888437
v 0.637622 0.830184 4.888765
v 0.636179 0.828508 4.889251
v 0.634106 0.826842 4.889826
v 0.631331 0.825697 4.890414
v 0.624500 0.829169 4.890802
v 0.549623 0.931201 4.881028
v 0.560935 0.908140 4.884017
v 0.569861 0.895219 4.885406
v 0.589335 0.871747 4.887569
v 0.597636 0.867438 4.887445
v 0.499014 0.935143 4.885891
v 0.505168 0.934735 4.885287
v 0.520307 0.931261 4.884254
v 0.529511 0.931941 4.883113
v 0.537810 0.935602 4.881524
v 0.356770 0.941092 4.897094
v 0.350298 0.945177 4.896789
v 0.352027 0.947200 4.896249
v 0.363490 0.952668 4.894257
v 0.364149 0.957603 4.893220
v 0.364067 0.959243 4.892900
v 0.365943 0.959606 4.892680
v 0.367602 0.960912 4.892289
v 0.368616 0.962275 4.891937
v 0.371692 0.967032 4.890746
v 0.374405 0.969711 4.889998
v 0.377575 0.970150 4.889661
v 0.381482 0.968155 4.889752
v 0.396111 0.963049 4.889618
v 0.412371 0.957362 4.889473
v 0.435557 0.949298 4.889257
v 0.445015 0.954505 4.887474
v 0.453158 0.958473 4.886042
v 0.458884 0.957918 4.885702
v 0.618160 0.769862 4.901439
v 0.612236 0.765355 4.902775
v 0.609344 0.759742 4.903944
v 0.614763 0.750684 4.904717
v 0.616006 0.744529 4.905512
v 0.615937 0.738087 4.906494
v 0.614546 0.734994 4.907116
v 0.603030 0.727582 4.909509
v 0.600520 0.724975 4.910181
v 0.600888 0.723096 4.910425
v 0.607416 0.718007 4.910474
v 0.610562 0.713080 4.910873
v 0.613213 0.707133 4.911480
v 0.607637 0.711527 4.911431
v 0.599383 0.720652 4.910961
v 0.592258 0.726277 4.910896
v 0.591484 0.739433 4.908990
v 0.588541 0.746561 4.908236
v 0.577848 0.753139 4.908421
v 0.568710 0.757729 4.908735
v 0.562015 0.756783 4.909617
v 0.566253 0.749229 4.910293
v 0.577053 0.739526 4.910569
v 0.577829 0.735818 4.911045
v 0.577750 0.730825 4.911809
v 0.570417 0.731585 4.912504
v 0.563924 0.733617 4.912913
v 0.556044 0.734242 4.913688
v 0.550760 0.737222 4.913820
v 0.539478 0.748796 4.913314
v 0.547196 0.758672 4.910968
v 0.549522 0.765157 4.909729
v 0.549092 0.778601 4.907742
v 0.458820 0.837825 4.907693
v 0.457753 0.842668 4.906970
v 0.459988 0.850128 4.905549
v 0.437116 0.858258 4.905992
v 0.439080 0.852784 4.906751
v 0.429382 0.842296 4.909264
v 0.424413 0.839634 4.910100
v 0.423002 0.833914 4.911165
v 0.419814 0.832173 4.911706
v 0.416378 0.835460 4.911428
v 0.402384 0.851891 4.909788
vn 0.1083 0.1641 0.9805
vn 0.1126 0.1641 0.9800
vn 0.1082 0.1641 0.9805
vn 0.0768 0.1948 0.9778
vn 0.0769 0.1950 0.9778
vn 0.0772 0.1797 0.9807
vn 0.0772 0.1784 0.9809
vn 0.1078 0.1950 0.9748
vn 0.1078 0.1950 0.9749
vn 0.1076 0.1950 0.9749
vn 0.0924 0.1874 0.9779
vn 0.1391 0.1488 0.9790
vn 0.1384 0.1531 0.9785
vn 0.1238 0.1567 0.9799
vn 0.1087 0.1437 0.9836
vn 0.1090 0.1332 0.9851
vn 0.1088 0.1407 0.9840
vn 0.1199 0.1643 0.9791
vn 0.1389 0.1641 0.9766
vn 0.1388 0.1641 0.9766
vn 0.1390 0.1641 0.9766
vn 0.1079 0.1796 0.9778
vn 0.1079 0.1832 0.9771
vn 0.1085 0.1487 0.9829
vn 0.1086 0.1487 0.9829
vn 0.1085 0.1488 0.9829
vn 0.0774 0.1678 0.9828
vn 0.0774 0.1641 0.9834
vn 0.1006 0.1641 0.9813
vn 0.0927 0.1719 0.9807
vn 0.0775 0.1641 0.9834
vn 0.1084 0.1577 0.9815
vn 0.1082 0.1640 0.9805
vn 0.1082 0.1687 0.9797
vn 0.1087 0.1639 0.9804
vn 0.1081 0.1640 0.9805
vn 0.1082 0.1639 0.9805
vn 0.1242 0.1641 0.9786
vn 0.1086 0.1642 0.9804
vn 0.0889 0.1950 0.9767
vn 0.0770 0.1950 0.9778
vn 0.0770 0.1928 0.9782
vn 0.0768 0.1950 0.9778
vn 0.0771 0.1950 0.9778
vn 0.0768 0.1949 0.9778
vn 0.0772 0.1951 0.9777
vn 0.0772 0.1753 0.9815
vn 0.0772 0.1800 0.9806
vn 0.0772 0.1796 0.9807
vn 0.0786 0.1797 0.9806
vn 0.0771 0.1797 0.9807
vn 0.0769 0.1796 0.9807
vn 0.0773 0.1796 0.9807
vn 0.0772 0.1801 0.9806
vn 0.0769 0.1798 0.9807
vn 0.1078 0.1867 0.9765
vn 0.1075 0.1953 0.9748
vn 0.1078 0.1850 0.9768
vn 0.1074 0.1951 0.9749
vn 0.1076 0.1949 0.9749
vn 0.1188 0.1487 0.9817
vn 0.1392 0.1487 0.9790
vn 0.1382 0.1487 0.9792
vn 0.1391 0.1641 0.9766
vn 0.1391 0.1640 0.9766
vn 0.1389 0.1640 0.9766
vn 0.1388 0.1642 0.9766
vn 0.1079 0.1797 0.9778
vn 0.1080 0.1796 0.9778
vn 0.1080 0.1797 0.9778
vn 0.1086 0.1488 0.9829
vn 0.1095 0.1487 0.9828
vn 0.1087 0.1487 0.9829
vn 0.1084 0.1487 0.9829
vn 0.1090 0.1488 0.9828
vn 0.0774 0.1640 0.9834
vn 0.0773 0.1641 0.9834
vn 0.0784 0.1643 0.9833
vn 0.0772 0.1641 0.9834
vn 0.0770 0.1640 0.9834
usemtl None
s 1
f 38//1 12//2 36//3
f 96//4 95//5 100//5
f 58//6 57//6 9//7
f 23//8 31//8 30//9
f 25//10 2//11 26//10
f 32//12 5//13 1//14
f 20//15 69//16 21//17
f 5//13 14//18 1//14
f 71//19 70//20 77//21
f 78//22 17//23 87//22
f 137//24 135//25 127//26
f 10//27 150//28 145//28
f 19//29 3//30 142//31
f 15//32 1//14 44//33
f 1//14 14//18 45//1
f 44//33 1//14 45//1
f 46//33 15//32 44//33
f 46//33 44//33 43//3
f 47//3 46//33 42//3
f 46//33 43//3 42//3
f 50//3 49//33 4//34
f 49//33 48//3 4//34
f 48//3 47//3 42//3
f 41//33 40//35 39//36
f 48//3 42//3 4//34
f 42//3 41//33 4//34
f 52//37 51//3 19//29
f 51//3 50//3 3//30
f 41//33 39//36 38//1
f 38//1 13//38 12//2
f 12//2 37//39 36//3
f 36//3 4//34 41//33
f 4//34 3//30 50//3
f 3//30 19//29 51//3
f 41//33 38//1 36//3
f 2//11 6//40 106//5
f 106//5 105//5 2//11
f 105//5 104//41 2//11
f 104//41 103//5 2//11
f 88//5 22//42 91//41
f 22//42 2//11 103//5
f 91//41 22//42 101//5
f 90//43 89//43 88//5
f 91//41 90//43 88//5
f 102//5 101//5 22//42
f 101//5 100//5 95//5
f 103//5 102//5 22//42
f 94//44 93//45 92//46
f 92//46 91//41 94//44
f 101//5 95//5 91//41
f 100//5 99//5 97//41
f 99//5 98//44 97//41
f 97//41 96//4 100//5
f 95//5 94//44 91//41
f 11//47 3//30 53//6
f 3//30 2//11 53//6
f 2//11 22//42 68//48
f 67//49 66//50 65//6
f 2//11 68//48 67//49
f 55//51 54//52 53//6
f 55//51 53//6 2//11
f 2//11 67//49 56//6
f 67//49 65//6 56//6
f 64//6 63//6 56//6
f 63//6 62//53 61//6
f 56//6 63//6 61//6
f 65//6 64//6 56//6
f 56//6 55//51 2//11
f 61//6 60//6 56//6
f 60//6 8//54 9//7
f 9//7 10//27 58//6
f 10//27 59//55 58//6
f 60//6 9//7 57//6
f 56//6 60//6 57//6
f 17//23 18//56 30//9
f 18//56 24//57 30//9
f 24//57 23//8 30//9
f 2//11 16//58 28//10
f 16//58 29//59 28//10
f 28//10 27//60 26//10
f 28//10 26//10 2//11
f 6//40 2//11 25//10
f 1//14 7//61 32//12
f 7//61 35//62 33//62
f 32//12 7//61 33//62
f 35//62 34//63 33//62
f 12//2 13//38 70//20
f 13//38 77//21 70//20
f 77//21 76//64 71//19
f 76//64 75//65 71//19
f 75//65 74//66 71//19
f 74//66 73//66 71//19
f 73//66 72//67 71//19
f 3//30 4//34 81//68
f 4//34 82//22 81//68
f 16//58 2//11 83//69
f 2//11 3//30 83//69
f 85//68 84//70 3//30
f 84//70 83//69 3//30
f 3//30 81//68 80//68
f 3//30 80//68 79//68
f 86//22 85//68 79//68
f 85//68 3//30 79//68
f 79//68 78//22 86//22
f 86//22 78//22 87//22
f 78//22 18//56 17//23
f 20//15 21//17 119//24
f 119//24 118//24 120//24
f 118//24 117//71 120//24
f 117//71 116//25 121//71
f 120//24 20//15 119//24
f 123//26 122//26 114//24
f 122//26 121//71 115//26
f 115//26 121//71 116//25
f 121//71 120//24 117//71
f 124//26 123//26 110//26
f 122//26 115//26 114//24
f 123//26 114//24 113//25
f 111//26 113//25 112//72
f 123//26 113//25 111//26
f 111//26 110//26 123//26
f 110//26 109//24 124//26
f 125//26 124//26 109//24
f 126//26 125//26 108//24
f 125//26 109//24 108//24
f 127//26 126//26 138//26
f 126//26 108//24 1//14
f 107//73 7//61 1//14
f 126//26 1//14 15//32
f 108//24 107//73 1//14
f 130//74 129//74 132//24
f 129//74 128//24 133//74
f 132//24 129//74 133//74
f 131//24 130//74 132//24
f 126//26 15//32 139//75
f 126//26 139//75 138//26
f 128//24 127//26 135//25
f 133//74 128//24 134//26
f 135//25 134//26 128//24
f 137//24 136//24 135//25
f 127//26 138//26 137//24
f 10//27 9//7 150//28
f 150//28 149//28 146//28
f 149//28 148//31 147//76
f 146//28 149//28 147//76
f 146//28 145//28 150//28
f 145//28 144//77 10//27
f 144//77 143//78 10//27
f 3//30 11//47 142//31
f 142//31 141//79 19//29
f 141//79 140//80 19//29
