# Blender v2.81 (sub 16) OBJ File: ''
# www.blender.org
mtllib Curaçao.mtl
o 0_Curaçao.002_sphere.001
v 1.767876 1.043326 4.558560
v 1.751935 1.051533 4.562695
v 1.738229 1.064871 4.564803
v 1.737291 1.071851 4.563550
v 1.740574 1.071255 4.562448
v 1.744086 1.068596 4.561733
v 1.749892 1.059153 4.561712
v 1.765198 1.052980 4.557350
v 1.771944 1.044549 4.556742
vn 0.3455 0.2105 0.9145
vn 0.3457 0.2104 0.9144
vn 0.3457 0.2105 0.9144
vn 0.3453 0.2106 0.9145
usemtl None
s 1
f 3//1 2//1 7//1
f 9//2 8//1 1//3
f 8//1 7//1 2//1
f 1//3 8//1 2//1
f 7//1 6//1 3//1
f 6//1 5//1 3//1
f 5//1 4//4 3//1
