# Blender v2.81 (sub 16) OBJ File: ''
# www.blender.org
mtllib Djibouti.mtl
o 0_Djibouti_sphere.001
v 3.577202 1.090714 -3.318171
v 3.558095 1.090714 -3.339170
v 3.571156 0.999868 -3.353533
v 3.572477 0.990757 -3.354773
v 3.649529 1.013934 -3.263246
v 3.594158 1.013934 -3.324097
v 3.557345 1.088931 -3.340564
v 3.566112 1.033079 -3.348796
v 3.553067 1.079067 -3.348030
v 3.551080 1.070795 -3.352640
v 3.550138 1.055674 -3.358289
v 3.553224 1.047262 -3.357707
v 3.556645 1.041780 -3.355873
v 3.561239 1.036899 -3.352642
v 3.575900 1.092578 -3.318960
v 3.574962 1.092443 -3.320037
v 3.567350 1.095957 -3.327193
v 3.560302 1.099908 -3.333578
v 3.560190 1.095824 -3.335107
v 3.575623 0.985304 -3.352926
v 3.584144 0.970608 -3.347904
v 3.593833 0.953890 -3.342196
v 3.598386 0.953762 -3.337230
v 3.601753 0.954716 -3.333248
v 3.603740 0.957547 -3.330229
v 3.608283 0.960606 -3.324332
v 3.613835 0.960810 -3.318170
v 3.619619 0.957929 -3.312664
v 3.629194 0.954339 -3.303203
v 3.637540 0.953173 -3.294375
v 3.644407 0.951180 -3.287418
v 3.650228 0.948850 -3.281708
v 3.654933 0.950125 -3.276161
v 3.658876 0.952261 -3.271197
v 3.657198 0.970004 -3.267797
v 3.655347 0.989274 -3.264138
v 3.652997 1.004346 -3.262267
v 3.650245 1.012647 -3.262839
v 3.603112 1.001840 -3.317830
v 3.609769 1.002878 -3.310208
v 3.609570 0.997051 -3.312148
v 3.607146 0.996416 -3.315000
v 3.603006 0.997534 -3.319220
v 3.594470 1.002001 -3.327281
v 3.587147 1.004155 -3.334692
v 3.579563 1.004344 -3.342971
v 3.573025 1.002450 -3.350715
v 3.568892 0.996775 -3.356753
v 3.648418 1.015861 -3.263850
v 3.638914 1.027286 -3.270640
v 3.635515 1.031929 -3.272890
v 3.623674 1.050849 -3.279851
v 3.613569 1.067067 -3.285768
v 3.606005 1.079189 -3.290204
v 3.603897 1.081577 -3.291757
v 3.601147 1.083880 -3.294042
v 3.599576 1.083221 -3.295979
v 3.590484 1.071553 -3.309703
v 3.588517 1.071862 -3.311766
v 3.584300 1.075501 -3.315237
v 3.578976 1.088008 -3.317087
v 3.576149 1.024891 -3.340384
v 3.591670 1.017204 -3.325786
vn 0.7020 0.2105 -0.6803
vn 0.7020 0.2105 -0.6804
vn 0.7205 0.2257 -0.6556
vn 0.7204 0.2257 -0.6558
vn 0.7223 0.2149 -0.6572
vn 0.7254 0.1950 -0.6601
vn 0.7217 0.1950 -0.6642
vn 0.7043 0.1950 -0.6825
vn 0.7195 0.1950 -0.6666
vn 0.7230 0.2105 -0.6579
vn 0.7230 0.2104 -0.6579
vn 0.7184 0.2105 -0.6629
vn 0.7164 0.2105 -0.6651
vn 0.7223 0.2147 -0.6573
vn 0.7205 0.2258 -0.6556
vn 0.7237 0.2062 -0.6585
vn 0.7247 0.2001 -0.6594
vn 0.7253 0.1950 -0.6602
vn 0.7254 0.1951 -0.6601
vn 0.7253 0.1951 -0.6602
vn 0.7233 0.2104 -0.6577
vn 0.7231 0.2105 -0.6579
vn 0.7231 0.2104 -0.6579
vn 0.7231 0.2106 -0.6579
usemtl None
s 1
f 12//1 11//2 10//1
f 16//3 15//4 1//5
f 25//6 23//6 21//6
f 4//7 48//8 3//9
f 52//10 63//11 58//10
f 7//12 8//13 9//1
f 8//13 14//1 10//1
f 9//1 8//13 10//1
f 14//1 13//1 10//1
f 13//1 12//1 10//1
f 1//5 2//14 16//3
f 2//14 19//15 17//15
f 16//3 2//14 17//15
f 19//15 18//15 17//15
f 6//16 5//17 40//6
f 5//17 38//18 37//6
f 40//6 5//17 37//6
f 37//6 36//6 40//6
f 40//6 36//6 41//6
f 36//6 35//6 30//6
f 35//6 34//6 33//6
f 31//19 35//6 32//6
f 33//6 32//6 35//6
f 35//6 31//19 30//6
f 39//6 6//16 40//6
f 30//6 29//6 41//6
f 29//6 28//6 41//6
f 36//6 30//6 41//6
f 28//6 27//6 41//6
f 42//6 41//6 27//6
f 42//6 27//6 26//6
f 45//6 44//6 21//6
f 44//6 43//6 21//6
f 43//6 42//6 26//6
f 25//6 24//20 23//6
f 43//6 26//6 25//6
f 46//6 45//6 20//6
f 3//9 47//6 4//7
f 47//6 46//6 4//7
f 4//7 46//6 20//6
f 23//6 22//19 21//6
f 21//6 20//6 45//6
f 43//6 25//6 21//6
f 5//17 6//16 50//11
f 6//16 63//11 52//10
f 5//17 50//11 49//21
f 63//11 62//11 59//10
f 62//11 8//13 60//22
f 8//13 7//12 60//22
f 7//12 2//14 61//23
f 60//22 7//12 61//23
f 2//14 1//5 61//23
f 62//11 60//22 59//10
f 50//11 6//16 51//11
f 51//11 6//16 52//10
f 54//10 53//10 58//10
f 53//10 52//10 58//10
f 63//11 59//10 58//10
f 58//10 57//11 54//10
f 57//11 56//11 55//24
f 54//10 57//11 55//24
