# Blender v2.81 (sub 16) OBJ File: ''
# www.blender.org
mtllib Dominican Republic.mtl
o 0_Dominican_Republic_sphere.001
v 1.602369 1.619585 4.450762
v 1.492294 1.545083 4.514720
v 1.535762 1.545083 4.499838
v 1.719758 1.619585 4.406405
v 1.476899 1.693688 4.466219
v 1.554666 1.693688 4.439594
v 1.743577 1.601698 4.403784
v 1.745643 1.584883 4.409000
v 1.608451 1.565772 4.467656
v 1.479690 1.619585 4.492764
v 1.464362 1.594512 4.506854
v 1.595120 1.680532 4.430625
v 1.528291 1.532390 4.506638
v 1.522459 1.519476 4.512950
v 1.519904 1.515471 4.515164
v 1.516597 1.514605 4.516585
v 1.509597 1.522040 4.516497
v 1.505350 1.524751 4.517045
v 1.500269 1.526124 4.518326
v 1.497804 1.530099 4.517841
v 1.497312 1.535727 4.516129
v 1.495471 1.541150 4.514947
v 1.595633 1.680367 4.430494
v 1.600604 1.680166 4.428691
v 1.609117 1.683167 4.424347
v 1.613527 1.683074 4.422716
v 1.619402 1.676286 4.423044
v 1.621527 1.666678 4.425847
v 1.626841 1.657922 4.427125
v 1.633984 1.652324 4.426528
v 1.665641 1.654633 4.413699
v 1.673319 1.650028 4.412527
v 1.671354 1.646231 4.414694
v 1.667097 1.644188 4.417070
v 1.651799 1.645098 4.422508
v 1.645180 1.644658 4.425174
v 1.644325 1.640891 4.426911
v 1.644739 1.637368 4.428077
v 1.653721 1.636522 4.425002
v 1.662684 1.634755 4.422277
v 1.671892 1.631907 4.419867
v 1.681156 1.630003 4.417081
v 1.691515 1.628748 4.413638
v 1.701788 1.626735 4.410511
v 1.719379 1.619881 4.406437
v 1.479132 1.697569 4.463942
v 1.482849 1.699912 4.461756
v 1.487207 1.701371 4.459695
v 1.496224 1.701219 4.456667
v 1.509120 1.697392 4.453743
v 1.512641 1.697466 4.452509
v 1.524187 1.700909 4.447214
v 1.533877 1.702848 4.443140
v 1.543482 1.700676 4.440698
v 1.547629 1.697697 4.440440
v 1.486265 1.561898 4.510855
v 1.487749 1.567410 4.508403
v 1.485213 1.573250 4.507213
v 1.475901 1.579488 4.508201
v 1.469769 1.587501 4.507475
v 1.465294 1.595600 4.506151
v 1.474674 1.595869 4.502845
v 1.477718 1.598458 4.500889
v 1.483301 1.605673 4.496434
v 1.483931 1.611477 4.494172
v 1.482977 1.615894 4.492941
v 1.586823 1.562991 4.476041
v 1.579667 1.567111 4.477038
v 1.572810 1.572781 4.477386
v 1.563794 1.573545 4.480205
v 1.551298 1.569119 4.486043
v 1.543357 1.567510 4.489329
v 1.540255 1.565628 4.491055
v 1.539535 1.563490 4.492055
v 1.540371 1.555552 4.494569
v 1.539064 1.550704 4.496725
v 1.492008 1.545453 4.514688
v 1.487344 1.548250 4.515298
v 1.745165 1.600648 4.403505
v 1.748980 1.595673 4.403722
v 1.748195 1.589624 4.406230
v 1.739762 1.604189 4.404337
v 1.742843 1.579650 4.411924
v 1.739472 1.576416 4.414351
v 1.734260 1.574456 4.417020
v 1.730995 1.570351 4.419717
v 1.728239 1.563384 4.423244
v 1.726102 1.562789 4.424263
v 1.723454 1.563056 4.425168
v 1.718533 1.567000 4.425621
v 1.714610 1.573059 4.424943
v 1.704997 1.578706 4.426562
v 1.694446 1.577953 4.430817
v 1.678385 1.581333 4.435680
v 1.669085 1.579680 4.439785
v 1.659647 1.579337 4.443473
v 1.649752 1.581055 4.446599
v 1.639919 1.581690 4.450088
v 1.630426 1.579554 4.454437
v 1.621387 1.575947 4.459139
v 1.618169 1.573661 4.461170
v 1.612723 1.567988 4.465251
v 1.609764 1.565914 4.467109
v 1.478281 1.621161 4.492662
v 1.476087 1.626687 4.491363
v 1.480628 1.631473 4.488032
v 1.486486 1.638491 4.483421
v 1.487096 1.641162 4.482222
v 1.486658 1.643850 4.481374
v 1.478086 1.651267 4.481556
v 1.477239 1.654433 4.480671
v 1.479950 1.662486 4.476754
v 1.479000 1.667792 4.475111
v 1.473620 1.684383 4.470795
v 1.471651 1.686869 4.470547
v 1.474922 1.688248 4.468915
v 1.476645 1.693191 4.466490
v 1.555894 1.692978 4.439437
v 1.559938 1.691560 4.438578
v 1.572101 1.691685 4.434367
v 1.575489 1.691242 4.433372
v 1.586648 1.683436 4.432448
vn 0.3056 0.3313 0.8926
vn 0.3056 0.3312 0.8927
vn 0.3053 0.3339 0.8918
vn 0.3088 0.3015 0.9021
vn 0.3088 0.3015 0.9020
vn 0.3336 0.3312 0.8826
vn 0.3335 0.3313 0.8826
vn 0.3037 0.3460 0.8877
vn 0.3039 0.3460 0.8877
vn 0.3051 0.3359 0.8911
vn 0.3205 0.3239 0.8901
vn 0.3073 0.3164 0.8974
vn 0.3629 0.3165 0.8764
vn 0.3633 0.3164 0.8762
vn 0.3438 0.3165 0.8841
vn 0.3353 0.3164 0.8874
vn 0.3353 0.3166 0.8873
vn 0.3059 0.3270 0.8941
vn 0.3169 0.3313 0.8887
vn 0.3059 0.3312 0.8926
vn 0.3056 0.3312 0.8926
vn 0.3052 0.3313 0.8928
vn 0.3057 0.3312 0.8926
vn 0.3057 0.3313 0.8926
vn 0.3070 0.3319 0.8919
vn 0.3055 0.3313 0.8927
vn 0.3052 0.3312 0.8928
vn 0.3077 0.3119 0.8989
vn 0.3074 0.3119 0.8990
vn 0.3088 0.3014 0.9021
vn 0.3089 0.3015 0.9020
vn 0.3087 0.3016 0.9020
vn 0.3350 0.3197 0.8863
vn 0.3344 0.3303 0.8826
vn 0.3336 0.3315 0.8825
vn 0.3335 0.3314 0.8825
vn 0.3338 0.3313 0.8825
vn 0.3335 0.3314 0.8826
vn 0.3334 0.3313 0.8826
vn 0.3335 0.3312 0.8826
vn 0.3336 0.3313 0.8826
vn 0.3333 0.3313 0.8827
vn 0.3039 0.3460 0.8876
vn 0.3036 0.3461 0.8877
vn 0.3038 0.3462 0.8876
vn 0.3039 0.3461 0.8876
vn 0.3074 0.3164 0.8974
vn 0.3073 0.3164 0.8975
vn 0.3071 0.3164 0.8975
vn 0.3059 0.3165 0.8979
vn 0.3072 0.3164 0.8975
vn 0.3071 0.3165 0.8975
vn 0.3073 0.3165 0.8974
vn 0.3203 0.3165 0.8928
vn 0.3405 0.3165 0.8853
vn 0.3631 0.3164 0.8764
vn 0.3356 0.3169 0.8871
vn 0.3351 0.3164 0.8875
vn 0.3352 0.3164 0.8874
vn 0.3353 0.3165 0.8874
vn 0.3351 0.3164 0.8874
vn 0.3358 0.3164 0.8872
usemtl None
s 1
f 112//1 109//2 6//3
f 18//4 17//4 13//5
f 36//6 35//7 30//7
f 47//8 46//9 5//10
f 1//11 66//12 70//12
f 81//13 79//14 7//15
f 97//16 95//17 94//16
f 10//18 1//11 107//2
f 1//11 12//19 122//1
f 122//1 121//20 120//1
f 1//11 122//1 119//21
f 119//21 122//1 120//1
f 105//2 104//22 106//23
f 104//22 10//18 106//23
f 1//11 119//21 108//2
f 107//2 1//11 108//2
f 107//2 106//23 10//18
f 118//24 6//3 109//2
f 6//3 5//10 113//1
f 119//21 118//24 108//2
f 6//3 113//1 112//1
f 5//10 117//25 116//26
f 113//1 5//10 116//26
f 116//26 115//23 114//20
f 109//2 108//2 118//24
f 111//27 110//1 112//1
f 110//1 109//2 112//1
f 116//26 114//20 113//1
f 3//28 2//29 22//4
f 21//30 20//31 18//4
f 20//31 19//30 18//4
f 3//28 22//4 13//5
f 22//4 21//30 13//5
f 15//32 14//4 16//4
f 14//4 13//5 17//4
f 17//4 16//4 14//4
f 21//30 18//4 13//5
f 1//11 4//33 42//7
f 4//33 45//34 44//35
f 42//7 4//33 43//36
f 44//35 43//36 4//33
f 23//37 12//19 1//11
f 26//38 25//7 27//7
f 25//7 24//39 27//7
f 24//39 23//37 28//7
f 23//37 1//11 28//7
f 41//40 40//39 1//11
f 40//39 39//40 1//11
f 1//11 42//7 41//40
f 28//7 27//7 24//39
f 1//11 39//40 38//39
f 29//7 28//7 1//11
f 32//41 31//7 33//7
f 31//7 30//7 35//7
f 33//7 31//7 34//7
f 30//7 29//7 1//11
f 1//11 38//39 30//7
f 38//39 37//42 30//7
f 37//42 36//6 30//7
f 35//7 34//7 31//7
f 5//10 6//3 51//43
f 6//3 55//43 52//43
f 5//10 51//43 50//44
f 55//43 54//45 53//46
f 53//46 52//43 55//43
f 52//43 51//43 6//3
f 50//44 49//43 5//10
f 49//43 48//43 5//10
f 48//43 47//8 5//10
f 2//29 3//28 57//12
f 3//28 76//47 74//48
f 76//47 75//48 74//48
f 3//28 74//48 57//12
f 56//47 78//49 77//50
f 77//50 2//29 57//12
f 74//48 73//48 57//12
f 57//12 56//47 77//50
f 60//12 59//51 62//12
f 59//51 58//51 63//12
f 62//12 59//51 63//12
f 11//49 60//12 61//52
f 61//52 60//12 62//12
f 58//51 57//12 73//48
f 72//53 71//48 65//48
f 71//48 70//12 66//12
f 65//48 71//48 66//12
f 58//51 73//48 64//12
f 73//48 72//53 64//12
f 69//12 68//53 9//54
f 68//53 67//48 9//54
f 63//12 58//51 64//12
f 70//12 69//12 1//11
f 64//12 72//53 65//48
f 69//12 9//54 1//11
f 1//11 10//18 66//12
f 7//15 8//55 81//13
f 81//13 80//56 79//14
f 1//11 9//54 101//16
f 9//54 103//57 102//58
f 101//16 9//54 102//58
f 82//16 4//33 92//59
f 4//33 1//11 94//16
f 82//16 92//59 91//16
f 8//55 7//15 82//16
f 84//17 83//60 85//16
f 83//60 8//55 82//16
f 85//16 83//60 82//16
f 85//16 82//16 91//16
f 1//11 101//16 100//16
f 1//11 100//16 99//16
f 92//59 4//33 93//16
f 88//61 87//62 86//16
f 86//16 85//16 91//16
f 1//11 99//16 98//16
f 97//16 96//17 95//17
f 1//11 98//16 97//16
f 89//59 88//61 86//16
f 91//16 90//16 86//16
f 90//16 89//59 86//16
f 94//16 93//16 4//33
f 1//11 97//16 94//16
