# Blender v2.81 (sub 16) OBJ File: ''
# www.blender.org
mtllib Equatorial Guinea.mtl
o 0_Equatorial_Guinea_sphere.001
v 4.909009 0.157051 -0.936439
v 4.910623 0.087388 -0.936746
v 4.907772 0.189107 -0.936202
v 4.925113 0.157051 -0.844164
v 4.899617 0.157051 -0.981789
v 4.913810 0.087442 -0.918479
v 4.917886 0.087517 -0.895114
v 4.919934 0.087557 -0.883369
v 4.922188 0.087595 -0.870449
v 4.922933 0.087044 -0.866257
v 4.923490 0.084378 -0.863430
v 4.924105 0.083764 -0.859990
v 4.924747 0.086043 -0.856002
v 4.925569 0.087134 -0.851142
v 4.925743 0.089485 -0.849821
v 4.926064 0.093763 -0.847392
v 4.926893 0.094224 -0.842581
v 4.927326 0.093763 -0.840165
v 4.927988 0.091319 -0.836708
v 4.928697 0.090036 -0.832820
v 4.928524 0.091997 -0.833547
v 4.929744 0.097263 -0.825828
v 4.930701 0.097775 -0.820278
v 4.931554 0.099400 -0.815166
v 4.930511 0.113105 -0.819259
v 4.929328 0.125225 -0.824376
v 4.927765 0.134378 -0.832078
v 4.926996 0.136583 -0.836179
v 4.926659 0.141124 -0.837489
v 4.925243 0.156051 -0.843553
v 4.902524 0.189092 -0.961549
v 4.898419 0.189081 -0.981371
v 4.899171 0.168892 -0.981650
v 4.901148 0.087222 -0.982516
v 4.904770 0.087284 -0.965016
v 4.909578 0.087370 -0.941793
v 4.899729 0.151822 -0.981854
v 4.900134 0.133344 -0.982048
v 4.900558 0.114085 -0.982243
v 4.900916 0.097783 -0.982411
v 4.923467 0.168156 -0.851061
v 4.923403 0.180428 -0.848624
v 4.922289 0.201027 -0.850296
v 4.921930 0.200447 -0.852491
v 4.921943 0.198502 -0.852859
v 4.921958 0.195615 -0.853432
v 4.921558 0.193078 -0.856303
v 4.920066 0.189109 -0.865758
v 4.915161 0.189108 -0.893867
v 4.912232 0.189103 -0.910646
v 4.907905 0.189108 -0.935441
vn 0.9843 0.0392 -0.1718
vn 0.9848 0.0231 -0.1718
vn 0.9848 0.0236 -0.1719
vn 0.9848 0.0237 -0.1718
vn 0.9785 0.0392 -0.2026
vn 0.9818 0.0314 -0.1873
vn 0.9789 0.0236 -0.2027
vn 0.9847 0.0286 -0.1719
vn 0.9815 0.0392 -0.1870
vn 0.9844 0.0392 -0.1716
vn 0.9843 0.0393 -0.1717
vn 0.9843 0.0392 -0.1717
vn 0.9843 0.0393 -0.1716
vn 0.9848 0.0236 -0.1718
vn 0.9848 0.0237 -0.1719
vn 0.9848 0.0235 -0.1718
vn 0.9848 0.0234 -0.1718
vn 0.9848 0.0236 -0.1720
vn 0.9848 0.0237 -0.1720
vn 0.9820 0.0236 -0.1873
vn 0.9848 0.0242 -0.1719
vn 0.9787 0.0313 -0.2027
vn 0.9789 0.0235 -0.2027
usemtl None
s 1
f 48//1 47//1 42//1
f 10//2 16//3 13//4
f 33//5 31//5 1//6
f 1//6 36//7 39//7
f 4//8 1//6 41//1
f 1//6 3//9 51//10
f 50//1 1//6 51//10
f 50//1 49//1 1//6
f 49//1 48//1 41//1
f 41//1 1//6 49//1
f 43//11 42//1 46//12
f 42//1 41//1 48//1
f 43//11 46//12 45//12
f 44//13 43//11 45//12
f 46//12 42//1 47//1
f 1//6 4//8 7//14
f 4//8 30//15 8//16
f 7//14 4//8 8//16
f 30//15 29//14 8//16
f 29//14 28//3 9//17
f 28//3 27//3 17//14
f 27//3 26//14 17//14
f 26//14 25//3 18//14
f 25//3 24//14 23//16
f 22//3 25//3 23//16
f 21//15 20//18 19//19
f 25//3 22//3 18//14
f 26//14 18//14 17//14
f 22//3 21//15 18//14
f 21//15 19//19 18//14
f 28//3 17//14 16//3
f 29//14 9//17 8//16
f 9//17 28//3 16//3
f 6//3 2//20 1//6
f 7//14 6//3 1//6
f 12//21 11//4 13//4
f 11//4 10//2 13//4
f 10//2 9//17 16//3
f 15//15 14//16 13//4
f 16//3 15//15 13//4
f 1//6 5//22 33//5
f 33//5 32//5 31//5
f 31//5 3//9 1//6
f 1//6 2//20 36//7
f 36//7 35//7 39//7
f 35//7 34//7 40//7
f 39//7 35//7 40//7
f 39//7 38//7 1//6
f 38//7 37//23 1//6
f 37//23 5//22 1//6
o 1_Equatorial_Guinea_sphere.001
v 4.933283 0.313950 -0.748385
v 4.929586 0.313950 -0.774361
v 4.932190 0.296543 -0.762861
v 4.932996 0.288197 -0.760454
v 4.934111 0.281137 -0.755380
v 4.934775 0.280562 -0.750934
v 4.936729 0.284700 -0.735588
v 4.936962 0.287213 -0.732976
v 4.936908 0.290603 -0.732031
v 4.936264 0.298487 -0.733475
v 4.935974 0.300899 -0.734573
v 4.934848 0.302389 -0.741899
v 4.934441 0.303678 -0.744260
v 4.933418 0.312181 -0.748121
v 4.930695 0.327369 -0.759828
v 4.928834 0.327716 -0.772728
v 4.928658 0.323116 -0.776275
v 4.929190 0.316344 -0.775942
v 4.932721 0.319922 -0.749330
v 4.931845 0.325763 -0.752557
v 4.930974 0.327713 -0.757695
vn 0.9885 0.0548 -0.1407
vn 0.9885 0.0550 -0.1407
vn 0.9875 0.0706 -0.1405
vn 0.9875 0.0706 -0.1406
vn 0.9875 0.0704 -0.1405
vn 0.9879 0.0657 -0.1405
vn 0.9881 0.0618 -0.1406
vn 0.9885 0.0549 -0.1407
vn 0.9885 0.0551 -0.1407
vn 0.9885 0.0551 -0.1406
vn 0.9885 0.0551 -0.1408
vn 0.9875 0.0706 -0.1404
vn 0.9875 0.0708 -0.1404
vn 0.9876 0.0702 -0.1406
usemtl None
s 1
f 63//24 60//25 58//25
f 66//26 71//27 70//28
f 53//29 52//30 65//31
f 53//29 65//31 54//31
f 65//31 64//31 54//31
f 56//32 55//31 57//31
f 55//31 54//31 64//31
f 57//31 55//31 64//31
f 63//24 62//33 61//24
f 64//31 63//24 57//31
f 59//34 58//25 60//25
f 58//25 57//31 63//24
f 61//24 60//25 63//24
f 52//30 53//29 66//26
f 53//29 69//35 67//26
f 52//30 66//26 70//28
f 69//35 68//36 67//26
f 66//26 72//37 71//27
f 67//26 66//26 53//29
