# Blender v2.81 (sub 16) OBJ File: ''
# www.blender.org
mtllib Estonia.mtl
o 0_Estonia_sphere.001
v 2.424180 4.263200 -0.973446
v 2.421679 4.263200 -0.979484
v 2.419645 4.263200 -0.984395
v 2.400313 4.263200 -1.031065
v 2.400676 4.262400 -1.033543
v 2.402353 4.260900 -1.035778
v 2.406867 4.260162 -1.027972
v 2.410208 4.258423 -1.027194
v 2.412844 4.257197 -1.025965
v 2.414413 4.256794 -1.023864
v 2.419666 4.254362 -1.021372
v 2.425399 4.252004 -1.017411
v 2.427922 4.250615 -1.017140
v 2.431621 4.250870 -1.007140
v 2.435159 4.249987 -1.002297
v 2.440830 4.247378 -0.999538
v 2.449013 4.242363 -1.000788
v 2.456150 4.238449 -0.999963
v 2.459594 4.237038 -0.997557
v 2.461308 4.236832 -0.994279
v 2.459440 4.238312 -0.992589
v 2.457123 4.239782 -0.992025
v 2.445958 4.245307 -0.995832
v 2.442675 4.247105 -0.996228
v 2.442944 4.247912 -0.992196
v 2.441302 4.249845 -0.988063
v 2.440573 4.252135 -0.980228
v 2.438354 4.253954 -0.977965
v 2.437508 4.254093 -0.979427
v 2.436171 4.254596 -0.980545
v 2.433185 4.256125 -0.981346
v 2.430283 4.257855 -0.981107
v 2.424767 4.262992 -0.972899
v 2.422320 4.262066 -0.982686
v 2.403557 4.267432 -1.004872
v 2.401909 4.267766 -1.007398
v 2.399565 4.268544 -1.009682
v 2.398131 4.267843 -1.016183
v 2.422523 4.263752 -0.975050
v 2.421466 4.263563 -0.978422
v 2.418229 4.263774 -0.985319
v 2.417182 4.264036 -0.986712
v 2.417086 4.263409 -0.989667
v 2.410946 4.266703 -0.990195
v 2.406752 4.267777 -0.995659
v 2.403932 4.268794 -0.998056
v 2.403136 4.268514 -1.001191
vn 0.4889 0.8485 -0.2026
vn 0.4889 0.8485 -0.2024
vn 0.4889 0.8485 -0.2025
vn 0.4864 0.8501 -0.2015
vn 0.4765 0.8567 -0.1974
vn 0.4767 0.8566 -0.1975
vn 0.4863 0.8503 -0.2013
vn 0.4766 0.8566 -0.1974
vn 0.4871 0.8497 -0.2018
vn 0.4889 0.8484 -0.2026
vn 0.4891 0.8484 -0.2026
vn 0.4890 0.8484 -0.2025
vn 0.4890 0.8484 -0.2026
vn 0.4890 0.8484 -0.2027
vn 0.4888 0.8484 -0.2031
vn 0.4891 0.8484 -0.2023
vn 0.4889 0.8484 -0.2025
vn 0.4889 0.8484 -0.2027
vn 0.4888 0.8484 -0.2030
vn 0.4889 0.8485 -0.2023
vn 0.4890 0.8485 -0.2024
vn 0.4764 0.8567 -0.1974
vn 0.4767 0.8565 -0.1976
vn 0.4769 0.8565 -0.1974
vn 0.4764 0.8568 -0.1972
vn 0.4765 0.8567 -0.1973
vn 0.4766 0.8567 -0.1973
vn 0.4761 0.8570 -0.1969
usemtl None
s 1
f 24//1 23//2 16//3
f 4//4 35//5 43//6
f 2//7 39//8 1//9
f 2//7 1//9 32//10
f 1//9 33//11 32//10
f 4//4 3//7 7//3
f 3//7 34//2 15//12
f 7//3 3//7 10//10
f 34//2 2//7 32//10
f 34//2 32//10 15//12
f 32//10 31//13 15//12
f 5//10 4//4 7//3
f 7//3 6//14 5//10
f 9//15 8//16 10//10
f 8//16 7//3 10//10
f 12//3 11//3 3//7
f 11//3 10//10 3//7
f 12//3 3//7 14//17
f 14//17 13//1 12//3
f 14//17 3//7 15//12
f 31//13 30//12 26//1
f 15//12 31//13 26//1
f 29//18 28//19 27//10
f 30//12 29//18 27//10
f 18//3 17//3 22//3
f 17//3 16//3 23//2
f 26//1 30//12 27//10
f 19//12 18//3 22//3
f 17//3 23//2 22//3
f 16//3 15//12 25//10
f 26//1 25//10 15//12
f 25//10 24//1 16//3
f 22//3 21//20 19//12
f 21//20 20//21 19//12
f 4//4 38//5 36//22
f 38//5 37//23 36//22
f 42//24 41//25 43//6
f 41//25 3//7 43//6
f 45//26 44//26 43//6
f 4//4 36//22 35//5
f 35//5 47//26 45//26
f 47//26 46//27 45//26
f 45//26 43//6 35//5
f 43//6 3//7 4//4
f 2//7 40//28 39//8
o 1_Estonia_sphere.001
v 2.397396 4.264950 -1.030513
v 2.395996 4.268110 -1.020180
v 2.391868 4.270293 -1.020673
v 2.389569 4.271156 -1.022475
v 2.388636 4.269864 -1.030338
v 2.393236 4.266578 -1.033491
v 2.395176 4.265453 -1.033691
vn 0.4766 0.8567 -0.1974
vn 0.4766 0.8566 -0.1975
vn 0.4766 0.8567 -0.1973
vn 0.4765 0.8567 -0.1975
usemtl None
s 1
f 48//29 54//30 53//30
f 53//30 52//31 48//29
f 52//31 51//32 48//29
f 51//32 50//32 48//29
f 50//32 49//31 48//29
o 2_Estonia_sphere.001
v 2.388449 4.275564 -1.006053
v 2.387944 4.276446 -1.003445
v 2.386753 4.277511 -1.001698
v 2.396304 4.272474 -1.000498
v 2.399701 4.271610 -0.996048
v 2.399410 4.272585 -0.992516
v 2.396390 4.274480 -0.991586
v 2.390003 4.279407 -0.985623
v 2.389556 4.280864 -0.980380
v 2.391829 4.281016 -0.974231
v 2.390525 4.283049 -0.968559
v 2.381440 4.284407 -0.984600
v 2.377120 4.286754 -0.984843
v 2.371902 4.289227 -0.986705
v 2.370456 4.289476 -0.989118
v 2.370394 4.288925 -0.991658
v 2.373158 4.287007 -0.993307
v 2.374091 4.286249 -0.994346
v 2.372540 4.285191 -1.002679
v 2.376192 4.281994 -1.007739
v 2.381631 4.278131 -1.011374
v 2.383614 4.277796 -1.008039
vn 0.4766 0.8567 -0.1974
vn 0.4765 0.8567 -0.1974
vn 0.4765 0.8567 -0.1975
vn 0.4765 0.8567 -0.1973
vn 0.4766 0.8566 -0.1975
vn 0.4765 0.8567 -0.1971
vn 0.4763 0.8568 -0.1976
vn 0.4764 0.8567 -0.1975
vn 0.4766 0.8567 -0.1973
vn 0.4766 0.8566 -0.1974
vn 0.4765 0.8567 -0.1977
usemtl None
s 1
f 62//33 61//34 57//35
f 75//33 74//35 76//34
f 74//35 73//35 57//35
f 76//34 74//35 57//35
f 73//35 72//36 57//35
f 56//37 55//38 76//34
f 71//36 70//39 69//40
f 56//37 76//34 57//35
f 72//36 71//36 67//36
f 71//36 69//40 68//33
f 67//36 71//36 68//33
f 66//41 65//33 63//33
f 65//33 64//42 63//33
f 67//36 66//41 72//36
f 57//35 72//36 66//41
f 59//42 58//41 61//34
f 58//41 57//35 61//34
f 60//43 59//42 61//34
f 57//35 66//41 62//33
f 66//41 63//33 62//33
o 3_Estonia_sphere.001
v 2.267800 4.303710 -1.155496
v 2.327751 4.263200 -1.186043
v 2.387130 4.221639 -1.216298
v 2.302976 4.303710 -1.083693
v 2.363857 4.263200 -1.112341
v 2.320669 4.303710 -1.044506
v 2.401624 4.221639 -1.186710
v 2.389850 4.221639 -1.210744
v 2.387403 4.221639 -1.215740
v 2.316916 4.263200 -1.206508
v 2.396294 4.240843 -1.127605
v 2.294634 4.309065 -1.079767
v 2.379061 4.221639 -1.231536
v 2.264398 4.305928 -1.153763
v 2.392144 4.263200 -1.049692
v 2.387519 4.221357 -1.216496
v 2.244243 4.303710 -1.199987
v 2.387221 4.222064 -1.214563
v 2.388659 4.222010 -1.211825
v 2.399315 4.224391 -1.181394
v 2.394937 4.230062 -1.169667
v 2.393308 4.231409 -1.168081
v 2.392236 4.232495 -1.166314
v 2.394204 4.233927 -1.157077
v 2.392683 4.236007 -1.152601
v 2.393467 4.236325 -1.149841
v 2.393741 4.237386 -1.145416
v 2.391934 4.241885 -1.132709
v 2.392461 4.242327 -1.130021
v 2.393829 4.241581 -1.129949
v 2.395258 4.240538 -1.130832
v 2.396444 4.239920 -1.130663
v 2.397008 4.239948 -1.129410
v 2.313152 4.306776 -1.048332
v 2.310594 4.306039 -1.057077
v 2.300627 4.308988 -1.066818
v 2.245721 4.302444 -1.201686
v 2.247333 4.301669 -1.201393
v 2.249658 4.301032 -1.199266
v 2.250990 4.300341 -1.199201
v 2.253333 4.299162 -1.198960
v 2.255287 4.298945 -1.196038
v 2.257428 4.298063 -1.195125
v 2.264048 4.294238 -1.196199
v 2.275278 4.287906 -1.197464
v 2.285184 4.283107 -1.195786
v 2.291341 4.280484 -1.193468
v 2.295352 4.278459 -1.193079
v 2.299582 4.276023 -1.193735
v 2.303313 4.273594 -1.195311
v 2.395679 4.241591 -1.126052
v 2.394844 4.243006 -1.122392
v 2.402643 4.240250 -1.115856
v 2.405107 4.239504 -1.113304
v 2.406560 4.239334 -1.110750
v 2.417855 4.235728 -1.099782
v 2.422539 4.233782 -1.096990
v 2.422970 4.234006 -1.095162
v 2.420185 4.235790 -1.094380
v 2.404435 4.244858 -1.093934
v 2.393484 4.252056 -1.090144
v 2.391128 4.253048 -1.091498
v 2.389402 4.254049 -1.091421
v 2.386469 4.256330 -1.089031
v 2.386909 4.257794 -1.082347
v 2.388264 4.257577 -1.080194
v 2.392809 4.255109 -1.079744
v 2.396374 4.253334 -1.078764
v 2.400205 4.252276 -1.074401
v 2.399429 4.254145 -1.068841
v 2.400284 4.256691 -1.057024
v 2.396526 4.260038 -1.052307
v 2.382734 4.219199 -1.232676
v 2.384235 4.218143 -1.233335
v 2.384964 4.218015 -1.232380
v 2.387139 4.218659 -1.226142
v 2.387772 4.220642 -1.218384
v 2.391656 4.221045 -1.209149
v 2.401438 4.218248 -1.199026
v 2.402003 4.218889 -1.195617
v 2.401704 4.221542 -1.186890
v 2.257548 4.305849 -1.166991
v 2.248476 4.304214 -1.190137
v 2.242521 4.306639 -1.192465
v 2.241329 4.307278 -1.192365
v 2.242306 4.305907 -1.195562
v 2.279505 4.313595 -1.092925
v 2.275604 4.313882 -1.099764
v 2.268092 4.310355 -1.128898
v 2.264867 4.310375 -1.135402
v 2.265895 4.306832 -1.147168
v 2.264916 4.305912 -1.152768
v 2.290035 4.308969 -1.089528
v 2.285938 4.310640 -1.091357
v 2.283587 4.312320 -1.089579
v 2.280759 4.314118 -1.088318
v 2.391895 4.263373 -1.049548
v 2.389433 4.266577 -1.042070
v 2.384761 4.270304 -1.037377
v 2.380402 4.272905 -1.036533
v 2.375684 4.274574 -1.040247
v 2.372820 4.276049 -1.040638
v 2.375836 4.275867 -1.034693
v 2.375859 4.276218 -1.033224
v 2.373924 4.277566 -1.032066
v 2.368199 4.282119 -1.026374
v 2.364409 4.283905 -1.027560
v 2.361305 4.285634 -1.027459
v 2.359900 4.287129 -1.024536
v 2.357097 4.288819 -1.023921
v 2.353817 4.290527 -1.024295
v 2.348185 4.294499 -1.020740
v 2.342365 4.296556 -1.025328
v 2.337566 4.297999 -1.030131
v 2.330936 4.298733 -1.041852
v 2.325998 4.302349 -1.038200
v 2.323542 4.302497 -1.043038
v 2.320813 4.260102 -1.209761
v 2.324387 4.257609 -1.211555
v 2.328542 4.255057 -1.212450
v 2.332602 4.252467 -1.213657
v 2.335499 4.250211 -1.215914
v 2.339503 4.246357 -1.221556
v 2.346074 4.240621 -1.228802
v 2.350634 4.236960 -1.232730
v 2.351508 4.235605 -1.235725
v 2.351885 4.234621 -1.238384
v 2.352551 4.234004 -1.239238
v 2.353507 4.233354 -1.239662
v 2.355043 4.232639 -1.239209
v 2.362348 4.230726 -1.231966
v 2.365245 4.229105 -1.232049
v 2.368332 4.227285 -1.232455
v 2.374117 4.224631 -1.230624
v 2.378309 4.222120 -1.231309
vn 0.4511 0.8647 -0.2210
vn 0.4510 0.8647 -0.2210
vn 0.4536 0.8607 -0.2311
vn 0.4728 0.8526 -0.2225
vn 0.4656 0.8526 -0.2372
vn 0.4753 0.8484 -0.2328
vn 0.4754 0.8484 -0.2328
vn 0.4752 0.8484 -0.2329
vn 0.4578 0.8647 -0.2067
vn 0.4672 0.8586 -0.2109
vn 0.4701 0.8567 -0.2122
vn 0.4701 0.8567 -0.2123
vn 0.4559 0.8567 -0.2414
vn 0.4823 0.8485 -0.2178
vn 0.4823 0.8485 -0.2177
vn 0.4823 0.8484 -0.2178
vn 0.4731 0.8446 -0.2505
vn 0.4776 0.8442 -0.2432
vn 0.4794 0.8402 -0.2536
vn 0.4872 0.8401 -0.2386
vn 0.4874 0.8399 -0.2387
vn 0.4870 0.8401 -0.2387
vn 0.4783 0.8464 -0.2341
vn 0.4814 0.8403 -0.2492
vn 0.4440 0.8646 -0.2351
vn 0.4439 0.8647 -0.2350
vn 0.4677 0.8485 -0.2477
vn 0.4677 0.8485 -0.2476
vn 0.4606 0.8607 -0.2167
vn 0.4475 0.8648 -0.2278
vn 0.4511 0.8647 -0.2207
vn 0.4544 0.8647 -0.2138
vn 0.4512 0.8647 -0.2208
vn 0.4511 0.8647 -0.2208
vn 0.4511 0.8647 -0.2211
vn 0.4767 0.8485 -0.2297
vn 0.4753 0.8484 -0.2329
vn 0.4752 0.8485 -0.2328
vn 0.4752 0.8484 -0.2331
vn 0.4753 0.8485 -0.2325
vn 0.4790 0.8459 -0.2345
vn 0.4770 0.8472 -0.2338
vn 0.4753 0.8485 -0.2328
vn 0.4754 0.8486 -0.2322
vn 0.4751 0.8485 -0.2328
vn 0.4754 0.8483 -0.2331
vn 0.4760 0.8528 -0.2147
vn 0.4702 0.8567 -0.2121
vn 0.4701 0.8567 -0.2124
vn 0.4701 0.8567 -0.2121
vn 0.4701 0.8566 -0.2125
vn 0.4701 0.8567 -0.2120
vn 0.4702 0.8567 -0.2122
vn 0.4700 0.8567 -0.2125
vn 0.4624 0.8521 -0.2449
vn 0.4559 0.8567 -0.2412
vn 0.4559 0.8567 -0.2413
vn 0.4559 0.8566 -0.2414
vn 0.4518 0.8594 -0.2392
vn 0.4559 0.8566 -0.2416
vn 0.4557 0.8567 -0.2417
vn 0.4559 0.8563 -0.2424
vn 0.4558 0.8567 -0.2413
vn 0.4823 0.8484 -0.2177
vn 0.4822 0.8485 -0.2177
vn 0.4824 0.8484 -0.2177
vn 0.4822 0.8485 -0.2178
vn 0.4821 0.8483 -0.2191
vn 0.4825 0.8484 -0.2175
vn 0.4823 0.8485 -0.2179
vn 0.4794 0.8400 -0.2539
vn 0.4795 0.8400 -0.2539
vn 0.4795 0.8401 -0.2536
vn 0.4796 0.8401 -0.2534
vn 0.4887 0.8395 -0.2376
vn 0.4438 0.8648 -0.2349
vn 0.4439 0.8647 -0.2351
vn 0.4678 0.8484 -0.2478
vn 0.4677 0.8483 -0.2481
vn 0.4676 0.8484 -0.2478
vn 0.4677 0.8484 -0.2477
vn 0.4675 0.8482 -0.2488
vn 0.4679 0.8483 -0.2477
vn 0.4677 0.8484 -0.2476
vn 0.4677 0.8485 -0.2475
usemtl None
s 1
f 165//44 164//45 170//44
f 77//46 81//47 78//48
f 99//49 98//50 95//51
f 111//52 110//52 82//53
f 183//54 181//55 178//54
f 122//56 121//56 77//46
f 138//57 136//58 129//59
f 89//60 79//61 153//62
f 156//63 155//64 154//65
f 85//66 92//67 79//61
f 159//68 158//69 77//46
f 207//70 199//71 79//61
f 80//72 77//46 165//44
f 77//46 90//73 168//74
f 77//46 168//74 167//44
f 80//72 165//44 169//44
f 169//44 88//75 80//72
f 172//76 171//77 163//78
f 171//77 170//44 163//78
f 170//44 169//44 165//44
f 77//46 167//44 165//44
f 167//44 166//44 165//44
f 164//45 163//78 170//44
f 77//46 80//72 81//47
f 85//66 79//61 94//51
f 79//61 78//48 94//51
f 81//47 87//79 105//80
f 87//79 109//81 107//81
f 106//82 87//79 107//81
f 109//81 108//83 107//81
f 78//48 81//47 101//81
f 94//51 78//48 95//51
f 95//51 78//48 99//49
f 87//79 106//82 105//80
f 99//49 78//48 101//81
f 83//84 84//85 96//86
f 84//85 95//51 96//86
f 98//50 97//87 96//86
f 81//47 105//80 104//81
f 104//81 103//88 101//81
f 103//88 102//89 101//81
f 101//81 100//80 99//49
f 81//47 104//81 101//81
f 98//50 96//86 95//51
f 82//53 80//72 111//52
f 80//72 88//75 112//52
f 111//52 80//72 112//52
f 91//90 81//47 173//91
f 81//47 80//72 191//55
f 173//91 81//47 178//54
f 80//72 82//53 191//55
f 82//53 193//92 191//55
f 193//92 192//93 191//55
f 191//55 190//54 187//55
f 190//54 189//94 187//55
f 189//94 188//92 187//55
f 187//55 186//91 184//54
f 186//91 185//95 184//54
f 178//54 81//47 191//55
f 175//55 174//55 177//96
f 174//55 173//91 177//96
f 177//96 176//55 175//55
f 180//97 179//54 181//55
f 179//54 178//54 181//55
f 178//54 177//96 173//91
f 191//55 187//55 184//54
f 183//54 182//55 181//55
f 191//55 184//54 178//54
f 184//54 183//54 178//54
f 78//48 86//98 126//99
f 78//48 126//99 125//100
f 113//101 93//102 114//103
f 93//102 77//46 118//56
f 115//100 93//102 118//56
f 115//100 114//103 93//102
f 117//104 116//105 118//56
f 116//105 115//100 118//56
f 77//46 78//48 125//100
f 77//46 125//100 124//56
f 121//56 120//56 77//46
f 120//56 119//106 77//46
f 119//106 118//56 77//46
f 77//46 124//56 123//106
f 123//106 122//56 77//46
f 81//47 91//90 141//57
f 91//90 148//107 146//58
f 141//57 91//90 142//108
f 148//107 147//58 146//58
f 146//58 145//109 144//59
f 144//59 143//58 146//58
f 143//58 142//108 146//58
f 127//110 87//79 81//47
f 130//111 129//59 131//59
f 129//59 128//59 138//57
f 138//57 128//59 139//58
f 128//59 127//110 81//47
f 146//58 142//108 91//90
f 128//59 81//47 139//58
f 131//59 129//59 136//58
f 81//47 141//57 140//58
f 132//57 131//59 136//58
f 134//112 133//109 135//59
f 133//109 132//57 135//59
f 136//58 135//59 132//57
f 138//57 137//113 136//58
f 81//47 140//58 139//58
f 79//61 92//67 153//62
f 153//62 152//114 89//60
f 152//114 151//115 149//116
f 151//115 150//117 149//116
f 149//116 89//60 152//114
f 84//85 83//84 154//65
f 83//84 157//118 156//63
f 154//65 83//84 156//63
f 93//102 162//69 159//68
f 162//69 161//119 160//120
f 162//69 160//120 159//68
f 90//73 77//46 158//69
f 77//46 93//102 159//68
f 79//61 89//60 211//121
f 210//70 209//122 208//123
f 79//61 211//121 210//70
f 86//98 78//48 194//71
f 78//48 79//61 198//71
f 197//71 78//48 198//71
f 195//71 194//71 78//48
f 196//71 195//71 78//48
f 78//48 197//71 196//71
f 79//61 210//70 208//123
f 208//123 207//70 79//61
f 207//70 206//124 202//71
f 206//124 205//125 204//126
f 202//71 206//124 203//127
f 204//126 203//127 206//124
f 201//127 200//128 207//70
f 200//128 199//71 207//70
f 207//70 202//71 201//127
f 199//71 198//71 79//61
