# Blender v2.81 (sub 16) OBJ File: ''
# www.blender.org
mtllib Faroe Islands.mtl
o 0_Faroe_Islands_sphere.001
v 2.376031 4.390306 0.278265
v 2.375648 4.390456 0.279201
v 2.372691 4.391895 0.281687
v 2.365821 4.395337 0.285799
v 2.360418 4.398172 0.286867
v 2.357988 4.399478 0.286806
v 2.358436 4.399307 0.285651
v 2.360680 4.398147 0.284908
v 2.362587 4.397387 0.280470
v 2.363804 4.396799 0.279386
v 2.366408 4.395383 0.279710
v 2.369684 4.393696 0.278523
v 2.373612 4.391572 0.278813
vn 0.4721 0.8800 0.0522
vn 0.4721 0.8800 0.0520
vn 0.4721 0.8800 0.0521
vn 0.4721 0.8800 0.0523
vn 0.4720 0.8800 0.0521
vn 0.4720 0.8801 0.0510
vn 0.4720 0.8800 0.0520
vn 0.4720 0.8801 0.0520
vn 0.4719 0.8801 0.0520
vn 0.4721 0.8800 0.0519
usemtl None
s 1
f 3//1 2//2 13//3
f 13//3 12//4 3//1
f 12//4 11//5 3//1
f 11//5 10//6 9//7
f 8//3 7//8 5//7
f 7//8 6//9 5//7
f 11//5 9//7 4//1
f 9//7 8//3 4//1
f 2//2 1//10 13//3
f 5//7 4//1 8//3
f 4//1 3//1 11//5
o 1_Faroe_Islands_sphere.001
v 2.349189 4.404981 0.273587
v 2.349019 4.405006 0.274706
v 2.345017 4.406950 0.278144
v 2.342737 4.408004 0.280978
v 2.340962 4.408908 0.281793
v 2.338050 4.410439 0.282305
v 2.337924 4.410614 0.280509
v 2.338788 4.410269 0.278502
v 2.341984 4.408848 0.273552
v 2.344826 4.407393 0.272375
v 2.346424 4.406531 0.272452
vn 0.4720 0.8801 0.0518
vn 0.4720 0.8800 0.0519
vn 0.4720 0.8801 0.0519
vn 0.4720 0.8801 0.0520
vn 0.4720 0.8800 0.0520
vn 0.4719 0.8800 0.0524
vn 0.4721 0.8800 0.0520
vn 0.4719 0.8800 0.0529
usemtl None
s 1
f 15//11 14//12 24//13
f 24//13 23//14 16//15
f 23//14 22//12 16//15
f 22//12 21//15 16//15
f 21//15 20//16 18//17
f 20//16 19//18 18//17
f 18//17 17//17 21//15
f 17//17 16//15 21//15
f 16//15 15//11 24//13
o 2_Faroe_Islands_sphere.001
v 2.321204 4.418828 0.293242
v 2.321666 4.418828 0.289060
v 2.317923 4.420546 0.292827
v 2.320074 4.418828 0.301183
v 2.325646 4.416412 0.293803
v 2.316915 4.420404 0.301846
v 2.317513 4.420350 0.298392
v 2.317079 4.420882 0.294168
v 2.323904 4.417689 0.288025
v 2.325666 4.416605 0.290372
v 2.325882 4.416335 0.292977
v 2.318245 4.420408 0.292322
v 2.325015 4.416584 0.295984
v 2.322163 4.417746 0.300738
vn 0.4564 0.8874 0.0649
vn 0.4620 0.8844 0.0657
vn 0.4643 0.8837 0.0586
vn 0.4720 0.8800 0.0521
vn 0.4683 0.8820 0.0518
vn 0.4582 0.8874 0.0495
vn 0.4701 0.8800 0.0670
vn 0.4712 0.8800 0.0587
vn 0.4570 0.8874 0.0595
vn 0.4564 0.8874 0.0650
vn 0.4701 0.8800 0.0669
usemtl None
s 1
f 31//19 30//19 28//20
f 25//21 34//22 26//23
f 36//24 25//21 26//23
f 37//25 29//26 25//21
f 28//20 25//21 31//19
f 25//21 27//27 32//28
f 31//19 25//21 32//28
f 25//21 29//26 35//22
f 35//22 34//22 25//21
f 34//22 33//22 26//23
f 36//24 27//27 25//21
f 25//21 28//20 38//29
f 38//29 37//25 25//21
o 3_Faroe_Islands_sphere.001
v 2.322015 4.418828 0.285901
v 2.322826 4.418828 0.278556
v 2.323391 4.418828 0.273432
v 2.323651 4.418828 0.271080
v 2.324332 4.418455 0.271228
v 2.324089 4.418487 0.272870
v 2.323317 4.418562 0.278588
v 2.324605 4.417932 0.277579
v 2.331874 4.414194 0.274862
v 2.333909 4.413108 0.274766
v 2.334835 4.412578 0.275320
v 2.332450 4.413667 0.278528
v 2.322586 4.418531 0.285734
v 2.320882 4.420008 0.275469
v 2.320046 4.420318 0.277609
v 2.321481 4.419527 0.278484
v 2.307072 4.426293 0.290312
v 2.305768 4.427473 0.281422
v 2.310362 4.425430 0.275643
v 2.314102 4.423876 0.269021
vn 0.4719 0.8801 0.0520
vn 0.4655 0.8835 0.0515
vn 0.4720 0.8800 0.0521
vn 0.4721 0.8800 0.0521
vn 0.4646 0.8840 0.0513
vn 0.4620 0.8854 0.0509
vn 0.4582 0.8874 0.0506
vn 0.4636 0.8845 0.0511
vn 0.4582 0.8874 0.0505
vn 0.4720 0.8800 0.0522
vn 0.4720 0.8801 0.0521
vn 0.4714 0.8803 0.0522
vn 0.4583 0.8873 0.0505
usemtl None
s 1
f 45//30 40//31 51//32
f 44//33 42//34 41//35
f 57//36 39//37 53//38
f 40//31 39//37 51//32
f 51//32 50//39 46//40
f 50//39 49//33 48//39
f 47//39 50//39 48//39
f 47//39 46//40 50//39
f 46//40 45//30 51//32
f 44//33 43//41 42//34
f 41//35 42//34 52//38
f 42//34 58//36 52//38
f 57//36 56//38 39//37
f 56//38 55//38 39//37
f 58//36 57//36 53//38
f 52//38 58//36 53//38
f 39//37 40//31 54//42
f 39//37 54//42 53//38
o 4_Faroe_Islands_sphere.001
v 2.318122 4.422188 0.262226
v 2.316895 4.422664 0.264989
v 2.316224 4.422969 0.265710
v 2.314710 4.423725 0.266162
v 2.310603 4.425890 0.265387
v 2.304625 4.429010 0.264805
v 2.309914 4.426435 0.262081
v 2.312770 4.425097 0.259668
vn 0.4582 0.8874 0.0506
vn 0.4583 0.8874 0.0506
vn 0.4582 0.8874 0.0505
vn 0.4582 0.8874 0.0503
usemtl None
s 1
f 66//43 65//44 63//43
f 65//44 64//45 63//43
f 63//43 62//45 66//43
f 62//45 61//46 60//45
f 66//43 62//45 60//45
f 60//45 59//45 66//43
