# Blender v2.81 (sub 16) OBJ File: ''
# www.blender.org
mtllib Gabon.mtl
o 0_Gabon_sphere.001
v 4.842316 0.078534 -1.243291
v 4.842316 -0.078539 -1.243291
v 4.840522 -0.157056 -1.242830
v 4.877172 0.157051 -1.090172
v 4.878979 0.078534 -1.090576
v 4.879582 -0.000003 -1.090710
v 4.878979 -0.078539 -1.090576
v 4.877172 -0.157056 -1.090172
v 4.910828 0.078534 -0.936786
v 4.911434 -0.000003 -0.936900
v 4.910828 -0.078539 -0.936786
v 4.909009 -0.157056 -0.936439
v 4.905981 -0.235535 -0.935861
v 4.937829 -0.078539 -0.782070
v 4.842172 0.084858 -1.243253
v 4.877080 -0.159454 -1.090152
v 4.933424 -0.000003 -0.810904
v 4.842404 0.066973 -1.243313
v 4.875617 0.197640 -1.089824
v 4.842583 -0.043477 -1.243359
v 4.892131 -0.235535 -1.002738
v 4.932163 -0.157056 -0.803766
v 4.938009 -0.055402 -0.782099
v 4.841620 0.078534 -1.245836
v 4.900215 -0.313955 -0.942428
v 4.891823 -0.313955 -0.982948
v 4.887473 -0.313955 -1.003957
v 4.883030 -0.313955 -1.025411
v 4.918657 -0.235535 -0.863232
v 4.937263 -0.102876 -0.781981
v 4.840466 -0.158535 -1.242816
v 4.865456 0.157051 -1.138974
v 4.853430 -0.000003 -1.199641
v 4.910623 0.087391 -0.936746
v 4.841744 -0.078539 -1.245382
v 4.902104 -0.307261 -0.935121
v 4.899622 0.157051 -0.981763
v 4.939819 -0.078539 -0.768092
v 4.928875 0.078534 -0.833379
v 4.840437 -0.157056 -1.243140
v 4.938197 -0.093495 -0.776986
v 4.938690 -0.089439 -0.774200
v 4.939255 -0.082555 -0.771386
v 4.939717 -0.079716 -0.768609
v 4.899175 0.168917 -0.981626
v 4.898420 0.189110 -0.981362
v 4.898001 0.194902 -0.982263
v 4.897673 0.197307 -0.983384
v 4.897629 0.200645 -0.982947
v 4.893898 0.200864 -1.000920
v 4.887223 0.199377 -1.033439
v 4.884271 0.199580 -1.047655
v 4.883446 0.199307 -1.051697
v 4.879733 0.200318 -1.069428
v 4.876802 0.199038 -1.083829
v 4.892271 -0.241590 -1.000420
v 4.892296 -0.247437 -0.998713
v 4.890421 -0.249063 -1.007326
v 4.889626 -0.251787 -1.010429
v 4.888761 -0.256136 -1.013423
v 4.887679 -0.260195 -1.017547
v 4.887489 -0.262646 -1.017801
v 4.888225 -0.267165 -1.013020
v 4.888261 -0.272730 -1.011336
v 4.887559 -0.277087 -1.013542
v 4.886097 -0.281631 -1.019372
v 4.884063 -0.286344 -1.027912
v 4.883030 -0.289424 -1.032063
v 4.882965 -0.292249 -1.031614
v 4.883462 -0.298281 -1.027577
v 4.883507 -0.303368 -1.025980
v 4.883821 -0.307970 -1.023213
v 4.883476 -0.312208 -1.023729
v 4.889082 -0.307410 -0.997961
v 4.889675 -0.307001 -0.995208
v 4.901066 -0.310582 -0.939229
v 4.841446 0.074100 -1.246604
v 4.841578 0.070815 -1.246220
v 4.841926 -0.084823 -1.244157
v 4.841350 -0.096325 -1.245232
v 4.840806 -0.107307 -1.246241
v 4.840011 -0.123307 -1.247716
v 4.839978 -0.133070 -1.246962
v 4.840864 -0.139026 -1.243192
v 4.840757 -0.143703 -1.243167
v 4.840163 -0.149333 -1.244834
v 4.933483 0.010116 -0.810102
v 4.933717 0.025187 -0.808071
v 4.932885 0.029994 -0.812617
v 4.932595 0.026820 -0.814423
v 4.932481 0.021468 -0.815324
v 4.932137 0.017502 -0.817475
v 4.931309 0.013952 -0.822385
v 4.929724 0.013007 -0.831506
v 4.927308 0.007425 -0.845608
v 4.926457 0.003871 -0.850643
v 4.926165 0.010971 -0.851994
v 4.923285 0.017027 -0.868220
v 4.924125 0.019200 -0.863304
v 4.926660 0.016809 -0.848893
v 4.930042 0.025837 -0.829100
v 4.931145 0.031594 -0.822515
v 4.932129 0.042484 -0.816380
v 4.933194 0.048188 -0.810021
v 4.933077 0.053314 -0.810453
v 4.930560 0.058028 -0.824658
v 4.929910 0.057491 -0.828410
v 4.929689 0.051863 -0.829928
v 4.929041 0.049555 -0.833749
v 4.928782 0.050322 -0.835201
v 4.928633 0.055132 -0.835832
v 4.928524 0.068028 -0.835870
v 4.865541 0.156067 -1.138717
v 4.866014 0.143814 -1.137989
v 4.865793 0.133955 -1.139903
v 4.865178 0.126936 -1.143174
v 4.864854 0.119268 -1.145299
v 4.865364 0.113922 -1.143713
v 4.866193 0.111638 -1.140493
v 4.865722 0.108950 -1.142724
v 4.864557 0.108303 -1.147642
v 4.862506 0.110638 -1.155949
v 4.859336 0.114724 -1.168739
v 4.855171 0.120627 -1.185494
v 4.852446 0.123808 -1.196522
v 4.848120 0.121813 -1.214744
v 4.845838 0.119570 -1.224478
v 4.844732 0.115412 -1.229502
v 4.843847 0.097812 -1.234967
v 4.843266 0.095139 -1.237658
v 4.842382 0.087652 -1.242093
v 4.853531 -0.007916 -1.198953
v 4.853772 -0.017732 -1.197620
v 4.852972 -0.021158 -1.200839
v 4.849462 -0.023563 -1.215379
v 4.848766 -0.025507 -1.218208
v 4.847797 -0.031575 -1.222043
v 4.846563 -0.037285 -1.226990
v 4.843338 -0.040884 -1.240301
v 4.840550 -0.164904 -1.241392
v 4.840964 -0.167536 -1.239225
v 4.842283 -0.170438 -1.233245
v 4.842875 -0.174620 -1.230075
v 4.842864 -0.181185 -1.229017
v 4.843293 -0.190177 -1.225719
v 4.843959 -0.193464 -1.222390
v 4.843801 -0.197645 -1.222347
v 4.842920 -0.200703 -1.225499
v 4.842755 -0.205378 -1.225400
v 4.843967 -0.210937 -1.219416
v 4.844666 -0.215203 -1.215788
v 4.846490 -0.217270 -1.207843
v 4.848752 -0.215073 -1.198790
v 4.849380 -0.211973 -1.196696
v 4.849036 -0.207145 -1.198942
v 4.849370 -0.203279 -1.198204
v 4.850274 -0.199225 -1.195117
v 4.851840 -0.188768 -1.190350
v 4.852955 -0.186562 -1.186080
v 4.853366 -0.190836 -1.183651
v 4.854835 -0.198781 -1.176195
v 4.857574 -0.208965 -1.163070
v 4.859730 -0.209783 -1.153953
v 4.863896 -0.206676 -1.137122
v 4.867475 -0.201815 -1.123037
v 4.869527 -0.189860 -1.116499
v 4.870904 -0.180008 -1.112419
v 4.872788 -0.168546 -1.106500
v 4.874624 -0.163106 -1.099769
v 4.876493 -0.159632 -1.092570
v 4.932326 -0.155241 -0.803084
v 4.932277 -0.150615 -0.804000
v 4.934194 -0.133298 -0.795392
v 4.936064 -0.120333 -0.786451
v 4.936455 -0.114208 -0.785052
v 4.931561 -0.142394 -0.809229
v 4.930984 -0.142880 -0.812468
v 4.930246 -0.142615 -0.816734
v 4.928564 -0.139453 -0.826804
v 4.928987 -0.135687 -0.824897
v 4.929871 -0.131650 -0.820385
v 4.930594 -0.133508 -0.815987
v 4.931583 -0.133892 -0.810268
v 4.932143 -0.132206 -0.807290
v 4.932447 -0.129300 -0.805948
v 4.931769 -0.115609 -0.811710
v 4.932184 -0.116299 -0.809237
v 4.932445 -0.118745 -0.807406
v 4.932966 -0.119904 -0.804262
v 4.933794 -0.120620 -0.799424
v 4.936052 -0.113286 -0.787489
v 4.905078 -0.296356 -0.921569
v 4.906473 -0.285898 -0.916925
v 4.911285 -0.262809 -0.896738
v 4.917653 -0.239734 -0.867642
v 4.941692 -0.051566 -0.756433
v 4.941010 -0.053654 -0.761108
v 4.940157 -0.061812 -0.766645
v 4.938632 -0.060101 -0.777459
v 4.938068 -0.055380 -0.781686
v 4.909580 0.087376 -0.941782
v 4.904773 0.087304 -0.965003
v 4.901154 0.087246 -0.982487
v 4.900922 0.097809 -0.982377
v 4.900563 0.114113 -0.982215
v 4.900139 0.133370 -0.982019
v 4.899734 0.151846 -0.981829
v 4.877249 -0.159395 -1.089346
v 4.879160 -0.165772 -1.078882
v 4.879707 -0.168292 -1.075755
v 4.879498 -0.173648 -1.075731
v 4.879106 -0.178639 -1.076654
v 4.878680 -0.181058 -1.078242
v 4.878276 -0.184260 -1.079574
v 4.878134 -0.189251 -1.079290
v 4.878268 -0.195909 -1.077355
v 4.878114 -0.203267 -1.076675
v 4.884593 -0.210465 -1.043992
v 4.885862 -0.207868 -1.038370
v 4.886837 -0.204556 -1.034301
v 4.887839 -0.205134 -1.029354
v 4.890622 -0.208906 -1.015184
v 4.891798 -0.206275 -1.010012
v 4.892941 -0.204359 -1.004864
v 4.893371 -0.205960 -1.002478
v 4.893294 -0.209110 -1.002241
v 4.892131 -0.226404 -1.004509
v 4.892035 -0.232994 -1.003699
v 4.882428 -0.316154 -1.027549
v 4.882273 -0.319683 -1.027068
v 4.882631 -0.322361 -1.024404
v 4.883778 -0.321800 -1.019059
v 4.884686 -0.322174 -1.014547
v 4.885604 -0.321085 -1.010494
v 4.892868 -0.317525 -0.976662
v 4.893519 -0.321853 -0.972006
v 4.893874 -0.328052 -0.968127
v 4.893998 -0.341487 -0.962841
v 4.896274 -0.333667 -0.954579
v 4.898766 -0.319357 -0.947538
v 4.841623 0.078666 -1.245812
v 4.841996 -0.045257 -1.245451
v 4.840824 -0.050036 -1.249594
v 4.840641 -0.053957 -1.250144
v 4.841345 -0.069706 -1.247102
v 4.862170 0.182506 -1.148379
v 4.864355 0.167567 -1.141792
v 4.874308 0.196896 -1.095400
v 4.870232 0.196026 -1.112526
v 4.864825 0.197132 -1.134859
v 4.863015 0.196873 -1.142444
v 4.862111 0.194063 -1.146681
v 4.861839 0.188600 -1.148731
v 4.842598 0.065949 -1.242540
v 4.843655 0.058805 -1.238381
v 4.844038 0.054477 -1.236930
v 4.844901 0.051269 -1.233444
v 4.845986 0.048101 -1.229027
v 4.848917 0.046833 -1.216864
v 4.849380 0.044950 -1.214999
v 4.850256 0.037336 -1.211604
v 4.851845 0.030886 -1.205203
v 4.852595 0.024792 -1.202283
v 4.853280 0.016663 -1.199703
v 4.853237 0.006581 -1.200225
v 4.929015 0.086514 -0.831482
v 4.928699 0.090063 -0.832804
v 4.927991 0.091346 -0.836684
v 4.927329 0.093792 -0.840142
v 4.926897 0.094252 -0.842555
v 4.926068 0.093792 -0.847370
v 4.925745 0.089514 -0.849804
v 4.925570 0.087163 -0.851127
v 4.924750 0.086072 -0.855980
v 4.924108 0.083792 -0.859969
v 4.923495 0.084407 -0.863397
v 4.922936 0.087074 -0.866234
v 4.922192 0.087623 -0.870423
v 4.919938 0.087584 -0.883346
v 4.917890 0.087540 -0.895086
v 4.913814 0.087455 -0.918451
v 4.937439 -0.055559 -0.785354
v 4.936794 -0.054475 -0.789102
v 4.936005 -0.050027 -0.793829
v 4.933753 -0.030646 -0.807620
v 4.933314 -0.005077 -0.811298
v 4.922191 -0.219703 -0.846596
v 4.922923 -0.215259 -0.843421
v 4.922278 -0.215803 -0.846987
v 4.918320 -0.225791 -0.867388
v 4.917876 -0.224675 -0.870187
v 4.917549 -0.222437 -0.872571
v 4.919295 -0.217200 -0.863760
v 4.920928 -0.213078 -0.855348
v 4.922411 -0.210506 -0.847435
v 4.923783 -0.210728 -0.839525
v 4.924723 -0.206497 -0.835107
v 4.925477 -0.200052 -0.832257
v 4.925946 -0.194541 -0.830829
v 4.926780 -0.188776 -0.827367
v 4.929202 -0.176898 -0.816201
v 4.929857 -0.172308 -0.813496
v 4.931172 -0.166032 -0.807395
v 4.930550 -0.165214 -0.811146
v 4.928216 -0.171200 -0.823156
v 4.928121 -0.168815 -0.824243
v 4.928435 -0.165299 -0.823244
v 4.930771 -0.159610 -0.811158
v 4.931933 -0.159237 -0.804589
vn 0.9721 0.0236 -0.2334
vn 0.9758 0.0157 -0.2181
vn 0.9723 -0.0079 -0.2334
vn 0.9758 -0.0157 -0.2181
vn 0.9684 -0.0157 -0.2486
vn 0.9754 -0.0314 -0.2180
vn 0.9680 -0.0314 -0.2488
vn 0.9785 0.0392 -0.2026
vn 0.9754 0.0314 -0.2180
vn 0.9789 0.0236 -0.2027
vn 0.9759 0.0000 -0.2181
vn 0.9821 0.0157 -0.1874
vn 0.9823 0.0000 -0.1874
vn 0.9821 -0.0157 -0.1874
vn 0.9818 -0.0314 -0.1873
vn 0.9848 0.0235 -0.1718
vn 0.9848 0.0237 -0.1718
vn 0.9850 0.0169 -0.1719
vn 0.9851 0.0079 -0.1719
vn 0.9851 0.0003 -0.1719
vn 0.9851 -0.0078 -0.1719
vn 0.9851 -0.0077 -0.1718
vn 0.9875 -0.0157 -0.1564
vn 0.9848 -0.0236 -0.1719
vn 0.9848 -0.0237 -0.1719
vn 0.9843 -0.0392 -0.1718
vn 0.9900 -0.0079 -0.1408
vn 0.9900 -0.0078 -0.1409
vn 0.9899 -0.0137 -0.1408
vn 0.9897 -0.0236 -0.1408
vn 0.9857 -0.0236 -0.1670
vn 0.9777 -0.0549 -0.2025
vn 0.9777 -0.0550 -0.2025
vn 0.9778 -0.0549 -0.2024
vn 0.9645 0.0079 -0.2638
vn 0.9644 0.0160 -0.2638
vn 0.9684 0.0157 -0.2486
vn 0.9642 -0.0236 -0.2640
vn 0.9716 -0.0394 -0.2333
vn 0.9716 -0.0392 -0.2333
vn 0.9716 -0.0391 -0.2333
vn 0.9812 -0.0471 -0.1872
vn 0.9836 -0.0549 -0.1717
vn 0.9836 -0.0549 -0.1716
vn 0.9785 -0.0392 -0.2026
vn 0.9768 -0.0706 -0.2023
vn 0.9768 -0.0707 -0.2022
vn 0.9768 -0.0705 -0.2023
vn 0.9768 -0.0705 -0.2022
vn 0.9768 -0.0704 -0.2023
vn 0.9770 -0.0666 -0.2023
vn 0.9642 0.0254 -0.2637
vn 0.9702 -0.0079 -0.2420
vn 0.9645 -0.0078 -0.2638
vn 0.9711 -0.0398 -0.2354
vn 0.9640 -0.0299 -0.2643
vn 0.9716 0.0392 -0.2333
vn 0.9723 0.0079 -0.2334
vn 0.9723 0.0080 -0.2334
vn 0.9712 0.0235 -0.2373
vn 0.9721 0.0236 -0.2333
vn 0.9721 0.0235 -0.2334
vn 0.9720 0.0234 -0.2336
vn 0.9721 0.0235 -0.2333
vn 0.9721 0.0238 -0.2333
vn 0.9718 0.0330 -0.2333
vn 0.9721 0.0238 -0.2334
vn 0.9723 -0.0080 -0.2334
vn 0.9724 -0.0079 -0.2334
vn 0.9722 -0.0080 -0.2338
vn 0.9724 0.0004 -0.2334
vn 0.9723 -0.0078 -0.2334
vn 0.9787 0.0314 -0.2027
vn 0.9755 0.0392 -0.2163
vn 0.9785 0.0390 -0.2025
vn 0.9785 0.0391 -0.2026
vn 0.9789 0.0235 -0.2027
vn 0.9820 0.0236 -0.1873
vn 0.9789 0.0237 -0.2027
vn 0.9789 0.0232 -0.2027
vn 0.9848 0.0236 -0.1718
vn 0.9848 0.0242 -0.1718
vn 0.9848 0.0234 -0.1718
vn 0.9848 0.0231 -0.1719
vn 0.9848 0.0235 -0.1719
vn 0.9848 0.0229 -0.1718
vn 0.9848 0.0233 -0.1718
vn 0.9851 0.0078 -0.1719
vn 0.9850 0.0079 -0.1719
vn 0.9850 0.0076 -0.1720
vn 0.9850 0.0078 -0.1720
vn 0.9850 0.0078 -0.1719
vn 0.9850 0.0079 -0.1720
vn 0.9851 0.0078 -0.1718
vn 0.9850 0.0077 -0.1720
vn 0.9851 0.0077 -0.1719
vn 0.9851 -0.0079 -0.1719
vn 0.9850 -0.0078 -0.1720
vn 0.9877 -0.0077 -0.1558
vn 0.9846 -0.0294 -0.1719
vn 0.9848 -0.0236 -0.1718
vn 0.9848 -0.0237 -0.1718
vn 0.9848 -0.0230 -0.1720
vn 0.9848 -0.0237 -0.1721
vn 0.9848 -0.0235 -0.1719
vn 0.9848 -0.0241 -0.1719
vn 0.9848 -0.0234 -0.1718
vn 0.9842 -0.0430 -0.1718
vn 0.9843 -0.0391 -0.1718
vn 0.9843 -0.0387 -0.1718
vn 0.9843 -0.0393 -0.1718
vn 0.9843 -0.0391 -0.1720
vn 0.9843 -0.0392 -0.1719
vn 0.9843 -0.0392 -0.1720
vn 0.9843 -0.0392 -0.1717
vn 0.9843 -0.0394 -0.1718
vn 0.9843 -0.0389 -0.1718
vn 0.9901 -0.0072 -0.1402
vn 0.9900 -0.0079 -0.1410
vn 0.9900 -0.0078 -0.1410
vn 0.9897 -0.0236 -0.1409
vn 0.9897 -0.0255 -0.1406
vn 0.9775 -0.0590 -0.2024
vn 0.9777 -0.0548 -0.2025
vn 0.9775 -0.0588 -0.2024
vn 0.9776 -0.0575 -0.2024
vn 0.9795 -0.0550 -0.1936
vn 0.9777 -0.0549 -0.2024
vn 0.9782 -0.0453 -0.2026
vn 0.9778 -0.0546 -0.2023
vn 0.9708 0.0079 -0.2397
vn 0.9645 0.0079 -0.2639
vn 0.9643 -0.0236 -0.2637
vn 0.9651 -0.0235 -0.2607
vn 0.9644 -0.0147 -0.2638
vn 0.9643 -0.0236 -0.2638
vn 0.9643 -0.0237 -0.2639
vn 0.9750 -0.0389 -0.2187
vn 0.9716 -0.0395 -0.2333
vn 0.9716 -0.0393 -0.2333
vn 0.9716 -0.0395 -0.2331
vn 0.9717 -0.0392 -0.2329
vn 0.9716 -0.0392 -0.2332
vn 0.9716 -0.0393 -0.2332
vn 0.9716 -0.0390 -0.2333
vn 0.9836 -0.0551 -0.1717
vn 0.9836 -0.0550 -0.1716
vn 0.9785 -0.0386 -0.2023
vn 0.9785 -0.0392 -0.2027
vn 0.9785 -0.0394 -0.2026
vn 0.9785 -0.0393 -0.2026
vn 0.9785 -0.0393 -0.2025
vn 0.9784 -0.0392 -0.2027
vn 0.9767 -0.0706 -0.2023
vn 0.9767 -0.0707 -0.2023
vn 0.9768 -0.0706 -0.2022
vn 0.9645 -0.0078 -0.2639
vn 0.9645 -0.0076 -0.2638
vn 0.9645 -0.0083 -0.2639
vn 0.9716 0.0392 -0.2332
vn 0.9716 0.0393 -0.2332
vn 0.9716 0.0389 -0.2332
vn 0.9716 0.0391 -0.2332
vn 0.9723 0.0078 -0.2334
vn 0.9723 0.0078 -0.2335
vn 0.9723 0.0080 -0.2336
vn 0.9724 0.0078 -0.2332
usemtl None
s 1
f 121//1 120//1 5//2
f 134//3 133//3 7//4
f 2//5 8//6 3//7
f 51//8 50//8 45//8
f 4//9 206//10 205//10
f 6//11 9//12 10//13
f 6//11 11//14 7//4
f 8//6 11//14 12//15
f 275//16 273//17 39//18
f 10//13 96//19 17//20
f 284//21 283//22 14//23
f 11//14 180//24 179//25
f 295//26 294//26 299//26
f 199//27 198//28 38//29
f 41//30 30//31 14//23
f 59//32 57//33 63//34
f 77//35 24//36 1//37
f 2//5 3//7 84//38
f 143//39 159//40 158//41
f 13//42 194//43 193//44
f 218//45 216//45 212//45
f 240//46 236//47 235//48
f 230//49 229//50 28//51
f 241//52 1//37 24//36
f 20//53 2//5 245//54
f 31//55 40//56 3//7
f 249//57 248//57 4//9
f 262//58 260//59 5//2
f 5//2 1//37 121//1
f 1//37 15//60 131//61
f 122//62 1//37 123//1
f 131//61 130//63 1//37
f 129//62 128//64 126//61
f 128//64 127//65 126//61
f 130//63 129//62 1//37
f 32//66 4//9 113//67
f 4//9 5//2 119//62
f 113//67 4//9 114//64
f 114//64 4//9 115//1
f 1//37 122//62 121//1
f 1//37 129//62 123//1
f 126//61 125//1 129//62
f 125//1 124//61 129//62
f 124//61 123//1 129//62
f 115//1 4//9 119//62
f 117//64 116//1 119//62
f 116//1 115//1 119//62
f 119//62 118//67 117//64
f 120//1 119//62 5//2
f 7//4 2//5 134//3
f 2//5 20//53 138//3
f 20//53 139//68 138//3
f 137//69 136//70 135//3
f 2//5 138//3 134//3
f 137//69 135//3 134//3
f 138//3 137//69 134//3
f 33//71 6//11 132//72
f 6//11 7//4 133//3
f 133//3 132//72 6//11
f 2//5 7//4 8//6
f 37//73 4//9 51//8
f 4//9 19//74 55//8
f 53//75 4//9 54//8
f 55//8 54//8 4//9
f 53//75 52//8 4//9
f 52//8 51//8 4//9
f 45//8 37//73 51//8
f 47//8 46//8 50//8
f 46//8 45//8 50//8
f 50//8 49//76 48//8
f 48//8 47//8 50//8
f 5//2 4//9 205//10
f 4//9 37//73 207//77
f 4//9 207//77 206//10
f 34//78 9//12 201//79
f 9//12 5//2 203//10
f 202//80 201//79 9//12
f 205//10 204//10 5//2
f 204//10 203//10 5//2
f 203//10 202//80 9//12
f 6//11 5//2 9//12
f 6//11 10//13 11//14
f 8//6 7//4 11//14
f 39//18 9//12 275//16
f 9//12 34//78 281//16
f 9//12 281//16 280//81
f 267//17 266//81 268//16
f 266//81 39//18 268//16
f 270//82 269//16 272//17
f 269//16 268//16 272//17
f 9//12 280//81 276//83
f 275//16 9//12 276//83
f 280//81 279//84 276//83
f 279//84 278//85 276//83
f 278//85 277//85 276//83
f 275//16 274//86 273//17
f 268//16 39//18 273//17
f 272//17 271//87 270//82
f 273//17 272//17 268//16
f 10//13 9//12 98//88
f 9//12 39//18 112//88
f 9//12 112//88 98//88
f 98//88 112//88 99//89
f 89//90 88//88 90//91
f 88//88 87//19 91//92
f 91//92 90//91 88//88
f 112//88 111//88 99//89
f 111//88 110//89 99//89
f 91//92 87//19 92//19
f 87//19 17//20 93//92
f 92//19 87//19 93//92
f 110//89 109//93 101//88
f 108//88 107//94 106//88
f 108//88 106//88 103//88
f 106//88 105//92 103//88
f 105//92 104//95 103//88
f 103//88 102//88 109//93
f 102//88 101//88 109//93
f 101//88 100//88 110//89
f 100//88 99//89 110//89
f 98//88 97//96 96//19
f 109//93 108//88 103//88
f 95//96 94//19 17//20
f 94//19 93//92 17//20
f 96//19 95//96 17//20
f 10//13 98//88 96//19
f 14//23 11//14 284//21
f 11//14 10//13 285//21
f 10//13 17//20 286//97
f 10//13 286//97 285//21
f 282//98 23//99 14//23
f 283//22 282//98 14//23
f 11//14 285//21 284//21
f 22//100 12//15 179//25
f 12//15 11//14 179//25
f 11//14 14//23 186//24
f 14//23 30//31 186//24
f 30//31 191//101 187//24
f 191//101 190//102 187//24
f 190//102 189//25 187//24
f 189//25 188//103 187//24
f 171//104 22//100 172//105
f 186//24 185//25 182//101
f 185//25 184//106 183//24
f 30//31 187//24 186//24
f 175//101 174//101 173//101
f 176//25 175//101 173//101
f 176//25 173//101 172//105
f 177//101 176//25 172//105
f 185//25 183//24 182//101
f 182//101 181//107 186//24
f 177//101 172//105 22//100
f 178//24 177//101 22//100
f 11//14 186//24 180//24
f 186//24 181//107 180//24
f 179//25 178//24 22//100
f 29//108 13//42 292//26
f 13//42 12//15 292//26
f 12//15 22//100 308//109
f 22//100 309//110 308//109
f 288//26 287//26 289//26
f 287//26 29//108 290//111
f 290//111 289//26 287//26
f 12//15 308//109 307//109
f 12//15 307//109 306//26
f 291//112 290//111 29//108
f 292//26 291//112 29//108
f 12//15 306//26 294//26
f 306//26 305//113 300//114
f 12//15 294//26 293//26
f 305//113 304//115 302//26
f 304//115 303//115 302//26
f 302//26 301//26 305//113
f 301//26 300//114 305//113
f 293//26 292//26 12//15
f 294//26 306//26 299//26
f 299//26 306//26 300//114
f 299//26 298//109 295//26
f 298//109 297//116 295//26
f 297//116 296//117 295//26
f 38//29 14//23 199//27
f 14//23 23//99 199//27
f 23//99 200//118 199//27
f 198//28 197//119 196//120
f 198//28 196//120 38//29
f 14//23 38//29 43//121
f 38//29 44//122 43//121
f 43//121 42//30 14//23
f 42//30 41//30 14//23
f 27//123 28//51 73//32
f 72//124 71//32 74//32
f 71//32 70//33 66//33
f 74//32 71//32 66//33
f 27//123 73//32 72//124
f 74//32 27//123 72//124
f 70//33 69//33 67//33
f 69//33 68//33 67//33
f 25//125 26//126 76//32
f 26//126 75//32 57//33
f 76//32 26//126 57//33
f 75//32 74//32 65//34
f 70//33 67//33 66//33
f 74//32 66//33 65//34
f 13//42 36//127 57//33
f 36//127 76//32 57//33
f 75//32 65//34 64//128
f 21//129 13//42 56//33
f 56//33 13//42 57//33
f 75//32 64//128 57//33
f 63//34 62//130 61//124
f 64//128 63//34 57//33
f 59//32 58//33 57//33
f 63//34 61//124 60//32
f 60//32 59//32 63//34
f 1//37 18//131 78//132
f 78//132 77//35 1//37
f 3//7 40//56 86//133
f 3//7 86//133 85//134
f 79//133 35//135 2//5
f 81//136 80//136 84//38
f 80//136 79//133 84//38
f 83//137 82//136 84//38
f 82//136 81//136 84//38
f 3//7 85//134 84//38
f 79//133 2//5 84//38
f 8//6 16//138 170//139
f 8//6 170//139 169//140
f 31//55 3//7 142//140
f 3//7 8//6 169//140
f 141//40 140//141 31//55
f 142//140 141//40 31//55
f 3//7 169//140 159//40
f 3//7 159//40 142//140
f 169//140 168//139 159//40
f 167//40 166//40 164//40
f 166//40 165//140 164//40
f 168//139 167//40 159//40
f 145//39 144//140 146//40
f 144//140 143//39 158//41
f 146//40 144//140 158//41
f 143//39 142//140 159//40
f 164//40 163//40 161//40
f 163//40 162//140 161//40
f 164//40 161//40 167//40
f 161//40 160//142 159//40
f 161//40 159//40 167//40
f 149//140 148//143 147//40
f 150//140 149//140 147//40
f 152//40 151//144 155//140
f 151//144 150//140 155//140
f 154//145 153//40 155//140
f 153//40 152//40 155//140
f 150//140 147//40 156//143
f 150//140 156//143 155//140
f 147//40 146//40 156//143
f 158//41 157//40 146//40
f 157//40 156//143 146//40
f 13//42 29//108 195//146
f 13//42 195//146 194//43
f 192//147 36//127 193//44
f 36//127 13//42 193//44
f 13//42 21//129 227//45
f 21//129 228//148 227//45
f 227//45 226//45 13//42
f 8//6 12//15 209//45
f 12//15 13//42 225//45
f 209//45 12//15 210//45
f 208//149 16//138 8//6
f 209//45 208//149 8//6
f 13//42 226//45 225//45
f 225//45 224//45 12//15
f 210//45 12//15 224//45
f 211//45 210//45 220//45
f 210//45 224//45 221//45
f 220//45 210//45 221//45
f 223//150 222//151 221//45
f 224//45 223//150 221//45
f 214//149 213//152 215//153
f 213//152 212//45 215//153
f 212//45 211//45 220//45
f 220//45 219//150 218//45
f 218//45 217//151 216//45
f 216//45 215//153 212//45
f 220//45 218//45 212//45
f 26//126 25//125 235//48
f 25//125 240//46 235//48
f 240//46 239//48 237//46
f 239//48 238//48 237//46
f 240//46 237//46 236//47
f 28//51 27//123 234//49
f 234//49 233//154 28//51
f 233//154 232//155 28//51
f 232//155 231//156 28//51
f 231//156 230//49 28//51
f 241//52 15//60 1//37
f 2//5 35//135 245//54
f 245//54 244//157 20//53
f 244//157 243//158 242//159
f 20//53 244//157 242//159
f 4//9 32//66 249//57
f 32//66 247//57 249//57
f 247//57 246//160 250//57
f 246//160 253//161 250//57
f 253//161 252//162 251//163
f 251//163 250//57 253//161
f 250//57 249//57 247//57
f 248//57 19//74 4//9
f 6//11 33//71 265//164
f 6//11 265//164 264//164
f 1//37 5//2 259//58
f 5//2 6//11 264//164
f 259//58 5//2 260//59
f 254//165 18//131 1//37
f 257//164 256//166 255//58
f 255//58 254//165 1//37
f 264//164 263//59 5//2
f 262//58 261//167 260//59
f 263//59 262//58 5//2
f 255//58 1//37 259//58
f 258//58 257//164 259//58
f 257//164 255//58 259//58
