# Blender v2.81 (sub 16) OBJ File: ''
# www.blender.org
mtllib Georgia.mtl
o 0_Georgia_sphere.001
v 2.614993 3.365062 -2.614987
v 2.652046 3.306558 -2.652040
v 2.695842 3.365062 -2.531558
v 2.734040 3.306558 -2.567429
v 2.734040 3.422734 -2.410375
v 2.597642 3.391607 -2.597637
v 2.764893 3.365062 -2.455672
v 2.729070 3.429680 -2.405993
v 2.742258 3.293568 -2.575145
v 2.754331 3.393471 -2.428264
v 2.656513 3.299279 -2.656507
v 2.743191 3.306558 -2.557372
v 2.584195 3.365062 -2.644833
v 2.714693 3.422734 -2.431638
v 2.703825 3.422734 -2.443581
v 2.688536 3.422734 -2.460384
v 2.643496 3.306558 -2.660326
v 2.628693 3.306558 -2.674671
v 2.580821 3.306558 -2.721063
v 2.667803 3.406672 -2.505228
v 2.776672 3.422734 -2.360460
v 2.779000 3.429626 -2.347613
v 2.782788 3.436441 -2.333168
v 2.777905 3.440562 -2.332833
v 2.772267 3.444844 -2.333146
v 2.768836 3.445888 -2.335630
v 2.762169 3.444155 -2.345981
v 2.756356 3.442199 -2.355659
v 2.750026 3.443603 -2.361011
v 2.746166 3.440213 -2.370507
v 2.743188 3.436332 -2.379695
v 2.739337 3.433616 -2.388193
v 2.729772 3.431121 -2.403055
v 2.761943 3.398787 -2.411787
v 2.760173 3.405340 -2.404532
v 2.763590 3.413777 -2.388525
v 2.773963 3.417434 -2.371175
v 2.775423 3.419021 -2.367207
v 2.744209 3.310776 -2.550642
v 2.746888 3.312398 -2.545538
v 2.745329 3.317034 -2.541082
v 2.746161 3.318014 -2.538864
v 2.749044 3.318443 -2.535125
v 2.752665 3.317957 -2.531792
v 2.753735 3.317441 -2.531304
v 2.755244 3.316687 -2.530647
v 2.761710 3.310868 -2.531286
v 2.764792 3.308939 -2.530466
v 2.768720 3.309827 -2.524967
v 2.771517 3.311171 -2.520104
v 2.774038 3.311941 -2.516309
v 2.779594 3.312440 -2.509539
v 2.786173 3.312584 -2.502117
v 2.793382 3.308481 -2.499655
v 2.795001 3.309024 -2.497153
v 2.797052 3.311061 -2.492188
v 2.801393 3.312787 -2.485120
v 2.803409 3.314147 -2.481095
v 2.786880 3.326260 -2.483141
v 2.779524 3.333507 -2.481582
v 2.776490 3.337925 -2.479037
v 2.772729 3.343446 -2.475823
v 2.769333 3.354994 -2.464189
v 2.595205 3.390298 -2.601683
v 2.591954 3.389010 -2.606490
v 2.590860 3.387269 -2.609793
v 2.589609 3.379625 -2.620843
v 2.579274 3.379949 -2.630442
v 2.575730 3.378800 -2.635355
v 2.574282 3.377526 -2.638397
v 2.574189 3.376058 -2.640376
v 2.580852 3.368524 -2.643617
v 2.658113 3.298447 -2.655893
v 2.666418 3.297201 -2.648877
v 2.666860 3.296479 -2.649320
v 2.666288 3.294620 -2.652228
v 2.666990 3.294039 -2.652228
v 2.679818 3.293718 -2.639390
v 2.684723 3.292578 -2.635751
v 2.695060 3.294017 -2.623289
v 2.699172 3.293336 -2.619894
v 2.703159 3.291980 -2.617472
v 2.711820 3.290445 -2.610448
v 2.718249 3.288632 -2.606074
v 2.725603 3.287685 -2.599665
v 2.732638 3.287676 -2.592418
v 2.735411 3.287121 -2.590248
v 2.734483 3.288365 -2.589655
v 2.733628 3.290324 -2.588095
v 2.734167 3.291722 -2.585796
v 2.735591 3.292633 -2.583191
v 2.739408 3.292360 -2.579592
v 2.742169 3.293295 -2.575577
v 2.578227 3.302764 -2.728161
v 2.577921 3.299016 -2.732985
v 2.580059 3.296264 -2.734239
v 2.585104 3.290616 -2.736173
v 2.592258 3.285902 -2.734936
v 2.596618 3.284660 -2.732212
v 2.597591 3.285121 -2.730712
v 2.599129 3.286556 -2.727487
v 2.601712 3.290182 -2.720604
v 2.605165 3.292995 -2.713859
v 2.609662 3.292109 -2.710572
v 2.612958 3.290957 -2.708769
v 2.617351 3.292237 -2.702966
v 2.621932 3.294752 -2.695487
v 2.623624 3.297203 -2.690887
v 2.623929 3.298980 -2.688444
v 2.621037 3.302203 -2.687352
v 2.656408 3.299337 -2.656538
v 2.728038 3.427514 -2.410197
v 2.725536 3.423860 -2.418126
v 2.702978 3.422978 -2.444168
v 2.695284 3.424277 -2.450781
v 2.689528 3.424041 -2.457443
v 2.762052 3.371253 -2.450290
v 2.754262 3.388043 -2.435793
v 2.753769 3.393081 -2.429416
v 2.706810 3.421884 -2.441468
v 2.704808 3.422456 -2.442883
v 2.686234 3.419656 -2.467142
v 2.682002 3.419927 -2.471421
v 2.677267 3.420609 -2.475687
v 2.673287 3.418273 -2.483269
v 2.670665 3.415706 -2.489676
v 2.672131 3.412999 -2.491783
v 2.670884 3.409152 -2.498437
v 2.663564 3.403199 -2.514215
v 2.656532 3.399803 -2.525982
v 2.655210 3.397416 -2.530516
v 2.650688 3.393512 -2.540368
v 2.650813 3.392264 -2.541897
v 2.652009 3.390686 -2.542758
v 2.655999 3.387753 -2.542535
v 2.658260 3.385170 -2.543634
v 2.658278 3.383696 -2.545573
v 2.656280 3.382246 -2.549560
v 2.650609 3.381916 -2.555851
v 2.647258 3.383778 -2.556835
v 2.642024 3.385100 -2.560480
v 2.636078 3.387510 -2.563416
v 2.628188 3.390686 -2.567339
v 2.618381 3.393625 -2.573555
v 2.615232 3.393618 -2.576815
v 2.612758 3.392761 -2.580505
v 2.611670 3.391187 -2.583719
v 2.612047 3.385257 -2.591205
v 2.603004 3.393621 -2.589428
v 2.601679 3.394246 -2.589965
v 2.599542 3.392598 -2.594360
v 2.742983 3.295723 -2.571569
v 2.742343 3.297595 -2.569860
v 2.740030 3.299136 -2.570415
v 2.740196 3.300405 -2.568596
v 2.742394 3.303358 -2.562373
v 2.567808 3.335984 -2.696976
v 2.573116 3.331716 -2.697156
v 2.576579 3.329576 -2.696468
v 2.579154 3.329232 -2.694402
v 2.582113 3.328231 -2.692783
v 2.584367 3.325967 -2.693421
v 2.586243 3.323055 -2.695235
v 2.587148 3.320966 -2.696963
v 2.587073 3.320155 -2.698048
v 2.585075 3.319489 -2.700814
v 2.586474 3.313363 -2.707097
v 2.584651 3.310268 -2.712724
v 2.580981 3.306809 -2.720595
v 2.631273 3.308040 -2.670323
v 2.636916 3.309655 -2.662841
v 2.640939 3.307954 -2.661063
v 2.588410 3.360593 -2.646321
v 2.589413 3.358667 -2.647752
v 2.587225 3.355634 -2.653654
v 2.583654 3.352459 -2.661074
v 2.582217 3.349906 -2.665651
v 2.581619 3.347618 -2.669084
v 2.578339 3.345867 -2.674445
v 2.573797 3.344814 -2.680160
v 2.571440 3.344667 -2.682627
v 2.570027 3.342787 -2.686342
v 2.565547 3.339185 -2.695174
v 2.565230 3.338316 -2.696565
vn 0.5274 0.6788 -0.5110
vn 0.5273 0.6787 -0.5112
vn 0.5392 0.6730 -0.5063
vn 0.5230 0.6730 -0.5230
vn 0.5468 0.6612 -0.5135
vn 0.5304 0.6613 -0.5304
vn 0.5431 0.6787 -0.4942
vn 0.5431 0.6788 -0.4942
vn 0.5432 0.6787 -0.4942
vn 0.5510 0.6670 -0.5014
vn 0.5510 0.6672 -0.5012
vn 0.5502 0.6902 -0.4699
vn 0.5584 0.6787 -0.4769
vn 0.5468 0.6845 -0.4821
vn 0.5110 0.6788 -0.5273
vn 0.5211 0.6788 -0.5173
vn 0.5425 0.6553 -0.5256
vn 0.5424 0.6553 -0.5257
vn 0.5423 0.6553 -0.5258
vn 0.5239 0.6573 -0.5416
vn 0.5368 0.6562 -0.5302
vn 0.5242 0.6576 -0.5410
vn 0.5256 0.6553 -0.5424
vn 0.5256 0.6554 -0.5424
vn 0.5353 0.6901 -0.4870
vn 0.5417 0.6808 -0.4929
vn 0.5352 0.6902 -0.4870
vn 0.5351 0.6903 -0.4870
vn 0.5587 0.6553 -0.5083
vn 0.5468 0.6553 -0.5211
vn 0.5184 0.6671 -0.5349
vn 0.5184 0.6671 -0.5350
vn 0.5274 0.6787 -0.5111
vn 0.5273 0.6788 -0.5110
vn 0.5274 0.6787 -0.5110
vn 0.5273 0.6788 -0.5111
vn 0.5272 0.6788 -0.5112
vn 0.5376 0.6788 -0.5003
vn 0.5274 0.6788 -0.5109
vn 0.5273 0.6787 -0.5111
vn 0.5275 0.6789 -0.5106
vn 0.5272 0.6787 -0.5112
vn 0.5273 0.6786 -0.5112
vn 0.5465 0.6738 -0.4972
vn 0.5488 0.6788 -0.4878
vn 0.5429 0.6791 -0.4940
vn 0.5427 0.6793 -0.4940
vn 0.5430 0.6789 -0.4941
vn 0.5430 0.6788 -0.4942
vn 0.5529 0.6642 -0.5030
vn 0.5510 0.6671 -0.5013
vn 0.5509 0.6672 -0.5013
vn 0.5510 0.6671 -0.5014
vn 0.5509 0.6671 -0.5013
vn 0.5509 0.6673 -0.5012
vn 0.5509 0.6671 -0.5014
vn 0.5521 0.6876 -0.4715
vn 0.5459 0.6902 -0.4750
vn 0.5502 0.6902 -0.4700
vn 0.5503 0.6901 -0.4699
vn 0.5502 0.6901 -0.4700
vn 0.5503 0.6903 -0.4697
vn 0.5587 0.6785 -0.4769
vn 0.5583 0.6789 -0.4769
vn 0.5140 0.6741 -0.5304
vn 0.5110 0.6787 -0.5274
vn 0.5110 0.6788 -0.5274
vn 0.5108 0.6788 -0.5275
vn 0.5108 0.6791 -0.5271
vn 0.5424 0.6553 -0.5256
vn 0.5433 0.6546 -0.5257
vn 0.5424 0.6554 -0.5256
vn 0.5422 0.6555 -0.5257
vn 0.5419 0.6556 -0.5257
vn 0.5424 0.6554 -0.5255
vn 0.5423 0.6554 -0.5256
vn 0.5425 0.6554 -0.5255
vn 0.5423 0.6555 -0.5256
vn 0.5423 0.6553 -0.5257
vn 0.5200 0.6644 -0.5367
vn 0.5193 0.6657 -0.5359
vn 0.5256 0.6553 -0.5425
vn 0.5257 0.6553 -0.5424
vn 0.5257 0.6554 -0.5424
vn 0.5257 0.6554 -0.5423
vn 0.5258 0.6554 -0.5422
vn 0.5350 0.6903 -0.4871
vn 0.5586 0.6553 -0.5083
vn 0.5586 0.6554 -0.5083
vn 0.5585 0.6554 -0.5084
vn 0.5194 0.6635 -0.5384
vn 0.5183 0.6671 -0.5350
vn 0.5184 0.6672 -0.5348
vn 0.5185 0.6676 -0.5343
vn 0.5184 0.6672 -0.5349
vn 0.5185 0.6671 -0.5349
vn 0.5183 0.6672 -0.5350
usemtl None
s 1
f 138//1 137//2 3//3
f 1//4 4//5 2//6
f 128//7 127//8 122//9
f 50//10 49//11 46//10
f 22//12 26//12 24//12
f 36//13 35//13 5//14
f 64//15 6//16 1//4
f 86//17 85//18 89//19
f 111//20 2//6 11//21
f 19//22 103//23 102//24
f 114//25 16//26 115//27
f 113//28 112//27 5//14
f 154//29 9//30 4//5
f 182//31 180//31 161//32
f 1//4 6//16 148//33
f 6//16 151//34 148//33
f 151//34 150//35 149//33
f 148//33 147//34 145//36
f 147//34 146//37 145//36
f 151//34 149//33 148//33
f 129//35 20//38 3//3
f 131//39 130//35 136//40
f 130//35 129//35 136//40
f 133//41 132//34 134//42
f 132//34 131//39 135//33
f 135//33 134//42 132//34
f 129//35 3//3 136//40
f 145//36 144//33 148//33
f 144//33 143//35 148//33
f 143//35 142//34 148//33
f 142//34 141//40 1//4
f 148//33 142//34 1//4
f 141//40 140//43 139//35
f 1//4 141//40 139//35
f 135//33 131//39 136//40
f 3//3 1//4 139//35
f 137//2 136//40 3//3
f 3//3 139//35 138//1
f 1//4 3//3 4//5
f 7//44 3//3 117//9
f 3//3 20//38 128//7
f 3//3 128//7 122//9
f 117//9 3//3 122//9
f 118//7 117//9 120//8
f 5//14 10//45 119//8
f 5//14 119//8 14//46
f 119//8 118//7 14//46
f 120//8 14//46 118//7
f 15//47 121//48 122//9
f 121//48 120//8 122//9
f 122//9 16//26 15//47
f 125//8 124//8 123//9
f 125//8 123//9 127//8
f 123//9 122//9 127//8
f 127//8 126//49 125//8
f 117//9 122//9 120//8
f 12//50 4//5 39//51
f 4//5 3//3 41//51
f 39//51 4//5 41//51
f 3//3 7//44 63//51
f 3//3 63//51 62//51
f 41//51 40//51 39//51
f 3//3 62//51 44//52
f 62//51 61//52 44//52
f 3//3 44//52 43//53
f 61//52 60//54 51//53
f 42//51 41//51 3//3
f 43//53 42//51 3//3
f 60//54 59//51 53//51
f 59//51 58//53 57//53
f 56//51 55//51 53//51
f 55//51 54//53 53//51
f 59//51 57//53 56//51
f 44//52 61//52 45//55
f 45//55 61//52 46//10
f 59//51 56//51 53//51
f 46//10 61//52 51//53
f 48//56 47//56 49//11
f 47//56 46//10 49//11
f 51//53 60//54 52//51
f 53//51 52//51 60//54
f 50//10 46//10 51//53
f 21//57 5//14 32//12
f 5//14 8//58 33//59
f 32//12 5//14 33//59
f 31//12 30//59 21//57
f 30//59 29//60 28//59
f 30//59 28//59 21//57
f 21//57 32//12 31//12
f 24//12 23//12 22//12
f 22//12 21//57 28//59
f 28//59 27//61 22//12
f 27//61 26//12 22//12
f 26//12 25//62 24//12
f 5//14 21//57 36//13
f 21//57 38//63 37//64
f 36//13 21//57 37//64
f 35//13 34//13 5//14
f 34//13 10//45 5//14
f 1//4 13//65 67//66
f 13//65 72//66 67//66
f 72//66 71//66 69//67
f 71//66 70//68 69//67
f 69//67 68//66 72//66
f 67//66 66//15 1//4
f 66//15 65//69 64//15
f 1//4 66//15 64//15
f 68//66 67//66 72//66
f 4//5 9//30 92//70
f 9//30 93//71 92//70
f 92//70 91//18 4//5
f 11//21 2//6 73//72
f 2//6 4//5 80//72
f 74//72 2//6 78//72
f 74//72 73//72 2//6
f 77//73 76//74 75//75
f 78//72 77//73 75//75
f 75//75 74//72 78//72
f 2//6 80//72 78//72
f 4//5 91//18 90//18
f 4//5 90//18 84//76
f 90//18 89//19 85//18
f 4//5 84//76 83//72
f 80//72 79//75 78//72
f 83//72 82//77 81//78
f 81//78 80//72 4//5
f 81//78 4//5 83//72
f 85//18 84//76 90//18
f 88//70 87//79 86//17
f 89//19 88//70 86//17
f 111//20 17//80 2//6
f 19//22 18//81 110//23
f 110//23 109//82 108//24
f 108//24 107//83 110//23
f 107//83 106//24 110//23
f 106//24 105//82 104//83
f 106//24 104//83 110//23
f 104//83 103//23 110//23
f 94//23 19//22 102//24
f 19//22 110//23 103//23
f 96//23 95//83 94//23
f 98//83 97//24 101//84
f 97//24 96//23 101//84
f 100//85 99//86 98//83
f 102//24 101//84 94//23
f 101//84 100//85 98//83
f 94//23 101//84 96//23
f 15//47 16//26 114//25
f 16//26 116//87 115//27
f 5//14 14//46 113//28
f 112//27 8//58 5//14
f 4//5 12//50 156//88
f 4//5 156//88 155//89
f 153//90 152//29 154//29
f 152//29 9//30 154//29
f 4//5 155//89 154//29
f 18//81 19//22 168//31
f 19//22 169//91 168//31
f 170//32 18//81 178//31
f 18//81 168//31 167//32
f 167//32 166//32 165//32
f 18//81 167//32 165//32
f 164//92 18//81 165//32
f 171//31 170//32 175//31
f 18//81 164//92 163//32
f 18//81 163//32 162//32
f 2//6 17//80 172//93
f 18//81 162//32 178//31
f 2//6 172//93 171//31
f 13//65 1//4 173//31
f 1//4 2//6 171//31
f 173//31 1//4 174//31
f 174//31 1//4 171//31
f 170//32 178//31 176//31
f 176//31 178//31 177//94
f 176//31 175//31 170//32
f 175//31 174//31 171//31
f 162//32 161//32 179//31
f 178//31 162//32 179//31
f 160//32 159//95 158//31
f 161//32 160//32 182//31
f 179//31 161//32 180//31
f 160//32 158//31 182//31
f 158//31 157//31 182//31
f 157//31 184//96 183//31
f 182//31 157//31 183//31
f 182//31 181//97 180//31
