# Blender v2.81 (sub 16) OBJ File: ''
# www.blender.org
mtllib Guatemala.mtl
o 0_Guatemala_sphere.001
v -0.000002 1.470200 4.778955
v -0.000001 1.394954 4.801462
v -0.000001 1.319363 4.822778
v -0.000002 1.243447 4.842905
v -0.151488 1.319363 4.820398
v -0.152121 1.243447 4.840515
v 0.037625 1.243447 4.842314
v 0.067584 1.470200 4.777894
v -0.184674 1.319363 4.818833
v -0.101346 1.470200 4.777363
v -0.150993 1.375230 4.804652
v -0.000002 1.205052 4.852444
v 0.064918 1.394954 4.800442
v -0.172815 1.243447 4.839539
v -0.038216 1.394954 4.800862
v -0.000002 1.529759 4.760122
v -0.152242 1.227890 4.844378
v 0.104109 1.319363 4.821143
v -0.153850 1.228916 4.844047
v 0.068959 1.509379 4.765483
v 0.068142 1.485994 4.772891
v 0.022534 1.529666 4.759798
v 0.052215 1.529580 4.759358
v 0.069666 1.529564 4.759089
v 0.067534 1.468790 4.778316
v 0.066724 1.445748 4.785221
v 0.065888 1.422188 4.792281
v 0.064744 1.390052 4.801827
v 0.063997 1.369182 4.807724
v 0.064392 1.368696 4.807855
v 0.074395 1.369680 4.807420
v 0.089204 1.368799 4.807436
v 0.092821 1.368849 4.807365
v 0.097368 1.367034 4.807806
v 0.100866 1.366513 4.807898
v 0.108424 1.361815 4.809103
v 0.117285 1.358270 4.809964
v 0.122870 1.365453 4.807851
v 0.119873 1.369763 4.806683
v 0.117641 1.371966 4.806096
v 0.117967 1.373890 4.805549
v 0.148796 1.355403 4.810277
v 0.145200 1.352525 4.811145
v 0.137434 1.345887 4.813139
v 0.123338 1.334500 4.816572
v 0.110693 1.324341 4.819635
v 0.098507 1.315123 4.822354
v 0.087516 1.306802 4.824733
v 0.086221 1.305978 4.824973
v 0.072250 1.300009 4.826774
v 0.069924 1.297305 4.827528
v 0.066952 1.285551 4.830690
v 0.065591 1.282629 4.831487
v 0.068156 1.276112 4.833174
v 0.070729 1.266037 4.835804
v 0.069940 1.260779 4.837211
v 0.060256 1.254278 4.839087
v 0.055822 1.248456 4.840700
v 0.053873 1.244677 4.841732
v 0.052125 1.245679 4.841494
v 0.049116 1.245950 4.841470
v 0.042188 1.244518 4.841958
v 0.038838 1.244181 4.842100
v 0.036041 1.242500 4.842574
v 0.035768 1.238886 4.843476
v 0.037633 1.232954 4.844920
v 0.038304 1.229897 4.845670
v 0.036353 1.228509 4.846045
v 0.027813 1.224972 4.847058
v 0.024445 1.221478 4.847979
v 0.021215 1.216043 4.849380
v 0.017466 1.213794 4.849998
v 0.013552 1.214213 4.849955
v 0.010777 1.213426 4.850194
v 0.004854 1.209354 4.851299
v -0.102090 1.471128 4.777058
v -0.109963 1.478409 4.774632
v -0.116035 1.481472 4.773568
v -0.117462 1.483092 4.773033
v -0.099623 1.482906 4.773373
v -0.082749 1.482769 4.773681
v -0.082547 1.498989 4.768555
v -0.082369 1.513406 4.763999
v -0.082174 1.529682 4.758855
v -0.051675 1.529661 4.759341
v -0.015252 1.529712 4.759897
v -0.037709 1.400004 4.799359
v -0.034916 1.407508 4.797158
v -0.034908 1.410828 4.796165
v -0.039428 1.414890 4.794880
v -0.048182 1.417246 4.794037
v -0.053049 1.420817 4.792893
v -0.053059 1.425373 4.791530
v -0.055180 1.430863 4.789855
v -0.059398 1.437317 4.787858
v -0.068172 1.443923 4.785744
v -0.081487 1.450674 4.783515
v -0.092793 1.459740 4.780626
v -0.145599 1.384041 4.802252
v -0.120234 1.383999 4.802662
v -0.103451 1.383981 4.802931
v -0.082139 1.383973 4.803268
v -0.058966 1.383995 4.803626
v -0.043768 1.384026 4.803856
v -0.037495 1.384179 4.803911
v -0.038543 1.391714 4.801770
v -0.004078 1.201457 4.853273
v -0.008874 1.195578 4.854658
v -0.008975 1.191186 4.855748
v -0.008071 1.187245 4.856742
v -0.040583 1.201095 4.852789
v -0.051404 1.203432 4.852039
v -0.097064 1.203148 4.851392
v -0.116618 1.208655 4.849717
v -0.138854 1.219284 4.846726
v -0.184036 1.321053 4.818386
v -0.175056 1.335727 4.814667
v -0.164392 1.353215 4.810234
v -0.152650 1.372512 4.805341
v -0.188754 1.255637 4.835552
v -0.186527 1.257769 4.835091
v -0.184622 1.262772 4.833853
v -0.182281 1.267925 4.832596
v -0.183618 1.273857 4.830959
v -0.184405 1.278671 4.829644
v -0.181746 1.285667 4.827913
v -0.181936 1.290919 4.826510
v -0.180699 1.294162 4.825708
v -0.176845 1.296234 4.825340
v -0.174791 1.300273 4.824365
v -0.185555 1.314028 4.820207
v -0.185514 1.317170 4.819375
vn -0.0150 0.3014 0.9533
vn -0.0150 0.3013 0.9534
vn -0.0144 0.3015 0.9533
vn -0.0150 0.2865 0.9579
vn -0.0148 0.2865 0.9579
vn 0.0000 0.2638 0.9646
vn -0.0151 0.2713 0.9623
vn -0.0151 0.2714 0.9623
vn 0.0000 0.2487 0.9686
vn -0.0303 0.2638 0.9641
vn -0.0304 0.2487 0.9681
vn -0.0453 0.2714 0.9614
vn -0.0454 0.2714 0.9614
vn -0.0455 0.2562 0.9655
vn -0.0455 0.2411 0.9694
vn -0.0456 0.2530 0.9664
vn 0.0150 0.3015 0.9533
vn 0.0000 0.2940 0.9558
vn 0.0000 0.2790 0.9603
vn 0.0150 0.2865 0.9579
vn 0.0152 0.2714 0.9623
vn 0.0151 0.2714 0.9623
vn 0.0151 0.2682 0.9632
vn 0.0152 0.2562 0.9665
vn 0.0153 0.2411 0.9704
vn -0.0152 0.2411 0.9704
vn -0.0148 0.2972 0.9547
vn 0.0000 0.3015 0.9535
vn -0.0150 0.3015 0.9533
vn -0.0150 0.3017 0.9533
vn -0.0150 0.3016 0.9533
vn -0.0151 0.2785 0.9603
vn -0.0151 0.2865 0.9579
vn -0.0152 0.2865 0.9579
vn -0.0202 0.2714 0.9622
vn -0.0455 0.2621 0.9639
vn -0.0454 0.2713 0.9614
vn -0.0454 0.2562 0.9655
vn -0.0458 0.2562 0.9655
vn -0.0459 0.2562 0.9655
vn -0.0453 0.2564 0.9655
vn -0.0456 0.2562 0.9655
vn -0.0454 0.2563 0.9655
vn -0.0460 0.2563 0.9655
vn -0.0247 0.2411 0.9702
vn 0.0150 0.2940 0.9557
vn 0.0149 0.3015 0.9533
vn 0.0151 0.2792 0.9601
vn 0.0150 0.2864 0.9580
vn 0.0151 0.2715 0.9623
vn 0.0150 0.2714 0.9623
vn 0.0151 0.2713 0.9623
vn 0.0154 0.2713 0.9623
vn 0.0153 0.2714 0.9623
vn 0.0152 0.2715 0.9623
vn 0.0152 0.2719 0.9622
vn 0.0150 0.2712 0.9624
vn 0.0152 0.2541 0.9670
vn 0.0151 0.2563 0.9665
vn 0.0150 0.2563 0.9665
vn 0.0152 0.2563 0.9665
vn 0.0152 0.2561 0.9665
vn 0.0151 0.2562 0.9665
vn 0.0149 0.2563 0.9665
vn 0.0152 0.2583 0.9659
vn -0.0071 0.2411 0.9705
vn 0.0152 0.2411 0.9704
vn 0.0152 0.2409 0.9704
vn 0.0152 0.2412 0.9703
vn 0.0154 0.2411 0.9704
vn 0.0153 0.2412 0.9703
vn 0.0151 0.2411 0.9704
vn 0.0151 0.2412 0.9703
vn -0.0153 0.2411 0.9704
usemtl None
s 1
f 80//1 77//2 76//3
f 94//4 93//5 90//4
f 3//6 103//7 102//8
f 4//9 5//10 6//11
f 5//10 118//12 117//13
f 123//14 6//11 126//14
f 19//15 6//11 14//16
f 20//17 23//17 22//17
f 1//18 2//19 27//20
f 34//21 32//22 18//23
f 51//24 50//24 3//6
f 69//25 4//9 70//25
f 111//26 109//26 108//26
f 10//27 1//18 81//1
f 1//18 16//28 86//29
f 81//1 1//18 85//29
f 76//3 10//27 80//1
f 79//30 78//31 80//1
f 78//31 77//2 80//1
f 85//29 84//29 83//29
f 85//29 83//29 82//29
f 86//29 85//29 1//18
f 85//29 82//29 81//1
f 81//1 80//1 10//27
f 15//32 2//19 87//4
f 2//19 1//18 89//4
f 87//4 2//19 88//33
f 1//18 10//27 98//4
f 98//4 97//4 1//18
f 97//4 96//4 1//18
f 88//33 2//19 89//4
f 1//18 96//4 95//4
f 1//18 95//4 94//4
f 92//33 91//34 93//5
f 91//34 90//4 93//5
f 90//4 89//4 1//18
f 1//18 94//4 90//4
f 5//10 3//6 102//8
f 3//6 2//19 105//8
f 2//19 15//32 106//7
f 2//19 106//7 105//8
f 99//7 11//35 100//7
f 11//35 5//10 100//7
f 3//6 105//8 104//8
f 3//6 104//8 103//7
f 101//8 100//7 5//10
f 102//8 101//8 5//10
f 4//9 3//6 5//10
f 9//36 5//10 116//37
f 5//10 11//35 119//13
f 118//12 5//10 119//13
f 117//13 116//37 5//10
f 14//16 6//11 123//14
f 6//11 5//10 130//14
f 129//38 6//11 130//14
f 5//10 9//36 130//14
f 9//36 132//39 131//40
f 130//14 9//36 131//40
f 129//38 128//41 127//42
f 129//38 127//42 126//14
f 121//43 120//43 14//16
f 123//14 122//14 14//16
f 122//14 121//43 14//16
f 125//44 124//14 126//14
f 124//14 123//14 126//14
f 129//38 126//14 6//11
f 19//15 17//45 6//11
f 1//18 8//46 21//17
f 20//17 24//47 23//17
f 1//18 21//17 22//17
f 21//17 20//17 22//17
f 22//17 16//28 1//18
f 2//19 13//48 27//20
f 27//20 26//20 1//18
f 26//20 25//49 1//18
f 25//49 8//46 1//18
f 3//6 18//23 30//50
f 18//23 46//51 34//21
f 30//50 18//23 31//22
f 46//51 45//22 36//22
f 45//22 44//22 37//22
f 43//52 42//52 38//51
f 42//52 41//53 39//54
f 45//22 37//22 36//22
f 44//22 43//52 38//51
f 37//22 44//22 38//51
f 2//19 3//6 29//55
f 28//22 13//48 2//19
f 29//55 28//22 2//19
f 42//52 39//54 38//51
f 41//53 40//53 39//54
f 30//50 29//55 3//6
f 32//22 31//22 18//23
f 34//21 33//56 32//22
f 36//22 35//57 34//21
f 36//22 34//21 46//51
f 4//9 7//58 63//59
f 63//59 62//60 53//24
f 62//60 61//61 57//24
f 60//62 59//63 58//63
f 4//9 63//59 3//6
f 62//60 57//24 53//24
f 3//6 63//59 53//24
f 61//61 60//62 58//63
f 57//24 56//64 55//63
f 61//61 58//63 57//24
f 47//62 18//23 3//6
f 49//65 48//59 50//24
f 48//59 47//62 50//24
f 57//24 55//63 54//24
f 53//24 52//61 3//6
f 52//61 51//24 3//6
f 57//24 54//24 53//24
f 50//24 47//62 3//6
f 4//9 12//66 75//25
f 4//9 75//25 74//67
f 64//68 7//58 4//9
f 67//69 66//70 68//71
f 66//70 65//67 69//25
f 68//71 66//70 69//25
f 65//67 64//68 4//9
f 4//9 74//67 73//72
f 73//72 72//73 71//67
f 73//72 71//67 70//25
f 65//67 4//9 69//25
f 4//9 73//72 70//25
f 6//11 17//45 115//26
f 115//26 114//74 6//11
f 114//74 113//26 6//11
f 113//26 112//26 4//9
f 6//11 113//26 4//9
f 107//26 12//66 4//9
f 108//26 107//26 111//26
f 107//26 4//9 111//26
f 111//26 110//26 109//26
f 4//9 112//26 111//26
