# Blender v2.81 (sub 16) OBJ File: ''
# www.blender.org
mtllib Guernsey.mtl
o 0_Guernsey_sphere.001
v 3.243635 3.802029 0.144523
v 3.243722 3.802029 0.142685
v 3.243450 3.802205 0.144006
v 3.243510 3.802203 0.142802
v 3.248577 3.797745 0.144527
v 3.246878 3.799008 0.149656
v 3.245693 3.800021 0.150008
v 3.244309 3.801534 0.142351
vn 0.6508 0.7586 0.0308
vn 0.6422 0.7659 0.0301
vn 0.6528 0.7569 0.0307
vn 0.6547 0.7552 0.0308
vn 0.6550 0.7550 0.0309
vn 0.6424 0.7657 0.0301
vn 0.6546 0.7553 0.0310
vn 0.6547 0.7553 0.0309
usemtl None
s 1
f 2//1 3//2 1//3
f 5//4 8//5 1//3
f 2//1 4//6 3//2
f 2//1 1//3 8//5
f 1//3 7//7 6//8
f 5//4 1//3 6//8
