# Blender v2.81 (sub 16) OBJ File: ''
# www.blender.org
mtllib Guinea Bissau.mtl
o 0_Guinea_Bissau_sphere.001
v 4.718927 0.958647 1.344679
v 4.717525 0.959020 1.349526
v 4.717373 0.961416 1.348275
v 4.716944 0.962125 1.349312
v 4.715949 0.969346 1.347505
v 4.715936 0.970465 1.346709
v 4.717089 0.967771 1.344525
v 4.717391 0.966656 1.344263
v 4.718681 0.961019 1.343793
vn 0.9460 0.1948 0.2589
vn 0.9460 0.1949 0.2589
vn 0.9460 0.1950 0.2587
vn 0.9460 0.1950 0.2589
vn 0.9460 0.1949 0.2590
vn 0.9460 0.1950 0.2590
vn 0.9461 0.1950 0.2586
vn 0.9460 0.1949 0.2591
vn 0.9460 0.1949 0.2588
usemtl None
s 1
f 1//1 9//2 3//3
f 9//2 8//4 3//3
f 8//4 7//5 5//6
f 3//3 8//4 4//7
f 7//5 6//8 5//6
f 5//6 4//7 8//4
f 3//3 2//9 1//1
o 1_Guinea_Bissau_sphere.001
v 4.711054 0.964972 1.368694
v 4.712292 0.958487 1.369054
v 4.710831 0.962080 1.371377
v 4.710379 0.963722 1.371735
v 4.712545 0.957830 1.368625
v 4.711143 0.965148 1.368235
v 4.711558 0.965207 1.366675
v 4.711688 0.968286 1.363882
v 4.712177 0.970349 1.360539
v 4.712443 0.971009 1.359066
v 4.712927 0.970865 1.357407
v 4.714557 0.964047 1.356587
v 4.714663 0.961190 1.358352
v 4.714115 0.959082 1.361942
vn 0.9429 0.1948 0.2701
vn 0.9375 0.1949 0.2883
vn 0.9444 0.1952 0.2647
vn 0.9460 0.1949 0.2588
vn 0.9465 0.1923 0.2589
vn 0.9375 0.1950 0.2883
vn 0.9459 0.1958 0.2587
vn 0.9460 0.1950 0.2588
vn 0.9460 0.1950 0.2587
vn 0.9460 0.1951 0.2587
vn 0.9460 0.1952 0.2587
vn 0.9456 0.1971 0.2586
usemtl None
s 1
f 10//10 12//11 11//12
f 16//13 15//14 10//10
f 10//10 13//15 12//11
f 10//10 11//12 16//13
f 11//12 14//16 23//13
f 16//13 11//12 23//13
f 23//13 22//17 17//17
f 22//17 21//18 17//17
f 21//18 20//19 18//20
f 20//19 19//21 18//20
f 18//20 17//17 21//18
f 17//17 16//13 23//13
o 2_Guinea_Bissau_sphere.001
v 4.721041 0.968866 1.329252
v 4.719963 0.969525 1.332700
v 4.719481 0.970579 1.333663
v 4.718832 0.976932 1.331250
v 4.719132 0.979754 1.328028
v 4.720250 0.979288 1.324294
v 4.720718 0.978428 1.323228
v 4.720987 0.975993 1.324082
v 4.720923 0.973971 1.325836
v 4.720370 0.972365 1.329071
vn 0.9460 0.1950 0.2588
vn 0.9460 0.1952 0.2587
vn 0.9460 0.1950 0.2587
vn 0.9460 0.1949 0.2588
vn 0.9460 0.1949 0.2587
usemtl None
s 1
f 32//22 31//22 28//22
f 30//23 29//24 31//22
f 29//24 28//22 31//22
f 28//22 27//24 32//22
f 27//24 26//25 33//24
f 26//25 25//25 33//24
f 25//25 24//26 33//24
f 33//24 32//22 27//24
o 3_Guinea_Bissau_sphere.001
v 4.711731 0.991135 1.346503
v 4.710395 0.992417 1.350420
v 4.709343 0.994815 1.352462
v 4.708617 0.999104 1.351884
v 4.708690 1.005174 1.347043
v 4.709959 1.004372 1.343009
v 4.712283 0.993808 1.342474
vn 0.9460 0.1950 0.2587
vn 0.9460 0.1950 0.2588
vn 0.9461 0.1949 0.2587
vn 0.9460 0.1953 0.2586
usemtl None
s 1
f 37//27 35//28 40//28
f 40//28 39//27 37//27
f 39//27 38//29 37//27
f 37//27 36//30 35//28
f 40//28 35//28 34//28
o 4_Guinea_Bissau_sphere.001
v 4.719151 0.997877 1.314301
v 4.717552 0.999565 1.318877
v 4.718045 1.006755 1.311653
v 4.719028 1.008016 1.307113
v 4.720041 1.002479 1.307580
v 4.719328 1.001300 1.311073
v 4.718981 0.999871 1.313420
vn 0.9460 0.1950 0.2588
vn 0.9460 0.1950 0.2589
vn 0.9460 0.1951 0.2588
vn 0.9460 0.1951 0.2589
vn 0.9460 0.1951 0.2587
vn 0.9461 0.1949 0.2588
usemtl None
s 1
f 46//31 45//32 43//33
f 44//34 43//33 45//32
f 43//33 42//35 47//35
f 46//31 43//33 47//35
f 42//35 41//36 47//35
o 5_Guinea_Bissau_sphere.001
v 4.704310 1.018991 1.352325
v 4.702624 1.020147 1.357544
v 4.700315 1.026381 1.360898
v 4.699667 1.028998 1.361131
v 4.702437 1.029808 1.350346
v 4.703321 1.029405 1.347443
vn 0.9429 0.2104 0.2579
vn 0.9430 0.2104 0.2579
vn 0.9429 0.2105 0.2579
vn 0.9430 0.2105 0.2579
vn 0.9429 0.2108 0.2579
vn 0.9429 0.2106 0.2579
usemtl None
s 1
f 49//37 48//38 52//39
f 53//40 52//39 48//38
f 52//39 51//41 50//42
f 49//37 52//39 50//42
o 6_Guinea_Bissau_sphere.001
v 4.726275 1.090714 1.213507
v 4.742290 1.013934 1.217619
v 4.704865 1.090714 1.291767
v 4.739559 1.090714 1.158176
v 4.717860 1.013934 1.306922
v 4.724814 1.097225 1.213132
v 4.753462 1.013934 1.171087
v 4.744153 1.004261 1.218098
v 4.688485 1.077858 1.362136
v 4.697387 1.034810 1.364723
v 4.743490 1.001599 1.222528
v 4.740791 0.997753 1.235294
v 4.739081 0.997471 1.241756
v 4.738678 0.995190 1.244950
v 4.738611 0.988645 1.250127
v 4.740369 0.960089 1.265217
v 4.740446 0.953244 1.270094
v 4.740307 0.948779 1.273964
v 4.737998 0.954846 1.277835
v 4.736734 0.966046 1.274013
v 4.735811 0.965885 1.277511
v 4.735647 0.956821 1.284938
v 4.734768 0.956541 1.288365
v 4.732833 0.967261 1.287357
v 4.731705 0.967666 1.291178
v 4.730628 0.966894 1.295693
v 4.727850 0.972492 1.301631
v 4.726874 0.976672 1.302051
v 4.725894 0.982521 1.301226
v 4.726223 0.986242 1.297220
v 4.725782 0.987816 1.297644
v 4.724689 0.988252 1.301308
v 4.723763 0.987245 1.305454
v 4.722733 0.989008 1.307891
v 4.722416 0.996594 1.303335
v 4.725176 1.002963 1.288448
v 4.727058 1.003624 1.281068
v 4.728831 1.005064 1.273502
v 4.726667 1.010518 1.277303
v 4.723816 1.012676 1.286096
v 4.722157 1.011163 1.293303
v 4.721948 1.007208 1.297048
v 4.720868 1.006557 1.301485
v 4.717057 1.015832 1.308308
v 4.716125 1.020498 1.307905
v 4.715734 1.026001 1.304848
v 4.716379 1.028459 1.300485
v 4.721015 1.028387 1.283594
v 4.722119 1.031502 1.277019
v 4.722711 1.032061 1.274398
v 4.722785 1.034886 1.271822
v 4.722254 1.036761 1.272231
v 4.721486 1.036867 1.274953
v 4.720521 1.033200 1.281471
v 4.714674 1.034587 1.301713
v 4.713365 1.032375 1.308306
v 4.712022 1.023923 1.320109
v 4.709187 1.019263 1.334276
v 4.706014 1.021255 1.344248
v 4.704551 1.032595 1.340341
v 4.703835 1.034148 1.341694
v 4.702580 1.036009 1.344762
v 4.699274 1.032437 1.359764
v 4.689604 1.078527 1.357496
v 4.696814 1.076802 1.332551
v 4.701844 1.081246 1.310540
v 4.704525 1.089644 1.293885
v 4.751816 1.010803 1.180609
v 4.748642 1.009754 1.194722
v 4.745650 1.010468 1.206577
v 4.744897 1.007896 1.211907
v 4.694942 1.037634 1.370601
v 4.692298 1.043891 1.374614
v 4.690907 1.051752 1.373381
v 4.691410 1.057092 1.367833
v 4.691117 1.059742 1.366845
v 4.689320 1.060222 1.372335
v 4.686885 1.056877 1.382699
v 4.677343 1.069693 1.404330
v 4.678552 1.070509 1.399805
v 4.682230 1.069182 1.388822
v 4.684520 1.070843 1.380162
v 4.685811 1.073563 1.373973
v 4.687560 1.077334 1.365526
v 4.706900 1.097382 1.278478
v 4.712206 1.097317 1.259138
v 4.717891 1.097263 1.238405
v 4.725840 1.097182 1.208899
v 4.731526 1.097038 1.185358
v 4.738231 1.096876 1.157595
v 4.744266 1.072961 1.154947
v 4.745197 1.066080 1.157417
v 4.745323 1.063355 1.159403
v 4.745063 1.061785 1.161933
v 4.743261 1.061854 1.169375
v 4.742789 1.060490 1.172600
v 4.742166 1.057789 1.177688
v 4.742794 1.054634 1.177983
v 4.744374 1.051615 1.174187
v 4.746039 1.047379 1.171155
v 4.747643 1.044066 1.167533
v 4.750005 1.040230 1.161231
v 4.751040 1.035987 1.160834
v 4.753325 1.025257 1.161216
v 4.754992 1.016892 1.161983
v 4.739708 1.089979 1.158233
v 4.742919 1.080225 1.153854
vn 0.9396 0.2257 0.2571
vn 0.9397 0.2257 0.2571
vn 0.9424 0.2128 0.2578
vn 0.9430 0.2101 0.2579
vn 0.9429 0.2105 0.2579
vn 0.9460 0.1950 0.2588
vn 0.9460 0.1951 0.2588
vn 0.9485 0.2028 0.2435
vn 0.9537 0.1950 0.2289
vn 0.9536 0.1954 0.2289
vn 0.9344 0.2105 0.2875
vn 0.9344 0.2105 0.2874
vn 0.9473 0.2257 0.2274
vn 0.9452 0.2181 0.2427
vn 0.9506 0.2104 0.2282
vn 0.9505 0.2110 0.2282
vn 0.9435 0.2258 0.2423
vn 0.9430 0.2106 0.2577
vn 0.9438 0.2061 0.2582
vn 0.9429 0.2104 0.2579
vn 0.9427 0.2112 0.2580
vn 0.9429 0.2106 0.2579
vn 0.9428 0.2108 0.2582
vn 0.9391 0.2105 0.2713
vn 0.9399 0.2105 0.2687
vn 0.9429 0.2105 0.2580
vn 0.9429 0.2107 0.2579
vn 0.9430 0.2103 0.2579
vn 0.9460 0.1949 0.2588
vn 0.9486 0.1950 0.2491
vn 0.9460 0.1952 0.2588
vn 0.9460 0.1953 0.2588
vn 0.9460 0.1949 0.2587
vn 0.9459 0.1959 0.2587
vn 0.9460 0.1950 0.2589
vn 0.9460 0.1951 0.2586
vn 0.9461 0.1950 0.2586
vn 0.9460 0.1950 0.2587
vn 0.9460 0.1949 0.2589
vn 0.9509 0.2089 0.2283
vn 0.9344 0.2104 0.2875
vn 0.9343 0.2106 0.2874
vn 0.9343 0.2107 0.2874
vn 0.9488 0.2188 0.2278
vn 0.9472 0.2258 0.2274
vn 0.9506 0.2105 0.2282
vn 0.9506 0.2102 0.2282
vn 0.9508 0.2092 0.2285
vn 0.9505 0.2107 0.2282
vn 0.9507 0.2103 0.2279
usemtl None
s 1
f 139//43 138//44 56//45
f 113//46 110//47 109//47
f 77//48 83//48 78//49
f 55//50 124//51 123//52
f 129//53 137//53 136//54
f 142//55 141//55 54//56
f 149//57 148//57 159//58
f 56//45 54//56 139//43
f 54//56 59//59 140//43
f 54//56 140//43 139//43
f 55//50 54//56 105//47
f 54//56 56//45 105//47
f 56//45 120//47 106//47
f 105//47 56//45 106//47
f 97//60 58//61 98//47
f 58//61 55//50 101//62
f 99//63 98//47 100//47
f 101//62 100//47 58//61
f 100//47 98//47 58//61
f 103//64 102//65 101//62
f 120//47 119//47 108//47
f 118//47 117//47 115//47
f 117//47 62//66 63//67
f 115//47 117//47 63//67
f 119//47 118//47 109//47
f 103//64 101//62 55//50
f 106//47 120//47 108//47
f 63//67 116//68 115//47
f 104//69 103//64 55//50
f 105//47 104//69 55//50
f 115//47 114//70 118//47
f 113//46 112//64 111//47
f 114//70 113//46 109//47
f 108//47 107//47 106//47
f 108//47 119//47 109//47
f 113//46 111//47 110//47
f 109//47 118//47 114//70
f 58//61 96//71 95//48
f 58//61 95//48 94//49
f 64//48 61//72 55//50
f 66//48 65//73 55//50
f 65//73 64//48 55//50
f 58//61 94//49 93//49
f 55//50 58//61 93//49
f 55//50 93//49 92//74
f 55//50 92//74 66//48
f 92//74 91//49 66//48
f 90//48 89//75 83//48
f 89//75 88//48 84//71
f 84//71 88//48 85//48
f 66//48 91//49 67//48
f 91//49 90//48 73//48
f 67//48 91//49 68//48
f 68//48 91//49 73//48
f 88//48 87//74 85//48
f 87//74 86//76 85//48
f 70//48 69//77 73//48
f 69//77 68//48 73//48
f 72//48 71//48 70//48
f 73//48 72//48 70//48
f 89//75 84//71 83//48
f 83//48 82//78 81//48
f 76//79 75//80 77//48
f 75//80 74//48 77//48
f 74//48 73//48 90//48
f 90//48 83//48 74//48
f 83//48 81//48 78//49
f 74//48 83//48 77//48
f 81//48 80//81 78//49
f 80//81 79//73 78//49
f 55//50 61//72 124//51
f 123//52 122//51 55//50
f 122//51 121//51 60//82
f 55//50 122//51 60//82
f 63//67 62//66 129//53
f 62//66 137//53 129//53
f 126//53 125//54 127//54
f 125//54 63//67 128//53
f 128//53 127//54 125//54
f 134//83 133//84 131//54
f 133//84 132//85 131//54
f 131//54 130//53 135//53
f 134//83 131//54 135//53
f 129//53 128//53 63//67
f 130//53 129//53 136//54
f 135//53 130//53 136//54
f 54//56 57//86 142//55
f 57//86 143//87 142//55
f 141//55 59//59 54//56
f 55//50 60//82 153//57
f 60//82 158//88 157//88
f 154//88 157//88 156//88
f 60//82 157//88 154//88
f 156//88 155//89 154//88
f 153//57 152//90 151//57
f 154//88 153//57 60//82
f 57//86 54//56 159//58
f 54//56 55//50 151//57
f 159//58 54//56 149//57
f 144//88 160//88 159//58
f 150//57 54//56 151//57
f 55//50 153//57 151//57
f 145//91 144//88 148//57
f 144//88 159//58 148//57
f 147//57 146//92 145//91
f 148//57 147//57 145//91
f 54//56 150//57 149//57
