# Blender v2.81 (sub 16) OBJ File: ''
# www.blender.org
mtllib Haiti.mtl
o 0_Haiti_sphere.001
v 1.360423 1.619585 4.530078
v 1.382436 1.619585 4.523306
v 1.360636 1.623863 4.528441
v 1.368888 1.624958 4.525500
v 1.377178 1.622048 4.524019
v 1.398499 1.603429 4.524004
v 1.377637 1.610373 4.527997
v 1.360409 1.619152 4.530234
v 1.389598 1.616199 4.522285
v 1.399317 1.609269 4.521714
vn 0.2774 0.3314 0.9018
vn 0.2774 0.3313 0.9018
vn 0.2787 0.3233 0.9043
vn 0.2789 0.3164 0.9066
vn 0.2787 0.3186 0.9060
vn 0.2789 0.3164 0.9067
vn 0.2774 0.3312 0.9018
vn 0.2800 0.3166 0.9062
vn 0.2788 0.3165 0.9067
vn 0.2787 0.3165 0.9067
usemtl None
s 1
f 4//1 3//2 1//3
f 9//4 2//5 7//6
f 1//3 2//5 5//7
f 5//7 4//1 1//3
f 2//5 1//3 7//6
f 1//3 8//8 7//6
f 7//6 6//9 9//4
f 6//9 10//10 9//4
o 1_Haiti_sphere.001
v 1.461777 1.619585 4.498898
v 1.322270 1.592422 4.551296
v 1.325569 1.556987 4.562650
v 1.454402 1.687557 4.476197
v 1.479704 1.619585 4.492760
v 1.410010 1.619585 4.514823
v 1.343626 1.693688 4.508024
v 1.422840 1.693688 4.483654
v 1.464356 1.594569 4.506836
v 1.467658 1.562549 4.516996
v 1.467519 1.562626 4.517012
v 1.462778 1.563972 4.518001
v 1.427706 1.563150 4.529077
v 1.423874 1.562172 4.530598
v 1.420978 1.560387 4.532112
v 1.417805 1.559489 4.533401
v 1.408298 1.557838 4.536902
v 1.398727 1.557449 4.539982
v 1.375811 1.561923 4.545470
v 1.366694 1.564264 4.547459
v 1.357621 1.565735 4.549736
v 1.347388 1.565299 4.553036
v 1.337299 1.563964 4.556606
v 1.329406 1.560816 4.560133
v 1.331275 1.591821 4.548736
v 1.339153 1.588241 4.547562
v 1.393032 1.582615 4.532950
v 1.403325 1.580886 4.530387
v 1.407200 1.581496 4.528982
v 1.410435 1.583665 4.527230
v 1.412924 1.587574 4.525100
v 1.415926 1.590502 4.523154
v 1.431657 1.591190 4.518075
v 1.434853 1.592510 4.516631
v 1.436756 1.596596 4.514619
v 1.436258 1.600829 4.513295
v 1.426397 1.606487 4.514354
v 1.410634 1.618938 4.514857
v 1.467522 1.685116 4.472611
v 1.471661 1.686851 4.470550
v 1.473628 1.684393 4.470788
v 1.479013 1.667778 4.475111
v 1.479964 1.662460 4.476759
v 1.477240 1.654447 4.480666
v 1.478117 1.651266 4.481545
v 1.486679 1.643831 4.481374
v 1.487114 1.641186 4.482206
v 1.486496 1.638479 4.483423
v 1.480641 1.631460 4.488032
v 1.476078 1.626677 4.491369
v 1.478298 1.621159 4.492657
v 1.458022 1.687207 4.475087
v 1.396350 1.633530 4.513903
v 1.401332 1.638453 4.510561
v 1.398286 1.647457 4.508191
v 1.399476 1.655784 4.504766
v 1.401651 1.663966 4.501091
v 1.388345 1.670967 4.502613
v 1.372744 1.677914 4.504860
v 1.351877 1.680146 4.510460
v 1.345356 1.681923 4.511814
v 1.341533 1.687147 4.511070
v 1.436983 1.689039 4.481011
v 1.323770 1.555160 4.563774
v 1.323123 1.549872 4.565780
v 1.319563 1.548519 4.567222
v 1.310425 1.556872 4.566833
v 1.302202 1.562785 4.567037
v 1.293080 1.567234 4.567993
v 1.274559 1.573577 4.570867
v 1.270955 1.577445 4.570515
v 1.269073 1.582154 4.569400
v 1.275018 1.596629 4.562768
v 1.283001 1.599283 4.559666
v 1.287474 1.599810 4.558260
v 1.297802 1.598037 4.556048
v 1.308021 1.594794 4.554374
v 1.317262 1.592681 4.552577
v 1.343791 1.694166 4.507789
v 1.350082 1.697995 4.504375
v 1.357466 1.700388 4.501180
v 1.365142 1.702020 4.498189
v 1.383846 1.703984 4.491677
v 1.402878 1.701798 4.486666
v 1.419898 1.694640 4.484191
v 1.483003 1.615880 4.492937
v 1.483983 1.611487 4.494151
v 1.483310 1.605657 4.496437
v 1.477732 1.598451 4.500887
v 1.474682 1.595878 4.502839
v 1.465295 1.595595 4.506153
v 1.469783 1.587474 4.507480
v 1.475904 1.579485 4.508201
v 1.485232 1.573239 4.507210
v 1.487782 1.567392 4.508399
v 1.486277 1.561876 4.510859
v 1.487332 1.548250 4.515303
v 1.480014 1.554886 4.515469
v 1.472118 1.560443 4.516212
vn 0.2774 0.3312 0.9018
vn 0.2774 0.3313 0.9018
vn 0.2773 0.3329 0.9013
vn 0.2876 0.3165 0.9039
vn 0.2923 0.3239 0.8998
vn 0.2789 0.3164 0.9066
vn 0.3055 0.3312 0.8927
vn 0.3056 0.3313 0.8926
vn 0.2502 0.3164 0.9150
vn 0.2503 0.3164 0.9150
vn 0.2760 0.3460 0.8967
vn 0.2750 0.3464 0.8968
vn 0.2767 0.3368 0.9000
vn 0.3074 0.3164 0.8974
vn 0.3073 0.3164 0.8974
vn 0.3072 0.3164 0.8975
vn 0.2778 0.3273 0.9031
vn 0.2907 0.3313 0.8976
vn 0.2773 0.3313 0.9019
vn 0.2777 0.3313 0.9017
vn 0.2776 0.3312 0.9018
vn 0.2640 0.3165 0.9111
vn 0.2578 0.3165 0.9129
vn 0.2789 0.3164 0.9067
vn 0.2790 0.3164 0.9066
vn 0.2788 0.3165 0.9067
vn 0.2787 0.3165 0.9067
vn 0.2789 0.3165 0.9066
vn 0.2788 0.3164 0.9067
vn 0.2789 0.3168 0.9066
vn 0.2787 0.3161 0.9069
vn 0.2977 0.3163 0.9007
vn 0.3068 0.3208 0.8961
vn 0.3056 0.3314 0.8926
vn 0.3056 0.3312 0.8927
vn 0.3057 0.3313 0.8926
vn 0.3052 0.3314 0.8928
vn 0.3054 0.3313 0.8927
vn 0.2503 0.3165 0.9149
vn 0.2503 0.3165 0.9150
vn 0.2500 0.3165 0.9150
vn 0.2504 0.3164 0.9149
vn 0.2503 0.3164 0.9149
vn 0.2513 0.3164 0.9147
vn 0.2758 0.3464 0.8966
vn 0.2758 0.3459 0.8968
vn 0.2759 0.3459 0.8968
vn 0.2759 0.3460 0.8967
vn 0.3073 0.3164 0.8975
vn 0.3073 0.3165 0.8974
vn 0.3071 0.3164 0.8975
usemtl None
s 1
f 68//11 67//12 18//13
f 19//14 11//15 46//16
f 55//17 54//18 11//15
f 87//19 79//20 78//20
f 90//21 89//22 17//23
f 109//24 106//25 104//26
f 11//15 101//25 99//26
f 16//27 11//15 64//12
f 11//15 14//28 73//12
f 73//12 18//13 67//12
f 18//13 17//23 69//12
f 11//15 73//12 67//12
f 64//12 11//15 66//11
f 64//12 63//29 16//27
f 66//11 65//30 64//12
f 67//12 66//11 11//15
f 18//13 69//12 68//11
f 17//23 72//31 71//12
f 69//12 17//23 70//11
f 71//12 70//11 17//23
f 12//32 13//33 34//34
f 12//32 34//34 33//16
f 36//35 35//36 33//16
f 35//36 12//32 33//16
f 38//16 37//16 28//16
f 37//16 36//35 30//16
f 30//16 36//35 31//34
f 36//35 33//16 32//16
f 36//35 32//16 31//34
f 39//35 38//16 27//16
f 37//16 30//16 29//34
f 29//34 28//16 37//16
f 38//16 28//16 27//16
f 42//35 41//35 23//36
f 41//35 40//34 23//36
f 43//37 42//35 23//36
f 40//34 39//35 24//38
f 27//16 26//39 39//35
f 39//35 26//39 25//34
f 25//34 24//38 39//35
f 23//36 40//34 24//38
f 44//39 43//37 23//36
f 45//38 44//39 19//14
f 44//39 23//36 22//34
f 44//39 22//34 19//14
f 48//40 47//16 11//15
f 47//16 46//16 11//15
f 46//16 45//38 19//14
f 21//41 20//42 19//14
f 22//34 21//41 19//14
f 16//27 48//40 11//15
f 11//15 15//43 61//44
f 60//18 59//18 55//17
f 59//18 58//18 55//17
f 11//15 61//44 60//18
f 62//45 14//28 54//18
f 14//28 11//15 54//18
f 51//45 50//45 49//45
f 49//45 62//45 52//46
f 11//15 60//18 55//17
f 58//18 57//47 56//48
f 58//18 56//48 55//17
f 51//45 49//45 52//46
f 62//45 54//18 52//46
f 53//44 52//46 54//18
f 13//33 12//32 88//20
f 87//19 86//19 79//20
f 86//19 85//20 79//20
f 13//33 88//20 78//20
f 88//20 87//19 78//20
f 13//33 78//20 77//49
f 76//50 75//51 74//20
f 74//20 13//33 77//49
f 85//20 84//20 79//20
f 84//20 83//19 80//52
f 83//19 82//53 80//52
f 82//53 81//54 80//52
f 80//52 79//20 84//20
f 76//50 74//20 77//49
f 17//23 18//13 95//55
f 95//55 94//56 93//57
f 93//57 92//58 95//55
f 92//58 91//21 17//23
f 95//55 92//58 17//23
f 91//21 90//21 17//23
f 19//14 20//42 102//26
f 20//42 109//24 103//59
f 102//26 20//42 103//59
f 108//60 107//25 106//25
f 109//24 108//60 106//25
f 103//59 109//24 104//26
f 106//25 105//61 104//26
f 11//15 19//14 101//25
f 101//25 100//26 99//26
f 99//26 98//26 11//15
f 98//26 97//26 15//43
f 11//15 98//26 15//43
f 97//26 96//25 15//43
o 2_Haiti_sphere.001
v 1.402915 1.711072 4.483076
v 1.401971 1.708724 4.484272
v 1.393894 1.710151 4.486207
v 1.385431 1.712780 4.487795
v 1.382825 1.712143 4.488843
v 1.381148 1.712449 4.489241
v 1.376073 1.714973 4.489828
v 1.380088 1.716897 4.487850
v 1.384345 1.717538 4.486293
v 1.389110 1.717421 4.484873
v 1.399530 1.712966 4.483387
vn 0.2758 0.3460 0.8968
vn 0.2759 0.3461 0.8967
vn 0.2758 0.3461 0.8967
vn 0.2759 0.3460 0.8967
vn 0.2760 0.3460 0.8967
vn 0.2759 0.3460 0.8968
usemtl None
s 1
f 113//62 112//62 119//62
f 110//63 120//64 111//63
f 120//64 119//62 112//62
f 111//63 120//64 112//62
f 119//62 118//65 113//62
f 118//65 117//66 114//67
f 114//67 117//66 115//62
f 117//66 116//65 115//62
f 114//67 113//62 118//65
