# Blender v2.81 (sub 16) OBJ File: ''
# www.blender.org
mtllib Heard Island and McDonald Islands.mtl
o 0_Heard_Island_and_McDonald_Islands_sphere.001
v 0.858394 -3.998425 -2.876485
v 0.838783 -3.998425 -2.882518
v 0.837458 -3.998696 -2.882543
v 0.837016 -3.999866 -2.881021
v 0.846528 -4.002738 -2.874027
v 0.852688 -4.002680 -2.872215
v 0.856033 -4.000716 -2.873968
v 0.837219 -3.999965 -2.880818
v 0.841478 -4.000305 -2.879028
v 0.835408 -3.999069 -2.882580
v 0.862235 -3.994569 -2.880591
v 0.864944 -3.994115 -2.880379
v 0.867178 -3.992390 -2.882056
v 0.867588 -3.991680 -2.882904
v 0.865063 -3.991197 -2.884342
v 0.860223 -3.992969 -2.883402
v 0.849746 -3.994486 -2.884546
v 0.841195 -3.997922 -2.882467
vn 0.1751 -0.8033 -0.5692
vn 0.1746 -0.8043 -0.5680
vn 0.1677 -0.8042 -0.5701
vn 0.1688 -0.8043 -0.5697
vn 0.1567 -0.8043 -0.5732
vn 0.1784 -0.7949 -0.5799
vn 0.1770 -0.7985 -0.5754
vn 0.1747 -0.8044 -0.5678
vn 0.1747 -0.8043 -0.5680
vn 0.1747 -0.8044 -0.5677
vn 0.1784 -0.7949 -0.5798
vn 0.1784 -0.7948 -0.5800
usemtl None
s 1
f 2//1 8//2 3//3
f 4//4 10//5 3//3
f 11//6 1//7 16//6
f 2//1 1//7 9//8
f 1//7 7//9 5//8
f 9//8 1//7 5//8
f 7//9 6//10 5//8
f 9//8 8//2 2//1
f 8//2 4//4 3//3
f 1//7 2//1 18//11
f 18//11 17//6 1//7
f 17//6 16//6 1//7
f 16//6 15//6 11//6
f 15//6 14//11 13//6
f 11//6 15//6 12//12
f 13//6 12//12 15//6
