# Blender v2.81 (sub 16) OBJ File: ''
# www.blender.org
mtllib Honduras.mtl
o 0_Honduras_sphere.001
v 0.453862 1.319363 4.801375
v 0.302823 1.319363 4.813262
v 0.304086 1.243447 4.833349
v 0.151486 1.319363 4.820398
v 0.152117 1.243447 4.840515
v 0.455231 1.264481 4.815861
v 0.104089 1.319363 4.821143
v 0.405543 1.243447 4.825364
v 0.452658 1.364734 4.788637
v 0.152401 1.207031 4.849558
v 0.190740 1.167225 4.857650
v 0.276152 1.167225 4.853622
v 0.302095 1.360481 4.801689
v 0.519545 1.319363 4.794124
v 0.540529 1.319363 4.791807
v 0.545731 1.319363 4.791233
v 0.151173 1.354712 4.810435
v 0.058678 1.243447 4.841983
v 0.304935 1.189041 4.846839
v 0.110657 1.324320 4.819642
v 0.123310 1.334499 4.816573
v 0.137411 1.345847 4.813151
v 0.145185 1.352499 4.811153
v 0.148783 1.355381 4.810284
v 0.287110 1.190435 4.847333
v 0.276679 1.189442 4.848072
v 0.274554 1.187971 4.848538
v 0.273627 1.183965 4.849578
v 0.274301 1.178578 4.850886
v 0.190298 1.167627 4.857571
v 0.188129 1.168936 4.857347
v 0.188730 1.173922 4.856079
v 0.189999 1.179821 4.854552
v 0.193522 1.193583 4.850964
v 0.192130 1.195982 4.850432
v 0.186100 1.200143 4.849682
v 0.178505 1.200585 4.849930
v 0.170139 1.199319 4.850640
v 0.166085 1.201446 4.850302
v 0.162514 1.206183 4.849292
v 0.156529 1.208483 4.849002
v 0.456117 1.361507 4.789171
v 0.461764 1.360824 4.788741
v 0.466086 1.362363 4.787827
v 0.467221 1.363780 4.787301
v 0.461804 1.365297 4.787468
v 0.459304 1.367441 4.787136
v 0.480975 1.363162 4.785957
v 0.522524 1.330705 4.790577
v 0.523457 1.328081 4.791219
v 0.505819 1.337681 4.790442
v 0.496648 1.336954 4.791662
v 0.494303 1.335405 4.792359
v 0.494968 1.330174 4.793770
v 0.495886 1.327721 4.794364
v 0.499833 1.327433 4.794011
v 0.502700 1.328839 4.793295
v 0.509922 1.327118 4.792986
v 0.514778 1.323643 4.793436
v 0.531017 1.324720 4.791337
v 0.533497 1.324954 4.790998
v 0.378607 1.369564 4.793099
v 0.405344 1.371157 4.790545
v 0.414885 1.375853 4.788465
v 0.421085 1.377213 4.787592
v 0.448712 1.368366 4.787920
v 0.305737 1.359928 4.801559
v 0.320264 1.368443 4.798008
v 0.329658 1.370143 4.796788
v 0.340646 1.374128 4.794796
v 0.339089 1.378232 4.793757
v 0.336401 1.380091 4.793443
v 0.353300 1.378261 4.792631
v 0.405445 1.242135 4.825699
v 0.407040 1.238500 4.826479
v 0.404664 1.235829 4.827332
v 0.398309 1.234138 4.828253
v 0.390872 1.228394 4.830270
v 0.382355 1.218633 4.833372
v 0.373816 1.211818 4.835742
v 0.365265 1.207941 4.837381
v 0.361188 1.203664 4.838768
v 0.361566 1.198930 4.839918
v 0.361071 1.197467 4.840322
v 0.359431 1.196895 4.840593
v 0.356634 1.196265 4.840971
v 0.339804 1.206548 4.839733
v 0.334904 1.213715 4.838332
v 0.330799 1.212642 4.838923
v 0.325629 1.209040 4.840227
v 0.318413 1.200993 4.842801
v 0.310692 1.190068 4.846130
v 0.306889 1.188868 4.846729
v 0.145957 1.204677 4.850244
v 0.134794 1.198958 4.851840
v 0.131363 1.196871 4.852413
v 0.128516 1.197139 4.852391
v 0.127217 1.201396 4.851354
v 0.126616 1.206448 4.850108
v 0.125915 1.207693 4.849810
v 0.119922 1.209472 4.849462
v 0.112931 1.210767 4.849250
v 0.109367 1.212165 4.848959
v 0.105983 1.215559 4.848169
v 0.097617 1.220004 4.847196
v 0.095706 1.223293 4.846408
v 0.084517 1.230829 4.844712
v 0.082247 1.234565 4.843820
v 0.079676 1.237289 4.843183
v 0.074308 1.240769 4.842402
v 0.070119 1.239942 4.842674
v 0.055981 1.244265 4.841808
v 0.053838 1.244658 4.841738
v 0.055785 1.248430 4.840707
v 0.060212 1.254261 4.839092
v 0.069896 1.260756 4.837218
v 0.070680 1.266005 4.835814
v 0.068108 1.276087 4.833181
v 0.065543 1.282613 4.831491
v 0.066902 1.285514 4.830701
v 0.069877 1.297268 4.827538
v 0.072204 1.300007 4.826776
v 0.086179 1.305952 4.824979
v 0.087471 1.306764 4.824744
v 0.098468 1.315092 4.822363
v 0.277443 1.159244 4.855413
v 0.279150 1.151262 4.857183
v 0.277605 1.148797 4.857829
v 0.272279 1.148408 4.858170
v 0.265387 1.147250 4.858763
v 0.261640 1.143590 4.859789
v 0.260790 1.139849 4.860697
v 0.260484 1.134572 4.861935
v 0.258369 1.129157 4.863291
v 0.254130 1.125243 4.864399
v 0.249913 1.123853 4.864921
v 0.226304 1.122792 4.866280
v 0.226608 1.131762 4.864185
v 0.219757 1.135408 4.863662
v 0.215802 1.142881 4.862115
v 0.212365 1.147947 4.861102
v 0.213457 1.150979 4.860347
v 0.213085 1.154582 4.859529
v 0.203462 1.157364 4.859337
v 0.194484 1.155204 4.860262
v 0.189297 1.156625 4.860177
v 0.185482 1.158557 4.859909
v 0.191986 1.162979 4.858576
v 0.192417 1.165679 4.857929
v 0.520706 1.318305 4.794277
v 0.524327 1.312503 4.795425
v 0.528054 1.312397 4.795042
v 0.531614 1.315909 4.793713
v 0.538507 1.316328 4.792840
v 0.543119 1.312423 4.793372
v 0.546288 1.312653 4.792961
v 0.541661 1.318720 4.791854
v 0.557015 1.314167 4.791373
v 0.563993 1.300594 4.794222
v 0.569555 1.297515 4.794430
v 0.575389 1.293385 4.794887
v 0.553781 1.294605 4.796947
v 0.543685 1.291981 4.798761
v 0.539399 1.286122 4.800797
v 0.535641 1.283489 4.801914
v 0.532427 1.284096 4.802107
v 0.526015 1.281789 4.803430
v 0.516405 1.276571 4.805883
v 0.507652 1.274613 4.807372
v 0.499768 1.275887 4.807902
v 0.497526 1.274608 4.808490
v 0.496960 1.272900 4.809009
v 0.495824 1.271256 4.809573
v 0.492790 1.270356 4.810147
v 0.489285 1.270828 4.810409
v 0.485310 1.272684 4.810352
v 0.483252 1.271909 4.810786
v 0.483117 1.268515 4.811707
v 0.481017 1.267605 4.812181
v 0.476962 1.269221 4.812198
v 0.472470 1.267987 4.813023
v 0.467547 1.263962 4.814640
v 0.460507 1.263117 4.815642
v 0.451346 1.265446 4.815910
v 0.444188 1.269849 4.815302
v 0.439034 1.276318 4.813988
v 0.433002 1.277933 4.814033
v 0.422629 1.273075 4.816142
v 0.418365 1.267425 4.817979
v 0.417494 1.263971 4.818966
v 0.418585 1.260854 4.819709
v 0.416707 1.258765 4.820413
v 0.411854 1.257702 4.821077
v 0.408235 1.253878 4.822379
v 0.405842 1.247241 4.824332
v 0.156964 1.353024 4.810638
v 0.163331 1.358348 4.808836
v 0.167022 1.360147 4.808154
v 0.175625 1.366537 4.805944
v 0.178298 1.367940 4.805422
v 0.192779 1.370534 4.804007
v 0.199796 1.370458 4.803698
v 0.206009 1.363949 4.805242
v 0.210922 1.360398 4.806013
v 0.220058 1.363434 4.804724
v 0.227732 1.364099 4.804175
v 0.259579 1.358076 4.804373
v 0.272139 1.360782 4.803017
v 0.295301 1.361423 4.801744
vn 0.0755 0.2714 0.9595
vn 0.0605 0.2638 0.9626
vn 0.0454 0.2714 0.9614
vn 0.0303 0.2638 0.9641
vn 0.0453 0.2714 0.9614
vn 0.0608 0.2487 0.9667
vn 0.0304 0.2487 0.9681
vn 0.0151 0.2714 0.9623
vn 0.0151 0.2562 0.9665
vn 0.0143 0.2564 0.9665
vn 0.0457 0.2411 0.9694
vn 0.1057 0.2713 0.9567
vn 0.1057 0.2687 0.9574
vn 0.1060 0.2584 0.9602
vn 0.1056 0.2714 0.9566
vn 0.1054 0.2713 0.9567
vn 0.1055 0.2713 0.9567
vn 0.0761 0.2411 0.9675
vn 0.0153 0.2410 0.9704
vn 0.0153 0.2411 0.9704
vn 0.0459 0.2257 0.9731
vn 0.0459 0.2258 0.9731
vn 0.1061 0.2562 0.9608
vn 0.1060 0.2562 0.9608
vn 0.0758 0.2562 0.9636
vn 0.0765 0.2562 0.9636
vn 0.0908 0.2638 0.9603
vn 0.0831 0.2714 0.9589
vn 0.0755 0.2713 0.9595
vn 0.0754 0.2712 0.9595
vn 0.0754 0.2713 0.9595
vn 0.0754 0.2714 0.9595
vn 0.0590 0.2714 0.9606
vn 0.0452 0.2718 0.9613
vn 0.0275 0.2714 0.9621
vn 0.0458 0.2712 0.9614
vn 0.0453 0.2713 0.9614
vn 0.0152 0.2594 0.9656
vn 0.0151 0.2713 0.9623
vn 0.0152 0.2714 0.9623
vn 0.0154 0.2714 0.9623
vn 0.0153 0.2547 0.9669
vn 0.0152 0.2562 0.9665
vn 0.0150 0.2563 0.9665
vn 0.0154 0.2562 0.9665
vn 0.0150 0.2562 0.9665
vn 0.0460 0.2373 0.9703
vn 0.0458 0.2327 0.9715
vn 0.0456 0.2411 0.9694
vn 0.0457 0.2410 0.9694
vn 0.0468 0.2410 0.9694
vn 0.0617 0.2412 0.9685
vn 0.0270 0.2411 0.9701
vn 0.0456 0.2412 0.9694
vn 0.1060 0.2600 0.9598
vn 0.1058 0.2714 0.9566
vn 0.1056 0.2713 0.9567
vn 0.1056 0.2712 0.9567
vn 0.1055 0.2711 0.9567
vn 0.1057 0.2713 0.9566
vn 0.1054 0.2714 0.9567
vn 0.0758 0.2416 0.9674
vn 0.0762 0.2411 0.9675
vn 0.0769 0.2411 0.9674
vn 0.0761 0.2491 0.9655
vn 0.0756 0.2410 0.9675
vn 0.0763 0.2411 0.9675
vn 0.0761 0.2410 0.9675
vn 0.0757 0.2414 0.9675
vn 0.0759 0.2411 0.9675
vn 0.0153 0.2414 0.9703
vn 0.0152 0.2410 0.9704
vn 0.0152 0.2411 0.9704
vn 0.0150 0.2411 0.9704
vn 0.0152 0.2412 0.9703
vn 0.0152 0.2409 0.9704
vn 0.0161 0.2413 0.9703
vn 0.0151 0.2409 0.9704
vn 0.0461 0.2257 0.9731
vn 0.0458 0.2258 0.9731
vn 0.0460 0.2260 0.9730
vn 0.0458 0.2257 0.9731
vn 0.0457 0.2257 0.9731
vn 0.0460 0.2258 0.9731
vn 0.0461 0.2259 0.9731
vn 0.0461 0.2256 0.9731
vn 0.0934 0.2562 0.9621
vn 0.1058 0.2562 0.9608
vn 0.1059 0.2563 0.9608
vn 0.1062 0.2562 0.9608
vn 0.1053 0.2563 0.9608
vn 0.1058 0.2568 0.9606
vn 0.1059 0.2561 0.9608
vn 0.1060 0.2563 0.9608
vn 0.1052 0.2564 0.9608
vn 0.1057 0.2564 0.9608
vn 0.1061 0.2564 0.9607
vn 0.1059 0.2564 0.9608
vn 0.1059 0.2564 0.9607
vn 0.0763 0.2561 0.9636
vn 0.0757 0.2562 0.9636
vn 0.0759 0.2562 0.9636
vn 0.0757 0.2563 0.9636
vn 0.0763 0.2562 0.9636
usemtl None
s 1
f 62//1 70//1 2//2
f 198//3 4//4 204//5
f 3//6 4//4 5//7
f 21//8 4//4 22//8
f 118//9 117//9 123//10
f 36//11 5//7 37//11
f 61//12 15//13 16//14
f 51//15 50//16 49//17
f 87//18 82//18 81//18
f 101//19 100//20 5//7
f 138//21 132//22 131//22
f 156//23 162//24 158//23
f 194//25 193//26 189//25
f 2//2 1//27 62//1
f 1//27 9//28 66//1
f 62//1 1//27 63//1
f 66//1 65//29 64//1
f 63//1 66//1 64//1
f 62//1 73//29 70//1
f 73//29 72//30 71//31
f 66//1 63//1 1//27
f 73//29 71//31 70//1
f 67//32 13//33 2//2
f 69//29 68//1 2//2
f 68//1 67//32 2//2
f 70//1 69//29 2//2
f 4//4 2//2 204//5
f 2//2 13//33 209//3
f 207//5 2//2 208//5
f 209//3 208//5 2//2
f 207//5 206//5 204//5
f 206//5 205//34 204//5
f 196//5 17//35 4//4
f 198//3 197//36 196//5
f 200//37 199//5 203//37
f 199//5 198//3 203//37
f 202//5 201//5 203//37
f 201//5 200//37 203//37
f 198//3 196//5 4//4
f 2//2 207//5 204//5
f 204//5 203//37 198//3
f 3//6 2//2 4//4
f 7//38 4//4 20//39
f 4//4 17//35 23//40
f 20//39 4//4 21//8
f 17//35 24//41 23//40
f 23//40 22//8 4//4
f 18//42 5//7 116//43
f 5//7 4//4 125//43
f 116//43 5//7 117//9
f 4//4 7//38 125//43
f 125//43 124//44 5//7
f 112//45 18//42 114//43
f 114//43 113//9 112//45
f 116//43 115//9 18//42
f 115//9 114//43 18//42
f 124//44 123//10 117//9
f 5//7 124//44 117//9
f 123//10 122//43 120//43
f 122//43 121//45 120//43
f 120//43 119//46 118//9
f 120//43 118//9 123//10
f 11//47 12//48 29//11
f 11//47 29//11 33//11
f 29//11 28//11 34//11
f 33//11 29//11 34//11
f 32//49 31//50 30//51
f 30//51 11//47 32//49
f 11//47 33//11 32//49
f 28//11 27//50 34//11
f 27//50 26//11 35//50
f 34//11 27//50 35//50
f 25//11 19//52 3//6
f 26//11 25//11 3//6
f 5//7 10//53 41//11
f 40//11 39//50 37//11
f 39//50 38//54 37//11
f 5//7 41//11 40//11
f 26//11 3//6 35//50
f 3//6 5//7 36//11
f 36//11 35//50 3//6
f 5//7 40//11 37//11
f 61//12 60//12 15//13
f 1//27 14//55 55//15
f 14//55 59//56 56//16
f 59//56 58//57 56//16
f 58//57 57//58 56//16
f 42//15 9//28 1//27
f 43//57 42//15 1//27
f 14//55 56//16 55//15
f 44//12 43//57 53//17
f 43//57 1//27 53//17
f 47//57 46//59 45//60
f 45//60 44//12 48//15
f 1//27 55//15 54//15
f 1//27 54//15 53//17
f 48//15 47//57 45//60
f 44//12 53//17 48//15
f 53//17 52//61 48//15
f 49//17 48//15 51//15
f 51//15 48//15 52//61
f 3//6 19//52 91//18
f 19//52 93//62 92//63
f 91//18 19//52 92//63
f 91//18 90//63 3//6
f 74//64 8//65 77//66
f 8//65 3//6 78//18
f 77//66 8//65 78//18
f 76//18 75//67 74//64
f 77//66 76//18 74//64
f 3//6 90//63 89//63
f 80//18 79//68 88//63
f 79//68 78//18 88//63
f 3//6 89//63 88//63
f 88//63 87//18 81//18
f 87//18 86//63 82//18
f 86//63 85//63 82//18
f 85//63 84//69 83//70
f 82//18 85//63 83//70
f 81//18 80//18 88//63
f 78//18 3//6 88//63
f 18//42 111//71 110//72
f 5//7 18//42 110//72
f 94//73 10//53 5//7
f 97//74 96//72 98//73
f 96//72 95//20 98//73
f 95//20 94//73 99//75
f 94//73 5//7 100//20
f 99//75 94//73 100//20
f 5//7 110//72 109//73
f 108//73 107//76 106//73
f 5//7 109//73 108//73
f 99//75 98//73 95//20
f 5//7 108//73 106//73
f 106//73 105//73 104//73
f 104//73 103//77 102//78
f 104//73 102//78 101//19
f 5//7 106//73 104//73
f 104//73 101//19 5//7
f 12//48 11//47 143//21
f 11//47 149//79 143//21
f 148//21 147//22 146//80
f 149//79 148//21 144//80
f 143//21 149//79 144//80
f 128//81 127//21 129//82
f 127//21 126//83 129//82
f 126//83 12//48 130//82
f 148//21 146//80 145//21
f 148//21 145//21 144//80
f 12//48 143//21 130//82
f 129//82 126//83 130//82
f 142//21 141//79 140//21
f 143//21 142//21 131//22
f 142//21 140//21 131//22
f 140//21 139//84 138//21
f 138//21 137//82 136//21
f 136//21 135//85 134//22
f 134//22 133//86 136//21
f 133//86 132//22 136//21
f 140//21 138//21 131//22
f 138//21 136//21 132//22
f 130//82 143//21 131//22
f 1//27 6//87 181//24
f 6//87 183//24 181//24
f 183//24 182//88 181//24
f 180//24 179//89 177//90
f 179//89 178//91 177//90
f 1//27 181//24 180//24
f 150//92 14//55 151//23
f 14//55 1//27 170//24
f 14//55 170//24 151//23
f 170//24 1//27 176//90
f 1//27 180//24 177//90
f 176//90 175//90 171//93
f 175//90 174//94 171//93
f 1//27 177//90 176//90
f 174//94 173//95 172//96
f 171//93 174//94 172//96
f 170//24 169//97 168//23
f 170//24 168//23 151//23
f 168//23 167//23 151//23
f 176//90 171//93 170//24
f 152//23 151//23 166//24
f 154//98 153//23 155//23
f 153//23 152//23 155//23
f 167//23 166//24 151//23
f 166//24 165//99 164//23
f 166//24 164//23 163//24
f 155//23 152//23 163//24
f 152//23 166//24 163//24
f 156//23 155//23 163//24
f 162//24 161//23 160//23
f 156//23 163//24 162//24
f 16//14 15//13 157//24
f 16//14 157//24 156//23
f 159//94 158//23 162//24
f 158//23 16//14 156//23
f 162//24 160//23 159//94
f 3//6 8//65 195//25
f 3//6 195//25 194//25
f 1//27 2//2 188//25
f 2//2 3//6 194//25
f 184//100 6//87 185//101
f 6//87 1//27 186//25
f 186//25 185//101 6//87
f 2//2 194//25 189//25
f 193//26 192//102 190//103
f 192//102 191//104 190//103
f 187//102 186//25 1//27
f 188//25 187//102 1//27
f 189//25 188//25 2//2
f 193//26 190//103 189//25
o 1_Honduras_sphere.001
v 0.301134 1.413625 4.786414
v 0.301196 1.410355 4.787390
v 0.286245 1.403278 4.790214
v 0.282049 1.403378 4.790381
v 0.288106 1.408432 4.788583
v 0.297950 1.412800 4.786811
v 0.299542 1.409832 4.787625
v 0.306300 1.414918 4.785619
v 0.313189 1.413966 4.785363
vn 0.0453 0.2866 0.9569
vn 0.0573 0.2866 0.9563
vn 0.0452 0.2866 0.9570
vn 0.0752 0.2865 0.9551
vn 0.0625 0.2865 0.9560
vn 0.0450 0.2866 0.9570
vn 0.0452 0.2866 0.9569
vn 0.0753 0.2865 0.9551
usemtl None
s 1
f 216//105 211//106 215//107
f 211//106 217//108 210//109
f 211//106 210//109 215//107
f 215//107 214//110 216//105
f 214//110 213//111 212//107
f 216//105 214//110 212//107
f 211//106 218//112 217//108
o 2_Honduras_sphere.001
v 0.338955 1.411846 4.783971
v 0.337759 1.414012 4.783415
v 0.340733 1.418505 4.781833
v 0.344517 1.421038 4.780776
v 0.348229 1.420807 4.780553
v 0.347382 1.418857 4.781205
v 0.345217 1.416670 4.782031
vn 0.0752 0.2865 0.9551
vn 0.0753 0.2865 0.9551
vn 0.0751 0.2865 0.9551
vn 0.0754 0.2866 0.9551
usemtl None
s 1
f 220//113 219//114 225//115
f 223//116 222//115 224//113
f 222//115 221//115 225//115
f 224//113 222//115 225//115
f 221//115 220//113 225//115
