# Blender v2.81 (sub 16) OBJ File: ''
# www.blender.org
mtllib Indian Ocean Territories.mtl
o 0_Indian_Ocean_Territories_sphere.001
v -0.587615 -1.056503 -4.851135
v -0.586794 -1.056135 -4.851305
v -0.586556 -1.055881 -4.851387
v -0.586489 -1.055427 -4.851493
v -0.587462 -1.055364 -4.851398
v -0.588228 -1.054968 -4.851400
v -0.588722 -1.054246 -4.851502
v -0.588877 -1.053235 -4.851704
v -0.589256 -1.054239 -4.851445
v -0.589155 -1.055217 -4.851243
v -0.588618 -1.056021 -4.851129
vn -0.1075 -0.2107 -0.9716
vn -0.1075 -0.2105 -0.9716
vn -0.1072 -0.2105 -0.9717
vn -0.1066 -0.2107 -0.9717
vn -0.1057 -0.2104 -0.9719
vn -0.1068 -0.2106 -0.9717
vn -0.1072 -0.2107 -0.9716
vn -0.1075 -0.2102 -0.9717
vn -0.1072 -0.2102 -0.9717
vn -0.1076 -0.2117 -0.9714
vn -0.1077 -0.2109 -0.9716
usemtl None
s 1
f 6//1 5//2 11//3
f 9//4 8//5 7//6
f 9//4 7//6 10//7
f 7//6 6//1 10//7
f 11//3 10//7 6//1
f 2//8 1//9 5//2
f 1//9 11//3 5//2
f 4//10 3//11 5//2
f 3//11 2//8 5//2
o 1_Indian_Ocean_Territories_sphere.001
v -0.583013 -1.055379 -4.851887
v -0.584335 -1.054924 -4.851839
v -0.584852 -1.055454 -4.851667
v -0.582783 -1.056276 -4.851717
v -0.581581 -1.054773 -4.852176
v -0.581038 -1.052284 -4.852775
v -0.580936 -1.050202 -4.853238
v -0.581508 -1.050194 -4.853176
v -0.581485 -1.051048 -4.852993
v -0.581598 -1.051733 -4.852833
v -0.582013 -1.053104 -4.852490
v -0.581665 -1.054048 -4.852324
v -0.582047 -1.054957 -4.852085
vn -0.1078 -0.2104 -0.9716
vn -0.1076 -0.2109 -0.9716
vn -0.1084 -0.2102 -0.9716
vn -0.1076 -0.2104 -0.9717
vn -0.1078 -0.2100 -0.9717
vn -0.1073 -0.2108 -0.9716
vn -0.1073 -0.2109 -0.9716
vn -0.1080 -0.2107 -0.9716
vn -0.1077 -0.2105 -0.9716
vn -0.1079 -0.2105 -0.9716
vn -0.1077 -0.2103 -0.9716
vn -0.1069 -0.2105 -0.9717
vn -0.1081 -0.2107 -0.9715
usemtl None
s 1
f 16//12 24//13 23//14
f 14//15 13//16 12//17
f 15//18 14//15 12//17
f 18//19 17//20 20//21
f 17//20 16//12 23//14
f 21//22 17//20 22//23
f 20//21 19//24 18//19
f 23//14 22//23 17//20
f 21//22 20//21 17//20
f 16//12 15//18 24//13
f 15//18 12//17 24//13
o 2_Indian_Ocean_Territories_sphere.001
v -1.329660 -0.916572 -4.731347
v -1.325460 -0.913205 -4.733133
v -1.320537 -0.912122 -4.734685
v -1.321717 -0.907593 -4.735219
v -1.325873 -0.906956 -4.734203
v -1.327897 -0.906709 -4.733696
v -1.330925 -0.905103 -4.733172
v -1.332310 -0.910460 -4.731779
vn -0.2596 -0.1796 -0.9489
vn -0.2596 -0.1797 -0.9488
vn -0.2597 -0.1796 -0.9489
vn -0.2595 -0.1796 -0.9489
usemtl None
s 1
f 32//25 30//25 26//25
f 32//25 31//26 30//25
f 30//25 29//27 26//25
f 29//27 28//28 26//25
f 28//28 27//28 26//25
f 26//25 25//25 32//25
