# Blender v2.81 (sub 16) OBJ File: ''
# www.blender.org
mtllib Ireland.mtl
o 0_Ireland_sphere.001
v 2.892062 4.045084 0.520976
v 2.893961 4.045084 0.510098
v 2.902567 4.038920 0.509321
v 2.899406 4.040800 0.512630
v 2.896372 4.042838 0.513972
v 2.893333 4.043773 0.524023
v 2.895430 4.044249 0.508263
v 2.900626 4.040404 0.508762
v 2.891356 4.045794 0.519255
v 2.892536 4.045201 0.517315
vn 0.5853 0.8043 0.1022
vn 0.5852 0.8044 0.1021
vn 0.5853 0.8043 0.1021
vn 0.5731 0.8133 0.1003
vn 0.5827 0.8063 0.1017
vn 0.5855 0.8042 0.1025
vn 0.5854 0.8043 0.1023
vn 0.5729 0.8135 0.1000
usemtl None
s 1
f 7//1 2//2 5//3
f 10//4 1//5 2//2
f 2//2 1//5 5//3
f 1//5 6//3 5//3
f 5//3 4//1 7//1
f 4//1 3//6 8//7
f 8//7 7//1 4//1
f 10//4 9//8 1//5
o 1_Ireland_sphere.001
v 2.915756 4.045084 0.368351
v 2.978433 3.998423 0.376270
v 3.040374 3.950774 0.384094
v 2.902747 4.045084 0.459756
v 2.965145 3.998423 0.469639
v 3.026809 3.950774 0.479405
v 3.041622 3.950774 0.372792
v 3.041927 3.950774 0.370030
v 3.042711 3.950774 0.362928
v 3.043667 3.950774 0.354270
v 3.044857 3.950774 0.343489
v 3.044183 3.947747 0.384576
v 2.956358 4.004993 0.468247
v 2.960894 4.001602 0.468965
v 2.962526 3.998423 0.484645
v 2.882546 4.059700 0.456556
v 2.989292 3.979764 0.473463
v 2.997114 3.973720 0.474702
v 2.920711 4.045084 0.323467
v 2.921212 4.045084 0.318928
v 2.821807 4.112032 0.356483
v 2.837358 4.101199 0.358447
v 3.070695 3.915746 0.486356
v 2.894359 4.060496 0.365648
v 2.894690 4.060258 0.365690
v 2.900913 4.055776 0.366476
v 3.014306 3.950774 0.551046
v 2.985050 3.998423 0.316337
v 2.895190 4.045084 0.503054
v 2.843993 4.090748 0.419125
v 2.850617 4.090748 0.372586
v 2.892120 4.047366 0.502082
v 2.888756 4.049755 0.501915
v 2.889463 4.048743 0.506096
v 2.884772 4.052090 0.505741
v 2.881264 4.054420 0.506873
v 2.882454 4.052821 0.513067
v 2.878285 4.055867 0.512171
v 2.875636 4.058001 0.509978
v 2.874878 4.058935 0.506714
v 2.875962 4.058529 0.503810
v 2.876889 4.058566 0.498201
v 2.875604 4.060179 0.492433
v 2.876372 4.060605 0.484569
v 2.879147 4.060160 0.472289
v 2.886852 4.055659 0.464772
v 2.886072 4.056501 0.462386
v 2.882711 4.059364 0.458345
v 2.961361 3.999624 0.481864
v 2.961934 3.999897 0.476426
v 2.960929 4.001164 0.472210
v 2.961208 4.001182 0.470468
v 2.955445 4.005451 0.469873
v 2.953508 4.006182 0.475214
v 2.951765 4.005267 0.492412
v 2.951112 4.005464 0.494606
v 2.949787 4.006179 0.496558
v 2.948193 4.007195 0.497696
v 2.944489 4.009836 0.498127
v 2.943494 4.010419 0.499236
v 2.942788 4.010446 0.503066
v 2.943252 4.009606 0.507028
v 2.942696 4.009678 0.509640
v 2.940687 4.010846 0.511961
v 2.937800 4.013549 0.507214
v 2.936033 4.014180 0.512374
v 2.935797 4.013652 0.517874
v 2.933906 4.014485 0.522161
v 2.931612 4.016188 0.521898
v 2.929703 4.017885 0.519466
v 2.927121 4.019476 0.521735
v 2.924309 4.021513 0.521803
v 2.923484 4.022502 0.518746
v 2.924459 4.022174 0.515744
v 2.923554 4.023675 0.509105
v 2.923970 4.024415 0.500900
v 2.920798 4.025891 0.507456
v 2.918629 4.027158 0.509900
v 2.915998 4.029114 0.509583
v 2.913860 4.030789 0.508645
v 2.911491 4.033606 0.500034
v 2.911309 4.034850 0.491281
v 2.908736 4.036697 0.491486
v 2.906144 4.038715 0.490445
v 2.903914 4.039269 0.498858
v 2.904333 4.037851 0.507629
v 2.899389 4.041677 0.505832
v 3.014033 3.951008 0.550832
v 3.010978 3.954416 0.542362
v 3.011012 3.954951 0.538090
v 3.012098 3.954610 0.534470
v 3.013844 3.953745 0.531055
v 3.015837 3.952598 0.528381
v 3.016514 3.953249 0.519537
v 3.013057 3.955436 0.522677
v 3.007200 3.959887 0.522323
v 3.004755 3.961406 0.524755
v 3.002762 3.963430 0.520747
v 3.001819 3.964708 0.516416
v 2.997497 3.968967 0.508728
v 2.997071 3.969621 0.506185
v 2.997971 3.970724 0.492625
v 2.997459 3.973058 0.477772
v 2.993866 3.975541 0.479436
v 2.995501 3.973732 0.483850
v 2.994796 3.972736 0.495486
v 2.993507 3.973245 0.498986
v 2.990801 3.974652 0.503775
v 2.991236 3.974102 0.505473
v 2.992407 3.972996 0.507186
v 2.994032 3.970716 0.515249
v 2.993345 3.970173 0.523328
v 2.989578 3.974340 0.513156
v 2.982501 3.981400 0.499913
v 2.980084 3.983622 0.496828
v 2.975690 3.987520 0.492294
v 2.973294 3.989220 0.493066
v 2.971595 3.990211 0.495254
v 2.962737 3.998200 0.485132
v 3.071666 3.912761 0.502817
v 3.071475 3.912709 0.504295
v 3.069433 3.913843 0.507622
v 3.068069 3.914393 0.511385
v 3.067913 3.913981 0.515312
v 3.069296 3.911364 0.526704
v 3.067747 3.911869 0.531850
v 3.060764 3.918388 0.523770
v 3.058206 3.921685 0.514107
v 3.057250 3.922580 0.512978
v 3.056196 3.923014 0.515814
v 3.056106 3.920710 0.533329
v 3.057484 3.918780 0.539676
v 3.057145 3.918224 0.545715
v 3.053924 3.921186 0.542322
v 3.050178 3.925250 0.533804
v 3.048522 3.927146 0.529304
v 3.047998 3.927913 0.526649
v 3.045536 3.930279 0.523303
v 3.043511 3.933016 0.514715
v 3.046020 3.927406 0.541722
v 3.043960 3.928108 0.548348
v 3.041724 3.929675 0.549593
v 3.041684 3.928969 0.555031
v 3.036616 3.932752 0.556169
v 3.030891 3.938430 0.547084
v 3.028608 3.940894 0.541988
v 3.027910 3.942204 0.536318
v 3.026461 3.944090 0.530714
v 3.023877 3.946427 0.528280
v 3.022502 3.947186 0.530554
v 3.020521 3.946606 0.546186
v 3.018549 3.947148 0.553488
v 3.016349 3.948968 0.552665
v 2.823770 4.110836 0.354488
v 2.826999 4.108947 0.350131
v 2.829690 4.107448 0.345521
v 2.833385 4.104514 0.350729
v 2.835624 4.102511 0.356856
v 2.900703 4.055954 0.366094
v 2.899139 4.057233 0.363963
v 2.896499 4.059043 0.364792
v 2.891124 4.063094 0.361826
v 2.887901 4.065752 0.357133
v 2.888266 4.065658 0.355026
v 2.890977 4.063993 0.351695
v 2.894521 4.061678 0.349106
v 2.897018 4.059913 0.348999
v 2.898888 4.058611 0.348664
v 2.903040 4.055847 0.346296
v 2.904568 4.054892 0.344631
v 2.905919 4.054312 0.339800
v 2.907538 4.053237 0.338827
v 2.912978 4.049253 0.340356
v 2.914915 4.047918 0.339835
v 2.915606 4.047832 0.334675
v 2.915751 4.048163 0.329132
v 2.916188 4.048002 0.327233
v 2.915254 4.048831 0.325118
v 2.914326 4.049740 0.321938
v 2.915244 4.049427 0.317623
v 2.917970 4.047638 0.315738
v 2.920639 4.045795 0.315057
v 2.920232 4.045478 0.322786
v 2.921695 4.044247 0.324887
v 2.924879 4.041870 0.325368
v 2.929159 4.038798 0.324499
v 2.932360 4.036635 0.322186
v 2.939179 4.031741 0.320799
v 2.946696 4.026299 0.319845
v 2.951454 4.022988 0.317590
v 2.956958 4.018945 0.317618
v 2.959617 4.016937 0.318309
v 2.964511 4.013340 0.318338
v 2.966116 4.012053 0.319687
v 2.970747 4.008685 0.319295
v 2.980517 4.001692 0.317061
v 2.985906 3.997785 0.316200
v 2.997304 3.989114 0.316477
v 3.001322 3.985835 0.319233
v 3.005008 3.982743 0.322765
v 3.009540 3.979091 0.325307
v 3.014518 3.975137 0.327435
v 3.022700 3.968773 0.329292
v 3.031684 3.961301 0.337132
v 3.033810 3.959424 0.340292
v 3.034918 3.958288 0.343808
v 3.042541 3.953055 0.337238
v 3.042590 3.951339 0.357277
v 3.042276 3.951198 0.361814
v 3.038430 3.953327 0.371226
v 3.045109 3.949994 0.350234
v 3.043973 3.949503 0.366190
v 3.045088 3.948475 0.367970
v 3.044322 3.948970 0.369191
v 3.043920 3.948875 0.373926
v 3.045244 3.947457 0.378322
v 2.850373 4.090920 0.372530
v 2.839375 4.093835 0.419878
v 2.835552 4.096597 0.418382
v 2.833508 4.098358 0.414670
v 2.829961 4.100939 0.413087
v 2.827461 4.102833 0.411210
v 2.827483 4.103490 0.404310
v 2.825904 4.105238 0.397462
v 2.826454 4.105086 0.395150
v 2.826965 4.105491 0.387405
v 2.828333 4.104794 0.384948
v 2.823788 4.107906 0.384927
v 2.823873 4.108314 0.380150
v 2.825020 4.107696 0.378432
v 2.828268 4.105511 0.378046
v 2.830561 4.104124 0.376178
v 2.834159 4.101681 0.375978
v 2.836648 4.099803 0.377770
v 2.838438 4.098316 0.380460
v 2.840844 4.096856 0.378542
v 2.844237 4.094151 0.382477
v 2.843096 4.095312 0.378567
v 2.840028 4.097972 0.372815
v 2.836914 4.100116 0.372684
v 2.832924 4.102810 0.373061
v 2.829237 4.105236 0.374059
v 2.825474 4.107926 0.372877
v 2.823464 4.109618 0.369626
v 2.823275 4.110514 0.361766
v 2.818467 4.113552 0.364352
v 2.818495 4.113811 0.361494
v 2.819781 4.113217 0.358554
v 2.838548 4.100280 0.359529
v 2.842091 4.097034 0.367959
v 2.843665 4.095816 0.369404
v 2.852289 4.089519 0.373049
v 2.855583 4.086884 0.376060
v 2.859310 4.083951 0.379000
v 2.860508 4.082802 0.382002
v 2.861161 4.081903 0.386342
v 2.862097 4.080985 0.388878
v 2.861032 4.081446 0.391777
v 2.860605 4.081367 0.395566
v 2.861714 4.080373 0.397639
v 2.862778 4.079615 0.397696
v 2.864175 4.078723 0.396730
v 2.866479 4.077401 0.393673
v 2.868683 4.076189 0.390226
v 2.870074 4.075144 0.390827
v 2.871475 4.073931 0.393028
v 2.873846 4.070931 0.406163
v 2.875831 4.069113 0.410261
v 2.877270 4.067941 0.411793
v 2.880232 4.065940 0.410855
v 2.889945 4.059962 0.401961
v 2.891071 4.059327 0.400371
v 2.896115 4.055840 0.399545
v 2.899337 4.054430 0.390911
v 2.902866 4.052260 0.387664
v 2.903988 4.051774 0.384611
v 2.904666 4.051986 0.377738
v 2.906181 4.051176 0.375135
v 2.905530 4.051804 0.373470
v 2.904025 4.052981 0.372362
v 2.894473 4.060401 0.365790
v 2.886187 4.058382 0.444061
v 2.889654 4.056700 0.436406
v 2.889258 4.057207 0.434157
v 2.884718 4.060369 0.434653
v 2.881265 4.062581 0.436950
v 2.877798 4.065443 0.432893
v 2.875732 4.067367 0.428295
v 2.874790 4.068336 0.425296
v 2.874070 4.069521 0.418594
v 2.872874 4.070673 0.415545
v 2.868025 4.074368 0.412938
v 2.864211 4.077428 0.409343
v 2.864079 4.075861 0.425824
v 2.856755 4.079574 0.440414
v 2.853529 4.082158 0.437427
v 2.852015 4.083586 0.433891
v 2.851270 4.084698 0.428076
v 2.849486 4.086041 0.427272
v 2.848360 4.087145 0.424220
v 2.844967 4.090075 0.418965
v 2.960849 4.001651 0.468806
v 2.958255 4.003959 0.464854
v 2.995659 3.976092 0.462873
v 2.992300 3.977881 0.469835
v 2.988842 3.980168 0.472867
v 3.044029 3.947773 0.385424
v 3.043913 3.946518 0.397540
v 3.044908 3.945208 0.402348
v 3.047197 3.943172 0.404590
v 3.049922 3.940844 0.406398
v 3.051392 3.939464 0.408492
v 3.052029 3.938718 0.410726
v 3.052896 3.936983 0.420257
v 3.053502 3.936294 0.422197
v 3.057599 3.932548 0.427136
v 3.059551 3.930357 0.433142
v 3.059685 3.929722 0.437916
v 3.056364 3.931899 0.441657
v 3.054482 3.933205 0.443113
v 3.053357 3.933884 0.444910
v 3.052566 3.933795 0.451270
v 3.053694 3.933123 0.449394
v 3.055788 3.931601 0.448380
v 3.059634 3.928608 0.448298
v 3.063156 3.925719 0.449555
v 3.064546 3.924256 0.452963
v 3.064360 3.923979 0.456758
v 3.067245 3.921007 0.463239
v 3.067109 3.920225 0.471229
v 3.069964 3.917468 0.475995
vn 0.5756 0.8136 0.0819
vn 0.5757 0.8135 0.0819
vn 0.5883 0.8043 0.0838
vn 0.5873 0.8043 0.0901
vn 0.5931 0.7996 0.0939
vn 0.6007 0.7949 0.0857
vn 0.6007 0.7949 0.0855
vn 0.5728 0.8136 0.0999
vn 0.5727 0.8136 0.1000
vn 0.5728 0.8135 0.1000
vn 0.5853 0.8043 0.1021
vn 0.5947 0.7972 0.1037
vn 0.5977 0.7949 0.1044
vn 0.5976 0.7949 0.1043
vn 0.5977 0.7949 0.1043
vn 0.5977 0.7949 0.1042
vn 0.5978 0.7948 0.1043
vn 0.6099 0.7853 0.1064
vn 0.6099 0.7853 0.1065
vn 0.5652 0.8226 0.0622
vn 0.5652 0.8226 0.0624
vn 0.5779 0.8136 0.0638
vn 0.5780 0.8135 0.0638
vn 0.5832 0.8090 0.0737
vn 0.5906 0.8043 0.0652
vn 0.5905 0.8043 0.0653
vn 0.5976 0.7991 0.0660
vn 0.5957 0.7996 0.0753
vn 0.6030 0.7950 0.0666
vn 0.6154 0.7852 0.0680
vn 0.6082 0.7909 0.0672
vn 0.6081 0.7901 0.0768
vn 0.6155 0.7852 0.0678
vn 0.6154 0.7852 0.0679
vn 0.6154 0.7853 0.0679
vn 0.6042 0.7940 0.0667
vn 0.6155 0.7852 0.0679
vn 0.6039 0.7942 0.0667
vn 0.5629 0.8226 0.0802
vn 0.5629 0.8226 0.0801
vn 0.5772 0.8138 0.0670
vn 0.5749 0.8142 0.0810
vn 0.5774 0.8139 0.0640
vn 0.6130 0.7852 0.0873
vn 0.6129 0.7853 0.0873
vn 0.5773 0.8136 0.0683
vn 0.5756 0.8136 0.0820
vn 0.5743 0.8136 0.0904
vn 0.5806 0.8090 0.0920
vn 0.5757 0.8136 0.0819
vn 0.5757 0.8135 0.0820
vn 0.5758 0.8134 0.0821
vn 0.5758 0.8134 0.0818
vn 0.5756 0.8136 0.0821
vn 0.5756 0.8135 0.0824
vn 0.5756 0.8136 0.0817
vn 0.5756 0.8136 0.0818
vn 0.5756 0.8136 0.0816
vn 0.5757 0.8135 0.0818
vn 0.5689 0.8184 0.0808
vn 0.5683 0.8188 0.0808
vn 0.5758 0.8135 0.0817
vn 0.5753 0.8139 0.0813
vn 0.5755 0.8137 0.0819
vn 0.5758 0.8135 0.0814
vn 0.5755 0.8137 0.0818
vn 0.5882 0.8043 0.0837
vn 0.5872 0.8043 0.0904
vn 0.6054 0.7901 0.0959
vn 0.5983 0.7949 0.1005
vn 0.6008 0.7948 0.0855
vn 0.5995 0.7949 0.0929
vn 0.5728 0.8135 0.0998
vn 0.5728 0.8136 0.1000
vn 0.5799 0.8083 0.1012
vn 0.5728 0.8136 0.0998
vn 0.5728 0.8135 0.0999
vn 0.5853 0.8043 0.1024
vn 0.5852 0.8044 0.1021
vn 0.5974 0.7951 0.1047
vn 0.5986 0.7943 0.1037
vn 0.6056 0.7887 0.1056
vn 0.5976 0.7950 0.1043
vn 0.5853 0.8043 0.1022
vn 0.5853 0.8044 0.1018
vn 0.5853 0.8044 0.1019
vn 0.5852 0.8043 0.1031
vn 0.5855 0.8042 0.1021
vn 0.5853 0.8043 0.1023
vn 0.5853 0.8044 0.1022
vn 0.5852 0.8043 0.1023
vn 0.6097 0.7854 0.1063
vn 0.6099 0.7852 0.1064
vn 0.6112 0.7853 0.0985
vn 0.6100 0.7852 0.1058
vn 0.6098 0.7853 0.1064
vn 0.6099 0.7852 0.1065
vn 0.6100 0.7852 0.1064
vn 0.5635 0.8226 0.0754
vn 0.5633 0.8226 0.0771
vn 0.5652 0.8226 0.0625
vn 0.5779 0.8136 0.0640
vn 0.5779 0.8136 0.0639
vn 0.5781 0.8135 0.0635
vn 0.5812 0.8112 0.0645
vn 0.5780 0.8135 0.0639
vn 0.5780 0.8136 0.0636
vn 0.5779 0.8136 0.0637
vn 0.5781 0.8134 0.0638
vn 0.5777 0.8137 0.0637
vn 0.5905 0.8044 0.0652
vn 0.5905 0.8043 0.0652
vn 0.5906 0.8043 0.0651
vn 0.5906 0.8043 0.0649
vn 0.5906 0.8043 0.0654
vn 0.5905 0.8044 0.0647
vn 0.6030 0.7949 0.0666
vn 0.6030 0.7949 0.0667
vn 0.6030 0.7949 0.0665
vn 0.6079 0.7912 0.0670
vn 0.6053 0.7931 0.0667
vn 0.6031 0.7949 0.0666
vn 0.6031 0.7949 0.0665
vn 0.6142 0.7853 0.0771
vn 0.6154 0.7852 0.0682
vn 0.5629 0.8226 0.0799
vn 0.5630 0.8226 0.0801
vn 0.5630 0.8225 0.0802
vn 0.5629 0.8226 0.0800
vn 0.5631 0.8225 0.0802
vn 0.5629 0.8226 0.0803
vn 0.5629 0.8226 0.0797
vn 0.6131 0.7852 0.0872
vn 0.6129 0.7853 0.0872
vn 0.6130 0.7852 0.0872
vn 0.6130 0.7853 0.0871
vn 0.6131 0.7852 0.0869
vn 0.6130 0.7853 0.0872
vn 0.6127 0.7855 0.0871
vn 0.6131 0.7851 0.0874
usemtl None
s 1
f 266//9 263//9 268//10
f 312//11 24//12 15//13
f 15//13 316//14 314//15
f 45//16 43//17 52//18
f 15//13 60//19 25//20
f 106//21 104//22 109//23
f 80//19 76//19 84//19
f 119//24 124//23 123//25
f 141//26 140//27 147//26
f 168//28 165//29 164//28
f 183//30 180//31 11//32
f 202//33 201//34 199//33
f 38//35 12//36 207//37
f 226//38 17//39 13//40
f 224//41 223//42 222//43
f 20//44 221//45 21//46
f 249//47 248//48 261//48
f 34//49 291//50 35//51
f 331//52 330//52 325//53
f 11//32 36//54 290//55
f 11//32 290//55 289//55
f 26//56 14//57 292//9
f 14//57 11//32 285//9
f 293//58 14//57 283//9
f 293//58 292//9 14//57
f 11//32 289//55 288//9
f 288//9 287//59 286//60
f 285//9 284//10 283//9
f 11//32 288//9 286//60
f 11//32 286//60 285//9
f 294//61 293//58 283//9
f 14//57 285//9 283//9
f 297//10 296//62 295//9
f 295//9 294//61 280//9
f 283//9 282//63 281//55
f 283//9 281//55 294//61
f 281//55 280//9 294//61
f 298//9 297//10 295//9
f 300//10 299//55 280//9
f 299//55 298//9 280//9
f 303//9 302//9 277//9
f 302//9 301//10 278//10
f 298//9 295//9 280//9
f 301//10 300//10 279//64
f 279//64 300//10 280//9
f 301//10 279//64 278//10
f 305//9 304//9 306//9
f 304//9 303//9 308//9
f 306//9 304//9 307//10
f 302//9 278//10 277//9
f 277//9 276//9 272//65
f 276//9 275//59 273//66
f 272//65 276//9 273//66
f 308//9 307//10 304//9
f 310//9 309//67 308//9
f 41//68 40//69 269//59
f 40//69 311//10 269//59
f 311//10 310//9 303//9
f 310//9 308//9 303//9
f 311//10 270//59 269//59
f 303//9 277//9 272//65
f 275//59 274//70 273//66
f 270//59 311//10 303//9
f 41//68 269//59 268//10
f 263//9 262//71 41//68
f 265//72 264//73 263//9
f 268//10 267//74 266//9
f 266//9 265//72 263//9
f 263//9 41//68 268//10
f 303//9 272//65 271//10
f 303//9 271//10 270//59
f 15//13 12//36 313//75
f 12//36 11//32 313//75
f 15//13 313//75 312//11
f 11//32 14//57 313//75
f 14//57 23//76 313//75
f 16//77 13//40 314//15
f 13//40 12//36 314//15
f 15//13 27//78 316//14
f 316//14 315//79 314//15
f 314//15 28//80 16//77
f 12//36 15//13 314//15
f 14//57 26//56 57//16
f 26//56 58//81 57//16
f 42//82 39//83 14//57
f 45//16 44//82 43//17
f 43//17 42//82 54//16
f 42//82 14//57 56//84
f 14//57 57//16 56//84
f 56//84 55//16 54//16
f 54//16 53//85 43//17
f 53//85 52//18 43//17
f 51//85 50//82 46//16
f 50//82 49//82 46//16
f 56//84 54//16 42//82
f 52//18 51//85 46//16
f 49//82 48//16 46//16
f 48//16 47//16 46//16
f 46//16 45//16 52//18
f 15//13 24//12 62//86
f 62//86 61//19 15//13
f 61//19 60//19 15//13
f 60//19 59//87 25//20
f 16//77 28//80 113//23
f 112//23 111//22 104//22
f 111//22 110//88 109//23
f 104//22 111//22 109//23
f 16//77 113//23 112//23
f 98//89 37//90 99//22
f 37//90 16//77 103//25
f 100//21 99//22 101//91
f 102//23 37//90 103//25
f 102//23 101//91 99//22
f 16//77 112//23 104//22
f 109//23 108//23 106//21
f 108//23 107//21 106//21
f 102//23 99//22 37//90
f 106//21 105//23 104//22
f 104//22 103//25 16//77
f 14//57 39//83 94//19
f 39//83 97//19 95//19
f 94//19 39//83 95//19
f 97//19 96//92 95//19
f 94//19 93//93 92//19
f 63//92 23//76 14//57
f 66//19 65//19 68//94
f 65//19 64//19 69//19
f 64//19 63//92 14//57
f 92//19 91//92 86//19
f 91//92 90//19 87//19
f 87//19 90//19 89//92
f 14//57 94//19 92//19
f 65//19 69//19 68//94
f 64//19 14//57 92//19
f 68//94 67//95 66//19
f 64//19 92//19 86//19
f 69//19 64//19 86//19
f 86//19 91//92 87//19
f 89//92 88//96 87//19
f 86//19 85//19 75//19
f 85//19 84//19 76//19
f 75//19 85//19 76//19
f 70//94 69//19 86//19
f 84//19 83//97 81//98
f 83//97 82//99 81//98
f 70//94 86//19 75//19
f 73//19 72//92 75//19
f 72//92 71//87 75//19
f 71//87 70//94 75//19
f 84//19 81//98 80//19
f 80//19 79//92 77//19
f 79//92 78//92 77//19
f 77//19 76//19 80//19
f 75//19 74//19 73//19
f 15//13 25//20 129//91
f 129//91 128//21 127//23
f 129//91 127//23 126//23
f 27//78 15//13 126//23
f 15//13 129//91 126//23
f 115//23 114//23 125//23
f 114//23 27//78 126//23
f 117//23 116//23 124//23
f 116//23 115//23 125//23
f 118//24 117//23 124//23
f 116//23 125//23 124//23
f 114//23 126//23 125//23
f 121//23 120//25 123//25
f 120//25 119//24 123//25
f 119//24 118//24 124//23
f 122//24 121//23 123//25
f 16//77 37//90 160//26
f 37//90 163//26 161//26
f 160//26 37//90 161//26
f 163//26 162//100 161//26
f 130//101 33//102 139//26
f 33//102 16//77 149//26
f 139//26 33//102 149//26
f 132//26 131//103 130//101
f 132//26 130//101 139//26
f 16//77 160//26 159//104
f 133//101 132//26 139//26
f 136//105 135//27 137//26
f 135//27 134//26 137//26
f 134//26 133//101 138//101
f 16//77 159//104 149//26
f 159//104 158//26 149//26
f 157//26 156//105 150//26
f 156//105 155//105 150//26
f 158//26 157//26 149//26
f 138//101 137//26 134//26
f 149//26 157//26 150//26
f 155//105 154//101 152//26
f 154//101 153//106 152//26
f 152//26 151//26 150//26
f 139//26 138//101 133//101
f 155//105 152//26 150//26
f 149//26 148//26 140//27
f 148//26 147//26 140//27
f 147//26 146//26 141//26
f 146//26 145//101 141//26
f 145//101 144//26 141//26
f 144//26 143//26 142//26
f 141//26 144//26 142//26
f 140//27 139//26 149//26
f 31//107 32//108 168//28
f 168//28 167//29 165//29
f 167//29 166//109 165//29
f 164//28 31//107 168//28
f 193//110 30//30 190//30
f 30//30 192//111 191//30
f 190//30 30//30 191//30
f 190//30 189//30 193//110
f 189//30 188//30 193//110
f 187//112 186//31 29//113
f 186//31 185//114 29//113
f 188//30 187//112 193//110
f 11//32 29//113 184//30
f 29//113 193//110 187//112
f 169//115 36//54 11//32
f 170//31 169//115 179//31
f 169//115 11//32 179//31
f 34//49 35//51 171//116
f 173//117 172//30 174//31
f 172//30 34//49 171//116
f 175//31 172//30 176//31
f 175//31 174//31 172//30
f 177//30 176//31 172//30
f 178//30 177//30 170//31
f 171//116 177//30 172//30
f 177//30 171//116 170//31
f 179//31 178//30 170//31
f 29//113 185//114 184//30
f 182//30 181//118 180//31
f 180//31 179//31 11//32
f 11//32 184//30 183//30
f 183//30 182//30 180//31
f 12//36 38//35 206//33
f 12//36 206//33 205//33
f 194//119 29//113 11//32
f 195//120 194//119 11//32
f 11//32 12//36 199//33
f 12//36 205//33 204//121
f 204//121 203//122 202//33
f 12//36 204//121 202//33
f 196//33 195//120 11//32
f 198//33 197//123 196//33
f 201//34 200//124 199//33
f 199//33 198//33 11//32
f 198//33 196//33 11//32
f 12//36 202//33 199//33
f 20//44 21//46 216//125
f 21//46 217//125 216//125
f 216//125 215//126 214//125
f 218//125 20//44 216//125
f 216//125 214//125 213//125
f 216//125 213//125 212//125
f 219//127 218//125 216//125
f 18//128 19//129 220//125
f 19//129 219//127 220//125
f 13//40 17//39 220//125
f 219//127 216//125 220//125
f 216//125 212//125 220//125
f 212//125 211//130 12//36
f 220//125 212//125 12//36
f 12//36 13//40 220//125
f 210//130 209//131 207//37
f 209//131 208//125 207//37
f 210//130 207//37 12//36
f 211//130 210//130 12//36
f 13//40 22//132 226//38
f 226//38 225//133 17//39
f 19//129 18//128 222//43
f 18//128 224//41 222//43
f 40//69 41//68 247//48
f 41//68 227//134 247//48
f 228//135 40//69 230//48
f 230//48 229//48 228//135
f 232//136 231//137 233//48
f 231//137 230//48 233//48
f 235//48 234//138 233//48
f 40//69 247//48 230//48
f 235//48 233//48 247//48
f 233//48 230//48 247//48
f 237//47 236//48 235//48
f 239//48 238//139 237//47
f 241//48 240//140 239//48
f 243//48 242//136 237//47
f 242//136 241//48 237//47
f 245//48 244//48 237//47
f 244//48 243//48 237//47
f 247//48 246//48 245//48
f 241//48 239//48 237//47
f 237//47 235//48 245//48
f 260//48 259//137 250//47
f 259//137 32//108 251//48
f 250//47 259//137 251//48
f 32//108 31//107 255//48
f 31//107 258//137 255//48
f 258//137 257//137 255//48
f 257//137 256//137 255//48
f 255//48 254//48 251//48
f 254//48 253//47 252//137
f 261//48 260//48 249//47
f 32//108 255//48 251//48
f 254//48 252//137 251//48
f 235//48 247//48 245//48
f 227//134 261//48 248//48
f 260//48 250//47 249//47
f 248//48 247//48 227//134
f 16//77 33//102 340//52
f 33//102 341//52 340//52
f 340//52 339//141 338//142
f 22//132 13//40 317//142
f 13//40 16//77 318//143
f 317//142 13//40 318//143
f 16//77 340//52 332//143
f 340//52 338//142 332//143
f 338//142 337//144 335//142
f 337//144 336//53 335//142
f 335//142 334//52 332//143
f 338//142 335//142 332//143
f 334//52 333//145 332//143
f 319//143 318//143 16//77
f 16//77 332//143 331//52
f 320//142 319//143 324//146
f 319//143 16//77 324//146
f 324//146 16//77 331//52
f 322//147 321//146 323//143
f 321//146 320//142 323//143
f 324//146 323//143 320//142
f 327//142 326//142 329//52
f 326//142 325//53 330//52
f 328//148 327//142 329//52
f 326//142 330//52 329//52
f 325//53 324//146 331//52
