# Blender v2.81 (sub 16) OBJ File: ''
# www.blender.org
mtllib Isle of Man.mtl
o 0_Isle_of_Man_sphere.001
v 2.925176 4.047862 0.236086
v 2.923211 4.049036 0.240131
v 2.923768 4.048435 0.243757
v 2.923433 4.048619 0.244735
v 2.920372 4.050928 0.242439
v 2.913047 4.056316 0.239431
v 2.910451 4.058419 0.234927
v 2.903078 4.064009 0.228917
v 2.901286 4.065534 0.224498
v 2.901689 4.065328 0.223043
v 2.902483 4.064811 0.222171
v 2.911394 4.058536 0.220851
v 2.914250 4.056333 0.223846
v 2.917026 4.054287 0.225071
vn 0.5797 0.8135 0.0456
vn 0.5796 0.8136 0.0456
vn 0.5796 0.8136 0.0455
vn 0.5797 0.8135 0.0455
vn 0.5796 0.8136 0.0454
vn 0.5797 0.8136 0.0456
vn 0.5795 0.8137 0.0449
vn 0.5796 0.8136 0.0457
vn 0.5798 0.8135 0.0455
usemtl None
s 1
f 3//1 2//2 5//3
f 12//4 11//5 8//6
f 11//5 10//7 9//3
f 8//6 11//5 9//3
f 7//6 6//2 14//8
f 6//2 5//3 2//2
f 8//6 7//6 13//2
f 13//2 12//4 8//6
f 1//8 14//8 6//2
f 14//8 13//2 7//6
f 1//8 6//2 2//2
f 4//9 3//1 5//3
