# Blender v2.81 (sub 16) OBJ File: ''
# www.blender.org
mtllib Ivory Coast.mtl
o 0_Ivory_Coast_sphere.001
v 4.972317 0.443426 0.270511
v 4.971583 0.445647 0.281994
v 4.971464 0.448520 0.279246
v 4.972131 0.446874 0.268122
vn 0.9951 0.0862 0.0469
vn 0.9951 0.0865 0.0469
vn 0.9952 0.0861 0.0468
usemtl None
s 1
f 3//1 1//2 4//2
f 3//1 2//3 1//2
o 1_Ivory_Coast_sphere.001
v 4.915824 0.859643 0.309283
v 4.928691 0.782170 0.310093
v 4.940349 0.704504 0.310826
v 4.950783 0.626664 0.311482
v 4.959996 0.548669 0.312062
v 4.967982 0.470539 0.312565
v 4.903684 0.859643 0.463540
v 4.916518 0.782170 0.464754
v 4.928147 0.704504 0.465852
v 4.938556 0.626664 0.466836
v 4.947746 0.548669 0.467705
v 4.955713 0.470539 0.468459
v 4.886704 0.859643 0.617339
v 4.899494 0.782170 0.618956
v 4.911083 0.704504 0.620419
v 4.921455 0.626664 0.621730
v 4.930614 0.548669 0.622887
v 4.938552 0.470539 0.623890
v 4.945279 0.392293 0.624740
v 4.916687 0.859643 0.290995
v 4.957941 0.444715 0.468669
v 4.897060 0.896067 0.462914
v 4.875221 0.859643 0.698025
v 4.940699 0.392293 0.656918
v 4.907561 0.626664 0.719354
v 4.906868 0.859643 0.423089
v 4.914099 0.859643 0.331211
v 4.945374 0.392293 0.623877
v 4.961699 0.548669 0.275949
v 4.932446 0.782170 0.230471
v 4.917973 0.548669 0.711703
v 4.890775 0.782170 0.680217
v 4.881585 0.887891 0.616693
v 4.945299 0.392002 0.624742
v 4.971430 0.470539 0.239451
v 4.944379 0.704504 0.225371
v 4.969681 0.450898 0.312672
v 4.915452 0.861683 0.309259
v 4.935743 0.470539 0.643628
v 4.901194 0.704504 0.689904
v 4.953279 0.626664 0.258538
v 4.915522 0.861725 0.307633
v 4.917345 0.858060 0.282631
v 4.917425 0.859194 0.276935
v 4.918342 0.855204 0.271576
v 4.919995 0.846842 0.266066
v 4.920656 0.844159 0.261526
v 4.921357 0.841265 0.256876
v 4.922616 0.834670 0.253483
v 4.923896 0.828115 0.249478
v 4.924485 0.825205 0.247286
v 4.925795 0.818748 0.242315
v 4.926014 0.818653 0.238007
v 4.925752 0.821435 0.233735
v 4.925493 0.823513 0.231882
v 4.926240 0.819252 0.231081
v 4.927311 0.812332 0.232827
v 4.928038 0.808053 0.232519
v 4.928421 0.806421 0.230159
v 4.929278 0.800902 0.231488
v 4.930603 0.791523 0.236518
v 4.931526 0.785964 0.236581
v 4.932044 0.784243 0.231688
v 4.933130 0.778332 0.228224
v 4.934743 0.768245 0.226203
v 4.935351 0.764863 0.224114
v 4.935673 0.762791 0.223917
v 4.939512 0.738346 0.220539
v 4.943406 0.713804 0.216304
v 4.943756 0.710597 0.219124
v 4.943716 0.709657 0.222968
v 4.943770 0.708518 0.225473
v 4.944077 0.706241 0.226205
v 4.944633 0.702880 0.224591
v 4.944995 0.699809 0.225677
v 4.945054 0.697692 0.230474
v 4.945610 0.689881 0.240961
v 4.945993 0.686767 0.241698
v 4.946755 0.680112 0.244508
v 4.947190 0.676056 0.246844
v 4.948039 0.668531 0.250302
v 4.950456 0.648602 0.255864
v 4.952576 0.632090 0.257996
v 4.953243 0.627008 0.258330
v 4.953569 0.623453 0.260460
v 4.954064 0.618319 0.262875
v 4.955203 0.604154 0.274318
v 4.956300 0.592558 0.280183
v 4.956929 0.587530 0.279473
v 4.957538 0.582477 0.279243
v 4.957889 0.578829 0.280979
v 4.959062 0.569026 0.280731
v 4.960096 0.560831 0.279379
v 4.961143 0.552782 0.277402
v 4.963928 0.529985 0.269296
v 4.965547 0.516133 0.265083
v 4.966815 0.504975 0.262466
v 4.967691 0.497479 0.260166
v 4.968107 0.494434 0.257972
v 4.968445 0.491551 0.257075
v 4.969235 0.489471 0.244846
v 4.969516 0.487824 0.242465
v 4.971163 0.473274 0.239182
v 4.971746 0.466701 0.239818
v 4.971848 0.464211 0.242230
v 4.972335 0.458633 0.242168
v 4.972907 0.451713 0.242763
v 4.973060 0.448978 0.244553
v 4.972766 0.448630 0.251417
v 4.972773 0.446012 0.256084
v 4.972394 0.447051 0.262231
v 4.972217 0.448770 0.262804
v 4.972008 0.449389 0.266111
v 4.971237 0.453343 0.275185
v 4.970213 0.465982 0.273631
v 4.969969 0.466513 0.277841
v 4.969957 0.464865 0.281121
v 4.970966 0.449685 0.287653
v 4.971046 0.447071 0.290752
v 4.885519 0.916062 0.534173
v 4.887002 0.909034 0.532442
v 4.888441 0.902513 0.530261
v 4.888903 0.899868 0.530476
v 4.889427 0.895824 0.532465
v 4.889853 0.892107 0.534785
v 4.890152 0.890612 0.534565
v 4.891004 0.888077 0.531071
v 4.892226 0.885486 0.524316
v 4.893113 0.884889 0.517276
v 4.892857 0.888681 0.513283
v 4.892747 0.891775 0.509128
v 4.892557 0.894538 0.506249
v 4.891924 0.898610 0.505205
v 4.891873 0.901604 0.500684
v 4.892597 0.905375 0.487855
v 4.893783 0.905979 0.476100
v 4.894313 0.904780 0.473299
v 4.895934 0.899089 0.468088
v 4.881805 0.887599 0.615188
v 4.882881 0.885683 0.608629
v 4.884412 0.880626 0.603176
v 4.884650 0.880495 0.601245
v 4.884717 0.881552 0.598866
v 4.884598 0.883322 0.597009
v 4.884287 0.885258 0.596599
v 4.883196 0.889822 0.598882
v 4.882571 0.893910 0.597743
v 4.882181 0.897579 0.595172
v 4.882580 0.897797 0.591192
v 4.883055 0.898822 0.585189
v 4.883812 0.898822 0.578325
v 4.884499 0.898154 0.573225
v 4.884058 0.901823 0.571106
v 4.881978 0.912115 0.572817
v 4.881006 0.917776 0.572196
v 4.880229 0.922570 0.571264
v 4.880086 0.924508 0.569329
v 4.882019 0.918499 0.561820
v 4.883184 0.916324 0.554882
v 4.883770 0.916146 0.549873
v 4.883718 0.917283 0.548453
v 4.882293 0.923834 0.550462
v 4.881997 0.925813 0.549847
v 4.881994 0.926953 0.547971
v 4.882237 0.927617 0.544667
v 4.882734 0.930292 0.535712
v 4.882932 0.929772 0.534790
v 4.884991 0.919439 0.533332
v 4.897340 0.895186 0.461408
v 4.898064 0.895650 0.451127
v 4.899076 0.893311 0.443718
v 4.900382 0.888928 0.437331
v 4.902493 0.879191 0.433160
v 4.904145 0.872163 0.428540
v 4.906128 0.862156 0.426627
v 4.914277 0.861084 0.325594
v 4.907630 0.856893 0.419231
v 4.908487 0.854503 0.413417
v 4.910321 0.847214 0.405566
v 4.911582 0.843510 0.397390
v 4.912111 0.844362 0.388875
v 4.913054 0.840562 0.384953
v 4.914001 0.837871 0.378630
v 4.914532 0.837676 0.372291
v 4.913577 0.846077 0.366610
v 4.913608 0.849387 0.359193
v 4.913960 0.856113 0.340463
v 4.914034 0.859155 0.333065
v 4.956473 0.443511 0.482910
v 4.953737 0.436635 0.513122
v 4.952762 0.431571 0.525956
v 4.949547 0.414963 0.568181
v 4.947388 0.407145 0.593908
v 4.946894 0.404265 0.600656
v 4.946303 0.396148 0.612416
v 4.967491 0.454899 0.336080
v 4.966172 0.461201 0.345878
v 4.965123 0.462610 0.357649
v 4.963570 0.461880 0.378186
v 4.962399 0.460007 0.395145
v 4.962348 0.456173 0.400024
v 4.965518 0.458432 0.357242
v 4.965917 0.458011 0.352641
v 4.966286 0.455704 0.350505
v 4.962464 0.450669 0.404620
v 4.961096 0.447699 0.425278
v 4.960544 0.448533 0.431377
v 4.959758 0.453400 0.435985
v 4.957941 0.454013 0.458398
v 4.957715 0.452436 0.463008
v 4.957805 0.448853 0.465817
v 4.958434 0.449615 0.456992
v 4.959514 0.449806 0.443051
v 4.960045 0.447065 0.439335
v 4.890736 0.783558 0.678849
v 4.891338 0.789047 0.668138
v 4.890587 0.791995 0.669936
v 4.889586 0.795147 0.673242
v 4.888110 0.798314 0.679881
v 4.886624 0.808661 0.678101
v 4.885149 0.817891 0.677568
v 4.884514 0.816851 0.683257
v 4.883772 0.816320 0.689097
v 4.882606 0.819157 0.693943
v 4.881097 0.824753 0.697932
v 4.878448 0.840175 0.698338
v 4.875517 0.857986 0.697898
v 4.900573 0.708297 0.690216
v 4.899866 0.710438 0.692899
v 4.899415 0.710036 0.696494
v 4.898596 0.711442 0.700748
v 4.897173 0.714753 0.707218
v 4.896262 0.717681 0.710491
v 4.894427 0.730988 0.709181
v 4.893901 0.735110 0.708478
v 4.893875 0.737489 0.706119
v 4.894294 0.738128 0.702498
v 4.895676 0.738532 0.692359
v 4.897070 0.737018 0.684178
v 4.898226 0.736137 0.676993
v 4.898773 0.736155 0.673132
v 4.899801 0.732212 0.670113
v 4.900990 0.728187 0.666061
v 4.901508 0.728216 0.662388
v 4.901240 0.731223 0.661061
v 4.899166 0.744343 0.661629
v 4.897783 0.751294 0.663932
v 4.896001 0.757985 0.669305
v 4.893122 0.763693 0.683443
v 4.891884 0.771680 0.683619
v 4.890800 0.780334 0.682003
v 4.904284 0.644909 0.724994
v 4.902735 0.653954 0.727258
v 4.902015 0.656605 0.729786
v 4.901650 0.657596 0.731405
v 4.901842 0.661336 0.726495
v 4.902925 0.660358 0.719812
v 4.904775 0.657433 0.709609
v 4.904706 0.660329 0.707331
v 4.903848 0.675075 0.699304
v 4.903091 0.680547 0.699402
v 4.902480 0.684323 0.700104
v 4.901783 0.694425 0.695373
v 4.901775 0.698334 0.691695
v 4.901481 0.702552 0.689744
v 4.917140 0.550236 0.716234
v 4.916109 0.553027 0.721139
v 4.914815 0.558399 0.725721
v 4.913695 0.562679 0.729992
v 4.913263 0.562150 0.733474
v 4.912544 0.563152 0.737680
v 4.911724 0.565115 0.741799
v 4.911357 0.566614 0.743112
v 4.911829 0.583689 0.725457
v 4.911688 0.592063 0.719421
v 4.911184 0.597148 0.718691
v 4.910586 0.602310 0.718553
v 4.910237 0.607598 0.716564
v 4.909365 0.615652 0.715931
v 4.935066 0.477262 0.643501
v 4.934984 0.480051 0.642052
v 4.934782 0.483568 0.640916
v 4.933600 0.492313 0.642858
v 4.931552 0.508801 0.645271
v 4.931259 0.509877 0.646548
v 4.931167 0.509159 0.647713
v 4.930817 0.508861 0.650391
v 4.928744 0.514546 0.660822
v 4.927492 0.515518 0.668911
v 4.926189 0.520382 0.674529
v 4.925573 0.525927 0.674829
v 4.924849 0.529171 0.677561
v 4.923927 0.535574 0.679379
v 4.922776 0.542929 0.682123
v 4.921189 0.547378 0.690039
v 4.920014 0.548432 0.697531
v 4.919351 0.547495 0.702873
v 4.918433 0.547773 0.709120
v 4.940151 0.398513 0.656945
v 4.938087 0.420177 0.658129
v 4.937451 0.428456 0.657506
v 4.936974 0.436248 0.656065
v 4.936425 0.442707 0.655948
v 4.936939 0.445150 0.650836
v 4.936898 0.447861 0.649459
v 4.936285 0.456269 0.648593
v 4.936305 0.463936 0.643739
v 4.944980 0.391057 0.627456
v 4.943268 0.381448 0.644317
v 4.941961 0.379289 0.654584
v 4.941420 0.382347 0.656848
v 4.874011 0.865840 0.698492
v 4.873478 0.870034 0.696802
v 4.873490 0.873900 0.691703
v 4.873364 0.878901 0.686105
v 4.873063 0.882097 0.684078
v 4.873407 0.882180 0.681554
v 4.873992 0.884087 0.674968
v 4.874048 0.888459 0.668916
v 4.873193 0.897539 0.663155
v 4.872933 0.904850 0.655501
v 4.874221 0.904345 0.647102
v 4.874334 0.905680 0.644578
v 4.874710 0.905938 0.641609
v 4.876077 0.901152 0.638201
v 4.877244 0.897495 0.634740
v 4.877624 0.897392 0.632213
v 4.879142 0.890470 0.630514
vn 0.9832 0.1719 0.0619
vn 0.9807 0.1799 0.0772
vn 0.9832 0.1655 0.0774
vn 0.9834 0.1641 0.0774
vn 0.9833 0.1564 0.0929
vn 0.9857 0.1564 0.0620
vn 0.9856 0.1409 0.0931
vn 0.9881 0.1409 0.0622
vn 0.9901 0.1253 0.0623
vn 0.9877 0.1253 0.0934
vn 0.9920 0.1097 0.0624
vn 0.9895 0.1097 0.0935
vn 0.9936 0.0941 0.0625
vn 0.9911 0.0941 0.0937
vn 0.9778 0.1798 0.1079
vn 0.9778 0.1797 0.1079
vn 0.9773 0.1719 0.1234
vn 0.9799 0.1564 0.1238
vn 0.9822 0.1409 0.1241
vn 0.9843 0.1253 0.1243
vn 0.9861 0.1097 0.1246
vn 0.9877 0.0941 0.1248
vn 0.9739 0.1796 0.1386
vn 0.9739 0.1797 0.1386
vn 0.9766 0.1641 0.1390
vn 0.9766 0.1640 0.1390
vn 0.9790 0.1486 0.1393
vn 0.9790 0.1487 0.1393
vn 0.9812 0.1331 0.1396
vn 0.9812 0.1332 0.1396
vn 0.9832 0.1175 0.1399
vn 0.9831 0.1176 0.1400
vn 0.9849 0.1018 0.1401
vn 0.9849 0.1019 0.1401
vn 0.9863 0.0863 0.1404
vn 0.9891 0.0774 0.1250
vn 0.9825 0.1800 0.0463
vn 0.9852 0.1647 0.0464
vn 0.9854 0.1641 0.0464
vn 0.9854 0.1641 0.0465
vn 0.9878 0.1486 0.0465
vn 0.9878 0.1487 0.0464
vn 0.9878 0.1487 0.0466
vn 0.9900 0.1331 0.0467
vn 0.9919 0.1175 0.0468
vn 0.9937 0.1019 0.0468
vn 0.9937 0.1018 0.0468
vn 0.9951 0.0864 0.0469
vn 0.9951 0.0863 0.0469
vn 0.9807 0.1797 0.0772
vn 0.9807 0.1796 0.0772
vn 0.9807 0.1719 0.0927
vn 0.9902 0.0863 0.1093
vn 0.9893 0.0692 0.1285
vn 0.9905 0.0825 0.1095
vn 0.9932 0.0863 0.0782
vn 0.9932 0.0862 0.0782
vn 0.9875 0.0710 0.1405
vn 0.9817 0.1798 0.0615
vn 0.9829 0.1664 0.0781
vn 0.9834 0.1643 0.0773
vn 0.9834 0.1642 0.0773
vn 0.9829 0.1668 0.0773
vn 0.9834 0.1640 0.0774
vn 0.9834 0.1641 0.0775
vn 0.9836 0.1629 0.0774
vn 0.9834 0.1642 0.0774
vn 0.9778 0.1796 0.1079
vn 0.9789 0.1797 0.0977
vn 0.9778 0.1794 0.1082
vn 0.9778 0.1796 0.1081
vn 0.9757 0.1797 0.1252
vn 0.9778 0.1796 0.1080
vn 0.9778 0.1797 0.1077
vn 0.9778 0.1792 0.1080
vn 0.9777 0.1798 0.1081
vn 0.9778 0.1795 0.1080
vn 0.9778 0.1798 0.1080
vn 0.9778 0.1795 0.1079
vn 0.9777 0.1801 0.1079
vn 0.9778 0.1794 0.1079
vn 0.9778 0.1796 0.1075
vn 0.9777 0.1799 0.1079
vn 0.9752 0.1723 0.1388
vn 0.9739 0.1795 0.1388
vn 0.9740 0.1793 0.1386
vn 0.9739 0.1795 0.1386
vn 0.9739 0.1795 0.1387
vn 0.9740 0.1792 0.1386
vn 0.9764 0.1650 0.1390
vn 0.9784 0.1527 0.1392
vn 0.9766 0.1639 0.1390
vn 0.9766 0.1641 0.1389
vn 0.9765 0.1643 0.1390
vn 0.9790 0.1487 0.1394
vn 0.9801 0.1413 0.1395
vn 0.9791 0.1483 0.1393
vn 0.9789 0.1489 0.1394
vn 0.9789 0.1491 0.1394
vn 0.9790 0.1485 0.1392
vn 0.9820 0.1269 0.1397
vn 0.9812 0.1329 0.1396
vn 0.9813 0.1328 0.1394
vn 0.9812 0.1332 0.1395
vn 0.9812 0.1332 0.1397
vn 0.9833 0.1159 0.1399
vn 0.9832 0.1176 0.1399
vn 0.9832 0.1173 0.1400
vn 0.9831 0.1180 0.1398
vn 0.9830 0.1186 0.1399
vn 0.9832 0.1174 0.1399
vn 0.9832 0.1171 0.1397
vn 0.9856 0.0940 0.1403
vn 0.9849 0.1017 0.1402
vn 0.9848 0.1020 0.1402
vn 0.9848 0.1020 0.1401
vn 0.9849 0.1019 0.1402
vn 0.9848 0.1023 0.1401
vn 0.9848 0.1026 0.1401
vn 0.9848 0.1025 0.1402
vn 0.9849 0.1018 0.1402
vn 0.9849 0.1013 0.1402
vn 0.9849 0.1019 0.1400
vn 0.9848 0.1019 0.1402
vn 0.9849 0.1012 0.1402
vn 0.9869 0.0786 0.1404
vn 0.9863 0.0862 0.1404
vn 0.9863 0.0865 0.1405
vn 0.9863 0.0861 0.1404
vn 0.9870 0.1537 0.0466
vn 0.9853 0.1642 0.0464
vn 0.9854 0.1637 0.0466
vn 0.9854 0.1640 0.0464
vn 0.9853 0.1642 0.0465
vn 0.9853 0.1641 0.0464
vn 0.9853 0.1642 0.0463
vn 0.9853 0.1645 0.0464
vn 0.9853 0.1643 0.0462
vn 0.9892 0.1386 0.0466
vn 0.9878 0.1485 0.0466
vn 0.9878 0.1488 0.0466
vn 0.9878 0.1485 0.0467
vn 0.9876 0.1495 0.0467
vn 0.9877 0.1491 0.0467
vn 0.9907 0.1280 0.0469
vn 0.9899 0.1335 0.0481
vn 0.9900 0.1330 0.0466
vn 0.9900 0.1331 0.0462
vn 0.9900 0.1329 0.0467
vn 0.9900 0.1332 0.0458
vn 0.9930 0.1079 0.0468
vn 0.9920 0.1173 0.0468
vn 0.9919 0.1176 0.0468
vn 0.9920 0.1173 0.0466
vn 0.9920 0.1175 0.0466
vn 0.9944 0.0945 0.0469
vn 0.9937 0.1018 0.0469
vn 0.9937 0.1017 0.0469
vn 0.9937 0.1015 0.0467
vn 0.9944 0.0863 0.0609
vn 0.9951 0.0862 0.0469
vn 0.9952 0.0860 0.0469
vn 0.9952 0.0859 0.0469
vn 0.9952 0.0859 0.0468
vn 0.9951 0.0863 0.0470
vn 0.9951 0.0864 0.0468
vn 0.9951 0.0869 0.0468
vn 0.9807 0.1798 0.0772
vn 0.9807 0.1796 0.0770
vn 0.9918 0.0863 0.0945
vn 0.9932 0.0864 0.0782
vn 0.9932 0.0863 0.0781
vn 0.9932 0.0860 0.0782
vn 0.9931 0.0868 0.0782
vn 0.9875 0.0707 0.1406
vn 0.9875 0.0706 0.1405
vn 0.9875 0.0710 0.1406
usemtl None
s 1
f 5//4 180//5 31//6
f 187//7 184//7 12//8
f 6//9 13//10 7//11
f 8//12 13//10 14//13
f 9//14 14//13 15//15
f 10//16 15//15 16//17
f 172//18 171//19 169//19
f 12//8 17//20 18//21
f 12//8 19//22 13//10
f 13//10 20//23 14//13
f 15//15 20//23 21//24
f 16//17 21//24 22//25
f 326//26 324//26 330//27
f 225//28 224//29 221//28
f 19//22 249//30 248//31
f 264//32 263//33 20//23
f 278//34 275//34 273//35
f 21//24 295//36 292//37
f 305//38 304//38 23//39
f 46//40 5//4 24//41
f 61//42 57//43 56//43
f 76//44 75//45 72//46
f 84//47 83//47 7//11
f 95//48 92//48 8//12
f 10//16 104//49 102//50
f 116//51 113//52 109//52
f 177//53 175//54 11//55
f 197//56 196//56 22//25
f 38//57 32//58 23//39
f 205//59 204//59 212//60
f 312//61 38//57 23//39
f 5//4 42//62 180//5
f 12//8 6//9 187//7
f 6//9 5//4 31//6
f 191//7 6//9 31//6
f 31//6 192//63 191//7
f 191//7 190//7 6//9
f 190//7 189//64 188//65
f 30//66 11//55 181//67
f 11//55 12//8 181//67
f 183//7 182//68 181//67
f 188//65 6//9 190//7
f 6//9 188//65 187//7
f 183//7 181//67 12//8
f 186//69 185//70 184//7
f 184//7 183//7 12//8
f 187//7 186//69 184//7
f 6//9 12//8 13//10
f 8//12 7//11 13//10
f 9//14 8//12 14//13
f 10//16 9//14 15//15
f 17//20 11//55 132//71
f 11//55 26//72 142//71
f 133//19 11//55 134//19
f 142//71 141//73 140//71
f 143//74 37//75 17//20
f 145//76 144//19 17//20
f 144//19 143//74 17//20
f 142//71 140//71 139//71
f 139//71 138//19 136//19
f 138//19 137//19 136//19
f 142//71 139//71 136//19
f 146//77 145//76 17//20
f 147//71 146//77 17//20
f 142//71 136//19 11//55
f 135//19 134//19 11//55
f 136//19 135//19 11//55
f 148//78 147//71 131//19
f 147//71 17//20 131//19
f 148//78 131//19 130//18
f 151//76 150//71 149//79
f 152//80 151//76 153//19
f 151//76 149//79 153//19
f 155//81 154//82 149//79
f 154//82 153//19 149//79
f 155//81 149//79 148//78
f 156//19 155//81 148//78
f 159//71 158//71 162//71
f 158//71 157//19 162//71
f 160//18 159//71 162//71
f 156//19 148//78 130//18
f 156//19 130//18 129//18
f 161//19 160//18 162//71
f 163//71 162//71 157//19
f 163//71 157//19 164//82
f 157//19 156//19 129//18
f 164//82 157//19 129//18
f 11//55 133//19 132//71
f 167//83 166//19 168//83
f 166//19 165//84 169//19
f 168//83 166//19 169//19
f 165//84 164//82 125//19
f 17//20 132//71 131//19
f 129//18 128//76 164//82
f 128//76 127//85 126//19
f 125//19 164//82 128//76
f 128//76 126//19 125//19
f 169//19 165//84 172//18
f 124//19 165//84 125//19
f 171//19 170//86 169//19
f 124//19 172//18 165//84
f 12//8 11//55 17//20
f 12//8 18//21 19//22
f 13//10 19//22 20//23
f 15//15 14//13 20//23
f 16//17 15//15 21//24
f 27//87 17//20 322//26
f 17//20 37//75 332//27
f 332//27 331//88 330//27
f 17//20 332//27 323//26
f 322//26 17//20 323//26
f 317//89 316//26 318//26
f 316//26 27//87 318//26
f 332//27 330//27 324//26
f 329//90 328//91 327//90
f 330//27 329//90 326//26
f 319//27 318//26 27//87
f 321//92 320//26 319//27
f 322//26 321//92 319//27
f 319//27 27//87 322//26
f 323//26 332//27 324//26
f 329//90 327//90 326//26
f 326//26 325//26 324//26
f 18//21 17//20 225//28
f 17//20 27//87 231//29
f 231//29 230//28 225//28
f 230//28 229//28 226//29
f 225//28 230//28 226//29
f 17//20 231//29 225//28
f 219//93 36//94 220//28
f 36//94 18//21 220//28
f 229//28 228//95 226//29
f 228//95 227//28 226//29
f 221//28 220//28 18//21
f 224//29 223//96 222//97
f 222//97 221//28 224//29
f 221//28 18//21 225//28
f 19//22 18//21 250//31
f 18//21 36//94 252//31
f 36//94 255//30 254//31
f 254//31 253//30 252//31
f 36//94 254//31 252//31
f 232//98 44//99 247//31
f 44//99 19//22 248//31
f 247//31 44//99 248//31
f 235//31 234//100 233//31
f 233//31 232//98 244//31
f 18//21 252//31 251//31
f 18//21 251//31 250//31
f 235//31 233//31 242//31
f 232//98 247//31 246//31
f 237//98 236//31 238//31
f 236//31 235//31 238//31
f 239//101 238//31 241//31
f 241//31 238//31 242//31
f 241//31 240//102 239//101
f 243//31 242//31 233//31
f 246//31 245//103 244//31
f 244//31 243//31 233//31
f 232//98 246//31 244//31
f 235//31 242//31 238//31
f 19//22 250//31 249//30
f 29//104 20//23 262//33
f 20//23 19//22 264//32
f 262//33 20//23 263//33
f 19//22 44//99 269//105
f 268//32 267//106 265//33
f 267//106 266//107 265//33
f 19//22 269//105 268//32
f 256//32 29//104 262//33
f 19//22 268//32 264//32
f 268//32 265//33 264//32
f 260//33 259//32 258//108
f 262//33 261//33 256//32
f 261//33 260//33 257//32
f 261//33 257//32 256//32
f 260//33 258//108 257//32
f 35//109 21//24 279//110
f 21//24 20//23 280//110
f 279//110 21//24 280//110
f 20//23 29//104 283//34
f 282//34 281//111 280//110
f 20//23 283//34 282//34
f 270//110 35//109 278//34
f 272//34 271//112 270//110
f 275//34 274//113 273//35
f 273//35 272//34 278//34
f 272//34 270//110 278//34
f 35//109 279//110 278//34
f 20//23 282//34 280//110
f 278//34 277//114 275//34
f 277//114 276//115 275//34
f 43//116 22//25 284//117
f 22//25 21//24 288//118
f 286//119 22//25 287//120
f 35//109 302//121 301//122
f 35//109 301//122 300//123
f 285//124 284//117 22//25
f 288//118 287//120 22//25
f 286//119 285//124 22//25
f 21//24 35//109 300//123
f 21//24 300//123 299//125
f 21//24 299//125 298//120
f 297//37 296//126 295//36
f 21//24 298//120 297//37
f 289//127 288//118 21//24
f 291//117 290//128 289//127
f 294//124 293//37 295//36
f 293//37 292//37 295//36
f 292//37 291//117 289//127
f 289//127 21//24 292//37
f 21//24 297//37 295//36
f 28//129 23//39 303//38
f 23//39 22//25 309//130
f 303//38 23//39 304//38
f 22//25 43//116 311//38
f 311//38 310//131 309//130
f 308//132 307//130 306//38
f 22//25 311//38 309//130
f 308//132 306//38 305//38
f 309//130 308//132 23//39
f 305//38 23//39 308//132
f 46//40 42//62 5//4
f 6//9 34//133 66//134
f 34//133 67//135 66//134
f 24//41 5//4 6//9
f 49//136 48//137 47//136
f 47//136 24//41 50//138
f 24//41 6//9 50//138
f 6//9 66//134 65//138
f 65//138 64//138 62//138
f 64//138 63//139 62//138
f 6//9 65//138 56//43
f 50//138 6//9 53//42
f 50//138 49//136 47//136
f 52//138 51//140 53//42
f 51//140 50//138 53//42
f 53//42 6//9 54//134
f 65//138 62//138 56//43
f 62//138 61//42 56//43
f 61//42 60//139 57//43
f 60//139 59//141 58//139
f 60//139 58//139 57//43
f 54//134 6//9 55//137
f 55//137 6//9 56//43
f 7//11 40//142 77//143
f 7//11 77//143 76//44
f 34//133 6//9 69//46
f 6//9 7//11 71//144
f 69//46 6//9 71//144
f 69//46 68//145 34//133
f 71//144 70//146 69//46
f 74//147 73//46 75//45
f 73//46 72//46 75//45
f 72//46 71//144 7//11
f 7//11 76//44 72//46
f 8//12 45//148 87//47
f 45//148 88//149 87//47
f 40//142 7//11 81//47
f 7//11 8//12 86//47
f 81//47 7//11 83//47
f 79//150 78//151 40//142
f 80//152 79//150 40//142
f 8//12 87//47 86//47
f 86//47 85//47 7//11
f 81//47 80//152 40//142
f 83//47 82//153 81//47
f 85//47 84//47 7//11
f 9//14 33//154 98//48
f 9//14 98//48 97//48
f 89//155 45//148 8//12
f 91//156 90//48 8//12
f 90//48 89//155 8//12
f 94//157 93//158 95//48
f 93//158 92//48 95//48
f 92//48 91//156 8//12
f 8//12 9//14 95//48
f 9//14 97//48 96//48
f 9//14 96//48 95//48
f 10//16 39//159 104//49
f 39//159 107//160 104//49
f 107//160 106//161 105//50
f 104//49 103//162 102//50
f 107//160 105//50 104//49
f 33//154 9//14 99//49
f 9//14 10//16 100//49
f 100//49 10//16 101//49
f 100//49 99//49 9//14
f 102//50 101//49 10//16
f 10//16 41//163 122//164
f 41//163 123//165 122//164
f 122//164 121//166 10//16
f 108//167 39//159 109//52
f 39//159 10//16 120//164
f 111//168 110//52 113//52
f 110//52 109//52 113//52
f 39//159 120//164 119//52
f 109//52 39//159 119//52
f 10//16 121//166 120//164
f 119//52 118//51 117//169
f 119//52 117//169 116//51
f 112//164 111//168 113//52
f 115//170 114//51 116//51
f 114//51 113//52 116//51
f 109//52 119//52 116//51
f 11//55 30//66 179//171
f 179//171 178//53 11//55
f 178//53 177//53 11//55
f 177//53 176//54 175//54
f 175//54 174//53 11//55
f 174//53 173//172 11//55
f 173//172 26//72 11//55
f 23//39 32//58 199//56
f 23//39 199//56 22//25
f 199//56 198//56 22//25
f 16//17 22//25 194//56
f 193//56 25//173 16//17
f 196//56 195//56 22//25
f 195//56 194//56 22//25
f 194//56 193//56 16//17
f 22//25 198//56 197//56
f 25//173 218//59 216//174
f 218//59 217//59 216//174
f 216//174 215//175 25//173
f 200//60 41//163 10//16
f 201//60 200//60 10//16
f 16//17 25//173 215//175
f 16//17 215//175 214//59
f 202//59 201//60 10//16
f 203//174 202//59 10//16
f 16//17 214//59 213//175
f 212//60 211//176 210//60
f 16//17 213//175 212//60
f 203//174 10//16 16//17
f 204//59 203//174 16//17
f 212//60 210//60 205//59
f 210//60 209//175 205//59
f 204//59 16//17 212//60
f 207//177 206//60 208//174
f 206//60 205//59 209//175
f 208//174 206//60 209//175
f 23//39 28//129 312//61
f 28//129 315//178 313//179
f 312//61 28//129 313//179
f 315//178 314//180 313//179
