# Blender v2.81 (sub 16) OBJ File: ''
# www.blender.org
mtllib Jersey.mtl
o 0_Jersey_sphere.001
v 3.266182 3.783706 0.114624
v 3.266814 3.783055 0.117151
v 3.265560 3.784057 0.119231
v 3.265369 3.784048 0.123488
v 3.265920 3.783406 0.127514
v 3.260043 3.788546 0.126410
v 3.261111 3.787941 0.118568
v 3.262838 3.786589 0.115006
vn 0.6547 0.7552 0.0309
vn 0.6547 0.7553 0.0309
vn 0.6547 0.7552 0.0308
usemtl None
s 1
f 7//1 4//1 3//1
f 1//1 8//1 3//1
f 8//1 7//1 3//1
f 1//1 3//1 2//2
f 7//1 6//3 4//1
f 6//3 5//1 4//1
