# Blender v2.81 (sub 16) OBJ File: ''
# www.blender.org
mtllib Kenya.mtl
o 0_Kenya_sphere.001
v 3.772855 -0.189062 -3.274712
v 3.771901 -0.184047 -3.276133
v 3.765895 -0.177665 -3.283551
v 3.763313 -0.179105 -3.286486
v 3.762779 -0.180569 -3.287022
v 3.762883 -0.181899 -3.286820
v 3.763915 -0.183209 -3.285533
v 3.770755 -0.188290 -3.277218
vn 0.7598 -0.0392 -0.6489
vn 0.7598 -0.0393 -0.6490
vn 0.7597 -0.0392 -0.6490
vn 0.7592 -0.0391 -0.6496
usemtl None
s 1
f 7//1 6//2 4//3
f 5//4 4//3 6//2
f 4//3 3//1 7//1
f 3//1 2//1 7//1
f 2//1 1//1 8//1
f 7//1 2//1 8//1
o 1_Kenya_sphere.001
v 3.743157 0.313950 -3.300031
v 3.748707 -0.157056 -3.304922
v 3.848292 0.235530 -3.183576
v 3.850667 0.157051 -3.185542
v 3.852093 0.078534 -3.186723
v 3.852568 -0.000003 -3.187115
v 3.852093 -0.078539 -3.186723
v 3.850667 -0.157056 -3.185542
v 3.848291 -0.235535 -3.183576
v 3.844966 -0.313955 -3.180827
v 3.942982 0.313950 -3.058484
v 3.946391 0.235530 -3.061127
v 3.948827 0.157051 -3.063018
v 3.950289 0.078534 -3.064153
v 3.950777 -0.000003 -3.064530
v 3.950289 -0.078539 -3.064153
v 3.948827 -0.157056 -3.063018
v 3.946391 -0.235535 -3.061127
v 3.942981 -0.313955 -3.058484
v 4.037106 0.313950 -2.933123
v 4.040596 0.235530 -2.935658
v 4.043090 0.157051 -2.937470
v 4.044587 0.078534 -2.938559
v 4.045086 -0.000003 -2.938921
v 4.044587 -0.078539 -2.938559
v 4.043090 -0.157056 -2.937470
v 4.135404 -0.000003 -2.810411
v 4.134893 -0.078539 -2.810066
v 4.123625 0.078534 -2.826099
v 3.748574 -0.161562 -3.304805
v 3.845244 0.307421 -3.181056
v 3.774595 -0.000003 -3.278409
v 3.898978 0.313950 -3.113410
v 4.119725 0.392293 -2.805922
v 4.033444 0.392293 -2.928688
v 4.135045 0.055298 -2.810168
v 3.772636 -0.078539 -3.279754
v 3.730230 0.313950 -3.314238
v 3.840760 0.313950 -3.185753
v 4.115203 0.313950 -2.822001
v 3.841946 -0.369317 -3.178329
v 3.942609 -0.320603 -3.058195
v 3.746121 -0.157056 -3.307764
v 3.986954 -0.235535 -3.007102
v 4.122954 0.387224 -2.801952
v 4.126298 0.330116 -2.804224
v 3.771000 0.235530 -3.274073
v 4.148664 -0.000003 -2.790224
v 4.072659 -0.157056 -2.895398
v 4.072542 -0.157056 -2.895565
v 4.101604 0.235530 -2.848853
v 4.032685 0.391110 -2.929912
v 3.741536 0.344466 -3.298602
v 4.134515 -0.097964 -2.809808
v 3.813232 -0.235535 -3.224624
v 3.941810 0.334900 -3.057575
v 4.149201 -0.078539 -2.788284
v 3.773142 0.157051 -3.276313
v 4.094342 0.157051 -2.864547
v 3.749301 -0.123416 -3.305447
v 4.042182 -0.185625 -2.936810
v 3.744291 0.286485 -3.301030
v 4.068371 0.470539 -2.867204
v 4.063398 0.470539 -2.874280
v 4.056986 0.470539 -2.883404
v 4.050187 0.470539 -2.893078
v 3.830445 -0.313955 -3.197829
v 3.876379 -0.392298 -3.132747
v 3.847522 -0.392298 -3.168767
v 3.774343 0.078534 -3.277755
v 3.945978 -0.313955 -3.054491
v 4.061057 0.467484 -2.878072
v 4.058318 0.469244 -2.881703
v 4.040223 0.465671 -2.907988
v 4.038317 0.459986 -2.911556
v 4.038883 0.453863 -2.911674
v 4.038598 0.449415 -2.912749
v 4.039967 0.444950 -2.911475
v 4.042068 0.431469 -2.910516
v 4.042594 0.419080 -2.911633
v 4.039110 0.409917 -2.917970
v 4.035914 0.402716 -2.923603
v 4.033654 0.392625 -2.928338
v 4.112903 0.402787 -2.814048
v 4.098349 0.424945 -2.831419
v 4.084982 0.445294 -2.847372
v 4.073430 0.462875 -2.861160
v 4.062832 0.469151 -2.875294
v 4.131394 0.059897 -2.815299
v 4.130343 0.063808 -2.816741
v 4.124331 0.075678 -2.825133
v 3.841795 0.312020 -3.184704
v 3.747887 0.279250 -3.297432
v 3.760309 0.261419 -3.284397
v 3.769700 0.247940 -3.274544
v 3.770639 0.245519 -3.273649
v 3.749269 -0.162898 -3.303911
v 3.755828 -0.169706 -3.295819
v 3.764810 -0.172962 -3.285106
v 3.767560 -0.172341 -3.281923
v 3.771211 -0.170195 -3.277778
v 3.772497 -0.173789 -3.276055
v 3.773391 -0.179385 -3.274670
v 3.775439 -0.178210 -3.272343
v 3.777007 -0.176558 -3.270607
v 3.775809 -0.186497 -3.271409
v 3.774719 -0.191403 -3.272388
v 3.775890 -0.198045 -3.270615
v 3.780132 -0.203836 -3.265298
v 3.780385 -0.208724 -3.264706
v 3.789596 -0.221545 -3.253146
v 3.803096 -0.222958 -3.237254
v 3.810052 -0.229317 -3.228725
v 3.813069 -0.234526 -3.224877
v 4.031632 0.389520 -2.931502
v 4.028582 0.387918 -2.935754
v 4.018699 0.387482 -2.948968
v 4.004046 0.386829 -2.968561
v 3.989941 0.386208 -2.987420
v 3.988676 0.385967 -2.989135
v 3.985758 0.384586 -2.993183
v 3.973522 0.370929 -3.011090
v 3.962306 0.358422 -3.027503
v 3.952831 0.347552 -3.041404
v 3.943639 0.336996 -3.054892
v 4.147627 0.015160 -2.791586
v 4.143054 0.025698 -2.798398
v 4.140919 0.033372 -2.801538
v 4.139349 0.044076 -2.803775
v 4.136942 0.052807 -2.807315
v 3.846724 -0.390420 -3.169976
v 3.884202 -0.383817 -3.123943
v 3.893082 -0.374198 -3.113949
v 3.901960 -0.364585 -3.103954
v 3.910867 -0.354963 -3.093926
v 3.919759 -0.345338 -3.083917
v 3.928654 -0.335711 -3.073903
v 3.937546 -0.326083 -3.063894
v 4.149302 -0.072577 -2.788216
v 4.148396 -0.034725 -2.790136
v 4.148753 -0.001488 -2.790069
v 3.942762 -0.320435 -3.058012
v 3.945031 -0.317101 -3.055383
v 3.833445 0.327381 -3.192854
v 3.830074 0.335845 -3.195877
v 3.819888 0.344243 -3.206889
v 3.802186 0.355973 -3.226336
v 3.789702 0.364235 -3.240053
v 3.775897 0.372539 -3.255311
v 3.770209 0.365342 -3.262756
v 3.762453 0.353778 -3.273097
v 3.759003 0.348074 -3.277758
v 3.756128 0.345555 -3.281399
v 3.751678 0.343864 -3.286794
v 3.746143 0.343822 -3.293279
v 3.743106 0.344095 -3.296805
v 3.765939 -0.091409 -3.287128
v 3.758112 -0.106506 -3.295745
v 4.120525 0.090933 -2.830002
v 4.117740 0.096117 -2.833752
v 4.114298 0.100905 -2.838453
v 4.111909 0.103422 -2.841749
v 4.107958 0.105948 -2.847267
v 4.104878 0.107383 -2.851591
v 4.104293 0.108588 -2.852374
v 4.103984 0.111058 -2.852713
v 4.104817 0.120508 -2.851139
v 4.103463 0.123608 -2.852939
v 4.101269 0.129917 -2.855803
v 4.098759 0.135804 -2.859133
v 4.096539 0.139535 -2.862139
v 4.095268 0.143382 -2.863789
v 4.094599 0.150035 -2.864468
v 4.094390 0.154747 -2.864571
v 4.055821 0.471689 -2.884856
v 4.053553 0.472193 -2.887994
v 4.063023 0.478550 -2.873387
v 4.063501 0.475565 -2.873239
v 4.063797 0.471582 -2.873526
v 4.094211 0.162446 -2.864365
v 4.094321 0.179931 -2.863013
v 4.096358 0.194561 -2.859115
v 4.097403 0.210932 -2.856510
v 4.096075 0.216316 -2.858032
v 4.097739 0.225908 -2.855009
v 4.098699 0.226436 -2.853607
v 4.100264 0.228535 -2.851237
v 3.774400 -0.026827 -3.278314
v 3.774087 -0.063598 -3.278236
v 3.773955 -0.075952 -3.278241
v 3.891246 0.310373 -3.123376
v 3.879684 0.307029 -3.138101
v 3.871007 0.305312 -3.149084
v 3.865808 0.303387 -3.155742
v 3.851247 0.301416 -3.174091
v 3.848762 0.302556 -3.177092
v 3.946987 -0.310450 -3.053469
v 3.947858 -0.308801 -3.052461
v 3.950108 -0.306708 -3.049656
v 3.952624 -0.306250 -3.046347
v 3.953411 -0.304992 -3.045413
v 3.953515 -0.301785 -3.045569
v 3.952847 -0.297166 -3.046882
v 3.950274 -0.288326 -3.051119
v 3.950178 -0.283136 -3.051723
v 3.951028 -0.277232 -3.051131
v 3.952352 -0.267786 -3.050233
v 3.953244 -0.265642 -3.049241
v 3.958797 -0.260691 -3.042300
v 3.970393 -0.250325 -3.027804
v 3.982002 -0.239950 -3.013293
v 4.101983 0.237568 -2.848119
v 4.103181 0.245820 -2.845623
v 4.104046 0.247897 -2.844195
v 4.110451 0.255115 -2.834391
v 4.113005 0.272127 -2.829129
v 4.116563 0.275919 -2.823704
v 4.117858 0.292826 -2.820244
v 4.118002 0.297633 -2.819579
v 4.050610 -0.177696 -2.925361
v 4.061640 -0.167316 -2.910375
v 3.774448 0.046714 -3.278017
v 3.934391 0.326727 -3.067760
v 3.927186 0.318200 -3.077718
v 3.919748 0.315601 -3.087298
v 3.907488 0.314366 -3.102741
v 4.137848 -0.094644 -2.804876
v 4.141783 -0.090742 -2.799054
v 4.145298 -0.087446 -2.793843
v 4.148952 -0.087447 -2.788282
v 4.127839 0.332498 -2.801570
v 4.127070 0.334925 -2.802428
v 4.126549 0.337443 -2.802897
v 4.129031 0.339130 -2.798901
v 4.134790 0.367944 -2.786419
v 4.124163 0.385256 -2.800364
v 4.115111 0.314493 -2.822064
v 4.115108 0.318354 -2.821593
v 4.117128 0.321917 -2.818280
v 4.123216 0.325547 -2.809172
v 4.083559 -0.146560 -2.880319
v 4.094471 -0.136176 -2.865219
v 4.105332 -0.125800 -2.850189
v 4.116234 -0.115412 -2.835104
v 4.127120 -0.105032 -2.820039
v 3.773700 0.120249 -3.276994
v 3.831686 -0.330158 -3.194610
v 3.834336 -0.341221 -3.190301
v 3.835032 -0.344885 -3.189088
v 3.835663 -0.348200 -3.187987
v 3.837811 -0.354695 -3.184763
v 3.839225 -0.359157 -3.182623
v 3.840247 -0.362088 -3.181107
v 3.730664 0.313119 -3.313828
v 3.993550 -0.229582 -2.998706
v 4.005044 -0.219204 -2.984077
v 4.016538 -0.208825 -2.969448
v 4.028006 -0.198451 -2.954852
v 4.039485 -0.188076 -2.940242
v 3.852089 -0.403216 -3.161554
v 3.857064 -0.401748 -3.155548
v 3.859946 -0.406701 -3.151265
v 3.860137 -0.409036 -3.150702
v 3.861930 -0.407720 -3.148647
v 3.866323 -0.403049 -3.143811
v 3.875324 -0.393433 -3.133908
v 3.771146 0.230499 -3.274207
v 3.772141 0.193758 -3.275264
v 3.815006 -0.245917 -3.221669
v 3.813432 -0.263365 -3.222033
v 3.816654 -0.276794 -3.217124
v 3.817075 -0.283524 -3.216061
v 3.823705 -0.292243 -3.207560
v 3.826488 -0.300239 -3.203624
v 3.828432 -0.308369 -3.200658
v 3.830297 -0.311932 -3.198172
v 3.736657 0.345582 -3.303848
v 3.721602 0.346951 -3.320248
v 3.713027 0.346836 -3.329685
v 3.721047 0.331503 -3.322483
v 3.747667 -0.126483 -3.307136
v 3.741898 -0.137193 -3.313101
v 3.740886 -0.140762 -3.314087
v 3.741083 -0.147926 -3.313621
vn 0.7486 0.0627 -0.6600
vn 0.7585 0.0707 -0.6478
vn 0.7585 0.0706 -0.6478
vn 0.7602 -0.0190 -0.6493
vn 0.7704 -0.0157 -0.6373
vn 0.7701 -0.0314 -0.6371
vn 0.7696 0.0471 -0.6367
vn 0.7792 0.0549 -0.6243
vn 0.7898 0.0314 -0.6126
vn 0.7701 0.0314 -0.6371
vn 0.7900 0.0157 -0.6128
vn 0.7704 0.0157 -0.6373
vn 0.7705 0.0000 -0.6374
vn 0.7902 0.0000 -0.6129
vn 0.7900 -0.0157 -0.6128
vn 0.7898 -0.0314 -0.6126
vn 0.7696 -0.0471 -0.6367
vn 0.7893 -0.0471 -0.6122
vn 0.7886 -0.0627 -0.6117
vn 0.7690 -0.0627 -0.6362
vn 0.8074 0.0627 -0.5866
vn 0.7977 0.0706 -0.5989
vn 0.7977 0.0705 -0.5989
vn 0.7893 0.0471 -0.6122
vn 0.8081 0.0471 -0.5871
vn 0.8086 0.0314 -0.5875
vn 0.8089 0.0157 -0.5877
vn 0.8090 0.0000 -0.5878
vn 0.8089 -0.0157 -0.5877
vn 0.8086 -0.0314 -0.5875
vn 0.7991 -0.0392 -0.5999
vn 0.7990 -0.0417 -0.5999
vn 0.7985 -0.0549 -0.5994
vn 0.7985 -0.0549 -0.5995
vn 0.8159 0.0745 -0.5734
vn 0.8161 0.0705 -0.5735
vn 0.8161 0.0706 -0.5735
vn 0.8169 0.0549 -0.5741
vn 0.8175 0.0393 -0.5745
vn 0.8175 0.0392 -0.5745
vn 0.8180 0.0235 -0.5747
vn 0.8180 0.0236 -0.5748
vn 0.8179 0.0235 -0.5748
vn 0.8181 0.0078 -0.5750
vn 0.8271 0.0000 -0.5621
vn 0.8270 -0.0157 -0.5620
vn 0.8179 -0.0235 -0.5748
vn 0.8176 -0.0295 -0.5750
vn 0.8178 -0.0266 -0.5748
vn 0.8357 0.0078 -0.5490
vn 0.8357 -0.0079 -0.5490
vn 0.8358 -0.0078 -0.5490
vn 0.8151 0.0863 -0.5729
vn 0.8150 0.0876 -0.5728
vn 0.7592 0.0549 -0.6485
vn 0.7598 -0.0392 -0.6489
vn 0.7598 -0.0393 -0.6490
vn 0.7598 -0.0393 -0.6489
vn 0.7785 -0.0706 -0.6237
vn 0.7978 -0.0706 -0.5988
vn 0.7844 -0.0706 -0.6162
vn 0.8139 0.1020 -0.5720
vn 0.8149 0.0890 -0.5727
vn 0.8139 0.1018 -0.5720
vn 0.8138 0.1018 -0.5720
vn 0.8148 0.0902 -0.5726
vn 0.7604 -0.0078 -0.6494
vn 0.8175 -0.0392 -0.5745
vn 0.8054 -0.0392 -0.5915
vn 0.7604 0.0078 -0.6494
vn 0.7785 0.0707 -0.6236
vn 0.7785 0.0706 -0.6237
vn 0.7886 0.0627 -0.6117
vn 0.8356 -0.0235 -0.5488
vn 0.8356 -0.0235 -0.5489
vn 0.8338 0.0706 -0.5475
vn 0.8338 0.0705 -0.5475
vn 0.8213 0.0705 -0.5661
vn 0.7602 0.0235 -0.6493
vn 0.7585 -0.0706 -0.6478
vn 0.7385 0.0550 -0.6720
vn 0.7553 0.0549 -0.6530
vn 0.7775 -0.0863 -0.6229
vn 0.7782 -0.0752 -0.6235
vn 0.7775 -0.0865 -0.6229
vn 0.7550 -0.0393 -0.6545
vn 0.7394 -0.0279 -0.6727
vn 0.7497 -0.0314 -0.6610
vn 0.7598 0.0392 -0.6489
vn 0.7592 -0.0549 -0.6485
vn 0.7378 0.0706 -0.6713
vn 0.7472 0.0706 -0.6608
vn 0.7394 -0.0236 -0.6728
vn 0.7394 -0.0235 -0.6728
vn 0.7590 0.0595 -0.6483
vn 0.7584 0.0706 -0.6478
vn 0.7602 -0.0236 -0.6493
vn 0.7559 -0.0235 -0.6542
vn 0.7602 -0.0235 -0.6493
vn 0.7646 0.0549 -0.6421
vn 0.7792 0.0551 -0.6243
vn 0.7793 0.0549 -0.6243
vn 0.7917 0.0706 -0.6068
vn 0.8111 0.0706 -0.5806
vn 0.7976 0.0706 -0.5990
vn 0.7977 0.0704 -0.5989
vn 0.7978 0.0683 -0.5990
vn 0.7990 -0.0392 -0.6000
vn 0.7982 -0.0609 -0.5993
vn 0.7986 -0.0547 -0.5993
vn 0.7984 -0.0549 -0.5995
vn 0.7985 -0.0550 -0.5995
vn 0.7984 -0.0551 -0.5995
vn 0.8166 0.0619 -0.5739
vn 0.8161 0.0708 -0.5736
vn 0.8159 0.0744 -0.5734
vn 0.8206 0.0706 -0.5671
vn 0.8162 0.0699 -0.5735
vn 0.8172 0.0490 -0.5743
vn 0.8169 0.0550 -0.5741
vn 0.8169 0.0548 -0.5741
vn 0.8177 0.0313 -0.5747
vn 0.8176 0.0392 -0.5745
vn 0.8172 0.0409 -0.5748
vn 0.8180 0.0138 -0.5749
vn 0.8179 0.0237 -0.5748
vn 0.8179 0.0236 -0.5748
vn 0.8179 0.0238 -0.5748
vn 0.8179 0.0234 -0.5748
vn 0.8178 0.0237 -0.5750
vn 0.8180 0.0233 -0.5748
vn 0.8179 0.0236 -0.5749
vn 0.8181 0.0078 -0.5749
vn 0.8235 0.0078 -0.5672
vn 0.8179 -0.0236 -0.5748
vn 0.8240 -0.0236 -0.5661
vn 0.8358 -0.0006 -0.5490
vn 0.8358 0.0078 -0.5490
vn 0.8358 0.0077 -0.5489
vn 0.8357 0.0078 -0.5491
vn 0.8357 -0.0156 -0.5490
vn 0.8357 -0.0078 -0.5490
vn 0.8150 0.0874 -0.5728
vn 0.8151 0.0860 -0.5728
vn 0.8151 0.0862 -0.5728
vn 0.8151 0.0863 -0.5728
vn 0.8151 0.0862 -0.5729
vn 0.8148 0.0902 -0.5727
vn 0.8149 0.0864 -0.5730
vn 0.8150 0.0863 -0.5729
vn 0.7595 0.0470 -0.6487
vn 0.7596 -0.0456 -0.6488
vn 0.7598 -0.0391 -0.6489
vn 0.7598 -0.0395 -0.6489
vn 0.7597 -0.0392 -0.6490
vn 0.7783 -0.0738 -0.6235
vn 0.7758 -0.0706 -0.6269
vn 0.7785 -0.0706 -0.6236
vn 0.7977 -0.0705 -0.5989
vn 0.8138 0.1029 -0.5719
vn 0.8138 0.1018 -0.5721
vn 0.7604 0.0000 -0.6494
vn 0.8175 -0.0393 -0.5745
vn 0.7603 0.0157 -0.6493
vn 0.7785 0.0703 -0.6237
vn 0.8356 -0.0236 -0.5489
vn 0.8355 -0.0236 -0.5489
vn 0.8337 0.0706 -0.5476
vn 0.8337 0.0706 -0.5477
vn 0.8338 0.0705 -0.5476
vn 0.7600 0.0314 -0.6491
vn 0.7584 -0.0706 -0.6479
vn 0.7589 -0.0617 -0.6482
vn 0.7380 0.0659 -0.6716
vn 0.7775 -0.0862 -0.6229
vn 0.7774 -0.0861 -0.6230
vn 0.7592 -0.0548 -0.6485
vn 0.7592 -0.0549 -0.6484
vn 0.7592 -0.0550 -0.6485
vn 0.7396 -0.0236 -0.6727
usemtl None
s 1
f 9//5 161//6 160//7
f 45//8 15//9 16//10
f 11//11 203//12 202//12
f 11//11 21//13 12//14
f 12//14 22//15 13//16
f 14//17 22//15 23//18
f 14//17 24//19 15//9
f 16//10 24//19 25//20
f 17//21 25//20 26//22
f 17//21 27//23 18//24
f 28//25 130//26 127//27
f 20//28 28//25 29//29
f 20//28 30//30 21//13
f 21//13 31//31 22//15
f 23//18 31//31 32//32
f 23//18 33//33 24//19
f 25//20 33//33 34//34
f 263//35 52//36 25//20
f 212//37 211//38 206//38
f 42//39 247//40 246//41
f 222//42 221//42 28//25
f 29//29 193//43 192//44
f 177//45 176//46 174//47
f 99//48 97//48 35//49
f 32//32 36//50 33//33
f 249//51 57//52 58//53
f 35//49 136//54 135//54
f 35//49 149//55 148//56
f 86//57 84//57 74//58
f 102//59 101//59 9//5
f 117//60 114//61 113//62
f 18//24 142//63 141//63
f 150//64 50//65 27//23
f 184//66 73//67 74//58
f 187//68 186//69 71//70
f 15//9 197//71 196//71
f 228//72 69//73 34//34
f 230//74 13//16 14//17
f 232//75 231//76 19//77
f 236//78 235//79 36//50
f 241//80 240//81 54//82
f 254//83 12//14 13//16
f 257//84 256//84 18//24
f 262//85 9//5 70//86
f 269//87 77//88 274//89
f 38//90 51//91 10//92
f 276//93 275//93 11//11
f 277//94 17//21 278//94
f 285//95 61//96 9//5
f 290//97 289//98 10//92
f 47//99 9//5 152//7
f 9//5 61//96 164//7
f 9//5 164//7 163//7
f 152//7 9//5 154//7
f 154//7 153//6 152//7
f 9//5 163//7 162//100
f 155//7 154//7 9//5
f 157//7 156//7 158//7
f 156//7 155//7 160//7
f 159//7 158//7 156//7
f 160//7 159//7 156//7
f 160//7 155//7 9//5
f 9//5 162//100 161//6
f 16//10 10//92 166//101
f 10//92 68//102 166//101
f 166//101 165//103 16//10
f 165//103 45//8 16//10
f 11//11 39//104 204//12
f 11//11 204//12 203//12
f 19//77 20//28 41//105
f 20//28 11//11 199//12
f 200//106 11//11 201//12
f 199//12 41//105 20//28
f 202//12 201//12 11//11
f 200//106 199//12 11//11
f 11//11 20//28 21//13
f 12//14 21//13 22//15
f 14//17 13//16 22//15
f 14//17 23//18 24//19
f 16//10 15//9 24//19
f 17//21 16//10 25//20
f 17//21 26//22 27//23
f 28//25 19//77 131//26
f 19//77 64//107 133//26
f 133//26 132//26 19//77
f 132//26 131//26 19//77
f 123//26 60//108 28//25
f 126//26 125//26 28//25
f 125//26 124//109 28//25
f 124//109 123//26 28//25
f 130//26 129//110 127//27
f 129//110 128//111 127//27
f 28//25 131//26 130//26
f 127//27 126//26 28//25
f 20//28 19//77 28//25
f 20//28 29//29 30//30
f 21//13 30//30 31//31
f 23//18 22//15 31//31
f 23//18 32//32 33//33
f 25//20 24//19 33//33
f 52//36 26//22 25//20
f 25//20 34//34 265//35
f 34//34 69//73 267//112
f 25//20 265//35 264//35
f 267//112 266//35 34//34
f 266//35 265//35 34//34
f 264//35 263//35 25//20
f 79//113 27//23 205//114
f 27//23 26//22 213//38
f 205//114 27//23 206//38
f 26//22 52//36 219//38
f 218//38 217//38 26//22
f 217//38 216//38 26//22
f 26//22 219//38 218//38
f 212//37 27//23 213//38
f 27//23 212//37 206//38
f 215//115 214//38 26//22
f 214//38 213//38 26//22
f 26//22 216//38 215//115
f 207//116 206//38 211//38
f 209//116 208//117 210//38
f 208//117 207//116 210//38
f 211//38 210//38 207//116
f 48//118 28//25 245//119
f 28//25 60//108 43//120
f 245//119 28//25 246//41
f 43//120 42//39 246//41
f 42//39 53//121 247//40
f 53//121 54//82 247//40
f 54//82 248//122 247//40
f 246//41 28//25 43//120
f 59//123 29//29 220//124
f 29//29 28//25 221//42
f 220//124 29//29 221//42
f 28//25 48//118 224//42
f 48//118 227//42 226//42
f 224//42 48//118 226//42
f 226//42 225//125 224//42
f 224//42 223//42 222//42
f 224//42 222//42 28//25
f 67//126 30//30 188//43
f 30//30 29//29 189//44
f 188//43 30//30 189//44
f 29//29 59//123 193//43
f 59//123 195//127 193//43
f 195//127 194//128 193//43
f 192//44 191//127 190//44
f 192//44 190//44 29//29
f 190//44 189//44 29//29
f 37//129 31//31 172//130
f 31//31 30//30 180//131
f 172//130 31//31 173//132
f 30//30 67//126 182//133
f 30//30 182//133 181//130
f 167//134 37//129 168//135
f 169//47 168//135 37//129
f 171//133 170//136 169//47
f 172//130 171//133 37//129
f 171//133 169//47 37//129
f 30//30 181//130 180//131
f 179//47 178//131 174//47
f 178//131 177//45 174//47
f 180//131 179//47 31//31
f 173//132 31//31 174//47
f 176//46 175//131 174//47
f 179//47 174//47 31//31
f 35//49 32//32 99//48
f 32//32 31//31 99//48
f 31//31 37//129 99//48
f 99//48 98//137 97//48
f 97//48 44//138 35//49
f 32//32 35//49 36//50
f 58//53 34//34 33//33
f 33//33 36//50 252//139
f 36//50 62//140 253//51
f 33//33 252//139 251//139
f 253//51 252//139 36//50
f 251//139 250//139 33//33
f 250//139 249//51 33//33
f 58//53 33//33 249//51
f 56//141 35//49 134//142
f 35//49 44//138 136//54
f 44//138 138//143 137//144
f 44//138 137//144 136//54
f 135//54 134//142 35//49
f 65//145 36//50 147//146
f 36//50 35//49 148//56
f 35//49 56//141 149//55
f 148//56 147//146 36//50
f 42//39 43//120 91//147
f 91//147 90//148 89//149
f 91//147 89//149 92//150
f 89//149 88//150 93//150
f 92//150 89//149 93//150
f 92//150 42//39 91//147
f 94//150 93//150 88//150
f 94//150 88//150 87//150
f 71//70 95//150 96//151
f 95//150 94//150 87//150
f 80//150 95//150 87//150
f 96//151 72//152 71//70
f 80//150 96//151 95//150
f 74//58 73//67 81//151
f 81//151 80//150 86//57
f 87//150 86//57 80//150
f 86//57 85//153 84//57
f 84//57 83//154 82//151
f 82//151 74//58 84//57
f 74//58 81//151 86//57
f 11//11 55//155 104//59
f 11//11 104//59 100//59
f 104//59 103//59 47//99
f 100//59 104//59 47//99
f 100//59 39//104 11//11
f 9//5 47//99 102//59
f 102//59 47//99 103//59
f 101//59 70//86 9//5
f 17//21 63//156 122//62
f 17//21 122//62 121//60
f 38//90 10//92 105//60
f 10//92 16//10 109//62
f 106//60 105//60 10//92
f 108//60 107//157 109//62
f 107//157 106//60 109//62
f 10//92 109//62 106//60
f 16//10 17//21 121//60
f 120//60 119//60 117//60
f 119//60 118//61 117//60
f 16//10 121//60 120//60
f 112//62 111//62 110//158
f 110//158 109//62 113//62
f 109//62 16//10 113//62
f 16//10 120//60 113//62
f 117//60 116//62 114//61
f 116//62 115//159 114//61
f 120//60 117//60 113//62
f 113//62 112//62 110//158
f 76//160 77//88 139//63
f 139//63 49//161 76//160
f 49//161 18//24 140//63
f 76//160 49//161 140//63
f 18//24 27//23 145//63
f 27//23 50//65 146//162
f 146//162 145//63 27//23
f 145//63 144//63 18//24
f 144//63 143//63 18//24
f 143//63 142//63 18//24
f 141//63 140//63 18//24
f 27//23 79//113 151//163
f 151//163 150//64 27//23
f 184//66 183//164 73//67
f 71//70 72//152 187//68
f 186//69 185//165 71//70
f 15//9 45//8 198//71
f 15//9 198//71 197//71
f 40//166 14//17 196//71
f 14//17 15//9 196//71
f 34//34 58//53 229//167
f 229//167 228//72 34//34
f 14//17 40//166 230//74
f 230//74 78//168 13//16
f 19//77 41//105 234//76
f 19//77 234//76 233//169
f 231//76 64//107 19//77
f 19//77 233//169 232//75
f 36//50 65//145 237//170
f 65//145 238//171 237//170
f 235//79 62//140 36//50
f 36//50 237//170 236//78
f 54//82 53//121 241//80
f 53//121 244//172 241//80
f 244//172 243//173 242//172
f 244//172 242//172 241//80
f 240//81 239//174 54//82
f 13//16 78//168 254//83
f 254//83 66//175 12//14
f 18//24 49//161 261//84
f 261//84 260//176 18//24
f 260//176 259//176 18//24
f 259//176 258//84 18//24
f 258//84 257//84 18//24
f 256//84 255//84 18//24
f 255//84 75//177 18//24
f 262//85 46//178 9//5
f 77//88 76//160 274//89
f 274//89 273//179 269//87
f 273//179 272//179 270//87
f 269//87 273//179 270//87
f 272//179 271//180 270//87
f 269//87 268//87 77//88
f 12//14 66//175 276//93
f 275//93 55//155 11//11
f 12//14 276//93 11//11
f 18//24 75//177 284//181
f 284//181 283//94 18//24
f 283//94 282//182 18//24
f 281//94 280//183 279//94
f 281//94 279//94 17//21
f 279//94 278//94 17//21
f 18//24 282//182 281//94
f 63//156 17//21 277//94
f 17//21 18//24 281//94
f 9//5 46//178 285//95
f 46//178 288//95 285//95
f 288//95 287//95 286//95
f 286//95 285//95 288//95
f 10//92 51//91 292//97
f 292//97 291//184 290//97
f 289//98 68//102 10//92
f 292//97 290//97 10//92
