# Blender v2.81 (sub 16) OBJ File: ''
# www.blender.org
mtllib Kiribati.mtl
o 0_Kiribati_sphere.001
v -4.317770 -0.993019 2.316074
v -4.318494 -0.992544 2.314909
v -4.319170 -0.990829 2.314362
v -4.319634 -0.988939 2.314288
v -4.319657 -0.987442 2.314880
v -4.319214 -0.987530 2.315680
v -4.318425 -0.989383 2.316384
v -4.317673 -0.991667 2.316833
vn -0.8668 -0.1952 0.4589
vn -0.8665 -0.1962 0.4589
vn -0.8668 -0.1953 0.4589
vn -0.8668 -0.1950 0.4589
vn -0.8668 -0.1952 0.4588
vn -0.8669 -0.1946 0.4589
vn -0.8668 -0.1950 0.4588
vn -0.8670 -0.1945 0.4588
usemtl None
s 1
f 2//1 1//2 8//3
f 8//3 7//4 3//5
f 7//4 6//6 4//7
f 6//6 5//8 4//7
f 4//7 3//5 7//4
f 3//5 2//1 8//3
o 1_Kiribati_sphere.001
v -4.541023 -0.490610 2.032544
v -4.542001 -0.490600 2.030380
v -4.542590 -0.489463 2.029359
v -4.542704 -0.488509 2.029342
v -4.542374 -0.488498 2.030077
v -4.542043 -0.488674 2.030766
v -4.540668 -0.488827 2.033773
v -4.540246 -0.489510 2.034538
v -4.540226 -0.490163 2.034419
vn -0.9067 -0.1018 0.4093
vn -0.9066 -0.1019 0.4093
vn -0.9065 -0.1031 0.4093
vn -0.9066 -0.1019 0.4094
vn -0.9066 -0.1021 0.4094
vn -0.9066 -0.1023 0.4093
vn -0.9068 -0.1021 0.4090
usemtl None
s 1
f 10//9 9//9 14//10
f 16//11 15//12 17//13
f 15//12 14//10 9//9
f 17//13 15//12 9//9
f 14//10 13//14 11//9
f 13//14 12//15 11//9
f 11//9 10//9 14//10
o 2_Kiribati_sphere.001
v -4.960098 -0.408666 0.477506
v -4.960050 -0.409213 0.477507
v -4.960112 -0.409117 0.477015
v -4.960304 -0.408778 0.475540
v -4.960416 -0.408078 0.475080
v -4.960258 -0.408529 0.476152
v -4.960217 -0.408420 0.476612
v -4.960415 -0.407410 0.475617
v -4.960577 -0.406659 0.474752
v -4.960675 -0.406350 0.474104
v -4.960710 -0.405966 0.474093
v -4.960603 -0.406156 0.474908
v -4.960311 -0.407505 0.476490
vn -0.9902 -0.0866 0.1090
vn -0.9903 -0.0859 0.1092
vn -0.9903 -0.0864 0.1089
vn -0.9902 -0.0872 0.1086
vn -0.9903 -0.0861 0.1087
vn -0.9903 -0.0860 0.1088
vn -0.9903 -0.0859 0.1091
vn -0.9903 -0.0861 0.1090
vn -0.9903 -0.0861 0.1089
vn -0.9901 -0.0873 0.1093
vn -0.9901 -0.0876 0.1093
vn -0.9901 -0.0875 0.1091
usemtl None
s 1
f 30//16 25//17 24//18
f 19//19 18//20 20//21
f 18//20 30//16 24//18
f 20//21 18//20 24//18
f 30//16 29//22 25//17
f 29//22 28//23 27//24
f 25//17 29//22 26//17
f 27//24 26//17 29//22
f 22//25 21//26 23//27
f 21//26 20//21 23//27
f 24//18 23//27 20//21
o 3_Kiribati_sphere.001
v -4.938166 -0.392298 0.674661
v -4.938008 -0.392298 0.675771
v -4.937882 -0.392298 0.676655
v -4.937888 -0.393818 0.675677
v -4.937727 -0.393643 0.676915
v -4.937577 -0.393540 0.678037
v -4.937623 -0.394130 0.677348
v -4.937925 -0.394377 0.675071
v -4.938215 -0.392864 0.673967
v -4.938084 -0.392481 0.675125
v -4.938017 -0.393221 0.675140
v -4.938107 -0.391725 0.675361
v -4.937944 -0.391532 0.676607
v -4.937904 -0.391850 0.676723
vn -0.9863 -0.0861 0.1405
vn -0.9861 -0.0886 0.1407
vn -0.9866 -0.0829 0.1406
vn -0.9876 -0.0700 0.1405
vn -0.9875 -0.0716 0.1406
vn -0.9863 -0.0859 0.1404
vn -0.9863 -0.0868 0.1403
vn -0.9863 -0.0861 0.1403
vn -0.9862 -0.0873 0.1403
vn -0.9864 -0.0855 0.1404
vn -0.9863 -0.0862 0.1403
vn -0.9877 -0.0685 0.1405
vn -0.9875 -0.0695 0.1410
vn -0.9875 -0.0703 0.1410
usemtl None
s 1
f 41//28 40//29 31//30
f 42//31 31//30 32//32
f 31//30 39//33 41//28
f 39//33 38//34 41//28
f 38//34 37//35 34//36
f 37//35 36//37 35//38
f 34//36 37//35 35//38
f 40//29 32//32 31//30
f 38//34 34//36 41//28
f 32//32 33//39 44//40
f 44//40 43//41 32//32
f 43//41 42//31 32//32
o 4_Kiribati_sphere.001
v -4.926383 -0.389496 0.758855
v -4.926536 -0.389354 0.757854
v -4.926664 -0.388771 0.757252
v -4.926731 -0.387853 0.757240
v -4.926660 -0.387191 0.758075
v -4.926485 -0.387413 0.759191
v -4.926334 -0.388247 0.759828
v -4.926291 -0.389097 0.759705
vn -0.9875 -0.0707 0.1403
vn -0.9875 -0.0714 0.1399
vn -0.9876 -0.0706 0.1402
vn -0.9875 -0.0706 0.1406
vn -0.9875 -0.0708 0.1408
vn -0.9877 -0.0699 0.1396
vn -0.9875 -0.0707 0.1408
usemtl None
s 1
f 45//42 52//43 51//44
f 51//44 50//45 45//42
f 50//45 49//45 46//46
f 45//42 50//45 46//46
f 49//45 48//47 47//48
f 47//48 46//46 49//45
o 5_Kiribati_sphere.001
v -4.518134 -0.356922 2.110793
v -4.518622 -0.356226 2.109833
v -4.519547 -0.354938 2.108007
v -4.520355 -0.353526 2.106459
v -4.520403 -0.352932 2.106453
v -4.519456 -0.352110 2.108693
v -4.518216 -0.351461 2.111551
v -4.517877 -0.352374 2.112145
v -4.518034 -0.353626 2.111583
v -4.518076 -0.356411 2.111008
vn -0.9091 -0.0706 0.4106
vn -0.9089 -0.0706 0.4108
vn -0.9091 -0.0705 0.4105
vn -0.9089 -0.0702 0.4110
vn -0.9091 -0.0705 0.4106
vn -0.9091 -0.0704 0.4104
vn -0.9094 -0.0702 0.4100
vn -0.9092 -0.0704 0.4104
vn -0.9089 -0.0707 0.4109
usemtl None
s 1
f 54//49 62//50 61//51
f 60//52 59//53 61//51
f 59//53 58//54 61//51
f 58//54 57//55 56//56
f 56//56 55//51 58//54
f 55//51 54//49 61//51
f 58//54 55//51 61//51
f 54//49 53//57 62//50
o 6_Kiribati_sphere.001
v -4.931947 -0.274150 0.773213
v -4.932062 -0.273597 0.772617
v -4.932058 -0.272566 0.773051
v -4.932057 -0.271689 0.773402
v -4.931948 -0.272159 0.773984
v -4.931927 -0.273470 0.773620
vn -0.9885 -0.0553 0.1406
vn -0.9885 -0.0547 0.1408
vn -0.9885 -0.0552 0.1407
vn -0.9885 -0.0539 0.1409
vn -0.9885 -0.0552 0.1405
vn -0.9886 -0.0548 0.1405
usemtl None
s 1
f 68//58 67//59 65//60
f 67//59 66//61 65//60
f 65//60 64//62 68//58
f 64//62 63//63 68//58
o 7_Kiribati_sphere.001
v -4.940704 -0.242960 0.723855
v -4.940272 -0.245198 0.726017
v -4.939956 -0.248312 0.727023
v -4.939923 -0.249088 0.726950
v -4.940157 -0.249063 0.725320
v -4.940495 -0.248092 0.723325
v -4.940768 -0.246816 0.721899
v -4.940897 -0.246456 0.721132
v -4.940940 -0.246159 0.720944
v -4.940686 -0.246355 0.722658
v -4.940330 -0.247692 0.724636
v -4.940091 -0.248288 0.726086
v -4.940189 -0.246764 0.725988
v -4.940584 -0.244092 0.724256
v -4.940787 -0.243174 0.723191
v -4.941019 -0.242398 0.721866
v -4.941269 -0.241875 0.720309
v -4.941391 -0.242354 0.719264
v -4.941459 -0.242592 0.718692
v -4.941529 -0.241963 0.718450
v -4.941529 -0.241418 0.718663
v -4.941483 -0.240856 0.719203
v -4.941197 -0.241290 0.721044
vn -0.9885 -0.0548 0.1407
vn -0.9885 -0.0544 0.1410
vn -0.9885 -0.0555 0.1406
vn -0.9885 -0.0557 0.1404
vn -0.9886 -0.0544 0.1405
vn -0.9886 -0.0541 0.1406
vn -0.9885 -0.0551 0.1408
vn -0.9885 -0.0549 0.1406
vn -0.9884 -0.0554 0.1410
vn -0.9885 -0.0543 0.1408
vn -0.9885 -0.0546 0.1409
vn -0.9886 -0.0519 0.1409
vn -0.9885 -0.0545 0.1407
vn -0.9885 -0.0551 0.1406
vn -0.9885 -0.0550 0.1406
vn -0.9886 -0.0532 0.1405
vn -0.9885 -0.0547 0.1407
vn -0.9886 -0.0546 0.1406
vn -0.9883 -0.0585 0.1404
vn -0.9884 -0.0573 0.1404
vn -0.9885 -0.0564 0.1404
usemtl None
s 1
f 82//64 81//65 70//65
f 71//66 70//65 81//65
f 70//65 69//67 82//64
f 69//67 91//68 84//69
f 91//68 90//70 85//71
f 84//69 91//68 85//71
f 90//70 89//72 86//73
f 89//72 88//74 86//73
f 88//74 87//75 86//73
f 86//73 85//71 90//70
f 73//76 72//77 80//78
f 72//77 71//66 80//78
f 75//79 74//80 78//81
f 74//80 73//76 79//80
f 77//82 76//83 78//81
f 76//83 75//79 78//81
f 79//80 78//81 74//80
f 80//78 79//80 73//76
f 69//67 84//69 83//84
f 81//65 80//78 71//66
f 69//67 83//84 82//64
o 8_Kiribati_sphere.001
v -4.977656 -0.110234 -0.454852
v -4.977513 -0.109628 -0.456847
v -4.977502 -0.107883 -0.457509
v -4.977558 -0.103359 -0.458164
v -4.977497 -0.098920 -0.460279
v -4.977655 -0.100113 -0.457898
v -4.977728 -0.103579 -0.455935
v -4.977723 -0.105744 -0.455356
vn -0.9966 -0.0235 -0.0782
vn -0.9966 -0.0236 -0.0785
vn -0.9966 -0.0235 -0.0784
vn -0.9966 -0.0236 -0.0786
vn -0.9966 -0.0234 -0.0782
vn -0.9966 -0.0235 -0.0787
usemtl None
s 1
f 95//85 94//86 99//87
f 92//88 99//87 94//86
f 99//87 98//89 95//85
f 92//88 94//86 93//90
f 98//89 97//85 95//85
f 97//85 96//85 95//85
o 9_Kiribati_sphere.001
v -4.915951 -0.076434 -0.907427
v -4.915676 -0.075531 -0.909046
v -4.915725 -0.074397 -0.908813
v -4.915926 -0.073894 -0.907690
v -4.916168 -0.074738 -0.906263
v -4.916094 -0.076238 -0.906619
vn -0.9850 -0.0077 -0.1721
vn -0.9850 -0.0080 -0.1724
vn -0.9850 -0.0076 -0.1720
vn -0.9850 -0.0078 -0.1719
vn -0.9851 -0.0077 -0.1719
vn -0.9851 -0.0072 -0.1718
usemtl None
s 1
f 100//91 105//92 104//93
f 104//93 103//94 100//91
f 103//94 102//95 100//91
f 102//95 101//96 100//91
o 10_Kiribati_sphere.001
v -4.976040 -0.072338 -0.481206
v -4.975940 -0.070174 -0.482276
v -4.976110 -0.067507 -0.480921
v -4.975939 -0.056462 -0.483271
v -4.975521 -0.054953 -0.487164
v -4.975291 -0.051637 -0.489487
v -4.975415 -0.051638 -0.488365
v -4.975820 -0.054673 -0.484484
v -4.976154 -0.056037 -0.481351
v -4.976294 -0.063323 -0.479559
v -4.976369 -0.069962 -0.478404
vn -0.9939 -0.0081 -0.1098
vn -0.9939 -0.0080 -0.1098
vn -0.9939 -0.0078 -0.1097
vn -0.9939 -0.0080 -0.1099
vn -0.9939 -0.0082 -0.1098
vn -0.9939 -0.0079 -0.1097
usemtl None
s 1
f 114//97 113//98 109//98
f 116//99 115//99 108//99
f 115//99 114//97 109//98
f 113//98 112//100 110//101
f 112//100 111//100 110//101
f 107//99 106//102 116//99
f 108//99 107//99 116//99
f 109//98 108//99 115//99
f 113//98 110//101 109//98
o 11_Kiribati_sphere.001
v -4.962091 0.078534 -0.607112
v -4.962316 0.078534 -0.605073
v -4.962534 0.084937 -0.601721
v -4.962523 0.082565 -0.602338
v -4.962414 0.079860 -0.603903
v -4.962196 0.079818 -0.605886
v -4.962351 0.084001 -0.603583
v -4.961899 0.087175 -0.606994
v -4.961766 0.086467 -0.608350
v -4.961706 0.086467 -0.608892
v -4.961506 0.089446 -0.610069
v -4.961637 0.089446 -0.608883
v -4.961940 0.088400 -0.606362
v -4.961815 0.072898 -0.610012
v -4.961607 0.073539 -0.611851
vn -0.9937 0.0236 -0.1097
vn -0.9937 0.0235 -0.1097
vn -0.9939 0.0118 -0.1097
vn -0.9939 0.0077 -0.1096
vn -0.9938 0.0194 -0.1097
vn -0.9937 0.0236 -0.1096
vn -0.9937 0.0238 -0.1096
vn -0.9937 0.0237 -0.1096
vn -0.9937 0.0236 -0.1095
vn -0.9936 0.0235 -0.1100
vn -0.9937 0.0235 -0.1100
usemtl None
s 1
f 123//103 122//103 121//104
f 117//105 130//106 118//107
f 117//105 118//107 122//103
f 118//107 121//104 122//103
f 121//104 120//103 123//103
f 120//103 119//108 123//103
f 119//108 129//109 123//103
f 129//109 128//110 124//103
f 123//103 129//109 124//103
f 128//110 127//111 126//112
f 126//112 125//113 128//110
f 125//113 124//103 128//110
f 117//105 131//106 130//106
o 12_Kiribati_sphere.001
v -4.961070 0.116776 -0.608146
v -4.961194 0.118550 -0.606644
v -4.962246 0.120520 -0.596686
v -4.962329 0.121061 -0.595819
v -4.962532 0.119979 -0.594215
v -4.962551 0.118953 -0.594260
v -4.962484 0.118440 -0.594980
v -4.961941 0.118405 -0.599905
v -4.961536 0.117468 -0.603776
v -4.961320 0.117098 -0.605805
vn -0.9937 0.0240 -0.1097
vn -0.9937 0.0241 -0.1097
vn -0.9937 0.0237 -0.1096
vn -0.9937 0.0234 -0.1096
vn -0.9937 0.0237 -0.1097
vn -0.9937 0.0232 -0.1095
vn -0.9937 0.0233 -0.1097
vn -0.9937 0.0243 -0.1097
usemtl None
s 1
f 138//114 137//115 136//116
f 136//116 135//115 138//114
f 135//115 134//115 138//114
f 134//115 133//117 139//118
f 133//117 132//119 141//120
f 139//118 133//117 140//121
f 141//120 140//121 133//117
f 139//118 138//114 134//115
o 13_Kiribati_sphere.001
v -4.960251 0.157051 -0.606911
v -4.960388 0.157051 -0.605668
v -4.960132 0.149464 -0.609619
v -4.960362 0.150720 -0.607264
v -4.960393 0.152448 -0.606612
v -4.960470 0.155192 -0.605320
v -4.960571 0.151946 -0.605108
v -4.960469 0.149838 -0.606483
v -4.960213 0.157860 -0.606962
v -4.960365 0.157428 -0.605742
vn -0.9937 0.0234 -0.1097
vn -0.9937 0.0234 -0.1096
vn -0.9932 0.0383 -0.1098
vn -0.9934 0.0319 -0.1098
vn -0.9935 0.0295 -0.1097
vn -0.9937 0.0232 -0.1097
vn -0.9937 0.0230 -0.1098
vn -0.9937 0.0232 -0.1098
vn -0.9931 0.0402 -0.1099
usemtl None
s 1
f 148//122 147//123 146//123
f 151//124 142//125 143//126
f 143//126 142//125 147//123
f 142//125 146//123 147//123
f 145//127 144//128 149//129
f 146//123 145//127 148//122
f 145//127 149//129 148//122
f 151//124 150//130 142//125
o 14_Kiribati_sphere.001
v -4.960169 0.159011 -0.606954
v -4.959410 0.164492 -0.611868
v -4.958948 0.168026 -0.614789
v -4.958907 0.169578 -0.614605
v -4.959092 0.168602 -0.613278
v -4.959342 0.166873 -0.611634
v -4.959513 0.165502 -0.610569
v -4.960044 0.161029 -0.607362
vn -0.9932 0.0391 -0.1096
vn -0.9932 0.0389 -0.1096
vn -0.9932 0.0392 -0.1096
vn -0.9932 0.0390 -0.1095
vn -0.9932 0.0393 -0.1096
usemtl None
s 1
f 156//131 155//132 154//133
f 152//134 159//134 153//133
f 159//134 158//131 153//133
f 158//131 157//135 153//133
f 157//135 156//131 154//133
f 153//133 157//135 154//133
o 15_Kiribati_sphere.001
v -4.614441 0.157051 1.917273
v -4.608602 0.157051 1.931370
v -4.605823 0.151788 1.938404
v -4.608187 0.151079 1.932739
v -4.613887 0.155946 1.918680
v -4.618843 0.165933 1.905735
v -4.617185 0.168095 1.909516
v -4.616537 0.164504 1.911448
v -4.614236 0.161154 1.917346
v -4.612565 0.168167 1.920663
v -4.611571 0.169773 1.922896
v -4.615540 0.177029 1.912573
v -4.613877 0.176660 1.916624
v -4.610052 0.171731 1.926365
v -4.611085 0.161879 1.924880
vn -0.9236 0.0237 0.3825
vn -0.9235 0.0267 0.3825
vn -0.9232 0.0392 0.3823
vn -0.9233 0.0360 0.3824
vn -0.9236 0.0237 0.3826
vn -0.9232 0.0392 0.3824
vn -0.9231 0.0392 0.3825
vn -0.9232 0.0393 0.3824
vn -0.9232 0.0393 0.3823
usemtl None
s 1
f 163//136 162//136 161//137
f 167//138 165//138 160//139
f 161//137 160//139 164//140
f 164//140 163//136 161//137
f 160//139 161//137 174//141
f 173//141 172//142 170//141
f 172//142 171//142 170//141
f 170//141 169//143 174//141
f 169//143 168//141 174//141
f 160//139 174//141 168//141
f 174//141 173//141 170//141
f 167//138 166//144 165//138
f 168//141 167//138 160//139
o 16_Kiribati_sphere.001
v -4.953380 0.266104 -0.625756
v -4.953488 0.264119 -0.625769
v -4.953542 0.267863 -0.623405
v -4.954104 0.268110 -0.618192
v -4.954135 0.266329 -0.618799
v -4.953802 0.266132 -0.621920
v -4.953198 0.262762 -0.628341
v -4.952857 0.264549 -0.630037
v -4.953183 0.264623 -0.627717
vn -0.9925 0.0548 -0.1096
vn -0.9914 0.0551 -0.1187
vn -0.9925 0.0549 -0.1095
vn -0.9885 0.0553 -0.1407
vn -0.9885 0.0551 -0.1407
vn -0.9900 0.0552 -0.1299
vn -0.9925 0.0551 -0.1094
vn -0.9925 0.0550 -0.1095
vn -0.9885 0.0552 -0.1407
usemtl None
s 1
f 177//145 175//146 180//147
f 183//148 181//149 176//150
f 175//146 176//150 180//147
f 180//147 179//151 178//152
f 178//152 177//145 180//147
f 176//150 175//146 183//148
f 183//148 182//153 181//149
o 17_Kiribati_sphere.001
v -4.954182 0.270022 -0.616526
v -4.953973 0.270492 -0.618182
v -4.954469 0.274628 -0.611622
v -4.954494 0.274114 -0.611651
v -4.954630 0.272919 -0.611020
vn -0.9924 0.0550 -0.1096
vn -0.9925 0.0544 -0.1096
vn -0.9925 0.0546 -0.1094
vn -0.9925 0.0547 -0.1092
usemtl None
s 1
f 184//154 188//155 187//156
f 187//156 186//157 185//154
f 185//154 184//154 187//156
o 18_Kiribati_sphere.001
v -4.664771 0.334739 1.766467
v -4.665493 0.331025 1.765300
v -4.667244 0.331360 1.760597
v -4.667974 0.332652 1.758410
v -4.666541 0.333293 1.762072
v -4.666221 0.334663 1.762644
v -4.666710 0.336823 1.760919
v -4.667452 0.338328 1.758652
v -4.668039 0.338329 1.757099
v -4.668382 0.335378 1.756785
v -4.669185 0.337694 1.754195
v -4.668478 0.339989 1.755608
v -4.667711 0.341504 1.757334
v -4.666748 0.342072 1.759770
vn -0.9331 0.0704 0.3525
vn -0.9331 0.0706 0.3526
vn -0.9331 0.0705 0.3525
vn -0.9331 0.0706 0.3525
vn -0.9331 0.0704 0.3526
vn -0.9331 0.0702 0.3526
vn -0.9331 0.0705 0.3526
vn -0.9331 0.0707 0.3526
vn -0.9331 0.0708 0.3526
usemtl None
s 1
f 196//158 195//159 202//160
f 189//161 202//160 195//159
f 202//160 201//162 196//158
f 189//161 195//159 194//163
f 201//162 200//159 197//164
f 200//159 199//159 197//164
f 199//159 198//165 197//164
f 191//165 190//161 193//164
f 190//161 189//161 194//163
f 193//164 190//161 194//163
f 193//164 192//166 191//165
f 201//162 197//164 196//158
