# Blender v2.81 (sub 16) OBJ File: ''
# www.blender.org
mtllib Latvia.mtl
o 0_Latvia_sphere.001
v 2.445918 4.179036 -1.246252
v 2.424157 4.221639 -1.140716
v 2.483857 4.179036 -1.168809
v 2.519345 4.179036 -1.090212
v 2.552346 4.179036 -1.010540
v 2.579699 4.159380 -1.021369
v 2.561737 4.179036 -0.985687
v 2.484561 4.221639 -1.001795
v 2.472310 4.221639 -1.031371
v 2.520945 4.135403 -1.241524
v 2.505449 4.135403 -1.273154
v 2.518029 4.153802 -1.184889
v 2.424812 4.179036 -1.286114
v 2.495611 4.195734 -1.079942
v 2.401613 4.221639 -1.186733
v 2.389837 4.221639 -1.210770
v 2.387422 4.221639 -1.215701
v 2.542592 4.162111 -1.100272
v 2.440158 4.221639 -1.105277
v 2.493557 4.135403 -1.295819
v 2.493096 4.135403 -1.296690
v 2.490748 4.135403 -1.301124
v 2.387538 4.221344 -1.216505
v 2.501032 4.214672 -0.990223
v 2.502727 4.136436 -1.275198
v 2.396317 4.240828 -1.127615
v 2.397021 4.239937 -1.129425
v 2.396467 4.239904 -1.130675
v 2.395292 4.240514 -1.130849
v 2.393824 4.241582 -1.129955
v 2.392467 4.242321 -1.130034
v 2.391930 4.241888 -1.132709
v 2.393767 4.237368 -1.145430
v 2.393481 4.236311 -1.149863
v 2.392687 4.236004 -1.152604
v 2.394222 4.233910 -1.157101
v 2.392234 4.232493 -1.166323
v 2.393307 4.231405 -1.168095
v 2.394943 4.230056 -1.169674
v 2.399309 4.224393 -1.181399
v 2.388659 4.222006 -1.211837
v 2.387256 4.222038 -1.214585
v 2.401691 4.221546 -1.186901
v 2.402003 4.218886 -1.195626
v 2.401419 4.218259 -1.199025
v 2.391636 4.221056 -1.209150
v 2.504325 4.135994 -1.273436
v 2.520595 4.135822 -1.240812
v 2.517746 4.139931 -1.232650
v 2.516678 4.142028 -1.227697
v 2.515881 4.144658 -1.220377
v 2.513188 4.150049 -1.207538
v 2.513148 4.151306 -1.203345
v 2.517950 4.153743 -1.185251
v 2.513839 4.130829 -1.271070
v 2.515902 4.130076 -1.269333
v 2.520153 4.129327 -1.263119
v 2.521521 4.128713 -1.262346
v 2.522325 4.128941 -1.259955
v 2.523409 4.130475 -1.252698
v 2.523012 4.132779 -1.245930
v 2.475321 4.224589 -1.011744
v 2.465632 4.227233 -1.024056
v 2.469516 4.223857 -1.028825
v 2.490749 4.220212 -0.992632
v 2.485140 4.221448 -1.001170
v 2.472749 4.221278 -1.031774
v 2.479446 4.211692 -1.054395
v 2.482233 4.208485 -1.060647
v 2.495227 4.197442 -1.073961
v 2.545359 4.162841 -1.090738
v 2.549242 4.161046 -1.088386
v 2.551129 4.160710 -1.085142
v 2.548763 4.163427 -1.080228
v 2.549426 4.164191 -1.075640
v 2.552630 4.163239 -1.071629
v 2.556230 4.163129 -1.063370
v 2.559129 4.163987 -1.053012
v 2.563346 4.164695 -1.040064
v 2.564509 4.164410 -1.038373
v 2.575236 4.160848 -1.026402
v 2.577392 4.160325 -1.023246
v 2.519305 4.154774 -1.178529
v 2.513642 4.160805 -1.169143
v 2.509690 4.164315 -1.165130
v 2.510089 4.164925 -1.162025
v 2.512458 4.164176 -1.159502
v 2.514888 4.163466 -1.156705
v 2.523937 4.159309 -1.151779
v 2.525851 4.158715 -1.149700
v 2.528033 4.158663 -1.145055
v 2.534193 4.157757 -1.134708
v 2.534379 4.159263 -1.128821
v 2.535964 4.160951 -1.119170
v 2.537699 4.161223 -1.114338
v 2.539586 4.161214 -1.110192
v 2.437405 4.223593 -1.103761
v 2.429244 4.229988 -1.096922
v 2.422994 4.233988 -1.095180
v 2.422539 4.233778 -1.097005
v 2.417887 4.235706 -1.099799
v 2.406585 4.239316 -1.110764
v 2.405132 4.239487 -1.113317
v 2.402655 4.240243 -1.115856
v 2.394825 4.243016 -1.122393
v 2.395697 4.241576 -1.126071
v 2.496349 4.191798 -1.093119
v 2.488381 4.193509 -1.104331
v 2.482138 4.196222 -1.107946
v 2.470618 4.201245 -1.114559
v 2.463454 4.204925 -1.116578
v 2.458043 4.208478 -1.115191
v 2.553032 4.184757 -0.983664
v 2.542374 4.189964 -0.989058
v 2.534998 4.193989 -0.990945
v 2.526330 4.199370 -0.990310
v 2.518882 4.204347 -0.988219
v 2.512332 4.208451 -0.987568
v 2.591903 4.154129 -1.011302
v 2.604573 4.148359 -1.002197
v 2.592316 4.157514 -0.995875
v 2.566458 4.175826 -0.986786
v 2.381942 4.217928 -1.238376
v 2.382090 4.217162 -1.240632
v 2.386581 4.213447 -1.244442
v 2.387644 4.210522 -1.252116
v 2.388236 4.208098 -1.259021
v 2.389086 4.206967 -1.261155
v 2.391814 4.204816 -1.263122
v 2.395459 4.202285 -1.264616
v 2.397577 4.200994 -1.264889
v 2.400796 4.199478 -1.263826
v 2.407005 4.195683 -1.264658
v 2.412123 4.192051 -1.267008
v 2.422319 4.185782 -1.268497
v 2.422118 4.185665 -1.269266
v 2.417234 4.186780 -1.274799
v 2.417165 4.186136 -1.277062
v 2.418309 4.184761 -1.279451
v 2.423477 4.180817 -1.282744
v 2.387796 4.220621 -1.218409
v 2.387136 4.218655 -1.226161
v 2.384974 4.218009 -1.232382
v 2.384240 4.218135 -1.233351
v 2.427394 4.176225 -1.290227
v 2.429939 4.174030 -1.292440
v 2.431266 4.171393 -1.298369
v 2.433317 4.169708 -1.299884
v 2.439926 4.163702 -1.306609
v 2.443962 4.160255 -1.310009
v 2.447250 4.157584 -1.312340
v 2.452394 4.154179 -1.313517
v 2.456001 4.151880 -1.314054
v 2.456505 4.152020 -1.312656
v 2.459277 4.151397 -1.309412
v 2.466026 4.148635 -1.305500
v 2.479281 4.142106 -1.301344
v 2.482377 4.140665 -1.300106
v 2.490174 4.135699 -1.301260
v 2.494074 4.135569 -1.294310
v 2.496872 4.135500 -1.289247
v 2.500951 4.136861 -1.277190
v 2.491125 4.135195 -1.301056
vn 0.4871 0.8401 -0.2387
vn 0.4870 0.8402 -0.2383
vn 0.4968 0.8357 -0.2338
vn 0.4824 0.8484 -0.2178
vn 0.4824 0.8484 -0.2177
vn 0.4849 0.8443 -0.2282
vn 0.4944 0.8401 -0.2232
vn 0.5012 0.8401 -0.2076
vn 0.5012 0.8400 -0.2076
vn 0.5013 0.8400 -0.2075
vn 0.5105 0.8357 -0.2021
vn 0.5075 0.8401 -0.1917
vn 0.5074 0.8401 -0.1917
vn 0.4842 0.8422 -0.2371
vn 0.4753 0.8484 -0.2330
vn 0.4854 0.8412 -0.2380
vn 0.4752 0.8485 -0.2328
vn 0.4892 0.8357 -0.2492
vn 0.4989 0.8314 -0.2444
vn 0.5106 0.8226 -0.2502
vn 0.5025 0.8288 -0.2462
vn 0.4889 0.8485 -0.2025
vn 0.5133 0.8314 -0.2126
vn 0.5039 0.8357 -0.2181
vn 0.5064 0.8314 -0.2286
vn 0.5064 0.8314 -0.2287
vn 0.5178 0.8314 -0.2014
vn 0.5197 0.8314 -0.1964
vn 0.4794 0.8400 -0.2539
vn 0.4794 0.8401 -0.2537
vn 0.4910 0.8314 -0.2600
vn 0.4913 0.8313 -0.2599
vn 0.5019 0.8230 -0.2661
vn 0.4943 0.8289 -0.2620
vn 0.4849 0.8402 -0.2427
vn 0.4872 0.8400 -0.2386
vn 0.4832 0.8431 -0.2359
vn 0.4881 0.8445 -0.2204
vn 0.4823 0.8485 -0.2178
vn 0.4808 0.8485 -0.2210
vn 0.4823 0.8485 -0.2177
vn 0.4823 0.8484 -0.2179
vn 0.4824 0.8484 -0.2179
vn 0.4823 0.8484 -0.2178
vn 0.4944 0.8400 -0.2233
vn 0.4989 0.8401 -0.2127
vn 0.5012 0.8400 -0.2078
vn 0.5022 0.8401 -0.2049
vn 0.4962 0.8435 -0.2056
vn 0.5002 0.8409 -0.2065
vn 0.5075 0.8401 -0.1918
vn 0.5074 0.8401 -0.1915
vn 0.5075 0.8400 -0.1919
vn 0.5141 0.8355 -0.1942
vn 0.4751 0.8486 -0.2329
vn 0.4753 0.8485 -0.2328
vn 0.4754 0.8484 -0.2329
vn 0.4753 0.8484 -0.2329
vn 0.4751 0.8485 -0.2329
vn 0.4754 0.8484 -0.2327
vn 0.4754 0.8484 -0.2326
vn 0.4753 0.8485 -0.2325
vn 0.4753 0.8484 -0.2327
vn 0.5025 0.8288 -0.2463
vn 0.4957 0.8314 -0.2507
vn 0.5022 0.8314 -0.2380
vn 0.4991 0.8314 -0.2445
vn 0.4989 0.8315 -0.2444
vn 0.5107 0.8225 -0.2502
vn 0.5105 0.8226 -0.2503
vn 0.5104 0.8226 -0.2506
vn 0.5106 0.8226 -0.2501
vn 0.5107 0.8228 -0.2493
vn 0.5133 0.8314 -0.2127
vn 0.5134 0.8314 -0.2126
vn 0.5095 0.8314 -0.2214
vn 0.5133 0.8314 -0.2125
vn 0.5133 0.8315 -0.2126
vn 0.5136 0.8312 -0.2125
vn 0.5063 0.8314 -0.2287
vn 0.5063 0.8315 -0.2286
vn 0.5064 0.8313 -0.2290
vn 0.5064 0.8315 -0.2284
vn 0.5068 0.8312 -0.2284
vn 0.4873 0.8342 -0.2580
vn 0.4794 0.8401 -0.2538
vn 0.4794 0.8401 -0.2536
vn 0.4795 0.8400 -0.2537
vn 0.4794 0.8401 -0.2539
vn 0.4794 0.8400 -0.2538
vn 0.4796 0.8400 -0.2538
vn 0.4795 0.8399 -0.2541
vn 0.4793 0.8400 -0.2541
vn 0.4795 0.8402 -0.2531
vn 0.4910 0.8315 -0.2597
vn 0.4910 0.8314 -0.2599
vn 0.4910 0.8316 -0.2596
vn 0.4908 0.8315 -0.2600
vn 0.4910 0.8314 -0.2601
vn 0.4911 0.8315 -0.2594
vn 0.4911 0.8315 -0.2597
usemtl None
s 1
f 44//1 43//2 3//3
f 103//4 102//5 2//6
f 3//3 110//7 109//7
f 68//8 67//9 66//10
f 5//11 115//12 114//13
f 17//14 41//15 16//16
f 34//17 33//17 2//6
f 1//18 50//19 49//19
f 57//20 11//21 60//20
f 64//22 63//22 62//22
f 75//23 74//23 4//24
f 93//25 91//25 88//26
f 6//27 5//11 122//28
f 129//29 126//30 132//29
f 155//31 149//31 156//31
f 21//32 163//33 22//34
f 3//3 1//18 44//1
f 1//18 23//35 45//1
f 45//1 23//35 46//36
f 23//35 17//14 16//16
f 23//35 16//16 46//36
f 15//37 2//6 43//2
f 2//6 3//3 43//2
f 1//18 45//1 44//1
f 19//38 2//6 97//39
f 2//6 26//40 104//39
f 97//39 2//6 102//5
f 26//40 106//41 104//39
f 106//41 105//42 104//39
f 99//43 98//42 100//39
f 98//42 97//39 101//44
f 100//39 98//42 101//44
f 102//5 101//44 97//39
f 2//6 104//39 103//4
f 4//24 3//3 108//7
f 3//3 2//6 111//7
f 110//7 3//3 111//7
f 2//6 19//38 112//45
f 2//6 112//45 111//7
f 107//7 14//46 4//24
f 108//7 107//7 4//24
f 109//7 108//7 3//3
f 5//11 4//24 70//8
f 4//24 14//46 70//8
f 70//8 69//47 68//8
f 65//8 24//48 66//10
f 24//48 5//11 68//8
f 66//10 24//48 68//8
f 9//49 8//50 67//9
f 8//50 66//10 67//9
f 5//11 70//8 68//8
f 5//11 24//48 116//51
f 24//48 118//52 117//53
f 116//51 24//48 117//53
f 113//12 7//54 5//11
f 114//13 113//12 5//11
f 5//11 116//51 115//12
f 17//14 42//55 41//15
f 2//6 15//37 40//56
f 39//17 38//17 36//17
f 38//17 37//57 36//17
f 2//6 40//56 39//17
f 27//58 26//40 2//6
f 28//58 27//58 2//6
f 2//6 39//17 36//17
f 36//17 35//59 34//17
f 29//60 28//58 33//17
f 28//58 2//6 33//17
f 31//61 30//62 32//63
f 30//62 29//60 32//63
f 33//17 32//63 29//60
f 36//17 34//17 2//6
f 10//64 11//21 47//19
f 47//19 25//65 1//18
f 1//18 3//3 53//19
f 3//3 12//66 54//67
f 53//19 3//3 54//67
f 52//19 51//19 1//18
f 51//19 50//19 1//18
f 1//18 53//19 52//19
f 10//64 47//19 48//68
f 47//19 1//18 49//19
f 48//68 47//19 49//19
f 11//21 10//64 60//20
f 10//64 61//69 60//20
f 60//20 59//70 57//20
f 59//70 58//71 57//20
f 57//20 56//72 11//21
f 56//72 55//73 11//21
f 8//50 9//49 62//22
f 9//49 64//22 62//22
f 5//11 6//27 82//23
f 82//23 81//74 5//11
f 81//74 80//75 5//11
f 18//76 4//24 71//23
f 4//24 5//11 78//23
f 71//23 4//24 74//23
f 73//77 72//78 74//23
f 72//78 71//23 74//23
f 75//23 4//24 77//23
f 5//11 80//75 79//23
f 78//23 77//23 4//24
f 77//23 76//79 75//23
f 5//11 79//23 78//23
f 4//24 18//76 96//25
f 4//24 96//25 95//80
f 83//81 12//66 84//25
f 12//66 3//3 84//25
f 84//25 3//3 85//25
f 88//26 87//82 3//3
f 87//82 86//83 3//3
f 86//83 85//25 3//3
f 3//3 4//24 88//26
f 4//24 95//80 94//25
f 4//24 94//25 93//25
f 88//26 4//24 93//25
f 90//84 89//26 91//25
f 89//26 88//26 91//25
f 93//25 92//26 91//25
f 5//11 7//54 122//28
f 122//28 121//28 6//27
f 121//28 120//28 119//28
f 119//28 6//27 121//28
f 1//18 13//85 140//86
f 140//86 139//29 136//87
f 139//29 138//88 137//29
f 136//87 139//29 137//29
f 135//86 134//86 1//18
f 134//86 133//89 1//18
f 140//86 136//87 135//86
f 141//30 23//35 1//18
f 142//89 141//30 1//18
f 1//18 140//86 135//86
f 143//90 142//89 125//86
f 142//89 1//18 133//89
f 125//86 142//89 133//89
f 123//29 144//91 125//86
f 144//91 143//90 125//86
f 125//86 124//92 123//29
f 128//92 127//89 129//29
f 127//89 126//30 129//29
f 126//30 125//86 132//29
f 129//29 132//29 130//93
f 132//29 131//94 130//93
f 133//89 132//29 125//86
f 21//32 22//34 159//31
f 158//95 157//96 162//31
f 157//96 156//31 1//18
f 162//31 157//96 1//18
f 21//32 159//31 158//95
f 160//31 20//97 21//32
f 162//31 161//31 158//95
f 161//31 160//31 158//95
f 1//18 25//65 162//31
f 145//97 13//85 146//31
f 13//85 1//18 146//31
f 148//96 147//98 146//31
f 160//31 21//32 158//95
f 146//31 1//18 156//31
f 149//31 148//96 156//31
f 148//96 146//31 156//31
f 151//99 150//96 155//31
f 150//96 149//31 155//31
f 153//100 152//95 154//101
f 152//95 151//99 155//31
f 154//101 152//95 155//31
