# Blender v2.81 (sub 16) OBJ File: ''
# www.blender.org
mtllib Lebanon.mtl
o 0_Lebanon_sphere.001
v 3.345614 2.810416 -2.430725
v 3.320740 2.810416 -2.463854
v 3.413667 2.745113 -2.409770
v 3.394455 2.745113 -2.437107
v 3.362624 2.778949 -2.443084
v 3.368753 2.767611 -2.447536
v 3.371061 2.763341 -2.449213
v 3.328401 2.841202 -2.418219
v 3.360553 2.810416 -2.409470
v 3.397611 2.743119 -2.434854
v 3.399941 2.740601 -2.434367
v 3.399774 2.742847 -2.432082
v 3.402511 2.741313 -2.429909
v 3.409241 2.731684 -2.431146
v 3.414390 2.728463 -2.427436
v 3.418546 2.728723 -2.421231
v 3.421678 2.729634 -2.415753
v 3.426816 2.729018 -2.409132
v 3.421917 2.734593 -2.409842
v 3.416034 2.741877 -2.410036
v 3.325085 2.805447 -2.463597
v 3.331477 2.799838 -2.461324
v 3.333242 2.799346 -2.459521
v 3.337701 2.796561 -2.456681
v 3.342198 2.792782 -2.454897
v 3.344373 2.790383 -2.454668
v 3.345401 2.788117 -2.455820
v 3.343455 2.785233 -2.461623
v 3.343962 2.784090 -2.462219
v 3.345161 2.783217 -2.461593
v 3.347651 2.783862 -2.457560
v 3.351129 2.784162 -2.452593
v 3.353294 2.784185 -2.449684
v 3.356101 2.783630 -2.446563
v 3.361099 2.780252 -2.443664
v 3.368095 2.766718 -2.449406
v 3.368243 2.765795 -2.450237
v 3.369677 2.764147 -2.450160
v 3.383104 2.753424 -2.443600
v 3.387126 2.750098 -2.441741
v 3.390844 2.747347 -2.439647
v 3.408776 2.751595 -2.409197
v 3.400870 2.759645 -2.411094
v 3.378669 2.786981 -2.410921
v 3.368431 2.798087 -2.412585
v 3.363752 2.777967 -2.442619
v 3.365291 2.776483 -2.442154
v 3.368930 2.771764 -2.442459
v 3.369442 2.768554 -2.445460
v 3.373087 2.762126 -2.447742
v 3.376155 2.759612 -2.446298
v 3.378047 2.757053 -2.446580
v 3.381285 2.754594 -2.444829
v 3.321959 2.841098 -2.426917
v 3.316947 2.841376 -2.433274
v 3.313712 2.844653 -2.433810
v 3.310782 2.843137 -2.439458
v 3.310447 2.839927 -2.443599
v 3.314228 2.836588 -2.442405
v 3.319047 2.832756 -2.440397
v 3.319423 2.831787 -2.441012
v 3.317597 2.831467 -2.443812
v 3.315351 2.829346 -2.449245
v 3.314614 2.826900 -2.453041
v 3.319548 2.811729 -2.463932
v 3.358390 2.813712 -2.408586
v 3.344256 2.827360 -2.412294
v 3.337114 2.831444 -2.417549
v 3.332590 2.835344 -2.419298
v 3.329383 2.841217 -2.416804
vn 0.6691 0.5620 -0.4862
vn 0.6730 0.5685 -0.4731
vn 0.6731 0.5685 -0.4730
vn 0.6873 0.5423 -0.4831
vn 0.6875 0.5423 -0.4829
vn 0.6816 0.5531 -0.4790
vn 0.6650 0.5555 -0.4992
vn 0.6650 0.5554 -0.4993
vn 0.6751 0.5555 -0.4853
vn 0.6649 0.5555 -0.4993
vn 0.6649 0.5556 -0.4992
vn 0.6649 0.5555 -0.4992
vn 0.6803 0.5555 -0.4781
vn 0.6579 0.5685 -0.4939
vn 0.6582 0.5679 -0.4942
vn 0.6656 0.5685 -0.4834
vn 0.6732 0.5684 -0.4729
vn 0.6730 0.5685 -0.4730
vn 0.6770 0.5615 -0.4758
vn 0.6844 0.5478 -0.4811
vn 0.6873 0.5424 -0.4831
vn 0.6874 0.5423 -0.4830
vn 0.6872 0.5425 -0.4831
vn 0.6873 0.5424 -0.4830
vn 0.6874 0.5423 -0.4831
vn 0.6753 0.5556 -0.4850
vn 0.6648 0.5557 -0.4992
vn 0.6767 0.5557 -0.4830
vn 0.6648 0.5556 -0.4993
vn 0.6604 0.5639 -0.4958
vn 0.6651 0.5554 -0.4991
vn 0.6650 0.5556 -0.4990
vn 0.6650 0.5555 -0.4991
vn 0.6808 0.5552 -0.4777
vn 0.6803 0.5556 -0.4779
vn 0.6803 0.5554 -0.4781
vn 0.6579 0.5684 -0.4940
vn 0.6579 0.5686 -0.4939
vn 0.6578 0.5686 -0.4939
vn 0.6577 0.5688 -0.4938
vn 0.6579 0.5684 -0.4939
usemtl None
s 1
f 1//1 69//2 68//3
f 12//4 10//5 4//6
f 38//7 36//8 6//9
f 27//10 32//11 31//12
f 49//13 48//13 51//13
f 55//14 54//14 60//15
f 1//1 8//16 69//2
f 8//16 70//17 69//2
f 66//18 9//19 1//1
f 68//3 67//18 1//1
f 67//18 66//18 1//1
f 4//6 3//20 12//4
f 3//20 20//21 13//22
f 12//4 3//20 13//22
f 19//21 18//21 17//21
f 20//21 19//21 17//21
f 12//4 11//23 10//5
f 17//21 16//24 20//21
f 16//24 15//25 14//24
f 16//24 14//24 20//21
f 14//24 13//22 20//21
f 6//9 7//26 38//7
f 38//7 37//27 36//8
f 1//1 5//28 35//29
f 1//1 35//29 34//12
f 21//12 2//30 1//1
f 23//12 22//31 21//12
f 24//12 23//12 1//1
f 23//12 21//12 1//1
f 1//1 34//12 26//10
f 24//12 1//1 25//12
f 25//12 1//1 26//10
f 34//12 33//10 26//10
f 26//10 33//10 32//11
f 29//32 28//33 30//33
f 28//33 27//10 31//12
f 27//10 26//10 32//11
f 31//12 30//33 28//33
f 3//20 4//6 42//13
f 4//6 41//13 43//13
f 41//13 40//13 43//13
f 40//13 39//13 43//13
f 39//13 53//34 51//13
f 53//34 52//35 51//13
f 4//6 43//13 42//13
f 45//13 44//13 47//36
f 44//13 43//13 48//13
f 47//36 44//13 48//13
f 1//1 9//19 45//13
f 46//36 5//28 45//13
f 5//28 1//1 45//13
f 47//36 46//36 45//13
f 43//13 39//13 48//13
f 39//13 51//13 48//13
f 51//13 50//36 49//13
f 50//36 7//26 49//13
f 7//26 6//9 49//13
f 1//1 2//30 61//37
f 2//30 65//38 64//14
f 61//37 2//30 64//14
f 64//14 63//39 61//37
f 63//39 62//40 61//37
f 60//15 59//14 55//14
f 59//14 58//41 57//14
f 59//14 57//14 55//14
f 57//14 56//39 55//14
f 1//1 61//37 54//14
f 61//37 60//15 54//14
f 54//14 8//16 1//1
