# Blender v2.81 (sub 16) OBJ File: ''
# www.blender.org
mtllib Lesotho.mtl
o 0_Lesotho_sphere.001
v 3.839568 -2.408771 -2.110814
v 3.805939 -2.477296 -2.092326
v 3.791451 -2.505758 -2.084362
v 3.836576 -2.408771 -2.116060
v 3.807513 -2.545210 -2.005061
v 3.796661 -2.545210 -2.025557
v 3.866284 -2.408771 -2.060358
v 3.841508 -2.404670 -2.111880
v 3.867367 -2.477296 -1.976309
v 3.793088 -2.477296 -2.114856
v 3.840453 -2.405598 -2.112719
v 3.838318 -2.406892 -2.115054
v 3.866014 -2.407006 -2.062903
v 3.863570 -2.400982 -2.074463
v 3.858077 -2.394485 -2.092330
v 3.854856 -2.392846 -2.100302
v 3.853779 -2.391914 -2.103411
v 3.852213 -2.393173 -2.104917
v 3.849418 -2.396934 -2.105858
v 3.846470 -2.400090 -2.107788
v 3.795002 -2.509407 -2.073127
v 3.795351 -2.509572 -2.072265
v 3.797634 -2.509101 -2.068536
v 3.800123 -2.509536 -2.063296
v 3.801768 -2.510525 -2.058961
v 3.803226 -2.510903 -2.055737
v 3.803219 -2.516230 -2.049140
v 3.800743 -2.530653 -2.035916
v 3.800513 -2.533664 -2.032612
v 3.797978 -2.539331 -2.030367
v 3.796808 -2.543821 -2.027004
v 3.808274 -2.544981 -2.003909
v 3.813560 -2.540636 -1.999318
v 3.819191 -2.534936 -1.995757
v 3.822774 -2.530768 -1.994163
v 3.825445 -2.528483 -1.991955
v 3.826612 -2.527206 -1.991334
v 3.829723 -2.525314 -1.987809
v 3.831036 -2.524322 -1.986558
v 3.832104 -2.523620 -1.985413
v 3.834398 -2.520851 -1.984517
v 3.836146 -2.518446 -1.984202
v 3.839406 -2.511753 -1.986352
v 3.842967 -2.507764 -1.984577
v 3.849041 -2.500979 -1.981527
v 3.853553 -2.495416 -1.979909
v 3.859724 -2.487805 -1.977700
v 3.864459 -2.481297 -1.976835
v 3.792753 -2.507575 -2.079649
v 3.830727 -2.414899 -2.119390
v 3.824126 -2.420341 -2.124812
v 3.816503 -2.426645 -2.131052
v 3.811863 -2.429794 -2.135627
v 3.809887 -2.430644 -2.138130
v 3.805832 -2.436257 -2.138895
v 3.802479 -2.440421 -2.140070
v 3.799833 -2.444317 -2.140304
v 3.798120 -2.448135 -2.138992
v 3.794995 -2.457453 -2.133939
v 3.792439 -2.466971 -2.127663
v 3.792158 -2.470947 -2.123663
v 3.792983 -2.473444 -2.119394
v 3.790031 -2.484799 -2.111421
v 3.786425 -2.493684 -2.107327
v 3.787137 -2.497377 -2.101751
v 3.787919 -2.499804 -2.097535
v 3.789183 -2.502786 -2.091822
v 3.869318 -2.474527 -1.975938
v 3.870607 -2.471598 -1.977009
v 3.870248 -2.469573 -1.980110
v 3.867988 -2.466113 -1.988518
v 3.866249 -2.463413 -1.995034
v 3.866480 -2.458490 -2.000489
v 3.867669 -2.451233 -2.006927
v 3.868654 -2.446859 -2.010303
v 3.868473 -2.444861 -2.013035
v 3.868727 -2.441766 -2.016259
v 3.869861 -2.434939 -2.022286
v 3.871124 -2.427358 -2.028975
v 3.872490 -2.419200 -2.036156
v 3.870262 -2.416836 -2.043192
v 3.866987 -2.414103 -2.052648
v 3.796373 -2.547301 -2.023411
v 3.797282 -2.548152 -2.020599
v 3.802108 -2.546760 -2.013276
vn 0.7778 -0.4747 -0.4118
vn 0.7778 -0.4749 -0.4118
vn 0.7778 -0.4748 -0.4118
vn 0.7711 -0.4886 -0.4082
vn 0.7711 -0.4886 -0.4083
vn 0.7612 -0.4954 -0.4185
vn 0.7645 -0.4747 -0.4360
vn 0.7645 -0.4747 -0.4361
vn 0.7679 -0.4817 -0.4222
vn 0.7642 -0.5022 -0.4046
vn 0.7638 -0.5029 -0.4045
vn 0.7579 -0.4886 -0.4323
vn 0.7511 -0.5022 -0.4284
vn 0.7572 -0.5156 -0.4009
vn 0.7573 -0.5155 -0.4009
vn 0.7621 -0.5064 -0.4035
vn 0.7726 -0.4855 -0.4091
vn 0.7778 -0.4747 -0.4119
vn 0.7741 -0.4749 -0.4185
vn 0.7777 -0.4748 -0.4119
vn 0.7685 -0.4937 -0.4069
vn 0.7711 -0.4885 -0.4083
vn 0.7709 -0.4889 -0.4082
vn 0.7710 -0.4888 -0.4082
vn 0.7598 -0.4847 -0.4333
vn 0.7643 -0.5022 -0.4046
vn 0.7643 -0.5021 -0.4046
vn 0.7641 -0.5026 -0.4043
vn 0.7642 -0.5024 -0.4045
vn 0.7595 -0.5022 -0.4134
vn 0.7644 -0.5022 -0.4043
vn 0.7642 -0.5022 -0.4047
vn 0.7642 -0.5023 -0.4045
vn 0.7639 -0.5025 -0.4048
vn 0.7640 -0.5019 -0.4054
vn 0.7639 -0.5023 -0.4051
vn 0.7554 -0.4937 -0.4308
vn 0.7579 -0.4884 -0.4324
vn 0.7580 -0.4885 -0.4322
vn 0.7580 -0.4885 -0.4321
vn 0.7579 -0.4885 -0.4323
vn 0.7580 -0.4884 -0.4322
vn 0.7511 -0.5022 -0.4285
vn 0.7572 -0.5157 -0.4009
usemtl None
s 1
f 19//1 18//2 16//3
f 76//4 74//5 2//6
f 12//7 11//8 1//9
f 33//10 5//11 29//10
f 52//12 2//6 59//12
f 65//13 63//13 2//6
f 84//14 83//15 6//16
f 7//17 1//9 13//18
f 1//9 8//19 20//1
f 1//9 20//1 15//3
f 14//3 1//9 15//3
f 14//3 13//18 1//9
f 16//3 15//3 19//1
f 19//1 15//3 20//1
f 18//2 17//20 16//3
f 9//21 2//6 72//5
f 2//6 1//9 7//17
f 72//5 2//6 73//5
f 7//17 82//4 2//6
f 82//4 81//5 79//5
f 81//5 80//4 79//5
f 68//22 9//21 70//22
f 70//22 69//23 68//22
f 71//22 70//22 9//21
f 82//4 79//5 78//5
f 2//6 82//4 78//5
f 72//5 71//22 9//21
f 73//5 2//6 74//5
f 78//5 77//4 2//6
f 76//4 75//24 74//5
f 77//4 76//4 2//6
f 1//9 4//25 12//7
f 11//8 8//19 1//9
f 5//11 6//16 31//10
f 31//10 30//10 5//11
f 30//10 29//10 5//11
f 29//10 28//10 35//10
f 28//10 27//10 35//10
f 26//10 25//26 2//6
f 25//26 24//27 2//6
f 23//10 22//28 21//29
f 21//29 49//10 23//10
f 49//10 3//30 2//6
f 23//10 49//10 2//6
f 2//6 9//21 48//10
f 26//10 48//10 47//10
f 2//6 48//10 26//10
f 47//10 46//10 26//10
f 46//10 45//10 26//10
f 45//10 44//10 26//10
f 24//27 23//10 2//6
f 43//10 42//31 41//32
f 44//10 43//10 27//10
f 26//10 44//10 27//10
f 43//10 41//32 39//33
f 41//32 40//34 39//33
f 39//33 38//10 43//10
f 38//10 37//32 43//10
f 37//32 36//35 35//10
f 35//10 34//10 29//10
f 34//10 33//10 29//10
f 33//10 32//36 5//11
f 27//10 43//10 37//32
f 35//10 27//10 37//32
f 2//6 10//37 62//12
f 62//12 61//38 60//12
f 60//12 59//12 62//12
f 59//12 58//39 55//12
f 62//12 59//12 2//6
f 58//39 57//40 56//41
f 55//12 54//12 53//42
f 58//39 56//41 55//12
f 1//9 2//6 50//12
f 50//12 2//6 51//12
f 50//12 4//25 1//9
f 52//12 51//12 2//6
f 55//12 53//42 52//12
f 59//12 55//12 52//12
f 2//6 3//30 67//13
f 67//13 66//13 2//6
f 66//13 65//13 2//6
f 65//13 64//43 63//13
f 63//13 10//37 2//6
f 6//16 5//11 85//44
f 85//44 84//14 6//16
