# Blender v2.81 (sub 16) OBJ File: ''
# www.blender.org
mtllib Lithuania.mtl
o 0_Lithuania_sphere.001
v 2.659317 4.109404 -1.018581
v 2.659838 4.109773 -1.015690
v 2.650090 4.115508 -1.018016
v 2.644307 4.119224 -1.018114
v 2.636650 4.124506 -1.016757
v 2.633941 4.126166 -1.017133
v 2.637154 4.123769 -1.018441
v 2.642753 4.119777 -1.019961
v 2.653236 4.112948 -1.020169
vn 0.5319 0.8226 -0.2009
vn 0.5319 0.8226 -0.2011
vn 0.5319 0.8226 -0.2008
vn 0.5320 0.8225 -0.2008
vn 0.5318 0.8225 -0.2012
vn 0.5318 0.8226 -0.2012
usemtl None
s 1
f 3//1 2//2 9//3
f 7//2 6//4 5//1
f 7//2 5//1 4//5
f 9//3 8//6 3//1
f 8//6 7//2 4//5
f 3//1 8//6 4//5
f 2//2 1//6 9//3
o 1_Lithuania_sphere.001
v 2.542946 4.135403 -1.196614
v 2.601405 4.090748 -1.224123
v 2.579278 4.135403 -1.116148
v 2.638572 4.090748 -1.141807
v 2.613064 4.135403 -1.034580
v 2.695467 4.045084 -1.171061
v 2.667860 4.045084 -1.232204
v 2.542578 4.162122 -1.100266
v 2.650543 4.090748 -1.112906
v 2.645006 4.056314 -1.244640
v 2.520931 4.135403 -1.241551
v 2.622279 4.135403 -1.010194
v 2.685453 4.054245 -1.162094
v 2.654227 4.104804 -1.050877
v 2.587172 4.090748 -1.253176
v 2.518004 4.153821 -1.184877
v 2.579704 4.159377 -1.021371
v 2.645915 4.055934 -1.243917
v 2.651195 4.052896 -1.242553
v 2.654003 4.051767 -1.240173
v 2.656953 4.052362 -1.231616
v 2.659600 4.051009 -1.230354
v 2.695098 4.045366 -1.170919
v 2.690418 4.049046 -1.168774
v 2.686752 4.052353 -1.165650
v 2.684752 4.055244 -1.160133
v 2.683912 4.057232 -1.154892
v 2.683439 4.059297 -1.148485
v 2.683897 4.060196 -1.144093
v 2.684494 4.060419 -1.141836
v 2.683154 4.061614 -1.140701
v 2.682158 4.062637 -1.139363
v 2.681751 4.063539 -1.137046
v 2.681779 4.064767 -1.132492
v 2.682815 4.065023 -1.129052
v 2.686497 4.063035 -1.127431
v 2.684118 4.065508 -1.124136
v 2.679258 4.069941 -1.119660
v 2.674600 4.073483 -1.117955
v 2.669542 4.077024 -1.117217
v 2.653694 4.087489 -1.117219
v 2.651684 4.089145 -1.116015
v 2.654235 4.105390 -1.048460
v 2.653552 4.107304 -1.042432
v 2.651871 4.109308 -1.038680
v 2.654230 4.108753 -1.034706
v 2.655360 4.108719 -1.031856
v 2.654881 4.109068 -1.031693
v 2.650677 4.112646 -1.028174
v 2.642567 4.118183 -1.026980
v 2.632894 4.126218 -1.019691
v 2.517920 4.153767 -1.185233
v 2.513130 4.151319 -1.203336
v 2.513147 4.150077 -1.207527
v 2.515877 4.144666 -1.220359
v 2.516653 4.142045 -1.227690
v 2.517726 4.139947 -1.232635
v 2.520584 4.135829 -1.240809
v 2.593020 4.087221 -1.252457
v 2.601735 4.081339 -1.253374
v 2.606907 4.077206 -1.255962
v 2.609627 4.074906 -1.257727
v 2.611509 4.073548 -1.258204
v 2.614208 4.072104 -1.257286
v 2.620451 4.068302 -1.256633
v 2.626900 4.064116 -1.256783
v 2.630273 4.061807 -1.257242
v 2.631386 4.060742 -1.258357
v 2.630108 4.060700 -1.261098
v 2.629313 4.059809 -1.265556
v 2.630416 4.058121 -1.268673
v 2.632525 4.056155 -1.270622
v 2.635186 4.054040 -1.271915
v 2.636956 4.052911 -1.271892
v 2.639538 4.052087 -1.269246
v 2.641971 4.052077 -1.264309
v 2.642106 4.053091 -1.260811
v 2.641414 4.053871 -1.259740
v 2.638186 4.055894 -1.259896
v 2.635442 4.058449 -1.257372
v 2.634696 4.059837 -1.254478
v 2.639317 4.057781 -1.251585
v 2.641254 4.057791 -1.247599
v 2.649609 4.092025 -1.110334
v 2.648938 4.094096 -1.104126
v 2.644262 4.098463 -1.098906
v 2.648091 4.098751 -1.088573
v 2.652395 4.098517 -1.079065
v 2.653364 4.098732 -1.075912
v 2.654611 4.100626 -1.065744
v 2.654193 4.103653 -1.055309
v 2.621655 4.135931 -1.009606
v 2.607626 4.146080 -1.003769
v 2.604550 4.148374 -1.002196
v 2.591874 4.154149 -1.011293
v 2.668150 4.044876 -1.232251
v 2.670108 4.043644 -1.231964
v 2.672904 4.043902 -1.224924
v 2.679017 4.041379 -1.219683
v 2.684896 4.039361 -1.213302
v 2.684887 4.040768 -1.208695
v 2.683921 4.042328 -1.205701
v 2.686093 4.042062 -1.201766
v 2.688940 4.041387 -1.197682
v 2.689797 4.041788 -1.194464
v 2.691554 4.041600 -1.191190
v 2.695934 4.040431 -1.185334
v 2.699085 4.040872 -1.176907
v 2.699337 4.041938 -1.172843
v 2.698283 4.042907 -1.171987
v 2.519306 4.154776 -1.178518
v 2.539579 4.161221 -1.110184
v 2.537656 4.161252 -1.114327
v 2.535954 4.160958 -1.119168
v 2.534370 4.159271 -1.128811
v 2.534188 4.157764 -1.134693
v 2.528032 4.158663 -1.145057
v 2.525830 4.158730 -1.149694
v 2.523961 4.159298 -1.151766
v 2.514900 4.163462 -1.156693
v 2.512453 4.164183 -1.159490
v 2.510092 4.164930 -1.162003
v 2.509693 4.164317 -1.165115
v 2.513622 4.160816 -1.169143
v 2.523010 4.132782 -1.245927
v 2.523395 4.130487 -1.252683
v 2.522299 4.128963 -1.259935
v 2.521540 4.128705 -1.262334
v 2.524450 4.126495 -1.263659
v 2.529886 4.122704 -1.265032
v 2.537222 4.117827 -1.266089
v 2.543232 4.114026 -1.266323
v 2.545374 4.112573 -1.266730
v 2.546136 4.111350 -1.269194
v 2.542755 4.110818 -1.277846
v 2.541864 4.110181 -1.281758
v 2.542799 4.109187 -1.283119
v 2.545415 4.107867 -1.282120
v 2.548137 4.106764 -1.280191
v 2.550047 4.105737 -1.279667
v 2.555820 4.102070 -1.279942
v 2.562072 4.102485 -1.265819
v 2.563943 4.101739 -1.264450
v 2.566602 4.100021 -1.264672
v 2.569471 4.098069 -1.265237
v 2.573415 4.095717 -1.264917
v 2.577883 4.093678 -1.262503
v 2.581677 4.092937 -1.257196
v 2.585827 4.091536 -1.253330
v 2.577366 4.160339 -1.023250
v 2.575221 4.160861 -1.026387
v 2.564491 4.164424 -1.038360
v 2.563349 4.164696 -1.040055
v 2.559120 4.163994 -1.053009
v 2.556215 4.163138 -1.063369
v 2.552622 4.163247 -1.071617
v 2.549425 4.164193 -1.075632
v 2.548776 4.163422 -1.080218
v 2.551120 4.160717 -1.085139
v 2.549257 4.161038 -1.088380
v 2.545369 4.162837 -1.090730
vn 0.5064 0.8314 -0.2286
vn 0.5062 0.8315 -0.2287
vn 0.5086 0.8270 -0.2393
vn 0.5278 0.8181 -0.2284
vn 0.5203 0.8181 -0.2448
vn 0.5133 0.8314 -0.2127
vn 0.5133 0.8314 -0.2126
vn 0.5253 0.8226 -0.2176
vn 0.5159 0.8270 -0.2232
vn 0.5197 0.8314 -0.1964
vn 0.5195 0.8316 -0.1963
vn 0.5227 0.8270 -0.2069
vn 0.5299 0.8136 -0.2393
vn 0.5300 0.8136 -0.2391
vn 0.5371 0.8136 -0.2226
vn 0.5372 0.8136 -0.2224
vn 0.5319 0.8226 -0.2010
vn 0.4989 0.8314 -0.2446
vn 0.4989 0.8314 -0.2444
vn 0.5222 0.8136 -0.2558
vn 0.5222 0.8136 -0.2557
vn 0.5222 0.8135 -0.2559
vn 0.5415 0.8043 -0.2445
vn 0.5415 0.8043 -0.2444
vn 0.5416 0.8043 -0.2444
vn 0.5107 0.8226 -0.2499
vn 0.5106 0.8226 -0.2502
vn 0.5033 0.8314 -0.2353
vn 0.5102 0.8314 -0.2199
vn 0.5064 0.8314 -0.2287
vn 0.5066 0.8313 -0.2286
vn 0.5132 0.8315 -0.2126
vn 0.5132 0.8315 -0.2125
vn 0.5133 0.8315 -0.2121
vn 0.5153 0.8315 -0.2075
vn 0.5137 0.8311 -0.2128
vn 0.5286 0.8201 -0.2189
vn 0.5277 0.8226 -0.2117
vn 0.5256 0.8224 -0.2178
vn 0.5254 0.8226 -0.2176
vn 0.5253 0.8226 -0.2175
vn 0.5244 0.8281 -0.1981
vn 0.5361 0.8087 -0.2420
vn 0.5348 0.8097 -0.2415
vn 0.5300 0.8135 -0.2393
vn 0.5301 0.8134 -0.2393
vn 0.5299 0.8136 -0.2392
vn 0.5275 0.8136 -0.2444
vn 0.5316 0.8136 -0.2355
vn 0.5372 0.8136 -0.2225
vn 0.5372 0.8135 -0.2226
vn 0.5373 0.8135 -0.2224
vn 0.5373 0.8136 -0.2223
vn 0.5319 0.8226 -0.2009
vn 0.5319 0.8227 -0.2008
vn 0.5321 0.8224 -0.2011
vn 0.5318 0.8226 -0.2011
vn 0.5318 0.8227 -0.2007
vn 0.5069 0.8254 -0.2484
vn 0.4989 0.8315 -0.2445
vn 0.4989 0.8314 -0.2445
vn 0.5221 0.8135 -0.2559
vn 0.5222 0.8135 -0.2557
vn 0.5221 0.8136 -0.2558
vn 0.5221 0.8136 -0.2557
vn 0.5147 0.8195 -0.2522
vn 0.5222 0.8135 -0.2558
vn 0.5223 0.8137 -0.2552
vn 0.5222 0.8136 -0.2556
vn 0.5221 0.8134 -0.2562
vn 0.5221 0.8136 -0.2559
vn 0.5222 0.8136 -0.2554
vn 0.5221 0.8135 -0.2560
vn 0.5415 0.8044 -0.2444
vn 0.5414 0.8044 -0.2445
vn 0.5412 0.8046 -0.2445
vn 0.5416 0.8043 -0.2445
vn 0.5413 0.8046 -0.2442
vn 0.5415 0.8044 -0.2443
vn 0.5412 0.8046 -0.2444
vn 0.5416 0.8042 -0.2445
vn 0.5106 0.8225 -0.2505
vn 0.5105 0.8226 -0.2502
vn 0.5107 0.8225 -0.2501
vn 0.5106 0.8226 -0.2500
vn 0.5106 0.8226 -0.2501
vn 0.5105 0.8226 -0.2504
vn 0.5105 0.8226 -0.2505
vn 0.5107 0.8226 -0.2502
vn 0.5107 0.8226 -0.2501
vn 0.5105 0.8227 -0.2500
vn 0.5106 0.8225 -0.2503
usemtl None
s 1
f 120//7 133//7 128//8
f 10//9 13//10 11//11
f 168//12 165//12 164//13
f 96//14 95//14 12//15
f 102//16 101//17 14//18
f 30//19 27//20 11//11
f 13//10 42//21 41//22
f 14//18 59//23 54//23
f 61//24 10//9 62//25
f 77//26 76//27 90//28
f 111//29 110//30 108//31
f 151//32 143//33 142//33
f 12//15 10//9 125//7
f 10//9 25//34 120//7
f 10//9 120//7 127//7
f 127//7 120//7 128//8
f 121//7 17//35 12//15
f 123//36 122//36 12//15
f 122//36 121//7 12//15
f 125//7 124//7 12//15
f 124//7 123//36 12//15
f 127//7 126//7 10//9
f 126//7 125//7 10//9
f 130//7 129//36 133//7
f 129//36 128//8 133//7
f 131//37 130//7 132//36
f 133//7 132//36 130//7
f 10//9 12//15 13//10
f 14//18 12//15 164//13
f 12//15 17//35 169//12
f 168//12 12//15 169//12
f 17//35 170//13 169//12
f 168//12 167//38 165//12
f 167//38 166//39 165//12
f 159//40 26//41 160//13
f 26//41 14//18 160//13
f 162//42 161//13 163//13
f 161//13 160//13 14//18
f 12//15 168//12 164//13
f 164//13 163//13 14//18
f 14//18 163//13 161//13
f 18//43 13//10 93//14
f 13//10 12//15 95//14
f 93//14 13//10 95//14
f 12//15 14//18 96//14
f 14//18 23//44 100//14
f 100//14 99//14 14//18
f 99//14 98//45 97//46
f 96//14 99//14 97//46
f 96//14 14//18 99//14
f 95//14 94//47 93//14
f 21//48 14//18 101//17
f 14//18 26//41 104//16
f 102//16 14//18 104//16
f 104//16 103//16 102//16
f 15//49 16//50 32//51
f 16//50 31//19 33//19
f 32//51 16//50 33//19
f 30//19 29//52 28//53
f 31//19 30//19 34//51
f 33//19 31//19 34//51
f 30//19 28//53 27//20
f 27//20 19//54 11//11
f 11//11 13//10 30//19
f 13//10 22//55 30//19
f 22//55 34//51 30//19
f 13//10 18//43 51//22
f 50//56 49//56 13//10
f 49//56 48//22 43//21
f 13//10 49//56 42//21
f 13//10 51//22 50//56
f 35//56 22//55 13//10
f 36//57 35//56 13//10
f 48//22 47//56 43//21
f 47//56 46//56 44//58
f 43//21 47//56 44//58
f 46//56 45//21 44//58
f 49//56 43//21 42//21
f 37//56 36//57 13//10
f 40//22 39//59 38//22
f 38//22 37//56 41//22
f 37//56 13//10 41//22
f 38//22 41//22 40//22
f 14//18 21//48 60//60
f 59//23 58//23 54//23
f 58//23 57//61 55//60
f 54//23 58//23 55//60
f 14//18 60//60 59//23
f 52//62 23//44 54//23
f 23//44 14//18 54//23
f 54//23 53//63 52//62
f 56//64 55//60 57//61
f 10//9 20//65 67//66
f 67//66 66//25 10//9
f 66//25 65//67 10//9
f 64//67 63//25 10//9
f 63//25 62//25 10//9
f 65//67 64//67 10//9
f 25//34 10//9 61//24
f 11//11 19//54 92//68
f 92//68 91//69 90//28
f 11//11 92//68 74//70
f 92//68 90//28 75//71
f 68//26 24//72 11//11
f 69//73 68//26 11//11
f 92//68 75//71 74//70
f 90//28 89//71 77//26
f 75//71 90//28 76//27
f 88//71 87//74 86//75
f 69//73 11//11 70//26
f 88//71 86//75 85//27
f 72//76 71//27 73//70
f 71//27 70//26 73//70
f 89//71 88//71 78//73
f 88//71 85//27 84//26
f 81//77 88//71 84//26
f 84//26 83//78 82//79
f 81//77 84//26 82//79
f 81//77 80//70 88//71
f 80//70 79//70 88//71
f 79//70 78//73 88//71
f 78//73 77//26 89//71
f 73//70 70//26 11//11
f 74//70 73//70 11//11
f 16//50 15//49 107//80
f 15//49 119//30 117//81
f 114//29 15//49 115//29
f 119//30 118//82 117//81
f 117//81 116//83 15//49
f 116//83 115//29 15//49
f 114//29 113//84 112//85
f 15//49 114//29 112//85
f 106//83 105//86 107//80
f 105//86 16//50 107//80
f 109//87 108//31 110//30
f 108//31 107//80 111//29
f 107//80 15//49 111//29
f 112//85 111//29 15//49
f 11//11 24//72 158//33
f 157//88 156//89 155//90
f 11//11 158//33 10//9
f 158//33 157//88 152//91
f 10//9 158//33 152//91
f 20//65 10//9 134//92
f 134//92 10//9 142//33
f 157//88 155//90 154//93
f 10//9 152//91 142//33
f 154//93 153//32 157//88
f 153//32 152//91 157//88
f 135//92 134//92 140//92
f 134//92 142//33 141//94
f 138//95 137//92 136//92
f 136//92 135//92 139//96
f 134//92 141//94 140//92
f 151//32 150//97 149//92
f 152//91 151//32 142//33
f 139//96 138//95 136//92
f 140//92 139//96 135//92
f 151//32 149//92 143//33
f 149//92 148//90 143//33
f 148//90 147//98 144//33
f 147//98 146//33 145//33
f 144//33 147//98 145//33
f 144//33 143//33 148//90
