# Blender v2.81 (sub 16) OBJ File: ''
# www.blender.org
mtllib Luxembourg.mtl
o 0_Luxembourg_sphere.001
v 3.230112 3.802029 -0.330219
v 3.226937 3.802029 -0.358977
v 3.230288 3.799122 -0.359159
v 3.229079 3.800540 -0.355205
v 3.228183 3.801514 -0.353101
v 3.228245 3.801791 -0.349622
v 3.229551 3.800984 -0.346272
v 3.231800 3.799270 -0.343906
v 3.232798 3.798740 -0.340434
v 3.232543 3.799245 -0.337442
v 3.231194 3.800587 -0.335560
v 3.230553 3.801296 -0.333923
v 3.189176 3.835214 -0.341292
v 3.193157 3.831841 -0.341801
v 3.196948 3.828487 -0.343812
v 3.200493 3.825142 -0.347957
v 3.203012 3.822745 -0.351135
v 3.204884 3.820804 -0.355214
v 3.206326 3.818976 -0.361967
v 3.206491 3.818594 -0.364613
v 3.209347 3.816143 -0.365309
v 3.212499 3.813524 -0.365157
v 3.214496 3.812045 -0.363099
v 3.217165 3.809985 -0.361252
v 3.220368 3.807425 -0.359988
v 3.226336 3.802534 -0.358951
v 3.230028 3.802172 -0.329429
v 3.228022 3.804044 -0.327309
v 3.226840 3.804908 -0.328648
v 3.225091 3.806270 -0.329726
v 3.222673 3.808214 -0.330557
v 3.220406 3.810004 -0.331683
v 3.215069 3.814916 -0.326785
v 3.213375 3.816429 -0.325720
v 3.210462 3.819220 -0.321861
v 3.208758 3.820656 -0.321735
v 3.207093 3.821983 -0.322420
v 3.205902 3.823019 -0.321985
v 3.202918 3.825494 -0.322180
v 3.199916 3.827801 -0.324366
v 3.196326 3.830682 -0.325648
v 3.191410 3.834580 -0.327930
v 3.185116 3.839332 -0.333437
v 3.185523 3.838581 -0.337890
v 3.185298 3.838593 -0.339789
v 3.187187 3.836886 -0.341176
v 3.187353 3.836713 -0.341560
vn 0.6407 0.7645 -0.0707
vn 0.6517 0.7551 -0.0718
vn 0.6453 0.7606 -0.0712
vn 0.6396 0.7654 -0.0706
vn 0.6513 0.7554 -0.0718
vn 0.6516 0.7552 -0.0716
vn 0.6515 0.7552 -0.0720
vn 0.6516 0.7552 -0.0720
vn 0.6514 0.7553 -0.0719
vn 0.6515 0.7552 -0.0719
vn 0.6514 0.7553 -0.0718
vn 0.6514 0.7553 -0.0721
vn 0.6395 0.7655 -0.0706
vn 0.6395 0.7656 -0.0704
vn 0.6395 0.7655 -0.0708
vn 0.6396 0.7654 -0.0705
vn 0.6396 0.7654 -0.0711
vn 0.6396 0.7654 -0.0707
vn 0.6395 0.7655 -0.0707
vn 0.6396 0.7655 -0.0707
vn 0.6395 0.7655 -0.0703
vn 0.6396 0.7654 -0.0704
vn 0.6396 0.7655 -0.0702
usemtl None
s 1
f 1//1 6//2 2//3
f 16//4 15//4 37//4
f 11//5 10//6 9//7
f 9//7 8//8 11//5
f 8//8 7//9 11//5
f 12//10 11//5 7//9
f 12//10 7//9 6//2
f 4//7 3//11 2//3
f 5//12 4//7 2//3
f 1//1 12//10 6//2
f 6//2 5//12 2//3
f 1//1 2//3 26//13
f 1//1 26//13 31//4
f 26//13 25//4 32//4
f 28//4 27//14 29//4
f 27//14 1//1 29//4
f 26//13 32//4 31//4
f 25//4 24//4 32//4
f 23//4 22//15 21//16
f 24//4 23//4 18//4
f 32//4 24//4 18//4
f 30//17 29//4 1//1
f 31//4 30//17 1//1
f 34//4 33//4 16//4
f 33//4 32//4 17//16
f 36//18 35//19 34//4
f 39//20 38//21 37//4
f 37//4 36//18 34//4
f 37//4 34//4 16//4
f 33//4 17//16 16//4
f 40//4 39//20 37//4
f 42//4 41//4 14//4
f 41//4 40//4 15//4
f 14//4 41//4 15//4
f 44//4 43//22 42//4
f 46//16 45//22 44//4
f 13//4 47//23 46//16
f 13//4 46//16 44//4
f 44//4 42//4 13//4
f 13//4 42//4 14//4
f 40//4 37//4 15//4
f 23//4 21//16 19//4
f 21//16 20//16 19//4
f 32//4 18//4 17//16
f 23//4 19//4 18//4
