# Blender v2.81 (sub 16) OBJ File: ''
# www.blender.org
mtllib Macao S.A.R.mtl
o 0_Macao_S.A.R_sphere.001
v -1.844229 1.890521 -4.245265
v -1.844876 1.892450 -4.244116
v -1.847257 1.892799 -4.242886
v -1.849092 1.890913 -4.242896
v -1.848935 1.890816 -4.243010
v -1.845737 1.889221 -4.245162
v -1.844696 1.888926 -4.245763
v -1.844355 1.888739 -4.246000
vn -0.3831 0.3750 -0.8441
vn -0.3815 0.3753 -0.8447
vn -0.3818 0.3753 -0.8446
vn -0.3811 0.3749 -0.8451
vn -0.3814 0.3753 -0.8448
vn -0.3813 0.3751 -0.8449
vn -0.3814 0.3754 -0.8448
vn -0.3843 0.3749 -0.8437
usemtl None
s 1
f 7//1 6//2 1//3
f 4//4 3//5 5//6
f 3//5 2//7 6//2
f 5//6 3//5 6//2
f 2//7 1//3 6//2
f 1//3 8//8 7//1
