# Blender v2.81 (sub 16) OBJ File: ''
# www.blender.org
mtllib Madagascar.mtl
o 0_Madagascar_sphere.001
v 3.083026 -1.468907 -3.651332
v 3.083454 -1.456107 -3.656000
v 3.078723 -1.437675 -3.667290
v 3.076656 -1.436244 -3.669619
v 3.078820 -1.453575 -3.660954
vn 0.6222 -0.2865 -0.7285
vn 0.6223 -0.2865 -0.7284
usemtl None
s 1
f 2//1 1//1 5//1
f 4//2 3//2 5//1
f 3//2 2//1 5//1
o 1_Madagascar_sphere.001
v 3.232588 -1.158681 -3.633780
v 3.241054 -1.157364 -3.626490
v 3.244002 -1.146713 -3.627144
v 3.239992 -1.146402 -3.630891
v 3.239815 -1.142025 -3.632423
v 3.237407 -1.141500 -3.634778
v 3.233310 -1.150972 -3.635539
v 3.233176 -1.155578 -3.634217
vn 0.6556 -0.2258 -0.7205
vn 0.6556 -0.2257 -0.7205
vn 0.6557 -0.2258 -0.7205
vn 0.6557 -0.2256 -0.7205
vn 0.6556 -0.2257 -0.7206
usemtl None
s 1
f 9//3 7//3 13//4
f 12//5 11//4 9//3
f 11//4 10//6 9//3
f 9//3 8//4 7//3
f 7//3 6//7 13//4
f 13//4 12//5 9//3
o 2_Madagascar_sphere.001
v 3.074162 -1.319368 -3.716017
v 3.215201 -1.167230 -3.646923
v 3.202679 -1.243452 -3.632720
v 3.189368 -1.319368 -3.617622
v 3.175270 -1.394959 -3.601631
v 3.160387 -1.470205 -3.584749
v 3.144727 -1.545088 -3.566986
v 3.128288 -1.619590 -3.548340
v 3.111079 -1.693693 -3.528821
v 3.301426 -1.319368 -3.515656
v 3.286833 -1.394959 -3.500117
v 3.271428 -1.470205 -3.483709
v 3.255217 -1.545088 -3.466448
v 3.238201 -1.619590 -3.448327
v 3.220387 -1.693693 -3.429358
v 3.201779 -1.767377 -3.409542
v 3.182380 -1.840626 -3.388884
v 3.162197 -1.913420 -3.367391
v 3.141232 -1.985743 -3.345068
v 3.119494 -2.057575 -3.321917
v 3.395153 -1.394959 -3.395148
v 3.379240 -1.470205 -3.379232
v 3.362494 -1.545088 -3.362488
v 3.344918 -1.619590 -3.344911
v 3.326517 -1.693693 -3.326511
v 3.307295 -1.767377 -3.307289
v 3.287258 -1.840626 -3.287251
v 3.266409 -1.913420 -3.266402
v 3.244753 -1.985743 -3.244748
v 3.222298 -2.057575 -3.222292
v 3.199048 -2.128899 -3.199042
v 3.419462 -1.545088 -3.303702
v 3.088914 -1.985743 -3.392674
v 3.099089 -2.122233 -3.300188
v 3.077298 -1.300810 -3.719809
v 3.236077 -2.128899 -3.160831
v 3.098379 -1.394959 -3.667302
v 3.301577 -1.318540 -3.515816
v 3.362396 -1.767377 -3.250430
v 3.302234 -1.319368 -3.514874
v 3.419122 -1.394959 -3.370413
v 3.094640 -1.840626 -3.468722
v 3.093375 -1.619590 -3.578158
v 3.069664 -1.319368 -3.719621
v 3.253850 -1.243452 -3.586159
v 3.126874 -2.128899 -3.268984
v 3.099991 -1.243452 -3.720424
v 3.317863 -1.985743 -3.169304
v 3.388389 -1.619590 -3.300052
v 3.396423 -1.388589 -3.396418
v 3.087717 -2.057575 -3.350831
v 3.192011 -2.149624 -3.192005
v 3.374874 -1.840626 -3.196837
v 3.210753 -1.090719 -3.674040
v 3.160879 -1.090719 -3.716637
v 3.288599 -1.319368 -3.527328
v 3.280534 -1.319368 -3.534667
v 3.427661 -1.470205 -3.329266
v 3.069043 -1.347844 -3.709830
v 3.095978 -1.693693 -3.541719
v 3.096441 -1.913420 -3.427225
v 3.295870 -2.057575 -3.146372
v 3.216058 -1.161633 -3.647896
v 3.097468 -1.749483 -3.513382
v 3.359750 -1.693693 -3.292217
v 3.223954 -1.167230 -3.638958
v 3.102636 -1.470205 -3.634073
v 3.090989 -1.545088 -3.612882
v 3.097214 -1.767377 -3.504688
v 3.362352 -1.913420 -3.167396
v 3.121785 -1.167230 -3.726708
v 3.323001 -1.978145 -3.168625
v 3.327202 -1.968619 -3.170086
v 3.332391 -1.959971 -3.169993
v 3.346767 -1.944394 -3.164634
v 3.351390 -1.936747 -3.164517
v 3.355377 -1.928797 -3.165239
v 3.205734 -2.139409 -3.184892
v 3.213112 -2.136659 -3.179175
v 3.226060 -2.134385 -3.167383
v 3.230221 -2.132970 -3.164065
v 3.234349 -2.130805 -3.161300
v 3.093455 -1.933148 -3.418649
v 3.091096 -1.952783 -3.409555
v 3.089407 -1.972202 -3.399975
v 3.254746 -1.240734 -3.586256
v 3.247683 -1.215097 -3.601292
v 3.248435 -1.209789 -3.602390
v 3.247102 -1.208115 -3.604165
v 3.246655 -1.206050 -3.605266
v 3.253973 -1.197390 -3.601515
v 3.255838 -1.193093 -3.601260
v 3.256146 -1.186587 -3.603165
v 3.254246 -1.180824 -3.606829
v 3.252379 -1.176766 -3.609891
v 3.249008 -1.175237 -3.613472
v 3.245755 -1.177454 -3.615687
v 3.238214 -1.184588 -3.620153
v 3.233772 -1.185677 -3.623830
v 3.229690 -1.178887 -3.629824
v 3.226884 -1.170399 -3.635227
v 3.163940 -1.085137 -3.715603
v 3.216422 -1.079628 -3.672339
v 3.215650 -1.076976 -3.673749
v 3.209195 -1.078543 -3.678818
v 3.207364 -1.076885 -3.680851
v 3.202082 -1.066334 -3.688350
v 3.193856 -1.046139 -3.701093
v 3.190168 -1.046191 -3.704229
v 3.186500 -1.049908 -3.706309
v 3.184572 -1.055449 -3.706387
v 3.181805 -1.059509 -3.707601
v 3.172942 -1.069059 -3.712467
v 3.168169 -1.076201 -3.714521
v 3.097896 -1.253034 -3.718873
v 3.092794 -1.271388 -3.716832
v 3.084866 -1.288683 -3.717573
v 3.104122 -1.481738 -3.628008
v 3.103081 -1.490554 -3.625231
v 3.093981 -1.517405 -3.621838
v 3.091067 -1.536468 -3.616400
v 3.095666 -1.706202 -3.535917
v 3.096194 -1.727012 -3.525371
v 3.097471 -1.747527 -3.514328
v 3.067408 -1.326519 -3.718844
v 3.068859 -1.347013 -3.710277
v 3.419971 -1.436820 -3.351547
v 3.420534 -1.430056 -3.353873
v 3.425358 -1.412471 -3.356452
v 3.427017 -1.402242 -3.359136
v 3.426915 -1.398468 -3.360864
v 3.425411 -1.396265 -3.363362
v 3.421215 -1.395200 -3.368149
v 3.361588 -1.683190 -3.295620
v 3.362960 -1.673036 -3.299327
v 3.365703 -1.662992 -3.301564
v 3.371880 -1.652636 -3.300416
v 3.385075 -1.633859 -3.296273
v 3.386198 -1.630360 -3.296879
v 3.132597 -2.131148 -3.261934
v 3.143157 -2.139874 -3.245867
v 3.152739 -2.149884 -3.229888
v 3.156117 -2.154639 -3.223436
v 3.160646 -2.157356 -3.217231
v 3.177519 -2.158002 -3.200447
v 3.183335 -2.155874 -3.196234
v 3.242141 -2.122176 -3.159027
v 3.254373 -2.114858 -3.151252
v 3.257441 -2.112576 -3.149597
v 3.260623 -2.107519 -3.149664
v 3.263430 -2.102091 -3.150362
v 3.268012 -2.096008 -3.149662
v 3.273735 -2.084442 -3.151417
v 3.279601 -2.076345 -3.150727
v 3.293427 -2.062041 -3.145934
v 3.366529 -1.903989 -3.168574
v 3.369492 -1.895329 -3.170557
v 3.374409 -1.876948 -3.176179
v 3.375853 -1.867494 -3.180192
v 3.375439 -1.860913 -3.184448
v 3.376299 -1.855995 -3.186423
v 3.375998 -1.851764 -3.189195
v 3.374720 -1.848385 -3.192481
v 3.374358 -1.844321 -3.195220
v 3.094505 -1.860196 -3.458130
v 3.096906 -1.904696 -3.431578
v 3.096845 -1.910517 -3.428447
v 3.087693 -2.058844 -3.350063
v 3.085832 -2.068801 -3.345551
v 3.085140 -2.078408 -3.340194
v 3.085188 -2.096095 -3.329127
v 3.088765 -2.111312 -3.316388
v 3.092686 -2.116870 -3.309356
v 3.221474 -1.164531 -3.642061
v 3.119052 -1.173719 -3.726922
v 3.106363 -1.212895 -3.724963
v 3.095928 -1.399478 -3.667618
v 3.091684 -1.418742 -3.663667
v 3.091564 -1.428502 -3.659930
v 3.094886 -1.436838 -3.653815
v 3.093683 -1.441500 -3.653009
v 3.090933 -1.446228 -3.653498
v 3.092118 -1.449092 -3.651360
v 3.097985 -1.452718 -3.644922
v 3.100001 -1.455920 -3.641942
v 3.101876 -1.464419 -3.636997
v 3.095250 -1.637553 -3.568263
v 3.096308 -1.671413 -3.551724
v 3.073549 -1.306653 -3.720828
v 3.400884 -1.392780 -3.390116
v 3.398547 -1.391013 -3.393243
v 3.389003 -1.616391 -3.300953
v 3.392146 -1.606243 -3.302573
v 3.397721 -1.596123 -3.301671
v 3.404043 -1.586592 -3.299716
v 3.412252 -1.568802 -3.299773
v 3.102296 -2.124910 -3.295362
v 3.107810 -2.126514 -3.288988
v 3.121124 -2.126631 -3.276012
v 3.301562 -2.042206 -3.150260
v 3.304556 -2.031871 -3.153736
v 3.311517 -2.012916 -3.158592
v 3.313345 -2.004017 -3.162359
v 3.312681 -1.995975 -3.168152
v 3.316806 -1.987279 -3.169420
v 3.285000 -1.329586 -3.526707
v 3.284821 -1.332073 -3.525922
v 3.282693 -1.332414 -3.527729
v 3.280641 -1.330535 -3.530312
v 3.279658 -1.324449 -3.533527
v 3.377428 -1.820725 -3.205265
v 3.374318 -1.815467 -3.211396
v 3.368351 -1.812411 -3.219253
v 3.364614 -1.806242 -3.226537
v 3.363800 -1.797905 -3.232012
v 3.365459 -1.780708 -3.239859
v 3.096846 -1.783604 -3.496537
v 3.094578 -1.820134 -3.479496
v 3.088066 -2.004210 -3.382408
v 3.086054 -2.014042 -3.378363
v 3.085041 -2.023486 -3.373640
v 3.086771 -2.043491 -3.360110
v 3.087786 -2.050926 -3.354743
v 3.159241 -1.093687 -3.717131
v 3.145338 -1.114317 -3.722719
v 3.139506 -1.122290 -3.725269
v 3.134324 -1.130706 -3.727130
v 3.129874 -1.147562 -3.725793
v 3.214767 -1.160926 -3.649215
v 3.205532 -1.147382 -3.661230
v 3.202457 -1.119147 -3.672462
v 3.203135 -1.110923 -3.674389
v 3.206289 -1.100962 -3.674731
v 3.210366 -1.091492 -3.674136
v 3.072614 -1.366233 -3.699960
v 3.073864 -1.369830 -3.697559
v 3.076375 -1.374757 -3.693587
v 3.077911 -1.374562 -3.692348
v 3.084591 -1.369537 -3.688506
v 3.090779 -1.361402 -3.686237
v 3.100275 -1.342201 -3.685247
v 3.104203 -1.332466 -3.685502
v 3.107026 -1.330932 -3.683660
v 3.113863 -1.331763 -3.677513
v 3.117825 -1.337810 -3.671886
v 3.118062 -1.341617 -3.670272
v 3.114968 -1.352438 -3.668902
v 3.111306 -1.362154 -3.668427
v 3.108667 -1.372014 -3.667025
v 3.106202 -1.384445 -3.664520
v 3.103672 -1.388199 -3.665288
v 3.100325 -1.391362 -3.666974
v 3.090532 -1.572757 -3.601134
v 3.090935 -1.589971 -3.593238
v 3.092354 -1.610529 -3.583006
v 3.297396 -1.313392 -3.521465
v 3.293798 -1.312481 -3.525066
v 3.290272 -1.314500 -3.527551
v 3.283139 -1.314538 -3.534027
v 3.284735 -1.310410 -3.534055
v 3.285482 -1.306623 -3.534733
v 3.280565 -1.297645 -3.542425
v 3.276925 -1.289105 -3.548798
v 3.276379 -1.278894 -3.552955
v 3.275161 -1.274184 -3.555751
v 3.270686 -1.268872 -3.561727
v 3.268929 -1.269718 -3.563023
v 3.266873 -1.274010 -3.563356
v 3.265355 -1.278573 -3.563101
v 3.265955 -1.283095 -3.560934
v 3.267109 -1.287557 -3.558285
v 3.266858 -1.293530 -3.556372
v 3.263592 -1.294673 -3.558935
v 3.260972 -1.293230 -3.561836
v 3.258672 -1.282416 -3.567805
v 3.255645 -1.272233 -3.574209
v 3.253726 -1.266915 -3.577861
v 3.250765 -1.263226 -3.581878
v 3.244614 -1.263997 -3.587198
v 3.238336 -1.266291 -3.592089
v 3.249800 -1.255489 -3.585529
v 3.394240 -1.386129 -3.399499
v 3.388708 -1.376667 -3.408576
v 3.385891 -1.373931 -3.412380
v 3.382795 -1.374915 -3.414993
v 3.380126 -1.378948 -3.415997
v 3.377284 -1.381140 -3.417889
v 3.369464 -1.376819 -3.427164
v 3.366158 -1.376689 -3.430419
v 3.362607 -1.377384 -3.433588
v 3.361780 -1.373463 -3.435928
v 3.361892 -1.368181 -3.437894
v 3.361349 -1.364464 -3.439879
v 3.359398 -1.362360 -3.442596
v 3.348467 -1.361193 -3.453648
v 3.341619 -1.359690 -3.460873
v 3.333066 -1.356023 -3.470602
v 3.330951 -1.356749 -3.472367
v 3.320916 -1.369999 -3.476889
v 3.318434 -1.371167 -3.478835
v 3.315459 -1.371693 -3.481512
v 3.313380 -1.369295 -3.484468
v 3.320771 -1.362363 -3.480028
v 3.322459 -1.358418 -3.479940
v 3.322960 -1.353988 -3.481195
v 3.321600 -1.344448 -3.486259
v 3.317594 -1.337184 -3.492993
v 3.307636 -1.326211 -3.506951
v 3.421154 -1.539363 -3.304557
v 3.423205 -1.528654 -3.307307
v 3.426534 -1.519152 -3.308189
v 3.431459 -1.510114 -3.307213
v 3.432997 -1.494296 -3.312813
v 3.361516 -1.763647 -3.253315
v 3.360826 -1.754611 -3.258817
v 3.357477 -1.740985 -3.269495
v 3.356353 -1.721818 -3.280814
v 3.356845 -1.712807 -3.285083
v 3.357929 -1.703545 -3.288874
vn 0.6379 -0.2638 -0.7235
vn 0.6277 -0.2563 -0.7350
vn 0.6277 -0.2562 -0.7350
vn 0.6430 -0.2334 -0.7294
vn 0.6556 -0.2258 -0.7205
vn 0.6537 -0.2381 -0.7183
vn 0.6532 -0.2411 -0.7178
vn 0.6532 -0.2410 -0.7178
vn 0.6505 -0.2563 -0.7149
vn 0.6505 -0.2562 -0.7149
vn 0.6477 -0.2714 -0.7119
vn 0.6574 -0.2790 -0.7000
vn 0.6321 -0.2940 -0.7169
vn 0.6543 -0.2940 -0.6967
vn 0.6510 -0.3090 -0.6933
vn 0.6289 -0.3090 -0.7134
vn 0.6257 -0.3239 -0.7096
vn 0.6476 -0.3239 -0.6897
vn 0.6441 -0.3387 -0.6859
vn 0.6222 -0.3387 -0.7058
vn 0.6602 -0.2639 -0.7031
vn 0.6571 -0.2565 -0.7088
vn 0.6703 -0.2685 -0.6918
vn 0.6698 -0.2714 -0.6912
vn 0.6697 -0.2714 -0.6912
vn 0.6790 -0.2790 -0.6790
vn 0.6758 -0.2940 -0.6758
vn 0.6725 -0.3090 -0.6725
vn 0.6690 -0.3239 -0.6690
vn 0.6653 -0.3387 -0.6653
vn 0.6615 -0.3534 -0.6615
vn 0.6403 -0.3534 -0.6819
vn 0.6365 -0.3681 -0.6778
vn 0.6574 -0.3681 -0.6574
vn 0.6533 -0.3826 -0.6533
vn 0.6324 -0.3826 -0.6735
vn 0.6489 -0.3971 -0.6489
vn 0.6283 -0.3971 -0.6690
vn 0.6239 -0.4115 -0.6644
vn 0.6445 -0.4115 -0.6445
vn 0.6912 -0.2714 -0.6698
vn 0.6880 -0.2865 -0.6667
vn 0.6847 -0.3015 -0.6635
vn 0.6812 -0.3164 -0.6601
vn 0.6775 -0.3313 -0.6566
vn 0.6737 -0.3460 -0.6529
vn 0.6698 -0.3608 -0.6490
vn 0.6656 -0.3754 -0.6450
vn 0.6613 -0.3899 -0.6408
vn 0.6568 -0.4043 -0.6365
vn 0.6522 -0.4186 -0.6320
vn 0.6473 -0.4328 -0.6273
vn 0.6474 -0.4328 -0.6273
vn 0.6398 -0.4257 -0.6398
vn 0.6293 -0.3461 -0.6958
vn 0.6197 -0.3899 -0.6811
vn 0.6349 -0.2105 -0.7434
vn 0.6349 -0.2104 -0.7434
vn 0.6192 -0.3015 -0.7250
vn 0.6093 -0.3460 -0.7134
vn 0.6113 -0.3375 -0.7158
vn 0.6018 -0.2714 -0.7511
vn 0.6030 -0.2647 -0.7526
vn 0.6148 -0.2638 -0.7432
vn 0.6273 -0.4328 -0.6474
vn 0.6273 -0.4330 -0.6473
vn 0.6238 -0.3753 -0.6855
vn 0.6112 -0.4186 -0.6717
vn 0.6112 -0.4184 -0.6718
vn 0.6405 -0.2487 -0.7265
vn 0.6303 -0.2410 -0.7380
vn 0.6222 -0.2865 -0.7285
vn 0.6222 -0.2866 -0.7285
vn 0.6128 -0.3313 -0.7175
vn 0.6044 -0.2562 -0.7543
vn 0.6320 -0.4186 -0.6522
vn 0.6249 -0.4187 -0.6590
vn 0.6277 -0.3608 -0.6898
vn 0.6155 -0.4043 -0.6765
vn 0.6327 -0.2258 -0.7407
vn 0.6326 -0.2257 -0.7408
vn 0.6327 -0.2257 -0.7407
vn 0.6251 -0.2714 -0.7319
vn 0.6250 -0.2714 -0.7319
vn 0.6160 -0.3164 -0.7213
vn 0.6238 -0.2563 -0.7383
vn 0.6290 -0.2489 -0.7364
vn 0.6416 -0.2258 -0.7331
vn 0.6520 -0.2477 -0.7166
vn 0.6531 -0.2410 -0.7178
vn 0.6530 -0.2410 -0.7179
vn 0.6533 -0.2409 -0.7177
vn 0.6531 -0.2411 -0.7178
vn 0.6493 -0.2629 -0.7136
vn 0.6505 -0.2562 -0.7150
vn 0.6506 -0.2561 -0.7149
vn 0.6506 -0.2562 -0.7149
vn 0.6506 -0.2562 -0.7148
vn 0.6350 -0.2790 -0.7203
vn 0.6477 -0.2714 -0.7118
vn 0.6490 -0.2649 -0.7132
vn 0.6478 -0.2713 -0.7118
vn 0.6764 -0.2714 -0.6847
vn 0.6698 -0.2713 -0.6912
vn 0.6699 -0.2707 -0.6912
vn 0.6698 -0.2714 -0.6911
vn 0.6698 -0.2716 -0.6911
vn 0.6695 -0.2717 -0.6913
vn 0.6881 -0.2861 -0.6668
vn 0.6858 -0.2966 -0.6646
vn 0.6879 -0.2865 -0.6668
vn 0.6878 -0.2866 -0.6669
vn 0.6831 -0.3085 -0.6619
vn 0.6846 -0.3015 -0.6636
vn 0.6793 -0.3242 -0.6583
vn 0.6812 -0.3165 -0.6601
vn 0.6756 -0.3392 -0.6547
vn 0.6776 -0.3313 -0.6566
vn 0.6776 -0.3312 -0.6566
vn 0.6776 -0.3312 -0.6565
vn 0.6710 -0.3562 -0.6503
vn 0.6737 -0.3461 -0.6529
vn 0.6674 -0.3690 -0.6468
vn 0.6697 -0.3608 -0.6490
vn 0.6696 -0.3608 -0.6492
vn 0.6637 -0.3817 -0.6432
vn 0.6656 -0.3753 -0.6450
vn 0.6655 -0.3757 -0.6450
vn 0.6659 -0.3750 -0.6449
vn 0.6655 -0.3755 -0.6449
vn 0.6597 -0.3949 -0.6393
vn 0.6612 -0.3898 -0.6409
vn 0.6614 -0.3899 -0.6407
vn 0.6612 -0.3899 -0.6409
vn 0.6547 -0.4107 -0.6345
vn 0.6568 -0.4042 -0.6366
vn 0.6567 -0.4043 -0.6366
vn 0.6508 -0.4229 -0.6306
vn 0.6520 -0.4188 -0.6320
vn 0.6522 -0.4187 -0.6318
vn 0.6522 -0.4186 -0.6319
vn 0.6519 -0.4186 -0.6322
vn 0.6522 -0.4187 -0.6319
vn 0.6475 -0.4331 -0.6270
vn 0.6474 -0.4330 -0.6271
vn 0.6333 -0.4328 -0.6415
vn 0.6299 -0.3521 -0.6923
vn 0.6181 -0.3957 -0.6793
vn 0.6220 -0.3818 -0.6836
vn 0.6341 -0.2159 -0.7425
vn 0.6335 -0.2205 -0.7417
vn 0.6348 -0.2105 -0.7434
vn 0.6349 -0.2104 -0.7433
vn 0.6179 -0.3078 -0.7235
vn 0.6211 -0.2921 -0.7272
vn 0.6088 -0.3462 -0.7138
vn 0.6218 -0.2714 -0.7346
vn 0.6023 -0.2714 -0.7508
vn 0.6273 -0.4327 -0.6475
vn 0.6316 -0.4198 -0.6518
vn 0.6261 -0.3666 -0.6881
vn 0.6138 -0.4098 -0.6747
vn 0.6312 -0.2349 -0.7391
vn 0.6232 -0.2810 -0.7298
vn 0.6220 -0.2865 -0.7287
vn 0.6220 -0.2867 -0.7286
vn 0.6148 -0.3220 -0.7199
vn 0.6319 -0.4191 -0.6519
vn 0.6326 -0.2258 -0.7407
vn 0.6326 -0.2259 -0.7408
vn 0.6327 -0.2256 -0.7408
vn 0.6326 -0.2258 -0.7408
vn 0.6251 -0.2714 -0.7318
vn 0.6250 -0.2714 -0.7318
vn 0.6253 -0.2710 -0.7317
vn 0.6250 -0.2715 -0.7318
vn 0.6251 -0.2713 -0.7318
vn 0.6506 -0.2563 -0.7149
usemtl None
s 1
f 17//8 130//9 129//10
f 15//11 187//12 79//13
f 111//14 106//15 104//15
f 285//16 284//17 276//17
f 221//18 220//18 24//19
f 19//20 24//19 25//21
f 19//20 26//22 20//23
f 21//24 26//22 27//25
f 21//24 28//26 22//27
f 23//28 51//29 53//30
f 308//31 307//31 304//32
f 25//21 34//33 35//34
f 25//21 36//35 26//22
f 27//25 36//35 37//36
f 27//25 38//37 28//26
f 28//26 39//38 29//39
f 30//40 39//38 40//41
f 30//40 41//42 31//43
f 31//43 42//44 32//45
f 33//46 42//44 43//47
f 34//33 204//48 203//48
f 143//49 142//49 146//49
f 323//50 322//50 36//35
f 207//51 206//51 37//36
f 37//36 150//52 149//52
f 38//37 331//53 330//53
f 228//54 227//54 40//41
f 170//55 41//42 173//55
f 41//42 87//56 86//56
f 42//44 217//57 214//57
f 43//47 166//58 164//58
f 92//59 91//60 44//61
f 77//62 28//26 29//39
f 31//43 32//45 97//63
f 121//64 120//64 124//65
f 132//66 19//20 20//23
f 135//67 73//68 22//27
f 138//69 57//70 14//71
f 154//72 153//73 44//61
f 30//40 31//43 179//74
f 182//75 181//76 33//46
f 16//77 188//78 15//11
f 198//79 197//80 193//79
f 201//81 200//81 21//24
f 202//82 14//71 57//70
f 33//46 211//83 47//84
f 231//85 230//85 29//39
f 32//45 33//46 235//86
f 237//87 245//88 244//89
f 258//90 257//91 17//8
f 20//23 21//24 267//92
f 269//16 51//29 23//28
f 17//8 14//71 130//9
f 14//71 48//93 130//9
f 60//94 16//77 128//10
f 16//77 17//8 129//10
f 128//10 16//77 129//10
f 15//11 76//95 187//12
f 58//96 16//77 100//97
f 16//77 15//11 113//15
f 100//97 16//77 102//15
f 15//11 79//13 114//14
f 15//11 114//14 113//15
f 99//98 58//96 100//97
f 102//15 101//99 100//97
f 112//14 16//77 113//15
f 111//14 110//15 107//15
f 110//15 109//15 108//14
f 16//77 112//14 103//15
f 110//15 108//14 107//15
f 16//77 103//15 102//15
f 112//14 111//14 103//15
f 105//100 104//15 106//15
f 104//15 103//15 111//14
f 107//15 106//15 111//14
f 70//101 17//8 287//17
f 17//8 16//77 293//17
f 287//17 17//8 293//17
f 16//77 58//96 293//17
f 58//96 294//16 293//17
f 293//17 292//16 289//17
f 292//16 291//17 290//16
f 272//102 70//101 275//17
f 274//103 273//16 275//17
f 273//16 272//102 275//17
f 292//16 290//16 289//17
f 289//17 288//16 293//17
f 288//16 287//17 293//17
f 276//17 275//17 285//16
f 285//16 275//17 70//101
f 278//16 277//104 283//17
f 277//104 276//17 284//17
f 280//105 279//16 281//17
f 279//16 278//16 281//17
f 282//16 281//17 278//16
f 284//17 283//17 277//104
f 283//17 282//16 278//16
f 70//101 287//17 286//105
f 70//101 286//105 285//16
f 24//19 18//106 222//107
f 18//106 17//8 222//107
f 24//19 222//107 221//18
f 17//8 70//101 223//107
f 17//8 223//107 222//107
f 69//108 23//28 219//109
f 23//28 24//19 220//18
f 220//18 219//109 23//28
f 19//20 18//106 24//19
f 19//20 25//21 26//22
f 21//24 20//23 26//22
f 21//24 27//25 28//26
f 24//19 23//28 321//31
f 23//28 53//30 321//31
f 321//31 320//31 315//31
f 320//31 319//31 315//31
f 63//110 34//33 295//31
f 34//33 24//19 303//31
f 295//31 34//33 300//31
f 297//31 296//31 299//31
f 296//31 295//31 299//31
f 297//31 299//31 298//111
f 300//31 34//33 303//31
f 24//19 321//31 315//31
f 319//31 318//31 315//31
f 318//31 317//31 316//31
f 315//31 318//31 316//31
f 24//19 315//31 314//31
f 300//31 299//31 295//31
f 302//112 301//111 303//31
f 301//111 300//31 303//31
f 24//19 314//31 313//31
f 312//113 311//31 309//31
f 311//31 310//114 309//31
f 24//19 313//31 303//31
f 313//31 312//113 303//31
f 306//115 305//113 307//31
f 305//113 304//32 307//31
f 304//32 303//31 308//31
f 303//31 312//113 308//31
f 312//113 309//31 308//31
f 25//21 24//19 34//33
f 25//21 35//34 36//35
f 27//25 26//22 36//35
f 27//25 37//36 38//37
f 28//26 38//37 39//38
f 30//40 29//39 39//38
f 30//40 40//41 41//42
f 31//43 41//42 42//44
f 33//46 32//45 42//44
f 34//33 63//110 204//48
f 203//48 54//116 34//33
f 71//117 35//34 140//49
f 35//34 34//33 141//49
f 140//49 35//34 141//49
f 34//33 54//116 141//49
f 54//116 146//49 142//49
f 141//49 54//116 142//49
f 146//49 145//118 143//49
f 145//118 144//119 143//49
f 45//120 36//35 322//50
f 36//35 35//34 324//50
f 323//50 36//35 324//50
f 35//34 71//117 324//50
f 71//117 326//50 324//50
f 326//50 325//121 324//50
f 62//122 37//36 205//123
f 37//36 36//35 207//51
f 205//123 37//36 206//51
f 36//35 45//120 209//51
f 209//51 208//51 36//35
f 208//51 207//51 36//35
f 78//124 38//37 147//125
f 38//37 37//36 149//52
f 147//125 38//37 148//52
f 37//36 62//122 152//126
f 152//126 151//127 150//52
f 37//36 152//126 150//52
f 148//52 38//37 149//52
f 52//128 39//38 327//53
f 39//38 38//37 330//53
f 327//53 39//38 328//129
f 38//37 78//124 332//129
f 38//37 332//129 331//53
f 329//53 39//38 330//53
f 329//53 328//129 39//38
f 66//130 40//41 226//131
f 40//41 39//38 228//54
f 226//131 40//41 227//54
f 39//38 52//128 228//54
f 52//128 229//54 228//54
f 224//132 66//130 225//131
f 226//131 225//131 66//130
f 83//133 41//42 169//55
f 41//42 40//41 177//134
f 169//55 41//42 170//55
f 40//41 66//130 177//134
f 176//55 175//135 173//55
f 175//135 174//136 173//55
f 177//134 176//55 41//42
f 171//134 170//55 173//55
f 173//55 172//137 171//134
f 41//42 176//55 173//55
f 61//138 42//44 86//56
f 42//44 41//42 86//56
f 41//42 83//133 90//56
f 90//56 89//139 87//56
f 89//139 88//140 87//56
f 85//141 61//138 86//56
f 41//42 90//56 87//56
f 75//142 43//47 213//57
f 43//47 42//44 214//57
f 213//57 43//47 214//57
f 42//44 61//138 218//143
f 217//57 216//144 215//57
f 42//44 218//143 217//57
f 217//57 215//57 214//57
f 49//145 44//61 160//58
f 44//61 43//47 160//58
f 43//47 75//142 167//58
f 75//142 168//146 167//58
f 162//147 161//148 163//149
f 161//148 160//58 164//58
f 164//58 163//149 161//148
f 166//58 165//150 164//58
f 43//47 167//58 166//58
f 160//58 43//47 164//58
f 44//61 49//145 93//60
f 49//145 95//151 94//152
f 44//61 93//60 92//59
f 94//152 93//60 49//145
f 91//60 65//153 44//61
f 29//39 82//154 77//62
f 77//62 22//27 28//26
f 32//45 46//155 98//63
f 98//63 97//63 32//45
f 97//63 96//63 31//43
f 96//63 74//156 31//43
f 67//157 68//158 115//64
f 115//64 127//64 119//64
f 127//64 126//64 120//64
f 119//64 127//64 120//64
f 126//64 125//65 120//64
f 115//64 119//64 67//157
f 116//65 67//157 118//159
f 118//159 67//157 119//64
f 118//159 117//160 116//65
f 124//65 123//64 121//64
f 123//64 122//160 121//64
f 125//65 124//65 120//64
f 20//23 81//161 134//66
f 134//66 133//66 20//23
f 133//66 132//66 20//23
f 131//66 80//162 19//20
f 132//66 131//66 19//20
f 22//27 77//62 137//163
f 137//163 136//67 22//27
f 136//67 135//67 22//27
f 14//71 72//164 139//165
f 139//165 138//69 14//71
f 44//61 65//153 159//72
f 159//72 158//72 44//61
f 158//72 157//72 44//61
f 157//72 156//166 155//72
f 157//72 155//72 44//61
f 155//72 154//72 44//61
f 153//73 59//167 44//61
f 31//43 74//156 180//74
f 179//74 178//74 30//40
f 178//74 55//168 30//40
f 31//43 180//74 179//74
f 33//46 47//84 186//75
f 186//75 185//75 33//46
f 185//75 184//75 33//46
f 184//75 183//75 33//46
f 183//75 182//75 33//46
f 181//76 64//169 33//46
f 16//77 60//94 189//78
f 189//78 188//78 16//77
f 188//78 84//170 15//11
f 19//20 80//162 199//79
f 19//20 199//79 198//79
f 50//171 18//106 193//79
f 18//106 19//20 198//79
f 193//79 18//106 198//79
f 191//79 190//172 50//171
f 193//79 192//173 191//79
f 196//79 195//79 194//79
f 193//79 191//79 50//171
f 196//79 194//79 197//80
f 194//79 193//79 197//80
f 22//27 73//68 201//81
f 200//81 56//174 21//24
f 22//27 201//81 21//24
f 202//82 48//93 14//71
f 44//61 59//167 43//47
f 59//167 212//83 33//46
f 43//47 59//167 33//46
f 212//83 211//83 33//46
f 211//83 210//175 47//84
f 30//40 55//168 231//85
f 230//85 82//154 29//39
f 30//40 231//85 29//39
f 33//46 64//169 236//86
f 236//86 235//86 33//46
f 235//86 234//86 32//45
f 234//86 233//86 32//45
f 233//86 232//86 32//45
f 232//86 46//155 32//45
f 15//11 84//170 243//89
f 84//170 241//176 243//89
f 241//176 240//87 239//87
f 241//176 239//87 243//89
f 239//87 238//87 244//89
f 243//89 239//87 244//89
f 76//95 15//11 242//177
f 242//177 15//11 243//89
f 238//87 237//87 244//89
f 237//87 68//158 245//88
f 68//158 67//157 247//178
f 68//158 247//178 246//179
f 68//158 246//179 245//88
f 18//106 50//171 264//91
f 50//171 265//180 264//91
f 248//181 72//164 253//91
f 72//164 14//71 254//91
f 250//182 249//183 251//184
f 249//183 248//181 252//91
f 252//91 251//184 249//183
f 254//91 253//91 72//164
f 253//91 252//91 248//181
f 255//180 254//91 14//71
f 17//8 18//106 260//91
f 18//106 264//91 263//180
f 263//180 262//181 18//106
f 262//181 261//180 18//106
f 18//106 261//180 260//91
f 256//91 255//180 14//71
f 257//91 256//91 14//71
f 17//8 260//91 259//91
f 17//8 259//91 258//90
f 257//91 14//71 17//8
f 21//24 56//174 268//92
f 268//92 267//92 21//24
f 267//92 266//92 20//23
f 266//92 81//161 20//23
f 23//28 69//108 269//16
f 69//108 271//185 270//16
f 269//16 69//108 270//16
