# Blender v2.81 (sub 16) OBJ File: ''
# www.blender.org
mtllib Malawi.mtl
o 0_Malawi_sphere.001
v 4.019380 -1.049555 -2.781518
v 4.020754 -1.048022 -2.780136
v 4.021275 -1.043491 -2.781092
v 4.021257 -1.040190 -2.782352
v 4.019649 -1.039658 -2.784840
v 4.018291 -1.040531 -2.786446
v 4.017186 -1.042048 -2.787449
v 4.016764 -1.044460 -2.787148
v 4.016819 -1.046954 -2.786136
v 4.017811 -1.048858 -2.784011
vn 0.7998 -0.2105 -0.5621
vn 0.7998 -0.2104 -0.5621
vn 0.7999 -0.2103 -0.5620
vn 0.7998 -0.2103 -0.5622
vn 0.7999 -0.2104 -0.5620
usemtl None
s 1
f 3//1 8//2 6//1
f 7//3 6//1 8//2
f 6//1 5//4 3//1
f 5//4 4//4 3//1
f 3//1 2//1 10//1
f 2//1 1//5 10//1
f 10//1 9//2 3//1
f 9//2 8//2 3//1
o 1_Malawi_sphere.001
v 4.023226 -1.045121 -2.777705
v 4.025267 -1.045059 -2.774824
v 4.027860 -1.041046 -2.772637
v 4.027819 -1.037938 -2.773859
v 4.026141 -1.036977 -2.776607
v 4.024330 -1.038149 -2.778745
v 4.023042 -1.040604 -2.779658
vn 0.7999 -0.2105 -0.5621
vn 0.7999 -0.2106 -0.5619
vn 0.7998 -0.2106 -0.5621
vn 0.7998 -0.2105 -0.5621
vn 0.7999 -0.2104 -0.5621
vn 0.8000 -0.2103 -0.5620
usemtl None
s 1
f 12//6 11//7 17//8
f 17//8 16//9 12//6
f 16//9 15//9 13//10
f 12//6 16//9 13//10
f 15//9 14//11 13//10
o 2_Malawi_sphere.001
v 4.073826 -0.859648 -2.768563
v 4.062155 -0.936910 -2.760631
v 4.049483 -1.013939 -2.752019
v 4.035810 -1.090719 -2.742727
v 4.021143 -1.167230 -2.732759
v 4.005483 -1.243452 -2.722116
v 3.988835 -1.319368 -2.710803
v 3.971204 -1.394959 -2.698821
v 4.038929 -1.243452 -2.671199
v 4.091500 -1.013939 -2.688054
v 3.961749 -1.394959 -2.712273
v 3.917348 -1.394959 -2.775451
v 3.994027 -1.167230 -2.771342
v 4.039203 -0.936910 -2.793288
v 4.086823 -1.090719 -2.665067
v 4.114160 -0.859648 -2.707160
v 4.005005 -1.245630 -2.721792
v 4.077020 -0.836449 -2.770733
v 3.935428 -1.243452 -2.821795
v 4.029701 -1.013939 -2.780167
v 3.910131 -1.470205 -2.746582
v 3.900475 -1.470205 -2.760322
v 4.085636 -1.167230 -2.634579
v 4.099669 -0.936910 -2.703521
v 3.972452 -1.319368 -2.734114
v 3.910847 -1.319368 -2.821769
v 4.022680 -1.090719 -2.761410
v 4.062014 -0.859648 -2.785370
v 4.009109 -1.247580 -2.714603
v 4.010884 -1.250597 -2.710443
v 4.014556 -1.250743 -2.704783
v 4.023666 -1.253244 -2.689706
v 4.026449 -1.254326 -2.684948
v 4.027619 -1.256965 -2.681892
v 4.028524 -1.257519 -2.680247
v 4.037097 -1.246203 -2.672660
v 4.114098 -0.834365 -2.714918
v 4.111724 -0.835368 -2.718228
v 4.109060 -0.834329 -2.722597
v 4.101148 -0.833544 -2.734881
v 4.097747 -0.834648 -2.739724
v 4.092964 -0.839144 -2.745643
v 4.091241 -0.839768 -2.748076
v 4.088608 -0.839957 -2.752028
v 4.088318 -0.838762 -2.752831
v 4.088419 -0.836091 -2.753487
v 4.089608 -0.830767 -2.753291
v 4.089429 -0.827866 -2.754442
v 4.088258 -0.824748 -2.757170
v 4.083357 -0.828419 -2.763518
v 4.114363 -0.856252 -2.707881
v 4.116880 -0.851909 -2.705365
v 4.120362 -0.847410 -2.701428
v 4.123045 -0.840825 -2.699338
v 4.124533 -0.835927 -2.698558
v 4.127048 -0.833981 -2.695319
v 4.129117 -0.833909 -2.692192
v 4.130194 -0.836966 -2.689625
v 4.131875 -0.836706 -2.687145
v 4.133986 -0.835660 -2.684248
v 4.135234 -0.831420 -2.683634
v 4.135986 -0.826827 -2.683881
v 4.137774 -0.823729 -2.682099
v 4.139707 -0.819401 -2.680466
v 4.140172 -0.817120 -2.680450
v 4.139443 -0.816449 -2.681764
v 4.137760 -0.816051 -2.684447
v 4.129155 -0.824723 -2.694918
v 4.124620 -0.825110 -2.701704
v 4.119412 -0.826711 -2.709148
v 4.069842 -0.845101 -2.778441
v 4.069180 -0.847248 -2.778763
v 4.059540 -0.863773 -2.787580
v 4.056114 -0.870740 -2.790242
v 4.055566 -0.874406 -2.789857
v 4.051138 -0.888827 -2.791578
v 4.049637 -0.895590 -2.791565
v 4.049357 -0.900721 -2.790333
v 4.048628 -0.904839 -2.790063
v 4.046867 -0.910719 -2.790701
v 4.046812 -0.913195 -2.789994
v 4.042891 -0.921818 -2.792834
v 4.040555 -0.929074 -2.793852
v 4.039236 -0.936151 -2.793483
v 4.038835 -0.943035 -2.791693
v 4.039504 -0.953081 -2.787267
v 4.039233 -0.957122 -2.786254
v 4.038122 -0.960805 -2.786562
v 4.035974 -0.964802 -2.788235
v 4.032772 -0.969091 -2.791308
v 4.030082 -0.974286 -2.793340
v 4.027802 -0.980386 -2.794474
v 4.026291 -0.983153 -2.795666
v 4.024965 -0.983080 -2.797579
v 4.022397 -0.984009 -2.800911
v 4.019825 -0.987571 -2.803338
v 4.016575 -0.993558 -2.805892
v 4.014688 -1.000420 -2.806203
v 4.013864 -1.003375 -2.806355
v 4.020435 -1.003167 -2.797076
v 4.028463 -1.004309 -2.785259
v 4.030027 -1.007008 -2.782100
v 4.029642 -1.012979 -2.780583
v 4.030062 -1.025289 -2.775403
v 4.030679 -1.029808 -2.772833
v 4.032268 -1.038083 -2.767476
v 4.034468 -1.049732 -2.759983
v 4.034678 -1.053531 -2.758261
v 4.033831 -1.057441 -2.758003
v 4.028526 -1.073244 -2.759634
v 4.022935 -1.089854 -2.761371
v 4.020882 -1.096321 -2.761710
v 4.014798 -1.118325 -2.761498
v 4.010777 -1.133874 -2.760952
v 4.008870 -1.143031 -2.759975
v 4.005666 -1.155252 -2.759609
v 4.002075 -1.161859 -2.762055
v 3.998842 -1.166001 -2.764986
v 3.989127 -1.168457 -2.777784
v 3.985775 -1.171484 -2.781245
v 3.978977 -1.179246 -2.787565
v 3.963222 -1.200721 -2.800707
v 3.954187 -1.214429 -2.807641
v 3.946271 -1.226495 -2.813692
v 3.931839 -1.248902 -2.824389
v 3.920507 -1.266254 -2.832513
v 3.916055 -1.282532 -2.831342
v 3.914297 -1.284898 -2.832753
v 3.914256 -1.296942 -2.827259
v 3.911753 -1.316415 -2.821842
v 3.972394 -1.319051 -2.734343
v 3.974570 -1.305849 -2.737333
v 3.976752 -1.295316 -2.739085
v 3.978806 -1.287436 -2.739796
v 3.983650 -1.271272 -2.740355
v 3.986998 -1.260086 -2.740749
v 3.996502 -1.245485 -2.733958
v 3.998893 -1.244133 -2.731179
v 4.004593 -1.245438 -2.722467
v 3.907625 -1.329316 -2.821476
v 3.903112 -1.351260 -2.817136
v 3.899139 -1.374635 -2.811326
v 3.898981 -1.382988 -2.807454
v 3.900512 -1.386131 -2.803734
v 3.905215 -1.388643 -2.795811
v 3.916141 -1.391515 -2.778856
v 3.917266 -1.394252 -2.775913
v 3.917660 -1.398761 -2.773030
v 3.917386 -1.409491 -2.767837
v 3.917507 -1.420318 -2.762033
v 3.917238 -1.424945 -2.760010
v 3.916428 -1.426047 -2.760590
v 3.912634 -1.431558 -2.763122
v 3.906701 -1.445649 -2.764234
v 3.900369 -1.469821 -2.760672
v 3.911578 -1.468282 -2.745524
v 3.913833 -1.463131 -2.744995
v 3.912303 -1.459511 -2.749054
v 3.912976 -1.453240 -2.751358
v 3.915834 -1.447837 -2.750102
v 3.919237 -1.446623 -2.745892
v 3.924378 -1.441684 -2.741144
v 3.936751 -1.425540 -2.731937
v 3.946566 -1.414219 -2.723859
v 3.952940 -1.404834 -2.719671
v 3.958052 -1.401114 -2.714333
v 3.959798 -1.398808 -2.713048
v 3.900770 -1.471613 -2.759128
v 3.903928 -1.472654 -2.754062
v 3.907675 -1.472342 -2.748901
v 3.909542 -1.470981 -2.746993
v 4.096997 -0.935315 -2.708119
v 4.090363 -0.918800 -2.723713
v 4.090721 -0.915591 -2.724235
v 4.093241 -0.910051 -2.722241
v 4.097925 -0.901684 -2.717893
v 4.099192 -0.898267 -2.717100
v 4.101150 -0.888242 -2.717455
v 4.102946 -0.885233 -2.715722
v 4.108997 -0.878475 -2.708757
v 4.113958 -0.871345 -2.703576
v 4.113850 -0.864141 -2.706137
v 4.091659 -1.013013 -2.688147
v 4.093542 -1.006194 -2.687752
v 4.095817 -1.003312 -2.685332
v 4.097527 -0.999670 -2.684048
v 4.098899 -0.989640 -2.685593
v 4.097419 -0.988446 -2.688278
v 4.095981 -0.975210 -2.695262
v 4.095695 -0.967391 -2.698529
v 4.098639 -0.961173 -2.696300
v 4.102271 -0.952264 -2.693997
v 4.104173 -0.946609 -2.693149
v 4.105019 -0.944760 -2.692532
v 4.104108 -0.941250 -2.695190
v 4.102220 -0.937863 -2.699292
v 4.081203 -1.086875 -2.675129
v 4.075010 -1.081187 -2.686789
v 4.073936 -1.078675 -2.689407
v 4.072353 -1.073808 -2.693726
v 4.071843 -1.069064 -2.696365
v 4.073068 -1.067646 -2.695055
v 4.078781 -1.067507 -2.686412
v 4.080516 -1.065682 -2.684487
v 4.087618 -1.048997 -2.680217
v 4.088795 -1.029848 -2.685934
v 4.089956 -1.022332 -2.687114
v 4.084678 -1.163467 -2.637625
v 4.084103 -1.154955 -2.642093
v 4.083927 -1.146490 -2.645935
v 4.083116 -1.143733 -2.648333
v 4.083746 -1.138100 -2.649751
v 4.085268 -1.131775 -2.650105
v 4.085956 -1.123700 -2.652466
v 4.086987 -1.116062 -2.654119
v 4.088948 -1.113097 -2.652386
v 4.091098 -1.107973 -2.651276
v 4.091419 -1.099219 -2.654481
v 4.090418 -1.093180 -2.658555
v 4.045023 -1.233959 -2.666216
v 4.056173 -1.213084 -2.658686
v 4.058648 -1.210576 -2.656054
v 4.062402 -1.204435 -2.653116
v 4.064147 -1.205999 -2.649752
v 4.066084 -1.210303 -2.644856
v 4.067379 -1.211464 -2.642361
v 4.068227 -1.211334 -2.641127
v 4.068930 -1.210250 -2.640548
v 4.070154 -1.207498 -2.639930
v 4.073988 -1.199624 -2.637655
v 4.077634 -1.194013 -2.634644
v 4.080702 -1.191827 -2.630961
v 4.083386 -1.189248 -2.628042
v 4.082960 -1.186747 -2.629822
v 4.082339 -1.184938 -2.631586
v 4.083153 -1.183089 -2.631183
v 4.084909 -1.180393 -2.629729
v 4.090390 -1.176492 -2.623150
v 4.090822 -1.174807 -2.623255
v 4.087403 -1.171401 -2.630000
v 4.085686 -1.167365 -2.634441
vn 0.8245 -0.1639 -0.5415
vn 0.8245 -0.1642 -0.5415
vn 0.8222 -0.1796 -0.5401
vn 0.8148 -0.1719 -0.5537
vn 0.8198 -0.1950 -0.5384
vn 0.8197 -0.1950 -0.5385
vn 0.8171 -0.2103 -0.5367
vn 0.8171 -0.2105 -0.5367
vn 0.8072 -0.2181 -0.5485
vn 0.8142 -0.2258 -0.5348
vn 0.8042 -0.2334 -0.5465
vn 0.8112 -0.2409 -0.5328
vn 0.8111 -0.2411 -0.5328
vn 0.8112 -0.2410 -0.5328
vn 0.8079 -0.2560 -0.5307
vn 0.8079 -0.2562 -0.5307
vn 0.8070 -0.1641 -0.5672
vn 0.8197 -0.1642 -0.5487
vn 0.8048 -0.1797 -0.5657
vn 0.8048 -0.1797 -0.5656
vn 0.8124 -0.1874 -0.5521
vn 0.8024 -0.1950 -0.5640
vn 0.8024 -0.1950 -0.5639
vn 0.7998 -0.2105 -0.5621
vn 0.8099 -0.2028 -0.5504
vn 0.7970 -0.2258 -0.5601
vn 0.7970 -0.2257 -0.5601
vn 0.7940 -0.2410 -0.5580
vn 0.7942 -0.2402 -0.5582
vn 0.8011 -0.2485 -0.5445
vn 0.7918 -0.2517 -0.5565
vn 0.7908 -0.2563 -0.5558
vn 0.7908 -0.2562 -0.5558
vn 0.7874 -0.2714 -0.5534
vn 0.7882 -0.2678 -0.5540
vn 0.7838 -0.2865 -0.5509
vn 0.7839 -0.2865 -0.5509
vn 0.7801 -0.3014 -0.5482
vn 0.7801 -0.3015 -0.5482
vn 0.7829 -0.2912 -0.5498
vn 0.8232 -0.1727 -0.5408
vn 0.8245 -0.1641 -0.5416
vn 0.8245 -0.1642 -0.5416
vn 0.8245 -0.1640 -0.5416
vn 0.8244 -0.1643 -0.5416
vn 0.8244 -0.1642 -0.5416
vn 0.8245 -0.1639 -0.5416
vn 0.8245 -0.1641 -0.5415
vn 0.8222 -0.1797 -0.5401
vn 0.8222 -0.1795 -0.5401
vn 0.8200 -0.1936 -0.5386
vn 0.8224 -0.1798 -0.5398
vn 0.8221 -0.1796 -0.5402
vn 0.8185 -0.2024 -0.5376
vn 0.8198 -0.1948 -0.5385
vn 0.8197 -0.1952 -0.5385
vn 0.8195 -0.1953 -0.5387
vn 0.8197 -0.1951 -0.5386
vn 0.8197 -0.1951 -0.5385
vn 0.8171 -0.2104 -0.5367
vn 0.8145 -0.2241 -0.5350
vn 0.8170 -0.2104 -0.5368
vn 0.8170 -0.2105 -0.5368
vn 0.8170 -0.2105 -0.5367
vn 0.8117 -0.2370 -0.5338
vn 0.8142 -0.2257 -0.5348
vn 0.8142 -0.2257 -0.5349
vn 0.8141 -0.2256 -0.5351
vn 0.8144 -0.2254 -0.5347
vn 0.8102 -0.2454 -0.5322
vn 0.8112 -0.2411 -0.5328
vn 0.8100 -0.2416 -0.5344
vn 0.8112 -0.2410 -0.5327
vn 0.8113 -0.2405 -0.5328
vn 0.8112 -0.2408 -0.5328
vn 0.8109 -0.2410 -0.5332
vn 0.8111 -0.2412 -0.5328
vn 0.8111 -0.2411 -0.5329
vn 0.8108 -0.2415 -0.5331
vn 0.8078 -0.2566 -0.5306
vn 0.8079 -0.2563 -0.5307
vn 0.8080 -0.2563 -0.5304
vn 0.8007 -0.2561 -0.5416
vn 0.8079 -0.2561 -0.5307
vn 0.8055 -0.1752 -0.5661
vn 0.8070 -0.1640 -0.5672
vn 0.8038 -0.1865 -0.5649
vn 0.8048 -0.1796 -0.5656
vn 0.8052 -0.1797 -0.5651
vn 0.8050 -0.1795 -0.5655
vn 0.8049 -0.1795 -0.5656
vn 0.8016 -0.2009 -0.5631
vn 0.8047 -0.1932 -0.5613
vn 0.8025 -0.1950 -0.5640
vn 0.8025 -0.1948 -0.5640
vn 0.8025 -0.1949 -0.5640
vn 0.8024 -0.1951 -0.5639
vn 0.8024 -0.1951 -0.5640
vn 0.8025 -0.1945 -0.5641
vn 0.8024 -0.1957 -0.5638
vn 0.8021 -0.1951 -0.5644
vn 0.7983 -0.2189 -0.5611
vn 0.7999 -0.2102 -0.5622
vn 0.7998 -0.2104 -0.5621
vn 0.7997 -0.2103 -0.5623
vn 0.7971 -0.2252 -0.5602
vn 0.7940 -0.2409 -0.5580
vn 0.7940 -0.2412 -0.5580
vn 0.7890 -0.2645 -0.5545
vn 0.7908 -0.2562 -0.5559
vn 0.7908 -0.2561 -0.5558
vn 0.7907 -0.2563 -0.5559
vn 0.7907 -0.2561 -0.5560
vn 0.7908 -0.2563 -0.5557
vn 0.7865 -0.2755 -0.5528
vn 0.7863 -0.2763 -0.5526
vn 0.7874 -0.2713 -0.5534
vn 0.7875 -0.2712 -0.5534
vn 0.7828 -0.2906 -0.5502
vn 0.7839 -0.2870 -0.5505
vn 0.7839 -0.2864 -0.5509
vn 0.7839 -0.2865 -0.5508
vn 0.7840 -0.2862 -0.5508
vn 0.7838 -0.2865 -0.5510
vn 0.7804 -0.3004 -0.5483
vn 0.7801 -0.3016 -0.5482
usemtl None
s 1
f 83//12 82//13 81//13
f 192//14 191//14 18//15
f 206//16 205//16 201//17
f 218//18 217//19 21//20
f 228//21 22//22 229//21
f 247//23 246//24 241//25
f 53//26 50//27 49//27
f 88//28 35//29 18//15
f 96//30 95//31 19//32
f 118//33 109//33 108//34
f 125//35 124//35 20//36
f 22//22 133//37 132//38
f 138//39 30//40 23//41
f 36//42 154//43 153//44
f 163//45 158//45 42//46
f 180//47 168//48 167//47
f 186//49 185//50 39//51
f 33//52 18//15 60//53
f 18//15 35//29 61//53
f 35//29 67//53 63//54
f 67//53 66//55 65//55
f 63//54 67//53 64//54
f 65//55 64//54 67//53
f 68//56 33//52 59//53
f 18//15 61//53 60//53
f 71//53 70//53 54//54
f 70//53 69//53 54//54
f 54//54 69//53 55//57
f 69//53 68//56 55//57
f 35//29 63//54 62//55
f 72//54 71//53 87//54
f 35//29 62//55 61//53
f 33//52 60//53 59//53
f 59//53 58//53 57//53
f 68//56 59//53 57//53
f 56//53 68//56 57//53
f 68//56 56//53 55//57
f 73//54 72//54 86//54
f 76//54 75//57 74//53
f 71//53 54//54 87//54
f 77//58 76//54 78//58
f 76//54 74//53 78//58
f 74//53 73//54 85//57
f 72//54 87//54 86//54
f 85//57 84//59 79//53
f 84//59 83//12 81//13
f 79//53 84//59 80//13
f 86//54 85//57 73//54
f 78//58 74//53 79//53
f 81//13 80//13 84//59
f 74//53 85//57 79//53
f 19//32 18//15 191//14
f 18//15 33//52 196//14
f 195//14 18//15 196//14
f 199//60 198//14 197//60
f 18//15 195//14 192//14
f 33//52 199//60 197//60
f 189//61 41//62 19//32
f 190//60 189//61 19//32
f 197//60 196//14 33//52
f 195//14 194//63 193//64
f 191//14 190//60 19//32
f 195//14 193//64 192//14
f 27//65 20//36 200//66
f 20//36 19//32 207//17
f 200//66 20//36 201//17
f 19//32 41//62 207//17
f 41//62 213//16 209//16
f 207//17 41//62 208//17
f 213//16 212//17 210//67
f 212//17 211//68 210//67
f 210//67 209//16 213//16
f 209//16 208//17 41//62
f 201//17 20//36 206//16
f 203//69 202//70 205//16
f 202//70 201//17 205//16
f 206//16 20//36 207//17
f 205//16 204//17 203//69
f 21//20 20//36 218//18
f 20//36 27//65 224//71
f 20//36 224//71 223//71
f 214//19 32//72 21//20
f 215//19 214//19 21//20
f 20//36 223//71 219//18
f 223//71 222//19 219//18
f 222//19 221//73 219//18
f 221//73 220//74 219//18
f 216//75 215//19 21//20
f 217//19 216//75 21//20
f 20//36 219//18 218//18
f 40//76 22//22 225//77
f 22//22 21//20 231//21
f 225//77 22//22 226//77
f 21//20 32//72 232//21
f 32//72 236//77 235//77
f 232//21 32//72 235//77
f 235//77 234//78 233//77
f 232//21 235//77 233//77
f 231//21 230//79 229//21
f 232//21 231//21 21//20
f 231//21 229//21 22//22
f 228//21 227//80 226//77
f 228//21 226//77 22//22
f 26//81 23//41 237//82
f 23//41 22//22 237//82
f 22//22 40//76 240//25
f 40//76 258//83 253//25
f 240//25 40//76 248//25
f 257//84 256//85 255//86
f 258//83 257//84 254//25
f 240//25 239//87 238//25
f 238//25 237//82 22//22
f 258//83 254//25 253//25
f 257//84 255//86 254//25
f 240//25 238//25 22//22
f 243//23 242//25 245//88
f 242//25 241//25 246//24
f 245//88 242//25 246//24
f 241//25 240//25 247//23
f 40//76 252//25 248//25
f 40//76 253//25 252//25
f 252//25 251//25 249//24
f 251//25 250//89 249//24
f 244//90 243//23 245//88
f 252//25 249//24 248//25
f 240//25 248//25 247//23
f 23//41 26//81 48//27
f 26//81 53//26 49//27
f 23//41 48//27 46//91
f 53//26 52//92 50//27
f 52//92 51//93 50//27
f 34//94 23//41 46//91
f 48//27 47//95 46//91
f 48//27 26//81 49//27
f 18//15 45//96 89//97
f 89//97 88//28 18//15
f 19//32 31//98 100//99
f 31//98 101//100 100//99
f 100//99 99//99 19//32
f 98//99 97//101 96//30
f 99//99 98//99 19//32
f 18//15 19//32 95//31
f 90//99 45//96 18//15
f 92//99 91//102 90//99
f 94//99 93//31 95//31
f 93//31 92//99 18//15
f 95//31 93//31 18//15
f 92//99 90//99 18//15
f 19//32 98//99 96//30
f 20//36 37//103 119//34
f 37//103 120//104 119//34
f 31//98 19//32 102//33
f 19//32 20//36 105//33
f 103//33 19//32 104//105
f 103//33 102//33 19//32
f 104//105 19//32 105//33
f 20//36 119//34 106//33
f 119//34 118//33 108//34
f 106//33 119//34 108//34
f 117//33 116//106 115//107
f 118//33 117//33 110//108
f 117//33 115//107 114//109
f 113//33 117//33 114//109
f 113//33 112//110 111//111
f 113//33 111//111 110//108
f 117//33 113//33 110//108
f 118//33 110//108 109//33
f 106//33 105//33 20//36
f 108//34 107//112 106//33
f 21//20 44//113 128//114
f 21//20 128//114 127//35
f 121//35 37//103 20//36
f 123//115 122//35 20//36
f 122//35 121//35 20//36
f 124//35 123//115 20//36
f 20//36 21//20 125//35
f 21//20 127//35 126//116
f 21//20 126//116 125//35
f 22//22 30//40 135//117
f 22//22 135//117 134//38
f 44//113 21//20 129//37
f 21//20 22//22 130//38
f 130//38 129//37 21//20
f 132//38 131//38 22//22
f 131//38 130//38 22//22
f 22//22 134//38 133//37
f 23//41 36//42 141//39
f 141//39 140//39 23//41
f 140//39 139//39 23//41
f 139//39 138//39 23//41
f 138//39 137//118 30//40
f 137//118 136//119 30//40
f 30//40 22//22 23//41
f 42//46 43//120 148//121
f 43//120 147//122 148//121
f 146//44 145//123 144//43
f 147//122 146//44 150//43
f 148//121 147//122 149//44
f 149//44 147//122 150//43
f 146//44 144//43 142//44
f 144//43 143//44 142//44
f 142//44 36//42 151//44
f 146//44 142//44 151//44
f 23//41 34//94 156//124
f 23//41 156//124 155//125
f 146//44 151//44 150//43
f 36//42 23//41 155//125
f 36//42 155//125 154//43
f 153//44 152//44 36//42
f 152//44 151//44 36//42
f 28//126 29//127 164//128
f 163//45 162//45 158//45
f 162//45 161//45 159//45
f 28//126 164//128 42//46
f 164//128 163//45 42//46
f 24//45 25//45 28//126
f 157//45 43//120 42//46
f 42//46 24//45 28//126
f 162//45 159//45 158//45
f 161//45 160//129 159//45
f 158//45 157//45 42//46
f 38//130 39//51 175//47
f 39//51 172//131 175//47
f 172//131 171//47 176//47
f 171//47 170//47 177//47
f 176//47 171//47 177//47
f 170//47 169//132 177//47
f 169//132 168//48 179//47
f 177//47 169//132 178//48
f 167//47 166//47 180//47
f 166//47 165//47 181//47
f 181//47 165//47 182//47
f 174//133 173//47 175//47
f 173//47 38//130 175//47
f 176//47 175//47 172//131
f 179//47 178//48 169//132
f 180//47 179//47 168//48
f 181//47 180//47 166//47
f 184//134 183//135 28//126
f 183//135 182//47 28//126
f 29//127 28//126 182//47
f 165//47 29//127 182//47
f 39//51 38//130 186//49
f 38//130 188//136 187//137
f 186//49 38//130 187//137
