# Blender v2.81 (sub 16) OBJ File: ''
# www.blender.org
mtllib Maldives.mtl
o 0_Maldives_sphere.001
v 1.426415 0.281637 -4.783329
v 1.427492 0.283123 -4.782911
v 1.427223 0.285295 -4.782869
v 1.425808 0.286810 -4.783217
v 1.423633 0.286905 -4.783881
v 1.422397 0.285551 -4.784339
v 1.423083 0.283447 -4.784249
v 1.424635 0.281798 -4.783866
vn 0.2933 0.0550 -0.9544
vn 0.2936 0.0553 -0.9543
vn 0.2936 0.0550 -0.9543
vn 0.2932 0.0551 -0.9544
vn 0.2933 0.0551 -0.9544
vn 0.2936 0.0549 -0.9543
vn 0.2937 0.0549 -0.9543
usemtl None
s 1
f 2//1 1//2 8//3
f 6//4 5//5 7//6
f 5//5 4//7 7//6
f 4//7 3//7 7//6
f 3//7 2//1 8//3
f 7//6 3//7 8//3
o 1_Maldives_sphere.001
v 1.416665 0.362252 -4.780890
v 1.418011 0.362581 -4.780451
v 1.418435 0.363607 -4.780245
v 1.417742 0.365123 -4.780346
v 1.416589 0.367066 -4.780557
v 1.415739 0.369170 -4.780663
v 1.414602 0.370308 -4.780928
v 1.413729 0.369926 -4.781225
v 1.413829 0.368745 -4.781281
v 1.414295 0.367123 -4.781259
v 1.414578 0.365015 -4.781327
v 1.415179 0.363071 -4.781287
vn 0.2933 0.0703 -0.9534
vn 0.2934 0.0707 -0.9534
vn 0.2930 0.0707 -0.9535
vn 0.2926 0.0702 -0.9536
vn 0.2933 0.0704 -0.9534
vn 0.2931 0.0706 -0.9534
vn 0.2934 0.0706 -0.9534
vn 0.2934 0.0705 -0.9534
vn 0.2935 0.0707 -0.9533
vn 0.2932 0.0706 -0.9534
usemtl None
s 1
f 10//8 9//9 11//10
f 16//11 15//12 17//13
f 15//12 14//14 17//13
f 13//15 12//9 19//14
f 12//9 11//10 9//9
f 20//16 12//9 9//9
f 14//14 13//15 18//17
f 18//17 17//13 14//14
f 20//16 19//14 12//9
f 19//14 18//17 13//15
