# Blender v2.81 (sub 16) OBJ File: ''
# www.blender.org
mtllib Marshall Islands.mtl
o 0_Marshall_Islands_sphere.001
v -4.892334 0.505201 -0.896550
v -4.891947 0.505380 -0.898663
v -4.892074 0.507335 -0.896774
v -4.892022 0.510059 -0.895448
v -4.891600 0.517807 -0.893251
v -4.892056 0.520582 -0.888991
v -4.892243 0.523795 -0.886003
v -4.892456 0.520460 -0.886771
v -4.892007 0.516948 -0.891434
v -4.892365 0.507825 -0.894810
vn -0.9799 0.1020 -0.1711
vn -0.9800 0.1017 -0.1710
vn -0.9799 0.1021 -0.1711
vn -0.9800 0.1018 -0.1709
vn -0.9800 0.1017 -0.1709
vn -0.9799 0.1021 -0.1710
vn -0.9799 0.1020 -0.1710
vn -0.9799 0.1023 -0.1710
usemtl None
s 1
f 5//1 4//2 9//3
f 3//4 2//5 1//4
f 1//4 10//4 3//4
f 10//4 9//3 4//2
f 3//4 10//4 4//2
f 9//3 8//6 6//7
f 8//6 7//8 6//7
f 9//3 6//7 5//1
o 1_Marshall_Islands_sphere.001
v -4.908752 0.611570 -0.723568
v -4.909636 0.611711 -0.717246
v -4.911029 0.606934 -0.711468
v -4.910673 0.607232 -0.713717
v -4.909978 0.609278 -0.716877
v -4.909463 0.610137 -0.719776
v -4.908942 0.609889 -0.723649
v -4.908587 0.610680 -0.725481
v -4.908076 0.613454 -0.726738
vn -0.9832 0.1173 -0.1400
vn -0.9832 0.1173 -0.1401
vn -0.9832 0.1172 -0.1400
vn -0.9832 0.1174 -0.1399
vn -0.9832 0.1175 -0.1398
vn -0.9832 0.1173 -0.1399
usemtl None
s 1
f 16//9 15//10 12//11
f 11//12 19//13 18//13
f 18//13 17//14 11//12
f 17//14 16//9 11//12
f 15//10 14//14 12//11
f 14//14 13//14 12//11
f 11//12 16//9 12//11
o 2_Marshall_Islands_sphere.001
v -4.903402 0.616840 -0.756732
v -4.905198 0.618895 -0.742387
v -4.905026 0.617565 -0.744712
v -4.904411 0.616324 -0.750080
v -4.904034 0.615247 -0.753635
v -4.903692 0.615251 -0.756027
v -4.903238 0.615675 -0.758863
v -4.901571 0.618789 -0.767963
v -4.900365 0.622854 -0.773017
v -4.900386 0.624210 -0.771731
v -4.901357 0.621295 -0.767360
vn -0.9832 0.1175 -0.1399
vn -0.9832 0.1175 -0.1400
vn -0.9831 0.1175 -0.1400
vn -0.9832 0.1172 -0.1400
vn -0.9831 0.1179 -0.1400
vn -0.9831 0.1176 -0.1399
vn -0.9830 0.1184 -0.1400
vn -0.9831 0.1180 -0.1400
usemtl None
s 1
f 20//15 30//16 26//15
f 30//16 29//17 28//17
f 28//17 27//16 30//16
f 27//16 26//15 30//16
f 26//15 25//18 20//15
f 25//18 24//19 20//15
f 23//20 22//21 21//22
f 24//19 23//20 20//15
f 23//20 21//22 20//15
o 3_Marshall_Islands_sphere.001
v -4.864879 0.634707 -0.961919
v -4.863088 0.635490 -0.970052
v -4.862097 0.637139 -0.973743
v -4.862006 0.638383 -0.973361
v -4.863501 0.637201 -0.966926
v -4.864965 0.636041 -0.960621
vn -0.9705 0.1333 -0.2010
vn -0.9705 0.1330 -0.2010
vn -0.9705 0.1331 -0.2009
vn -0.9705 0.1332 -0.2010
usemtl None
s 1
f 32//23 31//24 35//25
f 36//24 35//25 31//24
f 35//25 34//26 32//23
f 34//26 33//24 32//23
o 4_Marshall_Islands_sphere.001
v -4.776695 0.966452 -1.114700
v -4.776190 0.967045 -1.116299
v -4.776258 0.968160 -1.115072
v -4.776797 0.968369 -1.112643
v -4.777083 0.968060 -1.111715
v -4.777102 0.967034 -1.112513
vn -0.9538 0.1944 -0.2289
vn -0.9537 0.1949 -0.2290
vn -0.9537 0.1947 -0.2290
vn -0.9537 0.1946 -0.2292
vn -0.9539 0.1943 -0.2288
vn -0.9539 0.1939 -0.2290
usemtl None
s 1
f 37//27 42//28 40//29
f 41//30 40//29 42//28
f 40//29 39//31 37//27
f 39//31 38//32 37//27
