# Blender v2.81 (sub 16) OBJ File: ''
# www.blender.org
mtllib Monaco.mtl
o 0_Monaco_sphere.001
v 3.582842 3.456213 -0.463910
v 3.581526 3.457581 -0.463893
v 3.580672 3.458344 -0.464729
v 3.580198 3.458664 -0.465898
v 3.580554 3.458076 -0.467373
v 3.581199 3.457377 -0.467573
vn 0.7164 0.6902 -0.1019
vn 0.7163 0.6903 -0.1019
vn 0.7165 0.6901 -0.1021
vn 0.7167 0.6898 -0.1023
vn 0.7163 0.6903 -0.1020
vn 0.7165 0.6901 -0.1019
usemtl None
s 1
f 2//1 1//2 6//3
f 6//3 5//4 4//5
f 4//5 3//6 6//3
f 3//6 2//1 6//3
