# Blender v2.81 (sub 16) OBJ File: ''
# www.blender.org
mtllib Montenegro.mtl
o 0_Montenegro_sphere.001
v 3.452834 3.422734 -1.166098
v 3.434121 3.422734 -1.220754
v 3.500741 3.365062 -1.190739
v 3.488524 3.365062 -1.226419
v 3.434596 3.416721 -1.236525
v 3.469609 3.376464 -1.249130
v 3.492309 3.361585 -1.224977
v 3.497538 3.356592 -1.223508
v 3.498870 3.353775 -1.227407
v 3.501511 3.349887 -1.230443
v 3.504220 3.346920 -1.230735
v 3.505458 3.345228 -1.231795
v 3.510106 3.340113 -1.232362
v 3.512896 3.336891 -1.233123
v 3.511864 3.341994 -1.222027
v 3.507057 3.349269 -1.215953
v 3.501416 3.361569 -1.198422
v 3.434751 3.420938 -1.224042
v 3.434087 3.420365 -1.227615
v 3.434787 3.416945 -1.235330
v 3.469957 3.376341 -1.248467
v 3.469495 3.377680 -1.245993
v 3.468291 3.379467 -1.244409
v 3.463702 3.384673 -1.242959
v 3.462425 3.386448 -1.241625
v 3.462200 3.387291 -1.239874
v 3.464320 3.386025 -1.237297
v 3.469013 3.381989 -1.235106
v 3.474266 3.377233 -1.233334
v 3.480192 3.372325 -1.230029
v 3.485701 3.367580 -1.227481
v 3.499723 3.369856 -1.180027
v 3.498880 3.371149 -1.178801
v 3.497227 3.372701 -1.179204
v 3.495847 3.373975 -1.179599
v 3.496862 3.374106 -1.176258
v 3.498556 3.373083 -1.174231
v 3.499026 3.373401 -1.171951
v 3.497185 3.376475 -1.168554
v 3.495632 3.379163 -1.165421
v 3.493583 3.381539 -1.164626
v 3.492946 3.381847 -1.165609
v 3.491601 3.382761 -1.166930
v 3.488141 3.385405 -1.169492
v 3.486739 3.386749 -1.169751
v 3.484941 3.388858 -1.168982
v 3.480766 3.395455 -1.162354
v 3.477222 3.399754 -1.160438
v 3.470475 3.407717 -1.157424
v 3.468470 3.409618 -1.157854
v 3.467104 3.410510 -1.159299
v 3.463447 3.411490 -1.167184
v 3.458022 3.417724 -1.165242
v 3.456253 3.419556 -1.165181
v 3.453422 3.422156 -1.166030
v 3.423828 3.442797 -1.191741
v 3.425786 3.440513 -1.192746
v 3.427325 3.438298 -1.194775
v 3.427679 3.436086 -1.200254
v 3.429343 3.431585 -1.208650
v 3.433854 3.423429 -1.219490
v 3.451000 3.424464 -1.166360
v 3.446435 3.427803 -1.169865
v 3.440804 3.431725 -1.174762
v 3.439772 3.431853 -1.177397
v 3.439449 3.431317 -1.179921
v 3.441638 3.427889 -1.183622
v 3.440235 3.428347 -1.186370
v 3.436351 3.432430 -1.185693
v 3.432803 3.437795 -1.180254
v 3.430401 3.441223 -1.177178
v 3.428449 3.443147 -1.177212
v 3.427112 3.444099 -1.178315
v 3.426512 3.443528 -1.181750
v 3.426319 3.442572 -1.185129
v 3.425082 3.443198 -1.186898
v 3.423573 3.443702 -1.189822
v 3.423075 3.443571 -1.191660
v 3.433851 3.416071 -1.240196
v 3.432787 3.415068 -1.245636
v 3.434096 3.407745 -1.261320
v 3.433686 3.405597 -1.268022
v 3.434421 3.402884 -1.273172
v 3.436481 3.400306 -1.274457
v 3.437951 3.398693 -1.274788
v 3.442482 3.396845 -1.267630
v 3.445420 3.394045 -1.267175
v 3.446518 3.394410 -1.263314
v 3.448217 3.394429 -1.258768
v 3.450320 3.392656 -1.257840
v 3.452096 3.389672 -1.260944
v 3.454587 3.386182 -1.263477
v 3.459127 3.381444 -1.263851
v 3.459828 3.380803 -1.263669
v 3.460108 3.380959 -1.262521
v 3.464897 3.378240 -1.256955
v 3.467806 3.376967 -1.252587
vn 0.7048 0.6671 -0.2413
vn 0.6948 0.6787 -0.2378
vn 0.6913 0.6789 -0.2474
vn 0.6846 0.6902 -0.2344
vn 0.6870 0.6786 -0.2596
vn 0.6869 0.6787 -0.2596
vn 0.6870 0.6787 -0.2595
vn 0.6982 0.6748 -0.2390
vn 0.6966 0.6766 -0.2385
vn 0.7048 0.6671 -0.2412
vn 0.7047 0.6671 -0.2413
vn 0.6948 0.6787 -0.2379
vn 0.6948 0.6788 -0.2379
vn 0.6947 0.6788 -0.2379
vn 0.6948 0.6785 -0.2382
vn 0.6947 0.6788 -0.2378
vn 0.6949 0.6787 -0.2375
vn 0.6948 0.6787 -0.2380
vn 0.6947 0.6787 -0.2380
vn 0.6925 0.6813 -0.2371
vn 0.6949 0.6789 -0.2370
vn 0.6948 0.6788 -0.2376
vn 0.6907 0.6833 -0.2366
vn 0.6947 0.6787 -0.2379
vn 0.6950 0.6785 -0.2379
vn 0.6914 0.6788 -0.2471
vn 0.6948 0.6787 -0.2377
vn 0.6942 0.6793 -0.2379
vn 0.6948 0.6786 -0.2380
vn 0.6850 0.6898 -0.2345
vn 0.6845 0.6903 -0.2344
vn 0.6846 0.6901 -0.2345
vn 0.6846 0.6901 -0.2344
vn 0.6845 0.6902 -0.2344
vn 0.6846 0.6901 -0.2346
vn 0.6847 0.6900 -0.2345
vn 0.6847 0.6901 -0.2344
vn 0.6846 0.6902 -0.2343
vn 0.6869 0.6788 -0.2596
vn 0.6869 0.6788 -0.2595
vn 0.6870 0.6787 -0.2596
vn 0.6868 0.6789 -0.2593
vn 0.6870 0.6788 -0.2594
vn 0.6869 0.6787 -0.2595
vn 0.6872 0.6785 -0.2597
usemtl None
s 1
f 9//1 8//1 16//1
f 24//2 23//2 6//3
f 58//4 57//4 75//4
f 84//5 83//6 86//7
f 4//8 3//9 17//1
f 16//1 15//1 11//10
f 15//1 14//11 13//11
f 4//8 17//1 7//1
f 17//1 16//1 8//1
f 7//1 17//1 8//1
f 15//1 13//11 12//10
f 11//10 15//1 12//10
f 11//10 10//11 16//1
f 10//11 9//1 16//1
f 3//9 4//8 31//12
f 30//12 29//13 46//13
f 29//13 28//2 46//13
f 30//12 46//13 45//14
f 3//9 31//12 30//12
f 33//15 32//12 34//16
f 32//12 3//9 35//12
f 35//12 34//16 32//12
f 38//2 37//17 36//12
f 39//12 38//2 36//12
f 35//12 3//9 30//12
f 39//12 36//12 43//12
f 36//12 35//12 44//14
f 41//2 40//12 42//18
f 40//12 39//12 43//12
f 42//18 40//12 43//12
f 36//12 44//14 43//12
f 35//12 30//12 45//14
f 35//12 45//14 44//14
f 28//2 27//12 52//2
f 27//12 26//18 18//19
f 48//12 47//12 52//2
f 47//12 46//13 52//2
f 46//13 28//2 52//2
f 49//2 48//12 52//2
f 52//2 27//12 2//20
f 51//2 50//12 49//2
f 54//21 53//22 55//14
f 53//22 52//2 55//14
f 52//2 51//2 49//2
f 2//20 27//12 18//19
f 2//20 1//23 55//14
f 20//24 19//25 18//19
f 2//20 55//14 52//2
f 6//3 5//26 24//2
f 5//26 20//24 26//18
f 24//2 5//26 25//27
f 20//24 18//19 26//18
f 26//18 25//27 5//26
f 21//28 6//3 22//29
f 23//2 22//29 6//3
f 1//23 2//20 67//4
f 2//20 61//30 68//31
f 67//4 2//20 68//31
f 61//30 60//4 68//31
f 60//4 59//4 68//31
f 59//4 58//4 69//4
f 68//31 59//4 69//4
f 62//32 1//23 63//33
f 64//4 63//33 67//4
f 67//4 63//33 1//23
f 66//34 65//4 67//4
f 65//4 64//4 67//4
f 56//35 78//36 77//4
f 77//4 76//37 57//4
f 76//37 75//4 57//4
f 77//4 57//4 56//35
f 75//4 74//4 70//4
f 74//4 73//33 72//38
f 71//4 74//4 72//38
f 71//4 70//4 74//4
f 70//4 69//4 75//4
f 75//4 69//4 58//4
f 5//26 6//3 90//39
f 6//3 97//6 90//39
f 97//6 96//6 90//39
f 96//6 95//40 91//41
f 90//39 96//6 91//41
f 95//40 94//42 93//43
f 93//43 92//7 95//40
f 92//7 91//41 95//40
f 80//41 79//44 89//39
f 79//44 5//26 90//39
f 89//39 79//44 90//39
f 83//6 82//6 86//7
f 82//6 81//6 86//7
f 81//6 80//41 89//39
f 88//6 87//40 86//7
f 89//39 88//6 81//6
f 86//7 81//6 88//6
f 85//45 84//5 86//7
