# Blender v2.81 (sub 16) OBJ File: ''
# www.blender.org
mtllib Nauru.mtl
o 0_Nauru_sphere.001
v -4.869801 -0.048058 -1.129764
v -4.869347 -0.047683 -1.131666
v -4.869169 -0.045697 -1.132476
v -4.869318 -0.043550 -1.131926
v -4.869843 -0.042697 -1.129768
v -4.870177 -0.043362 -1.128356
v -4.870219 -0.045076 -1.128121
vn -0.9723 -0.0079 -0.2335
vn -0.9723 -0.0080 -0.2335
vn -0.9723 -0.0080 -0.2336
vn -0.9723 -0.0082 -0.2336
vn -0.9723 -0.0081 -0.2335
vn -0.9723 -0.0089 -0.2337
usemtl None
s 1
f 1//1 7//1 3//2
f 7//1 6//3 5//4
f 5//4 4//5 7//1
f 4//5 3//2 7//1
f 3//2 2//6 1//1
