# Blender v2.81 (sub 16) OBJ File: ''
# www.blender.org
mtllib Nepal.mtl
o 0_Nepal_sphere.001
v 0.277461 2.339648 -4.410109
v 0.279734 2.269951 -4.446242
v 0.415849 2.339648 -4.399218
v 0.544343 2.477292 -4.308910
v 0.549152 2.408767 -4.346984
v 0.553827 2.339648 -4.383985
v 0.679420 2.477292 -4.289686
v 0.685424 2.408767 -4.327590
v 0.752444 2.408767 -4.315893
v 0.426484 2.408767 -4.360527
v 0.676209 2.512637 -4.269409
v 0.631736 2.339648 -4.372897
v 0.618306 2.339648 -4.374808
v 0.612733 2.339648 -4.375601
v 0.405741 2.269951 -4.436326
v 0.412787 2.399952 -4.366824
v 0.280808 2.235730 -4.463308
v 0.544227 2.478886 -4.307992
v 0.418110 2.293403 -4.423133
v 0.687902 2.379409 -4.343235
v 0.542075 2.477292 -4.309161
v 0.725228 2.477292 -4.281691
v 0.555834 2.308818 -4.399873
v 0.277377 2.342123 -4.408776
v 0.226980 2.339648 -4.412490
v 0.151029 2.269951 -4.452312
v 0.540339 2.475999 -4.310081
v 0.528657 2.470973 -4.314202
v 0.518016 2.470505 -4.315640
v 0.512300 2.466066 -4.318773
v 0.503815 2.457247 -4.324677
v 0.496802 2.447115 -4.331160
v 0.487792 2.437773 -4.337418
v 0.481141 2.438073 -4.337983
v 0.471914 2.441103 -4.337295
v 0.460666 2.445064 -4.336304
v 0.454272 2.443151 -4.338088
v 0.448407 2.440561 -4.340195
v 0.446685 2.435722 -4.343111
v 0.443587 2.426611 -4.348587
v 0.440093 2.417148 -4.354303
v 0.433938 2.413821 -4.356857
v 0.426714 2.408983 -4.360380
v 0.422756 2.405100 -4.362929
v 0.427118 2.296862 -4.420331
v 0.446152 2.302945 -4.415051
v 0.456570 2.307823 -4.411352
v 0.461792 2.305513 -4.411983
v 0.471731 2.303441 -4.411968
v 0.477235 2.298987 -4.413687
v 0.483459 2.300370 -4.412278
v 0.498234 2.305083 -4.408184
v 0.506233 2.305769 -4.406942
v 0.511189 2.304197 -4.407217
v 0.512466 2.301526 -4.408472
v 0.518788 2.298500 -4.409355
v 0.524483 2.300947 -4.407447
v 0.535810 2.304274 -4.404459
v 0.545789 2.306109 -4.402398
v 0.723904 2.479379 -4.280692
v 0.711700 2.492216 -4.275253
v 0.706537 2.496469 -4.273647
v 0.700957 2.499384 -4.272902
v 0.689956 2.508865 -4.269233
v 0.687715 2.510408 -4.268714
v 0.683064 2.512861 -4.268080
v 0.678657 2.513494 -4.268476
v 0.755260 2.410854 -4.314215
v 0.756396 2.413897 -4.312287
v 0.753013 2.423334 -4.307513
v 0.748785 2.431430 -4.303649
v 0.745681 2.433237 -4.303164
v 0.740405 2.438603 -4.301034
v 0.737793 2.448011 -4.296142
v 0.737113 2.456025 -4.291706
v 0.731392 2.467348 -4.286268
v 0.695440 2.383262 -4.339809
v 0.705958 2.388668 -4.335013
v 0.707722 2.389741 -4.334117
v 0.711590 2.392992 -4.331663
v 0.717592 2.397050 -4.328393
v 0.722706 2.398236 -4.326850
v 0.724571 2.395962 -4.327771
v 0.726049 2.393593 -4.328809
v 0.730567 2.394138 -4.327723
v 0.737268 2.398304 -4.324272
v 0.744275 2.402673 -4.320656
v 0.749702 2.406711 -4.317497
v 0.276715 2.341849 -4.408956
v 0.270808 2.342649 -4.408802
v 0.268293 2.344458 -4.407944
v 0.265087 2.353801 -4.403049
v 0.260434 2.355154 -4.402537
v 0.254602 2.354500 -4.403165
v 0.252425 2.352639 -4.404273
v 0.250170 2.348882 -4.406408
v 0.243145 2.347106 -4.407700
v 0.236175 2.344728 -4.409312
v 0.229615 2.341635 -4.411293
v 0.142697 2.335217 -4.418768
v 0.142440 2.331768 -4.420574
v 0.143074 2.327954 -4.422527
v 0.146407 2.319658 -4.426684
v 0.149412 2.313825 -4.429575
v 0.153008 2.301539 -4.435794
v 0.156480 2.280204 -4.446724
v 0.155862 2.276520 -4.448668
v 0.220453 2.334653 -4.415395
v 0.208974 2.333375 -4.416600
v 0.195602 2.333538 -4.417147
v 0.188577 2.333370 -4.417565
v 0.183403 2.332880 -4.418064
v 0.178757 2.333385 -4.418020
v 0.164942 2.338437 -4.416045
v 0.159337 2.338837 -4.416101
v 0.152420 2.338270 -4.416723
v 0.145782 2.337344 -4.417517
v 0.146929 2.264320 -4.455322
v 0.143491 2.254877 -4.460207
v 0.143256 2.248442 -4.463436
v 0.147322 2.237620 -4.468657
v 0.151940 2.225383 -4.474560
v 0.154170 2.222631 -4.475831
v 0.156672 2.221646 -4.476206
v 0.167978 2.225844 -4.473573
v 0.175825 2.225229 -4.473511
v 0.184886 2.222832 -4.474282
v 0.194264 2.223279 -4.473617
v 0.202007 2.224681 -4.472550
v 0.211966 2.219776 -4.474534
v 0.221325 2.222433 -4.472764
v 0.227279 2.225468 -4.470965
v 0.231091 2.233963 -4.466536
v 0.232736 2.235034 -4.465923
v 0.252790 2.226225 -4.469383
v 0.257578 2.225726 -4.469407
v 0.269753 2.230531 -4.466430
v 0.279688 2.235290 -4.463580
v 0.675471 2.512350 -4.269681
v 0.672541 2.507363 -4.273024
v 0.668874 2.502689 -4.276288
v 0.663858 2.502853 -4.276906
v 0.657679 2.506874 -4.275426
v 0.643971 2.525249 -4.266598
v 0.626908 2.528972 -4.266843
v 0.611191 2.527069 -4.270196
v 0.597356 2.524379 -4.273743
v 0.593702 2.518219 -4.277877
v 0.591500 2.511731 -4.281996
v 0.589995 2.508431 -4.284146
v 0.585689 2.504560 -4.287030
v 0.566502 2.495390 -4.295140
v 0.555559 2.487117 -4.301551
v 0.615794 2.340491 -4.374706
v 0.633397 2.340499 -4.372196
v 0.642280 2.345615 -4.368144
v 0.653180 2.351925 -4.363154
v 0.665815 2.360750 -4.356546
v 0.670885 2.365725 -4.353114
v 0.673067 2.369449 -4.350774
v 0.675606 2.372985 -4.348486
v 0.686699 2.378769 -4.343756
v 0.560860 2.310121 -4.398474
v 0.562190 2.316114 -4.395141
v 0.564365 2.322036 -4.391725
v 0.567928 2.323089 -4.390665
v 0.581670 2.321842 -4.389364
v 0.593743 2.328378 -4.384216
v 0.606590 2.336723 -4.378010
v 0.612104 2.339454 -4.375792
v 0.619125 2.339365 -4.374840
v 0.622958 2.337453 -4.375297
v 0.626375 2.336870 -4.375117
v 0.283410 2.236716 -4.462609
v 0.293035 2.238506 -4.460954
v 0.301725 2.239518 -4.459763
v 0.311114 2.242426 -4.457567
v 0.323045 2.238540 -4.458575
v 0.327791 2.238845 -4.458049
v 0.332142 2.241603 -4.456324
v 0.334251 2.247289 -4.453309
v 0.334635 2.252675 -4.450580
v 0.338491 2.256378 -4.448420
v 0.344669 2.257223 -4.447511
v 0.353496 2.253872 -4.448495
v 0.366370 2.249517 -4.449665
v 0.370435 2.250258 -4.448973
v 0.374148 2.251521 -4.448048
v 0.375471 2.252702 -4.447352
v 0.377005 2.257807 -4.444673
v 0.378990 2.258905 -4.443966
v 0.381940 2.259058 -4.443657
v 0.387110 2.260315 -4.442621
v 0.393371 2.264113 -4.440225
v 0.409027 2.397957 -4.368199
v 0.407170 2.395023 -4.369933
v 0.404404 2.393007 -4.371242
v 0.401022 2.391741 -4.372193
v 0.398230 2.390264 -4.373212
v 0.393810 2.389764 -4.373831
v 0.377252 2.393966 -4.372860
v 0.372904 2.393427 -4.373494
v 0.370447 2.392625 -4.374121
v 0.370431 2.391052 -4.374974
v 0.373693 2.384324 -4.378358
v 0.376609 2.375734 -4.382777
v 0.374210 2.371400 -4.385311
v 0.367426 2.369578 -4.386831
v 0.352275 2.368310 -4.388710
v 0.331763 2.368432 -4.390258
v 0.325718 2.364065 -4.393097
v 0.319788 2.357534 -4.397099
v 0.313966 2.346340 -4.403615
v 0.311657 2.341643 -4.406338
v 0.308600 2.340283 -4.407314
v 0.303180 2.342202 -4.406703
v 0.302141 2.346797 -4.404298
v 0.301636 2.353609 -4.400651
v 0.297078 2.355993 -4.399720
v 0.294282 2.354277 -4.400868
v 0.291119 2.348934 -4.404008
v 0.282786 2.344181 -4.407237
v 0.412486 2.273093 -4.434157
v 0.414738 2.277020 -4.431934
v 0.414247 2.285706 -4.427448
v 0.415160 2.289275 -4.425516
v 0.417336 2.293059 -4.423373
vn 0.0690 0.4748 -0.8773
vn 0.0832 0.4679 -0.8798
vn 0.0687 0.4611 -0.8847
vn 0.0697 0.4609 -0.8847
vn 0.0697 0.4588 -0.8858
vn 0.0967 0.4784 -0.8728
vn 0.1098 0.4817 -0.8694
vn 0.1108 0.4679 -0.8768
vn 0.1218 0.5022 -0.8561
vn 0.1219 0.5022 -0.8561
vn 0.1359 0.4954 -0.8579
vn 0.1089 0.4955 -0.8618
vn 0.1371 0.4817 -0.8655
vn 0.1241 0.4748 -0.8713
vn 0.1242 0.4733 -0.8721
vn 0.1487 0.5022 -0.8519
vn 0.1487 0.5023 -0.8518
vn 0.1500 0.4886 -0.8595
vn 0.1503 0.4856 -0.8611
vn 0.0958 0.4917 -0.8655
vn 0.1142 0.5024 -0.8570
vn 0.0957 0.4886 -0.8672
vn 0.0974 0.4609 -0.8821
vn 0.0973 0.4610 -0.8820
vn 0.1513 0.4748 -0.8670
vn 0.1513 0.4748 -0.8669
vn 0.0414 0.4748 -0.8791
vn 0.0417 0.4748 -0.8791
vn 0.0415 0.4747 -0.8791
vn 0.0418 0.4609 -0.8864
vn 0.0418 0.4610 -0.8864
vn 0.0421 0.4469 -0.8936
vn 0.1250 0.4605 -0.8788
vn 0.1242 0.4729 -0.8723
vn 0.1251 0.4609 -0.8786
vn 0.1250 0.4609 -0.8786
vn 0.0702 0.4469 -0.8918
vn 0.0702 0.4468 -0.8919
vn 0.0559 0.4539 -0.8892
vn 0.0555 0.4679 -0.8820
vn 0.0590 0.4749 -0.8780
vn 0.0690 0.4749 -0.8773
vn 0.0690 0.4747 -0.8774
vn 0.0690 0.4745 -0.8775
vn 0.0691 0.4747 -0.8774
vn 0.0691 0.4749 -0.8773
vn 0.0874 0.4748 -0.8757
vn 0.0691 0.4748 -0.8773
vn 0.0690 0.4748 -0.8774
vn 0.0677 0.4747 -0.8775
vn 0.0689 0.4748 -0.8773
vn 0.0687 0.4749 -0.8773
vn 0.0690 0.4750 -0.8773
vn 0.0690 0.4746 -0.8774
vn 0.0691 0.4748 -0.8774
vn 0.0696 0.4609 -0.8847
vn 0.0794 0.4610 -0.8838
vn 0.0696 0.4610 -0.8846
vn 0.0966 0.4748 -0.8748
vn 0.1212 0.5022 -0.8562
vn 0.1385 0.5022 -0.8535
vn 0.1217 0.5022 -0.8561
vn 0.1218 0.5023 -0.8561
vn 0.1240 0.4748 -0.8713
vn 0.1333 0.4748 -0.8699
vn 0.1240 0.4747 -0.8713
vn 0.1242 0.4748 -0.8712
vn 0.1240 0.4747 -0.8714
vn 0.1240 0.4749 -0.8712
vn 0.1241 0.4731 -0.8722
vn 0.1495 0.4935 -0.8567
vn 0.1487 0.5022 -0.8518
vn 0.1487 0.5024 -0.8517
vn 0.1486 0.5022 -0.8518
vn 0.1499 0.4886 -0.8595
vn 0.1500 0.4885 -0.8595
vn 0.1498 0.4885 -0.8596
vn 0.1501 0.4886 -0.8595
vn 0.1018 0.4905 -0.8655
vn 0.0958 0.4883 -0.8674
vn 0.0958 0.4885 -0.8672
vn 0.0958 0.4886 -0.8672
vn 0.0956 0.4887 -0.8672
vn 0.0956 0.4886 -0.8672
vn 0.0957 0.4887 -0.8672
vn 0.0956 0.4885 -0.8673
vn 0.1087 0.4610 -0.8807
vn 0.0974 0.4609 -0.8820
vn 0.0976 0.4613 -0.8819
vn 0.0972 0.4608 -0.8821
vn 0.1513 0.4745 -0.8671
vn 0.1514 0.4748 -0.8669
vn 0.1512 0.4748 -0.8670
vn 0.1513 0.4746 -0.8671
vn 0.1511 0.4747 -0.8670
vn 0.1514 0.4748 -0.8670
vn 0.1515 0.4748 -0.8669
vn 0.0417 0.4640 -0.8848
vn 0.0414 0.4747 -0.8791
vn 0.0415 0.4742 -0.8794
vn 0.0415 0.4749 -0.8791
vn 0.0414 0.4749 -0.8791
vn 0.0420 0.4513 -0.8914
vn 0.0418 0.4609 -0.8865
vn 0.0417 0.4609 -0.8864
vn 0.0417 0.4610 -0.8864
vn 0.0415 0.4610 -0.8864
vn 0.0523 0.4469 -0.8930
vn 0.0422 0.4469 -0.8936
vn 0.0420 0.4469 -0.8936
vn 0.0422 0.4470 -0.8935
vn 0.0426 0.4468 -0.8936
vn 0.0421 0.4470 -0.8935
vn 0.1249 0.4605 -0.8788
vn 0.1250 0.4611 -0.8785
vn 0.1248 0.4609 -0.8786
vn 0.1249 0.4609 -0.8786
vn 0.0702 0.4473 -0.8916
vn 0.0704 0.4463 -0.8921
vn 0.0702 0.4468 -0.8918
vn 0.0701 0.4469 -0.8918
vn 0.0703 0.4469 -0.8918
vn 0.0703 0.4470 -0.8918
vn 0.0701 0.4472 -0.8917
vn 0.0703 0.4470 -0.8917
usemtl None
s 1
f 208//1 207//1 3//2
f 225//3 224//4 15//5
f 10//6 5//7 6//8
f 143//9 142//10 7//11
f 4//12 8//13 5//7
f 154//14 14//15 5//7
f 61//16 60//17 7//11
f 72//18 70//18 9//19
f 21//20 18//21 4//12
f 33//22 32//22 5//7
f 57//23 55//23 54//24
f 82//25 81//26 8//13
f 93//27 92//28 91//29
f 114//30 113//31 104//30
f 126//32 125//32 118//32
f 171//33 12//34 172//35
f 166//35 165//36 6//8
f 184//37 183//38 2//39
f 1//40 24//41 222//42
f 221//1 220//43 217//1
f 220//43 219//44 218//43
f 1//40 222//42 216//45
f 222//42 221//1 216//45
f 195//46 16//47 196//48
f 16//47 3//2 196//48
f 220//43 218//43 217//1
f 197//48 196//48 3//2
f 199//49 198//50 197//48
f 202//51 201//49 205//1
f 201//49 200//43 205//1
f 199//49 197//48 3//2
f 203//52 202//51 204//51
f 200//43 199//49 206//1
f 199//49 3//2 206//1
f 221//1 217//1 216//45
f 202//51 205//1 204//51
f 205//1 200//43 206//1
f 1//40 216//45 215//53
f 214//54 213//1 209//49
f 213//1 212//55 209//49
f 3//2 1//40 215//53
f 212//55 211//49 209//49
f 3//2 215//53 214//54
f 207//1 206//1 3//2
f 3//2 214//54 209//49
f 3//2 209//49 208//1
f 211//49 210//45 209//49
f 15//5 2//39 1//40
f 1//40 3//2 226//56
f 3//2 19//57 227//56
f 3//2 227//56 226//56
f 223//58 15//5 224//4
f 15//5 1//40 226//56
f 225//3 15//5 226//56
f 6//8 3//2 10//6
f 3//2 16//47 44//59
f 44//59 10//6 3//2
f 7//11 4//12 153//9
f 4//12 18//21 153//9
f 153//9 152//9 7//11
f 152//9 151//9 7//11
f 139//60 11//61 140//62
f 11//61 7//11 140//62
f 7//11 151//9 143//9
f 151//9 150//9 143//9
f 141//9 140//62 7//11
f 142//10 141//9 7//11
f 150//9 149//63 143//9
f 149//63 148//10 146//9
f 148//10 147//10 146//9
f 146//9 145//9 143//9
f 149//63 146//9 143//9
f 145//9 144//9 143//9
f 4//12 7//11 8//13
f 14//15 6//8 5//7
f 5//7 8//13 161//64
f 8//13 20//65 162//14
f 161//64 8//13 162//14
f 160//66 159//67 158//64
f 161//64 160//66 5//7
f 160//66 158//64 157//64
f 5//7 160//66 157//64
f 157//64 156//68 154//14
f 5//7 157//64 154//14
f 156//68 155//69 154//14
f 155//69 12//34 13//70
f 154//14 155//69 13//70
f 22//71 7//11 60//17
f 7//11 11//61 64//72
f 64//72 11//61 65//73
f 11//61 67//16 66//72
f 66//72 65//73 11//61
f 63//74 62//72 7//11
f 62//72 61//16 7//11
f 64//72 63//74 7//11
f 9//19 8//13 72//18
f 8//13 7//11 74//18
f 73//75 8//13 74//18
f 7//11 22//71 76//76
f 76//76 75//75 74//18
f 76//76 74//18 7//11
f 68//77 9//19 69//75
f 8//13 73//75 72//18
f 70//18 69//75 9//19
f 72//18 71//78 70//18
f 5//7 10//6 41//22
f 10//6 43//79 42//80
f 41//22 10//6 42//80
f 40//81 39//22 35//82
f 39//22 38//81 37//22
f 39//22 37//22 35//82
f 5//7 41//22 33//22
f 41//22 40//81 34//83
f 21//20 4//12 27//84
f 4//12 5//7 27//84
f 41//22 34//83 33//22
f 34//83 40//81 35//82
f 37//22 36//85 35//82
f 28//82 27//84 5//7
f 30//86 29//22 28//82
f 32//22 31//22 5//7
f 31//22 30//86 28//82
f 31//22 28//82 5//7
f 6//8 23//87 59//88
f 6//8 59//88 58//23
f 45//88 19//57 3//2
f 47//88 46//23 3//2
f 46//23 45//88 3//2
f 49//23 48//89 47//88
f 51//88 50//90 49//23
f 52//23 51//88 49//23
f 52//23 49//23 47//88
f 53//23 52//23 6//8
f 52//23 47//88 3//2
f 6//8 52//23 3//2
f 6//8 58//23 54//24
f 58//23 57//23 54//24
f 6//8 54//24 53//23
f 57//23 56//88 55//23
f 8//13 9//19 82//25
f 9//19 88//91 82//25
f 88//91 87//92 82//25
f 87//92 86//93 82//25
f 86//93 85//25 82//25
f 85//25 84//94 83//95
f 85//25 83//95 82//25
f 77//25 20//65 8//13
f 79//96 78//97 8//13
f 78//97 77//25 8//13
f 80//93 79//96 8//13
f 81//26 80//93 8//13
f 1//40 25//98 90//99
f 25//98 99//100 98//27
f 90//99 25//98 98//27
f 98//27 97//27 90//99
f 96//101 95//27 91//29
f 95//27 94//102 93//27
f 97//27 96//101 91//29
f 90//99 97//27 91//29
f 89//27 24//41 1//40
f 90//99 89//27 1//40
f 95//27 93//27 91//29
f 2//39 26//103 107//30
f 2//39 107//30 106//104
f 25//98 1//40 108//30
f 1//40 2//39 108//30
f 2//39 106//104 109//30
f 106//104 105//30 110//30
f 109//30 106//104 110//30
f 104//30 103//30 114//30
f 103//30 102//105 116//30
f 105//30 104//30 113//31
f 109//30 108//30 2//39
f 111//106 110//30 105//30
f 112//107 111//106 105//30
f 112//107 105//30 113//31
f 103//30 116//30 115//30
f 102//105 101//105 116//30
f 101//105 100//106 117//105
f 117//105 116//30 101//105
f 103//30 115//30 114//30
f 2//39 17//108 138//32
f 138//32 137//32 2//39
f 137//32 136//32 135//32
f 134//32 137//32 135//32
f 133//32 132//32 131//32
f 137//32 134//32 2//39
f 133//32 131//32 129//32
f 131//32 130//32 129//32
f 2//39 134//32 26//103
f 134//32 133//32 26//103
f 118//32 26//103 126//32
f 120//32 119//109 125//32
f 119//109 118//32 125//32
f 122//32 121//110 125//32
f 121//110 120//32 125//32
f 124//111 123//112 122//32
f 125//32 124//111 122//32
f 26//103 133//32 129//32
f 126//32 26//103 128//32
f 129//32 128//32 26//103
f 128//32 127//113 126//32
f 13//70 12//34 171//33
f 12//34 173//36 172//35
f 6//8 14//15 170//114
f 169//115 168//36 6//8
f 168//36 167//36 6//8
f 6//8 170//114 169//115
f 163//116 23//87 164//117
f 23//87 6//8 164//117
f 6//8 167//36 166//35
f 165//36 164//117 6//8
f 2//39 15//5 184//37
f 15//5 194//37 184//37
f 194//37 193//118 192//119
f 194//37 192//119 191//120
f 174//121 17//108 2//39
f 177//37 176//37 2//39
f 176//37 175//37 2//39
f 175//37 174//121 2//39
f 194//37 191//120 184//37
f 190//120 189//122 187//123
f 189//122 188//124 187//123
f 191//120 190//120 184//37
f 179//125 178//37 180//122
f 178//37 177//37 181//121
f 181//121 177//37 182//37
f 181//121 180//122 178//37
f 177//37 2//39 182//37
f 184//37 190//120 185//37
f 187//123 186//37 190//120
f 186//37 185//37 190//120
f 183//38 182//37 2//39
