# Blender v2.81 (sub 16) OBJ File: ''
# www.blender.org
mtllib New Caledonia.mtl
o 0_New_Caledonia_sphere.001
v -4.504639 -1.926321 -0.997609
v -4.504250 -1.925713 -1.000757
v -4.504237 -1.924575 -1.003190
v -4.504567 -1.922922 -1.005050
v -4.507478 -1.916717 -1.003941
v -4.507643 -1.919719 -0.996880
v -4.506429 -1.923251 -0.995373
vn -0.9018 -0.3897 -0.1868
vn -0.9017 -0.3899 -0.1867
vn -0.9018 -0.3897 -0.1867
vn -0.9018 -0.3896 -0.1867
vn -0.9019 -0.3895 -0.1868
usemtl None
s 1
f 2//1 1//2 7//3
f 7//3 6//3 2//1
f 6//3 5//2 4//4
f 3//5 6//3 4//4
f 3//5 2//1 6//3
o 1_New_Caledonia_sphere.001
v -4.545642 -1.840626 -0.971907
v -4.548784 -1.840626 -0.956738
v -4.548332 -1.841703 -0.956768
v -4.545561 -1.843945 -0.965672
v -4.544964 -1.843816 -0.968811
v -4.545694 -1.840910 -0.971090
v -4.552467 -1.828100 -0.962853
v -4.553905 -1.827831 -0.956416
v -4.545335 -1.839033 -0.976430
v -4.547191 -1.834258 -0.976581
v -4.550173 -1.823606 -0.982503
v -4.552607 -1.821989 -0.973835
v -4.554723 -1.819118 -0.969096
v -4.553690 -1.821696 -0.969163
v -4.552702 -1.824728 -0.968147
v -4.552254 -1.826620 -0.966705
vn -0.9080 -0.3743 -0.1881
vn -0.9076 -0.3754 -0.1880
vn -0.9105 -0.3679 -0.1885
vn -0.9132 -0.3609 -0.1892
vn -0.9132 -0.3609 -0.1891
vn -0.9132 -0.3608 -0.1891
vn -0.9127 -0.3623 -0.1890
vn -0.9076 -0.3752 -0.1880
vn -0.9073 -0.3762 -0.1878
vn -0.9133 -0.3608 -0.1890
vn -0.9133 -0.3607 -0.1891
usemtl None
s 1
f 13//6 11//7 9//8
f 23//9 22//10 17//11
f 9//8 8//12 13//6
f 13//6 12//13 11//7
f 11//7 10//14 9//8
f 8//12 9//8 14//10
f 9//8 15//15 14//10
f 17//11 16//16 8//12
f 19//11 18//11 17//11
f 21//10 20//10 19//11
f 22//10 21//10 19//11
f 19//11 17//11 22//10
f 17//11 8//12 23//9
f 8//12 14//10 23//9
o 2_New_Caledonia_sphere.001
v -4.555168 -1.792253 -1.018198
v -4.550406 -1.804863 -1.017134
v -4.559142 -1.767377 -1.042872
v -4.562063 -1.767377 -1.030704
v -4.549139 -1.805512 -1.021340
v -4.549970 -1.799631 -1.027623
v -4.548456 -1.796625 -1.038911
v -4.549238 -1.791466 -1.044204
v -4.550777 -1.785371 -1.047893
v -4.552836 -1.783890 -1.041769
v -4.557398 -1.775723 -1.036307
v -4.557539 -1.772670 -1.040776
v -4.556019 -1.772086 -1.048073
v -4.557421 -1.768909 -1.047500
v -4.561631 -1.769984 -1.028184
v -4.556664 -1.782917 -1.027440
v -4.556375 -1.787074 -1.021752
v -4.561628 -1.765140 -1.036052
v -4.554157 -1.796263 -1.015430
v -4.553176 -1.798845 -1.015238
vn -0.9069 -0.3608 -0.2177
vn -0.9068 -0.3608 -0.2177
vn -0.9077 -0.3584 -0.2180
vn -0.9122 -0.3461 -0.2190
vn -0.9074 -0.3594 -0.2178
vn -0.9132 -0.3609 -0.1891
vn -0.9080 -0.3608 -0.2130
vn -0.9080 -0.3609 -0.2127
vn -0.9069 -0.3609 -0.2177
vn -0.9069 -0.3607 -0.2178
vn -0.9068 -0.3609 -0.2176
vn -0.9132 -0.3609 -0.1893
usemtl None
s 1
f 34//17 33//17 39//18
f 27//19 41//20 26//21
f 43//22 24//23 25//24
f 27//19 26//21 35//17
f 26//21 37//25 35//17
f 37//25 36//17 35//17
f 39//18 38//26 34//17
f 38//26 27//19 34//17
f 24//23 40//17 29//17
f 40//17 39//18 29//17
f 28//27 25//24 29//17
f 25//24 24//23 29//17
f 31//17 30//17 33//17
f 30//17 29//17 39//18
f 33//17 30//17 39//18
f 32//17 31//17 33//17
f 27//19 35//17 34//17
f 43//22 42//28 24//23
o 3_New_Caledonia_sphere.001
v -4.547367 -1.767377 -1.091918
v -4.547909 -1.767377 -1.089662
v -4.547094 -1.767884 -1.092214
v -4.551018 -1.760391 -1.087749
v -4.552702 -1.755800 -1.087986
v -4.556438 -1.746752 -1.086718
v -4.557471 -1.743714 -1.087219
v -4.558142 -1.744099 -1.083816
v -4.558075 -1.746729 -1.079940
v -4.556257 -1.748980 -1.083955
v -4.554521 -1.752884 -1.085016
v -4.552794 -1.757799 -1.084447
v -4.552860 -1.758701 -1.082747
v -4.550292 -1.764067 -1.084965
v -4.548408 -1.767080 -1.088050
vn -0.9087 -0.3560 -0.2182
vn -0.9069 -0.3605 -0.2177
vn -0.9120 -0.3469 -0.2188
vn -0.9123 -0.3460 -0.2190
vn -0.9124 -0.3460 -0.2188
vn -0.9123 -0.3460 -0.2191
vn -0.9123 -0.3461 -0.2189
vn -0.9123 -0.3461 -0.2190
vn -0.9122 -0.3463 -0.2188
vn -0.9123 -0.3459 -0.2191
usemtl None
s 1
f 44//29 46//30 45//31
f 53//32 51//32 49//32
f 44//29 45//31 47//32
f 45//31 58//33 47//32
f 58//33 57//32 47//32
f 57//32 56//34 47//32
f 47//32 56//34 55//32
f 49//32 48//35 54//36
f 48//35 47//32 55//32
f 54//36 48//35 55//32
f 51//32 50//37 49//32
f 53//32 52//38 51//32
f 54//36 53//32 49//32
o 4_New_Caledonia_sphere.001
v -4.502809 -1.840626 -1.156123
v -4.503396 -1.767377 -1.261371
v -4.517790 -1.767377 -1.208755
v -4.499235 -1.849736 -1.155205
v -4.498277 -1.840626 -1.172688
v -4.515046 -1.807973 -1.159265
v -4.515076 -1.840626 -1.105027
v -4.498677 -1.841748 -1.169503
v -4.518461 -1.770815 -1.201262
v -4.519427 -1.772816 -1.194798
v -4.519223 -1.776843 -1.189636
v -4.518287 -1.782471 -1.184810
v -4.518390 -1.786452 -1.178595
v -4.517674 -1.790194 -1.175724
v -4.515977 -1.795189 -1.174605
v -4.515399 -1.798269 -1.172203
v -4.515253 -1.806405 -1.160807
v -4.497642 -1.838890 -1.177553
v -4.497463 -1.834414 -1.184770
v -4.498563 -1.818191 -1.204536
v -4.497910 -1.815186 -1.211330
v -4.499043 -1.807994 -1.217731
v -4.501129 -1.790929 -1.235127
v -4.501666 -1.783932 -1.243423
v -4.501748 -1.777669 -1.252308
v -4.502735 -1.770388 -1.259374
v -4.514166 -1.813496 -1.153776
v -4.514941 -1.817083 -1.144608
v -4.514276 -1.821303 -1.140381
v -4.514693 -1.823350 -1.135251
v -4.514293 -1.827657 -1.129780
v -4.515089 -1.831012 -1.120907
v -4.514008 -1.735195 -1.267565
v -4.517405 -1.732980 -1.258246
v -4.517817 -1.741062 -1.245441
v -4.517430 -1.765633 -1.212508
v -4.504547 -1.761697 -1.265105
v -4.505888 -1.749235 -1.277622
v -4.507403 -1.743884 -1.279563
v -4.509473 -1.738413 -1.279645
v -4.509979 -1.734892 -1.282715
v -4.509466 -1.732767 -1.287560
v -4.510180 -1.729076 -1.290111
v -4.512002 -1.724119 -1.290375
v -4.513335 -1.721536 -1.289113
v -4.513390 -1.730067 -1.276992
v -4.515029 -1.843416 -1.100381
v -4.513979 -1.855212 -1.084292
v -4.512906 -1.862478 -1.076156
v -4.512268 -1.868982 -1.067533
v -4.512689 -1.874173 -1.056772
v -4.512661 -1.880103 -1.046601
v -4.508346 -1.893989 -1.040485
v -4.505756 -1.898937 -1.042692
v -4.503465 -1.901386 -1.047986
v -4.502164 -1.901569 -1.053087
v -4.500366 -1.903226 -1.057703
v -4.500066 -1.894255 -1.074516
v -4.499686 -1.892913 -1.078425
v -4.498434 -1.893486 -1.082646
v -4.498649 -1.891494 -1.085203
v -4.499372 -1.888634 -1.087154
v -4.498336 -1.885321 -1.097218
v -4.498242 -1.880005 -1.106832
v -4.499033 -1.876394 -1.109801
v -4.500433 -1.871898 -1.111769
v -4.500931 -1.869301 -1.114199
v -4.499380 -1.865407 -1.127415
v -4.499006 -1.861081 -1.136479
v -4.499932 -1.854890 -1.143357
v -4.499254 -1.850656 -1.153527
vn -0.8996 -0.3608 -0.2461
vn -0.9003 -0.3587 -0.2463
vn -0.8942 -0.3749 -0.2447
vn -0.9005 -0.3681 -0.2312
vn -0.8990 -0.3624 -0.2459
vn -0.9069 -0.3608 -0.2177
vn -0.9049 -0.3460 -0.2476
vn -0.9049 -0.3461 -0.2475
vn -0.9013 -0.3753 -0.2164
vn -0.9013 -0.3752 -0.2164
vn -0.9012 -0.3609 -0.2397
vn -0.8995 -0.3609 -0.2461
vn -0.8996 -0.3608 -0.2459
vn -0.8996 -0.3607 -0.2462
vn -0.8992 -0.3616 -0.2462
vn -0.8996 -0.3609 -0.2461
vn -0.9032 -0.3510 -0.2470
vn -0.8997 -0.3605 -0.2461
vn -0.8990 -0.3754 -0.2254
vn -0.9023 -0.3726 -0.2166
vn -0.9048 -0.3465 -0.2475
vn -0.9049 -0.3461 -0.2476
vn -0.9049 -0.3460 -0.2475
vn -0.9050 -0.3460 -0.2475
vn -0.9050 -0.3460 -0.2476
vn -0.9012 -0.3753 -0.2163
vn -0.9012 -0.3753 -0.2164
vn -0.9013 -0.3753 -0.2163
vn -0.9012 -0.3754 -0.2163
vn -0.9012 -0.3754 -0.2164
vn -0.9014 -0.3750 -0.2165
vn -0.9014 -0.3751 -0.2164
usemtl None
s 1
f 82//39 81//39 61//40
f 66//41 59//42 63//43
f 86//44 85//44 59//42
f 99//45 98//46 104//45
f 120//47 119//48 117//47
f 63//43 59//42 64//49
f 64//49 75//50 77//39
f 75//50 74//39 77//39
f 73//39 72//51 71//52
f 63//43 64//49 76//39
f 73//39 71//52 70//39
f 64//49 77//39 76//39
f 74//39 73//39 78//39
f 77//39 74//39 78//39
f 80//39 79//39 78//39
f 73//39 70//39 78//39
f 70//39 69//39 80//39
f 69//39 68//53 67//54
f 67//54 61//40 80//39
f 61//40 60//55 84//56
f 69//39 67//54 80//39
f 81//39 80//39 61//40
f 80//39 78//39 70//39
f 84//56 83//50 61//40
f 83//50 82//39 61//40
f 66//41 62//57 59//42
f 59//42 65//58 90//44
f 89//44 88//44 59//42
f 88//44 87//44 59//42
f 59//42 90//44 89//44
f 85//44 64//49 59//42
f 87//44 86//44 59//42
f 60//55 61//40 94//59
f 94//59 93//45 60//55
f 93//45 92//60 91//61
f 95//46 93//45 91//61
f 93//45 95//46 60//55
f 97//62 96//63 91//61
f 96//63 95//46 91//61
f 98//46 97//62 91//61
f 104//45 103//63 102//63
f 91//61 104//45 98//46
f 104//45 102//63 101//63
f 101//63 100//63 104//45
f 100//63 99//45 104//45
f 59//42 62//57 129//64
f 128//47 127//47 65//58
f 127//47 126//64 65//58
f 59//42 129//64 128//47
f 105//65 65//58 125//65
f 65//58 59//42 128//47
f 107//47 106//65 121//66
f 106//65 105//65 125//65
f 110//65 109//65 114//67
f 109//65 108//65 116//65
f 116//65 108//65 117//47
f 106//65 125//65 124//47
f 111//64 110//65 114//67
f 108//65 107//47 120//47
f 65//58 126//64 125//65
f 109//65 116//65 114//67
f 106//65 124//47 122//47
f 113//68 112//65 111//64
f 116//65 115//67 114//67
f 114//67 113//68 111//64
f 106//65 122//47 121//66
f 120//47 107//47 121//66
f 124//47 123//69 122//47
f 119//48 118//70 117//47
f 108//65 120//47 117//47
o 5_New_Caledonia_sphere.001
v -4.431331 -1.655153 -1.618422
v -4.435388 -1.642087 -1.620661
v -4.437926 -1.637187 -1.618812
v -4.435010 -1.647374 -1.616410
v -4.432336 -1.653412 -1.617491
vn -0.8826 -0.3312 -0.3335
vn -0.8826 -0.3312 -0.3336
usemtl None
s 1
f 131//71 134//72 133//71
f 133//71 132//71 131//71
f 131//71 130//72 134//72
