# Blender v2.81 (sub 16) OBJ File: ''
# www.blender.org
mtllib Nicaragua.mtl
o 0_Nicaragua_sphere.001
v 0.455755 1.243447 4.821413
v 0.457538 1.167225 4.840266
v 0.459207 1.090714 4.857918
v 0.460764 1.013934 4.874382
v 0.305275 1.167225 4.852249
v 0.306390 1.090714 4.869945
v 0.307429 1.013934 4.886450
v 0.573012 1.243447 4.808467
v 0.455231 1.264468 4.815864
v 0.307447 1.012495 4.886735
v 0.305625 1.013934 4.886535
v 0.496638 0.936904 4.885830
v 0.539217 0.936904 4.881129
v 0.547329 1.167225 4.830353
v 0.405533 1.243447 4.825365
v 0.276143 1.167225 4.853622
v 0.304935 1.189036 4.846840
v 0.540522 1.090714 4.848941
v 0.544896 1.090714 4.848458
v 0.548878 1.090714 4.848018
v 0.461831 0.956823 4.885688
v 0.230659 1.090714 4.873516
v 0.540540 1.013934 4.865575
v 0.573140 1.290303 4.795957
v 0.570644 1.288278 4.796772
v 0.565601 1.278174 4.800024
v 0.563770 1.277262 4.800469
v 0.563179 1.284727 4.798544
v 0.559959 1.285704 4.798639
v 0.556298 1.283035 4.799755
v 0.554344 1.279221 4.800988
v 0.557757 1.274218 4.801945
v 0.560619 1.274158 4.801645
v 0.564141 1.272794 4.801620
v 0.460496 1.263118 4.815643
v 0.467534 1.263968 4.814640
v 0.472459 1.268014 4.813016
v 0.476950 1.269230 4.812197
v 0.481010 1.267623 4.812177
v 0.483106 1.268521 4.811706
v 0.483246 1.271931 4.810781
v 0.485298 1.272715 4.810345
v 0.489276 1.270867 4.810399
v 0.492779 1.270384 4.810141
v 0.495806 1.271266 4.809572
v 0.496949 1.272939 4.808999
v 0.497506 1.274622 4.808489
v 0.499753 1.275902 4.807900
v 0.507635 1.274634 4.807368
v 0.516383 1.276593 4.805880
v 0.525997 1.281807 4.803427
v 0.532408 1.284112 4.802105
v 0.535623 1.283500 4.801913
v 0.539379 1.286137 4.800795
v 0.543666 1.291988 4.798762
v 0.553762 1.294628 4.796943
v 0.575374 1.293381 4.794889
v 0.574562 1.238280 4.809587
v 0.572728 1.232101 4.811335
v 0.567207 1.222474 4.814350
v 0.561912 1.214293 4.816979
v 0.556527 1.209160 4.818857
v 0.550285 1.187326 4.825002
v 0.545046 1.151822 4.834196
v 0.550354 1.119835 4.841067
v 0.545575 1.096284 4.847085
v 0.544186 1.100198 4.846325
v 0.541697 1.091683 4.848585
v 0.548850 1.090272 4.848117
v 0.550991 1.083263 4.849399
v 0.551798 1.074523 4.851204
v 0.547237 1.072963 4.852046
v 0.544639 1.073225 4.852275
v 0.541853 1.078572 4.851425
v 0.542044 1.083299 4.850379
v 0.544661 1.088824 4.848893
v 0.537021 1.087864 4.849945
v 0.533944 1.086534 4.850573
v 0.531008 1.082217 4.851832
v 0.534420 1.074098 4.853215
v 0.538700 1.068140 4.854033
v 0.540164 1.063877 4.854795
v 0.538763 1.058798 4.856050
v 0.538231 1.041475 4.859862
v 0.536748 1.041955 4.859922
v 0.535178 1.044289 4.859590
v 0.530797 1.044446 4.860039
v 0.530439 1.037465 4.861591
v 0.530870 1.033561 4.862390
v 0.527221 1.030559 4.863443
v 0.525952 1.027546 4.864236
v 0.529051 1.025418 4.864355
v 0.532444 1.024158 4.864254
v 0.536579 1.024427 4.863739
v 0.540205 1.015846 4.865198
v 0.541419 1.008835 4.866498
v 0.533648 1.002370 4.868649
v 0.531076 0.997012 4.870005
v 0.526724 0.990530 4.871781
v 0.524344 0.984158 4.873319
v 0.523694 0.979570 4.874309
v 0.527061 0.965052 4.876841
v 0.532726 0.954767 4.878273
v 0.537457 0.948224 4.879059
v 0.543624 0.946800 4.878663
v 0.542332 0.939934 4.880179
v 0.495797 0.940344 4.885234
v 0.491387 0.945434 4.884703
v 0.483358 0.952236 4.884229
v 0.478800 0.951773 4.884825
v 0.471340 0.953268 4.885349
v 0.537822 0.935552 4.881532
v 0.529518 0.931890 4.883121
v 0.520323 0.931233 4.884257
v 0.505176 0.934704 4.885292
v 0.499020 0.935127 4.885893
v 0.274289 1.178602 4.850881
v 0.273611 1.183970 4.849577
v 0.274538 1.187982 4.848536
v 0.276667 1.189466 4.848067
v 0.287104 1.190450 4.847330
v 0.216047 1.103983 4.871127
v 0.198294 1.116407 4.869082
v 0.198021 1.121682 4.867871
v 0.205186 1.128275 4.866004
v 0.208732 1.127973 4.865907
v 0.212630 1.123241 4.866820
v 0.218932 1.117888 4.867765
v 0.221891 1.117845 4.867635
v 0.226199 1.120326 4.866858
v 0.226279 1.122813 4.866276
v 0.249892 1.123875 4.864916
v 0.254113 1.125268 4.864394
v 0.258349 1.129169 4.863289
v 0.260465 1.134596 4.861931
v 0.260772 1.139857 4.860696
v 0.261621 1.143611 4.859785
v 0.265371 1.147266 4.858760
v 0.272268 1.148418 4.858168
v 0.277593 1.148810 4.857826
v 0.279138 1.151286 4.857178
v 0.277431 1.159267 4.855408
v 0.301499 1.017187 4.886028
v 0.285304 1.037888 4.882329
v 0.276579 1.052806 4.879524
v 0.268358 1.060568 4.878238
v 0.244828 1.076435 4.875926
v 0.239379 1.082775 4.874816
v 0.306888 1.188875 4.846727
v 0.310679 1.190075 4.846129
v 0.318404 1.201016 4.842795
v 0.325616 1.209048 4.840226
v 0.330784 1.212651 4.838922
v 0.334889 1.213731 4.838329
v 0.339792 1.206571 4.839728
v 0.356613 1.196285 4.840967
v 0.359414 1.196922 4.840588
v 0.361052 1.197488 4.840318
v 0.361547 1.198958 4.839913
v 0.361165 1.203678 4.838767
v 0.365246 1.207969 4.837376
v 0.373795 1.211832 4.835741
v 0.382334 1.218655 4.833368
v 0.390850 1.228409 4.830268
v 0.398290 1.234154 4.828251
v 0.404650 1.235859 4.827325
v 0.407023 1.238537 4.826471
v 0.405427 1.242145 4.825698
v 0.405830 1.247274 4.824324
v 0.408222 1.253893 4.822376
v 0.411841 1.257726 4.821072
v 0.416692 1.258774 4.820411
v 0.418569 1.260864 4.819708
v 0.417479 1.263998 4.818960
v 0.418349 1.267439 4.817976
v 0.422613 1.273086 4.816140
v 0.432990 1.277946 4.814031
v 0.439026 1.276330 4.813985
v 0.444176 1.269850 4.815303
v 0.451335 1.265457 4.815908
v 0.458895 0.957914 4.885702
v 0.453160 0.958450 4.886046
v 0.445020 0.954472 4.887480
v 0.435566 0.949268 4.889262
v 0.412385 0.957318 4.889481
v 0.396122 0.962994 4.889629
v 0.381493 0.968115 4.889759
v 0.377587 0.970106 4.889669
v 0.374416 0.969673 4.890005
v 0.371704 0.966993 4.890753
v 0.368634 0.962235 4.891943
v 0.367610 0.960860 4.892298
v 0.365960 0.959562 4.892687
v 0.364077 0.959205 4.892906
v 0.363967 0.961466 4.892464
v 0.356722 0.970915 4.891150
v 0.345251 0.982288 4.889784
vn 0.0758 0.2562 0.9636
vn 0.0759 0.2408 0.9676
vn 0.0761 0.2412 0.9675
vn 0.0915 0.2334 0.9680
vn 0.0613 0.2181 0.9740
vn 0.0918 0.2181 0.9716
vn 0.0614 0.2027 0.9773
vn 0.0921 0.2028 0.9749
vn 0.0457 0.2411 0.9694
vn 0.0460 0.2257 0.9731
vn 0.0458 0.2258 0.9731
vn 0.0459 0.2221 0.9739
vn 0.0461 0.2105 0.9765
vn 0.0460 0.2105 0.9765
vn 0.1061 0.2562 0.9608
vn 0.1060 0.2563 0.9608
vn 0.1063 0.2411 0.9646
vn 0.1065 0.2411 0.9646
vn 0.1064 0.2474 0.9630
vn 0.1069 0.2257 0.9683
vn 0.1073 0.2105 0.9716
vn 0.1072 0.2105 0.9717
vn 0.1073 0.2103 0.9717
vn 0.1074 0.2105 0.9716
vn 0.1076 0.1950 0.9749
vn 0.1080 0.1796 0.9778
vn 0.1078 0.1795 0.9778
vn 0.1076 0.1912 0.9756
vn 0.0458 0.2070 0.9772
vn 0.0684 0.1950 0.9784
vn 0.0770 0.1950 0.9778
vn 0.0769 0.1950 0.9778
vn 0.0769 0.1951 0.9778
vn 0.0760 0.2482 0.9657
vn 0.0911 0.2487 0.9643
vn 0.0885 0.2563 0.9625
vn 0.0759 0.2562 0.9636
vn 0.0757 0.2562 0.9636
vn 0.0759 0.2563 0.9636
vn 0.0758 0.2563 0.9636
vn 0.0765 0.2563 0.9636
vn 0.0610 0.2334 0.9704
vn 0.0761 0.2411 0.9675
vn 0.0761 0.2413 0.9674
vn 0.0602 0.2411 0.9686
vn 0.0764 0.2410 0.9675
vn 0.0759 0.2410 0.9675
vn 0.0762 0.2411 0.9675
vn 0.0458 0.2341 0.9711
vn 0.0457 0.2410 0.9694
vn 0.0453 0.2412 0.9694
vn 0.0459 0.2257 0.9731
vn 0.0459 0.2258 0.9731
vn 0.0457 0.2257 0.9731
vn 0.0458 0.2257 0.9731
vn 0.0462 0.2257 0.9731
vn 0.0459 0.2261 0.9730
vn 0.1061 0.2563 0.9608
vn 0.1062 0.2568 0.9606
vn 0.1060 0.2562 0.9608
vn 0.1061 0.2559 0.9608
vn 0.1058 0.2562 0.9608
vn 0.1059 0.2562 0.9608
vn 0.1055 0.2562 0.9608
vn 0.1061 0.2564 0.9607
vn 0.1059 0.2561 0.9608
vn 0.1057 0.2561 0.9608
vn 0.1061 0.2560 0.9608
vn 0.1067 0.2342 0.9663
vn 0.1073 0.2408 0.9646
vn 0.1069 0.2411 0.9646
vn 0.1071 0.2174 0.9702
vn 0.1071 0.2183 0.9700
vn 0.1068 0.2257 0.9683
vn 0.1072 0.2224 0.9690
vn 0.1083 0.2257 0.9681
vn 0.1074 0.2020 0.9734
vn 0.1073 0.2105 0.9717
vn 0.1070 0.2105 0.9717
vn 0.1075 0.2104 0.9717
vn 0.1075 0.2105 0.9716
vn 0.1070 0.2104 0.9717
vn 0.1072 0.2104 0.9717
vn 0.1077 0.1909 0.9757
vn 0.1075 0.1950 0.9749
vn 0.1079 0.1950 0.9748
vn 0.1075 0.1953 0.9748
vn 0.0960 0.1950 0.9761
vn 0.1077 0.1950 0.9749
vn 0.1079 0.1796 0.9778
vn 0.1077 0.1795 0.9778
vn 0.1079 0.1797 0.9778
vn 0.0770 0.1949 0.9778
vn 0.0773 0.1949 0.9778
vn 0.0769 0.1949 0.9778
vn 0.0768 0.1949 0.9778
usemtl None
s 1
f 176//1 173//1 179//1
f 158//2 157//3 2//4
f 2//4 6//5 3//6
f 3//6 7//7 4//8
f 118//9 117//9 121//9
f 132//10 130//11 22//12
f 6//5 146//13 145//14
f 49//15 46//16 45//15
f 60//17 59//18 8//19
f 65//20 3//6 67//20
f 87//21 86//21 83//22
f 70//21 69//23 76//24
f 100//25 4//8 109//25
f 113//26 112//27 13//28
f 11//29 10//30 7//7
f 196//31 190//32 189//33
f 15//34 1//35 172//1
f 1//35 9//36 180//1
f 1//35 180//1 179//1
f 173//1 1//35 179//1
f 170//37 169//38 172//1
f 169//38 15//34 172//1
f 172//1 171//39 170//37
f 175//40 174//41 173//1
f 176//1 175//40 173//1
f 173//1 172//1 1//35
f 179//1 178//1 177//1
f 177//1 176//1 179//1
f 5//42 2//4 156//43
f 2//4 1//35 166//43
f 158//2 2//4 162//43
f 1//35 15//34 167//43
f 15//34 168//44 167//43
f 149//43 17//45 5//42
f 152//43 151//43 155//43
f 151//43 150//43 156//43
f 155//43 151//43 156//43
f 150//43 149//43 5//42
f 1//35 167//43 166//43
f 166//43 165//46 164//47
f 166//43 164//47 163//43
f 150//43 5//42 156//43
f 154//48 153//48 155//43
f 153//48 152//43 155//43
f 166//43 163//43 2//4
f 162//43 161//48 159//47
f 161//48 160//46 159//47
f 163//43 162//43 2//4
f 162//43 159//47 158//2
f 157//3 156//43 2//4
f 2//4 5//42 6//5
f 3//6 6//5 7//7
f 16//49 5//42 121//9
f 5//42 17//45 121//9
f 121//9 120//50 118//9
f 16//49 121//9 117//9
f 120//50 119//51 118//9
f 22//12 6//5 133//52
f 6//5 5//42 140//52
f 5//42 16//49 142//52
f 5//42 142//52 141//53
f 124//52 123//52 127//52
f 123//52 122//52 128//10
f 127//52 123//52 128//10
f 126//54 125//55 127//52
f 125//55 124//52 127//52
f 122//52 22//12 129//55
f 5//42 141//53 140//52
f 140//52 139//55 135//52
f 139//55 138//55 136//52
f 135//52 139//55 136//52
f 138//55 137//56 136//52
f 6//5 140//52 134//52
f 140//52 135//52 134//52
f 128//10 122//52 129//55
f 6//5 134//52 133//52
f 132//10 131//57 130//11
f 130//11 129//55 22//12
f 22//12 133//52 132//10
f 11//29 7//7 143//13
f 7//7 6//5 144//13
f 143//13 7//7 144//13
f 6//5 22//12 148//14
f 148//14 147//14 6//5
f 147//14 146//13 6//5
f 145//14 144//13 6//5
f 1//35 8//19 44//15
f 8//19 34//58 32//15
f 34//58 33//59 32//15
f 8//19 32//15 50//15
f 44//15 8//19 45//15
f 35//60 9//36 1//35
f 38//61 37//15 39//60
f 37//15 36//15 39//60
f 36//15 35//60 1//35
f 32//15 31//15 53//60
f 45//15 8//19 49//15
f 31//15 30//15 55//15
f 36//15 1//35 39//60
f 8//19 50//15 49//15
f 30//15 29//15 56//15
f 50//15 32//15 51//16
f 28//58 27//62 26//63
f 39//60 1//35 44//15
f 28//58 26//63 25//15
f 29//15 28//58 25//15
f 25//15 24//15 56//15
f 24//15 57//15 56//15
f 56//15 55//15 30//15
f 56//15 29//15 25//15
f 55//15 54//15 31//15
f 42//62 41//64 40//65
f 43//66 42//62 40//65
f 53//60 52//67 51//16
f 54//15 53//60 31//15
f 43//66 40//65 44//15
f 40//65 39//60 44//15
f 53//60 51//16 32//15
f 49//15 48//68 46//16
f 48//68 47//61 46//16
f 2//4 14//69 63//18
f 62//18 61//70 60//17
f 2//4 63//18 1//35
f 63//18 62//18 1//35
f 8//19 1//35 62//18
f 59//18 58//71 8//19
f 62//18 60//17 8//19
f 19//72 20//73 66//74
f 20//73 65//20 66//74
f 64//20 14//69 2//4
f 18//75 68//76 67//20
f 67//20 66//74 65//20
f 65//20 64//20 2//4
f 2//4 3//6 65//20
f 3//6 18//75 67//20
f 4//8 23//77 92//78
f 23//77 95//79 93//78
f 92//78 23//77 93//78
f 95//79 94//21 93//78
f 77//80 18//75 78//78
f 18//75 3//6 78//78
f 4//8 92//78 91//21
f 78//78 3//6 79//22
f 3//6 4//8 87//21
f 79//22 3//6 87//21
f 87//21 4//8 90//78
f 4//8 91//21 90//78
f 90//78 89//24 88//81
f 90//78 88//81 87//21
f 82//24 81//81 83//22
f 81//81 80//22 83//22
f 80//22 79//22 87//21
f 85//82 84//22 86//21
f 84//22 83//22 86//21
f 80//22 87//21 83//22
f 20//73 19//72 69//23
f 19//72 76//24 69//23
f 76//24 75//78 70//21
f 75//78 74//22 70//21
f 74//22 73//83 72//78
f 72//78 71//24 70//21
f 72//78 70//21 74//22
f 12//84 13//28 103//25
f 13//28 106//25 104//85
f 106//25 105//86 104//85
f 104//85 103//25 13//28
f 12//84 103//25 107//25
f 108//25 107//25 102//25
f 107//25 103//25 102//25
f 111//25 110//87 109//25
f 109//25 108//25 102//25
f 21//88 111//25 4//8
f 111//25 109//25 4//8
f 23//77 4//8 97//25
f 97//25 4//8 98//25
f 97//25 96//85 23//77
f 99//25 98//25 4//8
f 99//25 4//8 100//25
f 109//25 102//25 101//89
f 109//25 101//89 100//25
f 13//28 12//84 115//90
f 12//84 116//91 115//90
f 115//90 114//92 13//28
f 114//92 113//26 13//28
f 7//7 10//30 197//32
f 4//8 7//7 197//32
f 181//32 21//88 4//8
f 182//32 181//32 4//8
f 4//8 197//32 188//32
f 197//32 196//31 189//33
f 195//93 194//94 193//95
f 183//32 182//32 4//8
f 185//31 184//95 183//32
f 187//32 186//32 4//8
f 186//32 185//31 4//8
f 188//32 187//32 4//8
f 185//31 183//32 4//8
f 196//31 195//93 190//32
f 195//93 193//95 192//96
f 190//32 195//93 191//93
f 192//96 191//93 195//93
f 189//33 188//32 197//32
