# Blender v2.81 (sub 16) OBJ File: ''
# www.blender.org
mtllib Norfolk Island.mtl
o 0_Norfolk_Island_sphere.001
v -4.275271 -2.425946 -0.911884
v -4.275304 -2.426404 -0.910460
v -4.275164 -2.427004 -0.909479
v -4.274427 -2.428300 -0.909461
v -4.273589 -2.429559 -0.910031
v -4.273118 -2.430100 -0.910814
v -4.272950 -2.430307 -0.911054
v -4.272784 -2.430545 -0.911195
v -4.272612 -2.430827 -0.911249
v -4.272933 -2.430072 -0.911782
v -4.273162 -2.429360 -0.912640
v -4.273035 -2.429296 -0.913433
v -4.272476 -2.430115 -0.913872
v -4.272373 -2.430126 -0.914333
v -4.272804 -2.429276 -0.914602
v -4.273156 -2.428521 -0.914986
v -4.273508 -2.427827 -0.915205
v -4.273891 -2.427239 -0.914980
v -4.274396 -2.426530 -0.914497
v -4.274713 -2.425972 -0.914507
v -4.274756 -2.425719 -0.914998
v -4.274435 -2.425957 -0.915894
v -4.275253 -2.424871 -0.914939
v -4.275391 -2.425150 -0.913503
vn -0.8544 -0.4887 -0.1767
vn -0.8543 -0.4885 -0.1772
vn -0.8543 -0.4887 -0.1769
vn -0.8543 -0.4886 -0.1768
vn -0.8544 -0.4885 -0.1768
vn -0.8544 -0.4885 -0.1769
vn -0.8544 -0.4884 -0.1771
vn -0.8544 -0.4886 -0.1769
vn -0.8545 -0.4884 -0.1770
vn -0.8548 -0.4878 -0.1769
vn -0.8543 -0.4887 -0.1768
vn -0.8541 -0.4890 -0.1772
vn -0.8542 -0.4891 -0.1766
vn -0.8551 -0.4875 -0.1765
vn -0.8546 -0.4882 -0.1766
vn -0.8542 -0.4885 -0.1780
vn -0.8542 -0.4888 -0.1773
vn -0.8548 -0.4878 -0.1770
vn -0.8541 -0.4888 -0.1777
usemtl None
s 1
f 18//1 16//2 12//3
f 4//3 3//4 2//5
f 1//6 24//7 19//6
f 24//7 23//8 20//9
f 4//3 2//5 11//8
f 2//5 1//6 11//8
f 6//10 5//6 11//8
f 5//6 4//3 11//8
f 7//3 6//10 10//11
f 19//6 24//7 20//9
f 6//10 11//8 10//11
f 23//8 22//12 21//13
f 23//8 21//13 20//9
f 10//11 9//14 8//15
f 8//15 7//3 10//11
f 11//8 1//6 19//6
f 14//16 13//17 15//18
f 13//17 12//3 15//18
f 12//3 11//8 19//6
f 19//6 18//1 12//3
f 18//1 17//19 16//2
f 16//2 15//18 12//3
