# Blender v2.81 (sub 16) OBJ File: ''
# www.blender.org
mtllib Northern Cyprus.mtl
o 0_Northern_Cyprus_sphere.001
v 3.364596 2.906811 -2.286571
v 3.369048 2.899279 -2.289596
v 3.437173 2.875025 -2.217451
v 3.432202 2.875025 -2.225018
v 3.412604 2.875025 -2.254854
v 3.392436 2.875025 -2.285557
v 3.394409 2.871792 -2.286621
v 3.395689 2.873830 -2.282108
v 3.396816 2.874408 -2.279665
v 3.399240 2.872507 -2.278367
v 3.401601 2.871116 -2.276524
v 3.403323 2.870522 -2.274650
v 3.404669 2.870311 -2.272867
v 3.407454 2.868919 -2.270380
v 3.409675 2.869218 -2.266621
v 3.412500 2.870362 -2.260881
v 3.416049 2.867601 -2.258954
v 3.416334 2.867916 -2.258122
v 3.412635 2.874859 -2.255015
v 3.434212 2.873928 -2.223339
v 3.436072 2.874079 -2.220316
v 3.392561 2.872383 -2.288690
v 3.360718 2.908349 -2.290177
v 3.352605 2.912502 -2.296560
v 3.345371 2.914752 -2.304057
v 3.351988 2.909937 -2.300625
v 3.412223 2.877653 -2.252013
v 3.412886 2.879202 -2.248987
v 3.415523 2.878577 -2.245786
v 3.418441 2.878780 -2.241080
v 3.419973 2.879976 -2.237191
v 3.425561 2.878061 -2.231177
v 3.430407 2.875949 -2.226548
v 3.438304 2.875979 -2.214486
v 3.439519 2.878112 -2.209861
v 3.438734 2.879923 -2.208700
v 3.436885 2.879079 -2.212613
v 3.431828 2.880521 -2.218433
v 3.425858 2.887432 -2.218528
v 3.420460 2.895436 -2.216329
v 3.414751 2.893109 -2.228050
v 3.408256 2.891919 -2.239486
v 3.402606 2.891514 -2.248613
v 3.395997 2.892837 -2.256954
v 3.373066 2.901485 -2.280607
v 3.364991 2.906626 -2.286211
v 3.385487 2.888511 -2.278583
v 3.390600 2.882147 -2.279082
v 3.392314 2.877721 -2.282233
vn 0.6876 0.5684 -0.4517
vn 0.6812 0.5794 -0.4475
vn 0.6809 0.5799 -0.4473
vn 0.6874 0.5685 -0.4519
vn 0.6876 0.5683 -0.4519
vn 0.6876 0.5685 -0.4516
vn 0.6657 0.5813 -0.4678
vn 0.6800 0.5813 -0.4466
vn 0.6800 0.5814 -0.4467
vn 0.6878 0.5683 -0.4517
vn 0.6855 0.5721 -0.4503
vn 0.6828 0.5769 -0.4483
vn 0.6890 0.5671 -0.4514
vn 0.6876 0.5685 -0.4517
vn 0.6875 0.5684 -0.4519
vn 0.6876 0.5683 -0.4517
vn 0.6874 0.5683 -0.4522
vn 0.6875 0.5683 -0.4519
vn 0.6876 0.5684 -0.4516
vn 0.6878 0.5689 -0.4508
vn 0.6873 0.5681 -0.4527
vn 0.6712 0.5814 -0.4597
vn 0.6757 0.5814 -0.4531
vn 0.6800 0.5813 -0.4467
vn 0.6802 0.5814 -0.4464
vn 0.6801 0.5813 -0.4467
vn 0.6801 0.5813 -0.4466
usemtl None
s 1
f 21//1 4//2 3//3
f 10//4 9//5 13//6
f 26//7 24//7 23//7
f 3//3 37//8 34//9
f 21//1 20//10 4//2
f 6//11 5//12 9//5
f 5//12 19//13 15//14
f 9//5 5//12 13//6
f 19//13 18//15 16//16
f 18//15 17//17 16//16
f 16//16 15//14 19//13
f 15//14 14//18 13//6
f 7//6 22//6 6//11
f 8//19 7//6 6//11
f 13//6 12//20 10//4
f 12//20 11//21 10//4
f 15//14 13//6 5//12
f 9//5 8//19 6//11
f 1//22 2//23 23//7
f 2//23 26//7 23//7
f 26//7 25//7 24//7
f 5//12 6//11 49//9
f 5//12 49//9 48//9
f 27//9 5//12 44//24
f 5//12 48//9 44//24
f 47//24 2//23 45//24
f 2//23 1//22 46//25
f 48//9 47//24 44//24
f 30//24 29//24 42//24
f 29//24 28//9 42//24
f 28//9 27//9 43//24
f 2//23 46//25 45//24
f 27//9 44//24 43//24
f 31//24 30//24 42//24
f 28//9 43//24 42//24
f 47//24 45//24 44//24
f 32//24 31//24 41//24
f 31//24 42//24 41//24
f 41//24 40//26 39//24
f 3//3 4//2 38//24
f 4//2 33//9 38//24
f 33//9 32//24 39//24
f 32//24 41//24 39//24
f 39//24 38//24 33//9
f 37//8 36//27 35//27
f 38//24 37//8 3//3
f 37//8 35//27 34//9
