# Blender v2.81 (sub 16) OBJ File: ''
# www.blender.org
mtllib Northern Mariana Islands.mtl
o 0_Northern_Mariana_Islands_sphere.001
v -3.982039 1.218874 -2.766052
v -3.980149 1.219688 -2.768390
v -3.978804 1.221032 -2.769723
v -3.978074 1.223291 -2.769785
v -3.981553 1.225489 -2.763886
v -3.983308 1.224718 -2.761721
v -3.983653 1.222842 -2.762042
vn -0.7940 0.2411 -0.5580
vn -0.7940 0.2410 -0.5580
vn -0.7941 0.2413 -0.5578
vn -0.7940 0.2412 -0.5580
vn -0.7939 0.2413 -0.5580
usemtl None
s 1
f 2//1 1//2 5//1
f 6//3 5//1 7//1
f 5//1 4//4 2//1
f 7//1 5//1 1//2
f 4//4 3//5 2//1
o 1_Northern_Mariana_Islands_sphere.001
v -3.987165 1.287204 -2.727966
v -3.984291 1.293900 -2.728969
v -3.983464 1.296585 -2.728907
v -3.984761 1.299071 -2.725916
v -3.985868 1.299014 -2.724366
v -3.988242 1.291504 -2.724452
vn -0.7908 0.2562 -0.5558
vn -0.7908 0.2563 -0.5557
vn -0.7908 0.2564 -0.5557
vn -0.7909 0.2561 -0.5558
usemtl None
s 1
f 9//6 8//6 13//6
f 13//6 12//7 9//6
f 12//7 11//8 9//6
f 11//8 10//9 9//6
o 2_Northern_Mariana_Islands_sphere.001
v -3.989557 1.315976 -2.711297
v -3.989980 1.314047 -2.711585
v -3.990470 1.316436 -2.709686
v -3.989929 1.303088 -2.716710
v -3.987363 1.303606 -2.720124
v -3.986452 1.304578 -2.720971
v -3.986184 1.312185 -2.717844
v -3.988959 1.315738 -2.712259
v -3.989689 1.312824 -2.712563
v -3.990290 1.308782 -2.713572
v -3.989579 1.305275 -2.716201
vn -0.7945 0.2562 -0.5506
vn -0.8080 0.2560 -0.5307
vn -0.8008 0.2561 -0.5414
vn -0.7908 0.2563 -0.5558
vn -0.7908 0.2562 -0.5558
vn -0.7909 0.2563 -0.5557
usemtl None
s 1
f 15//10 16//11 14//12
f 23//13 22//13 20//13
f 15//10 14//12 21//14
f 21//14 20//13 22//13
f 20//13 19//13 24//13
f 21//14 22//13 15//10
f 19//13 18//13 24//13
f 18//13 17//15 24//13
f 24//13 23//13 20//13
o 3_Northern_Mariana_Islands_sphere.001
v -3.963154 1.405977 -2.704511
v -3.961556 1.406274 -2.706630
v -3.960152 1.407575 -2.707951
v -3.959371 1.409796 -2.707908
v -3.962440 1.409940 -2.703465
v -3.963998 1.408298 -2.702102
v -3.964064 1.406565 -2.702910
vn -0.7838 0.2865 -0.5510
vn -0.7838 0.2865 -0.5508
vn -0.7838 0.2865 -0.5509
vn -0.7838 0.2866 -0.5508
vn -0.7839 0.2865 -0.5508
usemtl None
s 1
f 26//16 25//17 29//18
f 30//19 29//18 31//20
f 29//18 28//20 27//18
f 31//20 29//18 25//17
f 27//18 26//16 29//18
o 4_Northern_Mariana_Islands_sphere.001
v -3.929199 1.558804 -2.670279
v -3.930662 1.553500 -2.671274
v -3.928295 1.549767 -2.676808
v -3.928923 1.557938 -2.671174
v -3.930100 1.551612 -2.673169
v -3.929374 1.559380 -2.669662
v -3.931468 1.556388 -2.668292
vn -0.7760 0.3166 -0.5455
vn -0.7761 0.3164 -0.5455
vn -0.7802 0.3166 -0.5395
vn -0.7928 0.3165 -0.5208
vn -0.7887 0.3166 -0.5271
vn -0.7927 0.3165 -0.5210
usemtl None
s 1
f 35//21 36//22 33//23
f 38//24 32//25 33//23
f 33//23 32//25 35//21
f 35//21 34//22 36//22
f 38//24 37//26 32//25
o 5_Northern_Mariana_Islands_sphere.001
v -3.910627 1.605054 -2.669869
v -3.908798 1.607329 -2.671152
v -3.907223 1.611805 -2.670794
v -3.909477 1.611403 -2.667821
v -3.910511 1.610467 -2.666893
v -3.911237 1.608149 -2.667205
vn -0.7761 0.3165 -0.5455
vn -0.7761 0.3164 -0.5454
vn -0.7759 0.3165 -0.5456
vn -0.7761 0.3164 -0.5455
usemtl None
s 1
f 42//27 40//28 44//28
f 44//28 43//29 42//27
f 42//27 41//30 40//28
f 40//28 39//30 44//28
