# Blender v2.81 (sub 16) OBJ File: ''
# www.blender.org
mtllib Palau.mtl
o 0_Palau_sphere.001
v -3.285253 0.263563 -3.759397
v -3.284239 0.263852 -3.760242
v -3.284355 0.265093 -3.760053
v -3.285309 0.266370 -3.759146
v -3.286635 0.266938 -3.757972
v -3.287639 0.266504 -3.757146
v -3.287599 0.265326 -3.757265
v -3.286733 0.263940 -3.758106
vn -0.6484 0.0549 -0.7593
vn -0.6484 0.0550 -0.7592
vn -0.6485 0.0551 -0.7592
vn -0.6485 0.0548 -0.7593
vn -0.6485 0.0548 -0.7591
vn -0.6485 0.0548 -0.7592
vn -0.6487 0.0547 -0.7591
usemtl None
s 1
f 8//1 7//2 5//1
f 6//3 5//1 7//2
f 5//1 4//4 8//1
f 4//4 3//5 1//6
f 3//5 2//7 1//6
f 1//6 8//1 4//4
o 1_Palau_sphere.001
v -3.477397 0.640497 -3.534364
v -3.475003 0.647102 -3.535449
v -3.474864 0.654771 -3.534150
v -3.476830 0.660671 -3.531142
v -3.479362 0.662569 -3.528334
v -3.479855 0.663249 -3.527730
v -3.481795 0.670899 -3.524420
v -3.482707 0.666679 -3.524324
v -3.482364 0.652660 -3.527277
v -3.480712 0.647205 -3.529898
v -3.481033 0.642348 -3.530494
vn -0.6897 0.1330 -0.7117
vn -0.6897 0.1330 -0.7118
vn -0.6898 0.1330 -0.7117
vn -0.6898 0.1330 -0.7116
vn -0.6896 0.1331 -0.7118
usemtl None
s 1
f 11//8 10//9 18//8
f 16//10 15//11 14//9
f 13//12 12//8 17//8
f 12//8 11//8 17//8
f 16//10 14//9 17//8
f 14//9 13//12 17//8
f 18//8 17//8 11//8
f 9//9 19//8 10//9
f 19//8 18//8 10//9
