# Blender v2.81 (sub 16) OBJ File: ''
# www.blender.org
mtllib Palestine.mtl
o 0_Palestine_sphere.001
v 3.532581 2.599303 -2.400733
v 3.532762 2.598939 -2.400856
v 3.517322 2.612492 -2.408638
v 3.513175 2.612492 -2.414539
v 3.532703 2.599205 -2.400656
v 3.510985 2.618631 -2.410996
v 3.510649 2.615434 -2.414942
v 3.511180 2.614252 -2.415468
v 3.534954 2.590647 -2.406419
v 3.533243 2.596909 -2.402298
v 3.518656 2.611177 -2.408115
v 3.524725 2.602141 -2.408940
v 3.527415 2.596903 -2.410597
vn 0.7051 0.5155 -0.4869
vn 0.7159 0.5152 -0.4712
vn 0.7041 0.5144 -0.4896
vn 0.6942 0.5291 -0.4879
vn 0.6960 0.5256 -0.4892
vn 0.6941 0.5291 -0.4880
vn 0.7010 0.5156 -0.4926
vn 0.7009 0.5157 -0.4926
vn 0.6991 0.5194 -0.4913
vn 0.6938 0.5293 -0.4882
vn 0.7009 0.5158 -0.4926
vn 0.7009 0.5157 -0.4927
usemtl None
s 1
f 1//1 5//2 2//3
f 6//4 4//5 7//6
f 11//7 1//1 12//8
f 3//9 4//5 6//4
f 4//5 8//10 7//6
f 1//1 2//3 10//8
f 10//8 9//11 13//12
f 12//8 4//5 11//7
f 4//5 3//9 11//7
f 10//8 13//12 1//1
f 13//12 12//8 1//1
o 1_Palestine_sphere.001
v 3.456056 2.679133 -2.423542
v 3.437245 2.679133 -2.450307
v 3.495370 2.612492 -2.439873
v 3.472315 2.612492 -2.472677
v 3.457992 2.631974 -2.471930
v 3.464027 2.625079 -2.470819
v 3.469620 2.616929 -2.471699
v 3.493533 2.614974 -2.439794
v 3.490141 2.619823 -2.439363
v 3.483871 2.625084 -2.442579
v 3.476482 2.629629 -2.448163
v 3.473734 2.630788 -2.450816
v 3.473010 2.632717 -2.449755
v 3.474489 2.635725 -2.444388
v 3.476846 2.637286 -2.439342
v 3.480650 2.635722 -2.435625
v 3.481325 2.636213 -2.434132
v 3.480962 2.637529 -2.433221
v 3.478972 2.639385 -2.434039
v 3.476710 2.642862 -2.433488
v 3.474210 2.648661 -2.430756
v 3.470908 2.655745 -2.427773
v 3.468772 2.661200 -2.424896
v 3.462386 2.670105 -2.424325
v 3.459742 2.674332 -2.423503
v 3.434628 2.678629 -2.454577
v 3.439658 2.666991 -2.460042
v 3.446316 2.656985 -2.461418
v 3.450902 2.648233 -2.464385
v 3.452759 2.683354 -2.423493
v 3.444482 2.688757 -2.429204
v 3.440633 2.687191 -2.436439
v 3.438362 2.686808 -2.440100
v 3.437879 2.685745 -2.441981
v 3.438841 2.682636 -2.444102
v 3.473356 2.610752 -2.473017
v 3.475022 2.611017 -2.470368
v 3.482899 2.606488 -2.463903
v 3.492504 2.602253 -2.454669
v 3.501323 2.601161 -2.443264
v 3.501861 2.602435 -2.441165
v 3.501154 2.604553 -2.439954
vn 0.6942 0.5292 -0.4879
vn 0.6942 0.5290 -0.4880
vn 0.6942 0.5291 -0.4879
vn 0.6915 0.5343 -0.4860
vn 0.6873 0.5423 -0.4831
vn 0.6873 0.5424 -0.4831
vn 0.7009 0.5157 -0.4926
vn 0.6983 0.5210 -0.4908
vn 0.6973 0.5231 -0.4901
vn 0.6943 0.5291 -0.4879
vn 0.6931 0.5313 -0.4871
vn 0.6940 0.5292 -0.4881
vn 0.6940 0.5294 -0.4879
vn 0.6876 0.5422 -0.4829
vn 0.6874 0.5423 -0.4830
vn 0.6873 0.5424 -0.4830
vn 0.7009 0.5157 -0.4927
vn 0.7008 0.5159 -0.4925
vn 0.7009 0.5156 -0.4927
usemtl None
s 1
f 33//13 28//14 27//15
f 14//16 48//17 45//18
f 51//19 50//19 16//20
f 16//20 17//21 21//15
f 17//21 20//13 24//15
f 21//15 17//21 23//15
f 19//15 18//15 25//15
f 18//15 42//15 26//15
f 20//13 19//15 25//15
f 23//15 22//22 21//15
f 23//15 17//21 24//15
f 18//15 26//15 25//15
f 42//15 41//15 34//15
f 26//15 42//15 27//15
f 41//15 40//15 37//15
f 40//15 39//22 15//23
f 15//23 14//16 38//15
f 38//15 37//15 15//23
f 37//15 36//24 35//15
f 35//15 34//15 41//15
f 34//15 33//13 27//15
f 32//15 31//15 29//15
f 31//15 30//25 29//15
f 37//15 35//15 41//15
f 33//13 32//15 28//14
f 32//15 29//15 28//14
f 37//15 40//15 15//23
f 25//15 24//15 20//13
f 34//15 27//15 42//15
f 14//16 15//23 48//17
f 48//17 47//26 46//17
f 45//18 44//27 43//28
f 48//17 46//17 45//18
f 43//28 14//16 45//18
f 17//21 16//20 50//19
f 16//20 55//29 53//19
f 55//29 54//30 53//19
f 53//19 52//19 16//20
f 52//19 51//19 16//20
f 50//19 49//31 17//21
