# Blender v2.81 (sub 16) OBJ File: ''
# www.blender.org
mtllib Panama.mtl
o 0_Panama_sphere.001
v 0.719383 0.637624 4.906068
v 0.709717 0.641319 4.906942
v 0.702552 0.648496 4.906989
v 0.701954 0.650828 4.906758
v 0.702041 0.653197 4.906424
v 0.705743 0.660522 4.904904
v 0.710821 0.663059 4.903837
v 0.712834 0.663020 4.903556
v 0.717916 0.654574 4.903978
v 0.714631 0.651282 4.904892
v 0.716080 0.646054 4.905395
v 0.723115 0.642173 4.904920
v 0.724079 0.638086 4.905337
vn 0.1397 0.1331 0.9812
vn 0.1396 0.1331 0.9812
vn 0.1396 0.1330 0.9812
usemtl None
s 1
f 3//1 2//2 10//2
f 13//2 12//2 1//2
f 12//2 11//2 1//2
f 10//2 9//1 8//3
f 10//2 8//3 7//2
f 2//2 1//2 11//2
f 11//2 10//2 2//2
f 10//2 7//2 6//2
f 5//1 10//2 6//2
f 5//1 4//1 10//2
f 4//1 3//1 10//2
o 1_Panama_sphere.001
v 0.934871 0.713966 4.859468
v 0.933306 0.717588 4.859236
v 0.935839 0.721339 4.858135
v 0.936765 0.721372 4.857938
v 0.938550 0.717778 4.858121
vn 0.2005 0.1487 0.9683
vn 0.2006 0.1487 0.9683
vn 0.2010 0.1488 0.9682
vn 0.2007 0.1488 0.9683
usemtl None
s 1
f 15//4 14//5 18//5
f 18//5 17//6 16//7
f 16//7 15//4 18//5
o 2_Panama_sphere.001
v 0.951096 0.715849 4.855819
v 0.946901 0.723996 4.855436
v 0.947471 0.726092 4.854996
v 0.946985 0.733451 4.853966
v 0.950705 0.735373 4.852901
v 0.953471 0.735545 4.852301
v 0.955787 0.734505 4.851981
v 0.957481 0.725839 4.852962
v 0.956397 0.721922 4.853788
v 0.952654 0.719491 4.854937
vn 0.2006 0.1487 0.9683
vn 0.2004 0.1487 0.9683
vn 0.2005 0.1487 0.9683
vn 0.2005 0.1488 0.9683
vn 0.2004 0.1487 0.9684
vn 0.2003 0.1488 0.9684
vn 0.2007 0.1487 0.9683
vn 0.2007 0.1488 0.9683
usemtl None
s 1
f 28//8 27//9 21//10
f 26//11 25//11 23//11
f 25//11 24//12 23//11
f 23//11 22//13 21//10
f 21//10 20//14 28//8
f 20//14 19//15 28//8
f 23//11 21//10 26//11
f 27//9 26//11 21//10
o 3_Panama_sphere.001
v 0.665712 0.810844 4.888016
v 0.658977 0.818087 4.887758
v 0.662863 0.819271 4.887006
v 0.664263 0.819137 4.886829
v 0.666559 0.814849 4.887223
vn 0.1390 0.1641 0.9766
vn 0.1391 0.1641 0.9766
vn 0.1390 0.1640 0.9766
vn 0.1392 0.1639 0.9766
usemtl None
s 1
f 30//16 29//17 33//18
f 33//18 32//19 31//18
f 31//18 30//16 33//18
o 4_Panama_sphere.001
v 1.079833 0.704504 4.830902
v 0.774367 0.704504 4.889173
v 1.005323 0.704504 4.846332
v 0.797836 0.782170 4.873215
v 0.904003 0.782170 4.854686
v 0.613443 0.704504 4.911853
v 0.615756 0.704504 4.911597
v 0.772876 0.767816 4.879764
v 0.775218 0.664002 4.894544
v 0.619166 0.782170 4.899458
v 0.672009 0.782170 4.891938
v 0.703791 0.782170 4.887415
v 0.713093 0.782170 4.886091
v 1.078197 0.754300 4.823590
v 1.078318 0.750630 4.824129
v 1.078976 0.730587 4.827072
v 1.080924 0.667239 4.835786
v 0.923938 0.828025 4.843464
v 0.925331 0.783326 4.850769
v 0.933161 0.782170 4.849344
v 1.045197 0.782170 4.826143
v 0.713699 0.704504 4.897807
v 1.093064 0.704504 4.827725
v 0.619168 0.770459 4.901237
v 0.620102 0.720972 4.908625
v 0.820248 0.704504 4.881165
v 0.617886 0.833116 4.891081
v 0.618944 0.782321 4.899465
v 1.080428 0.752685 4.823305
v 1.078888 0.751509 4.823857
v 1.080322 0.726225 4.827424
v 1.083944 0.719125 4.827653
v 1.089473 0.712012 4.827426
v 1.095785 0.698756 4.827866
v 1.097321 0.693443 4.828231
v 1.095739 0.689992 4.829087
v 1.090183 0.687892 4.830711
v 1.085085 0.681707 4.832789
v 1.083879 0.674160 4.834121
v 1.084995 0.670419 4.834369
v 0.624486 0.829170 4.890805
v 0.631314 0.825694 4.890417
v 0.634091 0.826836 4.889830
v 0.636158 0.828530 4.889251
v 0.637607 0.830190 4.888766
v 0.638050 0.831778 4.888436
v 0.643526 0.827171 4.888431
v 0.654742 0.819007 4.888206
v 0.655474 0.814991 4.888777
v 0.654528 0.811138 4.889559
v 0.657813 0.800119 4.890943
v 0.663583 0.798509 4.890391
v 0.669304 0.800640 4.889219
v 0.670774 0.798599 4.889353
v 0.669746 0.796565 4.889841
v 0.666830 0.794291 4.890638
v 0.666305 0.784813 4.892305
v 0.701480 0.786009 4.887099
v 0.695494 0.791655 4.887002
v 0.695921 0.794180 4.886517
v 0.700412 0.792306 4.886193
v 0.703894 0.788460 4.886343
v 0.711720 0.783714 4.886027
v 0.712053 0.707661 4.897561
v 0.700656 0.710064 4.898818
v 0.690899 0.714360 4.899554
v 0.680326 0.715023 4.900958
v 0.674989 0.712611 4.902084
v 0.669414 0.715684 4.902411
v 0.668320 0.722640 4.901509
v 0.657326 0.719540 4.903545
v 0.643104 0.720632 4.905403
v 0.630348 0.723639 4.906762
v 0.621698 0.722067 4.908232
v 0.624237 0.773409 4.900068
v 0.625243 0.774926 4.899694
v 0.624048 0.777997 4.899398
v 0.620413 0.781329 4.899408
v 0.675861 0.780385 4.891661
v 0.680666 0.776468 4.891572
v 0.696314 0.778296 4.889067
v 0.702117 0.777259 4.888399
v 0.706032 0.778395 4.887669
v 0.726298 0.767171 4.886490
v 0.742697 0.763187 4.884762
v 0.755573 0.763728 4.882848
v 0.767538 0.765996 4.880800
v 0.922964 0.827971 4.843644
v 0.921351 0.783886 4.851369
v 0.904855 0.782648 4.854457
v 0.799967 0.784011 4.872533
v 0.810818 0.789159 4.869770
v 0.846140 0.800147 4.861750
v 0.858466 0.811684 4.857650
v 0.863751 0.813192 4.856473
v 0.868804 0.814645 4.855346
v 0.879745 0.823362 4.851964
v 0.885548 0.830167 4.849802
v 0.891794 0.833575 4.848137
v 0.910674 0.831147 4.845253
v 0.820547 0.702455 4.881392
v 0.824801 0.698250 4.881223
v 0.828566 0.695599 4.880927
v 0.837761 0.682940 4.881048
v 0.853952 0.666979 4.880397
v 0.857080 0.661160 4.880645
v 0.859734 0.652532 4.881357
v 0.855059 0.648476 4.882726
v 0.851396 0.646768 4.883598
v 0.836356 0.646101 4.886313
v 0.831238 0.642639 4.887679
v 0.829252 0.637365 4.888744
v 0.823724 0.633075 4.890294
v 0.804383 0.628841 4.894246
v 0.789133 0.628377 4.896971
v 0.784288 0.633318 4.897143
v 0.782854 0.647187 4.895503
v 0.772072 0.670867 4.894061
v 0.769272 0.687175 4.892248
v 0.766737 0.685146 4.892883
v 0.761310 0.683240 4.893914
v 0.759543 0.679179 4.894717
v 0.758417 0.667148 4.896508
v 0.756485 0.663043 4.897340
v 0.752247 0.663424 4.897892
v 0.743487 0.667714 4.898557
v 0.731891 0.671657 4.899672
v 0.716703 0.697151 4.898376
v 0.715026 0.701934 4.897966
v 0.611876 0.786980 4.899465
v 0.606813 0.787317 4.899968
v 0.606269 0.803571 4.897307
v 0.606173 0.820821 4.894432
v 0.607400 0.822528 4.894011
v 0.610471 0.823574 4.893496
v 0.612874 0.826197 4.892792
v 0.614158 0.831303 4.891796
v 0.614497 0.717132 4.909825
v 0.613207 0.707130 4.911481
v 0.610558 0.713084 4.910872
v 0.607398 0.718015 4.910475
v 0.600877 0.723121 4.910422
v 0.600498 0.724993 4.910181
v 0.603012 0.727580 4.909512
v 0.614551 0.735008 4.907113
v 0.615931 0.738103 4.906492
v 0.615996 0.744531 4.905512
v 0.614760 0.750689 4.904716
v 0.609327 0.759743 4.903946
v 0.612233 0.765362 4.902775
v 0.618157 0.769866 4.901439
v 0.613642 0.701958 4.912175
v 0.931337 0.828369 4.841874
v 0.939460 0.826084 4.840580
v 0.943136 0.821131 4.840660
v 0.946856 0.819024 4.840248
v 0.966634 0.819537 4.836065
v 0.982946 0.817060 4.833107
v 1.018989 0.802425 4.828129
v 1.040737 0.787958 4.826083
v 1.052528 0.772586 4.826097
v 1.074449 0.744701 4.825841
v 1.072079 0.738873 4.827228
v 1.078304 0.732743 4.826880
v 1.007439 0.707758 4.845394
v 1.004931 0.717150 4.844471
v 1.013265 0.724293 4.841647
v 1.016339 0.729108 4.840271
v 1.018741 0.728552 4.839859
v 1.024576 0.720366 4.839908
v 1.032842 0.715676 4.838917
v 1.043040 0.708867 4.837851
v 1.049264 0.707322 4.836799
v 1.041219 0.714468 4.837368
v 1.027430 0.723880 4.838777
v 1.023473 0.730059 4.838647
v 1.019631 0.738674 4.838120
v 1.014476 0.734950 4.839759
v 1.012126 0.731804 4.840729
v 1.009450 0.730018 4.841558
v 1.007020 0.732157 4.841732
v 1.006505 0.734939 4.841411
v 0.998551 0.735485 4.842975
v 0.996417 0.738011 4.843029
v 0.994278 0.739433 4.843253
v 0.995399 0.734055 4.843847
v 0.997062 0.730737 4.844013
v 0.996345 0.726739 4.844775
v 0.993771 0.726452 4.845353
v 0.991432 0.730597 4.845200
v 0.988495 0.734341 4.845233
v 0.984252 0.750000 4.843706
v 0.975004 0.757394 4.844485
v 0.970804 0.759852 4.844977
v 0.967348 0.760780 4.845550
v 0.962189 0.765811 4.845846
v 0.955479 0.768504 4.846821
v 0.946204 0.776305 4.847544
v 0.934976 0.781908 4.849008
v 1.069495 0.658319 4.839375
v 1.065467 0.656310 4.840486
v 1.062688 0.658161 4.840807
v 1.059138 0.664212 4.840713
v 1.054958 0.669099 4.840908
v 1.052736 0.670804 4.841134
v 1.051475 0.670893 4.841383
v 1.050232 0.669756 4.841796
v 1.049733 0.667098 4.842264
v 1.052152 0.655752 4.843319
v 1.050524 0.651140 4.844288
v 1.045236 0.647613 4.845867
v 1.039569 0.629130 4.849576
v 1.037091 0.631465 4.849768
v 1.016031 0.656312 4.850722
v 0.997575 0.687112 4.850322
v 0.993538 0.701049 4.849247
v 0.998064 0.701878 4.848196
v 1.002495 0.701552 4.847323
v 1.004807 0.703705 4.846549
v 0.899378 0.779543 4.855895
v 0.895697 0.775602 4.857139
v 0.893990 0.773766 4.857717
v 0.884336 0.769239 4.860094
v 0.880808 0.762719 4.861705
v 0.878618 0.757219 4.862927
v 0.873918 0.750953 4.864705
v 0.879581 0.747194 4.864291
v 0.848224 0.725968 4.873004
v 0.841977 0.722887 4.874566
v 0.827690 0.720715 4.877391
v 0.824432 0.718456 4.878304
v 0.820175 0.714259 4.879688
v 0.819744 0.707878 4.880738
v 0.786473 0.772424 4.876687
vn 0.2005 0.1487 0.9683
vn 0.1393 0.1509 0.9787
vn 0.1393 0.1487 0.9790
vn 0.2309 0.1487 0.9615
vn 0.2304 0.1488 0.9616
vn 0.2159 0.1409 0.9662
vn 0.2096 0.1488 0.9664
vn 0.2056 0.1488 0.9672
vn 0.2313 0.1331 0.9637
vn 0.2314 0.1331 0.9637
vn 0.1390 0.1641 0.9766
vn 0.1391 0.1589 0.9774
vn 0.1391 0.1641 0.9766
vn 0.1696 0.1641 0.9717
vn 0.1697 0.1641 0.9717
vn 0.1703 0.1331 0.9763
vn 0.1704 0.1331 0.9763
vn 0.1705 0.1331 0.9763
vn 0.1396 0.1331 0.9812
vn 0.1549 0.1409 0.9778
vn 0.1082 0.1640 0.9805
vn 0.1082 0.1641 0.9805
vn 0.1081 0.1641 0.9805
vn 0.1084 0.1487 0.9829
vn 0.1085 0.1487 0.9829
vn 0.1088 0.1413 0.9839
vn 0.1088 0.1331 0.9851
vn 0.1086 0.1430 0.9837
vn 0.2000 0.1634 0.9661
vn 0.2000 0.1641 0.9659
vn 0.1863 0.1641 0.9687
vn 0.2010 0.1331 0.9705
vn 0.2009 0.1330 0.9705
vn 0.1700 0.1488 0.9741
vn 0.1699 0.1521 0.9736
vn 0.1700 0.1487 0.9741
vn 0.2030 0.1487 0.9678
vn 0.2005 0.1488 0.9683
vn 0.2001 0.1485 0.9684
vn 0.2008 0.1379 0.9698
vn 0.2005 0.1486 0.9683
vn 0.2004 0.1488 0.9683
vn 0.2003 0.1489 0.9683
vn 0.2004 0.1533 0.9676
vn 0.2001 0.1486 0.9684
vn 0.2007 0.1484 0.9683
vn 0.2006 0.1487 0.9683
vn 0.2004 0.1487 0.9683
vn 0.2007 0.1487 0.9683
vn 0.2003 0.1487 0.9684
vn 0.1394 0.1433 0.9798
vn 0.1579 0.1488 0.9762
vn 0.1394 0.1487 0.9790
vn 0.1393 0.1488 0.9790
vn 0.1393 0.1489 0.9790
vn 0.1392 0.1487 0.9790
vn 0.1392 0.1529 0.9784
vn 0.1394 0.1488 0.9790
vn 0.1291 0.1488 0.9804
vn 0.1180 0.1488 0.9818
vn 0.1392 0.1488 0.9790
vn 0.1388 0.1490 0.9790
vn 0.1381 0.1611 0.9772
vn 0.1393 0.1485 0.9790
vn 0.2311 0.1388 0.9630
vn 0.2308 0.1487 0.9615
vn 0.2314 0.1489 0.9614
vn 0.2100 0.1331 0.9686
vn 0.2315 0.1330 0.9637
vn 0.2316 0.1330 0.9637
vn 0.2313 0.1330 0.9637
vn 0.2318 0.1331 0.9636
vn 0.1390 0.1642 0.9766
vn 0.1391 0.1642 0.9766
vn 0.1391 0.1640 0.9766
vn 0.1390 0.1640 0.9766
vn 0.1230 0.1641 0.9787
vn 0.1281 0.1642 0.9781
vn 0.1396 0.1641 0.9765
vn 0.1388 0.1641 0.9766
vn 0.1389 0.1642 0.9766
vn 0.1698 0.1616 0.9721
vn 0.1696 0.1640 0.9717
vn 0.1850 0.1641 0.9689
vn 0.1692 0.1641 0.9718
vn 0.1694 0.1638 0.9718
vn 0.1695 0.1641 0.9717
vn 0.1664 0.1331 0.9770
vn 0.1704 0.1330 0.9763
vn 0.1707 0.1332 0.9763
vn 0.1701 0.1331 0.9764
vn 0.1702 0.1330 0.9763
vn 0.1702 0.1403 0.9753
vn 0.1397 0.1332 0.9812
vn 0.1397 0.1331 0.9812
vn 0.1400 0.1331 0.9812
vn 0.1396 0.1325 0.9813
vn 0.1083 0.1641 0.9805
vn 0.1084 0.1642 0.9804
vn 0.1085 0.1641 0.9804
vn 0.1083 0.1640 0.9805
vn 0.1084 0.1639 0.9805
vn 0.1084 0.1488 0.9829
vn 0.1088 0.1488 0.9828
vn 0.1086 0.1488 0.9829
vn 0.1087 0.1487 0.9829
vn 0.1086 0.1487 0.9829
vn 0.1082 0.1488 0.9829
vn 0.1083 0.1487 0.9829
vn 0.1998 0.1640 0.9660
vn 0.1999 0.1642 0.9659
vn 0.2000 0.1642 0.9659
vn 0.2011 0.1330 0.9705
vn 0.2010 0.1330 0.9705
vn 0.2009 0.1331 0.9705
vn 0.2010 0.1332 0.9705
vn 0.2011 0.1331 0.9705
vn 0.2015 0.1329 0.9704
vn 0.2013 0.1330 0.9704
vn 0.1700 0.1489 0.9741
vn 0.1703 0.1486 0.9741
vn 0.1702 0.1484 0.9742
vn 0.1701 0.1488 0.9741
vn 0.1699 0.1488 0.9742
usemtl None
s 1
f 215//20 210//20 217//20
f 44//21 109//22 108//22
f 65//23 64//24 34//25
f 63//24 47//26 48//27
f 70//28 67//29 34//25
f 91//30 45//31 95//32
f 83//30 81//30 80//30
f 133//33 130//33 123//34
f 138//35 137//36 143//37
f 154//38 152//38 35//39
f 166//40 165//41 168//42
f 177//43 174//44 171//43
f 39//45 185//46 40//47
f 53//48 188//49 52//50
f 247//51 241//52 240//52
f 261//53 37//54 263//55
f 34//25 49//56 206//57
f 49//56 197//58 196//20
f 206//57 49//56 196//20
f 198//20 36//59 205//60
f 36//59 34//25 206//57
f 200//57 199//20 198//20
f 202//61 201//62 200//57
f 205//60 204//57 198//20
f 204//57 203//20 198//20
f 203//20 202//61 200//57
f 195//20 48//27 47//26
f 194//20 54//63 210//20
f 54//63 53//48 232//60
f 195//20 47//26 194//20
f 196//20 195//20 194//20
f 54//63 232//60 231//57
f 231//57 230//64 229//20
f 54//63 231//57 229//20
f 196//20 194//20 210//20
f 207//20 196//20 208//20
f 203//20 200//57 198//20
f 54//63 229//20 227//20
f 226//20 54//63 227//20
f 229//20 228//65 227//20
f 206//57 205//60 36//59
f 209//20 208//20 196//20
f 210//20 209//20 196//20
f 207//20 206//57 196//20
f 54//63 226//20 225//20
f 225//20 224//66 218//57
f 224//66 223//20 219//20
f 54//63 225//20 210//20
f 224//66 219//20 218//57
f 223//20 222//20 220//67
f 219//20 223//20 220//67
f 222//20 221//68 220//67
f 213//69 212//61 214//67
f 212//61 211//66 215//20
f 214//67 212//61 215//20
f 211//66 210//20 215//20
f 210//20 225//20 218//57
f 217//20 216//57 215//20
f 210//20 218//57 217//20
f 55//70 35//39 97//22
f 35//39 41//71 120//72
f 35//39 120//72 119//22
f 97//22 35//39 118//22
f 99//22 98//22 117//22
f 98//22 97//22 117//22
f 35//39 119//22 118//22
f 97//22 118//22 117//22
f 102//73 101//74 100//75
f 100//75 99//22 103//73
f 117//22 46//76 116//22
f 46//76 45//31 116//22
f 99//22 117//22 115//73
f 103//73 102//73 100//75
f 105//73 104//77 108//22
f 104//77 103//73 108//22
f 106//73 105//73 108//22
f 99//22 115//73 114//73
f 103//73 99//22 113//73
f 114//73 113//73 99//22
f 117//22 116//22 115//73
f 57//78 58//79 107//80
f 107//80 106//73 57//78
f 103//73 113//73 44//21
f 108//22 103//73 44//21
f 113//73 112//81 44//21
f 44//21 43//82 111//83
f 44//21 111//83 110//73
f 57//78 106//73 108//22
f 44//21 110//73 109//22
f 34//25 56//84 66//85
f 34//25 66//85 65//23
f 64//24 49//56 34//25
f 63//24 62//86 47//26
f 50//87 73//88 72//89
f 50//87 72//89 71//28
f 67//29 56//84 34//25
f 69//90 68//91 67//29
f 70//28 69//90 67//29
f 34//25 50//87 71//28
f 71//28 70//28 34//25
f 45//31 46//76 96//30
f 95//32 94//30 91//30
f 94//30 93//92 92//30
f 91//30 94//30 92//30
f 45//31 96//30 95//32
f 43//82 44//21 90//30
f 89//30 88//30 85//93
f 88//30 87//94 86//95
f 85//93 88//30 86//95
f 43//82 90//30 84//30
f 90//30 89//30 84//30
f 84//30 89//30 85//93
f 60//96 61//97 74//30
f 61//97 43//82 75//95
f 74//30 61//97 75//95
f 76//95 75//95 83//30
f 75//95 43//82 83//30
f 83//30 82//98 81//30
f 43//82 84//30 83//30
f 77//30 76//95 80//30
f 80//30 79//99 78//100
f 78//100 77//30 80//30
f 76//95 83//30 80//30
f 37//54 38//101 125//102
f 38//101 123//34 130//33
f 125//102 38//101 126//33
f 122//33 52//50 51//103
f 123//34 122//33 133//33
f 121//104 122//33 51//103
f 125//102 124//105 37//54
f 128//33 127//33 126//33
f 126//33 38//101 128//33
f 122//33 121//104 133//33
f 133//33 132//102 131//106
f 129//33 128//33 38//101
f 129//33 38//101 130//33
f 133//33 131//106 130//33
f 35//39 42//107 134//108
f 42//107 150//36 137//36
f 150//36 149//108 147//36
f 149//108 148//35 147//36
f 147//36 146//36 144//36
f 150//36 147//36 144//36
f 146//36 145//109 144//36
f 143//37 142//36 138//35
f 142//36 141//35 139//110
f 142//36 139//110 138//35
f 141//35 140//111 139//110
f 144//36 143//37 137//36
f 150//36 144//36 137//36
f 42//107 137//36 135//36
f 134//108 59//112 35//39
f 137//36 136//108 135//36
f 135//36 134//108 42//107
f 35//39 55//70 162//38
f 162//38 161//38 35//39
f 161//38 160//38 154//38
f 159//38 158//113 156//114
f 158//113 157//114 156//114
f 161//38 154//38 35//39
f 160//38 159//38 155//38
f 154//38 160//38 155//38
f 151//115 42//107 35//39
f 154//38 153//116 152//38
f 152//38 151//115 35//39
f 159//38 156//114 155//38
f 61//97 60//96 169//117
f 60//96 170//118 169//117
f 165//41 164//119 163//120
f 163//120 61//97 165//41
f 61//97 169//117 165//41
f 168//42 167//121 166//40
f 169//117 168//42 165//41
f 39//45 40//47 172//122
f 40//47 171//43 172//122
f 171//43 58//79 178//123
f 58//79 57//78 180//44
f 179//124 58//79 180//44
f 57//78 184//125 181//44
f 184//125 183//44 181//44
f 183//44 182//126 181//44
f 181//44 180//44 57//78
f 173//122 172//122 171//43
f 174//44 173//122 171//43
f 176//127 175//128 177//43
f 175//128 174//44 177//43
f 178//123 177//43 171//43
f 58//79 179//124 178//123
f 53//48 54//63 192//49
f 54//63 193//129 192//49
f 192//49 191//49 53//48
f 191//49 190//49 53//48
f 190//49 189//49 53//48
f 188//49 187//130 186//131
f 188//49 186//131 51//103
f 189//49 188//49 53//48
f 188//49 51//103 52//50
f 34//25 36//59 239//132
f 36//59 252//133 240//52
f 239//132 36//59 240//52
f 251//133 250//134 248//51
f 250//134 249//134 248//51
f 252//133 251//133 248//51
f 240//52 252//133 248//51
f 233//51 50//87 236//51
f 50//87 34//25 237//134
f 236//51 50//87 237//134
f 235//51 234//135 233//51
f 236//51 235//51 233//51
f 248//51 247//51 240//52
f 247//51 246//136 244//51
f 246//136 245//136 244//51
f 244//51 243//137 242//134
f 247//51 244//51 241//52
f 244//51 242//134 241//52
f 238//138 237//134 34//25
f 239//132 238//138 34//25
f 35//39 59//112 266//55
f 35//39 266//55 265//55
f 267//53 41//71 265//55
f 41//71 35//39 265//55
f 38//101 37//54 253//139
f 37//54 267//53 263//55
f 253//139 37//54 256//55
f 256//55 37//54 257//55
f 267//53 265//55 264//55
f 254//140 253//139 256//55
f 256//55 255//141 254//140
f 259//53 258//142 257//55
f 257//55 37//54 259//53
f 259//53 37//54 261//53
f 261//53 260//53 259//53
f 263//55 262//143 261//53
f 267//53 264//55 263//55
