# Blender v2.81 (sub 16) OBJ File: ''
# www.blender.org
mtllib Paraguay.mtl
o 0_Paraguay_sphere.001
v 2.596480 -1.913420 3.820612
v 2.579269 -1.985743 3.795284
v 2.561417 -2.057575 3.769017
v 2.542936 -2.128899 3.741822
v 2.523826 -2.199698 3.713703
v 2.504093 -2.269955 3.684668
v 2.475191 -1.913420 3.900284
v 2.458784 -1.985743 3.874428
v 2.441766 -2.057575 3.847614
v 2.424148 -2.128899 3.819851
v 2.405931 -2.199698 3.791146
v 2.387119 -2.269955 3.761506
v 2.394730 -1.693693 4.049274
v 2.380894 -1.767377 4.025878
v 2.366466 -1.840626 4.001483
v 2.351459 -1.913420 3.976107
v 2.335872 -1.985743 3.949748
v 2.319704 -2.057575 3.922413
v 2.266358 -1.693693 4.122496
v 2.253264 -1.767377 4.098677
v 2.239609 -1.840626 4.073842
v 2.225406 -1.913420 4.048006
v 2.210655 -1.985743 4.021171
v 2.599174 -1.901587 3.824575
v 2.221480 -1.693693 4.146258
v 2.481168 -1.885877 3.909703
v 2.660159 -2.057575 3.699620
v 2.377680 -2.199698 3.808458
v 2.494860 -2.301578 3.671082
v 2.145965 -1.913420 4.090068
v 2.308665 -2.057575 3.928709
v 2.468208 -1.840626 3.939136
v 2.528911 -2.269955 3.667226
v 2.379052 -2.298939 3.748794
v 2.599961 -1.913420 3.818166
v 2.207871 -1.998813 4.016107
v 2.269948 -1.672472 4.129026
v 2.175576 -1.767377 4.139811
v 2.478257 -1.693693 3.998088
v 2.629107 -2.128899 3.681260
v 2.402231 -1.651730 4.061957
v 2.327752 -2.269955 3.797886
v 2.190054 -1.985743 4.032078
v 2.317381 -2.067475 3.918484
v 2.597557 -1.985743 3.782431
v 2.413252 -2.128899 3.826528
v 2.150269 -1.840626 4.121145
v 2.420355 -2.143639 3.813875
v 2.416696 -2.157858 3.808110
v 2.484559 -1.767377 3.962353
v 2.597807 -2.199698 3.661709
v 2.476163 -1.729312 3.983963
v 2.476193 -1.733889 3.981966
v 2.477845 -1.737152 3.979541
v 2.479310 -1.741491 3.976767
v 2.481152 -1.743941 3.974578
v 2.481962 -1.748019 3.972318
v 2.480616 -1.752627 3.971149
v 2.480371 -1.758591 3.968720
v 2.480528 -1.763737 3.966397
v 2.481390 -1.765090 3.965284
v 2.484418 -1.766461 3.962835
v 2.479871 -1.694965 3.996550
v 2.480707 -1.698007 3.994722
v 2.479826 -1.709768 3.990173
v 2.475779 -1.723345 3.986780
v 2.383976 -2.195884 3.806748
v 2.388422 -2.192240 3.806076
v 2.389583 -2.188916 3.807235
v 2.392109 -2.184397 3.808233
v 2.400132 -2.174735 3.808757
v 2.402989 -2.170207 3.809556
v 2.403724 -2.167948 3.810377
v 2.406310 -2.165606 3.810112
v 2.414353 -2.160270 3.808188
v 2.418616 -2.138984 3.817562
v 2.207401 -1.998280 4.016622
v 2.195240 -1.990233 4.027086
v 2.157356 -1.825090 4.124193
v 2.170225 -1.796947 4.129699
v 2.173847 -1.777006 4.136511
v 2.305901 -2.054847 3.931674
v 2.289357 -2.040935 3.948191
v 2.275773 -2.034173 3.959380
v 2.265182 -2.034542 3.965233
v 2.249197 -2.030515 3.976401
v 2.227843 -2.022182 3.992822
v 2.216210 -2.014041 4.003600
v 2.214289 -2.006155 4.008709
v 2.599781 -1.914425 3.817772
v 2.601095 -1.920774 3.813563
v 2.604243 -1.923141 3.810126
v 2.605256 -1.927124 3.807352
v 2.603270 -1.932711 3.805858
v 2.600197 -1.938275 3.805139
v 2.598937 -1.944409 3.802849
v 2.599558 -1.949971 3.799535
v 2.598237 -1.955566 3.797569
v 2.598209 -1.961113 3.794717
v 2.599674 -1.965892 3.791214
v 2.598691 -1.973611 3.787911
v 2.596926 -1.979183 3.786268
v 2.597898 -1.982367 3.783938
v 2.628288 -2.130324 3.681000
v 2.614766 -2.147031 3.680698
v 2.611272 -2.158298 3.676541
v 2.600867 -2.192091 3.664023
v 2.424055 -1.651256 4.048779
v 2.445542 -1.667964 4.028731
v 2.461908 -1.680793 4.013420
v 2.467587 -1.844503 3.937675
v 2.467419 -1.848517 3.935872
v 2.465600 -1.852791 3.934956
v 2.463870 -1.856526 3.934243
v 2.462498 -1.860789 3.933059
v 2.462600 -1.865636 3.930694
v 2.459566 -1.870162 3.930404
v 2.457737 -1.873378 3.929997
v 2.456591 -1.876586 3.929176
v 2.457555 -1.881652 3.926179
v 2.462333 -1.883824 3.922220
v 2.466318 -1.884393 3.919508
v 2.470757 -1.881715 3.918059
v 2.473903 -1.880936 3.916502
v 2.478836 -1.883380 3.912318
v 2.410492 -2.123774 3.830990
v 2.402875 -2.116817 3.839419
v 2.392376 -2.111073 3.848958
v 2.384989 -2.109201 3.854496
v 2.380711 -2.111205 3.856035
v 2.377280 -2.109618 3.858995
v 2.374655 -2.104461 3.863391
v 2.369083 -2.100400 3.869001
v 2.356362 -2.095947 3.879205
v 2.329261 -2.078278 3.905364
v 2.318680 -2.069743 3.916462
v 2.366293 -2.294393 3.759382
v 2.343695 -2.290961 3.775320
v 2.313970 -2.294109 3.791618
v 2.314015 -2.284959 3.797164
v 2.316887 -2.279997 3.798427
v 2.322586 -2.276253 3.797215
v 2.326666 -2.272048 3.797276
v 2.419264 -2.155185 3.807959
v 2.421051 -2.150428 3.809518
v 2.420854 -2.145027 3.812750
v 2.189174 -1.984985 4.032907
v 2.189167 -1.982450 4.034125
v 2.185714 -1.979120 4.037548
v 2.178853 -1.975025 4.043143
v 2.171797 -1.968039 4.050226
v 2.164605 -1.958164 4.058764
v 2.157777 -1.942879 4.069702
v 2.151389 -1.922241 4.082971
v 2.601236 -1.906119 3.820883
v 2.660176 -2.057935 3.699406
v 2.653372 -2.075535 3.694272
v 2.639666 -2.102399 3.688769
v 2.632807 -2.118075 3.684757
v 2.632774 -2.122511 3.682282
v 2.527694 -2.270529 3.667717
v 2.524808 -2.275116 3.666833
v 2.520814 -2.278775 3.667317
v 2.515674 -2.281489 3.669207
v 2.512303 -2.285953 3.668742
v 2.510705 -2.292176 3.665915
v 2.506640 -2.297565 3.665349
v 2.500142 -2.302043 3.667074
v 2.495317 -2.302199 3.670367
v 2.177556 -1.755907 4.143549
v 2.191730 -1.738471 4.143322
v 2.201799 -1.726138 4.143137
v 2.210719 -1.714372 4.143325
v 2.221180 -1.694258 4.146181
v 2.485121 -1.771122 3.960309
v 2.483473 -1.773475 3.960251
v 2.483355 -1.776156 3.959107
v 2.484012 -1.778793 3.957508
v 2.482398 -1.781336 3.957343
v 2.482571 -1.783284 3.956353
v 2.484444 -1.785043 3.954407
v 2.485185 -1.791505 3.951021
v 2.483131 -1.802572 3.947258
v 2.479641 -1.808472 3.946720
v 2.476801 -1.813312 3.946264
v 2.475738 -1.816265 3.945575
v 2.476225 -1.820575 3.943321
v 2.472875 -1.825692 3.943052
v 2.468848 -1.831851 3.942726
v 2.468652 -1.836169 3.940886
v 2.468284 -1.840219 3.939274
v 2.228071 -1.680752 4.147909
v 2.246400 -1.677599 4.139457
v 2.329146 -2.267294 3.798591
v 2.333316 -2.263665 3.798162
v 2.339276 -2.261182 3.795965
v 2.342187 -2.258642 3.795669
v 2.342052 -2.256103 3.797240
v 2.343757 -2.253824 3.797530
v 2.347334 -2.251868 3.796484
v 2.349877 -2.248779 3.796736
v 2.351418 -2.244558 3.798265
v 2.353114 -2.242458 3.798456
v 2.355563 -2.240900 3.797869
v 2.356580 -2.237982 3.798955
v 2.357784 -2.228922 3.803527
v 2.359889 -2.221501 3.806585
v 2.362849 -2.215718 3.808160
v 2.365569 -2.212221 3.808542
v 2.367066 -2.211347 3.808136
v 2.368796 -2.209299 3.808277
v 2.370182 -2.205798 3.809479
v 2.372946 -2.202561 3.809682
v 2.492103 -2.297956 3.675143
v 2.486945 -2.295108 3.680302
v 2.479851 -2.293699 3.685837
v 2.473283 -2.294729 3.689512
v 2.467250 -2.298217 3.691307
v 2.461180 -2.303773 3.691841
v 2.455107 -2.311412 3.691083
v 2.450438 -2.312677 3.693365
v 2.447163 -2.307564 3.698692
v 2.441604 -2.306003 3.703314
v 2.433749 -2.308007 3.707229
v 2.428183 -2.307309 3.711319
v 2.424827 -2.303880 3.715654
v 2.418305 -2.303526 3.720158
v 2.408625 -2.306207 3.724850
v 2.391400 -2.303219 3.738022
v 2.315663 -2.064459 3.921064
v 2.597430 -1.986888 3.781901
v 2.595441 -1.990585 3.781301
v 2.593744 -1.995584 3.779793
v 2.592829 -2.000078 3.778008
v 2.593229 -2.003775 3.775729
v 2.595938 -2.008488 3.771278
v 2.594898 -2.016932 3.767447
v 2.593442 -2.022741 3.765331
v 2.593441 -2.029599 3.761627
v 2.595903 -2.032761 3.758188
v 2.600807 -2.033815 3.754171
v 2.606586 -2.034831 3.749562
v 2.614312 -2.033253 3.744984
v 2.621278 -2.031394 3.741093
v 2.625422 -2.029547 3.739178
v 2.633815 -2.024529 3.735991
v 2.640832 -2.021635 3.732622
v 2.644518 -2.019784 3.731032
v 2.647873 -2.018470 3.729385
v 2.653338 -2.021662 3.723819
v 2.658133 -2.025630 3.718305
v 2.661228 -2.031186 3.713128
v 2.668063 -2.037313 3.705013
v 2.666036 -2.038776 3.705647
v 2.661427 -2.043730 3.706210
v 2.659985 -2.049571 3.704068
v 2.591152 -2.215815 3.656544
v 2.581153 -2.233309 3.652889
v 2.574001 -2.242618 3.652231
v 2.569623 -2.243752 3.654615
v 2.565902 -2.246531 3.655533
v 2.562853 -2.250973 3.654963
v 2.558523 -2.254652 3.655760
v 2.552874 -2.257635 3.657908
v 2.549363 -2.260871 3.658400
v 2.547953 -2.264404 3.657233
v 2.542712 -2.266659 3.659539
v 2.533658 -2.267699 3.665267
v 2.142811 -1.908307 4.094080
v 2.132107 -1.901099 4.103051
v 2.126964 -1.896315 4.107967
v 2.127419 -1.893981 4.108794
v 2.126038 -1.891742 4.110552
v 2.128388 -1.887710 4.111155
v 2.135733 -1.871911 4.114505
v 2.146401 -1.848952 4.119377
v 2.482874 -1.887683 3.907706
v 2.489032 -1.888168 3.903427
v 2.494443 -1.888947 3.899495
v 2.498394 -1.890248 3.896270
v 2.505027 -1.888627 3.892698
v 2.511149 -1.890190 3.887919
v 2.518231 -1.892578 3.882110
v 2.523995 -1.894714 3.877289
v 2.530355 -1.894173 3.873374
v 2.535106 -1.893911 3.870380
v 2.540567 -1.891482 3.867969
v 2.545186 -1.891759 3.864801
v 2.549698 -1.887468 3.863917
v 2.552559 -1.883736 3.863845
v 2.554960 -1.881049 3.863569
v 2.560561 -1.878927 3.860919
v 2.563837 -1.880283 3.858110
v 2.565202 -1.887246 3.853839
v 2.569432 -1.891275 3.849109
v 2.570759 -1.894217 3.846812
v 2.574244 -1.895567 3.843868
v 2.582446 -1.895878 3.838330
v 2.587631 -1.895624 3.835047
v 2.592933 -1.897796 3.830512
v 2.596732 -1.897834 3.827998
v 2.277679 -1.670649 4.125353
v 2.293083 -1.667090 4.118006
v 2.325618 -1.659612 4.102470
v 2.358699 -1.652095 4.086640
v 2.392137 -1.651775 4.067697
vn 0.5089 -0.3753 0.7747
vn 0.5089 -0.3754 0.7747
vn 0.5193 -0.3826 0.7641
vn 0.4917 -0.3971 0.7749
vn 0.5159 -0.3971 0.7591
vn 0.5123 -0.4115 0.7538
vn 0.4884 -0.4115 0.7695
vn 0.4848 -0.4257 0.7640
vn 0.5086 -0.4257 0.7484
vn 0.4949 -0.4328 0.7535
vn 0.4949 -0.4328 0.7534
vn 0.5008 -0.4540 0.7369
vn 0.4812 -0.4399 0.7582
vn 0.4774 -0.4539 0.7523
vn 0.4843 -0.3753 0.7903
vn 0.4846 -0.3752 0.7902
vn 0.4950 -0.3826 0.7801
vn 0.4672 -0.3971 0.7899
vn 0.4639 -0.4115 0.7845
vn 0.4745 -0.4186 0.7743
vn 0.4711 -0.4328 0.7686
vn 0.4710 -0.4328 0.7686
vn 0.4674 -0.4469 0.7627
vn 0.4675 -0.4469 0.7627
vn 0.4675 -0.3313 0.8195
vn 0.4563 -0.3313 0.8258
vn 0.4533 -0.3387 0.8245
vn 0.4789 -0.3387 0.8099
vn 0.4506 -0.3534 0.8197
vn 0.4762 -0.3534 0.8052
vn 0.4733 -0.3681 0.8003
vn 0.4479 -0.3681 0.8148
vn 0.4451 -0.3826 0.8096
vn 0.4703 -0.3826 0.7952
vn 0.4421 -0.3971 0.8042
vn 0.4531 -0.4043 0.7945
vn 0.4415 -0.3313 0.8339
vn 0.4415 -0.3312 0.8339
vn 0.4400 -0.3399 0.8312
vn 0.4390 -0.3460 0.8292
vn 0.4364 -0.3608 0.8242
vn 0.4337 -0.3753 0.8191
vn 0.4304 -0.3898 0.8141
vn 0.4302 -0.3927 0.8128
vn 0.4309 -0.3898 0.8139
vn 0.4902 -0.3461 0.7999
vn 0.4735 -0.4226 0.7728
vn 0.4280 -0.4043 0.8083
vn 0.4279 -0.4042 0.8084
vn 0.5294 -0.3899 0.7535
vn 0.5295 -0.3898 0.7534
vn 0.5183 -0.4328 0.7375
vn 0.5192 -0.4326 0.7370
vn 0.5207 -0.4243 0.7408
vn 0.4930 -0.3313 0.8045
vn 0.4804 -0.3313 0.8120
vn 0.4637 -0.4609 0.7566
vn 0.5329 -0.3753 0.7583
vn 0.5312 -0.3829 0.7557
vn 0.5222 -0.4186 0.7430
vn 0.5102 -0.4610 0.7260
vn 0.5137 -0.4490 0.7310
vn 0.4876 -0.3609 0.7950
vn 0.4873 -0.3608 0.7952
vn 0.4872 -0.4610 0.7417
vn 0.4872 -0.4609 0.7417
vn 0.4872 -0.4608 0.7418
vn 0.4499 -0.4187 0.7888
vn 0.4525 -0.4073 0.7933
vn 0.5259 -0.4043 0.7483
vn 0.5047 -0.4399 0.7427
vn 0.5144 -0.4469 0.7318
vn 0.5143 -0.4469 0.7319
vn 0.5141 -0.3754 0.7712
vn 0.5088 -0.3754 0.7747
vn 0.4914 -0.3753 0.7859
vn 0.5088 -0.3753 0.7747
vn 0.5089 -0.3752 0.7747
vn 0.5089 -0.3754 0.7746
vn 0.5087 -0.3753 0.7748
vn 0.4902 -0.4328 0.7566
vn 0.4905 -0.4329 0.7563
vn 0.4950 -0.4329 0.7533
vn 0.4843 -0.3754 0.7903
vn 0.4842 -0.3754 0.7903
vn 0.4842 -0.3753 0.7903
vn 0.4852 -0.3684 0.7930
vn 0.4840 -0.3755 0.7904
vn 0.4841 -0.3754 0.7904
vn 0.4845 -0.3751 0.7902
vn 0.4691 -0.4186 0.7776
vn 0.4745 -0.4185 0.7743
vn 0.4745 -0.4185 0.7744
vn 0.4711 -0.4328 0.7685
vn 0.4710 -0.4329 0.7686
vn 0.4718 -0.4327 0.7682
vn 0.4681 -0.4443 0.7638
vn 0.4675 -0.4470 0.7627
vn 0.4672 -0.4470 0.7628
vn 0.4652 -0.4551 0.7592
vn 0.4675 -0.4469 0.7626
vn 0.4671 -0.4470 0.7628
vn 0.4674 -0.4470 0.7627
vn 0.4676 -0.4469 0.7626
vn 0.4675 -0.4467 0.7628
vn 0.4675 -0.4468 0.7627
vn 0.4675 -0.3313 0.8196
vn 0.4463 -0.4043 0.7983
vn 0.4531 -0.4044 0.7945
vn 0.4377 -0.3534 0.8267
vn 0.4390 -0.3458 0.8292
vn 0.4348 -0.3694 0.8212
vn 0.4329 -0.3794 0.8177
vn 0.4337 -0.3752 0.8192
vn 0.4338 -0.3753 0.8191
vn 0.4338 -0.3754 0.8191
vn 0.4309 -0.3898 0.8138
vn 0.4884 -0.3552 0.7971
vn 0.4900 -0.3463 0.8000
vn 0.4907 -0.3434 0.8008
vn 0.4902 -0.3460 0.8000
vn 0.4900 -0.3461 0.8000
vn 0.4905 -0.3456 0.8000
vn 0.4915 -0.3459 0.7992
vn 0.4903 -0.3459 0.7999
vn 0.4904 -0.3460 0.7999
vn 0.5275 -0.3979 0.7506
vn 0.5295 -0.3899 0.7534
vn 0.5290 -0.3901 0.7536
vn 0.5294 -0.3899 0.7534
vn 0.5296 -0.3898 0.7533
vn 0.5294 -0.3898 0.7534
vn 0.5165 -0.4393 0.7350
vn 0.4637 -0.4610 0.7566
vn 0.4638 -0.4608 0.7566
vn 0.4777 -0.4610 0.7479
vn 0.5220 -0.4186 0.7431
vn 0.5238 -0.4128 0.7452
vn 0.5226 -0.4176 0.7433
vn 0.5042 -0.4609 0.7303
vn 0.5102 -0.4609 0.7260
vn 0.5104 -0.4604 0.7263
vn 0.5103 -0.4609 0.7260
vn 0.5103 -0.4610 0.7260
vn 0.5103 -0.4609 0.7261
vn 0.4872 -0.3608 0.7952
vn 0.4679 -0.3650 0.8048
vn 0.4871 -0.3609 0.7953
vn 0.4873 -0.3607 0.7953
vn 0.4874 -0.3609 0.7951
vn 0.4874 -0.3610 0.7950
vn 0.4872 -0.4609 0.7418
vn 0.4873 -0.4609 0.7417
vn 0.4871 -0.4609 0.7418
vn 0.5259 -0.4042 0.7483
vn 0.5261 -0.4045 0.7481
vn 0.5258 -0.4042 0.7484
vn 0.5258 -0.4046 0.7482
vn 0.5259 -0.4042 0.7484
vn 0.5261 -0.4042 0.7482
vn 0.5260 -0.4042 0.7483
vn 0.5144 -0.4469 0.7319
vn 0.5144 -0.4471 0.7317
vn 0.5144 -0.4470 0.7319
vn 0.5145 -0.4469 0.7318
vn 0.5141 -0.4470 0.7321
usemtl None
s 1
f 294//1 289//1 288//2
f 1//3 8//4 2//5
f 3//6 8//4 9//7
f 3//6 10//8 4//9
f 4//9 145//10 144//11
f 6//12 11//13 12//14
f 118//15 117//16 115//15
f 7//17 17//18 8//4
f 9//7 17//18 18//19
f 9//7 128//20 127//20
f 11//13 72//21 71//22
f 12//14 205//23 204//24
f 302//25 37//26 19//27
f 13//28 20//29 14//30
f 15//31 20//29 21//32
f 15//31 22//33 16//34
f 16//34 23//35 17//18
f 84//36 83//36 17//18
f 193//37 192//38 25//39
f 172//40 171//40 20//29
f 20//29 81//41 80//41
f 275//42 274//42 270//42
f 147//43 43//44 148//45
f 14//30 61//46 60//46
f 76//21 10//8 46//47
f 78//48 77//49 23//35
f 98//50 96//51 2//5
f 105//52 104//53 40//54
f 108//55 41//56 13//28
f 138//57 137//57 12//14
f 155//58 1//3 35//59
f 158//60 157//60 3//6
f 161//61 33//62 6//12
f 180//63 179//64 185//64
f 222//65 219//66 218//67
f 230//68 18//19 31//69
f 241//70 240//70 3//6
f 5//71 264//72 261//73
f 7//17 1//3 286//1
f 1//3 24//74 300//1
f 24//74 301//75 300//1
f 300//1 299//1 1//3
f 299//1 298//1 1//3
f 298//1 297//1 1//3
f 277//1 26//76 7//17
f 279//1 278//77 7//17
f 278//77 277//1 7//17
f 282//1 281//78 280//1
f 280//1 279//1 7//17
f 1//3 297//1 286//1
f 296//75 295//77 294//1
f 297//1 296//75 286//1
f 283//1 282//1 7//17
f 282//1 280//1 7//17
f 286//1 285//79 7//17
f 285//79 284//1 7//17
f 284//1 283//1 7//17
f 296//75 294//1 288//2
f 294//1 293//80 292//1
f 292//1 291//1 294//1
f 291//1 290//1 294//1
f 290//1 289//1 294//1
f 288//2 287//80 286//1
f 288//2 286//1 296//75
f 1//3 7//17 8//4
f 3//6 2//5 8//4
f 3//6 9//7 10//8
f 11//13 5//71 144//11
f 5//71 4//9 144//11
f 11//13 144//11 49//81
f 4//9 10//8 145//10
f 10//8 48//82 146//83
f 10//8 146//83 145//10
f 6//12 5//71 11//13
f 16//34 7//17 120//15
f 7//17 26//76 122//15
f 26//76 125//84 122//15
f 125//84 124//85 123//86
f 122//15 125//84 123//86
f 32//87 15//31 114//15
f 15//31 16//34 119//15
f 32//87 114//15 111//88
f 113//89 112//90 111//88
f 111//88 114//15 113//89
f 7//17 122//15 121//15
f 7//17 121//15 120//15
f 114//15 15//31 115//15
f 115//15 15//31 118//15
f 16//34 120//15 119//15
f 118//15 15//31 119//15
f 117//16 116//85 115//15
f 7//17 16//34 17//18
f 9//7 8//4 17//18
f 46//47 10//8 126//20
f 10//8 9//7 126//20
f 9//7 18//19 135//20
f 18//19 44//91 136//20
f 135//20 18//19 136//20
f 135//20 134//20 9//7
f 134//20 133//20 9//7
f 132//20 131//92 129//20
f 131//92 130//93 129//20
f 133//20 132//20 9//7
f 132//20 129//20 9//7
f 129//20 128//20 9//7
f 127//20 126//20 9//7
f 11//13 49//81 75//94
f 75//94 74//95 72//21
f 74//95 73//96 72//21
f 67//22 28//97 11//13
f 70//22 69//22 11//13
f 69//22 68//22 11//13
f 68//22 67//22 11//13
f 11//13 75//94 72//21
f 71//22 70//22 11//13
f 12//14 11//13 205//23
f 11//13 28//97 211//98
f 28//97 213//24 211//98
f 213//24 212//99 211//98
f 194//23 42//100 195//101
f 42//100 12//14 196//23
f 196//23 195//101 42//100
f 199//23 198//102 197//23
f 200//23 199//23 197//23
f 197//23 196//23 12//14
f 11//13 211//98 210//23
f 210//23 209//103 208//104
f 11//13 210//23 206//23
f 205//23 11//13 206//23
f 200//23 197//23 12//14
f 203//105 202//106 204//24
f 202//106 201//23 204//24
f 201//23 200//23 12//14
f 210//23 208//104 207//23
f 207//23 206//23 210//23
f 201//23 12//14 204//24
f 19//27 13//28 304//107
f 13//28 41//56 306//107
f 19//27 304//107 303//25
f 306//107 305//107 13//28
f 305//107 304//107 13//28
f 303//25 302//25 19//27
f 13//28 19//27 20//29
f 15//31 14//30 20//29
f 15//31 21//32 22//33
f 16//34 22//33 23//35
f 31//69 18//19 82//36
f 18//19 17//18 82//36
f 17//18 23//35 86//36
f 23//35 36//108 89//36
f 89//36 88//109 87//36
f 23//35 89//36 87//36
f 83//36 82//36 17//18
f 23//35 87//36 86//36
f 86//36 85//36 84//36
f 17//18 86//36 84//36
f 25//39 19//27 193//37
f 19//27 37//26 193//37
f 38//110 20//29 171//40
f 20//29 19//27 173//40
f 38//110 171//40 170//40
f 19//27 25//39 174//111
f 19//27 174//111 173//40
f 172//40 20//29 173//40
f 47//112 21//32 79//41
f 21//32 20//29 80//41
f 20//29 38//110 81//41
f 80//41 79//41 21//32
f 30//113 22//33 21//32
f 21//32 47//112 276//42
f 21//32 276//42 269//42
f 276//42 275//42 269//42
f 269//42 30//113 21//32
f 271//114 270//42 272//115
f 270//42 269//42 275//42
f 272//115 270//42 274//42
f 274//42 273//116 272//115
f 43//44 23//35 148//45
f 23//35 22//33 149//117
f 148//45 23//35 149//117
f 22//33 30//113 154//117
f 154//117 153//117 22//33
f 153//117 152//117 22//33
f 152//117 151//117 22//33
f 151//117 150//117 22//33
f 150//117 149//117 22//33
f 14//30 50//118 61//46
f 50//118 62//119 61//46
f 39//120 13//28 66//121
f 13//28 14//30 66//121
f 64//122 63//123 39//120
f 66//121 65//121 39//120
f 65//121 64//122 39//120
f 53//121 52//121 14//30
f 52//121 66//121 14//30
f 55//121 54//124 53//121
f 57//125 56//121 58//126
f 56//121 55//121 58//126
f 58//126 55//121 53//121
f 59//121 58//126 53//121
f 60//46 59//121 14//30
f 59//121 53//121 14//30
f 76//21 48//82 10//8
f 23//35 43//44 78//48
f 77//49 36//108 23//35
f 2//5 45//127 102//128
f 45//127 103//129 102//128
f 102//128 101//51 2//5
f 101//51 100//51 2//5
f 35//59 1//3 90//51
f 1//3 2//5 96//51
f 90//51 1//3 91//51
f 91//51 1//3 95//130
f 2//5 100//51 99//128
f 93//130 92//131 94//132
f 92//131 91//51 94//132
f 95//130 94//132 91//51
f 98//50 97//50 96//51
f 96//51 95//130 1//3
f 2//5 99//128 98//50
f 5//71 51//133 107//52
f 5//71 107//52 106//52
f 40//54 4//9 105//52
f 4//9 5//71 106//52
f 105//52 4//9 106//52
f 13//28 39//120 110//55
f 110//55 109//55 13//28
f 109//55 108//55 13//28
f 12//14 42//100 138//57
f 42//100 143//134 138//57
f 142//57 141//135 140//57
f 143//134 142//57 138//57
f 137//57 34//136 12//14
f 140//57 139//57 142//57
f 139//57 138//57 142//57
f 155//58 24//74 1//3
f 4//9 40//54 159//60
f 40//54 160//137 159//60
f 27//138 3//6 157//60
f 3//6 4//9 158//60
f 157//60 156//139 27//138
f 4//9 159//60 158//60
f 6//12 29//140 165//141
f 29//140 169//142 168//143
f 165//141 29//140 166//144
f 168//143 167//143 29//140
f 167//143 166//144 29//140
f 164//145 163//144 6//12
f 163//144 162//61 6//12
f 162//61 161//61 6//12
f 165//141 164//145 6//12
f 15//31 32//87 190//146
f 32//87 191//147 190//146
f 190//146 189//64 15//31
f 188//148 187//64 186//64
f 189//64 188//148 186//64
f 189//64 186//64 15//31
f 186//64 185//64 15//31
f 14//30 15//31 185//64
f 175//149 50//118 176//64
f 50//118 14//30 176//64
f 184//64 183//64 180//63
f 183//64 182//150 180//63
f 14//30 185//64 179//64
f 185//64 184//64 180//63
f 177//151 176//64 179//64
f 176//64 14//30 179//64
f 179//64 178//150 177//151
f 182//150 181//149 180//63
f 12//14 34//136 229//66
f 229//66 228//66 12//14
f 228//66 227//152 12//14
f 226//66 225//65 224//66
f 226//66 224//66 223//65
f 12//14 227//152 226//66
f 214//153 29//140 6//12
f 215//66 214//153 6//12
f 6//12 12//14 217//66
f 12//14 226//66 217//66
f 226//66 223//65 218//67
f 217//66 226//66 218//67
f 216//65 215//66 6//12
f 217//66 216//65 6//12
f 223//65 222//65 218//67
f 222//65 221//154 220//66
f 222//65 220//66 219//66
f 230//68 44//91 18//19
f 3//6 27//138 242//70
f 27//138 256//70 244//70
f 27//138 244//70 243//155
f 256//70 255//70 246//70
f 244//70 256//70 245//70
f 45//127 2//5 232//70
f 2//5 3//6 235//70
f 232//70 2//5 233//70
f 232//70 231//156 45//127
f 233//70 2//5 234//157
f 255//70 254//70 252//70
f 254//70 253//155 252//70
f 252//70 251//70 247//70
f 251//70 250//70 247//70
f 250//70 249//158 248//159
f 247//70 246//70 255//70
f 246//70 245//70 256//70
f 250//70 248//159 247//70
f 255//70 252//70 247//70
f 234//157 2//5 235//70
f 237//160 236//161 235//70
f 238//70 237//160 235//70
f 27//138 243//155 242//70
f 238//70 235//70 3//6
f 239//70 238//70 3//6
f 3//6 242//70 241//70
f 240//70 239//70 3//6
f 6//12 33//62 268//162
f 268//162 267//162 265//163
f 267//162 266//162 265//163
f 5//71 6//12 268//162
f 257//162 51//133 5//71
f 259//164 258//162 260//162
f 258//162 257//162 260//162
f 257//162 5//71 260//162
f 5//71 268//162 264//72
f 268//162 265//163 264//72
f 264//72 263//165 261//73
f 263//165 262//166 261//73
f 261//73 260//162 5//71
