# Blender v2.81 (sub 16) OBJ File: ''
# www.blender.org
mtllib Pitcairn Islands.mtl
o 0_Pitcairn_Islands_sphere.001
v -2.821570 -2.066313 3.572708
v -2.823143 -2.065295 3.572049
v -2.825116 -2.062990 3.571830
v -2.826307 -2.060596 3.572289
v -2.825462 -2.059244 3.573765
v -2.823566 -2.060066 3.574799
v -2.822064 -2.062532 3.574545
v -2.821319 -2.065117 3.573615
vn -0.5678 -0.4186 0.7087
vn -0.5678 -0.4186 0.7088
vn -0.5679 -0.4185 0.7087
vn -0.5678 -0.4187 0.7087
vn -0.5677 -0.4188 0.7087
vn -0.5678 -0.4183 0.7089
usemtl None
s 1
f 7//1 2//2 8//3
f 7//1 6//4 3//2
f 6//4 5//5 4//4
f 3//2 6//4 4//4
f 3//2 2//2 7//1
f 2//2 1//6 8//3
