# Blender v2.81 (sub 16) OBJ File: ''
# www.blender.org
mtllib Qatar.mtl
o 0_Qatar_sphere.001
v 2.815979 2.199694 -3.496678
v 2.806639 2.199694 -3.504161
v 2.860721 2.128895 -3.504390
v 2.810752 2.128895 -3.544422
v 2.849983 2.080076 -3.541826
v 2.855726 2.078332 -3.538255
v 2.860091 2.078387 -3.534725
v 2.863391 2.079075 -3.531675
v 2.865240 2.080776 -3.529190
v 2.867785 2.087461 -3.523202
v 2.868432 2.096162 -3.517544
v 2.865077 2.101017 -3.517365
v 2.863521 2.104045 -3.516824
v 2.861115 2.126945 -3.505225
v 2.810985 2.124573 -3.546788
v 2.812716 2.117035 -3.549853
v 2.816076 2.110057 -3.551283
v 2.821061 2.104176 -3.550763
v 2.832629 2.086538 -3.551912
v 2.835097 2.084703 -3.551019
v 2.843945 2.081696 -3.545706
v 2.857230 2.144425 -3.497632
v 2.855658 2.147998 -3.496694
v 2.851971 2.152100 -3.497123
v 2.845141 2.161191 -3.497002
v 2.840335 2.169938 -3.495471
v 2.828112 2.190175 -3.492814
v 2.819327 2.197960 -3.495062
v 2.803797 2.192484 -3.510874
v 2.796956 2.183928 -3.521617
v 2.798000 2.174396 -3.526645
v 2.803109 2.166615 -3.527339
v 2.809370 2.154222 -3.529948
v 2.809522 2.148545 -3.533319
v 2.810424 2.143615 -3.535629
v 2.810313 2.135352 -3.540801
v 2.808165 2.203632 -3.500417
vn 0.5678 0.4186 -0.7088
vn 0.5678 0.4186 -0.7087
vn 0.5636 0.4328 -0.7035
vn 0.5624 0.4369 -0.7020
vn 0.5593 0.4470 -0.6981
vn 0.5630 0.4349 -0.7027
vn 0.5661 0.4245 -0.7066
vn 0.5656 0.4261 -0.7060
vn 0.5680 0.4186 -0.7086
vn 0.5676 0.4186 -0.7089
vn 0.5678 0.4184 -0.7089
vn 0.5677 0.4187 -0.7088
vn 0.5678 0.4185 -0.7088
vn 0.5679 0.4183 -0.7089
vn 0.5677 0.4186 -0.7088
vn 0.5635 0.4328 -0.7036
vn 0.5637 0.4328 -0.7035
vn 0.5636 0.4329 -0.7035
usemtl None
s 1
f 18//1 13//2 21//1
f 26//3 32//3 29//3
f 2//4 37//5 1//6
f 4//7 3//8 14//1
f 4//7 14//1 13//2
f 16//1 15//9 18//1
f 15//9 4//7 18//1
f 18//1 17//10 16//1
f 20//11 19//2 21//1
f 19//2 18//1 21//1
f 5//12 21//1 13//2
f 7//1 6//2 10//1
f 6//2 5//12 10//1
f 9//13 8//14 7//1
f 11//15 10//1 12//2
f 10//1 9//13 7//1
f 12//2 10//1 5//12
f 4//7 13//2 18//1
f 13//2 12//2 5//12
f 3//8 4//7 36//3
f 35//3 34//3 24//3
f 34//3 33//3 24//3
f 3//8 36//3 35//3
f 23//16 22//17 24//3
f 22//17 3//8 24//3
f 3//8 35//3 24//3
f 32//3 31//18 30//3
f 33//3 32//3 26//3
f 25//3 33//3 26//3
f 25//3 24//3 33//3
f 27//3 26//3 29//3
f 1//6 28//3 29//3
f 28//3 27//3 29//3
f 29//3 2//4 1//6
f 32//3 30//3 29//3
