# Blender v2.81 (sub 16) OBJ File: ''
# www.blender.org
mtllib Romania.mtl
o 0_Romania_sphere.001
v 3.098217 3.535533 -1.703253
v 2.998296 3.698155 -1.527702
v 3.049683 3.644842 -1.553885
v 3.100317 3.590631 -1.579685
v 3.150189 3.535533 -1.605095
v 3.044802 3.698155 -1.432770
v 3.096987 3.644842 -1.457326
v 3.148407 3.590631 -1.481522
v 3.199052 3.535533 -1.505353
v 3.248905 3.479563 -1.528812
v 3.088305 3.698155 -1.336423
v 3.141235 3.644842 -1.359328
v 3.193389 3.590631 -1.381897
v 3.244758 3.535533 -1.404126
v 3.295323 3.479563 -1.426007
v 3.182382 3.644842 -1.259988
v 3.235220 3.590631 -1.280908
v 3.287261 3.535533 -1.301513
v 3.184382 3.644842 -1.254697
v 3.081303 3.554533 -1.693954
v 3.301371 3.520117 -1.307099
v 3.127112 3.502036 -1.719138
v 3.068765 3.590631 -1.639277
v 3.114062 3.698155 -1.274240
v 3.037007 3.705872 -1.429101
v 3.258315 3.590631 -1.219790
v 3.271543 3.453335 -1.539465
v 3.017662 3.644842 -1.614364
v 3.305225 3.479563 -1.402101
v 3.210452 3.479563 -1.607304
v 3.196032 3.483267 -1.628453
v 2.990322 3.698155 -1.542762
v 3.176519 3.650671 -1.257667
v 3.292618 3.535533 -1.287337
v 3.070763 3.715275 -1.328832
v 3.072490 3.535533 -1.748358
v 3.308461 3.464557 -1.431693
v 3.192564 3.479563 -1.642793
v 3.150799 3.479563 -1.721674
v 2.973520 3.723060 -1.515079
v 3.301249 3.520329 -1.306832
v 3.300916 3.522457 -1.301787
v 3.302479 3.524655 -1.291532
v 3.300532 3.526833 -1.290618
v 3.299481 3.527348 -1.291966
v 3.297962 3.527613 -1.295246
v 3.295855 3.528063 -1.299571
v 3.294414 3.529341 -1.299826
v 3.293396 3.530432 -1.299484
v 3.293413 3.531873 -1.295422
v 3.293908 3.532815 -1.291492
v 3.293708 3.533797 -1.289288
v 3.293166 3.534874 -1.287720
v 3.080508 3.554591 -1.695230
v 3.079584 3.553243 -1.699613
v 3.073910 3.555067 -1.705821
v 3.063530 3.560042 -1.713820
v 3.057177 3.561046 -1.722899
v 3.054866 3.558032 -1.733130
v 3.055393 3.554531 -1.739384
v 3.056662 3.551234 -1.743918
v 3.060803 3.547138 -1.745055
v 3.063364 3.544598 -1.745773
v 2.992588 3.694464 -1.547014
v 2.994435 3.689313 -1.555432
v 2.994950 3.688332 -1.556728
v 2.997030 3.684702 -1.561188
v 3.001994 3.676697 -1.570320
v 3.002819 3.673460 -1.576242
v 3.004157 3.669971 -1.581782
v 3.006568 3.666463 -1.585336
v 3.008212 3.663253 -1.589653
v 3.008872 3.659051 -1.598119
v 3.009838 3.655213 -1.605168
v 3.070815 3.715038 -1.329359
v 3.065247 3.715300 -1.340980
v 3.064503 3.715078 -1.343231
v 3.064325 3.714957 -1.343951
v 3.064107 3.714529 -1.345598
v 3.059934 3.711716 -1.362470
v 3.058546 3.712008 -1.364751
v 3.057998 3.712251 -1.365304
v 3.057478 3.709972 -1.372638
v 3.054683 3.710261 -1.378046
v 3.050718 3.711816 -1.382610
v 3.047686 3.712353 -1.387869
v 3.046340 3.711439 -1.393329
v 3.047831 3.708250 -1.398677
v 3.050115 3.701563 -1.411757
v 3.051285 3.699084 -1.415892
v 3.048808 3.699476 -1.420315
v 3.045224 3.700767 -1.424749
v 3.038317 3.705314 -1.427712
v 3.272524 3.453423 -1.537090
v 3.278926 3.456571 -1.515614
v 3.285709 3.460037 -1.492558
v 3.292691 3.458090 -1.481605
v 3.298543 3.459584 -1.465183
v 3.305516 3.463948 -1.439626
v 3.025710 3.710331 -1.440847
v 3.018707 3.711537 -1.452081
v 3.011024 3.713562 -1.462624
v 3.003047 3.715011 -1.475232
v 2.996967 3.719190 -1.477038
v 2.993087 3.722033 -1.477744
v 2.987071 3.727309 -1.476637
v 2.982033 3.728847 -1.483019
v 2.977598 3.729949 -1.489277
v 2.975760 3.730603 -1.491367
v 2.973078 3.730870 -1.496163
v 2.971632 3.730430 -1.500232
v 2.971268 3.727873 -1.507464
v 2.972454 3.724642 -1.513242
v 3.111766 3.699591 -1.275591
v 3.109911 3.700064 -1.278689
v 3.106824 3.701615 -1.281617
v 3.104579 3.702185 -1.285376
v 3.103768 3.701418 -1.289573
v 3.102322 3.701831 -1.291857
v 3.098840 3.703725 -1.294739
v 3.087470 3.710951 -1.301112
v 3.085416 3.712405 -1.301827
v 3.083597 3.713390 -1.303344
v 3.077857 3.715893 -1.309903
v 3.074507 3.718370 -1.310762
v 3.071102 3.720631 -1.312389
v 3.069855 3.720465 -1.315881
v 3.171463 3.654517 -1.259005
v 3.168908 3.657079 -1.257932
v 3.166488 3.659261 -1.257606
v 3.162698 3.661668 -1.259951
v 3.158126 3.664784 -1.262184
v 3.146328 3.674635 -1.262822
v 3.144003 3.676276 -1.263796
v 3.140887 3.678139 -1.266052
v 3.138086 3.680007 -1.267534
v 3.131506 3.686471 -1.265151
v 3.128782 3.688324 -1.266488
v 3.125032 3.690403 -1.269664
v 3.120009 3.693774 -1.272264
v 3.114669 3.697768 -1.273867
v 3.201035 3.482361 -1.620267
v 3.214410 3.478360 -1.601834
v 3.226102 3.473489 -1.588527
v 3.241309 3.464847 -1.576223
v 3.250088 3.458319 -1.572455
v 3.256724 3.454882 -1.566361
v 3.264158 3.452343 -1.556693
v 3.304853 3.481086 -1.399082
v 3.305154 3.485253 -1.387640
v 3.304406 3.487921 -1.382582
v 3.304249 3.488556 -1.381327
v 3.302178 3.490951 -1.380167
v 3.301332 3.492817 -1.377411
v 3.301696 3.494154 -1.373093
v 3.300662 3.496630 -1.369220
v 3.298283 3.500205 -1.365770
v 3.295040 3.503566 -1.364952
v 3.290942 3.506716 -1.366745
v 3.288106 3.508104 -1.370023
v 3.286591 3.507667 -1.374802
v 3.284962 3.508577 -1.376395
v 3.283267 3.510795 -1.374783
v 3.282591 3.513596 -1.369211
v 3.282899 3.517036 -1.359619
v 3.288095 3.515163 -1.351893
v 3.298167 3.508010 -1.345973
v 3.301759 3.506888 -1.340188
v 3.298907 3.511728 -1.334625
v 3.299034 3.514656 -1.326789
v 3.302187 3.515596 -1.316758
v 3.302915 3.517505 -1.310091
v 3.312129 3.465198 -1.421240
v 3.321768 3.462607 -1.404425
v 3.321356 3.464485 -1.400739
v 3.319712 3.466665 -1.399274
v 3.316712 3.469753 -1.398821
v 3.313480 3.472249 -1.400403
v 3.310016 3.474171 -1.403976
v 3.307379 3.476099 -1.405536
v 3.305596 3.478019 -1.405053
v 2.974196 3.722054 -1.516202
v 2.975999 3.718369 -1.521589
v 2.979158 3.713212 -1.527925
v 2.983847 3.706319 -1.535514
v 2.986806 3.702853 -1.538193
v 2.989711 3.699115 -1.541626
v 3.073937 3.534056 -1.748755
v 3.078277 3.530062 -1.749080
v 3.083582 3.525574 -1.748695
v 3.103699 3.520356 -1.723793
v 3.100486 3.522909 -1.724353
v 3.096977 3.527414 -1.721556
v 3.094709 3.530811 -1.718783
v 3.090628 3.533864 -1.719873
v 3.093141 3.535015 -1.713181
v 3.096107 3.533350 -1.711289
v 3.099812 3.530439 -1.710577
v 3.104592 3.523653 -1.715677
v 3.109501 3.519960 -1.714407
v 3.111950 3.517867 -1.714272
v 3.116296 3.512920 -1.716480
v 3.119148 3.510800 -1.715692
v 3.121348 3.508480 -1.716443
v 3.118347 3.509053 -1.720567
v 3.123130 3.504803 -1.720624
v 3.018131 3.644202 -1.614910
v 3.021390 3.639030 -1.620341
v 3.024062 3.635077 -1.624149
v 3.031914 3.627073 -1.627247
v 3.034444 3.623679 -1.630070
v 3.041495 3.617409 -1.630798
v 3.055413 3.604806 -1.632743
v 3.065206 3.594807 -1.636643
v 3.093290 3.556615 -1.666795
v 3.092432 3.553288 -1.675637
v 3.086603 3.549857 -1.694093
v 3.085441 3.550278 -1.695375
v 3.084741 3.550950 -1.695239
v 3.084549 3.551865 -1.693615
v 3.083591 3.553046 -1.692861
v 3.081875 3.554498 -1.692950
v 3.069781 3.589400 -1.640030
v 3.072869 3.585888 -1.641820
v 3.074356 3.583618 -1.643939
v 3.077856 3.579021 -1.647309
v 3.081395 3.574957 -1.649446
v 3.083271 3.573787 -1.648444
v 3.085258 3.572852 -1.646719
v 3.086465 3.572017 -1.646253
v 3.087067 3.570164 -1.649138
v 3.088624 3.566797 -1.653506
v 3.090654 3.562923 -1.658081
v 3.134773 3.496568 -1.716171
v 3.140587 3.491663 -1.715508
v 3.193302 3.482365 -1.635505
v 3.193110 3.483710 -1.633041
v 3.156840 3.472169 -1.725337
v 3.168717 3.460356 -1.726985
v 3.171806 3.456868 -1.728260
v 3.176715 3.456712 -1.719306
v 3.177924 3.456959 -1.716519
v 3.180970 3.458704 -1.707210
v 3.183459 3.461792 -1.696215
v 3.181293 3.467885 -1.687884
v 3.179514 3.472244 -1.682360
v 3.185471 3.470261 -1.675152
v 3.185841 3.470794 -1.673366
v 3.185244 3.472896 -1.670209
v 3.187270 3.474315 -1.663490
v 3.191191 3.474387 -1.655936
v 3.178052 3.649483 -1.257247
v 3.257962 3.592886 -1.214034
v 3.257609 3.594982 -1.208755
v 3.254331 3.599560 -1.203856
v 3.252179 3.603040 -1.199230
v 3.249893 3.604515 -1.200906
v 3.243079 3.606513 -1.213015
v 3.242804 3.604491 -1.219738
v 3.241083 3.605223 -1.222122
v 3.238490 3.606853 -1.224149
v 3.236677 3.608155 -1.225088
v 3.235219 3.609537 -1.224848
v 3.233041 3.611268 -1.225480
v 3.230579 3.612092 -1.229552
v 3.227273 3.611062 -1.241358
v 3.223132 3.613501 -1.245080
v 3.221191 3.614831 -1.246274
v 3.217942 3.617749 -1.246221
v 3.215193 3.620100 -1.246524
v 3.212417 3.621364 -1.250121
v 3.210346 3.623506 -1.249253
v 3.208309 3.625826 -1.247764
v 3.202332 3.631027 -1.248160
v 3.199708 3.633162 -1.248770
v 3.198086 3.633933 -1.250778
v 3.195376 3.635626 -1.252930
v 3.190238 3.639022 -1.256458
v 3.187775 3.641984 -1.254192
v 3.185268 3.644176 -1.254327
v 3.292233 3.535980 -1.287071
v 3.291110 3.536754 -1.287820
v 3.290513 3.536808 -1.289243
v 3.289344 3.537473 -1.290428
v 3.286622 3.540039 -1.290254
v 3.283839 3.542212 -1.291376
v 3.282603 3.542966 -1.292481
v 3.281153 3.544538 -1.291800
v 3.280308 3.546005 -1.289824
v 3.279860 3.547259 -1.287405
v 3.280259 3.547983 -1.284267
v 3.281580 3.550154 -1.274532
v 3.280369 3.553231 -1.268897
v 3.281308 3.553338 -1.266104
v 3.281368 3.555023 -1.261105
v 3.280608 3.557695 -1.255435
v 3.278547 3.561485 -1.249998
v 3.277864 3.563957 -1.244703
v 3.277345 3.564960 -1.243194
v 3.276457 3.565933 -1.242750
v 3.275155 3.566987 -1.243165
v 3.274057 3.568147 -1.242738
v 3.270935 3.571894 -1.240231
v 3.266906 3.575834 -1.239573
v 3.263445 3.579551 -1.238053
v 3.261867 3.581235 -1.237388
v 3.261722 3.581729 -1.236355
v 3.262522 3.581181 -1.235810
v 3.263611 3.580466 -1.234983
v 3.264163 3.580312 -1.233964
v 3.262792 3.583023 -1.229801
v 3.259082 3.588544 -1.223755
v 3.258372 3.590394 -1.220319
vn 0.6301 0.7071 -0.3210
vn 0.6200 0.7126 -0.3282
vn 0.6200 0.7126 -0.3283
vn 0.5992 0.7448 -0.2936
vn 0.5979 0.7448 -0.2962
vn 0.6099 0.7289 -0.3108
vn 0.6090 0.7396 -0.2866
vn 0.6194 0.7289 -0.2915
vn 0.6201 0.7181 -0.3159
vn 0.6297 0.7181 -0.2963
vn 0.6398 0.7071 -0.3011
vn 0.6081 0.7448 -0.2745
vn 0.6081 0.7448 -0.2746
vn 0.6177 0.7396 -0.2673
vn 0.6283 0.7289 -0.2719
vn 0.6387 0.7181 -0.2764
vn 0.6490 0.7071 -0.2808
vn 0.6498 0.6959 -0.3058
vn 0.6591 0.6959 -0.2852
vn 0.6164 0.7448 -0.2553
vn 0.6166 0.7447 -0.2553
vn 0.6271 0.7343 -0.2598
vn 0.6272 0.7343 -0.2597
vn 0.6365 0.7289 -0.2520
vn 0.6471 0.7181 -0.2562
vn 0.6575 0.7071 -0.2603
vn 0.6584 0.7015 -0.2727
vn 0.6349 0.7342 -0.2402
vn 0.6426 0.7266 -0.2428
vn 0.6457 0.7236 -0.2440
vn 0.6457 0.7235 -0.2440
vn 0.6563 0.7126 -0.2480
vn 0.6667 0.7015 -0.2518
vn 0.6666 0.7015 -0.2519
vn 0.6094 0.7126 -0.3476
vn 0.6094 0.7126 -0.3475
vn 0.6196 0.7071 -0.3406
vn 0.5999 0.7343 -0.3176
vn 0.6595 0.6902 -0.2978
vn 0.6545 0.6902 -0.3085
vn 0.6408 0.7006 -0.3139
vn 0.6498 0.6902 -0.3183
vn 0.6499 0.6902 -0.3182
vn 0.6685 0.6902 -0.2770
vn 0.6685 0.6902 -0.2769
vn 0.5896 0.7449 -0.3121
vn 0.5896 0.7447 -0.3128
vn 0.5997 0.7396 -0.3056
vn 0.6190 0.7015 -0.3531
vn 0.6100 0.7235 -0.3230
vn 0.6100 0.7235 -0.3232
vn 0.6315 0.6996 -0.3343
vn 0.6298 0.7015 -0.3335
vn 0.6395 0.6902 -0.3386
vn 0.6146 0.7126 -0.3383
vn 0.6201 0.7124 -0.3285
vn 0.6200 0.7125 -0.3283
vn 0.6202 0.7126 -0.3279
vn 0.6153 0.7178 -0.3258
vn 0.6200 0.7125 -0.3286
vn 0.6198 0.7129 -0.3279
vn 0.6200 0.7125 -0.3284
vn 0.6197 0.7128 -0.3284
vn 0.5992 0.7448 -0.2935
vn 0.5988 0.7450 -0.2938
vn 0.5993 0.7447 -0.2936
vn 0.5991 0.7449 -0.2935
vn 0.5987 0.7454 -0.2932
vn 0.5992 0.7449 -0.2935
vn 0.6025 0.7449 -0.2866
vn 0.6081 0.7449 -0.2745
vn 0.6081 0.7450 -0.2740
vn 0.6140 0.7450 -0.2608
vn 0.6084 0.7445 -0.2747
vn 0.6065 0.7464 -0.2738
vn 0.6080 0.7449 -0.2745
vn 0.6081 0.7448 -0.2747
vn 0.6082 0.7447 -0.2747
vn 0.6164 0.7448 -0.2554
vn 0.6164 0.7449 -0.2552
vn 0.6165 0.7447 -0.2555
vn 0.6244 0.7370 -0.2587
vn 0.6164 0.7449 -0.2553
vn 0.6165 0.7448 -0.2553
vn 0.6166 0.7447 -0.2554
vn 0.6272 0.7342 -0.2598
vn 0.6284 0.7343 -0.2567
vn 0.6266 0.7346 -0.2603
vn 0.6270 0.7342 -0.2603
vn 0.6272 0.7342 -0.2600
vn 0.6272 0.7343 -0.2596
vn 0.6271 0.7343 -0.2599
vn 0.6607 0.6989 -0.2737
vn 0.6584 0.7014 -0.2727
vn 0.6598 0.7015 -0.2691
vn 0.6583 0.7015 -0.2728
vn 0.6584 0.7015 -0.2728
vn 0.6585 0.7015 -0.2726
vn 0.6585 0.7014 -0.2727
vn 0.6584 0.7015 -0.2726
vn 0.6586 0.7013 -0.2726
vn 0.6458 0.7235 -0.2440
vn 0.6457 0.7235 -0.2439
vn 0.6478 0.7214 -0.2447
vn 0.6458 0.7235 -0.2439
vn 0.6457 0.7235 -0.2441
vn 0.6458 0.7234 -0.2439
vn 0.6458 0.7234 -0.2441
vn 0.6457 0.7235 -0.2438
vn 0.6458 0.7236 -0.2435
vn 0.6457 0.7236 -0.2438
vn 0.6457 0.7234 -0.2444
vn 0.6456 0.7236 -0.2439
vn 0.6457 0.7235 -0.2442
vn 0.6564 0.7125 -0.2479
vn 0.6562 0.7126 -0.2479
vn 0.6562 0.7126 -0.2480
vn 0.6563 0.7125 -0.2479
vn 0.6557 0.7132 -0.2477
vn 0.6563 0.7120 -0.2496
vn 0.6610 0.7075 -0.2500
vn 0.6564 0.7126 -0.2477
vn 0.6563 0.7126 -0.2479
vn 0.6561 0.7126 -0.2481
vn 0.6564 0.7125 -0.2478
vn 0.6562 0.7126 -0.2481
vn 0.6563 0.7125 -0.2481
vn 0.6565 0.7123 -0.2481
vn 0.6563 0.7126 -0.2478
vn 0.6562 0.7127 -0.2480
vn 0.6563 0.7125 -0.2480
vn 0.6561 0.7128 -0.2479
vn 0.6564 0.7125 -0.2480
vn 0.6667 0.7015 -0.2519
vn 0.6669 0.7014 -0.2516
vn 0.6666 0.7016 -0.2517
vn 0.6666 0.7015 -0.2518
vn 0.6662 0.7015 -0.2531
vn 0.6137 0.7077 -0.3500
vn 0.6094 0.7125 -0.3477
vn 0.6095 0.7125 -0.3476
vn 0.6060 0.7278 -0.3209
vn 0.6000 0.7342 -0.3176
vn 0.6000 0.7343 -0.3174
vn 0.5964 0.7380 -0.3157
vn 0.6000 0.7342 -0.3177
vn 0.5995 0.7346 -0.3175
vn 0.6638 0.6902 -0.2879
vn 0.6595 0.6902 -0.2977
vn 0.6596 0.6901 -0.2978
vn 0.6400 0.7015 -0.3135
vn 0.6353 0.7015 -0.3228
vn 0.6686 0.6901 -0.2768
vn 0.6685 0.6901 -0.2770
vn 0.5897 0.7448 -0.3121
vn 0.5896 0.7448 -0.3122
vn 0.5897 0.7448 -0.3122
vn 0.6275 0.7015 -0.3378
vn 0.6190 0.7014 -0.3532
vn 0.6194 0.7014 -0.3527
vn 0.6191 0.7014 -0.3532
vn 0.6190 0.7016 -0.3528
vn 0.6191 0.7014 -0.3531
vn 0.6191 0.7015 -0.3531
vn 0.6190 0.7016 -0.3530
vn 0.6190 0.7014 -0.3533
vn 0.6187 0.7014 -0.3537
vn 0.6189 0.7015 -0.3533
vn 0.6191 0.7015 -0.3530
vn 0.6190 0.7015 -0.3529
vn 0.6101 0.7234 -0.3230
vn 0.6101 0.7235 -0.3228
vn 0.6101 0.7235 -0.3230
vn 0.6348 0.6957 -0.3361
vn 0.6298 0.7015 -0.3334
vn 0.6298 0.7014 -0.3335
vn 0.6301 0.7012 -0.3337
vn 0.6395 0.6901 -0.3386
vn 0.6395 0.6902 -0.3385
vn 0.6395 0.6903 -0.3383
vn 0.6395 0.6901 -0.3387
vn 0.6394 0.6902 -0.3386
usemtl None
s 1
f 5//1 215//2 233//3
f 105//4 104//4 40//5
f 3//6 6//7 7//8
f 4//9 7//8 8//10
f 4//9 9//11 5//1
f 84//12 83//12 90//13
f 7//8 11//14 12//15
f 7//8 13//16 8//10
f 8//10 14//17 9//11
f 10//18 14//17 15//19
f 11//14 120//20 119//21
f 135//22 133//22 132//23
f 13//16 16//24 17//25
f 13//16 18//26 14//17
f 14//17 163//27 162//27
f 16//24 252//28 19//29
f 17//25 267//30 266//31
f 17//25 297//32 293//32
f 47//33 46//34 42//34
f 56//35 55//36 1//37
f 68//38 67//38 3//6
f 94//39 27//40 10//18
f 5//1 9//11 30//41
f 144//42 143//43 10//18
f 180//44 179//45 173//45
f 183//46 182//47 2//48
f 198//49 197//49 1//37
f 212//50 211//51 210//50
f 38//52 234//53 5//1
f 250//54 249//54 246//54
f 20//55 222//56 221//57
f 221//57 220//2 20//55
f 220//2 219//58 20//55
f 4//9 5//1 230//3
f 5//1 1//37 216//3
f 215//2 5//1 216//3
f 223//3 23//59 4//9
f 226//3 225//3 229//60
f 225//3 224//3 230//3
f 229//60 225//3 230//3
f 224//3 223//3 4//9
f 1//37 20//55 219//58
f 1//37 219//58 218//61
f 224//3 4//9 230//3
f 228//2 227//62 226//3
f 229//60 228//2 226//3
f 1//37 218//61 217//57
f 1//37 217//57 216//3
f 232//3 231//63 230//3
f 233//3 232//3 5//1
f 232//3 230//3 5//1
f 6//7 2//48 102//64
f 2//48 40//5 104//4
f 103//64 2//48 104//4
f 40//5 113//65 112//64
f 112//64 111//66 110//67
f 110//67 109//68 108//69
f 108//69 107//4 105//4
f 107//4 106//64 105//4
f 112//64 110//67 108//69
f 100//64 25//70 6//7
f 103//64 102//64 2//48
f 102//64 101//4 6//7
f 101//4 100//64 6//7
f 40//5 112//64 108//69
f 108//69 105//4 40//5
f 3//6 2//48 6//7
f 4//9 3//6 7//8
f 4//9 8//10 9//11
f 6//7 25//70 93//13
f 6//7 93//13 92//71
f 75//72 35//73 11//14
f 77//74 76//12 79//12
f 76//12 75//72 11//14
f 79//12 78//75 77//74
f 76//12 11//14 79//12
f 6//7 92//71 91//13
f 90//13 89//76 84//12
f 89//76 88//12 84//12
f 6//7 91//13 90//13
f 80//13 79//12 11//14
f 11//14 6//7 90//13
f 88//12 87//71 86//71
f 11//14 90//13 83//12
f 81//77 80//13 83//12
f 80//13 11//14 83//12
f 83//12 82//78 81//77
f 86//71 85//76 88//12
f 85//76 84//12 88//12
f 7//8 6//7 11//14
f 7//8 12//15 13//16
f 8//10 13//16 14//17
f 10//18 9//11 14//17
f 11//14 35//73 124//20
f 35//73 127//20 124//20
f 127//20 126//79 125//80
f 124//20 123//20 11//14
f 123//20 122//80 121//20
f 127//20 125//80 124//20
f 114//81 24//82 115//83
f 24//82 11//14 118//84
f 115//83 24//82 118//84
f 117//85 116//20 118//84
f 116//20 115//83 118//84
f 123//20 121//20 11//14
f 121//20 120//20 11//14
f 119//21 118//84 11//14
f 16//24 12//15 128//86
f 12//15 11//14 140//23
f 16//24 128//86 33//87
f 11//14 24//82 140//23
f 24//82 141//88 140//23
f 128//86 12//15 132//23
f 130//89 129//90 131//91
f 129//90 128//86 131//91
f 128//86 132//23 131//91
f 140//23 139//23 136//22
f 139//23 138//92 136//22
f 138//92 137//92 136//22
f 132//23 12//15 135//22
f 140//23 136//22 12//15
f 135//22 134//86 133//22
f 136//22 135//22 12//15
f 13//16 12//15 16//24
f 13//16 17//25 18//26
f 29//93 15//19 149//94
f 15//19 14//17 162//27
f 149//94 15//19 162//27
f 14//17 18//26 165//27
f 18//26 21//95 171//27
f 170//27 18//26 171//27
f 21//95 172//96 171//27
f 151//97 150//27 153//27
f 150//27 149//94 162//27
f 153//27 150//27 162//27
f 153//27 152//98 151//97
f 156//94 155//94 161//27
f 155//94 154//97 161//27
f 157//27 156//94 161//27
f 154//97 153//27 162//27
f 18//26 170//27 166//27
f 165//27 18//26 166//27
f 169//27 168//99 167//27
f 170//27 169//27 166//27
f 158//100 157//27 161//27
f 160//101 159//27 161//27
f 159//27 158//100 161//27
f 169//27 167//27 166//27
f 162//27 161//27 154//97
f 14//17 165//27 164//27
f 14//17 164//27 163//27
f 16//24 33//87 252//28
f 17//25 16//24 278//31
f 16//24 19//29 280//102
f 278//31 16//24 279//103
f 280//102 279//103 16//24
f 253//103 26//104 259//105
f 26//104 17//25 266//31
f 259//105 26//104 260//106
f 255//31 254//103 258//31
f 254//103 253//103 258//31
f 257//31 256//107 255//31
f 259//105 258//31 253//103
f 258//31 257//31 255//31
f 17//25 278//31 271//31
f 278//31 277//106 271//31
f 260//106 26//104 261//31
f 261//31 26//104 266//31
f 277//106 276//108 272//109
f 271//31 277//106 272//109
f 276//108 275//110 274//111
f 274//111 273//112 272//109
f 271//31 270//113 269//114
f 274//111 272//109 276//108
f 264//31 263//111 265//102
f 263//111 262//113 265//102
f 262//113 261//31 266//31
f 271//31 269//114 268//31
f 17//25 271//31 268//31
f 266//31 265//102 262//113
f 17//25 268//31 267//30
f 17//25 26//104 313//115
f 312//32 311//116 307//117
f 311//116 310//117 308//118
f 308//118 310//117 309//119
f 17//25 313//115 312//32
f 281//120 34//121 282//122
f 34//121 18//26 283//118
f 283//118 282//122 34//121
f 286//117 285//117 18//26
f 285//117 284//32 18//26
f 287//123 286//117 18//26
f 284//32 283//118 18//26
f 307//117 311//116 308//118
f 306//124 305//32 17//25
f 305//32 304//32 17//25
f 312//32 307//117 17//25
f 307//117 306//124 17//25
f 288//32 287//123 18//26
f 304//32 303//125 302//117
f 288//32 18//26 17//25
f 289//126 288//32 17//25
f 17//25 304//32 297//32
f 304//32 302//117 297//32
f 301//32 300//127 298//116
f 300//127 299//128 298//116
f 302//117 301//32 297//32
f 290//129 289//126 17//25
f 293//32 292//130 291//123
f 291//123 290//129 17//25
f 297//32 301//32 298//116
f 297//32 296//131 293//32
f 296//131 295//132 293//32
f 295//132 294//133 293//32
f 293//32 291//123 17//25
f 18//26 34//121 51//134
f 34//121 53//135 52//136
f 51//134 34//121 52//136
f 51//134 50//137 18//26
f 41//138 21//95 18//26
f 44//34 43//34 45//137
f 43//34 42//34 46//34
f 45//137 43//34 46//34
f 42//34 41//138 47//33
f 41//138 18//26 48//134
f 47//33 41//138 48//134
f 18//26 50//137 49//34
f 18//26 49//34 48//134
f 1//37 36//139 56//35
f 36//139 63//35 56//35
f 62//36 61//140 60//35
f 63//35 62//36 59//35
f 56//35 63//35 57//35
f 54//141 20//55 55//36
f 20//55 1//37 55//36
f 62//36 60//35 59//35
f 63//35 59//35 58//35
f 58//35 57//35 63//35
f 3//6 28//142 73//38
f 28//142 74//143 73//38
f 73//38 72//38 3//6
f 71//38 70//144 69//38
f 71//38 69//38 3//6
f 69//38 68//38 3//6
f 3//6 72//38 71//38
f 32//145 2//48 64//146
f 2//48 3//6 67//38
f 64//146 2//48 65//147
f 66//38 65//147 2//48
f 66//38 2//48 67//38
f 15//19 37//148 99//149
f 99//149 98//39 15//19
f 98//39 97//150 96//39
f 15//19 98//39 96//39
f 96//39 95//149 10//18
f 95//149 94//39 10//18
f 10//18 15//19 96//39
f 10//18 30//41 9//11
f 30//41 142//151 5//1
f 142//151 31//152 5//1
f 10//18 27//40 148//42
f 148//42 147//42 10//18
f 147//42 146//42 10//18
f 146//42 145//42 10//18
f 143//43 30//41 10//18
f 145//42 144//42 10//18
f 15//19 29//93 181//45
f 15//19 181//45 180//44
f 173//45 37//148 15//19
f 175//153 174//45 176//154
f 174//45 173//45 179//45
f 177//45 176//154 174//45
f 179//45 178//45 174//45
f 178//45 177//45 174//45
f 15//19 180//44 173//45
f 2//48 32//145 187//155
f 186//156 185//157 2//48
f 185//157 184//156 2//48
f 2//48 187//155 186//156
f 182//47 40//5 2//48
f 184//156 183//46 2//48
f 22//158 206//159 204//160
f 206//159 205//159 204//160
f 188//49 36//139 195//161
f 36//139 1//37 196//162
f 190//163 189//164 195//161
f 189//164 188//49 195//161
f 192//49 191//165 190//163
f 195//161 194//166 193//49
f 193//49 192//49 190//163
f 1//37 22//158 204//160
f 203//167 202//168 201//169
f 1//37 204//160 203//167
f 193//49 190//163 195//161
f 1//37 203//167 201//169
f 200//170 199//49 198//49
f 1//37 201//169 200//170
f 196//162 195//161 36//139
f 1//37 200//170 198//49
f 197//49 196//162 1//37
f 4//9 23//59 214//50
f 4//9 214//50 213//50
f 28//142 3//6 207//171
f 3//6 4//9 213//50
f 207//171 3//6 210//50
f 209//172 208//173 210//50
f 208//173 207//171 210//50
f 210//50 3//6 212//50
f 213//50 212//50 3//6
f 38//52 39//174 235//175
f 234//53 22//158 1//37
f 38//52 235//175 234//53
f 237//176 236//177 38//52
f 5//1 31//152 237//176
f 234//53 1//37 5//1
f 237//176 38//52 5//1
f 39//174 38//52 250//54
f 38//52 251//178 250//54
f 239//179 238//54 242//179
f 238//54 39//174 243//54
f 241//180 240//181 239//179
f 243//54 242//179 238//54
f 242//179 241//180 239//179
f 245//54 244//182 243//54
f 248//181 247//179 249//54
f 247//179 246//54 249//54
f 246//54 245//54 39//174
f 245//54 243//54 39//174
f 39//174 250//54 246//54
