# Blender v2.81 (sub 16) OBJ File: ''
# www.blender.org
mtllib Rwanda.mtl
o 0_Rwanda_sphere.001
v 4.301586 -0.157056 -2.543945
v 4.299834 -0.208882 -2.542909
v 4.291870 -0.157056 -2.559802
v 4.302424 -0.115750 -2.544441
v 4.369512 -0.235535 -2.418637
v 4.367188 -0.235535 -2.422711
v 4.354685 -0.235535 -2.444631
v 4.330207 -0.235535 -2.487546
v 4.364172 -0.157056 -2.434219
v 4.330477 -0.236939 -2.486917
v 4.333928 -0.241296 -2.480382
v 4.337494 -0.243766 -2.473856
v 4.339513 -0.243596 -2.470335
v 4.347555 -0.244959 -2.456085
v 4.350731 -0.244977 -2.450515
v 4.352551 -0.243486 -2.447490
v 4.367335 -0.237284 -2.422259
v 4.300908 -0.119313 -2.546756
v 4.297266 -0.121866 -2.552585
v 4.294805 -0.127265 -2.556356
v 4.292315 -0.136376 -2.560008
v 4.291413 -0.147762 -2.560966
v 4.308167 -0.094495 -2.535385
v 4.308389 -0.098693 -2.534797
v 4.306612 -0.105414 -2.537592
v 4.362391 -0.150048 -2.437677
v 4.359465 -0.141469 -2.443215
v 4.356036 -0.132395 -2.449658
v 4.353901 -0.131506 -2.453443
v 4.351116 -0.128070 -2.458490
v 4.348190 -0.122986 -2.463861
v 4.346538 -0.121075 -2.466848
v 4.345138 -0.121006 -2.469307
v 4.335894 -0.116511 -2.485727
v 4.334949 -0.117916 -2.487317
v 4.333251 -0.126648 -2.489879
v 4.332438 -0.127921 -2.491243
v 4.331137 -0.128232 -2.493508
v 4.328552 -0.126233 -2.498137
v 4.323903 -0.119402 -2.506612
v 4.321886 -0.115253 -2.510346
v 4.319532 -0.109420 -2.514749
v 4.316529 -0.102843 -2.520327
v 4.314891 -0.097111 -2.523472
v 4.313229 -0.093758 -2.526546
v 4.311008 -0.092755 -2.530486
v 4.308524 -0.093009 -2.534830
v 4.306774 -0.093124 -2.537893
v 4.292023 -0.161461 -2.559220
v 4.291107 -0.171644 -2.559948
v 4.288809 -0.178320 -2.563198
v 4.287968 -0.186982 -2.563918
v 4.288610 -0.197627 -2.562072
v 4.289587 -0.203995 -2.559999
v 4.290927 -0.206110 -2.557652
v 4.292492 -0.206895 -2.555038
v 4.294698 -0.206182 -2.551494
v 4.297317 -0.207089 -2.547152
v 4.300110 -0.209092 -2.542408
v 4.301833 -0.209376 -2.539364
v 4.302905 -0.208984 -2.537518
v 4.304976 -0.207281 -2.534021
v 4.308359 -0.201776 -2.528526
v 4.314187 -0.204812 -2.518068
v 4.315794 -0.204743 -2.515254
v 4.317877 -0.207357 -2.511396
v 4.319546 -0.210573 -2.508215
v 4.320621 -0.210801 -2.506312
v 4.321748 -0.210356 -2.504372
v 4.327070 -0.203866 -2.495557
v 4.328931 -0.204080 -2.492276
v 4.329078 -0.222312 -2.490575
v 4.329604 -0.232426 -2.488850
v 4.355284 -0.233163 -2.443770
v 4.359746 -0.228568 -2.436310
v 4.363940 -0.226425 -2.429128
v 4.365606 -0.227020 -2.426160
v 4.366899 -0.232430 -2.423465
v 4.371458 -0.233960 -2.415349
v 4.372808 -0.229863 -2.413308
v 4.373159 -0.222932 -2.413241
v 4.374941 -0.213439 -2.410870
v 4.374284 -0.209392 -2.412343
v 4.372792 -0.206777 -2.415167
v 4.369648 -0.201762 -2.421077
v 4.364831 -0.194818 -2.430072
v 4.363857 -0.191495 -2.432042
v 4.363346 -0.185973 -2.433377
v 4.364102 -0.173132 -2.433069
v 4.364955 -0.162292 -2.432432
v 4.364508 -0.158432 -2.433522
vn 0.8681 -0.0339 -0.4951
vn 0.8684 -0.0236 -0.4953
vn 0.8679 -0.0412 -0.4950
vn 0.8673 -0.0553 -0.4946
vn 0.8677 -0.0458 -0.4949
vn 0.8673 -0.0549 -0.4947
vn 0.8673 -0.0550 -0.4947
vn 0.8678 -0.0448 -0.4949
vn 0.8524 -0.0236 -0.5223
vn 0.8603 -0.0314 -0.5088
vn 0.8520 -0.0393 -0.5221
vn 0.8520 -0.0392 -0.5220
vn 0.8679 -0.0393 -0.4951
vn 0.8679 -0.0392 -0.4951
vn 0.8679 -0.0392 -0.4950
vn 0.8651 -0.0235 -0.5010
vn 0.8684 -0.0237 -0.4953
vn 0.8684 -0.0235 -0.4953
vn 0.8684 -0.0234 -0.4953
vn 0.8684 -0.0230 -0.4953
vn 0.8684 -0.0237 -0.4952
vn 0.8685 -0.0239 -0.4951
vn 0.8682 -0.0236 -0.4956
vn 0.8683 -0.0236 -0.4954
vn 0.8677 -0.0451 -0.4949
vn 0.8674 -0.0549 -0.4946
vn 0.8673 -0.0548 -0.4947
vn 0.8673 -0.0547 -0.4946
vn 0.8675 -0.0542 -0.4945
vn 0.8522 -0.0307 -0.5222
vn 0.8524 -0.0235 -0.5223
vn 0.8524 -0.0237 -0.5223
vn 0.8618 -0.0391 -0.5056
vn 0.8520 -0.0390 -0.5221
vn 0.8520 -0.0392 -0.5221
vn 0.8519 -0.0392 -0.5222
vn 0.8520 -0.0394 -0.5220
vn 0.8679 -0.0393 -0.4950
vn 0.8680 -0.0393 -0.4950
vn 0.8679 -0.0391 -0.4951
vn 0.8680 -0.0386 -0.4950
vn 0.8680 -0.0392 -0.4950
vn 0.8679 -0.0398 -0.4951
vn 0.8679 -0.0390 -0.4951
vn 0.8679 -0.0399 -0.4950
vn 0.8681 -0.0374 -0.4949
vn 0.8683 -0.0385 -0.4945
vn 0.8680 -0.0392 -0.4949
usemtl None
s 1
f 9//1 38//2 37//2
f 5//3 17//4 6//5
f 13//6 11//7 8//8
f 20//9 18//9 1//10
f 53//11 52//12 57//12
f 77//13 84//14 81//15
f 9//1 1//10 38//2
f 1//10 4//16 41//2
f 38//2 1//10 39//17
f 26//18 9//1 37//2
f 28//18 27//18 29//2
f 27//18 26//18 37//2
f 29//2 27//18 37//2
f 23//19 48//20 47//17
f 47//17 46//19 23//19
f 46//19 45//2 24//2
f 45//2 44//18 24//2
f 44//18 43//2 24//2
f 43//2 42//18 25//2
f 42//18 41//2 4//16
f 25//2 42//18 4//16
f 46//19 24//2 23//19
f 24//2 43//2 25//2
f 41//2 40//2 1//10
f 30//2 29//2 37//2
f 32//21 31//22 33//17
f 31//22 30//2 33//17
f 35//23 34//24 36//18
f 34//24 33//17 36//18
f 40//2 39//17 1//10
f 33//17 30//2 36//18
f 37//2 36//18 30//2
f 8//8 7//25 13//6
f 7//25 16//26 15//27
f 13//6 7//25 14//6
f 15//27 14//6 7//25
f 13//6 12//28 11//7
f 10//29 8//8 11//7
f 1//10 3//30 22//31
f 22//31 21//9 1//10
f 21//9 20//9 1//10
f 20//9 19//32 18//9
f 18//9 4//16 1//10
f 1//10 2//33 58//12
f 57//12 56//34 54//35
f 56//34 55//36 54//35
f 1//10 58//12 50//35
f 58//12 57//12 52//12
f 50//35 58//12 52//12
f 49//35 3//30 1//10
f 52//12 51//37 50//35
f 50//35 49//35 1//10
f 54//35 53//11 57//12
f 7//25 8//8 74//38
f 8//8 73//39 72//13
f 72//13 71//14 74//38
f 70//15 69//13 66//40
f 69//13 68//13 66//40
f 8//8 72//13 74//38
f 68//13 67//41 66//40
f 75//42 74//38 87//14
f 74//38 71//14 87//14
f 75//42 87//14 86//14
f 70//15 66//40 65//13
f 76//14 75//42 86//14
f 70//15 65//13 1//10
f 65//13 64//43 63//15
f 1//10 65//13 63//15
f 77//13 76//14 85//14
f 63//15 62//13 2//33
f 62//13 61//44 2//33
f 2//33 61//44 60//45
f 60//45 59//46 2//33
f 2//33 1//10 63//15
f 1//10 9//1 71//14
f 9//1 91//47 90//48
f 71//14 9//1 89//15
f 90//48 89//15 9//1
f 89//15 88//14 71//14
f 88//14 87//14 71//14
f 71//14 70//15 1//10
f 86//14 85//14 76//14
f 85//14 84//14 77//13
f 84//14 83//14 82//39
f 81//15 80//14 77//13
f 80//14 79//40 78//42
f 84//14 82//39 81//15
f 5//3 6//5 78//42
f 5//3 78//42 79//40
f 78//42 77//13 80//14
