# Blender v2.81 (sub 16) OBJ File: ''
# www.blender.org
mtllib Saint Kitts and Nevis.mtl
o 0_Saint_Kitts_and_Nevis_sphere.001
v 2.200294 1.470200 4.241832
v 2.196910 1.472553 4.242781
v 2.196803 1.478350 4.240764
v 2.199762 1.478492 4.239146
v 2.203119 1.475918 4.238290
v 2.203843 1.471891 4.239347
vn 0.4462 0.3014 0.8426
vn 0.4461 0.3014 0.8427
vn 0.4462 0.3015 0.8426
vn 0.4461 0.3015 0.8427
usemtl None
s 1
f 4//1 3//2 2//1
f 2//1 1//3 5//3
f 1//3 6//4 5//3
f 5//3 4//1 2//1
o 1_Saint_Kitts_and_Nevis_sphere.001
v 2.193448 1.480456 4.241786
v 2.189322 1.485574 4.242140
v 2.183726 1.487003 4.244592
v 2.178615 1.490054 4.246207
v 2.178415 1.490704 4.246080
v 2.178261 1.492214 4.245622
v 2.178918 1.493960 4.244649
v 2.181119 1.495294 4.243006
v 2.187659 1.491176 4.241016
v 2.191219 1.485980 4.240991
v 2.194164 1.483588 4.240288
v 2.195158 1.481755 4.240417
vn 0.4460 0.3015 0.8427
vn 0.4462 0.3013 0.8427
vn 0.4465 0.3011 0.8426
vn 0.4459 0.3014 0.8428
vn 0.4462 0.3015 0.8426
vn 0.4461 0.3015 0.8426
vn 0.4462 0.3014 0.8426
vn 0.4475 0.3009 0.8421
vn 0.4462 0.3018 0.8425
usemtl None
s 1
f 8//5 7//6 16//5
f 18//7 17//8 7//6
f 17//8 16//5 7//6
f 16//5 15//9 8//5
f 15//9 14//10 9//9
f 8//5 15//9 9//9
f 14//10 13//11 11//9
f 13//11 12//12 11//9
f 14//10 11//9 9//9
f 11//9 10//13 9//9
