# Blender v2.81 (sub 16) OBJ File: ''
# www.blender.org
mtllib Saint Lucia.mtl
o 0_Saint_Lucia_sphere.001
v 2.358337 1.185589 4.246017
v 2.349624 1.191159 4.249393
v 2.347851 1.198138 4.248409
v 2.348045 1.202370 4.247088
v 2.352012 1.210442 4.242517
v 2.355204 1.215669 4.239202
v 2.357694 1.217402 4.237286
v 2.360095 1.210431 4.237909
v 2.361415 1.194414 4.241737
vn 0.4808 0.2411 0.8430
vn 0.4809 0.2411 0.8430
vn 0.4809 0.2410 0.8430
usemtl None
s 1
f 9//1 8//2 5//1
f 8//2 7//3 6//1
f 6//1 5//1 8//2
f 5//1 4//1 9//1
f 4//1 3//1 9//1
f 3//1 2//1 9//1
f 2//1 1//1 9//1
