# Blender v2.81 (sub 16) OBJ File: ''
# www.blender.org
mtllib Saint Barthelemy.mtl
o 0_Saint_Barthelemy_sphere.001
v 2.171603 1.534652 4.233964
v 2.170602 1.535352 4.234244
v 2.169651 1.536601 4.234300
v 2.169041 1.537838 4.234180
v 2.169033 1.538590 4.233916
v 2.169698 1.538234 4.233691
v 2.174653 1.537401 4.231365
v 2.174250 1.536493 4.231904
v 2.173587 1.535465 4.232622
v 2.172667 1.534725 4.233374
vn 0.4463 0.3013 0.8426
vn 0.4459 0.3015 0.8427
vn 0.4453 0.3016 0.8430
vn 0.4461 0.3015 0.8426
vn 0.4449 0.3016 0.8433
vn 0.4461 0.3014 0.8427
vn 0.4463 0.3015 0.8425
usemtl None
s 1
f 8//1 7//1 6//2
f 6//2 5//3 4//4
f 4//4 3//5 6//2
f 3//5 2//6 6//2
f 2//6 1//7 10//1
f 10//1 9//1 2//6
f 9//1 8//1 6//2
f 2//6 9//1 6//2
