# Blender v2.81 (sub 16) OBJ File: ''
# www.blender.org
mtllib Samoa.mtl
o 0_Samoa_sphere.001
v -4.799322 -1.213436 0.697733
v -4.801885 -1.209599 0.686493
v -4.802468 -1.209561 0.682466
v -4.805829 -1.201536 0.673001
v -4.807076 -1.197324 0.671659
v -4.807031 -1.194551 0.676864
v -4.805878 -1.193088 0.687551
v -4.801337 -1.199208 0.708664
v -4.799548 -1.204620 0.711694
v -4.798707 -1.205204 0.716567
v -4.797584 -1.207562 0.720306
v -4.796511 -1.211353 0.721157
v -4.796065 -1.213393 0.720696
vn -0.9608 -0.2411 0.1368
vn -0.9608 -0.2410 0.1368
vn -0.9608 -0.2409 0.1369
vn -0.9608 -0.2409 0.1367
vn -0.9608 -0.2409 0.1368
vn -0.9608 -0.2411 0.1367
usemtl None
s 1
f 6//1 5//2 4//2
f 12//3 11//4 10//5
f 9//6 8//6 1//6
f 8//6 7//6 1//6
f 1//6 7//6 2//2
f 12//3 10//5 13//2
f 10//5 9//6 13//2
f 1//6 13//2 9//6
f 4//2 3//1 6//1
f 3//1 2//2 7//6
f 6//1 3//1 7//6
o 1_Samoa_sphere.001
v -4.820871 -1.167230 0.627792
v -4.817406 -1.167230 0.652138
v -4.815369 -1.172147 0.657782
v -4.812230 -1.182738 0.661165
v -4.810308 -1.192877 0.656793
v -4.812188 -1.190379 0.647987
v -4.813483 -1.192572 0.635021
v -4.814270 -1.191860 0.630751
v -4.818797 -1.179456 0.620812
v -4.821189 -1.173882 0.613829
v -4.822892 -1.168646 0.611102
v -4.821451 -1.169210 0.620226
v -4.820395 -1.165689 0.633677
v -4.818624 -1.164163 0.648625
vn -0.9608 -0.2411 0.1367
vn -0.9616 -0.2376 0.1368
vn -0.9644 -0.2259 0.1373
vn -0.9611 -0.2398 0.1368
vn -0.9608 -0.2411 0.1368
vn -0.9608 -0.2409 0.1368
vn -0.9608 -0.2410 0.1368
vn -0.9608 -0.2412 0.1367
vn -0.9644 -0.2260 0.1372
usemtl None
s 1
f 17//7 16//7 19//7
f 15//8 26//9 14//10
f 15//8 14//10 19//7
f 14//10 25//7 22//11
f 25//7 24//12 23//13
f 22//11 21//11 14//10
f 21//11 20//11 14//10
f 25//7 23//13 22//11
f 16//7 15//8 19//7
f 19//7 14//10 20//11
f 18//14 17//7 19//7
f 15//8 27//15 26//9
