# Blender v2.81 (sub 16) OBJ File: ''
# www.blender.org
mtllib Sao Tome and Principe.mtl
o 0_Sao_Tome_and_Principe_sphere.001
v 4.966697 0.004131 -0.570873
v 4.967039 0.005784 -0.567651
v 4.967223 0.010241 -0.565671
v 4.967423 0.019837 -0.563164
v 4.967298 0.024443 -0.563976
v 4.966809 0.029692 -0.568027
v 4.965796 0.034925 -0.576830
v 4.965208 0.035287 -0.582128
v 4.964660 0.028415 -0.587586
v 4.964714 0.021243 -0.587612
v 4.965659 0.010527 -0.579815
vn 0.9939 0.0078 -0.1097
vn 0.9939 0.0080 -0.1097
vn 0.9939 0.0079 -0.1097
vn 0.9939 0.0073 -0.1096
usemtl None
s 1
f 11//1 10//1 6//1
f 10//1 9//2 7//3
f 9//2 8//3 7//3
f 7//3 6//1 10//1
f 6//1 5//1 11//1
f 5//1 4//1 11//1
f 4//1 3//1 11//1
f 3//1 2//4 1//1
f 11//1 3//1 1//1
o 1_Sao_Tome_and_Principe_sphere.001
v 4.956355 0.134499 -0.642536
v 4.956855 0.136421 -0.638701
v 4.956918 0.139893 -0.637678
v 4.956060 0.146592 -0.642580
v 4.955692 0.148245 -0.644891
v 4.955447 0.146843 -0.646848
v 4.955327 0.145002 -0.648004
v 4.955365 0.142309 -0.648184
v 4.955843 0.136782 -0.645745
vn 0.9897 0.0235 -0.1409
vn 0.9897 0.0234 -0.1408
vn 0.9897 0.0235 -0.1408
vn 0.9897 0.0233 -0.1408
vn 0.9897 0.0236 -0.1408
vn 0.9897 0.0237 -0.1409
vn 0.9897 0.0236 -0.1409
vn 0.9897 0.0232 -0.1409
usemtl None
s 1
f 20//5 19//6 15//7
f 19//6 18//8 15//7
f 18//8 17//9 15//7
f 17//9 16//9 15//7
f 15//7 14//10 20//5
f 14//10 13//11 20//5
f 13//11 12//12 20//5
