# Blender v2.81 (sub 16) OBJ File: ''
# www.blender.org
mtllib Senegal.mtl
o 0_Senegal_sphere.001
v 4.726275 1.243447 1.056454
v 4.744755 1.167225 1.060585
v 4.762061 1.090714 1.064452
v 4.650617 1.394954 1.194081
v 4.671264 1.319363 1.199383
v 4.690759 1.243447 1.204388
v 4.610815 1.394954 1.339571
v 4.631285 1.319363 1.345519
v 4.650614 1.243447 1.351134
v 4.685826 1.090714 1.361364
v 4.691071 1.167225 1.275002
v 4.695598 1.167225 1.258455
v 4.675233 1.138309 1.358287
v 4.755977 1.167225 1.006397
v 4.659802 1.394954 1.155824
v 4.604846 1.394954 1.358976
v 4.688488 1.077842 1.362137
v 4.711875 1.299102 1.053235
v 4.704871 1.090714 1.291749
v 4.709371 1.167225 1.207970
v 4.711759 1.167225 1.198024
v 4.719077 1.167225 1.167545
v 4.752890 1.090714 1.102653
v 4.640618 1.429467 1.191514
v 4.602654 1.423367 1.337200
v 4.781990 1.090714 0.968219
v 4.671978 1.090714 1.406377
v 4.673163 1.090714 1.402524
v 4.676719 1.090714 1.390966
v 4.677248 1.090714 1.389248
v 4.679695 1.090714 1.381295
v 4.615473 1.319363 1.396918
v 4.701642 1.319363 1.072849
v 4.765803 1.072908 1.065289
v 4.733289 1.243447 1.022587
v 4.631396 1.243447 1.413602
v 4.709049 1.167436 1.209085
v 4.666872 1.175300 1.355858
v 4.713637 1.147013 1.210263
v 4.724814 1.097225 1.213132
v 4.662239 1.390485 1.151069
v 4.663623 1.389632 1.146334
v 4.663873 1.392509 1.141818
v 4.664779 1.392193 1.138427
v 4.666337 1.388677 1.136186
v 4.667728 1.387949 1.131269
v 4.668467 1.390116 1.125578
v 4.669620 1.389374 1.121670
v 4.670368 1.387280 1.121079
v 4.670889 1.386167 1.120255
v 4.671668 1.385675 1.117604
v 4.673276 1.382988 1.114154
v 4.676468 1.375783 1.109559
v 4.680212 1.365750 1.106086
v 4.684512 1.352866 1.103738
v 4.687447 1.345857 1.099979
v 4.689014 1.344723 1.094816
v 4.690467 1.342087 1.091952
v 4.691455 1.339016 1.091544
v 4.692393 1.336932 1.090154
v 4.693315 1.335774 1.087713
v 4.694183 1.336479 1.083246
v 4.696623 1.332137 1.078325
v 4.700560 1.322686 1.073344
v 4.687553 1.077336 1.365547
v 4.685805 1.073568 1.373987
v 4.684516 1.070824 1.380186
v 4.682221 1.069179 1.388850
v 4.678552 1.070493 1.399816
v 4.677340 1.069684 1.404348
v 4.675703 1.073502 1.406876
v 4.673441 1.079712 1.409676
v 4.673124 1.084251 1.407385
v 4.674587 1.087191 1.400475
v 4.678945 1.089088 1.384922
v 4.679919 1.089004 1.381817
v 4.672482 1.089349 1.405738
v 4.701932 1.318414 1.072718
v 4.702311 1.316121 1.073744
v 4.702824 1.314450 1.073507
v 4.704128 1.312853 1.069888
v 4.705772 1.309754 1.066560
v 4.707669 1.305086 1.063960
v 4.710222 1.300963 1.058006
v 4.603183 1.423960 1.334597
v 4.604571 1.423361 1.330200
v 4.606146 1.420880 1.327253
v 4.609135 1.419325 1.318090
v 4.613526 1.418701 1.302749
v 4.616274 1.420464 1.290703
v 4.617369 1.424636 1.281973
v 4.619776 1.426757 1.270773
v 4.623498 1.426812 1.257102
v 4.624957 1.428573 1.249776
v 4.624156 1.432018 1.248797
v 4.624345 1.433057 1.246929
v 4.625520 1.431688 1.244187
v 4.626091 1.432244 1.241469
v 4.626075 1.434703 1.238741
v 4.626712 1.434870 1.236223
v 4.628004 1.432753 1.233899
v 4.631315 1.432140 1.222490
v 4.636632 1.433044 1.202032
v 4.690694 1.170073 1.273701
v 4.691170 1.171863 1.270273
v 4.692738 1.170440 1.265883
v 4.694873 1.168227 1.260159
v 4.708906 1.167531 1.209520
v 4.705496 1.172254 1.217539
v 4.702921 1.177011 1.222472
v 4.700391 1.179232 1.229629
v 4.697491 1.181443 1.238150
v 4.691341 1.191249 1.251397
v 4.688929 1.193017 1.258552
v 4.686932 1.193524 1.265376
v 4.683796 1.191571 1.278675
v 4.681540 1.186306 1.291881
v 4.682539 1.174394 1.299438
v 4.678968 1.174575 1.312322
v 4.671378 1.175024 1.339644
v 4.717886 1.097254 1.238428
v 4.712204 1.097296 1.259161
v 4.706899 1.097363 1.278494
v 4.679018 1.138119 1.344618
v 4.683516 1.137926 1.328349
v 4.680768 1.152263 1.325802
v 4.681928 1.153370 1.320591
v 4.683709 1.154846 1.312783
v 4.687253 1.156574 1.298312
v 4.691267 1.158236 1.282181
v 4.691569 1.161059 1.278596
v 4.691233 1.165812 1.275651
v 4.697326 1.164775 1.254288
v 4.699955 1.161572 1.247492
v 4.701679 1.159562 1.242957
v 4.705858 1.154535 1.232092
v 4.712652 1.147560 1.213384
v 4.704521 1.089632 1.293910
v 4.701841 1.081229 1.310563
v 4.696810 1.076786 1.332580
v 4.689602 1.078521 1.357509
v 4.734066 1.241366 1.021383
v 4.736237 1.236832 1.016453
v 4.738012 1.232667 1.012983
v 4.740246 1.226938 1.009214
v 4.743156 1.215534 1.009132
v 4.745003 1.207298 1.010303
v 4.746460 1.203572 1.007829
v 4.748069 1.198877 1.005812
v 4.748930 1.194949 1.006469
v 4.749465 1.191490 1.008122
v 4.749543 1.186911 1.013353
v 4.751447 1.178369 1.014623
v 4.755632 1.168015 1.007093
v 4.758005 1.162357 1.002167
v 4.758729 1.159112 1.002378
v 4.759834 1.155572 1.001089
v 4.761566 1.151425 0.997463
v 4.761835 1.152392 0.995057
v 4.761603 1.155782 0.992306
v 4.761315 1.158113 0.991036
v 4.762992 1.157073 0.984121
v 4.763912 1.156020 0.980887
v 4.766380 1.149226 0.976733
v 4.767736 1.144727 0.975324
v 4.769249 1.139046 0.974511
v 4.771822 1.131966 0.970178
v 4.773790 1.126986 0.966365
v 4.774674 1.123872 0.965655
v 4.776385 1.119652 0.962213
v 4.778041 1.110299 0.964907
v 4.779188 1.105496 0.964858
v 4.781529 1.092920 0.967922
v 4.782709 1.086965 0.968728
v 4.783201 1.084776 0.968675
v 4.785299 1.080277 0.963322
v 4.786525 1.073898 0.964176
v 4.785127 1.075008 0.969749
v 4.782952 1.075743 0.979470
v 4.779599 1.072423 0.999183
v 4.777922 1.073784 1.005838
v 4.775354 1.073353 1.018696
v 4.773842 1.071536 1.027925
v 4.772298 1.067430 1.039741
v 4.770215 1.068469 1.048700
v 4.768514 1.071762 1.053417
v 4.767229 1.071550 1.059843
v 4.604789 1.395257 1.358850
v 4.605204 1.396972 1.355757
v 4.604363 1.403864 1.351480
v 4.602272 1.415934 1.346004
v 4.601904 1.422639 1.340380
v 4.612267 1.355759 1.372435
v 4.610783 1.364496 1.368882
v 4.609812 1.371127 1.365678
v 4.606265 1.386251 1.362707
v 4.631341 1.243581 1.413661
v 4.627011 1.250315 1.421662
v 4.621442 1.263606 1.427782
v 4.617850 1.268708 1.434861
v 4.615136 1.271087 1.441536
v 4.613453 1.270610 1.447438
v 4.614325 1.264557 1.450060
v 4.609868 1.273296 1.456671
v 4.612149 1.276410 1.446448
v 4.615952 1.287331 1.424240
v 4.615515 1.318730 1.397350
v 4.664141 1.175384 1.364663
v 4.658020 1.174518 1.385290
v 4.655322 1.183181 1.386743
v 4.652184 1.190061 1.391130
v 4.648354 1.195937 1.398617
v 4.646521 1.201392 1.399966
v 4.646207 1.206167 1.396951
v 4.647619 1.210093 1.389045
v 4.647486 1.212905 1.387103
v 4.646360 1.212470 1.391132
v 4.645103 1.209941 1.397354
v 4.643907 1.209786 1.401372
v 4.641962 1.217341 1.401313
v 4.637587 1.227071 1.407313
v 4.676907 1.091033 1.390103
v 4.679578 1.091452 1.381091
v 4.678988 1.092746 1.381989
v 4.675906 1.096040 1.389411
v 4.673711 1.100412 1.393103
v 4.673272 1.097851 1.396548
v 4.673597 1.092476 1.399724
v 4.673235 1.090858 1.402175
v 4.671087 1.093006 1.407466
v 4.670039 1.096550 1.408080
v 4.669920 1.099283 1.406313
v 4.666258 1.114666 1.406092
v 4.664726 1.122875 1.404604
v 4.662987 1.130048 1.404605
v 4.663407 1.134771 1.399516
v 4.664149 1.137706 1.394790
v 4.669525 1.138026 1.377065
v 4.674525 1.138329 1.360574
v 4.727969 1.264284 1.021040
v 4.729303 1.257791 1.023083
v 4.731395 1.248291 1.025401
v 4.713303 1.297329 1.048659
v 4.716142 1.291880 1.042074
v 4.718895 1.284634 1.038252
v 4.722289 1.278545 1.029822
v 4.722836 1.277872 1.028059
v 4.716614 1.170797 1.173999
v 4.713392 1.170222 1.188033
v 4.712713 1.168755 1.192419
v 4.752662 1.091876 1.102445
v 4.751846 1.093450 1.104285
v 4.750621 1.093976 1.108863
v 4.748848 1.093946 1.116279
v 4.745708 1.095130 1.128182
v 4.744884 1.095864 1.130884
v 4.738229 1.096866 1.157611
v 4.731520 1.097030 1.185393
v 4.725833 1.097190 1.208922
v 4.717197 1.144712 1.197719
v 4.720646 1.149808 1.178295
v 4.723226 1.153099 1.164281
v 4.722251 1.159257 1.162230
v 4.720378 1.165282 1.164051
v 4.711580 1.166947 1.199048
v 4.710798 1.166233 1.203011
v 4.765302 1.073321 1.066993
v 4.762819 1.076432 1.074467
v 4.760807 1.078021 1.081381
v 4.757784 1.083806 1.088638
v 4.756723 1.084839 1.092104
v 4.756449 1.083313 1.094653
v 4.756358 1.081367 1.096827
v 4.756089 1.080163 1.099057
v 4.754885 1.081221 1.103097
v 4.753689 1.085165 1.104439
v 4.753197 1.088979 1.102974
v 4.643363 1.426727 1.183592
v 4.651485 1.413173 1.167123
v 4.656264 1.404147 1.158782
v 4.657708 1.399634 1.158549
v 4.659725 1.395089 1.155972
vn 0.9452 0.2487 0.2113
vn 0.9399 0.2562 0.2256
vn 0.9399 0.2563 0.2256
vn 0.9437 0.2411 0.2265
vn 0.9437 0.2410 0.2266
vn 0.9381 0.2487 0.2409
vn 0.9473 0.2257 0.2275
vn 0.9473 0.2257 0.2274
vn 0.9472 0.2258 0.2274
vn 0.9241 0.2865 0.2528
vn 0.9221 0.2789 0.2679
vn 0.9343 0.2638 0.2399
vn 0.9263 0.2638 0.2691
vn 0.9301 0.2487 0.2702
vn 0.9157 0.2865 0.2817
vn 0.9157 0.2864 0.2817
vn 0.9199 0.2713 0.2830
vn 0.9199 0.2714 0.2830
vn 0.9239 0.2562 0.2842
vn 0.9239 0.2563 0.2842
vn 0.9311 0.2257 0.2864
vn 0.9312 0.2255 0.2864
vn 0.9358 0.2716 0.2246
vn 0.9359 0.2712 0.2246
vn 0.9359 0.2712 0.2247
vn 0.9322 0.2207 0.2868
vn 0.9343 0.2107 0.2874
vn 0.9315 0.2247 0.2861
vn 0.9344 0.2105 0.2874
vn 0.9372 0.2181 0.2723
vn 0.9344 0.2104 0.2875
vn 0.9361 0.2410 0.2561
vn 0.9362 0.2407 0.2559
vn 0.9384 0.2315 0.2567
vn 0.9391 0.2281 0.2569
vn 0.9396 0.2257 0.2570
vn 0.9396 0.2258 0.2571
vn 0.9429 0.2105 0.2579
vn 0.9431 0.2098 0.2580
vn 0.9489 0.2334 0.2121
vn 0.9503 0.2411 0.1968
vn 0.9539 0.2257 0.1975
vn 0.9539 0.2259 0.1975
vn 0.9539 0.2258 0.1975
vn 0.9524 0.2181 0.2129
vn 0.9573 0.2104 0.1982
vn 0.9573 0.2105 0.1982
vn 0.9276 0.2411 0.2853
vn 0.9276 0.2410 0.2854
vn 0.9342 0.2111 0.2875
vn 0.9311 0.2259 0.2865
vn 0.9340 0.2121 0.2873
vn 0.9465 0.2563 0.1960
vn 0.9465 0.2562 0.1960
vn 0.9437 0.2409 0.2266
vn 0.9471 0.2264 0.2274
vn 0.9439 0.2400 0.2266
vn 0.9506 0.2104 0.2282
vn 0.9506 0.2105 0.2282
vn 0.9492 0.2172 0.2279
vn 0.9316 0.2865 0.2236
vn 0.9301 0.2790 0.2388
vn 0.9425 0.2563 0.2143
vn 0.9399 0.2562 0.2257
vn 0.9382 0.2627 0.2253
vn 0.9398 0.2564 0.2257
vn 0.9398 0.2557 0.2264
vn 0.9399 0.2560 0.2257
vn 0.9442 0.2387 0.2267
vn 0.9403 0.2417 0.2393
vn 0.9437 0.2411 0.2266
vn 0.9474 0.2252 0.2275
vn 0.9431 0.2258 0.2439
vn 0.9436 0.2258 0.2422
vn 0.9472 0.2257 0.2274
vn 0.9470 0.2271 0.2273
vn 0.9272 0.2865 0.2412
vn 0.9241 0.2864 0.2528
vn 0.9243 0.2858 0.2530
vn 0.9241 0.2866 0.2528
vn 0.9242 0.2862 0.2529
vn 0.9207 0.2864 0.2652
vn 0.9239 0.2871 0.2527
vn 0.9242 0.2862 0.2528
vn 0.9243 0.2859 0.2528
vn 0.9242 0.2863 0.2528
vn 0.9158 0.2864 0.2816
vn 0.9162 0.2846 0.2821
vn 0.9184 0.2770 0.2826
vn 0.9226 0.2611 0.2838
vn 0.9242 0.2550 0.2842
vn 0.9234 0.2582 0.2840
vn 0.9238 0.2563 0.2842
vn 0.9330 0.2172 0.2870
vn 0.9310 0.2261 0.2864
vn 0.9355 0.2258 0.2718
vn 0.9311 0.2258 0.2864
vn 0.9312 0.2256 0.2864
vn 0.9311 0.2256 0.2864
vn 0.9311 0.2258 0.2865
vn 0.9311 0.2261 0.2863
vn 0.9312 0.2251 0.2867
vn 0.9359 0.2713 0.2247
vn 0.9360 0.2708 0.2248
vn 0.9358 0.2717 0.2246
vn 0.9359 0.2714 0.2246
vn 0.9350 0.2746 0.2244
vn 0.9359 0.2715 0.2246
vn 0.9359 0.2714 0.2247
vn 0.9358 0.2715 0.2250
vn 0.9359 0.2713 0.2246
vn 0.9357 0.2720 0.2245
vn 0.9359 0.2711 0.2246
vn 0.9344 0.2104 0.2874
vn 0.9344 0.2105 0.2875
vn 0.9343 0.2105 0.2875
vn 0.9384 0.2105 0.2741
vn 0.9361 0.2409 0.2561
vn 0.9360 0.2413 0.2561
vn 0.9320 0.2410 0.2706
vn 0.9348 0.2473 0.2547
vn 0.9361 0.2412 0.2558
vn 0.9361 0.2411 0.2561
vn 0.9402 0.2233 0.2572
vn 0.9396 0.2257 0.2571
vn 0.9397 0.2257 0.2570
vn 0.9396 0.2259 0.2570
vn 0.9429 0.2105 0.2580
vn 0.9429 0.2104 0.2579
vn 0.9529 0.2302 0.1973
vn 0.9500 0.2422 0.1967
vn 0.9503 0.2410 0.1968
vn 0.9490 0.2464 0.1965
vn 0.9503 0.2412 0.1968
vn 0.9503 0.2411 0.1967
vn 0.9503 0.2410 0.1969
vn 0.9556 0.2184 0.1979
vn 0.9539 0.2256 0.1975
vn 0.9540 0.2256 0.1974
vn 0.9541 0.2251 0.1975
vn 0.9539 0.2258 0.1976
vn 0.9540 0.2257 0.1973
vn 0.9539 0.2257 0.1976
vn 0.9540 0.2253 0.1975
vn 0.9545 0.2105 0.2110
vn 0.9573 0.2104 0.1983
vn 0.9572 0.2105 0.1982
vn 0.9573 0.2103 0.1982
vn 0.9276 0.2410 0.2853
vn 0.9276 0.2410 0.2852
vn 0.9276 0.2409 0.2853
vn 0.9465 0.2564 0.1959
vn 0.9471 0.2262 0.2275
vn 0.9505 0.2106 0.2282
vn 0.9506 0.2103 0.2283
vn 0.9506 0.2101 0.2283
vn 0.9506 0.2105 0.2283
vn 0.9319 0.2856 0.2236
vn 0.9315 0.2866 0.2236
vn 0.9316 0.2865 0.2237
usemtl None
s 1
f 1//1 83//2 80//3
f 249//4 248//5 6//6
f 262//7 257//8 256//9
f 90//10 89//10 7//11
f 5//12 7//11 8//13
f 5//12 9//14 6//6
f 7//11 190//15 189//16
f 7//11 196//17 195//18
f 201//19 200//20 206//19
f 232//21 227//22 226//21
f 49//23 47//24 46//25
f 27//26 77//27 28//28
f 65//29 10//30 76//31
f 105//32 104//33 11//34
f 115//32 114//32 6//6
f 12//35 132//36 131//37
f 139//38 138//39 10//30
f 2//40 152//41 147//41
f 166//42 159//43 158//44
f 3//45 183//46 182//47
f 210//48 216//48 215//49
f 30//50 222//51 29//52
f 246//53 245//54 1//1
f 20//55 265//56 21//57
f 272//58 271//59 23//60
f 279//61 278//61 4//62
f 6//6 1//1 80//3
f 1//1 18//63 84//64
f 1//1 84//64 83//2
f 33//65 5//12 79//66
f 5//12 6//6 80//3
f 79//66 5//12 80//3
f 79//66 78//67 33//65
f 82//68 81//66 80//3
f 83//2 82//68 80//3
f 22//69 2//40 1//1
f 1//1 6//6 22//69
f 6//6 37//70 250//71
f 249//4 6//6 250//71
f 37//70 20//55 250//71
f 20//55 21//57 250//71
f 248//5 22//69 6//6
f 23//60 3//45 251//72
f 3//45 2//40 252//8
f 251//72 3//45 252//8
f 2//40 22//69 264//8
f 2//40 264//8 263//8
f 2//40 263//8 254//9
f 263//8 262//7 256//9
f 2//40 254//9 253//9
f 262//7 261//8 257//8
f 261//8 260//8 258//8
f 260//8 39//73 40//74
f 40//74 259//75 260//8
f 259//75 258//8 260//8
f 258//8 257//8 261//8
f 252//8 2//40 253//9
f 255//76 254//9 256//9
f 256//9 254//9 263//8
f 7//11 4//62 90//10
f 4//62 24//77 103//10
f 101//78 4//62 102//10
f 103//10 102//10 4//62
f 101//78 100//79 99//80
f 85//81 25//82 87//10
f 25//82 7//11 87//10
f 87//10 86//83 85//81
f 4//62 101//78 94//10
f 101//78 99//80 98//84
f 97//85 96//80 95//10
f 101//78 98//84 94//10
f 98//84 97//85 94//10
f 88//10 87//10 7//11
f 89//10 88//10 7//11
f 97//85 95//10 94//10
f 93//10 92//10 90//10
f 92//10 91//86 90//10
f 4//62 94//10 93//10
f 4//62 93//10 90//10
f 5//12 4//62 7//11
f 5//12 8//13 9//14
f 7//11 25//82 191//15
f 25//82 192//87 191//15
f 191//15 190//15 7//11
f 189//16 188//88 16//89
f 189//16 16//89 7//11
f 32//90 8//13 193//18
f 8//13 7//11 195//18
f 193//18 8//13 194//18
f 7//11 16//89 196//17
f 195//18 194//18 8//13
f 36//91 9//14 197//92
f 9//14 8//13 207//19
f 197//92 9//14 207//19
f 8//13 32//90 207//19
f 207//19 206//19 197//92
f 199//20 198//93 197//92
f 199//20 197//92 206//19
f 206//19 205//19 201//19
f 205//19 204//19 202//19
f 204//19 203//20 202//19
f 200//20 199//20 206//19
f 205//19 202//19 201//19
f 31//94 10//30 223//95
f 10//30 13//96 239//21
f 223//95 10//30 224//21
f 239//21 238//21 224//21
f 238//21 237//97 234//21
f 237//97 236//98 234//21
f 236//98 235//99 234//21
f 234//21 233//100 226//21
f 233//100 232//21 226//21
f 232//21 231//22 230//97
f 230//97 27//26 28//28
f 28//28 229//101 230//97
f 229//101 228//21 230//97
f 228//21 227//22 232//21
f 232//21 230//97 228//21
f 239//21 224//21 10//30
f 226//21 238//21 234//21
f 226//21 225//102 224//21
f 238//21 226//21 224//21
f 5//12 33//65 60//103
f 33//65 64//104 61//105
f 60//103 33//65 61//105
f 64//104 63//106 61//105
f 63//106 62//23 61//105
f 4//62 5//12 41//103
f 41//103 15//107 4//62
f 44//108 43//106 45//109
f 43//106 42//109 45//109
f 42//109 41//103 5//12
f 59//104 58//110 57//108
f 5//12 60//103 56//111
f 56//111 60//103 59//104
f 59//104 57//108 56//111
f 5//12 56//111 55//109
f 55//109 54//103 45//109
f 54//103 53//109 46//25
f 5//12 55//109 42//109
f 46//25 45//109 54//103
f 45//109 42//109 55//109
f 53//109 52//24 50//108
f 52//24 51//112 50//108
f 49//23 48//113 47//24
f 53//109 50//108 46//25
f 50//108 49//23 46//25
f 30//50 29//52 75//114
f 29//52 74//115 69//29
f 74//115 73//115 71//115
f 73//115 72//116 71//115
f 71//115 70//116 69//29
f 69//29 68//29 29//52
f 68//29 67//115 75//114
f 75//114 67//115 76//31
f 71//115 69//29 74//115
f 67//115 66//115 76//31
f 66//115 65//29 76//31
f 65//29 17//117 10//30
f 10//30 31//94 76//31
f 29//52 68//29 75//114
f 11//34 12//35 107//118
f 107//118 106//119 11//34
f 106//119 105//32 11//34
f 9//14 38//120 120//32
f 120//32 119//32 9//14
f 119//32 118//32 117//32
f 119//32 117//32 9//14
f 6//6 9//14 115//32
f 108//121 37//70 109//122
f 37//70 6//6 110//123
f 110//123 109//122 37//70
f 113//123 112//123 6//6
f 112//123 111//32 6//6
f 111//32 110//123 6//6
f 9//14 117//32 116//123
f 9//14 116//123 115//32
f 114//32 113//123 6//6
f 10//30 19//124 125//125
f 19//124 123//125 129//125
f 125//125 19//124 129//125
f 123//125 122//125 130//36
f 122//125 121//125 136//36
f 121//125 40//74 137//36
f 40//74 39//73 137//36
f 13//96 10//30 124//125
f 124//125 10//30 125//125
f 122//125 136//36 135//125
f 121//125 137//36 136//36
f 135//125 134//37 122//125
f 127//126 126//126 125//125
f 122//125 134//37 130//36
f 133//127 12//35 131//37
f 12//35 11//34 132//36
f 134//37 133//127 130//36
f 130//36 133//127 131//37
f 127//126 125//125 128//37
f 129//125 128//37 125//125
f 130//36 129//125 123//125
f 10//30 17//117 141//128
f 141//128 140//129 10//30
f 140//129 139//38 10//30
f 138//39 19//124 10//30
f 2//40 14//130 154//131
f 2//40 154//131 153//132
f 35//133 1//1 142//134
f 1//1 2//40 147//41
f 142//134 1//1 146//41
f 144//132 143//135 146//41
f 143//135 142//134 146//41
f 2//40 153//132 152//41
f 152//41 151//41 148//41
f 151//41 150//136 148//41
f 150//136 149//41 148//41
f 147//41 146//41 1//1
f 146//41 145//134 144//132
f 148//41 147//41 152//41
f 3//45 26//137 173//138
f 173//138 172//139 171//42
f 171//42 170//44 169//42
f 169//42 168//140 167//42
f 166//42 165//42 159//43
f 165//42 164//141 159//43
f 169//42 167//42 171//42
f 167//42 166//42 158//44
f 171//42 167//42 158//44
f 173//138 171//42 158//44
f 2//40 3//45 157//44
f 3//45 173//138 158//44
f 155//142 14//130 156//44
f 14//130 2//40 156//44
f 164//141 163//143 162//42
f 157//44 156//44 2//40
f 158//44 157//44 3//45
f 164//141 162//42 159//43
f 162//42 161//144 160//44
f 162//42 160//44 159//43
f 3//45 34//145 187//47
f 186//47 185//47 184//47
f 3//45 187//47 186//47
f 174//146 26//137 179//147
f 26//137 3//45 182//47
f 177//47 176//47 178//47
f 176//47 175//46 178//47
f 175//46 174//146 179//147
f 26//137 182//47 181//47
f 3//45 186//47 183//46
f 186//47 184//47 183//46
f 181//47 180//148 26//137
f 180//148 179//147 26//137
f 179//147 178//47 175//46
f 9//14 36//91 221//48
f 220//48 219//48 218//49
f 9//14 221//48 216//48
f 221//48 220//48 216//48
f 208//149 38//120 216//48
f 38//120 9//14 216//48
f 210//48 209//49 208//149
f 213//150 212//149 214//149
f 212//149 211//48 215//49
f 214//149 212//149 215//49
f 211//48 210//48 215//49
f 210//48 208//149 216//48
f 220//48 218//49 217//151
f 220//48 217//151 216//48
f 1//1 35//133 242//54
f 241//54 240//54 246//53
f 240//54 247//152 246//53
f 1//1 242//54 241//54
f 243//53 18//63 244//54
f 18//63 1//1 245//54
f 245//54 244//54 18//63
f 241//54 246//53 1//1
f 20//55 266//153 265//56
f 3//45 23//60 271//59
f 23//60 277//59 272//58
f 3//45 271//59 270//154
f 277//59 276//59 273//59
f 276//59 275//155 273//59
f 275//155 274//156 273//59
f 273//59 272//58 277//59
f 267//157 34//145 3//45
f 270//154 269//59 3//45
f 269//59 268//59 3//45
f 268//59 267//157 3//45
f 4//62 15//107 282//158
f 281//159 280//160 279//61
f 4//62 282//158 281//159
f 278//61 24//77 4//62
f 281//159 279//61 4//62
