# Blender v2.81 (sub 16) OBJ File: ''
# www.blender.org
mtllib Seychelles.mtl
o 0_Seychelles_sphere.001
v 2.818846 -0.417092 -4.108016
v 2.822397 -0.414397 -4.105806
v 2.823596 -0.409199 -4.105514
v 2.828402 -0.405324 -4.102547
v 2.830949 -0.401756 -4.101134
v 2.826015 -0.397371 -4.105066
v 2.819407 -0.409049 -4.108474
vn 0.5729 -0.0862 -0.8151
vn 0.5729 -0.0863 -0.8151
vn 0.5730 -0.0862 -0.8150
vn 0.5729 -0.0863 -0.8150
vn 0.5729 -0.0862 -0.8150
usemtl None
s 1
f 6//1 4//1 3//2
f 1//3 7//4 2//5
f 7//4 6//1 3//2
f 6//1 5//5 4//1
f 3//2 2//5 7//4
