# Blender v2.81 (sub 16) OBJ File: ''
# www.blender.org
mtllib Sierra Leone.mtl
o 0_Sierra_Leone_sphere.001
v 4.836218 0.663934 1.081028
v 4.838069 0.649814 1.081442
v 4.839768 0.644841 1.076532
v 4.837465 0.661895 1.076355
v 4.838305 0.659741 1.073727
v 4.839051 0.655641 1.072839
v 4.839724 0.647101 1.075249
v 4.837846 0.650415 1.082026
v 4.829806 0.658694 1.110750
v 4.831188 0.663133 1.102442
v 4.835839 0.664488 1.082288
vn 0.9705 0.1332 0.2010
vn 0.9705 0.1332 0.2009
vn 0.9637 0.1330 0.2314
vn 0.9637 0.1330 0.2315
vn 0.9663 0.1331 0.2201
vn 0.9688 0.1331 0.2087
vn 0.9705 0.1329 0.2011
vn 0.9705 0.1330 0.2010
vn 0.9637 0.1331 0.2314
usemtl None
s 1
f 6//1 5//2 4//2
f 10//3 9//3 8//4
f 1//5 2//6 4//2
f 2//6 3//7 7//8
f 4//2 2//6 6//1
f 7//8 6//1 2//6
f 2//6 1//5 8//4
f 1//5 11//9 8//4
f 11//9 10//3 8//4
o 1_Sierra_Leone_sphere.001
v 4.850961 0.782170 0.925376
v 4.862435 0.704504 0.927565
v 4.819500 0.782170 1.077292
v 4.830900 0.704504 1.079840
v 4.844816 0.819763 0.924204
v 4.810107 0.859643 1.059088
v 4.813804 0.859643 1.041237
v 4.816956 0.859643 1.026016
v 4.832001 0.859643 0.953364
v 4.853802 0.782170 0.909097
v 4.805891 0.782170 1.133980
v 4.852079 0.626664 1.029123
v 4.864056 0.626664 0.971289
v 4.867902 0.663071 0.928607
v 4.866280 0.704504 0.905537
v 4.835388 0.670268 1.080843
v 4.810501 0.837589 1.075280
v 4.824018 0.704504 1.108504
v 4.812091 0.862157 1.047242
v 4.818391 0.861520 1.017396
v 4.817517 0.867558 1.016177
v 4.821005 0.867642 0.999259
v 4.825136 0.867751 0.979215
v 4.828570 0.867871 0.962526
v 4.830043 0.866255 0.956867
v 4.831281 0.861760 0.954935
v 4.866176 0.701974 0.908108
v 4.867478 0.686863 0.912451
v 4.868596 0.675016 0.915300
v 4.868207 0.673040 0.919074
v 4.823138 0.708353 1.109693
v 4.821144 0.713162 1.114899
v 4.818389 0.714323 1.125627
v 4.815795 0.724775 1.129699
v 4.813178 0.732870 1.135384
v 4.812675 0.737879 1.134256
v 4.813887 0.737584 1.129396
v 4.815333 0.733963 1.125704
v 4.817021 0.732468 1.119633
v 4.817564 0.741248 1.111718
v 4.818503 0.746005 1.104743
v 4.818274 0.750175 1.103013
v 4.817739 0.752464 1.103765
v 4.817266 0.748900 1.108032
v 4.814418 0.749805 1.119310
v 4.814211 0.746610 1.122229
v 4.813149 0.745581 1.127318
v 4.810708 0.755851 1.130869
v 4.809869 0.761896 1.130468
v 4.809279 0.768553 1.128639
v 4.811847 0.769703 1.117200
v 4.811767 0.771846 1.116156
v 4.809661 0.773270 1.124007
v 4.806153 0.781014 1.133631
v 4.804889 0.786326 1.135189
v 4.805773 0.788130 1.130224
v 4.807024 0.787337 1.125573
v 4.808189 0.786182 1.121548
v 4.808937 0.788098 1.117068
v 4.809452 0.791029 1.112831
v 4.809440 0.794755 1.110226
v 4.808614 0.804783 1.106519
v 4.810636 0.808156 1.095693
v 4.811150 0.814299 1.089174
v 4.811037 0.823834 1.082850
v 4.810608 0.830540 1.079858
v 4.810661 0.833875 1.077260
v 4.810563 0.836773 1.075604
v 4.863653 0.617456 0.978607
v 4.863726 0.605017 0.985515
v 4.863243 0.601151 0.990105
v 4.862137 0.604652 0.993402
v 4.857449 0.616920 1.008882
v 4.853059 0.625154 1.025274
v 4.854119 0.780305 0.908914
v 4.855538 0.770712 0.909170
v 4.857665 0.761745 0.904833
v 4.859396 0.755159 0.900671
v 4.859705 0.752810 0.900954
v 4.859508 0.741581 0.911908
v 4.860430 0.730424 0.916383
v 4.860523 0.727298 0.918586
v 4.860745 0.724797 0.919496
v 4.861292 0.723619 0.917392
v 4.861694 0.724349 0.914453
v 4.862555 0.723411 0.910341
v 4.863292 0.723080 0.906410
v 4.863611 0.727074 0.901087
v 4.863609 0.737323 0.892134
v 4.863934 0.738574 0.889181
v 4.865208 0.737670 0.882665
v 4.865569 0.734988 0.882945
v 4.866968 0.722629 0.885742
v 4.867867 0.712023 0.889868
v 4.867808 0.709423 0.892475
v 4.866333 0.706640 0.903367
v 4.833603 0.854706 0.949682
v 4.835592 0.849818 0.944088
v 4.838813 0.839096 0.937330
v 4.842569 0.826611 0.929436
v 4.810298 0.839946 1.074326
v 4.810380 0.842863 1.071534
v 4.809821 0.849922 1.068446
v 4.809170 0.856373 1.066295
v 4.809952 0.859452 1.059993
v 4.815255 0.857457 1.036022
v 4.833287 0.671261 1.089021
v 4.830739 0.677742 1.095910
v 4.829032 0.680124 1.101644
v 4.827996 0.683408 1.104071
v 4.824856 0.700572 1.107276
v 4.867478 0.655915 0.935392
v 4.866199 0.649378 0.945902
v 4.865440 0.643784 0.953267
v 4.864985 0.636503 0.960291
v 4.864134 0.629416 0.969092
v 4.843952 0.638881 1.060275
v 4.841003 0.642757 1.071947
v 4.840454 0.647609 1.071387
v 4.840133 0.656472 1.067067
v 4.837399 0.666924 1.073349
v 4.836935 0.674495 1.070573
v 4.836405 0.674502 1.073127
v 4.835952 0.669958 1.078324
v 4.846155 0.815339 0.920816
v 4.848166 0.809208 0.915228
v 4.848632 0.807058 0.914634
v 4.848957 0.804632 0.915119
v 4.849396 0.798897 0.918158
v 4.849983 0.792696 0.920793
v 4.850408 0.790367 0.920609
v 4.850899 0.789195 0.918932
v 4.852865 0.787230 0.909571
vn 0.9658 0.1650 0.1999
vn 0.9661 0.1635 0.1997
vn 0.9659 0.1640 0.2000
vn 0.9702 0.1564 0.1851
vn 0.9662 0.1409 0.2159
vn 0.9725 0.1409 0.1855
vn 0.9592 0.1640 0.2303
vn 0.9592 0.1641 0.2303
vn 0.9639 0.1564 0.2155
vn 0.9615 0.1486 0.2309
vn 0.9633 0.1796 0.1995
vn 0.9633 0.1798 0.1995
vn 0.9633 0.1792 0.1995
vn 0.9656 0.1660 0.2000
vn 0.9763 0.1331 0.1704
vn 0.9763 0.1330 0.1704
vn 0.9724 0.1175 0.2014
vn 0.9724 0.1176 0.2013
vn 0.9741 0.1487 0.1700
vn 0.9741 0.1488 0.1701
vn 0.9675 0.1332 0.2151
vn 0.9637 0.1331 0.2314
vn 0.9705 0.1331 0.2010
vn 0.9707 0.1313 0.2010
vn 0.9717 0.1643 0.1695
vn 0.9717 0.1641 0.1696
vn 0.9658 0.1651 0.2000
vn 0.9673 0.1641 0.1935
vn 0.9659 0.1641 0.2000
vn 0.9658 0.1647 0.2000
vn 0.9652 0.1642 0.2036
vn 0.9659 0.1644 0.2000
vn 0.9659 0.1642 0.2001
vn 0.9651 0.1688 0.1999
vn 0.9659 0.1642 0.2000
vn 0.9590 0.1641 0.2313
vn 0.9592 0.1641 0.2302
vn 0.9592 0.1641 0.2300
vn 0.9601 0.1579 0.2305
vn 0.9591 0.1642 0.2303
vn 0.9592 0.1642 0.2303
vn 0.9624 0.1425 0.2311
vn 0.9615 0.1487 0.2308
vn 0.9615 0.1486 0.2308
vn 0.9616 0.1481 0.2308
vn 0.9615 0.1488 0.2308
vn 0.9615 0.1487 0.2309
vn 0.9615 0.1488 0.2309
vn 0.9633 0.1794 0.1994
vn 0.9633 0.1795 0.1995
vn 0.9633 0.1797 0.1994
vn 0.9720 0.1331 0.1937
vn 0.9763 0.1330 0.1703
vn 0.9747 0.1447 0.1701
vn 0.9711 0.1284 0.2011
vn 0.9724 0.1176 0.2014
vn 0.9724 0.1175 0.2013
vn 0.9742 0.1486 0.1701
vn 0.9742 0.1487 0.1700
vn 0.9742 0.1487 0.1699
vn 0.9742 0.1486 0.1699
vn 0.9741 0.1488 0.1700
vn 0.9730 0.1560 0.1698
vn 0.9741 0.1487 0.1701
vn 0.9740 0.1496 0.1702
vn 0.9637 0.1330 0.2314
vn 0.9637 0.1326 0.2315
vn 0.9637 0.1328 0.2313
vn 0.9705 0.1330 0.2010
vn 0.9705 0.1331 0.2009
vn 0.9704 0.1334 0.2011
vn 0.9705 0.1332 0.2009
vn 0.9717 0.1643 0.1697
vn 0.9717 0.1640 0.1696
vn 0.9717 0.1639 0.1699
vn 0.9717 0.1639 0.1697
vn 0.9717 0.1641 0.1695
vn 0.9717 0.1641 0.1697
usemtl None
s 1
f 17//10 116//11 114//12
f 12//13 15//14 13//15
f 72//16 71//17 14//18
f 14//18 54//19 53//19
f 34//20 33//21 31//22
f 18//23 30//21 17//10
f 39//24 38//25 13//15
f 84//26 83//27 80//26
f 94//28 93//29 12//13
f 27//30 15//14 119//31
f 133//32 131//32 23//33
f 12//13 142//34 141//35
f 14//18 12//13 19//36
f 12//13 16//37 111//38
f 12//13 111//38 110//38
f 112//39 28//40 113//41
f 28//40 14//18 117//12
f 113//41 28//40 117//12
f 12//13 110//38 19//36
f 110//38 109//42 108//38
f 108//38 20//43 19//36
f 117//12 18//23 113//41
f 18//23 17//10 114//12
f 108//38 19//36 110//38
f 19//36 117//12 14//18
f 114//12 113//41 18//23
f 116//11 115//44 114//12
f 12//13 14//18 15//14
f 14//18 28//40 79//45
f 78//46 77//47 76//17
f 14//18 79//45 78//46
f 66//16 22//48 67//46
f 22//48 14//18 69//49
f 68//50 67//46 22//48
f 69//49 68//50 22//48
f 14//18 78//46 76//17
f 14//18 76//17 75//17
f 70//17 69//49 14//18
f 14//18 75//17 74//17
f 74//17 73//46 72//16
f 71//17 70//17 14//18
f 74//17 72//16 14//18
f 29//51 15//14 42//52
f 15//14 14//18 53//19
f 42//52 15//14 52//53
f 14//18 22//48 63//52
f 22//48 65//54 64//55
f 63//52 22//48 64//55
f 62//53 61//53 60//52
f 62//53 60//52 56//52
f 60//52 59//52 56//52
f 14//18 63//52 54//19
f 63//52 62//53 54//19
f 52//53 15//14 53//19
f 45//52 44//52 50//52
f 44//52 43//56 50//52
f 43//56 42//52 51//52
f 59//52 58//52 57//55
f 56//52 55//57 54//19
f 59//52 57//55 56//52
f 46//52 45//52 49//52
f 49//52 45//52 50//52
f 48//55 47//53 46//52
f 49//52 48//55 46//52
f 62//53 56//52 54//19
f 52//53 51//52 42//52
f 51//52 50//52 43//56
f 19//36 20//43 31//22
f 20//43 37//21 34//20
f 31//22 20//43 34//20
f 37//21 36//58 35//59
f 37//21 35//59 34//20
f 33//21 32//60 31//22
f 13//15 25//61 41//24
f 41//24 40//62 39//24
f 38//25 26//63 13//15
f 41//24 39//24 13//15
f 24//64 23//33 85//65
f 24//64 85//65 84//26
f 82//27 81//66 83//27
f 81//66 80//26 83//27
f 80//26 24//64 84//26
f 13//15 26//63 95//28
f 26//63 107//67 97//68
f 95//28 26//63 97//68
f 107//67 106//68 98//68
f 106//68 105//68 99//68
f 98//68 106//68 99//68
f 105//68 104//68 99//68
f 104//68 103//69 100//68
f 103//69 102//70 101//71
f 101//71 100//68 103//69
f 100//68 99//68 104//68
f 21//72 12//13 86//71
f 12//13 13//15 94//28
f 87//68 12//13 91//68
f 87//68 86//71 12//13
f 90//68 89//73 88//68
f 90//68 88//68 91//68
f 88//68 87//68 91//68
f 93//29 92//74 91//68
f 97//68 96//28 95//28
f 107//67 98//68 97//68
f 93//29 91//68 12//13
f 13//15 95//28 94//28
f 15//14 29//51 122//31
f 122//31 121//75 15//14
f 121//75 120//76 119//31
f 119//31 118//77 27//30
f 121//75 119//31 15//14
f 23//33 24//64 127//78
f 127//78 126//32 23//33
f 126//32 125//32 23//33
f 124//32 123//79 13//15
f 123//79 25//61 13//15
f 125//32 124//32 13//15
f 13//15 15//14 133//32
f 125//32 13//15 133//32
f 15//14 27//30 134//32
f 27//30 135//80 134//32
f 128//81 23//33 131//32
f 23//33 125//32 133//32
f 130//32 129//32 128//81
f 133//32 132//32 131//32
f 131//32 130//32 128//81
f 15//14 134//32 133//32
f 12//13 21//72 143//82
f 21//72 144//83 143//82
f 136//35 16//37 141//35
f 16//37 12//13 141//35
f 138//84 137//85 139//86
f 137//85 136//35 139//86
f 140//87 139//86 136//35
f 12//13 143//82 142//34
f 141//35 140//87 136//35
