# Blender v2.81 (sub 16) OBJ File: ''
# www.blender.org
mtllib Singapore.mtl
o 0_Singapore_sphere.001
v -1.193906 0.110402 -4.853374
v -1.179467 0.115647 -4.856714
v -1.184104 0.124189 -4.855393
v -1.193643 0.126251 -4.853053
v -1.201374 0.123539 -4.851263
v -1.205797 0.121470 -4.850251
v -1.208820 0.119115 -4.849582
v -1.206576 0.116166 -4.850193
vn -0.2333 0.0236 -0.9721
vn -0.2334 0.0236 -0.9721
vn -0.2334 0.0235 -0.9721
vn -0.2336 0.0235 -0.9720
usemtl None
s 1
f 1//1 8//2 5//2
f 7//3 6//4 8//2
f 6//4 5//2 8//2
f 5//2 4//2 1//1
f 4//2 3//2 1//1
f 3//2 2//1 1//1
