# Blender v2.81 (sub 16) OBJ File: ''
# www.blender.org
mtllib Sint Maarten.mtl
o 0_Sint_Maarten_sphere.001
v 2.157162 1.550801 4.235687
v 2.157392 1.548849 4.236300
v 2.156919 1.546681 4.237337
v 2.151599 1.548481 4.239275
v 2.148770 1.550360 4.239962
v 2.148848 1.550743 4.239782
vn 0.4174 0.3164 0.8518
vn 0.4173 0.3165 0.8518
vn 0.4174 0.3165 0.8518
vn 0.4171 0.3164 0.8520
vn 0.4170 0.3164 0.8520
vn 0.4174 0.3168 0.8517
usemtl None
s 1
f 1//1 4//2 2//3
f 1//1 6//4 4//2
f 6//4 5//5 4//2
f 4//2 3//6 2//3
