# Blender v2.81 (sub 16) OBJ File: ''
# www.blender.org
mtllib Slovakia.mtl
o 0_Slovakia_sphere.001
v 3.074365 3.750555 -1.217221
v 3.111082 3.750555 -1.120053
v 3.144729 3.750555 -1.021778
v 3.073915 3.802029 -1.045496
v 3.071845 3.802029 -1.051544
v 3.065500 3.802029 -1.070075
v 3.060070 3.802029 -1.085934
v 3.074286 3.784491 -1.106805
v 3.118056 3.774890 -1.013112
v 3.082440 3.742775 -1.220419
v 3.061385 3.750555 -1.248557
v 3.138014 3.724917 -1.129749
v 3.024469 3.797121 -1.197466
v 3.196275 3.702009 -1.038527
v 3.162459 3.750555 -0.964147
v 3.027898 3.775034 -1.255694
v 3.031741 3.772267 -1.254748
v 3.035878 3.769432 -1.253296
v 3.040448 3.766018 -1.252543
v 3.049533 3.758671 -1.252733
v 3.053973 3.755278 -1.252230
v 3.023774 3.796968 -1.199607
v 3.024064 3.795226 -1.204149
v 3.022610 3.792965 -1.214470
v 3.023661 3.790399 -1.219659
v 3.026157 3.787363 -1.222775
v 3.028003 3.785269 -1.224623
v 3.027499 3.782007 -1.235660
v 3.025978 3.777888 -1.251735
v 3.025070 3.777390 -1.255429
v 3.137328 3.727199 -1.123883
v 3.137505 3.728533 -1.118769
v 3.139305 3.727916 -1.115638
v 3.143678 3.724955 -1.113071
v 3.147421 3.721944 -1.112515
v 3.153592 3.719703 -1.102215
v 3.161626 3.718376 -1.083322
v 3.167039 3.715440 -1.077632
v 3.171569 3.711904 -1.076586
v 3.174491 3.709171 -1.077473
v 3.176397 3.706833 -1.079962
v 3.179929 3.704160 -1.078856
v 3.181433 3.703036 -1.078337
v 3.186722 3.702485 -1.064787
v 3.193762 3.701774 -1.046678
v 3.081439 3.744463 -1.217739
v 3.081072 3.745969 -1.213954
v 3.080343 3.747719 -1.210357
v 3.081715 3.747755 -1.206613
v 3.088144 3.745224 -1.197590
v 3.091097 3.744922 -1.190729
v 3.092050 3.745700 -1.185752
v 3.092827 3.747195 -1.178973
v 3.097152 3.747424 -1.166807
v 3.101654 3.746107 -1.159049
v 3.103916 3.744244 -1.158948
v 3.118925 3.732659 -1.155813
v 3.127565 3.728434 -1.146290
v 3.135788 3.724088 -1.138255
v 3.137744 3.723236 -1.135768
v 3.138114 3.724627 -1.130396
v 3.073137 3.802348 -1.046599
v 3.072564 3.802447 -1.047905
v 3.064838 3.802497 -1.070293
v 3.063013 3.803268 -1.072790
v 3.059017 3.805461 -1.076406
v 3.055828 3.807395 -1.078621
v 3.056446 3.806221 -1.081128
v 3.059912 3.802228 -1.085665
v 3.197150 3.702031 -1.035600
v 3.200221 3.702161 -1.025123
v 3.200019 3.704407 -1.017255
v 3.197891 3.708908 -1.007084
v 3.194317 3.714897 -0.995965
v 3.194452 3.715028 -0.995027
v 3.194184 3.715670 -0.993461
v 3.195470 3.716114 -0.987595
v 3.196316 3.715760 -0.986192
v 3.195270 3.717728 -0.982118
v 3.192867 3.720271 -0.980275
v 3.187388 3.726934 -0.972786
v 3.177427 3.737972 -0.963264
v 3.174105 3.741126 -0.962086
v 3.169526 3.744747 -0.963224
v 3.165922 3.747503 -0.964473
v 3.163491 3.749689 -0.964076
v 3.162776 3.750290 -0.964120
v 3.064465 3.748535 -1.247014
v 3.074525 3.739042 -1.250418
v 3.075675 3.738365 -1.249617
v 3.086578 3.735219 -1.232471
v 3.087036 3.735751 -1.229815
v 3.086138 3.737617 -1.226538
v 3.085295 3.738981 -1.224593
v 3.084631 3.739972 -1.223309
v 3.082556 3.742610 -1.220622
v 3.116431 3.775513 -1.015646
v 3.114014 3.777128 -1.016958
v 3.110362 3.780216 -1.016640
v 3.106401 3.783674 -1.015908
v 3.103205 3.786210 -1.016221
v 3.100642 3.788072 -1.017084
v 3.092015 3.792523 -1.026447
v 3.089944 3.794108 -1.026857
v 3.087662 3.795642 -1.028065
v 3.084675 3.797362 -1.030672
v 3.080880 3.799851 -1.032903
v 3.078086 3.801364 -1.035678
v 3.076827 3.801178 -1.040019
v 3.075132 3.801500 -1.043824
v 3.071399 3.801744 -1.053859
v 3.074192 3.798866 -1.055940
v 3.077228 3.795892 -1.057654
v 3.073653 3.796113 -1.067310
v 3.062452 3.798914 -1.090059
v 3.063200 3.797653 -1.092360
v 3.064267 3.796612 -1.092947
v 3.064282 3.796021 -1.095005
v 3.063444 3.795676 -1.098681
v 3.063674 3.794719 -1.101411
v 3.066747 3.791662 -1.103310
v 3.069772 3.788859 -1.104448
v 3.072304 3.786875 -1.104112
v 3.074415 3.785111 -1.104221
v 3.074310 3.784429 -1.106942
v 3.072268 3.785068 -1.110260
v 3.070260 3.786044 -1.112395
v 3.069928 3.783716 -1.120859
v 3.063421 3.788798 -1.121517
v 3.059476 3.791405 -1.123457
v 3.056729 3.792588 -1.126870
v 3.053704 3.794163 -1.129742
v 3.051267 3.795292 -1.132510
v 3.050504 3.795224 -1.134750
v 3.049635 3.795695 -1.135515
v 3.048739 3.795560 -1.138326
v 3.048099 3.795035 -1.141733
v 3.045809 3.795638 -1.145827
v 3.044901 3.794382 -1.152323
v 3.046008 3.792037 -1.157038
v 3.045455 3.791262 -1.161031
v 3.043728 3.791393 -1.165175
v 3.041232 3.792707 -1.167494
v 3.034854 3.797180 -1.169791
v 3.033768 3.797128 -1.172836
v 3.031211 3.797854 -1.177235
v 3.028689 3.797855 -1.183908
v 3.157305 3.754771 -0.964379
v 3.149437 3.760712 -0.966670
v 3.144433 3.764144 -0.969483
v 3.142311 3.765266 -0.971985
v 3.141603 3.764246 -0.978284
v 3.139382 3.763410 -0.988781
v 3.136045 3.764253 -0.996324
v 3.130836 3.766948 -1.002696
v 3.127036 3.769298 -1.005836
v 3.123328 3.771734 -1.008346
v 3.121244 3.773316 -1.008919
v 3.119935 3.774090 -1.010144
vn 0.6131 0.7553 -0.2316
vn 0.6131 0.7552 -0.2317
vn 0.6201 0.7552 -0.2123
vn 0.6290 0.7501 -0.2044
vn 0.6264 0.7552 -0.1927
vn 0.6265 0.7552 -0.1927
vn 0.6055 0.7552 -0.2508
vn 0.6055 0.7553 -0.2508
vn 0.6314 0.7447 -0.2162
vn 0.6312 0.7448 -0.2162
vn 0.6313 0.7448 -0.2161
vn 0.6242 0.7448 -0.2358
vn 0.6241 0.7449 -0.2358
vn 0.6149 0.7501 -0.2434
vn 0.6091 0.7652 -0.2086
vn 0.6088 0.7655 -0.2084
vn 0.6087 0.7655 -0.2084
vn 0.6187 0.7565 -0.2118
vn 0.6195 0.7558 -0.2121
vn 0.6377 0.7448 -0.1962
vn 0.6163 0.7449 -0.2556
vn 0.6165 0.7448 -0.2553
vn 0.6222 0.7501 -0.2240
vn 0.6131 0.7552 -0.2316
vn 0.6095 0.7553 -0.2407
vn 0.6132 0.7552 -0.2316
vn 0.6129 0.7550 -0.2330
vn 0.6178 0.7551 -0.2194
vn 0.6130 0.7552 -0.2322
vn 0.6130 0.7552 -0.2318
vn 0.6133 0.7551 -0.2316
vn 0.6134 0.7550 -0.2318
vn 0.6130 0.7553 -0.2318
vn 0.6129 0.7554 -0.2315
vn 0.6226 0.7553 -0.2046
vn 0.6200 0.7553 -0.2122
vn 0.6201 0.7552 -0.2124
vn 0.6199 0.7553 -0.2125
vn 0.6200 0.7553 -0.2123
vn 0.6201 0.7553 -0.2121
vn 0.6201 0.7552 -0.2125
vn 0.6203 0.7554 -0.2112
vn 0.6200 0.7552 -0.2124
vn 0.6202 0.7552 -0.2124
vn 0.6166 0.7584 -0.2112
vn 0.6164 0.7587 -0.2109
vn 0.6200 0.7553 -0.2124
vn 0.6265 0.7553 -0.1925
vn 0.6266 0.7551 -0.1928
vn 0.6264 0.7553 -0.1927
vn 0.6331 0.7491 -0.1948
vn 0.6265 0.7552 -0.1926
vn 0.6085 0.7524 -0.2521
vn 0.6055 0.7552 -0.2509
vn 0.6054 0.7552 -0.2513
vn 0.6055 0.7553 -0.2507
vn 0.6054 0.7554 -0.2508
vn 0.6058 0.7550 -0.2508
vn 0.6344 0.7449 -0.2063
vn 0.6312 0.7448 -0.2161
vn 0.6313 0.7448 -0.2162
vn 0.6313 0.7448 -0.2160
vn 0.6312 0.7449 -0.2160
vn 0.6264 0.7449 -0.2297
vn 0.6312 0.7449 -0.2161
vn 0.6241 0.7448 -0.2358
vn 0.6242 0.7449 -0.2356
vn 0.6242 0.7447 -0.2358
vn 0.6171 0.7452 -0.2525
vn 0.6243 0.7447 -0.2359
vn 0.6241 0.7449 -0.2357
vn 0.6088 0.7654 -0.2084
vn 0.6088 0.7654 -0.2083
vn 0.6091 0.7654 -0.2078
vn 0.6090 0.7650 -0.2093
vn 0.6378 0.7444 -0.1972
vn 0.6383 0.7447 -0.1950
vn 0.6378 0.7449 -0.1958
vn 0.6377 0.7448 -0.1961
vn 0.6377 0.7449 -0.1962
vn 0.6379 0.7447 -0.1962
vn 0.6379 0.7446 -0.1963
vn 0.6379 0.7448 -0.1957
vn 0.6166 0.7446 -0.2554
vn 0.6164 0.7448 -0.2553
vn 0.6166 0.7447 -0.2552
vn 0.6164 0.7449 -0.2552
vn 0.6165 0.7449 -0.2549
usemtl None
s 1
f 140//1 139//2 137//2
f 110//3 109//3 113//3
f 3//4 154//5 153//6
f 27//7 26//8 23//7
f 34//9 33//10 36//11
f 54//12 53//13 1//14
f 69//15 66//16 65//17
f 63//17 4//18 5//19
f 3//4 73//20 70//20
f 1//14 96//21 88//22
f 2//23 1//14 141//24
f 1//14 13//25 147//24
f 1//14 147//24 143//2
f 147//24 146//1 143//2
f 145//2 144//26 143//2
f 146//1 145//2 143//2
f 125//27 8//28 2//23
f 128//2 127//24 126//1
f 126//1 125//27 128//2
f 125//27 2//23 128//2
f 1//14 143//2 142//2
f 130//29 129//30 131//2
f 129//30 128//2 131//2
f 133//31 132//32 134//1
f 132//32 131//2 134//1
f 1//14 142//2 141//24
f 131//2 128//2 137//2
f 128//2 2//23 141//24
f 131//2 137//2 134//1
f 136//33 135//34 134//1
f 139//2 138//1 137//2
f 137//2 136//33 134//1
f 137//2 128//2 140//1
f 141//24 140//1 128//2
f 3//4 2//23 98//3
f 2//23 8//28 124//3
f 2//23 124//3 114//3
f 113//3 2//23 114//3
f 97//3 9//35 3//4
f 98//3 97//3 3//4
f 2//23 113//3 98//3
f 124//3 123//3 117//3
f 123//3 122//36 118//37
f 122//36 121//3 118//37
f 121//3 120//38 119//3
f 121//3 119//3 118//37
f 99//3 98//3 103//3
f 101//39 100//40 103//3
f 100//40 99//3 103//3
f 103//3 102//41 101//39
f 105//41 104//42 103//3
f 108//39 107//43 109//3
f 107//43 106//3 109//3
f 106//3 105//41 103//3
f 98//3 113//3 103//3
f 114//3 124//3 117//3
f 118//37 117//3 123//3
f 117//3 116//44 115//3
f 115//3 7//45 6//46
f 115//3 6//46 114//3
f 117//3 115//3 114//3
f 113//3 112//3 110//3
f 112//3 111//47 5//19
f 106//3 103//3 113//3
f 109//3 106//3 113//3
f 112//3 5//19 4//18
f 110//3 112//3 4//18
f 3//4 9//35 157//6
f 9//35 159//48 157//6
f 159//48 158//49 157//6
f 148//50 15//51 153//6
f 15//51 3//4 153//6
f 150//52 149//52 152//6
f 149//52 148//50 152//6
f 152//6 151//52 150//52
f 153//6 152//6 148//50
f 3//4 157//6 156//5
f 3//4 156//5 155//6
f 3//4 155//6 154//5
f 1//14 11//53 20//54
f 11//53 21//55 20//54
f 20//54 19//7 27//7
f 1//14 20//54 27//7
f 18//56 17//56 29//7
f 17//56 16//54 29//7
f 16//54 30//54 29//7
f 19//7 18//56 28//7
f 22//57 13//25 23//7
f 13//25 1//14 23//7
f 25//58 24//7 26//8
f 24//7 23//7 26//8
f 19//7 28//7 27//7
f 18//56 29//7 28//7
f 23//7 1//14 27//7
f 3//4 14//59 45//60
f 45//60 44//60 39//61
f 44//60 43//62 42//60
f 40//11 44//60 42//60
f 42//60 41//63 40//11
f 3//4 45//60 38//11
f 44//60 40//11 39//61
f 31//62 12//64 2//23
f 32//10 31//62 2//23
f 45//60 39//61 38//11
f 32//10 2//23 33//10
f 2//23 3//4 37//11
f 33//10 2//23 37//11
f 37//11 36//11 33//10
f 36//11 35//65 34//9
f 3//4 38//11 37//11
f 2//23 12//64 58//66
f 12//64 61//67 59//12
f 58//66 12//64 59//12
f 61//67 60//68 59//12
f 58//66 57//66 2//23
f 57//66 56//66 2//23
f 46//12 10//69 1//14
f 48//12 47//12 1//14
f 47//12 46//12 1//14
f 51//12 50//70 52//71
f 50//70 49//13 52//71
f 49//13 48//12 1//14
f 56//66 55//12 2//23
f 49//13 1//14 53//13
f 1//14 2//23 54//12
f 53//13 52//71 49//13
f 2//23 55//12 54//12
f 6//46 7//45 65//17
f 7//45 69//15 65//17
f 69//15 68//72 66//16
f 68//72 67//73 66//16
f 64//74 6//46 65//17
f 63//17 62//75 4//18
f 3//4 15//51 85//20
f 15//51 87//76 85//20
f 87//76 86//77 85//20
f 85//20 84//20 81//20
f 84//20 83//78 82//79
f 82//79 81//20 84//20
f 80//80 79//79 77//81
f 79//79 78//82 77//81
f 81//20 80//80 76//20
f 85//20 81//20 3//4
f 3//4 81//20 76//20
f 76//20 75//83 74//20
f 80//80 77//81 76//20
f 3//4 76//20 74//20
f 70//20 14//59 3//4
f 72//80 71//20 70//20
f 74//20 73//20 3//4
f 73//20 72//80 70//20
f 1//14 10//69 96//21
f 96//21 95//22 88//22
f 95//22 94//22 88//22
f 94//22 93//84 91//85
f 93//84 92//86 91//85
f 91//85 90//87 88//22
f 94//22 91//85 88//22
f 90//87 89//88 88//22
f 88//22 11//53 1//14
