# Blender v2.81 (sub 16) OBJ File: ''
# www.blender.org
mtllib Slovenia.mtl
o 0_Slovenia_sphere.001
v 3.286835 3.644842 -0.954908
v 3.370250 3.590631 -0.865327
v 3.337829 3.622563 -0.857003
v 3.381679 3.590631 -0.817725
v 3.290352 3.644842 -0.942052
v 3.283138 3.648401 -0.953834
v 3.284817 3.644842 -0.961465
v 3.394708 3.565774 -0.871607
v 3.312596 3.619251 -0.962392
v 3.349939 3.590631 -0.939574
v 3.313682 3.619645 -0.956858
v 3.315009 3.618959 -0.954733
v 3.320077 3.614966 -0.952064
v 3.322879 3.613253 -0.948629
v 3.325457 3.612049 -0.943987
v 3.327933 3.610591 -0.940730
v 3.330484 3.609327 -0.936425
v 3.332342 3.608564 -0.932663
v 3.334519 3.606835 -0.931575
v 3.336733 3.604899 -0.931169
v 3.338540 3.603044 -0.931933
v 3.341115 3.599393 -0.937023
v 3.344888 3.595508 -0.938661
v 3.349822 3.590738 -0.939575
v 3.337647 3.622429 -0.858194
v 3.337655 3.621704 -0.861049
v 3.337020 3.621740 -0.863226
v 3.337363 3.620679 -0.866188
v 3.336133 3.621464 -0.867566
v 3.334411 3.622852 -0.868348
v 3.331467 3.624452 -0.872754
v 3.328082 3.626589 -0.876638
v 3.324449 3.629334 -0.879011
v 3.321818 3.631463 -0.880177
v 3.319422 3.633002 -0.882818
v 3.318139 3.633396 -0.885946
v 3.316538 3.634175 -0.888704
v 3.312108 3.635175 -0.900924
v 3.309395 3.634379 -0.914001
v 3.306185 3.635897 -0.919706
v 3.302111 3.638566 -0.923997
v 3.299348 3.639308 -0.931149
v 3.299203 3.639347 -0.931525
v 3.298164 3.637390 -0.943098
v 3.296778 3.638537 -0.943605
v 3.296101 3.639080 -0.943924
v 3.299622 3.628145 -0.972863
v 3.300828 3.628811 -0.966567
v 3.301970 3.628032 -0.965632
v 3.303522 3.627239 -0.963412
v 3.305365 3.625787 -0.962599
v 3.310822 3.620075 -0.965221
v 3.312274 3.619088 -0.964020
v 3.285857 3.643744 -0.961998
v 3.289275 3.640049 -0.964059
v 3.289731 3.639037 -0.966185
v 3.290880 3.637592 -0.967602
v 3.293496 3.635052 -0.968151
v 3.294745 3.633157 -0.970850
v 3.298388 3.628003 -0.977381
v 3.299563 3.626645 -0.978401
v 3.352624 3.588136 -0.939359
v 3.354732 3.586428 -0.938230
v 3.359694 3.584159 -0.928828
v 3.366446 3.580168 -0.919507
v 3.367416 3.579246 -0.919512
v 3.369586 3.575705 -0.925211
v 3.370392 3.574830 -0.925634
v 3.373459 3.572799 -0.922235
v 3.375535 3.570787 -0.922395
v 3.377678 3.568472 -0.923473
v 3.379460 3.566070 -0.926206
v 3.381366 3.563914 -0.927537
v 3.384485 3.562335 -0.922215
v 3.386043 3.562919 -0.914272
v 3.385588 3.565948 -0.904273
v 3.386878 3.565530 -0.901168
v 3.389243 3.563987 -0.898463
v 3.389456 3.564660 -0.895093
v 3.388561 3.566545 -0.891106
v 3.386129 3.570404 -0.885145
v 3.384434 3.572803 -0.882105
v 3.382223 3.575323 -0.880485
v 3.382243 3.575680 -0.879040
v 3.383494 3.574977 -0.877171
v 3.386951 3.571932 -0.876257
v 3.393580 3.566473 -0.873038
v 3.377830 3.594130 -0.818047
v 3.376906 3.595221 -0.816993
v 3.378567 3.594863 -0.811685
v 3.378024 3.595692 -0.810221
v 3.376816 3.596984 -0.809454
v 3.374846 3.598828 -0.809382
v 3.370933 3.601816 -0.812264
v 3.367264 3.604466 -0.815644
v 3.365503 3.605941 -0.816361
v 3.364318 3.607136 -0.815929
v 3.364379 3.608291 -0.810487
v 3.363903 3.609490 -0.807088
v 3.364059 3.609919 -0.804511
v 3.365154 3.609241 -0.802996
v 3.364690 3.609997 -0.801536
v 3.362728 3.612216 -0.799743
v 3.359003 3.615571 -0.800200
v 3.354709 3.618695 -0.804056
v 3.350699 3.621463 -0.808333
v 3.347625 3.623460 -0.812167
v 3.346145 3.624329 -0.814429
v 3.342323 3.627803 -0.814755
v 3.342094 3.627423 -0.817414
v 3.341023 3.627271 -0.822556
v 3.340419 3.626521 -0.828441
v 3.340139 3.625543 -0.833995
v 3.340211 3.624369 -0.838966
v 3.339100 3.623145 -0.849088
v 3.281885 3.648193 -0.958671
v 3.283240 3.646464 -0.960627
v 3.286688 3.647452 -0.944744
v 3.284688 3.648532 -0.947631
v 3.395911 3.564987 -0.870019
v 3.396872 3.565273 -0.864773
v 3.398736 3.565147 -0.857554
v 3.400296 3.564659 -0.853183
v 3.399740 3.566571 -0.847184
v 3.400432 3.566191 -0.845953
v 3.401692 3.564919 -0.846237
v 3.404153 3.562922 -0.844677
v 3.406293 3.561576 -0.841618
v 3.407162 3.564510 -0.825231
v 3.405262 3.566976 -0.822415
v 3.403273 3.568134 -0.825664
v 3.398947 3.571320 -0.829817
v 3.398482 3.570982 -0.833227
v 3.396850 3.571642 -0.837153
v 3.395089 3.572996 -0.838597
v 3.391779 3.576982 -0.835039
v 3.388457 3.581928 -0.827357
v 3.387401 3.583831 -0.823476
v 3.387340 3.585049 -0.818433
v 3.386194 3.586406 -0.817299
vn 0.6547 0.7343 -0.1791
vn 0.6574 0.7289 -0.1910
vn 0.6712 0.7235 -0.1610
vn 0.6712 0.7235 -0.1611
vn 0.6657 0.7235 -0.1823
vn 0.6658 0.7235 -0.1821
vn 0.6626 0.7236 -0.1934
vn 0.6598 0.7234 -0.2030
vn 0.6598 0.7235 -0.2029
vn 0.6598 0.7235 -0.2030
vn 0.6767 0.7126 -0.1851
vn 0.6767 0.7126 -0.1850
vn 0.6489 0.7342 -0.1996
vn 0.6519 0.7343 -0.1890
vn 0.6821 0.7126 -0.1637
vn 0.6821 0.7126 -0.1638
vn 0.6822 0.7126 -0.1638
vn 0.6620 0.7273 -0.1811
vn 0.6775 0.7172 -0.1626
vn 0.6741 0.7181 -0.1731
vn 0.6688 0.7236 -0.1708
vn 0.6712 0.7235 -0.1612
vn 0.6712 0.7235 -0.1613
vn 0.6713 0.7234 -0.1612
vn 0.6713 0.7235 -0.1610
vn 0.6711 0.7236 -0.1612
vn 0.6713 0.7235 -0.1611
vn 0.6711 0.7236 -0.1610
vn 0.6703 0.7187 -0.1845
vn 0.6649 0.7226 -0.1888
vn 0.6658 0.7236 -0.1821
vn 0.6658 0.7235 -0.1822
vn 0.6649 0.7244 -0.1822
vn 0.6662 0.7232 -0.1823
vn 0.6659 0.7235 -0.1816
vn 0.6658 0.7236 -0.1820
vn 0.6656 0.7237 -0.1820
vn 0.6657 0.7236 -0.1823
vn 0.6657 0.7236 -0.1821
vn 0.6648 0.7244 -0.1822
vn 0.6651 0.7234 -0.1851
vn 0.6659 0.7234 -0.1822
vn 0.6659 0.7234 -0.1821
vn 0.6596 0.7236 -0.2030
vn 0.6597 0.7235 -0.2031
vn 0.6597 0.7235 -0.2029
vn 0.6597 0.7236 -0.2027
vn 0.6597 0.7235 -0.2030
vn 0.6548 0.7284 -0.2015
vn 0.6596 0.7237 -0.2031
vn 0.6804 0.7126 -0.1708
vn 0.6765 0.7126 -0.1857
vn 0.6766 0.7124 -0.1863
vn 0.6767 0.7125 -0.1852
vn 0.6766 0.7127 -0.1850
vn 0.6766 0.7126 -0.1852
vn 0.6766 0.7126 -0.1851
vn 0.6769 0.7122 -0.1856
vn 0.6768 0.7125 -0.1852
vn 0.6766 0.7127 -0.1851
vn 0.6488 0.7343 -0.1996
vn 0.6823 0.7125 -0.1638
vn 0.6821 0.7127 -0.1638
vn 0.6822 0.7125 -0.1639
vn 0.6822 0.7127 -0.1631
vn 0.6822 0.7125 -0.1638
vn 0.6821 0.7126 -0.1639
vn 0.6821 0.7127 -0.1636
usemtl None
s 1
f 118//1 1//2 119//1
f 97//3 96//4 114//4
f 44//5 11//6 9//7
f 60//8 59//9 47//10
f 75//11 74//11 71//12
f 116//13 6//14 1//2
f 133//15 131//16 128//17
f 5//18 1//2 118//1
f 1//2 6//14 119//1
f 4//19 2//20 88//4
f 2//20 3//21 115//4
f 2//20 115//4 114//4
f 88//4 2//20 96//4
f 114//4 113//4 97//3
f 113//4 112//22 97//3
f 2//20 114//4 96//4
f 91//23 90//24 92//22
f 90//24 89//25 92//22
f 89//25 88//4 95//26
f 112//22 111//4 108//4
f 110//22 109//22 108//4
f 112//22 108//4 97//3
f 111//4 110//22 108//4
f 88//4 96//4 95//26
f 93//4 92//22 89//25
f 95//26 94//4 89//25
f 94//4 93//4 89//25
f 108//4 107//4 97//3
f 107//4 106//22 97//3
f 106//22 105//4 98//4
f 105//4 104//27 99//4
f 106//22 98//4 97//3
f 104//27 103//4 100//26
f 103//4 102//28 100//26
f 102//28 101//24 100//26
f 99//4 98//4 105//4
f 104//27 100//26 99//4
f 2//20 10//29 21//6
f 10//29 24//30 21//6
f 24//30 23//6 21//6
f 23//6 22//31 21//6
f 3//21 2//20 26//6
f 26//6 2//20 28//32
f 26//6 25//33 3//21
f 28//32 27//34 26//6
f 31//6 30//35 29//6
f 32//6 31//6 20//6
f 31//6 29//6 20//6
f 32//6 20//6 19//6
f 35//36 34//6 36//37
f 34//6 33//38 36//37
f 29//6 28//32 2//20
f 33//38 32//6 37//6
f 36//37 33//38 37//6
f 38//32 37//6 19//6
f 37//6 32//6 19//6
f 39//6 38//32 18//6
f 38//32 19//6 18//6
f 42//39 41//32 40//6
f 40//6 39//6 17//32
f 2//20 21//6 29//6
f 43//40 42//39 44//5
f 42//39 40//6 15//32
f 21//6 20//6 29//6
f 42//39 15//32 12//32
f 18//6 17//32 39//6
f 17//32 16//32 40//6
f 46//32 45//41 44//5
f 42//39 12//32 44//5
f 15//32 40//6 16//32
f 15//32 14//42 12//32
f 14//42 13//43 12//32
f 1//2 5//18 46//32
f 46//32 44//5 9//7
f 44//5 12//32 11//6
f 9//7 1//2 46//32
f 1//2 9//7 51//10
f 9//7 53//44 52//45
f 51//10 9//7 52//45
f 50//46 49//47 48//48
f 1//2 51//10 50//46
f 54//8 7//49 1//2
f 57//9 56//50 55//46
f 55//46 54//8 1//2
f 1//2 50//46 55//46
f 50//46 48//48 58//9
f 55//46 50//46 58//9
f 47//10 61//8 60//8
f 48//48 47//10 59//9
f 58//9 48//48 59//9
f 57//9 55//46 58//9
f 2//20 8//51 86//11
f 8//51 87//52 86//11
f 86//11 85//11 2//20
f 62//53 10//29 63//54
f 10//29 2//20 64//11
f 64//11 63//54 10//29
f 2//20 85//11 84//55
f 83//11 82//56 81//11
f 2//20 84//55 83//11
f 65//57 64//11 2//20
f 68//58 67//59 69//11
f 67//59 66//57 69//11
f 66//57 65//57 83//11
f 65//57 2//20 83//11
f 83//11 81//11 76//11
f 81//11 80//11 77//59
f 76//11 81//11 77//59
f 70//60 69//11 76//11
f 69//11 66//57 76//11
f 66//57 83//11 76//11
f 80//11 79//11 77//59
f 79//11 78//56 77//59
f 73//12 72//12 74//11
f 72//12 71//12 74//11
f 71//12 70//60 75//11
f 76//11 75//11 70//60
f 1//2 7//49 117//61
f 117//61 116//13 1//2
f 2//20 4//19 137//17
f 4//19 140//16 138//62
f 140//16 139//16 138//62
f 4//19 138//62 137//17
f 120//63 8//51 121//16
f 8//51 2//20 121//16
f 2//20 137//17 136//17
f 122//16 121//16 2//20
f 124//16 123//16 122//16
f 127//64 126//65 125//15
f 124//16 122//16 135//17
f 122//16 2//20 135//17
f 128//17 127//64 125//15
f 125//15 124//16 135//17
f 2//20 136//17 135//17
f 135//17 134//66 125//15
f 128//17 125//15 134//66
f 130//67 129//16 131//16
f 129//16 128//17 131//16
f 133//15 132//68 131//16
f 134//66 133//15 128//17
