# Blender v2.81 (sub 16) OBJ File: ''
# www.blender.org
mtllib Somalia.mtl
o 0_Somalia.002_sphere.001
v 3.130669 0.936904 -3.784323
v 3.139664 0.859643 -3.795197
v 3.147883 0.782170 -3.805130
v 3.273575 0.704504 -3.713137
v 3.280489 0.626664 -3.720978
v 3.286593 0.548669 -3.727903
v 3.402068 0.548669 -3.622829
v 3.407547 0.470539 -3.628663
v 3.412187 0.392293 -3.633605
v 3.415984 0.313950 -3.637647
v 3.524637 0.392293 -3.524633
v 3.528560 0.313950 -3.528554
v 3.531611 0.235530 -3.531604
v 3.633610 0.392293 -3.412182
v 3.637654 0.313950 -3.415978
v 3.640799 0.235530 -3.418930
v 3.643046 0.157051 -3.421041
v 3.644395 0.078534 -3.422309
v 3.746394 0.235530 -3.302883
v 3.748707 0.157051 -3.304922
v 3.750094 0.078534 -3.306147
v 3.750557 -0.000003 -3.306554
v 3.750094 -0.078539 -3.306147
v 3.533660 0.161770 -3.533653
v 3.774369 0.078534 -3.277725
v 3.181712 0.704504 -3.791595
v 3.081489 0.936904 -3.823724
v 3.308931 0.704504 -3.680965
v 3.632610 0.408130 -3.411242
v 3.291708 0.473178 -3.733703
v 3.663698 -0.000003 -3.402011
v 3.774630 -0.000003 -3.278369
v 3.647027 0.392293 -3.397437
v 3.293379 0.470539 -3.732548
v 3.495622 0.470539 -3.543313
v 3.644675 0.029587 -3.422572
v 3.235182 0.859643 -3.713617
v 3.522098 0.433751 -3.522092
v 3.711366 -0.078539 -3.348709
v 3.772708 -0.078539 -3.279670
v 3.730234 0.313950 -3.314233
v 3.221177 0.626664 -3.771635
v 3.373167 0.626664 -3.636647
v 3.108128 0.859643 -3.820462
v 3.749300 -0.123448 -3.305447
v 3.149680 0.763425 -3.807303
v 3.744291 0.286482 -3.301030
v 3.266372 0.776943 -3.704965
v 3.451414 0.235530 -3.609321
v 3.771030 0.235530 -3.274037
v 3.263220 0.782170 -3.706623
v 3.119759 1.013934 -3.773435
v 3.065830 1.013934 -3.816640
v 3.539475 0.157051 -3.527919
v 3.417269 0.279828 -3.639016
v 3.609652 0.078534 -3.458161
v 3.336407 0.392293 -3.702559
v 3.773160 0.157051 -3.276291
v 3.255382 0.548669 -3.754560
v 3.137646 0.782170 -3.813332
v 3.437496 0.548669 -3.588496
v 3.225921 0.936904 -3.702970
v 3.121004 1.013139 -3.772640
v 3.398131 0.597266 -3.618636
v 3.392100 0.313950 -3.659380
v 3.385983 0.611565 -3.627401
v 3.774502 0.046661 -3.277955
v 3.336541 0.391976 -3.702468
v 3.368596 0.345937 -3.677706
v 3.082468 0.924565 -3.825827
v 3.083698 0.919330 -3.826067
v 3.086050 0.914179 -3.825388
v 3.087281 0.910118 -3.825352
v 3.090302 0.908696 -3.823264
v 3.091853 0.906366 -3.822567
v 3.089859 0.905431 -3.824383
v 3.081020 0.909359 -3.830545
v 3.080706 0.913662 -3.829790
v 3.079976 0.915787 -3.829878
v 3.073627 0.910985 -3.836088
v 3.068948 0.908971 -3.840307
v 3.068074 0.904459 -3.842063
v 3.068792 0.901362 -3.842213
v 3.076437 0.902788 -3.835755
v 3.080120 0.905179 -3.832245
v 3.092172 0.901247 -3.823509
v 3.099751 0.896992 -3.818433
v 3.102688 0.889920 -3.817735
v 3.107597 0.861674 -3.820411
v 3.773730 0.120193 -3.276961
v 3.232583 0.608454 -3.764728
v 3.241494 0.589983 -3.759991
v 3.253327 0.557963 -3.754869
v 3.250929 0.802189 -3.712740
v 3.239408 0.821032 -3.718457
v 3.238360 0.830702 -3.717236
v 3.236044 0.851659 -3.714627
v 3.424142 0.565725 -3.598627
v 3.406949 0.586546 -3.611857
v 3.730676 0.313097 -3.313818
v 3.372621 0.627302 -3.637029
v 3.351643 0.651730 -3.651681
v 3.331704 0.674983 -3.665603
v 3.314079 0.695549 -3.677907
v 3.772200 0.193696 -3.275198
v 3.771178 0.230456 -3.274171
v 3.624116 0.414044 -3.419271
v 3.611277 0.421839 -3.431550
v 3.608447 0.423107 -3.434312
v 3.593277 0.427999 -3.449358
v 3.589549 0.429682 -3.452995
v 3.583414 0.431398 -3.459112
v 3.581051 0.431437 -3.461546
v 3.560483 0.429724 -3.482984
v 3.544402 0.428399 -3.499743
v 3.527842 0.427045 -3.517001
v 3.526032 0.428102 -3.518736
v 3.612976 0.074801 -3.454773
v 3.628283 0.054199 -3.439210
v 3.317635 0.431607 -3.715036
v 3.721086 0.331456 -3.322445
v 3.713069 0.346782 -3.329643
v 3.710999 0.351439 -3.331429
v 3.704134 0.360715 -3.337998
v 3.691894 0.366255 -3.350866
v 3.684417 0.367180 -3.358986
v 3.658487 0.374140 -3.386752
v 3.654498 0.376952 -3.390840
v 3.652121 0.380166 -3.393114
v 3.649608 0.387501 -3.395104
v 3.740917 -0.140789 -3.314053
v 3.741902 -0.137219 -3.313096
v 3.747650 -0.126499 -3.307153
v 3.715957 -0.084971 -3.343438
v 3.718985 -0.092177 -3.339859
v 3.721035 -0.100470 -3.337315
v 3.723446 -0.105072 -3.334504
v 3.729801 -0.124841 -3.326828
v 3.735426 -0.137777 -3.320193
v 3.741075 -0.147946 -3.313628
v 3.066726 1.010254 -3.816860
v 3.073821 0.997209 -3.814500
v 3.079109 0.982703 -3.813960
v 3.079326 0.960543 -3.819433
v 3.147123 0.768814 -3.808312
v 3.770663 0.245471 -3.273626
v 3.769750 0.247890 -3.274489
v 3.760332 0.261378 -3.284375
v 3.747879 0.279228 -3.297443
v 3.192326 0.692569 -3.784638
v 3.200559 0.666357 -3.782235
v 3.207902 0.649919 -3.778866
v 3.215857 0.634985 -3.774710
v 3.574902 0.121293 -3.492572
v 3.593531 0.096423 -3.474191
v 3.234441 0.865917 -3.712742
v 3.229699 0.905394 -3.707311
v 3.226793 0.929506 -3.704002
v 3.513024 0.446317 -3.529371
v 3.411925 0.286540 -3.643379
v 3.673408 -0.015399 -3.391161
v 3.677973 -0.021959 -3.386067
v 3.682262 -0.028131 -3.381282
v 3.687770 -0.039922 -3.375092
v 3.691627 -0.044595 -3.370798
v 3.702117 -0.064473 -3.359038
v 3.708648 -0.074776 -3.351740
v 3.302734 0.714998 -3.684471
v 3.291503 0.734100 -3.690807
v 3.279527 0.754505 -3.697556
v 3.758099 -0.106539 -3.295758
v 3.765972 -0.091446 -3.287088
v 3.538583 0.157928 -3.528790
v 3.644016 0.397777 -3.400040
v 3.637158 0.404837 -3.406668
v 3.112276 0.843291 -3.820625
v 3.115375 0.818992 -3.823323
v 3.126473 0.802907 -3.817862
v 3.130862 0.791554 -3.816766
v 3.116155 1.016277 -3.775676
v 3.110884 1.024435 -3.777649
v 3.102315 1.034720 -3.781676
v 3.091390 1.038110 -3.789494
v 3.066453 1.025997 -3.812814
v 3.062339 1.025033 -3.816376
v 3.064880 1.017717 -3.816358
v 3.223876 0.952480 -3.700644
v 3.220750 0.976119 -3.697131
v 3.212599 0.977174 -3.703816
v 3.190555 0.983308 -3.721040
v 3.172862 0.992568 -3.733729
v 3.141582 0.999300 -3.758684
v 3.773994 -0.075996 -3.278195
v 3.774095 -0.063652 -3.278225
v 3.774427 -0.026883 -3.278281
v 3.257652 0.537649 -3.754105
v 3.288071 0.478727 -3.736062
v 3.265064 0.779116 -3.705652
v 3.156209 0.749335 -3.804512
v 3.159417 0.739829 -3.803652
v 3.173981 0.713085 -3.796501
v 3.492133 0.475305 -3.546014
v 3.478641 0.493772 -3.556455
v 3.457828 0.522321 -3.572551
v 3.441901 0.542940 -3.585045
v 3.466345 0.215855 -3.595927
v 3.480824 0.201439 -3.582685
vn 0.6370 0.1950 -0.7458
vn 0.6389 0.1796 -0.7480
vn 0.6261 0.1874 -0.7569
vn 0.6406 0.1641 -0.7501
vn 0.6279 0.1719 -0.7590
vn 0.6547 0.1409 -0.7426
vn 0.6655 0.1487 -0.7314
vn 0.6670 0.1331 -0.7330
vn 0.6561 0.1253 -0.7442
vn 0.6684 0.1175 -0.7345
vn 0.6742 0.1175 -0.7291
vn 0.6804 0.1097 -0.7245
vn 0.6911 0.1175 -0.7131
vn 0.6923 0.1019 -0.7144
vn 0.6815 0.0941 -0.7257
vn 0.6933 0.0863 -0.7154
vn 0.6986 0.0863 -0.7103
vn 0.7049 0.0784 -0.7049
vn 0.6832 0.0627 -0.7275
vn 0.7057 0.0627 -0.7057
vn 0.7154 0.0863 -0.6933
vn 0.7267 0.0784 -0.6824
vn 0.7275 0.0627 -0.6832
vn 0.7063 0.0471 -0.7063
vn 0.7281 0.0471 -0.6838
vn 0.7368 0.0863 -0.6705
vn 0.7378 0.0706 -0.6713
vn 0.7385 0.0551 -0.6720
vn 0.7426 0.0549 -0.6675
vn 0.7493 0.0471 -0.6606
vn 0.7497 0.0314 -0.6610
vn 0.7286 0.0314 -0.6842
vn 0.7500 0.0157 -0.6612
vn 0.7289 0.0157 -0.6844
vn 0.7592 0.0549 -0.6485
vn 0.7598 0.0392 -0.6489
vn 0.7600 0.0314 -0.6491
vn 0.7602 0.0236 -0.6493
vn 0.7603 0.0157 -0.6493
vn 0.7604 0.0078 -0.6494
vn 0.7604 -0.0078 -0.6494
vn 0.7605 -0.0078 -0.6493
vn 0.7603 -0.0124 -0.6494
vn 0.6713 0.0711 -0.7378
vn 0.6708 0.0811 -0.7372
vn 0.6824 0.0784 -0.7267
vn 0.6150 0.1796 -0.7677
vn 0.6151 0.1796 -0.7677
vn 0.6950 0.0510 -0.7172
vn 0.6449 0.1175 -0.7551
vn 0.7181 0.0078 -0.6959
vn 0.6705 0.0863 -0.7369
vn 0.6698 0.0973 -0.7361
vn 0.7394 -0.0235 -0.6728
vn 0.7394 -0.0236 -0.6728
vn 0.6132 0.1950 -0.7654
vn 0.6128 0.1976 -0.7651
vn 0.6182 0.1487 -0.7718
vn 0.6296 0.1564 -0.7610
vn 0.6388 0.1487 -0.7548
vn 0.6437 0.1331 -0.7536
vn 0.7179 0.0236 -0.6957
vn 0.6720 0.0549 -0.7385
vn 0.6891 0.0549 -0.7225
vn 0.7396 -0.0079 -0.6730
vn 0.7501 0.0000 -0.6613
vn 0.7396 -0.0078 -0.6730
vn 0.6573 0.1097 -0.7456
vn 0.7602 -0.0235 -0.6493
vn 0.7602 -0.0236 -0.6493
vn 0.7500 -0.0157 -0.6612
vn 0.7175 0.0392 -0.6954
vn 0.7101 0.0392 -0.7030
vn 0.6167 0.1641 -0.7698
vn 0.6112 0.2104 -0.7629
vn 0.6122 0.2035 -0.7641
vn 0.6112 0.2105 -0.7629
vn 0.7396 0.0038 -0.6730
vn 0.6460 0.1019 -0.7564
vn 0.6454 0.1106 -0.7557
vn 0.6423 0.1487 -0.7519
vn 0.6468 0.1486 -0.7480
vn 0.6954 0.0392 -0.7176
vn 0.6379 0.1873 -0.7469
vn 0.6212 0.1951 -0.7589
vn 0.6398 0.1719 -0.7491
vn 0.6389 0.1797 -0.7480
vn 0.6417 0.1536 -0.7514
vn 0.6666 0.1380 -0.7325
vn 0.6681 0.1213 -0.7342
vn 0.6670 0.1330 -0.7330
vn 0.6920 0.1059 -0.7141
vn 0.6930 0.0905 -0.7152
vn 0.6923 0.1020 -0.7144
vn 0.7154 0.0863 -0.6934
vn 0.7230 0.0863 -0.6854
vn 0.7154 0.0862 -0.6933
vn 0.7156 0.0852 -0.6933
vn 0.7154 0.0865 -0.6934
vn 0.7375 0.0754 -0.6711
vn 0.7383 0.0599 -0.6718
vn 0.7378 0.0707 -0.6713
vn 0.7378 0.0705 -0.6713
vn 0.7593 0.0549 -0.6484
vn 0.7595 0.0471 -0.6487
vn 0.7604 0.0000 -0.6494
vn 0.6715 0.0665 -0.7380
vn 0.6713 0.0706 -0.7378
vn 0.6158 0.1728 -0.7687
vn 0.6142 0.1871 -0.7666
vn 0.6151 0.1797 -0.7677
vn 0.6152 0.1797 -0.7676
vn 0.6150 0.1797 -0.7677
vn 0.6150 0.1797 -0.7678
vn 0.6151 0.1794 -0.7677
vn 0.6150 0.1796 -0.7678
vn 0.6441 0.1284 -0.7541
vn 0.7345 0.0078 -0.6786
vn 0.7180 0.0202 -0.6958
vn 0.7438 -0.0235 -0.6679
vn 0.7394 -0.0234 -0.6728
vn 0.7396 -0.0115 -0.6730
vn 0.6130 0.1950 -0.7656
vn 0.6172 0.1597 -0.7704
vn 0.6436 0.1331 -0.7536
vn 0.6426 0.1449 -0.7524
vn 0.7176 0.0361 -0.6955
vn 0.7396 -0.0079 -0.6729
vn 0.6648 0.1019 -0.7401
vn 0.6167 0.1642 -0.7698
vn 0.6112 0.2104 -0.7630
vn 0.6113 0.2105 -0.7628
vn 0.6460 0.1019 -0.7565
vn 0.6422 0.1487 -0.7519
usemtl None
s 1
f 189//1 187//1 190//1
f 158//2 157//2 1//3
f 96//4 95//4 2//5
f 4//6 169//7 168//7
f 102//8 5//9 103//8
f 66//10 64//11 7//12
f 99//13 98//13 7//12
f 204//14 203//14 8//15
f 159//16 38//17 11//18
f 10//19 11//18 12//20
f 115//21 114//21 11//18
f 12//20 14//22 15//23
f 13//24 15//23 16//25
f 174//26 14//22 175//26
f 15//23 128//27 127//27
f 100//28 47//29 19//30
f 16//25 20//31 17//32
f 17//32 21//33 18//34
f 19//30 149//35 148//35
f 106//36 105//36 19//30
f 20//31 58//37 90//38
f 21//33 25//39 67//40
f 194//41 193//42 40//43
f 68//44 57//45 9//46
f 75//47 87//47 86//48
f 12//20 49//49 10//19
f 91//50 5//9 92//50
f 119//51 118//51 18//34
f 120//52 34//53 8//15
f 139//54 138//55 132//55
f 143//56 142//56 52//57
f 145//58 3//59 46//60
f 4//6 5//9 153//61
f 155//62 154//62 17//32
f 160//63 10//19 55//64
f 163//65 22//66 165//67
f 7//12 34//53 6//68
f 172//69 171//70 23//71
f 173//72 24//73 13//24
f 2//5 3//59 178//74
f 181//75 53//76 183//77
f 21//33 31//78 18//34
f 196//79 59//80 6//68
f 198//81 48//82 4//6
f 206//83 49//49 13//24
f 62//84 1//3 190//1
f 1//3 63//85 192//1
f 192//1 191//1 1//3
f 191//1 190//1 1//3
f 188//1 187//1 189//1
f 187//1 62//84 190//1
f 37//86 2//5 156//87
f 2//5 1//3 157//2
f 156//87 2//5 157//2
f 1//3 62//84 158//2
f 51//88 3//59 94//4
f 3//59 2//5 95//4
f 94//4 3//59 95//4
f 2//5 37//86 97//4
f 97//4 96//4 2//5
f 4//6 48//82 170//7
f 4//6 170//7 169//7
f 168//7 28//89 4//6
f 43//90 5//9 101//91
f 5//9 4//6 104//8
f 101//91 5//9 102//8
f 4//6 28//89 104//8
f 104//8 103//8 5//9
f 7//12 6//68 43//90
f 6//68 5//9 43//90
f 7//12 43//90 66//10
f 61//92 7//12 98//13
f 7//12 64//11 99//13
f 35//93 8//15 202//94
f 8//15 7//12 205//14
f 202//94 8//15 203//14
f 7//12 61//92 205//14
f 205//14 204//14 8//15
f 11//18 9//46 159//16
f 9//46 8//15 35//93
f 159//16 9//46 35//93
f 10//19 9//46 11//18
f 11//18 38//17 117//21
f 11//18 117//21 116//95
f 29//96 14//22 107//97
f 14//22 11//18 110//21
f 108//21 107//97 14//22
f 110//21 109//21 14//22
f 109//21 108//21 14//22
f 112//98 111//99 113//97
f 111//99 110//21 113//97
f 114//21 113//97 11//18
f 11//18 113//97 110//21
f 11//18 116//95 115//21
f 12//20 11//18 14//22
f 13//24 12//20 15//23
f 33//100 14//22 174//26
f 14//22 29//96 175//26
f 41//101 15//23 121//27
f 15//23 14//22 129//27
f 128//27 15//23 129//27
f 14//22 33//100 130//102
f 14//22 130//102 129//27
f 122//27 121//27 126//27
f 124//27 123//103 125//27
f 123//103 122//27 125//27
f 126//27 125//27 122//27
f 127//27 126//27 15//23
f 15//23 126//27 121//27
f 19//30 16//25 100//28
f 16//25 15//23 41//101
f 100//28 16//25 41//101
f 16//25 19//30 20//31
f 17//32 20//31 21//33
f 19//30 47//29 149//35
f 148//35 147//35 19//30
f 147//35 146//104 50//105
f 19//30 147//35 50//105
f 58//37 20//31 105//36
f 20//31 19//30 105//36
f 19//30 50//105 106//36
f 25//39 21//33 90//38
f 21//33 20//31 90//38
f 32//106 22//66 67//40
f 22//66 21//33 67//40
f 40//43 23//71 194//41
f 23//71 22//66 195//41
f 194//41 23//71 195//41
f 22//66 32//106 195//41
f 10//19 65//107 9//46
f 65//107 69//108 9//46
f 69//108 68//44 9//46
f 2//5 44//109 89//48
f 2//5 89//48 88//47
f 27//110 1//3 74//111
f 1//3 2//5 88//47
f 87//47 1//3 88//47
f 71//112 70//113 72//114
f 70//113 27//110 74//111
f 72//114 70//113 74//111
f 74//111 73//112 72//114
f 1//3 87//47 75//47
f 75//47 74//111 1//3
f 85//47 84//48 80//48
f 84//48 83//48 82//48
f 80//48 84//48 81//48
f 82//48 81//48 84//48
f 80//48 79//115 78//48
f 80//48 78//48 77//47
f 80//48 77//47 85//47
f 77//47 76//116 85//47
f 86//48 85//47 76//116
f 76//116 75//47 86//48
f 13//24 49//49 12//20
f 49//49 55//64 10//19
f 6//68 59//80 93//50
f 6//68 93//50 92//50
f 42//117 5//9 91//50
f 5//9 6//68 92//50
f 18//34 36//118 119//51
f 118//51 56//119 18//34
f 9//46 57//45 8//15
f 57//45 120//52 8//15
f 23//71 45//120 137//54
f 45//120 133//121 138//55
f 45//120 138//55 137//54
f 133//121 132//55 138//55
f 134//55 39//122 23//71
f 137//54 136//54 23//71
f 136//54 135//55 23//71
f 135//55 134//55 23//71
f 132//55 131//55 139//54
f 131//55 140//55 139//54
f 1//3 27//110 144//56
f 1//3 144//56 143//56
f 52//57 63//85 143//56
f 63//85 1//3 143//56
f 141//123 53//76 142//56
f 53//76 52//57 142//56
f 145//58 60//124 3//59
f 5//9 42//117 153//61
f 153//61 152//61 4//6
f 152//61 151//61 4//6
f 150//125 26//126 4//6
f 151//61 150//125 4//6
f 18//34 56//119 17//32
f 56//119 155//62 17//32
f 154//62 54//127 17//32
f 160//63 65//107 10//19
f 23//71 39//122 167//67
f 167//67 166//67 22//66
f 166//67 165//67 22//66
f 165//67 164//128 163//65
f 162//67 161//67 22//66
f 161//67 31//78 22//66
f 163//65 162//67 22//66
f 22//66 23//71 167//67
f 8//15 34//53 7//12
f 34//53 30//129 6//68
f 23//71 40//43 172//69
f 171//70 45//120 23//71
f 17//32 54//127 16//25
f 54//127 173//72 13//24
f 16//25 54//127 13//24
f 3//59 60//124 179//74
f 178//74 177//74 2//5
f 177//74 176//130 2//5
f 3//59 179//74 178//74
f 44//109 2//5 176//130
f 52//57 53//76 180//131
f 53//76 186//132 184//75
f 180//131 53//76 181//75
f 186//132 185//131 184//75
f 184//75 183//77 53//76
f 183//77 182//77 181//75
f 22//66 31//78 21//33
f 31//78 36//118 18//34
f 6//68 30//129 197//133
f 197//133 196//79 6//68
f 4//6 26//126 198//81
f 26//126 201//134 51//88
f 198//81 26//126 51//88
f 201//134 200//134 51//88
f 200//134 199//134 51//88
f 199//134 46//60 3//59
f 3//59 51//88 199//134
f 13//24 24//73 207//83
f 207//83 206//83 13//24
