# Blender v2.81 (sub 16) OBJ File: ''
# www.blender.org
mtllib South Georgia and South Sandwich Islands.mtl
o 0_South_Georgia_and_South_Sandwich_Islands.002_sphere.001
v 2.343310 -4.262704 1.156100
v 2.343649 -4.260297 1.164179
v 2.344548 -4.259170 1.166453
v 2.347692 -4.257681 1.165464
v 2.349741 -4.257625 1.161483
v 2.348925 -4.258527 1.159861
v 2.347013 -4.260070 1.158142
vn 0.4752 -0.8485 0.2328
vn 0.4752 -0.8485 0.2329
vn 0.4753 -0.8484 0.2329
vn 0.4752 -0.8484 0.2330
usemtl None
s 1
f 6//1 4//1 2//1
f 1//2 7//1 2//1
f 7//1 6//1 2//1
f 6//1 5//3 4//1
f 4//1 3//4 2//1
o 1_South_Georgia_and_South_Sandwich_Islands.002_sphere.001
v 2.322206 -4.045087 1.801293
v 2.322473 -4.044837 1.801500
v 2.335385 -4.045087 1.783740
v 2.345006 -4.073913 1.703752
v 2.328941 -4.088103 1.692081
v 2.316499 -4.045087 1.808416
v 2.320285 -4.046824 1.799803
v 2.317010 -4.046516 1.804582
v 2.314859 -4.045427 1.809702
v 2.340375 -4.050715 1.763977
v 2.344610 -4.049047 1.762225
v 2.346859 -4.049240 1.758781
v 2.347271 -4.050065 1.756309
v 2.348290 -4.050399 1.754174
v 2.350006 -4.050411 1.751860
v 2.348294 -4.054581 1.744423
v 2.342933 -4.058240 1.743035
v 2.346994 -4.057538 1.739264
v 2.346337 -4.060618 1.732961
v 2.347908 -4.060375 1.731437
v 2.349943 -4.059132 1.731622
v 2.353318 -4.057737 1.730377
v 2.352432 -4.059653 1.727091
v 2.349822 -4.063318 1.722028
v 2.350474 -4.064439 1.718547
v 2.347787 -4.068313 1.713098
v 2.343616 -4.073187 1.707296
v 2.344045 -4.073891 1.705084
v 2.325312 -4.089040 1.694731
v 2.324965 -4.088319 1.696873
v 2.325325 -4.084581 1.705105
v 2.328473 -4.080198 1.711125
v 2.331468 -4.073916 1.721775
v 2.332732 -4.072082 1.724367
v 2.333009 -4.070899 1.726753
v 2.330203 -4.070107 1.732339
v 2.328642 -4.068604 1.737920
v 2.329485 -4.065436 1.744179
v 2.330814 -4.063484 1.746957
v 2.331274 -4.062147 1.749461
v 2.327499 -4.062225 1.754305
v 2.326842 -4.060728 1.758669
v 2.326794 -4.058712 1.763431
v 2.322852 -4.052901 1.782223
v 2.318068 -4.053530 1.787131
v 2.317995 -4.051892 1.791044
v 2.321351 -4.048955 1.793419
v 2.325491 -4.047163 1.792079
v 2.335108 -4.045431 1.783308
v 2.336416 -4.048013 1.775550
v 2.340112 -4.048268 1.770032
v 2.317836 -4.044811 1.807345
v 2.346061 -4.073900 1.702283
v 2.348855 -4.073205 1.699997
v 2.343340 -4.077404 1.697628
v 2.339359 -4.081130 1.694227
v 2.339682 -4.083775 1.687331
v 2.336031 -4.085251 1.688934
v 2.331506 -4.087399 1.690144
v 2.330794 -4.044679 1.790774
v 2.336089 -4.044158 1.784899
vn 0.4646 -0.8089 0.3603
vn 0.4640 -0.8045 0.3707
vn 0.4547 -0.8128 0.3641
vn 0.4538 -0.8135 0.3636
vn 0.4597 -0.8136 0.3560
vn 0.4649 -0.8136 0.3491
vn 0.4648 -0.8137 0.3490
vn 0.4756 -0.8136 0.3344
vn 0.4757 -0.8136 0.3343
vn 0.4704 -0.8136 0.3418
vn 0.4690 -0.8099 0.3522
vn 0.4752 -0.8043 0.3568
vn 0.4697 -0.8042 0.3642
vn 0.4538 -0.8136 0.3634
vn 0.4650 -0.8136 0.3491
vn 0.4649 -0.8136 0.3490
vn 0.4650 -0.8136 0.3490
vn 0.4649 -0.8137 0.3489
vn 0.4649 -0.8135 0.3492
vn 0.4649 -0.8136 0.3492
vn 0.4650 -0.8135 0.3492
vn 0.4650 -0.8135 0.3491
vn 0.4649 -0.8135 0.3493
vn 0.4649 -0.8136 0.3489
vn 0.4691 -0.8136 0.3434
vn 0.4650 -0.8136 0.3489
vn 0.4647 -0.8137 0.3490
vn 0.4651 -0.8135 0.3490
vn 0.4650 -0.8137 0.3488
vn 0.4651 -0.8136 0.3489
vn 0.4648 -0.8137 0.3491
vn 0.4757 -0.8136 0.3344
vn 0.4757 -0.8135 0.3344
vn 0.4758 -0.8135 0.3344
vn 0.4751 -0.8043 0.3567
usemtl None
s 1
f 8//5 59//6 13//7
f 15//8 14//9 8//5
f 31//10 27//11 26//10
f 62//12 60//13 11//14
f 10//15 67//16 8//5
f 8//5 9//17 59//6
f 8//5 13//7 15//8
f 13//7 16//18 15//8
f 8//5 14//9 55//19
f 55//19 54//20 52//10
f 54//20 53//21 52//10
f 52//10 51//10 55//19
f 50//19 49//19 17//19
f 49//19 48//22 47//23
f 49//19 47//23 17//19
f 55//19 51//10 56//24
f 51//10 50//19 57//19
f 56//24 51//10 57//19
f 10//15 8//5 55//19
f 56//24 10//15 55//19
f 46//25 45//26 24//10
f 45//26 44//26 24//10
f 57//19 50//19 58//19
f 44//26 43//25 26//10
f 24//10 44//26 26//10
f 58//19 50//19 17//19
f 47//23 46//25 24//10
f 43//25 42//10 26//10
f 19//27 18//28 17//19
f 17//19 47//23 20//10
f 20//10 19//27 17//19
f 23//19 22//10 21//20
f 21//20 20//10 24//10
f 47//23 24//10 20//10
f 42//10 41//26 31//10
f 41//26 40//26 33//19
f 40//26 39//19 34//25
f 33//19 40//26 34//25
f 39//19 38//19 35//25
f 38//19 37//19 12//29
f 37//19 36//30 12//29
f 12//29 11//14 35//25
f 33//19 32//31 31//10
f 12//29 35//25 38//19
f 35//25 34//25 39//19
f 33//19 31//10 41//26
f 31//10 30//32 27//11
f 30//32 29//33 28//34
f 27//11 30//32 28//34
f 24//10 23//19 21//20
f 26//10 25//35 24//10
f 26//10 42//10 31//10
f 11//14 12//29 63//13
f 12//29 66//13 63//13
f 65//36 64//37 63//13
f 66//13 65//36 63//13
f 62//12 61//38 60//13
f 63//13 62//12 11//14
f 10//15 68//39 67//16
f 67//16 9//17 8//5
