# Blender v2.81 (sub 16) OBJ File: ''
# www.blender.org
mtllib Sri Lanka.mtl
o 0_Sri_Lanka.002_sphere.001
v 0.869152 0.782170 -4.860781
v 0.866463 0.782170 -4.861250
v 0.865681 0.779920 -4.861730
v 0.872569 0.784404 -4.859807
v 0.877068 0.788103 -4.858397
v 0.878602 0.791095 -4.857624
v 0.869176 0.787740 -4.859835
v 0.867942 0.786439 -4.860271
vn 0.1697 0.1614 -0.9722
vn 0.1701 0.1485 -0.9742
vn 0.1699 0.1546 -0.9732
vn 0.1697 0.1642 -0.9717
vn 0.1695 0.1641 -0.9717
usemtl None
s 1
f 1//1 3//2 2//3
f 4//4 1//1 8//4
f 1//1 2//3 8//4
f 8//4 7//4 4//4
f 7//4 6//5 5//5
f 4//4 7//4 5//5
o 1_Sri_Lanka.002_sphere.001
v 0.863813 0.835424 -4.852715
v 0.867833 0.841153 -4.851046
v 0.868749 0.843588 -4.850474
v 0.867604 0.845296 -4.850385
v 0.866421 0.846150 -4.850447
v 0.865060 0.845872 -4.850732
v 0.863231 0.840541 -4.851952
v 0.858466 0.836357 -4.853490
vn 0.1696 0.1642 -0.9717
vn 0.1697 0.1642 -0.9717
vn 0.1691 0.1642 -0.9718
vn 0.1697 0.1643 -0.9717
vn 0.1699 0.1643 -0.9716
usemtl None
s 1
f 9//6 16//6 15//6
f 15//6 14//6 10//7
f 14//6 13//8 12//9
f 10//7 12//9 11//10
f 14//6 12//9 10//7
f 10//7 9//6 15//6
o 2_Sri_Lanka.002_sphere.001
v 0.774370 0.704504 -4.889174
v 0.776006 0.626664 -4.899500
v 0.777450 0.548669 -4.908618
v 0.860024 0.548669 -4.894207
v 0.857538 0.782170 -4.862808
v 0.779196 0.782170 -4.876481
v 0.736016 0.704504 -4.894632
v 0.884217 0.704504 -4.870002
v 0.880787 0.704504 -4.870600
v 0.875366 0.704504 -4.871546
v 0.772659 0.777269 -4.878369
v 0.700994 0.626664 -4.910176
v 0.777730 0.531176 -4.910388
v 0.876112 0.626664 -4.882029
v 0.737657 0.548669 -4.914281
v 0.778088 0.779711 -4.877049
v 0.774397 0.778446 -4.877886
v 0.883712 0.711534 -4.869017
v 0.880325 0.721186 -4.868136
v 0.873308 0.722034 -4.869231
v 0.871467 0.731310 -4.868137
v 0.863094 0.755461 -4.865913
v 0.862827 0.759749 -4.865305
v 0.863920 0.768831 -4.863729
v 0.863723 0.773395 -4.863067
v 0.744903 0.543483 -4.913787
v 0.751270 0.540275 -4.913213
v 0.862167 0.554160 -4.893173
v 0.866925 0.573246 -4.890049
v 0.873958 0.594452 -4.886274
v 0.771314 0.776355 -4.878699
v 0.756289 0.752964 -4.884389
v 0.754605 0.748343 -4.885331
v 0.754981 0.743256 -4.886049
v 0.754158 0.739472 -4.886741
v 0.750126 0.737579 -4.887602
v 0.745074 0.736564 -4.888475
v 0.741832 0.733048 -4.889471
v 0.738028 0.714397 -4.892844
v 0.738166 0.708569 -4.893709
v 0.737036 0.706081 -4.894248
v 0.848801 0.851598 -4.852602
v 0.840108 0.851815 -4.854083
v 0.834061 0.850634 -4.855338
v 0.823989 0.837397 -4.859332
v 0.796223 0.813668 -4.868187
v 0.781394 0.789544 -4.874851
v 0.780130 0.784280 -4.875961
v 0.851708 0.790321 -4.862448
v 0.848475 0.800166 -4.861349
v 0.846603 0.810223 -4.859977
v 0.846920 0.821111 -4.858081
v 0.848699 0.831827 -4.855961
v 0.839495 0.828412 -4.858144
v 0.834476 0.824688 -4.859649
v 0.829336 0.822162 -4.860973
v 0.825057 0.823453 -4.861502
v 0.819940 0.823501 -4.862387
v 0.823424 0.829336 -4.860793
v 0.834101 0.834707 -4.858022
v 0.851957 0.838034 -4.854343
v 0.857465 0.842292 -4.852663
v 0.859504 0.845989 -4.851682
v 0.858281 0.850321 -4.851163
v 0.856927 0.852042 -4.851109
v 0.701089 0.611018 -4.912033
v 0.702587 0.600688 -4.913054
v 0.706484 0.588117 -4.914003
v 0.711043 0.575820 -4.914824
v 0.715922 0.566937 -4.915191
v 0.722515 0.559439 -4.915149
v 0.878233 0.659904 -4.877127
v 0.880534 0.678177 -4.874234
v 0.884413 0.701455 -4.870383
v 0.880889 0.700005 -4.871196
v 0.878075 0.697368 -4.872046
v 0.875855 0.700106 -4.872061
v 0.780214 0.530292 -4.910047
v 0.801490 0.520763 -4.907324
v 0.821045 0.518152 -4.904182
v 0.840490 0.523383 -4.900245
v 0.854981 0.535830 -4.896422
v 0.717977 0.676963 -4.900936
v 0.716905 0.673420 -4.901568
v 0.717172 0.670774 -4.901890
v 0.716644 0.668484 -4.902276
v 0.712939 0.663347 -4.903500
v 0.707274 0.649485 -4.906187
v 0.704299 0.646328 -4.907038
v 0.700924 0.634214 -4.909162
vn 0.1700 0.1486 -0.9742
vn 0.1549 0.1409 -0.9778
vn 0.1703 0.1328 -0.9764
vn 0.1702 0.1409 -0.9753
vn 0.1704 0.1331 -0.9763
vn 0.1552 0.1253 -0.9799
vn 0.1707 0.1175 -0.9783
vn 0.1702 0.1406 -0.9753
vn 0.1401 0.1019 -0.9849
vn 0.1400 0.1144 -0.9835
vn 0.1555 0.1097 -0.9817
vn 0.1392 0.1486 -0.9790
vn 0.1394 0.1487 -0.9790
vn 0.1696 0.1642 -0.9717
vn 0.1696 0.1641 -0.9717
vn 0.1399 0.1175 -0.9832
vn 0.1398 0.1252 -0.9822
vn 0.1710 0.1019 -0.9800
vn 0.1589 0.1019 -0.9820
vn 0.1396 0.1331 -0.9812
vn 0.1702 0.1405 -0.9753
vn 0.1605 0.1486 -0.9758
vn 0.1702 0.1483 -0.9742
vn 0.1699 0.1541 -0.9733
vn 0.1700 0.1487 -0.9742
vn 0.1699 0.1534 -0.9734
vn 0.1704 0.1487 -0.9741
vn 0.1705 0.1257 -0.9773
vn 0.1704 0.1332 -0.9763
vn 0.1705 0.1331 -0.9763
vn 0.1708 0.1116 -0.9789
vn 0.1395 0.1379 -0.9805
vn 0.1393 0.1486 -0.9790
vn 0.1391 0.1487 -0.9790
vn 0.1394 0.1486 -0.9790
vn 0.1387 0.1486 -0.9791
vn 0.1695 0.1642 -0.9717
vn 0.1695 0.1641 -0.9717
vn 0.1708 0.1019 -0.9800
vn 0.1711 0.1019 -0.9799
vn 0.1397 0.1331 -0.9812
vn 0.1399 0.1331 -0.9812
vn 0.1394 0.1332 -0.9812
vn 0.1382 0.1332 -0.9814
usemtl None
s 1
f 38//11 37//11 17//12
f 91//13 25//14 90//15
f 18//16 46//17 45//17
f 25//14 34//11 24//18
f 42//19 31//20 19//21
f 52//22 51//23 17//12
f 74//24 73//25 72//24
f 82//26 28//27 18//16
f 94//28 29//29 19//21
f 17//12 18//16 101//30
f 26//31 17//12 36//11
f 17//12 27//32 32//11
f 36//11 17//12 37//11
f 27//32 33//33 32//11
f 32//11 22//34 39//35
f 22//34 21//36 39//35
f 21//36 41//37 40//11
f 21//36 40//11 39//35
f 38//11 32//11 39//35
f 38//11 17//12 32//11
f 30//38 18//16 88//15
f 18//16 17//12 88//15
f 17//12 26//31 93//39
f 17//12 93//39 89//15
f 93//39 92//40 89//15
f 24//18 90//15 25//14
f 90//15 89//15 92//40
f 91//13 90//15 92//40
f 89//15 88//15 17//12
f 20//41 19//21 44//17
f 19//21 18//16 45//17
f 18//16 30//38 46//17
f 45//17 44//17 19//21
f 25//14 35//11 34//11
f 19//21 29//29 43//19
f 43//19 42//19 19//21
f 17//12 23//42 57//43
f 56//43 55//43 17//12
f 55//43 54//43 52//22
f 17//12 55//43 52//22
f 17//12 57//43 56//43
f 47//44 27//32 48//45
f 27//32 17//12 50//45
f 49//46 48//45 50//45
f 50//45 48//45 27//32
f 54//43 53//43 52//22
f 51//23 50//45 17//12
f 21//36 22//34 65//24
f 22//34 64//25 65//24
f 64//25 63//24 65//24
f 63//24 62//24 65//24
f 65//24 62//24 66//24
f 61//24 60//24 76//24
f 60//24 59//24 76//24
f 62//24 61//24 74//24
f 74//24 61//24 75//47
f 75//47 61//24 76//24
f 58//24 81//24 80//24
f 67//25 66//24 72//24
f 72//24 66//24 74//24
f 70//24 69//48 68//24
f 68//24 67//25 71//24
f 71//24 67//25 72//24
f 59//24 58//24 77//47
f 58//24 80//24 78//47
f 80//24 79//24 78//47
f 78//47 77//47 58//24
f 77//47 76//24 59//24
f 70//24 68//24 71//24
f 74//24 66//24 62//24
f 19//21 31//20 18//16
f 31//20 87//26 18//16
f 87//26 86//26 18//16
f 86//26 85//26 18//16
f 85//26 84//26 18//16
f 84//26 83//26 18//16
f 83//26 82//26 18//16
f 19//21 20//41 96//28
f 20//41 98//49 97//50
f 96//28 20//41 97//50
f 96//28 95//28 19//21
f 95//28 94//28 19//21
f 18//16 28//27 104//51
f 28//27 106//52 104//51
f 106//52 105//53 104//51
f 104//51 103//51 18//16
f 103//51 102//51 18//16
f 101//30 100//54 99//30
f 101//30 99//30 17//12
f 99//30 23//42 17//12
f 102//51 101//30 18//16
