# Blender v2.81 (sub 16) OBJ File: ''
# www.blender.org
mtllib Suriname.mtl
o 0_Suriname.002_sphere.001
v 2.933120 0.313950 4.037101
v 2.797936 0.470539 4.117046
v 2.801749 0.392293 4.122654
v 2.804864 0.313950 4.127241
v 2.807290 0.235530 4.130809
v 2.670871 0.392293 4.208625
v 2.673841 0.313950 4.213307
v 2.916293 0.470539 4.033864
v 2.647960 0.392293 4.222664
v 2.668839 0.436038 4.205424
v 2.807787 0.212991 4.131541
v 2.690533 0.470539 4.187597
v 2.663757 0.313950 4.219486
v 2.933446 0.313950 4.036857
v 2.898105 0.392293 4.054934
v 2.674432 0.293908 4.214238
v 2.933088 0.314707 4.037058
v 2.795110 0.519635 4.112888
v 2.933252 0.309868 4.037283
v 2.916806 0.235530 4.053841
v 2.714330 0.235530 4.191872
v 2.932890 0.307896 4.037670
v 2.932894 0.300755 4.038147
v 2.929316 0.292450 4.041220
v 2.920943 0.277231 4.048129
v 2.919921 0.273697 4.049085
v 2.922668 0.261101 4.048001
v 2.921764 0.250754 4.049332
v 2.921410 0.245789 4.049915
v 2.917336 0.236712 4.053388
v 2.648110 0.392862 4.222515
v 2.650155 0.398981 4.220639
v 2.651949 0.406899 4.218736
v 2.650109 0.411786 4.219367
v 2.647113 0.416558 4.220717
v 2.646067 0.420128 4.220995
v 2.648495 0.425368 4.218976
v 2.650997 0.429056 4.217067
v 2.653969 0.429584 4.215193
v 2.657777 0.431802 4.212633
v 2.660665 0.434986 4.210540
v 2.665226 0.435829 4.207660
v 2.656288 0.320551 4.223515
v 2.653415 0.330236 4.224472
v 2.650122 0.336280 4.225988
v 2.640417 0.348916 4.230887
v 2.638449 0.357594 4.231372
v 2.638216 0.363711 4.231008
v 2.641232 0.369328 4.228693
v 2.645409 0.379211 4.225314
v 2.646926 0.388194 4.223638
v 2.712646 0.239668 4.192706
v 2.712026 0.241448 4.192997
v 2.710818 0.242083 4.193748
v 2.707594 0.247112 4.195534
v 2.705100 0.248860 4.197057
v 2.704073 0.251433 4.197563
v 2.704114 0.258456 4.197073
v 2.702665 0.261910 4.197798
v 2.702082 0.268494 4.197748
v 2.701910 0.271135 4.197687
v 2.700547 0.274043 4.198390
v 2.698401 0.275961 4.199674
v 2.697882 0.280717 4.199702
v 2.697050 0.292465 4.199475
v 2.695990 0.294507 4.200037
v 2.687079 0.294370 4.205899
v 2.686245 0.293225 4.206523
v 2.682417 0.292533 4.209083
v 2.678155 0.292408 4.211891
v 2.805798 0.521395 4.105156
v 2.825052 0.518498 4.091986
v 2.841259 0.522033 4.080153
v 2.863602 0.521581 4.064507
v 2.897942 0.514788 4.041223
v 2.913402 0.510153 4.030937
v 2.919882 0.505954 4.026909
v 2.921561 0.498365 4.026679
v 2.921525 0.488673 4.027917
v 2.919641 0.479411 4.030400
v 2.909297 0.460806 4.039812
v 2.903263 0.452039 4.044981
v 2.895445 0.436915 4.052077
v 2.896048 0.432156 4.052157
v 2.894362 0.428321 4.053748
v 2.894226 0.421528 4.054564
v 2.895214 0.413946 4.054673
v 2.897685 0.408960 4.053464
v 2.899214 0.399491 4.053392
v 2.914943 0.466968 4.035191
v 2.897902 0.390960 4.055192
v 2.898762 0.386005 4.055016
v 2.900844 0.378137 4.054233
v 2.902627 0.369762 4.053704
v 2.902580 0.366372 4.054030
v 2.904753 0.363626 4.052742
v 2.906811 0.360939 4.051527
v 2.906523 0.353460 4.052376
v 2.913863 0.340145 4.048369
v 2.918218 0.334346 4.045810
v 2.924494 0.328692 4.041889
v 2.926907 0.323169 4.040671
v 2.930604 0.316509 4.038649
v 2.932643 0.315726 4.037282
v 2.907497 0.214712 4.061381
v 2.901633 0.210744 4.065693
v 2.898134 0.204395 4.068456
v 2.895849 0.204326 4.070065
v 2.893280 0.203734 4.071900
v 2.892458 0.202949 4.072515
v 2.889215 0.203016 4.074791
v 2.886605 0.205828 4.076490
v 2.886104 0.209157 4.076684
v 2.884671 0.212963 4.077507
v 2.881466 0.214103 4.079705
v 2.875476 0.212778 4.083979
v 2.873703 0.213723 4.085179
v 2.869971 0.217818 4.087605
v 2.866910 0.222268 4.089544
v 2.866055 0.226566 4.089938
v 2.864124 0.226161 4.091315
v 2.859645 0.222270 4.094649
v 2.856503 0.221470 4.096896
v 2.854043 0.222482 4.098577
v 2.851279 0.222196 4.100533
v 2.844339 0.218029 4.105610
v 2.840252 0.217083 4.108528
v 2.837365 0.212884 4.110758
v 2.817881 0.210996 4.124543
v 2.812827 0.209899 4.128147
v 2.674225 0.293993 4.214359
v 2.670912 0.296043 4.216257
v 2.670133 0.298590 4.216570
v 2.670391 0.306750 4.215886
v 2.664914 0.312922 4.218843
v 2.691882 0.474442 4.186232
v 2.692384 0.477920 4.185476
v 2.695943 0.483404 4.182467
v 2.696959 0.481707 4.182007
v 2.699405 0.491685 4.179178
v 2.699297 0.499794 4.178256
v 2.701126 0.507795 4.176074
v 2.704088 0.517276 4.172966
v 2.710089 0.521983 4.168448
v 2.746917 0.517195 4.144844
v 2.763915 0.512650 4.134235
v 2.785816 0.504864 4.120802
v 2.789340 0.496522 4.119510
v 2.789049 0.504868 4.118679
v 2.787500 0.513308 4.118661
v 2.793088 0.519302 4.114257
v 2.933833 0.313041 4.036628
v 2.800863 0.217171 4.135893
v 2.797755 0.219530 4.137824
v 2.796162 0.219865 4.138854
v 2.794834 0.219470 4.139745
v 2.793582 0.217857 4.140643
v 2.791820 0.208723 4.142230
v 2.790104 0.206251 4.143473
v 2.787021 0.204233 4.145593
v 2.784058 0.200583 4.147711
v 2.783526 0.197053 4.148226
v 2.788237 0.195117 4.145222
v 2.792285 0.188264 4.142885
v 2.796670 0.182771 4.140263
v 2.800177 0.177934 4.138186
v 2.799837 0.172444 4.138667
v 2.799425 0.164676 4.139302
v 2.797021 0.162023 4.141006
v 2.792938 0.160719 4.143749
v 2.777745 0.164466 4.153553
v 2.766063 0.167817 4.161069
v 2.761186 0.168550 4.164238
v 2.758989 0.169405 4.165642
v 2.756027 0.172258 4.167453
v 2.753054 0.174892 4.169282
v 2.748322 0.175846 4.172346
v 2.742673 0.177630 4.175973
v 2.738336 0.184469 4.178501
v 2.733831 0.194213 4.181003
v 2.732249 0.198615 4.181835
v 2.728825 0.202879 4.183884
v 2.725411 0.208925 4.185843
v 2.724311 0.214292 4.186313
v 2.721729 0.219206 4.187778
v 2.720406 0.220860 4.188570
v 2.718328 0.227565 4.189620
v 2.717885 0.230050 4.189794
v 2.716916 0.230364 4.190416
v 2.715547 0.232512 4.191215
v 2.670931 0.436156 4.204038
v 2.682504 0.436157 4.196435
v 2.688290 0.437502 4.192495
v 2.690049 0.440060 4.191075
v 2.689488 0.444953 4.190936
v 2.692231 0.449397 4.188673
v 2.695233 0.451260 4.186508
v 2.696394 0.452733 4.185593
v 2.696485 0.454366 4.185364
v 2.695606 0.455870 4.185785
v 2.694356 0.456854 4.186504
v 2.691120 0.457198 4.188594
v 2.687941 0.464900 4.189884
v 2.689675 0.468256 4.188397
vn 0.5736 0.0706 0.8161
vn 0.5732 0.0705 0.8164
vn 0.5735 0.0706 0.8162
vn 0.5462 0.1018 0.8314
vn 0.5461 0.1019 0.8314
vn 0.5461 0.1018 0.8314
vn 0.5462 0.0864 0.8332
vn 0.5471 0.0863 0.8326
vn 0.5470 0.0863 0.8327
vn 0.5610 0.0627 0.8254
vn 0.5342 0.0785 0.8417
vn 0.5347 0.0627 0.8426
vn 0.5482 0.0549 0.8345
vn 0.5483 0.0550 0.8344
vn 0.5206 0.0863 0.8494
vn 0.5205 0.0863 0.8495
vn 0.5211 0.0706 0.8506
vn 0.5211 0.0706 0.8505
vn 0.5867 0.0626 0.8073
vn 0.5741 0.0549 0.8169
vn 0.5995 0.0601 0.7981
vn 0.5775 0.0707 0.8133
vn 0.5720 0.1018 0.8139
vn 0.5602 0.1019 0.8220
vn 0.5596 0.0941 0.8234
vn 0.5728 0.0863 0.8151
vn 0.5728 0.0864 0.8151
vn 0.5744 0.0497 0.8170
vn 0.5746 0.0392 0.8175
vn 0.5745 0.0392 0.8175
vn 0.5382 0.0549 0.8410
vn 0.5217 0.0549 0.8514
vn 0.5998 0.0548 0.7982
vn 0.5757 0.0550 0.8158
vn 0.5486 0.0392 0.8351
vn 0.5486 0.0392 0.8352
vn 0.5736 0.0704 0.8161
vn 0.5738 0.0704 0.8159
vn 0.5737 0.0705 0.8160
vn 0.5735 0.0707 0.8161
vn 0.5604 0.0784 0.8245
vn 0.5736 0.0705 0.8161
vn 0.5732 0.0796 0.8155
vn 0.5734 0.0706 0.8162
vn 0.5739 0.0706 0.8159
vn 0.5462 0.1019 0.8314
vn 0.5460 0.1019 0.8315
vn 0.5463 0.1018 0.8314
vn 0.5461 0.1019 0.8315
vn 0.5464 0.1018 0.8313
vn 0.5467 0.0918 0.8323
vn 0.5461 0.1017 0.8315
vn 0.5461 0.1018 0.8315
vn 0.5460 0.1018 0.8316
vn 0.5469 0.0864 0.8327
vn 0.5469 0.0863 0.8328
vn 0.5471 0.0864 0.8326
vn 0.5469 0.0863 0.8327
vn 0.5342 0.0863 0.8409
vn 0.5470 0.0862 0.8326
vn 0.5470 0.0864 0.8327
vn 0.5484 0.0492 0.8348
vn 0.5614 0.0471 0.8261
vn 0.5503 0.0552 0.8331
vn 0.5482 0.0550 0.8345
vn 0.5481 0.0549 0.8346
vn 0.5480 0.0552 0.8347
vn 0.5483 0.0547 0.8345
vn 0.5481 0.0550 0.8346
vn 0.5482 0.0548 0.8345
vn 0.5485 0.0551 0.8343
vn 0.5486 0.0550 0.8343
vn 0.5485 0.0549 0.8343
vn 0.5483 0.0549 0.8344
vn 0.5210 0.0767 0.8501
vn 0.5205 0.0864 0.8495
vn 0.5207 0.0861 0.8494
vn 0.5203 0.0863 0.8496
vn 0.5213 0.0673 0.8507
vn 0.5211 0.0705 0.8505
vn 0.5212 0.0706 0.8505
vn 0.5212 0.0705 0.8505
vn 0.5213 0.0706 0.8505
vn 0.5749 0.0548 0.8163
vn 0.5742 0.0550 0.8168
vn 0.5743 0.0549 0.8168
vn 0.5742 0.0549 0.8169
vn 0.5723 0.0965 0.8143
vn 0.5720 0.1018 0.8138
vn 0.5720 0.1019 0.8139
vn 0.5721 0.1018 0.8138
vn 0.5719 0.1019 0.8139
vn 0.5729 0.0863 0.8151
vn 0.5731 0.0863 0.8149
vn 0.5728 0.0862 0.8151
vn 0.5727 0.0864 0.8151
vn 0.5655 0.0392 0.8238
vn 0.5745 0.0391 0.8175
vn 0.5744 0.0393 0.8177
vn 0.5745 0.0393 0.8175
vn 0.5750 0.0388 0.8172
vn 0.5744 0.0392 0.8176
vn 0.5747 0.0390 0.8174
vn 0.5747 0.0395 0.8174
vn 0.5745 0.0391 0.8176
vn 0.5747 0.0394 0.8174
vn 0.5746 0.0391 0.8175
vn 0.5217 0.0550 0.8513
vn 0.5216 0.0549 0.8514
vn 0.5215 0.0549 0.8514
vn 0.5236 0.0550 0.8501
vn 0.5487 0.0393 0.8351
vn 0.5485 0.0392 0.8352
vn 0.5486 0.0393 0.8351
vn 0.5475 0.0392 0.8358
vn 0.5484 0.0392 0.8353
vn 0.5486 0.0391 0.8352
vn 0.5482 0.0390 0.8354
vn 0.5483 0.0391 0.8354
vn 0.5488 0.0392 0.8350
vn 0.5492 0.0393 0.8347
vn 0.5487 0.0394 0.8350
vn 0.5485 0.0393 0.8352
vn 0.5486 0.0391 0.8351
vn 0.5487 0.0392 0.8350
usemtl None
s 1
f 98//1 96//2 95//3
f 145//4 140//5 139//6
f 197//7 196//8 194//9
f 4//10 6//11 7//12
f 65//13 62//14 61//13
f 39//15 37//16 34//16
f 45//17 44//18 6//11
f 1//19 4//10 25//20
f 14//21 17//22 1//19
f 71//23 18//24 2//25
f 83//26 2//25 85//27
f 20//28 120//29 115//30
f 16//31 7//12 134//32
f 152//33 1//19 19//34
f 167//35 165//36 170//36
f 4//10 1//19 103//37
f 1//19 17//22 104//38
f 103//37 1//19 104//38
f 102//39 101//40 100//1
f 103//37 102//39 100//1
f 103//37 100//1 4//10
f 100//1 99//1 4//10
f 3//41 4//10 95//3
f 91//42 15//43 3//41
f 94//44 93//1 95//3
f 93//1 92//1 3//41
f 95//3 93//1 3//41
f 92//1 91//42 3//41
f 4//10 99//1 98//1
f 98//1 97//45 96//2
f 4//10 98//1 95//3
f 2//25 18//24 148//46
f 18//24 151//47 149//48
f 148//46 18//24 149//48
f 151//47 150//4 149//48
f 148//46 147//49 146//5
f 136//50 12//51 139//6
f 12//51 2//25 139//6
f 138//52 137//47 139//6
f 137//47 136//50 139//6
f 148//46 146//5 2//25
f 146//5 145//4 2//25
f 2//25 145//4 139//6
f 145//4 144//6 142//53
f 144//6 143//54 142//53
f 145//4 142//53 140//5
f 142//53 141//47 140//5
f 6//11 3//41 193//9
f 3//41 2//25 198//55
f 194//9 3//41 198//55
f 2//25 12//51 199//55
f 12//51 204//56 201//57
f 204//56 203//58 201//57
f 203//58 202//8 201//57
f 191//58 10//59 6//11
f 192//58 191//58 6//11
f 12//51 201//57 200//60
f 12//51 200//60 199//55
f 193//9 192//58 6//11
f 196//8 195//61 194//9
f 194//9 193//9 3//41
f 2//25 199//55 198//55
f 194//9 198//55 197//7
f 4//10 3//41 6//11
f 21//62 5//63 53//13
f 5//63 4//10 53//13
f 21//62 53//13 52//64
f 4//10 7//12 66//13
f 7//12 16//31 70//13
f 67//65 7//12 69//66
f 70//13 69//66 7//12
f 69//66 68//67 67//65
f 55//13 54//68 53//13
f 7//12 67//65 66//13
f 55//13 53//13 58//66
f 53//13 4//10 61//13
f 57//69 56//70 55//13
f 60//71 59//72 58//66
f 58//66 57//69 55//13
f 4//10 66//13 65//13
f 65//13 64//73 62//14
f 64//73 63//74 62//14
f 53//13 61//13 58//66
f 4//10 65//13 61//13
f 60//71 58//66 61//13
f 9//75 6//11 31//76
f 6//11 10//59 40//15
f 31//76 6//11 32//16
f 10//59 42//16 40//15
f 42//16 41//77 40//15
f 32//16 6//11 33//16
f 33//16 6//11 40//15
f 40//15 39//15 34//16
f 33//16 40//15 34//16
f 39//15 38//15 37//16
f 37//16 36//78 35//16
f 37//16 35//16 34//16
f 13//79 7//12 43//80
f 7//12 6//11 44//18
f 43//80 7//12 44//18
f 6//11 9//75 51//81
f 6//11 51//81 50//81
f 6//11 50//81 45//17
f 50//81 49//81 45//17
f 49//81 48//82 47//83
f 47//83 46//81 49//81
f 46//81 45//17 49//81
f 5//63 20//28 26//20
f 20//28 30//84 26//20
f 30//84 29//85 28//20
f 28//20 27//86 26//20
f 25//20 24//20 1//19
f 24//20 23//87 22//20
f 30//84 28//20 26//20
f 24//20 22//20 1//19
f 22//20 19//34 1//19
f 5//63 26//20 4//10
f 26//20 25//20 4//10
f 2//25 8//88 74//23
f 8//88 80//89 75//23
f 74//23 8//88 75//23
f 80//89 79//90 75//23
f 79//90 78//91 76//90
f 78//91 77//92 76//90
f 76//90 75//23 79//90
f 74//23 73//23 2//25
f 73//23 72//90 2//25
f 72//90 71//23 2//25
f 3//41 15//43 87//93
f 15//43 89//26 87//93
f 89//26 88//94 87//93
f 8//88 2//25 81//26
f 2//25 3//41 85//27
f 81//26 2//25 82//26
f 81//26 90//95 8//88
f 82//26 2//25 83//26
f 3//41 87//93 86//26
f 85//27 84//96 83//26
f 3//41 86//26 85//27
f 5//63 11//97 129//30
f 11//97 130//98 129//30
f 129//30 128//30 127//29
f 106//30 105//30 114//30
f 105//30 20//28 114//30
f 108//30 107//99 106//30
f 111//100 110//30 109//100
f 109//100 108//30 113//30
f 108//30 106//30 113//30
f 5//63 129//30 127//29
f 127//29 126//101 125//30
f 124//102 123//100 122//103
f 5//63 127//29 125//30
f 124//102 122//103 121//104
f 5//63 125//30 121//104
f 125//30 124//102 121//104
f 113//30 106//30 114//30
f 112//105 111//100 109//100
f 113//30 112//105 109//100
f 120//29 119//106 118//30
f 5//63 121//104 120//29
f 20//28 5//63 120//29
f 120//29 118//30 115//30
f 118//30 117//100 115//30
f 117//100 116//107 115//30
f 115//30 114//30 20//28
f 7//12 13//79 135//108
f 134//32 133//109 16//31
f 133//109 132//110 131//111
f 7//12 135//108 134//32
f 131//111 16//31 133//109
f 152//33 14//21 1//19
f 5//63 21//62 156//35
f 21//62 190//112 188//113
f 190//112 189//114 188//113
f 188//113 187//115 185//36
f 187//115 186//116 185//36
f 21//62 188//113 156//35
f 153//36 11//97 5//63
f 154//113 153//36 5//63
f 188//113 185//36 157//117
f 184//113 183//118 182//119
f 188//113 157//117 156//35
f 185//36 184//113 157//117
f 155//120 154//113 5//63
f 156//35 155//120 5//63
f 184//113 182//119 181//36
f 157//117 184//113 161//35
f 181//36 180//35 161//35
f 180//35 179//35 176//113
f 184//113 181//36 161//35
f 159//121 158//36 160//120
f 158//36 157//117 160//120
f 180//35 176//113 161//35
f 179//35 178//122 177//36
f 176//113 179//35 177//36
f 175//113 174//123 173//117
f 176//113 175//113 162//124
f 175//113 173//117 172//35
f 172//35 171//35 162//124
f 171//35 170//36 165//36
f 162//124 171//35 164//36
f 175//113 172//35 162//124
f 161//35 160//120 157//117
f 164//36 163//113 162//124
f 165//36 164//36 171//35
f 162//124 161//35 176//113
f 170//36 169//123 167//35
f 169//123 168//120 167//35
f 167//35 166//125 165//36
