# Blender v2.81 (sub 16) OBJ File: ''
# www.blender.org
mtllib Swaziland.mtl
o 0_Swaziland.002_sphere.001
v 3.818666 -2.269955 -2.293849
v 3.779245 -2.269955 -2.358178
v 3.847213 -2.199698 -2.314443
v 3.804728 -2.199698 -2.383774
v 3.812967 -2.189481 -2.379717
v 3.807703 -2.193138 -2.384947
v 3.847226 -2.199365 -2.314728
v 3.848792 -2.190131 -2.320658
v 3.848336 -2.179317 -2.331340
v 3.845943 -2.172376 -2.341623
v 3.844411 -2.171381 -2.345038
v 3.842957 -2.171663 -2.347150
v 3.829801 -2.181179 -2.359876
v 3.816648 -2.190208 -2.373043
v 3.815001 -2.189199 -2.376657
v 3.814264 -2.188339 -2.378651
v 3.774083 -2.283246 -2.353390
v 3.769060 -2.293488 -2.351405
v 3.777688 -2.293759 -2.337056
v 3.789253 -2.292613 -2.319325
v 3.799144 -2.288197 -2.307572
v 3.812006 -2.278481 -2.296242
v 3.804412 -2.200352 -2.383664
v 3.801322 -2.208539 -2.380878
v 3.799883 -2.213708 -2.378282
v 3.797430 -2.218844 -2.377375
v 3.792816 -2.226867 -2.377234
v 3.789360 -2.232355 -2.377625
v 3.778522 -2.257301 -2.371458
v 3.780273 -2.256160 -2.369692
v 3.783044 -2.255074 -2.366209
v 3.784070 -2.255543 -2.364085
v 3.780454 -2.266719 -2.359299
v 3.823766 -2.263249 -2.291938
v 3.830118 -2.253628 -2.290772
v 3.833466 -2.253089 -2.285824
v 3.834665 -2.251474 -2.285412
v 3.839995 -2.239703 -2.287970
v 3.845224 -2.227368 -2.291231
v 3.846052 -2.224088 -2.293017
v 3.846791 -2.208838 -2.306393
vn 0.7686 -0.4328 -0.4710
vn 0.7684 -0.4330 -0.4711
vn 0.7566 -0.4610 -0.4636
vn 0.7599 -0.4535 -0.4657
vn 0.7566 -0.4609 -0.4637
vn 0.7627 -0.4469 -0.4674
vn 0.7645 -0.4425 -0.4686
vn 0.7655 -0.4404 -0.4691
vn 0.7686 -0.4328 -0.4711
vn 0.7688 -0.4328 -0.4708
vn 0.7686 -0.4329 -0.4710
vn 0.7688 -0.4327 -0.4708
vn 0.7607 -0.4516 -0.4662
vn 0.7626 -0.4471 -0.4674
vn 0.7629 -0.4469 -0.4671
vn 0.7618 -0.4484 -0.4675
vn 0.7628 -0.4469 -0.4674
vn 0.7627 -0.4469 -0.4673
usemtl None
s 1
f 14//1 13//1 7//2
f 17//3 2//4 19//5
f 31//6 30//6 28//6
f 3//7 4//8 14//1
f 4//8 6//9 5//1
f 5//1 16//10 15//11
f 4//8 5//1 15//11
f 14//1 4//8 15//11
f 9//1 8//1 13//1
f 8//1 7//2 13//1
f 7//2 3//7 14//1
f 13//1 12//1 9//1
f 12//1 11//12 10//1
f 9//1 12//1 10//1
f 2//4 1//13 21//5
f 1//13 22//5 21//5
f 21//5 20//5 2//4
f 20//5 19//5 2//4
f 19//5 18//5 17//3
f 1//13 2//4 33//6
f 1//13 33//6 32//6
f 35//6 34//6 32//6
f 34//6 1//13 32//6
f 37//6 36//14 35//6
f 39//15 38//6 40//6
f 38//6 37//6 35//6
f 41//6 40//6 35//6
f 35//6 40//6 38//6
f 4//8 3//7 24//6
f 3//7 41//6 26//6
f 25//6 3//7 26//6
f 24//6 23//16 4//8
f 25//6 24//6 3//7
f 35//6 32//6 41//6
f 32//6 31//6 28//6
f 41//6 32//6 26//6
f 26//6 32//6 27//17
f 27//17 32//6 28//6
f 30//6 29//18 28//6
