# Blender v2.81 (sub 16) OBJ File: ''
# www.blender.org
mtllib Switzerland.mtl
o 0_Switzerland.002_sphere.001
v 3.380599 3.644842 -0.535428
v 3.436728 3.590631 -0.544318
v 3.395750 3.644842 -0.428977
v 3.452130 3.590631 -0.436099
v 3.440367 3.587003 -0.544894
v 3.451692 3.590631 -0.439180
v 3.437658 3.590631 -0.537787
v 3.436372 3.590631 -0.546362
v 3.452621 3.590144 -0.436161
v 3.431082 3.596084 -0.543424
v 3.431636 3.595549 -0.543511
v 3.328479 3.698155 -0.492379
v 3.325901 3.698155 -0.510496
v 3.325882 3.698155 -0.510627
v 3.325627 3.698155 -0.512416
v 3.325011 3.698155 -0.516744
v 3.453025 3.590631 -0.427990
v 3.325929 3.696009 -0.526770
v 3.400849 3.644842 -0.382783
v 3.365909 3.644842 -0.619600
v 3.355374 3.682462 -0.423876
v 3.453816 3.589426 -0.431972
v 3.370346 3.640779 -0.618951
v 3.374772 3.636567 -0.619270
v 3.377218 3.633790 -0.622177
v 3.379380 3.631650 -0.622840
v 3.381564 3.629650 -0.622514
v 3.382463 3.629455 -0.618553
v 3.382316 3.630505 -0.612994
v 3.379619 3.633888 -0.607825
v 3.380640 3.633477 -0.604478
v 3.382073 3.632593 -0.601660
v 3.385661 3.629374 -0.600724
v 3.389839 3.625556 -0.600062
v 3.391957 3.623429 -0.600892
v 3.393277 3.621787 -0.603341
v 3.396577 3.618310 -0.605630
v 3.401034 3.613788 -0.607657
v 3.403001 3.611727 -0.608953
v 3.404125 3.610807 -0.608119
v 3.405236 3.610212 -0.605388
v 3.405050 3.610790 -0.602925
v 3.400193 3.616192 -0.597820
v 3.398404 3.618250 -0.595526
v 3.398585 3.618623 -0.592216
v 3.400936 3.617316 -0.586713
v 3.405581 3.614308 -0.578433
v 3.406196 3.614315 -0.574875
v 3.406065 3.614951 -0.571747
v 3.403917 3.617507 -0.568474
v 3.399218 3.622456 -0.565222
v 3.396118 3.625584 -0.563914
v 3.396509 3.625489 -0.562256
v 3.396572 3.626378 -0.556477
v 3.398252 3.625194 -0.554064
v 3.403516 3.620110 -0.554896
v 3.410094 3.613839 -0.555440
v 3.414790 3.609777 -0.553293
v 3.423381 3.602807 -0.546563
v 3.427044 3.599758 -0.544163
v 3.429535 3.597547 -0.543367
v 3.434777 3.592320 -0.545198
v 3.355504 3.682316 -0.424083
v 3.355426 3.681904 -0.427797
v 3.354357 3.682299 -0.432267
v 3.352342 3.683581 -0.436584
v 3.348647 3.686659 -0.438917
v 3.345901 3.689007 -0.440190
v 3.342053 3.691661 -0.446851
v 3.342828 3.690301 -0.451850
v 3.341357 3.689900 -0.465262
v 3.339205 3.690618 -0.474870
v 3.336390 3.692438 -0.480678
v 3.335302 3.692451 -0.488225
v 3.335680 3.691425 -0.493449
v 3.335380 3.691585 -0.494320
v 3.334922 3.691828 -0.495678
v 3.333643 3.692840 -0.496895
v 3.332259 3.693500 -0.501551
v 3.331285 3.694325 -0.502063
v 3.330415 3.695165 -0.501729
v 3.330097 3.695577 -0.500796
v 3.331414 3.695124 -0.495022
v 3.331034 3.695778 -0.492673
v 3.329526 3.697263 -0.491870
v 3.325897 3.697937 -0.512188
v 3.327089 3.695898 -0.519468
v 3.327423 3.695530 -0.519948
v 3.441449 3.586320 -0.542224
v 3.439932 3.588253 -0.538945
v 3.452909 3.590805 -0.427377
v 3.451762 3.592129 -0.425114
v 3.449827 3.594100 -0.423827
v 3.446537 3.597582 -0.420356
v 3.444747 3.599664 -0.416690
v 3.442666 3.601915 -0.414046
v 3.440440 3.604387 -0.410593
v 3.438511 3.606454 -0.408318
v 3.431312 3.613086 -0.410178
v 3.429099 3.615420 -0.407933
v 3.425745 3.618749 -0.406518
v 3.423351 3.620995 -0.406749
v 3.422897 3.621545 -0.405612
v 3.422767 3.622810 -0.394702
v 3.424190 3.622389 -0.385832
v 3.427202 3.620176 -0.379684
v 3.431616 3.616493 -0.374887
v 3.432523 3.615689 -0.374348
v 3.433190 3.615014 -0.374749
v 3.436413 3.611646 -0.377730
v 3.440610 3.608085 -0.373724
v 3.444237 3.605322 -0.367258
v 3.445044 3.605057 -0.362484
v 3.444740 3.605573 -0.360306
v 3.440740 3.609419 -0.359807
v 3.438840 3.610822 -0.363621
v 3.435888 3.613275 -0.366929
v 3.432084 3.616797 -0.367738
v 3.429488 3.619242 -0.367902
v 3.426765 3.622253 -0.363804
v 3.424824 3.624067 -0.364061
v 3.420943 3.627544 -0.366004
v 3.417613 3.630596 -0.367015
v 3.414630 3.633262 -0.368573
v 3.409271 3.637620 -0.375487
v 3.403927 3.641961 -0.382421
v 3.330141 3.686808 -0.560525
v 3.332198 3.684197 -0.565158
v 3.337130 3.679733 -0.564983
v 3.345607 3.672563 -0.561524
v 3.352228 3.666770 -0.560033
v 3.357023 3.662321 -0.560547
v 3.359172 3.660229 -0.561400
v 3.358989 3.660259 -0.562254
v 3.358559 3.659917 -0.566876
v 3.358159 3.659911 -0.569203
v 3.358190 3.658683 -0.576750
v 3.359018 3.656944 -0.582948
v 3.360812 3.655075 -0.584426
v 3.363092 3.652810 -0.585612
v 3.365164 3.649719 -0.593189
v 3.365904 3.647708 -0.601596
v 3.364748 3.648347 -0.604198
v 3.355227 3.655658 -0.612753
v 3.355832 3.654460 -0.616827
v 3.359522 3.650610 -0.619904
v 3.361700 3.648579 -0.620205
v 3.324230 3.696391 -0.534101
v 3.323711 3.696355 -0.537304
v 3.326599 3.692066 -0.547741
v 3.329610 3.687593 -0.558625
v 3.326468 3.699818 -0.493334
v 3.323553 3.701903 -0.497294
v 3.322474 3.702410 -0.500861
v 3.322696 3.701871 -0.503573
v 3.325008 3.698635 -0.512963
v 3.324374 3.699038 -0.514228
v 3.324896 3.698279 -0.516568
v 3.437751 3.589123 -0.547362
v 3.439828 3.587293 -0.546275
v 3.436570 3.591731 -0.537245
v 3.432717 3.596335 -0.530068
v 3.428226 3.600269 -0.532360
v 3.427297 3.601233 -0.531714
v 3.426765 3.603202 -0.520806
v 3.424398 3.606113 -0.515780
v 3.419936 3.611297 -0.508574
v 3.417811 3.613509 -0.507046
v 3.410272 3.620744 -0.506197
v 3.408510 3.622493 -0.505565
v 3.407746 3.623347 -0.504588
v 3.408258 3.623276 -0.501512
v 3.411479 3.620761 -0.497593
v 3.415953 3.616992 -0.494195
v 3.421498 3.612763 -0.486690
v 3.422534 3.611880 -0.485976
v 3.426417 3.607764 -0.489317
v 3.428135 3.606125 -0.489432
v 3.435874 3.599578 -0.483758
v 3.438295 3.597421 -0.482802
v 3.443768 3.593307 -0.474941
v 3.445921 3.591764 -0.471295
v 3.444375 3.594860 -0.459132
v 3.444462 3.595221 -0.455832
v 3.447301 3.593204 -0.450879
v 3.450325 3.591313 -0.443703
v 3.398949 3.646568 -0.382989
v 3.392930 3.652110 -0.382883
v 3.391387 3.653438 -0.383768
v 3.386693 3.656781 -0.393334
v 3.384994 3.658105 -0.395661
v 3.382842 3.659980 -0.396677
v 3.375262 3.666232 -0.403711
v 3.367752 3.672430 -0.410643
v 3.365361 3.674496 -0.411931
v 3.363901 3.675722 -0.413070
v 3.362828 3.676722 -0.412935
v 3.362106 3.677494 -0.411864
v 3.361972 3.677997 -0.408119
v 3.360032 3.679931 -0.406628
v 3.355821 3.683443 -0.410161
v 3.352898 3.685652 -0.414859
v 3.352338 3.685676 -0.419692
v 3.353166 3.684704 -0.421769
v 3.354401 3.683563 -0.421825
vn 0.6720 0.7343 -0.0956
vn 0.6761 0.7289 -0.1071
vn 0.6834 0.7235 -0.0972
vn 0.6740 0.7344 -0.0798
vn 0.6749 0.7342 -0.0743
vn 0.6748 0.7342 -0.0744
vn 0.6861 0.7236 -0.0757
vn 0.6861 0.7235 -0.0757
vn 0.6974 0.7125 -0.0770
vn 0.6906 0.7179 -0.0872
vn 0.6876 0.7221 -0.0760
vn 0.6800 0.7235 -0.1188
vn 0.6874 0.7181 -0.1089
vn 0.6868 0.7168 -0.1199
vn 0.6800 0.7235 -0.1186
vn 0.6800 0.7235 -0.1187
vn 0.6965 0.7124 -0.0863
vn 0.6842 0.7228 -0.0973
vn 0.6945 0.7126 -0.0988
vn 0.6932 0.7126 -0.1076
vn 0.6689 0.7341 -0.1168
vn 0.6687 0.7343 -0.1167
vn 0.6608 0.7447 -0.0940
vn 0.6608 0.7446 -0.0941
vn 0.6689 0.7372 -0.0954
vn 0.6606 0.7448 -0.0940
vn 0.6680 0.7380 -0.0950
vn 0.6911 0.7126 -0.1206
vn 0.6792 0.7289 -0.0858
vn 0.6703 0.7343 -0.1068
vn 0.6721 0.7342 -0.0956
vn 0.6720 0.7342 -0.0963
vn 0.6720 0.7343 -0.0957
vn 0.6726 0.7338 -0.0957
vn 0.6688 0.7373 -0.0952
vn 0.6680 0.7381 -0.0946
vn 0.6697 0.7364 -0.0954
vn 0.6718 0.7345 -0.0953
vn 0.6721 0.7342 -0.0957
vn 0.6721 0.7342 -0.0953
vn 0.6719 0.7344 -0.0957
vn 0.6722 0.7342 -0.0957
vn 0.6718 0.7345 -0.0956
vn 0.6882 0.7189 -0.0979
vn 0.6834 0.7235 -0.0973
vn 0.6832 0.7235 -0.0984
vn 0.6833 0.7235 -0.0977
vn 0.6836 0.7234 -0.0972
vn 0.6834 0.7235 -0.0971
vn 0.6833 0.7236 -0.0972
vn 0.6833 0.7235 -0.0975
vn 0.6835 0.7233 -0.0976
vn 0.6835 0.7234 -0.0972
vn 0.6834 0.7236 -0.0972
vn 0.6810 0.7284 -0.0752
vn 0.6747 0.7343 -0.0745
vn 0.6747 0.7342 -0.0746
vn 0.6748 0.7342 -0.0748
vn 0.6745 0.7345 -0.0745
vn 0.6748 0.7342 -0.0745
vn 0.6747 0.7343 -0.0744
vn 0.6747 0.7343 -0.0746
vn 0.6755 0.7337 -0.0734
vn 0.6747 0.7342 -0.0745
vn 0.6861 0.7235 -0.0758
vn 0.6853 0.7242 -0.0767
vn 0.6863 0.7234 -0.0754
vn 0.6861 0.7235 -0.0755
vn 0.6861 0.7235 -0.0759
vn 0.6861 0.7235 -0.0756
vn 0.6862 0.7234 -0.0757
vn 0.6861 0.7235 -0.0760
vn 0.6801 0.7233 -0.1196
vn 0.6800 0.7236 -0.1185
vn 0.6736 0.7297 -0.1175
vn 0.6800 0.7236 -0.1186
vn 0.6800 0.7234 -0.1188
vn 0.6800 0.7236 -0.1187
vn 0.6803 0.7232 -0.1186
vn 0.6801 0.7235 -0.1187
vn 0.6798 0.7237 -0.1186
vn 0.6801 0.7234 -0.1188
vn 0.6946 0.7125 -0.0988
vn 0.6687 0.7342 -0.1167
vn 0.6685 0.7345 -0.1167
vn 0.6687 0.7343 -0.1166
vn 0.6688 0.7342 -0.1166
vn 0.6665 0.7364 -0.1163
vn 0.6686 0.7344 -0.1167
vn 0.6607 0.7447 -0.0940
vn 0.6605 0.7449 -0.0939
usemtl None
s 1
f 75//1 72//1 1//2
f 1//2 170//3 169//3
f 21//4 197//5 196//6
f 107//7 106//8 119//8
f 22//9 4//10 17//11
f 62//12 2//13 8//14
f 40//15 38//16 41//16
f 9//17 6//18 4//10
f 90//19 5//20 2//13
f 136//21 135//22 140//22
f 158//23 156//24 15//25
f 155//26 153//26 12//27
f 159//28 8//14 2//13
f 3//29 1//2 71//1
f 1//2 18//30 88//31
f 1//2 88//31 79//1
f 63//32 21//4 3//29
f 64//33 63//32 3//29
f 1//2 79//1 77//1
f 88//31 87//34 86//33
f 79//1 88//31 86//33
f 87//34 16//35 86//33
f 16//35 15//25 86//33
f 86//33 14//36 13//37
f 65//1 64//33 3//29
f 66//1 65//1 3//29
f 86//33 13//37 80//38
f 13//37 12//27 82//39
f 12//27 85//40 84//1
f 84//1 83//1 12//27
f 83//1 82//39 12//27
f 67//1 66//1 70//33
f 66//1 3//29 71//1
f 70//33 66//1 71//1
f 69//41 68//42 70//33
f 68//42 67//1 70//33
f 13//37 82//39 81//39
f 13//37 81//39 80//38
f 79//1 78//43 77//1
f 86//33 80//38 79//1
f 72//1 71//1 1//2
f 74//33 73//31 72//1
f 77//1 76//1 1//2
f 76//1 75//1 1//2
f 75//1 74//33 72//1
f 7//44 2//13 161//45
f 2//13 11//46 161//45
f 11//46 10//47 161//45
f 10//47 1//2 164//3
f 163//48 10//47 164//3
f 1//2 3//29 172//3
f 3//29 4//10 185//3
f 184//3 3//29 185//3
f 4//10 6//18 186//49
f 186//49 185//3 4//10
f 183//3 182//45 181//45
f 184//3 183//3 176//45
f 183//3 181//45 179//3
f 181//45 180//50 179//3
f 179//3 178//45 176//45
f 178//45 177//51 176//45
f 183//3 179//3 176//45
f 3//29 184//3 176//45
f 172//3 3//29 173//45
f 10//47 163//48 162//45
f 162//45 161//45 10//47
f 175//45 174//52 173//45
f 176//45 175//45 3//29
f 166//3 165//53 164//3
f 175//45 173//45 3//29
f 166//3 164//3 169//3
f 164//3 1//2 169//3
f 168//54 167//45 169//3
f 167//45 166//3 169//3
f 1//2 172//3 171//45
f 1//2 171//45 170//3
f 19//55 3//29 190//56
f 3//29 21//4 196//6
f 19//55 190//56 187//57
f 205//56 204//58 203//56
f 191//56 3//29 192//56
f 189//59 188//56 190//56
f 188//56 187//57 190//56
f 205//56 203//56 202//60
f 202//60 201//56 205//56
f 201//56 200//61 198//60
f 200//61 199//62 198//60
f 201//56 198//60 205//56
f 21//4 205//56 197//5
f 191//56 190//56 3//29
f 193//56 192//56 3//29
f 196//6 195//63 194//64
f 194//64 193//56 3//29
f 194//64 3//29 196//6
f 205//56 198//60 197//5
f 17//11 4//10 93//8
f 4//10 3//29 99//8
f 94//8 4//10 99//8
f 3//29 19//55 126//8
f 126//8 125//8 104//8
f 125//8 124//8 105//8
f 124//8 123//65 105//8
f 123//65 122//65 106//8
f 105//8 123//65 106//8
f 122//65 121//8 119//8
f 121//8 120//65 119//8
f 125//8 105//8 104//8
f 91//66 17//11 92//67
f 4//10 94//8 93//8
f 93//8 92//67 17//11
f 96//65 95//68 94//8
f 3//29 126//8 103//69
f 122//65 119//8 106//8
f 97//8 96//65 99//8
f 96//65 94//8 99//8
f 99//8 98//70 97//8
f 101//71 100//72 102//65
f 100//72 99//8 102//65
f 119//8 118//8 107//7
f 102//65 99//8 3//29
f 116//8 115//8 113//8
f 115//8 114//8 113//8
f 113//8 112//8 116//8
f 112//8 111//8 116//8
f 111//8 110//65 109//71
f 111//8 109//71 117//8
f 117//8 116//8 111//8
f 109//71 108//8 117//8
f 108//8 107//7 118//8
f 117//8 108//8 118//8
f 103//69 102//65 3//29
f 104//8 103//69 126//8
f 22//9 9//17 4//10
f 62//12 11//46 2//13
f 1//2 10//47 61//73
f 1//2 61//73 60//74
f 23//16 20//75 30//76
f 20//75 1//2 32//16
f 30//76 20//75 31//77
f 26//78 25//15 28//16
f 25//15 24//15 28//16
f 24//15 23//16 30//76
f 1//2 60//74 59//16
f 59//16 58//16 56//16
f 58//16 57//16 56//16
f 56//16 55//16 1//2
f 59//16 56//16 1//2
f 54//16 53//79 52//16
f 28//16 27//80 26//78
f 30//76 29//16 24//15
f 29//16 28//16 24//15
f 1//2 55//16 54//16
f 52//16 51//16 46//16
f 51//16 50//78 46//16
f 1//2 54//16 52//16
f 31//77 20//75 32//16
f 50//78 49//81 48//78
f 1//2 52//16 32//16
f 50//78 48//78 47//16
f 46//16 50//78 47//16
f 33//78 32//16 52//16
f 34//16 33//78 46//16
f 33//78 52//16 46//16
f 46//16 45//16 34//16
f 45//16 44//16 35//15
f 35//15 34//16 45//16
f 37//16 36//16 43//16
f 36//16 35//15 44//16
f 43//16 36//16 44//16
f 40//15 39//82 38//16
f 38//16 37//16 43//16
f 43//16 42//16 38//16
f 42//16 41//16 38//16
f 2//13 7//44 90//19
f 90//19 89//83 5//20
f 20//75 147//84 143//85
f 147//84 146//22 143//85
f 146//22 145//86 144//22
f 146//22 144//22 143//85
f 148//22 18//30 150//22
f 18//30 1//2 131//84
f 150//22 149//87 148//22
f 127//22 151//22 129//86
f 151//22 150//22 130//22
f 129//86 128//86 127//22
f 130//22 129//86 151//22
f 130//22 18//30 131//84
f 20//75 143//85 142//22
f 18//30 130//22 150//22
f 1//2 20//75 142//22
f 1//2 142//22 141//84
f 132//84 131//84 1//2
f 135//22 134//88 133//89
f 133//89 132//84 1//2
f 1//2 141//84 140//22
f 140//22 139//22 137//22
f 139//22 138//86 137//22
f 137//22 136//21 140//22
f 135//22 133//89 140//22
f 133//89 1//2 140//22
f 15//25 16//35 158//23
f 158//23 157//23 156//24
f 12//27 13//37 155//26
f 155//26 154//90 153//26
f 153//26 152//91 12//27
f 2//13 5//20 160//28
f 160//28 159//28 2//13
