# Blender v2.81 (sub 16) OBJ File: ''
# www.blender.org
mtllib Syria.mtl
o 0_Syria.002_sphere.001
v 2.999265 3.002100 -2.644202
v 3.116795 2.938925 -2.578431
v 3.151980 2.875025 -2.607539
v 3.186386 2.810416 -2.636002
v 3.196248 2.938925 -2.479258
v 3.232329 2.875025 -2.507246
v 3.267612 2.810416 -2.534614
v 3.302090 2.745113 -2.561357
v 3.309489 2.875025 -2.404479
v 3.380915 2.745113 -2.456372
v 3.039983 2.938925 -2.668366
v 3.328371 2.841256 -2.418197
v 3.142292 3.002100 -2.471984
v 3.318726 2.712506 -2.574262
v 3.362652 2.778898 -2.443103
v 3.368745 2.767626 -2.447530
v 3.371047 2.763368 -2.449203
v 3.313476 2.875025 -2.398806
v 3.320724 2.810416 -2.463876
v 3.263663 2.745113 -2.609321
v 3.407338 2.694532 -2.475570
v 3.087970 2.989575 -2.554585
v 3.077582 2.875025 -2.694647
v 2.963008 3.002100 -2.684048
v 3.257964 2.938925 -2.397060
v 3.257817 2.938925 -2.397256
v 3.165044 2.992390 -2.455054
v 3.201847 2.780386 -2.648792
v 3.147347 2.810416 -2.681710
v 3.053720 3.002100 -2.580443
v 3.014781 2.974095 -2.657881
v 2.992220 3.014406 -2.637991
v 3.387762 2.745113 -2.446630
v 3.372233 2.679133 -2.538884
v 3.399739 2.679133 -2.502250
v 3.276888 2.931415 -2.380792
v 3.080526 2.869753 -2.696810
v 3.088868 2.853785 -2.704033
v 3.090417 2.851183 -2.704988
v 3.100760 2.839880 -2.704905
v 3.112846 2.826722 -2.704755
v 3.116873 2.823659 -2.703299
v 3.130457 2.819660 -2.691649
v 3.148077 2.810019 -2.681264
v 3.167647 2.799167 -2.669513
v 3.185451 2.789381 -2.658735
v 3.306738 2.883824 -2.397459
v 3.304688 2.889136 -2.393775
v 3.302675 2.892772 -2.392121
v 3.300362 2.897727 -2.389255
v 3.299800 2.908431 -2.376753
v 3.285284 2.928181 -2.372864
v 3.280384 2.932947 -2.373914
v 3.277570 2.932528 -2.378438
v 3.329354 2.841237 -2.416821
v 3.323635 2.857190 -2.405786
v 3.320216 2.864113 -2.402330
v 3.315640 2.872104 -2.399237
v 3.386611 2.747245 -2.445790
v 3.384414 2.750136 -2.445558
v 3.381238 2.754639 -2.444843
v 3.378015 2.757077 -2.446597
v 3.376130 2.759641 -2.446299
v 3.373078 2.762130 -2.447752
v 3.369435 2.768543 -2.445482
v 3.368894 2.771787 -2.442483
v 3.365275 2.776484 -2.442176
v 3.363754 2.777946 -2.442640
v 3.407036 2.698647 -2.471378
v 3.407822 2.702122 -2.466358
v 3.411587 2.703586 -2.459358
v 3.409166 2.707071 -2.458889
v 3.403769 2.712966 -2.459948
v 3.397982 2.719414 -2.460943
v 3.397477 2.722932 -2.457712
v 3.396329 2.725927 -2.455983
v 3.394577 2.729565 -2.454391
v 3.391158 2.733023 -2.455373
v 3.389724 2.737195 -2.452729
v 3.388793 2.741352 -2.449385
v 3.388626 2.743442 -2.447277
v 3.249585 2.950799 -2.393615
v 3.246282 2.953051 -2.395243
v 3.243248 2.954227 -2.397837
v 3.239469 2.954469 -2.402573
v 3.235941 2.955148 -2.406435
v 3.234526 2.957217 -2.405777
v 3.230821 2.970848 -2.393946
v 3.228394 2.974286 -2.392950
v 3.218197 2.987947 -2.389727
v 3.213670 2.993315 -2.389153
v 3.211373 2.995077 -2.390045
v 3.206833 2.994372 -2.396959
v 3.201319 2.991953 -2.407278
v 3.201825 2.988023 -2.411438
v 3.200484 2.984533 -2.417517
v 3.195254 2.984787 -2.424171
v 3.189760 2.984133 -2.432293
v 3.185262 2.983929 -2.438534
v 3.180130 2.986455 -2.442263
v 3.169133 2.991105 -2.451190
v 3.274092 2.926892 -2.389899
v 3.272861 2.927097 -2.391295
v 3.266602 2.934387 -2.390955
v 3.263178 2.936881 -2.392547
v 3.319516 2.811745 -2.463955
v 3.314576 2.826943 -2.453042
v 3.315355 2.829341 -2.449246
v 3.317600 2.831438 -2.443842
v 3.319419 2.831793 -2.441010
v 3.319024 2.832775 -2.440407
v 3.314191 2.836630 -2.442407
v 3.310456 2.839910 -2.443606
v 3.310785 2.843139 -2.439451
v 3.313692 2.844678 -2.433809
v 3.316941 2.841372 -2.433285
v 3.321946 2.841106 -2.426926
v 3.369666 2.764136 -2.450186
v 3.368246 2.765764 -2.450268
v 3.368050 2.766755 -2.449426
v 3.361119 2.780215 -2.443680
v 3.356088 2.783624 -2.446587
v 3.353269 2.784219 -2.449679
v 3.351113 2.784194 -2.452579
v 3.347631 2.783879 -2.457566
v 3.345172 2.783185 -2.461613
v 3.343954 2.784100 -2.462219
v 3.343444 2.785238 -2.461632
v 3.345398 2.788107 -2.455836
v 3.344364 2.790395 -2.454668
v 3.342218 2.792761 -2.454894
v 3.337677 2.796598 -2.456672
v 3.333233 2.799376 -2.459500
v 3.331466 2.799834 -2.461343
v 3.325073 2.805477 -2.463579
v 3.321732 2.710595 -2.572314
v 3.333179 2.703435 -2.564767
v 3.349994 2.692961 -2.553634
v 3.364877 2.683693 -2.543778
v 3.400674 2.683243 -2.496584
v 3.402081 2.686018 -2.491726
v 3.407636 2.688922 -2.481206
v 3.382380 2.672757 -2.531991
v 3.395718 2.676070 -2.510785
v 3.399474 2.678026 -2.503753
v 2.946689 3.015437 -2.686861
v 2.948436 3.013054 -2.687642
v 2.957641 3.006123 -2.685384
v 2.986343 3.015206 -2.643543
v 2.974266 3.017636 -2.654060
v 2.966363 3.019731 -2.660370
v 2.956336 3.023128 -2.667537
v 2.948026 3.028877 -2.670151
v 2.946084 3.029450 -2.671637
v 2.944593 3.028396 -2.674469
v 2.943849 3.027991 -2.675747
v 2.943607 3.024731 -2.679708
v 2.946173 3.016359 -2.686382
v 2.970059 2.996715 -2.682207
v 2.978510 2.990751 -2.679464
v 2.992808 2.980684 -2.674798
v 3.000460 2.978617 -2.668657
v 3.013463 2.975036 -2.658297
v 3.164072 2.992694 -2.455909
v 3.159055 2.994644 -2.459867
v 3.137671 3.001460 -2.478509
v 3.134845 3.000467 -2.483209
v 3.132955 2.999247 -2.487010
v 3.130043 2.994102 -2.496721
v 3.128218 2.988887 -2.505158
v 3.125682 2.987358 -2.510130
v 3.119515 2.987483 -2.517680
v 3.111216 2.986515 -2.529183
v 3.100270 2.986659 -2.542676
v 3.093074 2.988170 -2.549873
v 3.204120 2.779098 -2.647331
v 3.223168 2.768218 -2.635179
v 3.236843 2.760414 -2.626449
v 3.255077 2.750122 -2.614687
v 3.271913 2.740240 -2.604056
v 3.288929 2.730207 -2.593176
v 3.301853 2.722639 -2.584859
v 3.038029 3.009431 -2.590201
v 3.022918 3.015593 -2.600653
v 3.017511 3.016340 -2.606107
v 3.010990 3.016435 -2.613629
v 3.005414 3.014876 -2.621991
v 2.998665 3.013825 -2.631128
v 2.995208 3.013953 -2.635025
v 3.018298 2.971522 -2.656688
v 3.024144 2.965780 -2.656372
v 3.030010 2.958014 -2.658335
v 3.033197 2.953104 -2.660188
v 3.038496 2.944041 -2.664289
v 3.083392 2.990719 -2.558642
v 3.064998 2.996744 -2.573328
v 3.041201 2.934537 -2.671767
v 3.043695 2.925408 -2.678892
v 3.046622 2.919360 -2.682119
v 3.050073 2.913377 -2.684661
v 3.055829 2.907006 -2.684931
v 3.063074 2.898215 -2.686120
v 3.069890 2.888296 -2.689053
vn 0.5999 0.6004 -0.5289
vn 0.6045 0.6066 -0.5163
vn 0.6045 0.6066 -0.5162
vn 0.6392 0.5877 -0.4959
vn 0.6278 0.5941 -0.5029
vn 0.6277 0.5940 -0.5030
vn 0.6234 0.5877 -0.5157
vn 0.6465 0.5749 -0.5014
vn 0.6304 0.5749 -0.5215
vn 0.6373 0.5620 -0.5272
vn 0.6535 0.5620 -0.5069
vn 0.6432 0.5941 -0.4830
vn 0.6432 0.5940 -0.4830
vn 0.6506 0.5814 -0.4885
vn 0.6619 0.5750 -0.4809
vn 0.6578 0.5685 -0.4940
vn 0.6578 0.5686 -0.4939
vn 0.6579 0.5685 -0.4939
vn 0.6649 0.5555 -0.4993
vn 0.6650 0.5555 -0.4992
vn 0.6648 0.5556 -0.4993
vn 0.6656 0.5815 -0.4678
vn 0.6700 0.5739 -0.4708
vn 0.6803 0.5555 -0.4781
vn 0.6762 0.5490 -0.4913
vn 0.6255 0.5685 -0.5343
vn 0.6256 0.5685 -0.5343
vn 0.6321 0.5563 -0.5394
vn 0.6267 0.5665 -0.5351
vn 0.6656 0.5685 -0.4835
vn 0.6731 0.5685 -0.4730
vn 0.6803 0.5555 -0.4780
vn 0.6804 0.5555 -0.4779
vn 0.6702 0.5556 -0.4920
vn 0.6873 0.5424 -0.4831
vn 0.6873 0.5424 -0.4830
vn 0.6718 0.5424 -0.5044
vn 0.6785 0.5292 -0.5094
vn 0.6785 0.5291 -0.5095
vn 0.6731 0.5400 -0.5053
vn 0.5880 0.6066 -0.5350
vn 0.5949 0.5941 -0.5414
vn 0.5950 0.5940 -0.5413
vn 0.6489 0.5555 -0.5199
vn 0.6556 0.5424 -0.5253
vn 0.6501 0.5532 -0.5208
vn 0.6604 0.5490 -0.5123
vn 0.6116 0.5941 -0.5224
vn 0.6075 0.5941 -0.5272
vn 0.6187 0.5814 -0.5284
vn 0.6188 0.5814 -0.5283
vn 0.6186 0.5813 -0.5285
vn 0.6106 0.5960 -0.5215
vn 0.5956 0.6067 -0.5265
vn 0.6045 0.6067 -0.5161
vn 0.6044 0.6066 -0.5163
vn 0.6185 0.5941 -0.5142
vn 0.6278 0.5940 -0.5029
vn 0.6277 0.5941 -0.5030
vn 0.6341 0.5942 -0.4948
vn 0.6278 0.5938 -0.5032
vn 0.6278 0.5940 -0.5030
vn 0.6483 0.5857 -0.4864
vn 0.6433 0.5941 -0.4830
vn 0.6429 0.5941 -0.4834
vn 0.6433 0.5940 -0.4830
vn 0.6507 0.5858 -0.4831
vn 0.6506 0.5814 -0.4886
vn 0.6608 0.5814 -0.4746
vn 0.6507 0.5814 -0.4885
vn 0.6624 0.5602 -0.4973
vn 0.6579 0.5685 -0.4940
vn 0.6578 0.5684 -0.4940
vn 0.6578 0.5687 -0.4939
vn 0.6650 0.5554 -0.4991
vn 0.6699 0.5556 -0.4925
vn 0.6649 0.5555 -0.4992
vn 0.6650 0.5554 -0.4993
vn 0.6649 0.5556 -0.4992
vn 0.6686 0.5555 -0.4943
vn 0.6656 0.5814 -0.4678
vn 0.6657 0.5813 -0.4678
vn 0.6656 0.5813 -0.4678
vn 0.6654 0.5817 -0.4677
vn 0.6838 0.5491 -0.4806
vn 0.6802 0.5555 -0.4782
vn 0.6803 0.5556 -0.4780
vn 0.6803 0.5554 -0.4782
vn 0.6256 0.5686 -0.5342
vn 0.6256 0.5684 -0.5343
vn 0.6254 0.5685 -0.5343
vn 0.6220 0.5751 -0.5313
vn 0.6435 0.5556 -0.5266
vn 0.6323 0.5555 -0.5400
vn 0.6730 0.5685 -0.4730
vn 0.6731 0.5685 -0.4731
vn 0.6732 0.5684 -0.4730
vn 0.6803 0.5553 -0.4783
vn 0.6872 0.5425 -0.4830
vn 0.6874 0.5423 -0.4830
vn 0.6747 0.5424 -0.5005
vn 0.6873 0.5425 -0.4830
vn 0.6874 0.5423 -0.4831
vn 0.6735 0.5392 -0.5056
vn 0.6668 0.5424 -0.5110
vn 0.5898 0.6033 -0.5367
vn 0.5879 0.6066 -0.5350
vn 0.5873 0.6069 -0.5354
vn 0.5879 0.6067 -0.5350
vn 0.5879 0.6068 -0.5349
vn 0.5880 0.6066 -0.5351
vn 0.5881 0.6067 -0.5348
vn 0.5952 0.5940 -0.5412
vn 0.5950 0.5940 -0.5414
vn 0.6159 0.5864 -0.5260
vn 0.6117 0.5941 -0.5224
vn 0.6117 0.5940 -0.5224
vn 0.6187 0.5813 -0.5284
usemtl None
s 1
f 1//1 188//2 187//3
f 5//4 171//5 170//6
f 2//7 6//8 3//9
f 4//10 6//8 7//11
f 95//12 94//12 93//13
f 103//14 102//14 9//15
f 112//16 111//17 109//18
f 123//19 121//20 120//21
f 47//22 18//23 9//15
f 61//24 60//24 10//25
f 37//26 3//9 43//27
f 44//28 29//29 4//10
f 12//30 9//15 56//31
f 66//32 65//33 16//34
f 10//25 78//35 74//36
f 139//37 10//25 141//37
f 144//38 143//39 34//40
f 150//41 149//41 1//1
f 160//42 159//43 1//1
f 177//44 176//44 4//10
f 180//45 20//46 8//47
f 190//48 31//49 1//1
f 201//50 200//51 199//52
f 30//53 1//1 183//2
f 1//1 32//54 189//2
f 1//1 189//2 188//2
f 184//55 183//2 185//2
f 186//56 185//2 1//1
f 1//1 185//2 183//2
f 187//3 186//56 1//1
f 5//4 2//7 171//5
f 2//7 22//57 175//5
f 2//7 175//5 174//58
f 164//59 27//60 5//4
f 166//6 13//5 165//58
f 165//58 164//59 5//4
f 2//7 174//58 173//58
f 173//58 172//5 2//7
f 172//5 171//5 2//7
f 166//6 165//58 167//58
f 165//58 5//4 170//6
f 168//61 167//58 169//62
f 169//62 167//58 165//58
f 170//6 169//62 165//58
f 2//7 5//4 6//8
f 4//10 3//9 6//8
f 26//63 5//4 86//64
f 5//4 27//60 101//12
f 99//12 5//4 100//64
f 101//12 100//64 5//4
f 83//65 82//13 84//13
f 82//13 26//63 84//13
f 85//12 84//13 26//63
f 86//64 85//12 26//63
f 5//4 99//12 98//64
f 98//64 97//64 87//66
f 97//64 96//13 87//66
f 5//4 98//64 86//64
f 89//66 88//66 87//66
f 90//12 89//66 95//12
f 89//66 87//66 96//13
f 95//12 89//66 96//13
f 87//66 86//64 98//64
f 91//12 90//12 93//13
f 93//13 90//12 95//12
f 93//13 92//66 91//12
f 9//15 6//8 103//14
f 6//8 5//4 26//63
f 26//63 25//67 105//68
f 6//8 26//63 103//14
f 102//14 36//69 9//15
f 105//68 104//70 26//63
f 104//70 103//14 26//63
f 19//71 7//11 106//17
f 7//11 6//8 107//18
f 106//17 7//11 107//18
f 6//8 9//15 114//18
f 9//15 12//30 117//18
f 115//72 9//15 117//18
f 117//18 116//73 115//72
f 9//15 115//72 114//18
f 108//18 107//18 113//18
f 107//18 6//8 113//18
f 111//17 110//74 109//18
f 109//18 108//18 112//16
f 112//16 108//18 113//18
f 6//8 114//18 113//18
f 10//25 8//47 126//20
f 8//47 7//11 135//19
f 10//25 118//75 17//76
f 7//11 19//71 135//19
f 134//19 133//19 128//19
f 133//19 132//77 128//19
f 135//19 134//19 127//78
f 127//78 134//19 128//19
f 118//75 10//25 119//19
f 119//19 10//25 126//20
f 132//77 131//77 128//19
f 131//77 130//21 129//79
f 128//19 131//77 129//79
f 126//20 8//47 127//78
f 15//80 16//34 120//21
f 120//21 119//19 124//19
f 135//19 127//78 8//47
f 121//20 15//80 120//21
f 123//19 122//19 121//20
f 125//20 124//19 119//19
f 124//19 123//19 120//21
f 126//20 125//20 119//19
f 9//15 36//69 49//81
f 36//69 54//81 52//82
f 54//81 53//82 52//82
f 52//82 51//82 36//69
f 51//82 50//83 36//69
f 49//81 48//84 47//22
f 50//83 49//81 36//69
f 9//15 49//81 47//22
f 33//85 10//25 59//86
f 10//25 17//76 62//24
f 59//86 10//25 60//24
f 17//76 64//87 62//24
f 64//87 63//88 62//24
f 62//24 61//24 10//25
f 4//10 29//29 3//9
f 29//29 43//27 3//9
f 43//27 42//89 41//27
f 41//27 40//26 43//27
f 40//26 39//90 38//91
f 43//27 40//26 37//26
f 38//91 37//26 40//26
f 37//26 23//92 3//9
f 4//10 28//93 46//94
f 46//94 45//94 4//10
f 45//94 44//28 4//10
f 9//15 18//23 58//95
f 58//95 57//96 9//15
f 57//96 56//31 9//15
f 56//31 55//97 12//30
f 16//34 15//80 68//24
f 68//24 67//98 16//34
f 67//98 66//32 16//34
f 10//25 33//85 80//36
f 33//85 81//99 80//36
f 69//100 21//101 74//36
f 21//101 10//25 74//36
f 72//36 71//102 70//36
f 70//36 69//100 74//36
f 10//25 80//36 79//36
f 78//35 77//103 76//102
f 10//25 79//36 78//35
f 73//36 72//36 70//36
f 76//102 75//36 78//35
f 75//36 74//36 78//35
f 74//36 73//36 70//36
f 35//104 34//40 140//37
f 34//40 139//37 140//37
f 139//37 138//37 10//25
f 138//37 137//37 8//47
f 137//37 136//37 8//47
f 136//37 14//105 8//47
f 8//47 10//25 138//37
f 10//25 21//101 141//37
f 21//101 142//37 141//37
f 140//37 139//37 141//37
f 34//40 35//104 144//38
f 35//104 145//38 144//38
f 1//1 24//106 150//41
f 24//106 148//41 152//41
f 151//41 24//106 152//41
f 148//41 147//107 152//41
f 147//107 146//108 158//109
f 152//41 147//107 158//109
f 158//109 157//41 152//41
f 157//41 156//110 155//111
f 155//111 154//112 153//41
f 155//111 153//41 157//41
f 153//41 152//41 157//41
f 24//106 151//41 150//41
f 149//41 32//54 1//1
f 1//1 31//49 163//113
f 162//114 161//114 1//1
f 161//114 160//42 1//1
f 1//1 163//113 162//114
f 159//43 24//106 1//1
f 8//47 20//46 7//11
f 20//46 179//44 7//11
f 179//44 178//44 7//11
f 178//44 177//44 4//10
f 7//11 178//44 4//10
f 176//44 28//93 4//10
f 8//47 14//105 182//45
f 182//45 181//45 8//47
f 181//45 180//45 8//47
f 2//7 11//115 194//116
f 2//7 194//116 193//116
f 195//116 22//57 2//7
f 1//1 30//53 190//48
f 30//53 196//117 193//116
f 190//48 30//53 191//117
f 196//117 195//116 2//7
f 2//7 193//116 196//117
f 193//116 192//116 30//53
f 192//116 191//117 30//53
f 3//9 23//92 203//118
f 3//9 203//118 202//50
f 11//115 2//7 197//118
f 2//7 3//9 202//50
f 197//118 2//7 201//50
f 199//52 198//118 201//50
f 198//118 197//118 201//50
f 201//50 2//7 202//50
