# Blender v2.81 (sub 16) OBJ File: ''
# www.blender.org
mtllib The Bahamas.mtl
o 0_The_Bahamas.002_sphere.001
v 1.358920 1.801285 4.461158
v 1.351977 1.789909 4.467898
v 1.333885 1.787088 4.474607
v 1.313666 1.786629 4.481012
v 1.311753 1.789752 4.480337
v 1.311015 1.792483 4.479458
v 1.312043 1.796758 4.477411
v 1.311709 1.798438 4.476835
v 1.310682 1.800156 4.476455
v 1.317908 1.801941 4.473509
v 1.322143 1.807213 4.470072
v 1.329738 1.808074 4.467388
v 1.339716 1.804341 4.465829
v 1.344857 1.804182 4.464312
v 1.352044 1.808267 4.460448
v 1.357155 1.817097 4.455301
v 1.360939 1.815966 4.454595
v 1.360738 1.807248 4.458185
vn 0.2745 0.3606 0.8914
vn 0.2743 0.3608 0.8914
vn 0.2742 0.3608 0.8914
vn 0.2732 0.3609 0.8917
vn 0.2745 0.3609 0.8913
vn 0.2743 0.3607 0.8914
usemtl None
s 1
f 8//1 7//2 10//3
f 17//3 16//3 18//3
f 16//3 15//3 18//3
f 2//3 1//3 14//3
f 1//3 18//3 15//3
f 14//3 1//3 15//3
f 4//2 3//3 10//3
f 3//3 2//3 13//2
f 13//2 2//3 14//3
f 6//4 5//5 7//2
f 5//5 4//2 7//2
f 13//2 12//3 3//3
f 12//3 11//3 10//3
f 12//3 10//3 3//3
f 4//2 10//3 7//2
f 10//3 9//6 8//1
o 1_The_Bahamas.002_sphere.001
v 1.356554 1.828824 4.450740
v 1.354993 1.833551 4.449306
v 1.359833 1.837310 4.446296
v 1.366443 1.832837 4.446073
vn 0.2743 0.3609 0.8914
vn 0.2742 0.3609 0.8914
usemtl None
s 1
f 21//7 19//7 22//8
f 21//7 20//7 19//7
o 2_The_Bahamas.002_sphere.001
v 1.352879 1.906298 4.419269
v 1.355463 1.906397 4.418432
v 1.364573 1.903934 4.416673
v 1.370235 1.900609 4.416340
v 1.371592 1.899266 4.416492
v 1.369130 1.896267 4.418519
v 1.360340 1.901901 4.418837
v 1.353140 1.902638 4.420739
v 1.343205 1.902514 4.423848
v 1.339091 1.903589 4.424658
v 1.341035 1.909612 4.421508
v 1.347962 1.907474 4.420284
vn 0.2725 0.3754 0.8859
vn 0.2725 0.3753 0.8859
vn 0.2725 0.3752 0.8860
vn 0.2724 0.3753 0.8860
vn 0.2726 0.3754 0.8859
vn 0.2728 0.3754 0.8858
vn 0.2726 0.3753 0.8859
vn 0.2727 0.3753 0.8859
usemtl None
s 1
f 29//9 28//10 25//10
f 27//11 26//12 28//10
f 26//12 25//10 28//10
f 25//10 24//13 29//9
f 24//13 23//14 30//15
f 29//9 24//13 30//15
f 34//10 33//10 31//15
f 33//10 32//16 31//15
f 23//14 34//10 30//15
f 30//15 34//10 31//15
o 3_The_Bahamas.002_sphere.001
v 1.279241 1.913415 4.438582
v 1.283602 1.913415 4.437389
v 1.254519 1.887684 4.456148
v 1.255258 1.891874 4.454187
v 1.264957 1.899030 4.448530
v 1.270052 1.905284 4.444510
v 1.273091 1.907510 4.442744
v 1.274072 1.909239 4.441750
v 1.278407 1.911583 4.439580
v 1.276461 1.902135 4.444079
v 1.267735 1.897644 4.448352
v 1.259709 1.890121 4.453706
v 1.280226 1.915584 4.437361
v 1.279226 1.918839 4.436206
v 1.273801 1.924207 4.435334
v 1.273420 1.927991 4.433778
v 1.274762 1.930684 4.432229
v 1.282697 1.931965 4.429495
v 1.281027 1.927911 4.431732
v 1.285568 1.916496 4.435500
vn 0.2446 0.3753 0.8940
vn 0.2435 0.3854 0.8900
vn 0.2430 0.3898 0.8882
vn 0.2441 0.3803 0.8921
vn 0.2447 0.3753 0.8940
vn 0.2444 0.3754 0.8940
vn 0.2445 0.3754 0.8940
vn 0.2430 0.3899 0.8882
usemtl None
s 1
f 44//17 36//18 43//17
f 53//19 51//19 50//19
f 36//18 35//20 43//17
f 43//17 42//21 44//17
f 42//21 41//22 44//17
f 41//22 40//23 44//17
f 40//23 39//22 45//22
f 39//22 38//21 46//21
f 38//21 37//17 46//21
f 46//21 45//22 39//22
f 45//22 44//17 40//23
f 35//20 36//18 47//19
f 36//18 54//19 47//19
f 53//19 52//24 51//19
f 50//19 49//19 53//19
f 49//19 48//19 53//19
f 48//19 47//19 54//19
f 54//19 53//19 48//19
o 4_The_Bahamas.002_sphere.001
v 1.268603 1.929843 4.434282
v 1.264024 1.926590 4.436963
v 1.252404 1.930527 4.438414
v 1.249925 1.930256 4.439211
v 1.247239 1.934500 4.438083
v 1.246031 1.937639 4.437036
v 1.246227 1.940521 4.435717
v 1.253132 1.938318 4.434795
v 1.257189 1.934155 4.435512
v 1.266663 1.931263 4.434190
vn 0.2430 0.3898 0.8882
vn 0.2430 0.3899 0.8882
vn 0.2435 0.3898 0.8881
vn 0.2433 0.3898 0.8881
vn 0.2431 0.3898 0.8882
usemtl None
s 1
f 62//25 59//25 57//26
f 55//27 64//28 56//29
f 64//28 63//25 56//29
f 63//25 62//25 57//26
f 62//25 61//26 60//25
f 59//25 62//25 60//25
f 59//25 58//26 57//26
f 57//26 56//29 63//25
o 5_The_Bahamas.002_sphere.001
v 1.172305 1.985738 4.436092
v 1.175784 1.985738 4.435141
v 1.168240 1.991568 4.434533
v 1.163785 1.999068 4.432314
v 1.161923 2.000790 4.432034
v 1.160749 2.007068 4.429478
v 1.169507 1.997326 4.431547
v 1.173661 1.988681 4.434372
v 1.204127 1.942859 4.446208
v 1.192547 1.958916 4.442327
v 1.179826 1.962854 4.444079
v 1.172334 1.966757 4.444416
v 1.173572 1.968958 4.443111
v 1.178362 1.969886 4.441393
v 1.178630 1.974986 4.439081
v 1.175948 1.980464 4.437410
v 1.179746 1.980190 4.436492
v 1.184795 1.965501 4.441558
v 1.195172 1.960474 4.440926
v 1.203049 1.953375 4.441887
v 1.204380 1.944919 4.445234
vn 0.2414 0.4043 0.8822
vn 0.2419 0.3994 0.8842
vn 0.2430 0.3898 0.8882
vn 0.2431 0.3898 0.8882
vn 0.2429 0.3899 0.8882
vn 0.2424 0.3947 0.8862
vn 0.2412 0.4043 0.8822
vn 0.2413 0.4043 0.8822
vn 0.2416 0.4042 0.8821
vn 0.2430 0.3899 0.8882
vn 0.2427 0.3900 0.8883
vn 0.2427 0.3899 0.8882
usemtl None
s 1
f 67//30 65//31 72//30
f 82//32 79//33 78//34
f 65//31 66//35 72//30
f 72//30 71//36 67//30
f 71//36 70//30 68//37
f 70//30 69//38 68//37
f 68//37 67//30 71//36
f 66//35 65//31 80//34
f 66//35 80//34 81//39
f 80//34 79//33 81//39
f 82//32 81//39 79//33
f 84//32 83//39 74//39
f 83//39 82//32 74//39
f 73//40 85//41 74//39
f 85//41 84//32 74//39
f 76//32 75//32 77//32
f 75//32 74//39 82//32
f 77//32 75//32 78//34
f 78//34 75//32 82//32
o 6_The_Bahamas.002_sphere.001
v 1.132520 1.989220 4.445103
v 1.126482 1.991294 4.445610
v 1.111829 2.000951 4.444737
v 1.105423 2.001755 4.445910
v 1.106908 2.007243 4.443058
v 1.111912 2.005345 4.442720
v 1.123795 1.997029 4.443648
v 1.128399 1.992884 4.444427
v 1.135715 1.989702 4.444117
vn 0.2137 0.4043 0.8893
vn 0.2135 0.4043 0.8893
vn 0.2134 0.4042 0.8894
vn 0.2134 0.4043 0.8894
vn 0.2135 0.4042 0.8894
vn 0.2133 0.4044 0.8893
vn 0.2134 0.4043 0.8893
usemtl None
s 1
f 86//42 94//42 93//43
f 93//43 92//44 87//43
f 92//44 91//45 88//46
f 91//45 90//47 89//48
f 88//46 87//43 92//44
f 87//43 86//42 93//43
f 91//45 89//48 88//46
o 7_The_Bahamas.002_sphere.001
v 1.220215 2.030219 4.402599
v 1.216880 2.030950 4.403177
v 1.217444 2.041822 4.398039
v 1.221455 2.043523 4.396163
v 1.223125 2.043450 4.395740
v 1.225279 2.038866 4.397251
vn 0.2412 0.4043 0.8822
vn 0.2415 0.4043 0.8821
vn 0.2416 0.4045 0.8820
vn 0.2413 0.4044 0.8822
vn 0.2417 0.4043 0.8821
usemtl None
s 1
f 100//49 97//49 95//50
f 100//49 99//51 98//52
f 98//52 97//49 100//49
f 97//49 96//53 95//50
o 8_The_Bahamas.002_sphere.001
v 0.974682 2.051605 4.453976
v 0.967444 2.046556 4.457755
v 0.973396 2.042989 4.458132
v 0.977930 2.050807 4.453664
v 0.982743 2.044487 4.455520
v 0.986181 2.032595 4.460176
v 0.986011 2.030531 4.461143
v 0.986551 2.028742 4.461839
v 0.987594 2.026464 4.462651
v 0.988121 2.023170 4.464030
v 0.984810 2.012746 4.469421
v 0.969258 2.013728 4.472198
v 0.968084 2.022504 4.468480
v 0.965540 2.024176 4.468252
v 0.960800 2.036700 4.463579
v 0.955597 2.040712 4.462845
v 0.947958 2.051008 4.459780
v 0.951608 2.053685 4.457816
v 0.956856 2.052768 4.457142
v 0.959389 2.054021 4.456052
v 0.966474 2.055039 4.454125
v 0.970707 2.056472 4.452601
v 0.974391 2.053434 4.453210
vn 0.1855 0.4043 0.8956
vn 0.1855 0.4044 0.8956
vn 0.1854 0.4043 0.8956
vn 0.1856 0.4043 0.8956
vn 0.1853 0.4043 0.8956
vn 0.1856 0.4042 0.8956
vn 0.1858 0.4043 0.8955
vn 0.1854 0.4042 0.8956
vn 0.1855 0.4041 0.8957
vn 0.1854 0.4044 0.8956
usemtl None
s 1
f 123//54 122//55 121//54
f 110//55 109//56 113//57
f 109//56 108//58 113//57
f 107//56 106//59 103//54
f 106//59 105//57 103//54
f 108//58 107//56 113//57
f 112//56 111//54 113//57
f 111//54 110//55 113//57
f 115//54 114//60 103//54
f 114//60 113//57 103//54
f 105//57 104//54 103//54
f 117//61 116//54 119//56
f 116//54 115//54 102//54
f 113//57 107//56 103//54
f 102//54 101//54 121//54
f 101//54 123//54 121//54
f 103//54 102//54 115//54
f 116//54 102//54 119//56
f 119//56 118//62 117//61
f 121//54 120//63 102//54
f 120//63 119//56 102//54
o 9_The_Bahamas.002_sphere.001
v 1.144409 2.057570 4.410802
v 1.148506 2.057570 4.409682
v 1.130709 2.080007 4.403828
v 1.131490 2.073191 4.406871
v 1.128181 2.075745 4.406455
v 1.125928 2.080504 4.404739
v 1.118964 2.085624 4.403985
v 1.119980 2.088374 4.402437
v 1.121217 2.089031 4.401829
v 1.125688 2.087733 4.401371
v 1.157530 2.045422 4.412780
v 1.152277 2.046265 4.413831
v 1.144861 2.044717 4.416570
v 1.142127 2.044697 4.417326
v 1.143524 2.047459 4.415679
v 1.148381 2.051189 4.412640
v 1.148247 2.054767 4.411037
v 1.156560 2.049488 4.411182
v 1.141148 2.059943 4.410560
v 1.132091 2.072729 4.406928
v 1.137561 2.069404 4.407020
v 1.138403 2.067637 4.407634
vn 0.2119 0.4186 0.8831
vn 0.2120 0.4186 0.8831
vn 0.2160 0.4186 0.8821
vn 0.2412 0.4043 0.8822
vn 0.2414 0.4043 0.8822
vn 0.2394 0.4187 0.8760
vn 0.2395 0.4186 0.8760
vn 0.2396 0.4186 0.8760
vn 0.2317 0.4187 0.8780
vn 0.2112 0.4189 0.8831
vn 0.2408 0.4082 0.8805
vn 0.2400 0.4156 0.8773
vn 0.2412 0.4042 0.8822
vn 0.2412 0.4044 0.8822
vn 0.2410 0.4043 0.8823
vn 0.2413 0.4043 0.8822
vn 0.2413 0.4044 0.8821
usemtl None
s 1
f 129//64 128//65 126//66
f 136//67 135//68 139//68
f 143//69 142//70 145//71
f 127//72 126//66 128//65
f 126//66 133//65 129//64
f 133//65 132//64 130//65
f 132//64 131//73 130//65
f 130//65 129//64 133//65
f 125//74 124//75 140//76
f 139//68 138//77 136//67
f 138//77 137//78 136//67
f 125//74 140//76 141//79
f 140//76 139//68 141//79
f 134//80 141//79 135//68
f 135//68 141//79 139//68
f 124//75 125//74 142//70
f 125//74 145//71 142//70
f 145//71 144//70 143//69
f 144//70 126//66 143//69
f 126//66 127//72 143//69
o 10_The_Bahamas.002_sphere.001
v 0.987850 2.119516 4.419395
v 0.988468 2.113367 4.422162
v 0.993297 2.119602 4.418047
v 0.997625 2.117420 4.418042
v 0.998220 2.116462 4.418354
v 0.992426 2.114124 4.420853
v 0.983867 2.112475 4.423535
v 0.977460 2.114063 4.424114
v 0.975727 2.115357 4.423864
v 0.978184 2.117571 4.422313
v 0.983887 2.119414 4.420264
vn 0.2119 0.4186 0.8831
vn 0.1983 0.4187 0.8862
vn 0.2120 0.4186 0.8831
vn 0.1841 0.4186 0.8893
vn 0.1964 0.4187 0.8866
vn 0.1842 0.4187 0.8892
vn 0.2121 0.4189 0.8829
vn 0.2120 0.4188 0.8830
usemtl None
s 1
f 148//81 146//82 151//83
f 152//84 147//85 156//86
f 146//82 147//85 151//83
f 151//83 150//87 149//88
f 149//88 148//81 151//83
f 147//85 146//82 156//86
f 156//86 155//84 152//84
f 155//84 154//84 153//84
f 152//84 155//84 153//84
o 11_The_Bahamas.002_sphere.001
v 0.927923 2.128895 4.427391
v 0.943386 2.057570 4.457764
v 0.945356 2.057570 4.457356
v 0.943963 2.056378 4.458182
v 0.964928 2.080136 4.442680
v 0.966477 2.072966 4.445735
v 0.965945 2.070404 4.447051
v 0.957991 2.065575 4.450971
v 0.956084 2.062893 4.452628
v 0.948404 2.060166 4.455503
v 0.940978 2.062493 4.455945
v 0.935957 2.066275 4.455204
v 0.934556 2.072704 4.452468
v 0.931201 2.070540 4.454182
v 0.925946 2.071858 4.454650
v 0.917026 2.076719 4.454209
v 0.911072 2.083333 4.452328
v 0.918451 2.084467 4.450266
v 0.920382 2.080377 4.451792
v 0.925838 2.085404 4.448296
v 0.924237 2.088058 4.447378
v 0.923140 2.088398 4.447445
v 0.920738 2.093330 4.445621
v 0.928422 2.106285 4.437931
v 0.929541 2.114627 4.433772
v 0.924259 2.128002 4.428570
v 0.938384 2.124211 4.427430
v 0.943316 2.119597 4.428580
v 0.944071 2.113247 4.431413
v 0.948768 2.108345 4.432748
v 0.956006 2.096608 4.436774
v 0.964149 2.089750 4.438316
vn 0.1843 0.4131 0.8918
vn 0.1851 0.4043 0.8957
vn 0.1843 0.4154 0.8907
vn 0.1841 0.4186 0.8893
vn 0.1841 0.4187 0.8892
vn 0.1842 0.4183 0.8894
vn 0.1839 0.4187 0.8893
vn 0.1839 0.4186 0.8893
vn 0.1843 0.4186 0.8892
vn 0.1842 0.4186 0.8893
vn 0.1845 0.4185 0.8893
vn 0.1842 0.4185 0.8893
vn 0.1842 0.4187 0.8892
usemtl None
s 1
f 158//89 160//90 159//91
f 176//92 175//92 171//92
f 158//89 159//91 167//92
f 159//91 166//93 167//92
f 166//93 165//94 164//92
f 164//92 163//95 162//92
f 161//92 188//96 187//92
f 164//92 162//92 161//92
f 166//93 164//92 167//92
f 169//92 168//97 167//92
f 164//92 161//92 169//92
f 161//92 187//92 169//92
f 187//92 186//92 180//92
f 186//92 185//92 180//92
f 187//92 177//98 176//92
f 185//92 184//92 181//92
f 184//92 183//92 181//92
f 183//92 157//92 181//92
f 157//92 182//92 181//92
f 177//98 187//92 180//92
f 169//92 187//92 176//92
f 180//92 179//92 177//98
f 179//92 178//99 177//98
f 185//92 181//92 180//92
f 167//92 164//92 169//92
f 171//92 170//100 169//92
f 171//92 169//92 176//92
f 173//92 172//101 175//92
f 172//101 171//92 175//92
f 175//92 174//92 173//92
o 12_The_Bahamas.002_sphere.001
v 1.074379 2.128895 4.394176
v 1.078704 2.128895 4.393138
v 1.055701 2.142420 4.391982
v 1.066844 2.139071 4.390960
v 1.072391 2.130422 4.393899
v 1.065062 2.137554 4.392137
v 1.054790 2.139816 4.393486
v 1.044748 2.146927 4.392386
v 1.039118 2.147800 4.393307
v 1.032516 2.146538 4.395514
v 1.034490 2.150779 4.392947
v 1.035556 2.156355 4.389938
v 1.036676 2.157410 4.389148
v 1.042095 2.151294 4.390867
v 1.079754 2.127981 4.393319
v 1.085214 2.124022 4.393885
v 1.086512 2.120393 4.395293
v 1.086383 2.103792 4.403194
v 1.084849 2.093827 4.408286
v 1.086209 2.085074 4.412109
v 1.083178 2.087662 4.411610
v 1.079773 2.093383 4.409716
v 1.074870 2.096683 4.409328
v 1.073146 2.098392 4.408932
v 1.081292 2.098797 4.406784
v 1.081025 2.107803 4.402579
v 1.084230 2.114929 4.398431
v 1.082806 2.122319 4.395270
vn 0.2105 0.4328 0.8765
vn 0.2104 0.4328 0.8766
vn 0.2105 0.4328 0.8766
vn 0.2121 0.4186 0.8830
vn 0.2106 0.4294 0.8782
vn 0.2115 0.4221 0.8815
vn 0.2102 0.4328 0.8766
vn 0.2103 0.4328 0.8766
vn 0.2106 0.4329 0.8765
vn 0.2120 0.4186 0.8831
vn 0.2121 0.4186 0.8831
vn 0.2119 0.4186 0.8831
vn 0.2119 0.4187 0.8831
vn 0.2118 0.4187 0.8831
vn 0.2120 0.4187 0.8831
usemtl None
s 1
f 202//102 199//103 197//104
f 213//105 210//105 207//105
f 189//106 190//107 193//108
f 190//107 192//109 193//108
f 196//110 195//103 191//103
f 195//103 194//109 191//103
f 194//109 193//108 192//109
f 194//109 192//109 191//103
f 202//102 201//109 200//109
f 196//110 191//103 202//102
f 199//103 198//103 197//104
f 197//104 196//110 202//102
f 202//102 200//109 199//103
f 190//107 189//106 203//111
f 189//106 216//111 203//111
f 215//112 214//113 206//111
f 214//113 213//105 206//111
f 204//105 203//111 216//111
f 206//111 205//111 215//112
f 205//111 204//105 216//111
f 215//112 205//111 216//111
f 209//114 208//115 207//105
f 207//105 206//111 213//105
f 213//105 212//114 211//116
f 213//105 211//116 210//105
f 210//105 209//114 207//105
o 13_The_Bahamas.002_sphere.001
v 0.900252 2.246139 4.374709
v 0.905177 2.246449 4.373531
v 0.907971 2.248043 4.372139
v 0.921729 2.247418 4.369609
v 0.932519 2.249786 4.366166
v 0.934597 2.245639 4.367851
v 0.934547 2.243479 4.368964
v 0.911252 2.241401 4.374849
v 0.890293 2.235339 4.382283
v 0.878866 2.231236 4.386743
v 0.873357 2.230791 4.388111
v 0.868897 2.232983 4.387916
v 0.853435 2.245602 4.384678
v 0.857363 2.244341 4.384508
v 0.868569 2.237180 4.385842
v 0.874988 2.238450 4.383865
v 0.880580 2.243131 4.380318
v 0.881152 2.246695 4.378381
v 0.880087 2.248374 4.377745
v 0.882273 2.253981 4.374431
v 0.890763 2.248576 4.375431
vn 0.1814 0.4470 0.8759
vn 0.1816 0.4469 0.8759
vn 0.1815 0.4469 0.8759
vn 0.1814 0.4469 0.8760
vn 0.1813 0.4470 0.8760
vn 0.1814 0.4471 0.8759
vn 0.1813 0.4470 0.8759
vn 0.1814 0.4469 0.8759
vn 0.1815 0.4470 0.8759
vn 0.1823 0.4468 0.8758
usemtl None
s 1
f 232//117 231//118 228//119
f 222//117 221//120 220//117
f 220//117 219//117 224//117
f 219//117 218//121 224//117
f 218//121 217//117 224//117
f 223//122 222//117 220//117
f 224//117 223//122 220//117
f 227//123 226//123 232//117
f 226//123 225//124 233//124
f 232//117 226//123 233//124
f 225//124 224//117 217//117
f 237//117 236//125 234//118
f 236//125 235//126 234//118
f 225//124 217//117 237//117
f 228//119 227//123 232//117
f 230//117 229//117 228//119
f 231//118 230//117 228//119
f 225//124 237//117 233//124
f 237//117 234//118 233//124
o 14_The_Bahamas.002_sphere.001
v 0.980095 2.193920 4.384705
v 0.980121 2.193673 4.384820
v 0.987870 2.199694 4.379987
v 0.996341 2.199694 4.377954
v 0.973687 2.252935 4.356034
v 0.974326 2.247075 4.358891
v 0.979869 2.193759 4.384830
v 0.990691 2.204017 4.377089
v 0.989471 2.214367 4.372063
v 0.990887 2.220047 4.368804
v 0.989651 2.224960 4.366577
v 0.990924 2.229949 4.363707
v 0.987829 2.235610 4.361541
v 0.980406 2.240120 4.361006
v 0.976345 2.250219 4.356791
v 0.982174 2.247392 4.356844
v 0.984660 2.245589 4.357174
v 0.984617 2.243578 4.358218
v 0.985754 2.241684 4.358918
v 0.993327 2.238411 4.358782
v 1.001181 2.233132 4.359609
v 1.005029 2.217760 4.366585
v 0.996013 2.210537 4.372461
v 0.964716 2.257871 4.355373
v 0.942503 2.262072 4.357829
v 0.931242 2.262245 4.360073
v 0.937112 2.265093 4.357404
v 0.942873 2.264765 4.356379
v 0.951848 2.263113 4.355363
v 0.962456 2.262349 4.353556
v 0.969461 2.257140 4.354764
v 0.992909 2.183522 4.386763
v 0.985454 2.191438 4.384644
v 0.987617 2.199307 4.380239
v 0.996638 2.188218 4.383549
v 0.994420 2.184209 4.386061
vn 0.2021 0.4330 0.8784
vn 0.1822 0.4334 0.8826
vn 0.2003 0.4330 0.8788
vn 0.2087 0.4470 0.8698
vn 0.2088 0.4469 0.8698
vn 0.1814 0.4469 0.8759
vn 0.1813 0.4470 0.8759
vn 0.1814 0.4469 0.8760
vn 0.2104 0.4328 0.8766
vn 0.2099 0.4372 0.8745
vn 0.2096 0.4403 0.8730
vn 0.2089 0.4469 0.8698
vn 0.2088 0.4470 0.8698
vn 0.2089 0.4470 0.8698
vn 0.2086 0.4470 0.8698
vn 0.2086 0.4467 0.8700
vn 0.2090 0.4469 0.8698
vn 0.1873 0.4470 0.8747
vn 0.2035 0.4470 0.8711
vn 0.1815 0.4469 0.8760
vn 0.2107 0.4329 0.8765
vn 0.2105 0.4328 0.8766
usemtl None
s 1
f 238//127 244//128 239//129
f 251//130 250//131 256//130
f 262//132 261//133 266//134
f 271//135 238//127 270//135
f 240//136 241//137 245//138
f 241//137 260//139 245//138
f 260//139 259//139 247//131
f 259//139 258//130 249//139
f 247//131 259//139 248//140
f 258//130 257//131 249//139
f 257//131 256//130 250//131
f 249//139 257//131 250//131
f 255//141 254//142 253//131
f 256//130 255//141 251//130
f 255//141 253//131 251//130
f 252//143 242//144 243//145
f 253//131 252//143 243//145
f 247//131 246//139 260//139
f 246//139 245//138 260//139
f 249//139 248//140 259//139
f 243//145 251//130 253//131
f 243//145 242//144 261//133
f 242//144 268//133 261//133
f 268//133 267//133 261//133
f 267//133 266//134 261//133
f 266//134 265//133 262//132
f 265//133 264//146 262//132
f 264//146 263//146 262//132
f 238//127 239//129 270//135
f 270//135 269//147 273//148
f 273//148 272//135 270//135
f 272//135 241//137 271//135
f 270//135 272//135 271//135
f 241//137 240//136 271//135
