# Blender v2.81 (sub 16) OBJ File: ''
# www.blender.org
mtllib Tonga.mtl
o 0_Tonga.002_sphere.001
v -4.634991 -1.828350 0.412140
v -4.637469 -1.822728 0.408373
v -4.638505 -1.820131 0.408020
v -4.639636 -1.816378 0.412160
v -4.639660 -1.816143 0.413009
vn -0.9297 -0.3608 0.0731
vn -0.9298 -0.3607 0.0731
vn -0.9297 -0.3611 0.0731
vn -0.9296 -0.3613 0.0730
vn -0.9297 -0.3609 0.0731
usemtl None
s 1
f 2//1 1//2 5//3
f 5//3 4//4 2//1
f 4//4 3//5 2//1
o 1_Tonga.002_sphere.001
v -4.645293 -1.805411 0.394353
v -4.646125 -1.802992 0.395709
v -4.646115 -1.802126 0.400100
v -4.645164 -1.804692 0.399529
v -4.642396 -1.813072 0.393377
v -4.643957 -1.809781 0.389773
v -4.646873 -1.804423 0.379146
v -4.648640 -1.800287 0.377093
v -4.649567 -1.797148 0.380787
v -4.648623 -1.799670 0.380338
v -4.648042 -1.800811 0.382103
v -4.647389 -1.801261 0.388181
v -4.646083 -1.803533 0.393574
v -4.646064 -1.804273 0.390163
v -4.645388 -1.805400 0.393198
vn -0.9297 -0.3608 0.0732
vn -0.9297 -0.3608 0.0731
vn -0.9298 -0.3608 0.0732
vn -0.9298 -0.3607 0.0732
vn -0.9298 -0.3607 0.0733
vn -0.9298 -0.3606 0.0732
vn -0.9298 -0.3608 0.0731
vn -0.9298 -0.3605 0.0733
vn -0.9298 -0.3607 0.0731
usemtl None
s 1
f 11//6 20//7 19//8
f 8//6 7//6 9//6
f 7//6 6//9 9//6
f 11//6 10//9 6//9
f 10//9 9//6 6//9
f 13//10 12//6 15//11
f 12//6 11//6 19//8
f 16//12 12//6 19//8
f 15//11 14//13 13//10
f 18//14 17//9 19//8
f 17//9 16//12 19//8
f 16//12 15//11 12//6
f 11//6 6//9 20//7
o 2_Tonga.002_sphere.001
v -4.709482 -1.602758 0.495704
v -4.709671 -1.602683 0.494223
v -4.711010 -1.599844 0.490726
v -4.711787 -1.597942 0.489472
v -4.713094 -1.592177 0.495159
v -4.712930 -1.591730 0.498002
v -4.711875 -1.593647 0.501730
v -4.711344 -1.595306 0.501499
v -4.710767 -1.597851 0.498981
vn -0.9428 -0.3165 0.1040
vn -0.9429 -0.3164 0.1041
vn -0.9428 -0.3165 0.1041
vn -0.9430 -0.3160 0.1042
vn -0.9428 -0.3166 0.1040
vn -0.9428 -0.3167 0.1041
usemtl None
s 1
f 25//15 23//16 29//17
f 27//18 26//19 28//16
f 26//19 25//15 29//17
f 25//15 24//17 23//16
f 23//16 22//17 29//17
f 22//17 21//20 29//17
f 29//17 28//16 26//19
