# Blender v2.81 (sub 16) OBJ File: ''
# www.blender.org
mtllib Trinidad and Tobago.mtl
o 0_Trinidad_and_Tobago.002_sphere.001
v 2.366095 0.936904 4.303920
v 2.385241 0.936904 4.293000
v 2.371558 0.874849 4.313853
v 2.366075 0.937120 4.303883
v 2.360820 0.936904 4.306714
v 2.341529 0.873711 4.329988
v 2.328109 0.875443 4.336735
v 2.317999 0.874058 4.342374
v 2.335668 0.884599 4.330841
v 2.337477 0.889042 4.328965
v 2.345265 0.889894 4.324665
v 2.347390 0.891221 4.323266
v 2.347991 0.914445 4.318148
v 2.346468 0.919967 4.317812
v 2.344661 0.923005 4.318141
v 2.341284 0.925207 4.319474
v 2.333882 0.928196 4.322776
v 2.332543 0.929795 4.323154
v 2.336802 0.932360 4.320370
v 2.346303 0.933794 4.315042
v 2.353256 0.936593 4.310782
v 2.368033 0.937180 4.302752
v 2.374874 0.939613 4.298293
v 2.386797 0.940293 4.291337
v 2.373492 0.874922 4.312735
v 2.381866 0.929671 4.296446
v 2.379461 0.925704 4.298652
v 2.381385 0.916108 4.299572
v 2.380623 0.909594 4.301377
v 2.382921 0.901369 4.301795
v 2.386972 0.895944 4.300625
v 2.385115 0.890636 4.302801
v 2.385489 0.882584 4.304281
v 2.385142 0.879715 4.305081
vn 0.4732 0.1875 0.8608
vn 0.4727 0.1953 0.8593
vn 0.4602 0.1798 0.8694
vn 0.4602 0.1797 0.8694
vn 0.4599 0.1797 0.8696
vn 0.4603 0.1797 0.8694
vn 0.4864 0.1901 0.8528
vn 0.4856 0.1961 0.8519
vn 0.4874 0.1797 0.8545
vn 0.4874 0.1796 0.8545
vn 0.4735 0.1796 0.8622
vn 0.4603 0.1796 0.8694
vn 0.4599 0.1798 0.8695
vn 0.4604 0.1796 0.8693
vn 0.4604 0.1797 0.8693
vn 0.4604 0.1797 0.8694
vn 0.4859 0.1950 0.8520
vn 0.4859 0.1951 0.8519
vn 0.4870 0.1795 0.8547
vn 0.4875 0.1796 0.8544
vn 0.4871 0.1797 0.8546
usemtl None
s 1
f 1//1 4//2 5//3
f 12//4 11//5 6//6
f 2//7 22//8 1//1
f 32//9 30//10 3//11
f 1//1 5//3 13//6
f 5//3 21//12 14//6
f 14//6 21//12 20//12
f 20//12 19//6 16//4
f 19//6 18//13 17//3
f 16//4 19//6 17//3
f 14//6 20//12 15//14
f 6//6 3//11 12//4
f 3//11 1//1 13//6
f 12//4 3//11 13//6
f 9//6 8//15 7//16
f 20//12 16//4 15//14
f 9//6 7//16 6//6
f 11//5 10//4 9//6
f 11//5 9//6 6//6
f 5//3 14//6 13//6
f 2//7 24//17 23//18
f 22//8 4//2 1//1
f 2//7 23//18 22//8
f 1//1 3//11 29//9
f 3//11 25//19 32//9
f 29//9 3//11 30//10
f 25//19 34//20 33//9
f 32//9 31//21 30//10
f 25//19 33//9 32//9
f 26//9 2//7 1//1
f 29//9 28//9 1//1
f 28//9 27//9 1//1
f 27//9 26//9 1//1
o 1_Trinidad_and_Tobago.002_sphere.001
v 2.392043 0.968355 4.281921
v 2.392191 0.971770 4.281055
v 2.398718 0.977645 4.275988
v 2.409178 0.981597 4.269116
v 2.411942 0.981752 4.267505
v 2.410893 0.976474 4.269311
v 2.396014 0.969206 4.279461
vn 0.4860 0.1950 0.8519
vn 0.4859 0.1950 0.8520
vn 0.4859 0.1950 0.8519
vn 0.4858 0.1950 0.8520
vn 0.4859 0.1949 0.8520
vn 0.4860 0.1952 0.8519
usemtl None
s 1
f 41//22 40//23 37//24
f 39//25 38//26 40//23
f 38//26 37//24 40//23
f 37//24 36//22 41//22
f 36//22 35//27 41//22
