# Blender v2.81 (sub 16) OBJ File: ''
# www.blender.org
mtllib Tunisia.mtl
o 0_Tunisia.002_sphere.001
v 4.076916 2.787927 -0.777707
v 4.085425 2.774962 -0.779330
v 4.083242 2.775342 -0.788623
v 4.085245 2.773371 -0.785439
v 4.085754 2.773171 -0.783643
v 4.075026 2.788072 -0.786353
v 4.076961 2.782973 -0.793811
v 4.077619 2.781621 -0.795090
v 4.078495 2.780192 -0.795566
v 4.081017 2.777347 -0.792756
v 4.082638 2.775671 -0.790453
v 4.085330 2.775393 -0.778201
v 4.085693 2.775370 -0.776211
v 4.085123 2.776902 -0.773527
v 4.079404 2.785388 -0.773313
v 4.077691 2.787786 -0.773814
vn 0.8142 0.5555 -0.1686
vn 0.8167 0.5555 -0.1560
vn 0.8191 0.5556 -0.1429
vn 0.8193 0.5552 -0.1428
vn 0.8191 0.5555 -0.1428
vn 0.8160 0.5555 -0.1595
vn 0.8143 0.5553 -0.1688
vn 0.8142 0.5554 -0.1686
vn 0.8138 0.5560 -0.1687
vn 0.8143 0.5555 -0.1682
vn 0.8142 0.5556 -0.1685
vn 0.8191 0.5555 -0.1429
usemtl None
s 1
f 6//1 1//2 3//1
f 14//3 13//4 12//5
f 1//2 2//6 3//1
f 2//6 5//7 4//8
f 3//1 2//6 4//8
f 3//1 11//9 10//1
f 10//1 9//10 8//11
f 8//11 7//1 10//1
f 7//1 6//1 3//1
f 10//1 7//1 3//1
f 2//6 1//2 12//5
f 1//2 16//12 15//12
f 12//5 1//2 15//12
f 15//12 14//3 12//5
o 1_Tunisia.002_sphere.001
v 4.034039 2.844889 -0.793187
v 4.030584 2.849361 -0.794631
v 4.025407 2.854811 -0.801060
v 4.025919 2.853494 -0.803075
v 4.028329 2.850002 -0.803338
vn 0.8056 0.5685 -0.1669
vn 0.8055 0.5685 -0.1668
vn 0.8056 0.5683 -0.1671
vn 0.8055 0.5685 -0.1669
usemtl None
s 1
f 18//13 17//13 21//14
f 20//15 19//16 21//14
f 19//16 18//13 21//14
o 2_Tunisia.002_sphere.001
v 3.927604 3.002100 -0.749224
v 4.018294 2.875025 -0.766524
v 4.105016 2.745113 -0.783067
v 4.146866 2.679133 -0.791051
v 3.949199 3.002100 -0.625485
v 3.995286 2.938925 -0.632785
v 4.040388 2.875025 -0.639929
v 4.084491 2.810416 -0.646913
v 4.127587 2.745113 -0.653739
v 4.169667 2.679133 -0.660404
v 3.976787 2.938925 -0.738780
v 3.985317 2.922004 -0.760233
v 4.182588 2.658157 -0.662450
v 3.953227 3.002100 -0.597186
v 4.140707 2.745113 -0.561552
v 4.047179 2.875025 -0.592210
v 3.937893 3.017100 -0.623694
v 4.032600 2.853952 -0.769253
v 4.245265 2.545206 -0.704524
v 4.236806 2.545206 -0.752992
v 4.098196 2.745113 -0.816002
v 4.094671 2.760875 -0.781094
v 4.174394 2.679133 -0.627192
v 4.098006 2.810416 -0.551950
v 4.002538 2.938925 -0.581829
v 4.208268 2.612492 -0.680931
v 4.196175 2.612492 -0.750220
v 4.071311 2.810416 -0.722437
v 3.933581 3.002100 -0.714978
v 3.929358 3.002100 -0.739173
v 3.924808 3.005829 -0.748691
v 4.136661 2.679133 -0.840329
v 4.015256 2.875025 -0.781192
v 3.948200 2.973712 -0.753153
v 3.923188 3.002100 -0.770545
v 4.162675 2.653325 -0.794066
v 4.137990 2.749435 -0.560149
v 4.129876 2.762956 -0.553054
v 4.122692 2.775245 -0.545264
v 4.117492 2.783620 -0.542085
v 4.110625 2.794059 -0.540843
v 4.105443 2.801603 -0.541484
v 4.102906 2.804807 -0.544116
v 4.179915 2.665126 -0.650386
v 4.177144 2.672344 -0.637916
v 4.094703 2.814087 -0.557154
v 4.086121 2.825294 -0.562498
v 4.082132 2.829474 -0.570019
v 4.079014 2.832606 -0.576570
v 4.075718 2.836271 -0.581752
v 4.070944 2.842224 -0.586100
v 4.066109 2.848513 -0.589229
v 4.061340 2.855352 -0.589199
v 4.053728 2.866156 -0.589696
v 4.048213 2.873700 -0.591444
v 4.041407 2.882203 -0.596369
v 4.036958 2.888988 -0.593220
v 4.032193 2.896343 -0.589405
v 4.023087 2.909045 -0.588974
v 4.019544 2.914209 -0.587679
v 4.016672 2.918769 -0.584737
v 4.012889 2.924625 -0.581616
v 4.009458 2.929496 -0.581026
v 3.999983 2.942297 -0.582113
v 3.992661 2.951954 -0.582940
v 3.983049 2.964539 -0.584516
v 3.980600 2.968089 -0.583115
v 3.979010 2.970689 -0.580659
v 3.977903 2.973474 -0.573841
v 3.976702 2.975133 -0.573584
v 3.975123 2.976980 -0.575000
v 3.969274 2.983109 -0.583971
v 3.961965 2.992106 -0.588173
v 3.959946 2.994026 -0.592292
v 3.956613 2.997317 -0.598463
v 3.954105 3.000799 -0.597831
v 3.927124 3.018210 -0.680468
v 3.923920 3.021420 -0.684582
v 3.922488 3.023595 -0.683136
v 3.920385 3.026452 -0.682499
v 3.918869 3.026682 -0.690165
v 3.917997 3.026263 -0.697023
v 3.919068 3.023105 -0.704901
v 3.928111 3.011187 -0.705986
v 3.926462 3.004163 -0.746606
v 3.935138 3.019819 -0.627412
v 3.932136 3.022483 -0.632785
v 3.918140 3.032414 -0.668901
v 3.917790 3.031754 -0.673839
v 3.917978 3.030244 -0.679464
v 3.921071 3.026493 -0.678389
v 3.923705 3.023492 -0.676618
v 3.935112 2.999458 -0.717552
v 3.939855 2.993603 -0.715523
v 3.940942 2.990139 -0.724179
v 3.936602 2.994362 -0.730903
v 3.931463 3.000562 -0.733720
v 3.948353 2.973529 -0.753061
v 3.954026 2.968302 -0.743011
v 3.960372 2.961503 -0.735856
v 3.964320 2.956693 -0.733890
v 3.968552 2.951058 -0.733854
v 3.975455 2.941061 -0.737239
v 3.981661 2.930831 -0.744498
v 3.984828 2.924624 -0.752147
v 3.985008 2.922722 -0.759019
v 4.040213 2.844718 -0.762749
v 4.048714 2.835037 -0.752951
v 4.062620 2.820670 -0.731017
v 4.066875 2.815909 -0.725769
v 4.070882 2.810994 -0.722564
v 4.074594 2.805839 -0.721405
v 4.078505 2.799726 -0.722753
v 4.086959 2.784791 -0.732347
v 4.090919 2.775994 -0.743843
v 4.092197 2.771219 -0.755070
v 4.087608 2.773285 -0.773341
v 4.091494 2.767534 -0.773421
v 4.095794 2.760633 -0.775602
v 4.164412 2.651075 -0.792275
v 4.167648 2.647635 -0.786211
v 4.170701 2.644194 -0.781201
v 4.172855 2.640957 -0.780598
v 4.177320 2.634753 -0.777521
v 4.181199 2.629837 -0.773118
v 4.184819 2.627467 -0.760975
v 4.186141 2.625967 -0.758839
v 4.191707 2.618531 -0.753913
v 4.193932 2.615659 -0.751586
v 4.203187 2.621389 -0.677775
v 4.193671 2.638041 -0.671900
v 4.184092 2.654804 -0.665994
v 4.182869 2.657307 -0.663919
v 3.917233 3.013079 -0.757990
v 3.915122 3.013964 -0.764851
v 3.920289 3.006626 -0.767516
v 3.924402 3.000136 -0.771837
v 3.927041 2.997862 -0.767378
v 3.933294 2.990985 -0.762224
v 3.988816 2.912827 -0.775672
v 3.992963 2.906988 -0.776220
v 3.997384 2.900051 -0.779314
v 4.003130 2.891618 -0.781279
v 4.006759 2.884862 -0.787563
v 4.019326 2.870172 -0.778077
v 4.027879 2.859490 -0.773179
v 4.094193 2.760967 -0.783094
v 4.092465 2.762020 -0.787974
v 4.087203 2.768703 -0.791368
v 4.088389 2.764046 -0.800979
v 4.096646 2.749973 -0.807476
v 4.097945 2.745574 -0.815694
v 4.098814 2.743925 -0.816798
v 4.100059 2.742843 -0.814231
v 4.101548 2.741181 -0.812335
v 4.101793 2.740051 -0.814746
v 4.101372 2.738290 -0.822385
v 4.099756 2.739386 -0.826703
v 4.100226 2.736205 -0.834560
v 4.101480 2.734273 -0.834657
v 4.110790 2.720382 -0.833923
v 4.114090 2.715357 -0.833986
v 4.119533 2.706884 -0.834683
v 4.125984 2.696684 -0.836010
v 4.130252 2.688057 -0.842865
v 4.132635 2.684241 -0.843506
v 4.135842 2.679899 -0.841846
v 4.141135 2.674864 -0.831852
v 4.147954 2.668354 -0.818941
v 4.154154 2.662213 -0.807886
v 4.160967 2.655465 -0.795737
v 4.173783 2.680572 -0.624889
v 4.170015 2.689422 -0.610813
v 4.163174 2.700605 -0.607641
v 4.153349 2.717489 -0.599305
v 4.148348 2.726903 -0.591305
v 4.147155 2.729363 -0.588419
v 4.145278 2.735493 -0.573518
v 4.143572 2.740001 -0.564849
v 4.142223 2.742612 -0.562358
v 3.951551 3.004501 -0.595959
v 3.945875 3.008808 -0.612513
v 4.198211 2.609522 -0.748952
v 4.206902 2.593607 -0.754876
v 4.215664 2.577281 -0.761828
v 4.219531 2.570460 -0.763556
v 4.222899 2.564795 -0.764091
v 4.227030 2.558681 -0.761824
v 4.233398 2.549904 -0.756069
v 4.242641 2.549985 -0.702827
v 4.235784 2.562459 -0.698447
v 4.223757 2.584337 -0.690754
v 4.213523 2.602940 -0.684257
v 4.238050 2.543434 -0.751850
v 4.246393 2.531724 -0.743605
v 4.248511 2.528869 -0.741114
v 4.251576 2.525496 -0.734945
v 4.256350 2.520991 -0.722810
v 4.260180 2.516997 -0.714351
v 4.250749 2.534838 -0.708128
vn 0.7855 0.6004 -0.1498
vn 0.7831 0.6066 -0.1367
vn 0.7915 0.5954 -0.1381
vn 0.8015 0.5813 -0.1399
vn 0.7991 0.5877 -0.1266
vn 0.8081 0.5749 -0.1280
vn 0.8191 0.5555 -0.1429
vn 0.8255 0.5490 -0.1307
vn 0.8210 0.5490 -0.1566
vn 0.8339 0.5358 -0.1321
vn 0.8294 0.5358 -0.1582
vn 0.7898 0.6004 -0.1251
vn 0.7870 0.6066 -0.1120
vn 0.7908 0.6016 -0.1125
vn 0.7964 0.5940 -0.1133
vn 0.8055 0.5814 -0.1146
vn 0.8169 0.5620 -0.1294
vn 0.8144 0.5685 -0.1159
vn 0.8232 0.5555 -0.1172
vn 0.8214 0.5582 -0.1169
vn 0.8317 0.5424 -0.1184
vn 0.8401 0.5291 -0.1195
vn 0.8372 0.5292 -0.1378
vn 0.7924 0.5941 -0.1383
vn 0.7917 0.5943 -0.1417
vn 0.8104 0.5684 -0.1414
vn 0.8104 0.5685 -0.1414
vn 0.8359 0.5291 -0.1459
vn 0.8349 0.5291 -0.1514
vn 0.7797 0.6066 -0.1546
vn 0.7785 0.6066 -0.1612
vn 0.7877 0.5940 -0.1631
vn 0.7843 0.5987 -0.1624
vn 0.8001 0.5814 -0.1472
vn 0.8037 0.5749 -0.1533
vn 0.7967 0.5813 -0.1650
vn 0.8056 0.5685 -0.1668
vn 0.8142 0.5555 -0.1686
vn 0.8226 0.5424 -0.1703
vn 0.8225 0.5425 -0.1705
vn 0.8227 0.5424 -0.1704
vn 0.8309 0.5291 -0.1721
vn 0.8310 0.5289 -0.1721
vn 0.8394 0.5233 -0.1465
vn 0.8440 0.5157 -0.1473
vn 0.8519 0.5022 -0.1487
vn 0.8518 0.5023 -0.1487
vn 0.8518 0.5022 -0.1487
vn 0.8012 0.5818 -0.1397
vn 0.7983 0.5859 -0.1393
vn 0.8167 0.5555 -0.1562
vn 0.8191 0.5555 -0.1430
vn 0.8138 0.5635 -0.1420
vn 0.8191 0.5554 -0.1429
vn 0.7843 0.6066 -0.1299
vn 0.7870 0.6066 -0.1119
vn 0.8014 0.5871 -0.1140
vn 0.7963 0.5941 -0.1133
vn 0.7964 0.5940 -0.1135
vn 0.7964 0.5941 -0.1133
vn 0.7963 0.5942 -0.1129
vn 0.8114 0.5729 -0.1155
vn 0.8055 0.5813 -0.1146
vn 0.8057 0.5812 -0.1142
vn 0.8055 0.5813 -0.1148
vn 0.8145 0.5685 -0.1159
vn 0.8145 0.5684 -0.1159
vn 0.8144 0.5686 -0.1157
vn 0.8144 0.5686 -0.1160
vn 0.8270 0.5498 -0.1177
vn 0.8232 0.5555 -0.1171
vn 0.8232 0.5554 -0.1172
vn 0.8335 0.5396 -0.1186
vn 0.8319 0.5421 -0.1183
vn 0.8318 0.5423 -0.1184
vn 0.7896 0.5979 -0.1378
vn 0.7831 0.6066 -0.1366
vn 0.7832 0.6066 -0.1366
vn 0.7831 0.6066 -0.1368
vn 0.7925 0.5940 -0.1383
vn 0.7924 0.5940 -0.1383
vn 0.7924 0.5941 -0.1384
vn 0.7921 0.5952 -0.1351
vn 0.8103 0.5687 -0.1414
vn 0.8095 0.5685 -0.1463
vn 0.8388 0.5243 -0.1464
vn 0.8358 0.5293 -0.1459
vn 0.8358 0.5292 -0.1459
vn 0.8359 0.5292 -0.1458
vn 0.8359 0.5291 -0.1458
vn 0.8362 0.5286 -0.1458
vn 0.8358 0.5292 -0.1460
vn 0.7784 0.6067 -0.1612
vn 0.7995 0.5773 -0.1656
vn 0.7967 0.5814 -0.1650
vn 0.8200 0.5466 -0.1698
vn 0.8162 0.5524 -0.1690
vn 0.8240 0.5402 -0.1706
vn 0.8228 0.5421 -0.1705
vn 0.8226 0.5425 -0.1702
vn 0.8226 0.5424 -0.1704
vn 0.8227 0.5423 -0.1702
vn 0.8222 0.5429 -0.1708
vn 0.8227 0.5423 -0.1704
vn 0.8227 0.5423 -0.1703
vn 0.8474 0.5099 -0.1479
vn 0.8465 0.5114 -0.1477
vn 0.8440 0.5158 -0.1470
vn 0.8519 0.5021 -0.1487
vn 0.8519 0.5022 -0.1486
vn 0.8516 0.5026 -0.1488
usemtl None
s 1
f 22//17 106//18 51//19
f 125//20 27//21 28//22
f 136//23 135//23 30//24
f 24//25 31//26 25//27
f 26//28 203//29 35//30
f 87//31 96//31 93//31
f 27//21 81//32 80//32
f 29//33 71//34 70//34
f 60//35 59//35 45//36
f 30//24 197//37 196//37
f 65//38 34//39 31//26
f 98//18 108//18 26//28
f 120//40 55//41 117//40
f 131//42 130//43 28//22
f 142//44 57//45 25//27
f 52//46 22//17 157//47
f 159//48 56//49 22//17
f 33//50 23//51 162//52
f 167//53 166//53 23//51
f 172//54 169//54 24//25
f 178//55 177//56 182//57
f 190//58 189//59 25//27
f 47//60 214//61 204//61
f 221//62 218//63 216//64
f 22//17 52//46 106//18
f 28//22 23//51 125//20
f 23//51 33//50 126//20
f 33//50 127//65 126//20
f 125//20 32//66 27//21
f 23//51 126//20 125//20
f 30//24 24//25 136//23
f 24//25 43//67 140//23
f 24//25 140//23 137//68
f 49//69 29//33 133//23
f 29//33 30//24 134//23
f 133//23 29//33 134//23
f 24//25 137//68 136//23
f 140//23 139//23 137//68
f 139//23 138//70 137//68
f 135//23 134//23 30//24
f 24//25 30//24 31//26
f 26//28 38//71 203//29
f 203//29 202//72 35//30
f 46//73 27//21 85//31
f 27//21 26//28 96//31
f 85//31 27//21 86//31
f 26//28 35//30 97//31
f 26//28 97//31 96//31
f 87//31 27//21 96//31
f 87//31 86//31 27//21
f 96//31 95//74 93//31
f 95//74 94//75 93//31
f 93//31 92//76 89//76
f 92//76 91//77 90//76
f 89//76 92//76 90//76
f 88//76 87//31 93//31
f 89//76 88//76 93//31
f 37//78 28//22 77//79
f 28//22 27//21 80//32
f 77//79 28//22 78//79
f 27//21 46//73 84//79
f 84//79 83//80 82//79
f 84//79 82//79 27//21
f 82//79 81//32 27//21
f 78//79 28//22 80//32
f 80//32 79//81 78//79
f 29//33 28//22 73//82
f 28//22 37//78 75//34
f 73//82 28//22 74//83
f 37//78 76//84 75//34
f 75//34 74//83 28//22
f 67//83 45//36 29//33
f 69//85 68//34 67//83
f 70//34 69//85 67//83
f 29//33 73//82 72//82
f 70//34 67//83 29//33
f 29//33 72//82 71//34
f 36//86 30//24 58//87
f 30//24 29//33 59//35
f 58//87 30//24 59//35
f 29//33 45//36 59//35
f 45//36 64//87 62//88
f 64//87 63//87 62//88
f 62//88 61//87 45//36
f 61//87 60//35 45//36
f 44//89 31//26 193//37
f 31//26 30//24 195//37
f 193//37 31//26 195//37
f 30//24 36//86 198//37
f 36//86 201//90 200//37
f 198//37 36//86 199//91
f 200//37 199//91 36//86
f 195//37 194//91 193//37
f 196//37 195//37 30//24
f 30//24 198//37 197//37
f 31//26 44//89 66//38
f 66//38 65//38 31//26
f 26//28 50//92 98//18
f 50//92 105//18 98//18
f 105//18 104//93 103//18
f 103//18 102//18 99//18
f 102//18 101//94 100//18
f 99//18 102//18 100//18
f 38//71 26//28 107//18
f 108//18 107//18 26//28
f 110//93 109//93 113//18
f 109//93 108//18 113//18
f 112//95 111//93 110//93
f 113//18 112//95 110//93
f 113//18 108//18 98//18
f 105//18 103//18 99//18
f 105//18 99//18 98//18
f 27//21 32//66 124//96
f 27//21 124//96 123//97
f 50//92 26//28 115//97
f 26//28 27//21 115//97
f 115//97 114//98 50//92
f 27//21 123//97 122//97
f 27//21 122//97 115//97
f 122//97 121//40 115//97
f 116//97 115//97 121//40
f 51//19 118//40 117//40
f 22//17 51//19 117//40
f 117//40 116//97 120//40
f 116//97 121//40 120//40
f 120//40 119//99 55//41
f 55//41 22//17 117//40
f 29//33 49//69 132//100
f 29//33 132//100 131//42
f 23//51 28//22 129//43
f 28//22 29//33 131//42
f 23//51 129//43 128//43
f 128//43 39//101 23//51
f 130//43 129//43 28//22
f 47//60 48//102 151//44
f 48//102 150//44 151//44
f 150//44 149//44 152//44
f 149//44 148//103 152//44
f 147//104 146//105 145//44
f 151//44 150//44 152//44
f 147//104 145//44 144//105
f 148//103 147//104 153//44
f 148//103 153//44 152//44
f 153//44 147//104 31//26
f 147//104 144//105 143//106
f 147//104 143//106 31//26
f 142//44 141//107 57//45
f 143//106 142//44 25//27
f 31//26 143//106 25//27
f 31//26 34//39 154//108
f 154//108 153//44 31//26
f 22//17 56//49 157//47
f 157//47 156//109 155//47
f 155//47 52//46 157//47
f 22//17 55//41 160//48
f 159//48 158//48 56//49
f 22//17 160//48 159//48
f 23//51 54//110 164//111
f 54//110 165//52 164//111
f 164//111 163//52 23//51
f 163//52 162//52 23//51
f 161//52 33//50 162//52
f 23//51 39//101 167//53
f 166//53 54//110 23//51
f 24//25 42//112 172//54
f 42//112 173//113 172//54
f 172//54 171//54 169//54
f 171//54 170//54 169//54
f 168//54 43//67 24//25
f 169//54 168//54 24//25
f 25//27 53//114 185//55
f 53//114 188//115 187//116
f 185//55 53//114 186//55
f 187//116 186//55 53//114
f 24//25 25//27 184//117
f 174//118 42//112 175//119
f 42//112 24//25 176//57
f 175//119 42//112 176//57
f 25//27 185//55 184//117
f 177//56 176//57 183//57
f 176//57 24//25 183//57
f 24//25 184//117 183//57
f 182//57 181//120 178//55
f 181//120 180//121 179//121
f 178//55 181//120 179//121
f 183//57 182//57 177//56
f 25//27 57//45 192//58
f 25//27 192//58 191//58
f 189//59 53//114 25//27
f 25//27 191//58 190//58
f 40//122 41//123 211//61
f 41//123 210//61 212//61
f 211//61 41//123 212//61
f 210//61 209//61 212//61
f 209//61 208//124 207//61
f 206//61 209//61 207//61
f 206//61 205//61 212//61
f 209//61 206//61 212//61
f 214//61 213//61 204//61
f 213//61 212//61 205//61
f 204//61 213//61 205//61
f 48//102 47//60 204//61
f 41//123 40//122 215//125
f 40//122 221//62 216//64
f 215//125 40//122 216//64
f 221//62 220//126 219//64
f 219//64 218//63 221//62
f 218//63 217//127 216//64
