# Blender v2.81 (sub 16) OBJ File: ''
# www.blender.org
mtllib Turks and Caicos Islands.mtl
o 0_Turks_and_Caicos_Islands.002_sphere.001
v 1.417685 1.856413 4.420467
v 1.422936 1.857077 4.418570
v 1.423460 1.856154 4.418800
v 1.420709 1.855094 4.420096
v 1.420121 1.854276 4.420624
v 1.411727 1.853078 4.423713
v 1.409012 1.853275 4.424465
v 1.408110 1.856302 4.423460
v 1.408298 1.860810 4.421493
vn 0.2726 0.3754 0.8859
vn 0.2725 0.3753 0.8859
vn 0.2727 0.3754 0.8858
vn 0.2726 0.3753 0.8859
vn 0.2725 0.3751 0.8860
vn 0.2729 0.3755 0.8857
usemtl None
s 1
f 1//1 8//2 6//2
f 3//3 2//3 4//3
f 2//3 1//1 4//3
f 1//1 9//4 8//2
f 8//2 7//5 6//2
f 6//2 5//6 1//1
f 5//6 4//3 1//1
o 1_Turks_and_Caicos_Islands.002_sphere.001
v 1.460727 1.852793 4.407868
v 1.455995 1.855909 4.408155
v 1.447665 1.855962 4.410984
v 1.445802 1.860247 4.409788
v 1.448907 1.860954 4.408422
v 1.459651 1.859407 4.405406
v 1.462541 1.855658 4.406021
v 1.460874 1.853876 4.407354
vn 0.3002 0.3754 0.8769
vn 0.3003 0.3753 0.8769
vn 0.3002 0.3753 0.8769
usemtl None
s 1
f 14//7 12//7 11//7
f 16//8 15//9 17//8
f 15//9 14//7 11//7
f 17//8 15//9 11//7
f 14//7 13//7 12//7
f 11//7 10//9 17//8
o 2_Turks_and_Caicos_Islands.002_sphere.001
v 1.433032 1.868966 4.410428
v 1.433500 1.865222 4.411870
v 1.431901 1.866343 4.411887
v 1.432215 1.868933 4.410693
v 1.442132 1.859157 4.411510
v 1.437320 1.861968 4.411955
v 1.436404 1.864195 4.411315
v 1.434801 1.864319 4.411811
v 1.438285 1.869048 4.408594
v 1.441622 1.861779 4.410563
v 1.443355 1.860002 4.410730
vn 0.2865 0.3754 0.8814
vn 0.2724 0.3753 0.8860
vn 0.2924 0.3753 0.8795
vn 0.3000 0.3753 0.8769
vn 0.2998 0.3754 0.8770
vn 0.3002 0.3753 0.8769
vn 0.2721 0.3755 0.8860
vn 0.3000 0.3758 0.8768
vn 0.3001 0.3753 0.8769
usemtl None
s 1
f 18//10 20//11 19//12
f 22//13 28//14 27//15
f 18//10 21//16 20//11
f 18//10 19//12 24//15
f 19//12 25//17 24//15
f 24//15 23//15 27//15
f 23//15 22//13 27//15
f 27//15 26//18 24//15
f 26//18 18//10 24//15
