# Blender v2.81 (sub 16) OBJ File: ''
# www.blender.org
mtllib United States Virgin Islands.mtl
o 0_United_States_Virgin_Islands.002_sphere.001
v 2.027071 1.527444 4.307753
v 2.028013 1.520442 4.309756
v 2.036343 1.524258 4.304332
v 2.043910 1.524243 4.300630
v 2.036514 1.520615 4.305531
v 2.029576 1.527980 4.306336
v 2.021299 1.520253 4.312853
v 2.020854 1.526117 4.311020
vn 0.4195 0.3014 0.8563
vn 0.4195 0.3014 0.8562
vn 0.4058 0.3015 0.8628
vn 0.3924 0.3014 0.8690
vn 0.4077 0.3015 0.8619
vn 0.4194 0.3014 0.8563
vn 0.3923 0.3014 0.8690
usemtl None
s 1
f 3//1 6//2 2//3
f 8//4 2//3 1//5
f 1//5 2//3 6//2
f 2//3 5//1 3//1
f 5//1 4//6 3//1
f 8//4 7//7 2//3
o 1_United_States_Virgin_Islands.002_sphere.001
v 2.026376 1.572214 4.291803
v 2.023004 1.572529 4.293338
v 2.021637 1.573316 4.293716
v 2.023880 1.575867 4.291669
v 2.030982 1.574371 4.288745
vn 0.4173 0.3164 0.8519
vn 0.4174 0.3164 0.8519
vn 0.4174 0.3164 0.8518
usemtl None
s 1
f 9//8 12//8 10//9
f 13//8 12//8 9//8
f 12//8 11//10 10//9
o 2_United_States_Virgin_Islands.002_sphere.001
v 2.011889 1.571649 4.298764
v 2.003525 1.575411 4.301163
v 2.009485 1.576921 4.297920
v 2.013590 1.576018 4.296397
v 2.017428 1.572391 4.295991
vn 0.3904 0.3165 0.8645
vn 0.3905 0.3165 0.8645
vn 0.3904 0.3164 0.8645
vn 0.3905 0.3164 0.8645
vn 0.3904 0.3164 0.8646
usemtl None
s 1
f 16//11 15//12 14//13
f 18//14 17//15 14//13
f 17//15 16//11 14//13
