# Blender v2.81 (sub 16) OBJ File: ''
# www.blender.org
mtllib United Arab Emirates.mtl
o 0_United_Arab_Emirates.002_sphere.001
v 2.686391 2.045050 -3.687734
v 2.692703 2.045786 -3.682588
v 2.694833 2.044346 -3.681785
v 2.699898 2.045124 -3.677552
v 2.704583 2.047043 -3.672974
v 2.700222 2.050325 -3.674434
v 2.690032 2.054213 -3.679935
v 2.687095 2.050773 -3.684043
v 2.685712 2.047738 -3.686758
vn 0.5492 0.4043 -0.7314
vn 0.5491 0.4043 -0.7314
vn 0.5492 0.4042 -0.7314
vn 0.5491 0.4042 -0.7315
usemtl None
s 1
f 3//1 2//1 6//2
f 1//2 9//1 2//1
f 9//1 8//3 2//1
f 8//3 7//1 2//1
f 7//1 6//2 2//1
f 6//2 5//4 4//1
f 4//1 3//1 6//2
o 1_United_Arab_Emirates.002_sphere.001
v 2.768006 2.057570 -3.619535
v 2.765745 2.057570 -3.621233
v 2.768037 2.055928 -3.620420
v 2.766807 2.056517 -3.621018
v 2.768007 2.060216 -3.618010
v 2.767541 2.061583 -3.617571
v 2.764068 2.063518 -3.619064
v 2.763254 2.060001 -3.621702
vn 0.5470 0.4127 -0.7283
vn 0.5492 0.4043 -0.7314
vn 0.5463 0.4146 -0.7277
vn 0.5452 0.4188 -0.7261
vn 0.5453 0.4187 -0.7262
vn 0.5452 0.4186 -0.7263
vn 0.5491 0.4043 -0.7314
vn 0.5452 0.4186 -0.7262
usemtl None
s 1
f 10//5 13//6 11//7
f 15//8 14//9 17//10
f 10//5 12//11 13//6
f 10//5 11//7 14//9
f 11//7 17//10 14//9
f 17//10 16//12 15//8
o 2_United_Arab_Emirates.002_sphere.001
v 2.727957 2.057570 -3.649605
v 2.716467 2.057570 -3.658232
v 2.720148 2.060671 -3.653681
v 2.717231 2.062481 -3.654827
v 2.713558 2.066181 -3.655453
v 2.712327 2.063023 -3.658197
v 2.715995 2.058022 -3.658326
v 2.726767 2.053589 -3.652699
v 2.730251 2.056629 -3.648403
v 2.718274 2.055849 -3.657826
v 2.721946 2.054063 -3.656057
vn 0.5453 0.4186 -0.7262
vn 0.5452 0.4186 -0.7262
vn 0.5491 0.4043 -0.7314
vn 0.5492 0.4042 -0.7314
vn 0.5487 0.4060 -0.7308
vn 0.5462 0.4149 -0.7276
vn 0.5451 0.4189 -0.7262
vn 0.5492 0.4043 -0.7314
vn 0.5491 0.4044 -0.7313
usemtl None
s 1
f 23//13 22//14 21//13
f 28//15 27//16 18//17
f 18//17 19//18 20//13
f 19//18 24//19 21//13
f 20//13 19//18 21//13
f 24//19 23//13 21//13
f 19//18 18//17 27//16
f 18//17 26//20 25//21
f 28//15 18//17 25//21
o 3_United_Arab_Emirates.002_sphere.001
v 2.646266 2.067197 -3.703966
v 2.648081 2.067343 -3.702609
v 2.652282 2.068764 -3.698855
v 2.653158 2.071000 -3.696980
v 2.649596 2.073653 -3.697989
v 2.648280 2.073788 -3.698838
v 2.647205 2.070975 -3.701178
v 2.645280 2.068729 -3.703797
vn 0.5222 0.4186 -0.7430
vn 0.5222 0.4187 -0.7429
vn 0.5221 0.4186 -0.7430
vn 0.5223 0.4189 -0.7428
vn 0.5222 0.4185 -0.7430
vn 0.5223 0.4183 -0.7430
vn 0.5223 0.4185 -0.7430
usemtl None
s 1
f 35//22 33//23 31//24
f 35//22 34//25 33//23
f 33//23 32//24 31//24
f 31//24 30//26 35//22
f 30//26 29//27 36//28
f 35//22 30//26 36//28
o 4_United_Arab_Emirates.002_sphere.001
v 2.542944 2.128895 -3.741822
v 2.697215 1.985738 -3.712394
v 2.812493 1.985738 -3.625840
v 2.682343 2.042971 -3.691923
v 2.710083 1.934039 -3.730104
v 2.831530 2.057570 -3.569902
v 2.828865 2.057570 -3.572037
v 2.651541 2.057570 -3.705683
v 2.562406 2.057570 -3.768328
v 2.532436 2.167824 -3.726361
v 2.505321 2.128895 -3.766535
v 2.799820 2.032507 -3.609502
v 2.549621 2.103125 -3.751648
v 2.552845 2.090683 -3.756392
v 2.554699 2.083528 -3.759120
v 2.559516 2.064939 -3.766208
v 2.560679 2.060451 -3.767919
v 2.814829 1.985738 -3.623969
v 2.813411 1.982200 -3.627024
v 2.608106 1.985738 -3.775020
v 2.562956 2.051408 -3.771271
v 2.566939 2.035380 -3.777132
v 2.577360 2.128895 -3.717634
v 2.608816 1.984580 -3.775121
v 2.618099 1.968681 -3.776824
v 2.625685 1.956202 -3.777950
v 2.628408 1.947217 -3.780686
v 2.629707 1.941346 -3.782812
v 2.633072 1.929622 -3.786514
v 2.639027 1.923168 -3.785669
v 2.640070 1.922974 -3.785036
v 2.645100 1.923742 -3.781104
v 2.646787 1.924023 -3.779773
v 2.651614 1.924737 -3.776010
v 2.659081 1.925905 -3.770158
v 2.668751 1.927415 -3.762581
v 2.680177 1.929211 -3.753620
v 2.692976 1.931267 -3.743561
v 2.706625 1.933450 -3.732839
v 2.504372 2.162211 -3.748021
v 2.502405 2.162390 -3.749210
v 2.500671 2.164193 -3.749314
v 2.498065 2.157791 -3.754703
v 2.521054 2.175584 -3.729381
v 2.512967 2.185136 -3.729206
v 2.506869 2.195877 -3.727041
v 2.506259 2.196647 -3.726999
v 2.503787 2.197073 -3.728379
v 2.500884 2.195429 -3.731230
v 2.502706 2.187384 -3.734655
v 2.505934 2.179776 -3.736905
v 2.508251 2.171736 -3.740001
v 2.509933 2.167375 -3.741402
v 2.508309 2.163770 -3.744539
v 2.508849 2.114339 -3.772246
v 2.508618 2.111228 -3.774113
v 2.511061 2.110758 -3.772767
v 2.514504 2.107437 -3.772338
v 2.518857 2.102326 -3.772297
v 2.523704 2.099685 -3.770570
v 2.527789 2.096701 -3.769532
v 2.531905 2.093015 -3.768861
v 2.534944 2.092237 -3.767293
v 2.537407 2.096977 -3.763062
v 2.538688 2.101791 -3.759565
v 2.537816 2.102816 -3.759573
v 2.535944 2.103165 -3.760610
v 2.534628 2.105642 -3.760108
v 2.534729 2.109265 -3.758044
v 2.536880 2.110627 -3.755880
v 2.539967 2.110769 -3.753774
v 2.543372 2.109167 -3.752420
v 2.547369 2.106003 -3.751540
v 2.553265 2.087974 -3.757610
v 2.554268 2.084225 -3.759019
v 2.559471 2.064198 -3.766646
v 2.560033 2.061506 -3.767761
v 2.554559 2.050750 -3.777134
v 2.553483 2.044944 -3.780913
v 2.552717 2.040988 -3.783508
v 2.553769 2.038604 -3.784078
v 2.560304 2.036901 -3.780685
v 2.829107 2.060451 -3.570142
v 2.816248 1.989319 -3.620804
v 2.818254 1.994537 -3.616241
v 2.820319 1.999737 -3.611641
v 2.822301 2.004975 -3.607086
v 2.824300 2.010172 -3.602542
v 2.826339 2.015392 -3.597950
v 2.828331 2.020592 -3.593410
v 2.830335 2.025823 -3.588841
v 2.832334 2.031020 -3.584297
v 2.834319 2.036245 -3.579746
v 2.835659 2.039736 -3.576696
v 2.835846 2.043683 -3.574310
v 2.833196 2.054025 -3.570575
v 2.832608 2.056277 -3.569771
v 2.827403 2.053454 -3.575540
v 2.822770 2.054446 -3.578690
v 2.820935 2.053773 -3.580541
v 2.823354 2.039450 -3.586716
v 2.821525 2.034366 -3.591060
v 2.818171 2.032341 -3.594895
v 2.805221 2.031284 -3.605868
v 2.814184 1.984125 -3.625361
v 2.796389 2.033218 -3.611686
v 2.777312 2.042491 -3.620884
v 2.767666 2.045826 -3.626282
v 2.743796 2.045166 -3.644569
v 2.725487 2.041291 -3.660458
v 2.695981 2.039092 -3.683828
v 2.689974 2.039737 -3.687981
v 2.720508 1.935580 -3.721461
v 2.734308 1.937687 -3.709983
v 2.747627 1.939768 -3.698882
v 2.760096 1.941716 -3.688488
v 2.771250 1.943501 -3.679169
v 2.780707 1.945006 -3.671271
v 2.787937 1.946185 -3.665219
v 2.792657 1.946939 -3.661275
v 2.794287 1.947214 -3.659906
v 2.799471 1.948049 -3.655572
v 2.801283 1.952422 -3.651896
v 2.803432 1.957696 -3.647490
v 2.805590 1.962993 -3.643066
v 2.807768 1.968296 -3.638623
v 2.809920 1.973557 -3.634221
v 2.812099 1.978847 -3.629784
v 2.574251 2.131634 -3.718211
v 2.571738 2.136584 -3.717073
v 2.562471 2.144072 -3.719192
v 2.554472 2.152252 -3.720013
v 2.550048 2.102596 -3.751646
v 2.552078 2.095720 -3.754093
v 2.557165 2.079532 -3.759639
v 2.559568 2.072662 -3.761821
v 2.559746 2.067341 -3.764693
v 2.647542 2.062030 -3.705981
v 2.642667 2.070304 -3.704746
v 2.638901 2.075704 -3.704350
v 2.635242 2.078276 -3.705472
v 2.631186 2.082863 -3.705738
v 2.626945 2.090309 -3.704525
v 2.619274 2.097836 -3.705675
v 2.591646 2.116151 -3.714774
v 2.565125 2.052981 -3.768898
v 2.568354 2.035000 -3.776343
v 2.573654 2.035505 -3.772344
v 2.583994 2.032838 -3.766518
v 2.590203 2.028790 -3.764342
v 2.589312 2.026298 -3.766315
v 2.587953 2.024378 -3.768307
v 2.588510 2.019081 -3.770777
v 2.591878 2.011529 -3.772491
v 2.596478 2.004214 -3.773211
v 2.602215 1.995080 -3.774113
v 2.671581 2.047231 -3.697185
v 2.659738 2.053798 -3.701961
v 2.653228 2.055682 -3.705518
vn 0.5184 0.4328 -0.7375
vn 0.5394 0.3971 -0.7425
vn 0.5491 0.4043 -0.7314
vn 0.5492 0.4043 -0.7314
vn 0.5719 0.4043 -0.7138
vn 0.5295 0.3899 -0.7534
vn 0.5295 0.3899 -0.7533
vn 0.5294 0.3899 -0.7534
vn 0.4949 0.4328 -0.7534
vn 0.4949 0.4328 -0.7535
vn 0.4949 0.4329 -0.7534
vn 0.5193 0.4187 -0.7449
vn 0.4986 0.4187 -0.7590
vn 0.5199 0.4183 -0.7448
vn 0.5195 0.4186 -0.7449
vn 0.4994 0.4184 -0.7586
vn 0.5211 0.4186 -0.7437
vn 0.4986 0.4186 -0.7590
vn 0.4985 0.4189 -0.7590
vn 0.4985 0.4187 -0.7591
vn 0.5022 0.4043 -0.7644
vn 0.5160 0.4043 -0.7552
vn 0.5705 0.4093 -0.7121
vn 0.5677 0.4187 -0.7087
vn 0.5706 0.4088 -0.7122
vn 0.5757 0.3898 -0.7187
vn 0.5625 0.3971 -0.7252
vn 0.5730 0.4001 -0.7152
vn 0.5529 0.3898 -0.7364
vn 0.5529 0.3899 -0.7364
vn 0.5222 0.4186 -0.7430
vn 0.5222 0.4186 -0.7429
vn 0.5259 0.4043 -0.7483
vn 0.5212 0.4223 -0.7416
vn 0.5086 0.4257 -0.7484
vn 0.5017 0.4328 -0.7489
vn 0.5347 0.4043 -0.7420
vn 0.5592 0.4043 -0.7237
vn 0.5719 0.4042 -0.7138
vn 0.5718 0.4043 -0.7138
vn 0.5719 0.4043 -0.7137
vn 0.5719 0.4042 -0.7139
vn 0.5402 0.3899 -0.7457
vn 0.5272 0.3989 -0.7502
vn 0.5295 0.3898 -0.7534
vn 0.5298 0.3899 -0.7532
vn 0.4968 0.4257 -0.7563
vn 0.4949 0.4327 -0.7535
vn 0.4949 0.4331 -0.7533
vn 0.4949 0.4330 -0.7533
vn 0.4984 0.4183 -0.7593
vn 0.4986 0.4190 -0.7588
vn 0.5184 0.4187 -0.7456
vn 0.4986 0.4186 -0.7591
vn 0.4984 0.4185 -0.7592
vn 0.4985 0.4186 -0.7591
vn 0.4986 0.4185 -0.7591
vn 0.5159 0.4044 -0.7552
vn 0.5022 0.4042 -0.7644
vn 0.5021 0.4043 -0.7644
vn 0.5579 0.3898 -0.7326
vn 0.5527 0.3900 -0.7365
vn 0.5535 0.3897 -0.7360
vn 0.5528 0.3899 -0.7364
vn 0.5530 0.3898 -0.7364
vn 0.5528 0.3901 -0.7364
vn 0.5248 0.4086 -0.7467
vn 0.5236 0.4131 -0.7451
vn 0.5218 0.4187 -0.7432
vn 0.5221 0.4186 -0.7430
vn 0.5222 0.4185 -0.7430
vn 0.5223 0.4184 -0.7430
vn 0.5221 0.4185 -0.7431
vn 0.5259 0.4042 -0.7483
vn 0.5260 0.4042 -0.7483
vn 0.5258 0.4045 -0.7483
vn 0.5260 0.4043 -0.7482
vn 0.5258 0.4043 -0.7483
usemtl None
s 1
f 167//29 166//29 165//29
f 38//30 147//31 146//32
f 134//33 131//33 137//33
f 68//34 67//35 65//36
f 86//37 85//38 82//39
f 53//40 112//41 52//42
f 51//43 110//44 50//45
f 103//46 102//47 101//48
f 118//49 115//49 57//50
f 43//51 119//52 42//53
f 141//54 39//55 54//56
f 156//57 155//57 160//58
f 170//59 169//60 181//59
f 184//61 182//61 185//61
f 59//62 37//63 165//29
f 37//63 46//64 168//29
f 165//29 37//63 167//29
f 168//29 167//29 37//63
f 39//55 38//30 146//32
f 38//30 40//65 148//31
f 38//30 148//31 147//31
f 142//32 48//66 39//55
f 144//32 143//31 39//55
f 143//31 142//32 39//55
f 146//32 145//32 39//55
f 145//32 144//32 39//55
f 54//56 39//55 120//67
f 39//55 48//66 121//68
f 39//55 121//68 120//67
f 48//66 140//33 122//68
f 121//68 48//66 122//68
f 123//68 122//68 140//33
f 126//33 125//68 139//68
f 125//68 124//33 140//33
f 139//68 125//68 140//33
f 124//33 123//68 140//33
f 127//69 126//33 138//68
f 138//68 126//33 139//68
f 128//68 127//69 138//68
f 131//33 130//69 137//33
f 130//69 129//68 137//33
f 129//68 128//68 137//33
f 137//33 128//68 138//68
f 137//33 136//33 134//33
f 136//33 135//68 134//33
f 134//33 43//51 132//67
f 43//51 42//53 133//70
f 132//67 43//51 133//70
f 132//67 131//33 134//33
f 38//30 41//71 75//34
f 74//34 73//34 38//30
f 73//34 72//34 62//34
f 38//30 73//34 62//34
f 38//30 75//34 74//34
f 60//36 56//72 38//30
f 62//34 61//34 38//30
f 61//34 60//36 38//30
f 65//36 64//36 68//34
f 64//36 63//36 70//73
f 69//73 64//36 70//73
f 66//74 65//36 67//35
f 64//36 69//73 68//34
f 63//36 62//34 71//73
f 71//73 62//34 72//34
f 71//73 70//73 63//36
f 37//63 47//75 90//37
f 47//75 79//37 76//37
f 79//37 78//76 77//38
f 79//37 77//38 76//37
f 46//64 37//63 90//37
f 47//75 76//37 90//37
f 80//37 46//64 89//37
f 46//64 90//37 89//37
f 89//37 88//37 80//37
f 88//37 87//37 80//37
f 83//77 82//39 84//78
f 82//39 81//37 86//37
f 84//78 82//39 85//38
f 81//37 80//37 87//37
f 87//37 86//37 81//37
f 53//40 113//79 112//41
f 51//43 111//80 110//44
f 37//63 49//81 109//82
f 37//63 109//82 108//46
f 91//82 47//75 105//46
f 47//75 37//63 106//46
f 93//83 92//46 91//82
f 96//41 95//46 104//46
f 95//46 94//82 105//46
f 104//46 95//46 105//46
f 94//82 93//83 91//82
f 37//63 108//46 107//84
f 37//63 107//84 106//46
f 94//82 91//82 105//46
f 47//75 106//46 105//46
f 97//46 96//41 104//46
f 97//46 104//46 103//46
f 99//82 98//85 100//46
f 98//85 97//46 100//46
f 101//48 100//46 103//46
f 103//46 100//46 97//46
f 57//50 58//86 118//49
f 118//49 117//87 116//87
f 115//49 114//88 57//50
f 118//49 116//87 115//49
f 141//54 55//89 39//55
f 39//55 55//89 164//90
f 163//91 162//58 39//55
f 162//58 161//92 154//93
f 153//58 162//58 154//93
f 39//55 164//90 163//91
f 41//71 38//30 149//58
f 38//30 39//55 153//58
f 150//58 38//30 151//58
f 150//58 149//58 38//30
f 152//58 151//58 38//30
f 155//57 154//93 161//92
f 153//58 152//58 38//30
f 153//58 39//55 162//58
f 161//92 160//58 155//57
f 160//58 159//58 156//57
f 156//57 159//58 157//94
f 159//58 158//58 157//94
f 44//95 45//96 174//59
f 45//96 53//40 173//97
f 174//59 45//96 177//59
f 53//40 52//42 173//97
f 173//97 172//98 45//96
f 177//59 45//96 178//59
f 176//99 175//100 177//59
f 175//100 174//59 177//59
f 45//96 172//98 178//59
f 171//59 51//43 50//45
f 172//98 171//59 181//59
f 178//59 172//98 180//59
f 180//59 179//101 178//59
f 37//63 59//62 49//81
f 59//62 181//59 169//60
f 181//59 180//59 172//98
f 171//59 50//45 170//59
f 169//60 49//81 59//62
f 171//59 170//59 181//59
f 38//30 56//72 195//61
f 56//72 192//61 195//61
f 191//61 190//61 186//102
f 190//61 189//61 187//103
f 186//102 190//61 187//103
f 192//61 191//61 186//102
f 195//61 192//61 186//102
f 193//61 40//65 38//30
f 195//61 194//104 193//61
f 45//96 44//95 182//61
f 44//95 195//61 186//102
f 182//61 44//95 185//61
f 58//86 57//50 183//105
f 57//50 182//61 184//61
f 185//61 44//95 186//102
f 195//61 193//61 38//30
f 189//61 188//106 187//103
f 57//50 184//61 183//105
o 5_United_Arab_Emirates.002_sphere.001
v 2.513760 2.129441 -3.760678
v 2.510456 2.131527 -3.761650
v 2.509137 2.134910 -3.760574
v 2.509373 2.136687 -3.759398
v 2.512164 2.136913 -3.757435
v 2.514075 2.133984 -3.757862
v 2.515607 2.129790 -3.759265
vn 0.4949 0.4328 -0.7535
vn 0.4949 0.4326 -0.7536
vn 0.4948 0.4328 -0.7535
usemtl None
s 1
f 197//107 198//107 201//107
f 198//107 199//108 200//107
f 200//107 201//107 198//107
f 201//107 202//109 196//107
f 197//107 201//107 196//107
