# Blender v2.81 (sub 16) OBJ File: ''
# www.blender.org
mtllib Uruguay.mtl
o 0_Uruguay.002_sphere.001
v 2.481415 -2.679137 3.415380
v 2.456370 -2.745117 3.380911
v 2.430724 -2.810420 3.345612
v 2.396271 -2.612495 3.526009
v 2.372911 -2.679137 3.491638
v 2.348961 -2.745117 3.456399
v 2.324436 -2.810420 3.420312
v 2.306038 -2.545210 3.633741
v 2.284333 -2.612495 3.599538
v 2.262065 -2.679137 3.564450
v 2.239234 -2.745117 3.528476
v 2.215855 -2.810420 3.491636
v 2.448055 -2.810420 3.332599
v 2.307708 -2.853487 3.395694
v 2.504861 -2.679137 3.397776
v 2.288867 -2.545210 3.644264
v 2.494311 -2.643955 3.433130
v 2.256070 -2.612495 3.616858
v 2.408174 -2.577318 3.543526
v 2.209105 -2.828647 3.481000
v 2.471131 -2.612495 3.473397
v 2.393305 -2.545210 3.576418
v 2.226535 -2.679137 3.586223
v 2.315444 -2.514990 3.648562
v 2.421657 -2.832740 3.333132
v 2.483725 -2.745117 3.360373
v 2.191748 -2.745117 3.557576
v 2.185618 -2.810420 3.510165
v 2.495110 -2.644178 3.432356
v 2.498301 -2.645937 3.428588
v 2.499759 -2.649052 3.425065
v 2.502699 -2.652392 3.420253
v 2.504884 -2.653608 3.417664
v 2.504674 -2.656615 3.415478
v 2.504933 -2.663185 3.410161
v 2.504672 -2.671480 3.403888
v 2.255705 -2.611908 3.617496
v 2.258893 -2.606086 3.619653
v 2.267069 -2.597355 3.620807
v 2.273056 -2.589574 3.622632
v 2.276803 -2.582801 3.625117
v 2.278464 -2.577298 3.627985
v 2.277993 -2.573139 3.631209
v 2.279666 -2.570307 3.632184
v 2.283472 -2.568840 3.630888
v 2.286394 -2.564450 3.632196
v 2.289410 -2.553485 3.638089
v 2.476494 -2.779688 3.336920
v 2.471383 -2.784755 3.336525
v 2.462936 -2.797004 3.332634
v 2.478092 -2.759464 3.352616
v 2.474135 -2.768370 3.348147
v 2.473553 -2.770743 3.346602
v 2.473646 -2.772310 3.345223
v 2.475930 -2.774655 3.341548
v 2.478973 -2.776645 3.337601
v 2.480414 -2.776995 3.336227
v 2.444186 -2.813857 3.332533
v 2.437876 -2.823289 3.329121
v 2.508700 -2.686505 3.388945
v 2.513962 -2.692213 3.380386
v 2.520436 -2.695423 3.372932
v 2.523244 -2.699450 3.367573
v 2.523482 -2.703585 3.364055
v 2.515894 -2.709774 3.364755
v 2.507285 -2.717551 3.364941
v 2.499938 -2.723675 3.365513
v 2.493160 -2.727973 3.367131
v 2.490326 -2.730882 3.366910
v 2.487429 -2.735462 3.365387
v 2.317013 -2.519629 3.644308
v 2.327191 -2.521014 3.636659
v 2.337828 -2.521146 3.629580
v 2.340004 -2.519748 3.629122
v 2.347046 -2.510625 3.630836
v 2.353401 -2.508005 3.628483
v 2.359659 -2.507322 3.624846
v 2.366104 -2.507749 3.620317
v 2.371206 -2.513787 3.612770
v 2.384708 -2.533475 3.590220
v 2.194473 -2.830229 3.488685
v 2.192544 -2.828085 3.491605
v 2.192299 -2.823942 3.495112
v 2.190877 -2.817952 3.500838
v 2.411949 -2.574124 3.543223
v 2.416067 -2.571062 3.542582
v 2.419101 -2.569421 3.541656
v 2.420842 -2.566947 3.542253
v 2.423144 -2.564390 3.542517
v 2.424801 -2.563847 3.541752
v 2.426973 -2.565729 3.538841
v 2.431339 -2.572309 3.530931
v 2.434379 -2.578371 3.524333
v 2.434443 -2.581890 3.521699
v 2.435149 -2.585499 3.518548
v 2.436170 -2.588688 3.515484
v 2.436590 -2.591766 3.512925
v 2.440178 -2.595798 3.507437
v 2.444295 -2.598372 3.502649
v 2.448580 -2.595736 3.501577
v 2.454228 -2.604117 3.491441
v 2.470529 -2.611160 3.474802
v 2.472486 -2.615390 3.470238
v 2.473559 -2.621390 3.464911
v 2.476805 -2.630476 3.455705
v 2.482891 -2.638691 3.445167
v 2.488878 -2.642168 3.438309
v 2.193463 -2.741960 3.558915
v 2.194755 -2.736264 3.562437
v 2.200288 -2.733008 3.561512
v 2.204905 -2.732371 3.559165
v 2.210750 -2.727672 3.559142
v 2.216966 -2.720567 3.560713
v 2.219466 -2.715153 3.563281
v 2.219916 -2.705134 3.570592
v 2.222641 -2.691154 3.579509
v 2.222568 -2.684182 3.584833
v 2.420895 -2.833190 3.333288
v 2.407144 -2.844136 3.333706
v 2.401188 -2.843808 3.338170
v 2.393833 -2.848511 3.339367
v 2.356634 -2.862823 3.353423
v 2.346413 -2.860116 3.362892
v 2.338021 -2.860172 3.368744
v 2.332751 -2.853864 3.377775
v 2.315855 -2.851707 3.391472
v 2.288824 -2.544421 3.644827
v 2.293700 -2.537200 3.646758
v 2.303903 -2.528876 3.646176
v 2.309947 -2.522143 3.647058
v 2.311869 -2.517017 3.649372
v 2.315162 -2.514097 3.649343
v 2.231174 -2.673150 3.587758
v 2.233158 -2.667747 3.590494
v 2.231873 -2.663018 3.594739
v 2.232710 -2.658128 3.597803
v 2.235651 -2.653136 3.599651
v 2.236983 -2.648315 3.602359
v 2.236704 -2.643698 3.605908
v 2.239299 -2.639853 3.607129
v 2.244851 -2.636886 3.605897
v 2.249747 -2.632236 3.606297
v 2.254052 -2.626016 3.608207
v 2.256774 -2.621262 3.610016
v 2.257900 -2.617976 3.611728
v 2.257544 -2.614884 3.614208
v 2.180898 -2.803603 3.518399
v 2.173992 -2.789321 3.533822
v 2.176543 -2.775306 3.543239
v 2.183549 -2.760052 3.550898
v 2.394762 -2.547175 3.574045
v 2.397032 -2.553579 3.567942
v 2.399264 -2.558369 3.563026
v 2.400615 -2.562842 3.558917
v 2.395492 -2.574385 3.553969
v 2.393995 -2.579471 3.551289
v 2.394150 -2.580913 3.550148
v 2.397389 -2.581056 3.547918
v 2.402575 -2.580279 3.545071
v 2.407515 -2.577863 3.543567
v 2.303655 -2.854261 3.397716
v 2.285748 -2.861116 3.403811
v 2.281218 -2.860978 3.406902
v 2.278035 -2.860571 3.409329
v 2.270905 -2.857685 3.416398
v 2.268742 -2.851541 3.422899
v 2.247929 -2.844434 3.442446
v 2.235020 -2.828358 3.464216
v 2.212689 -2.828210 3.479007
vn 0.4879 -0.5291 0.6942
vn 0.4746 -0.5358 0.6983
vn 0.4913 -0.5490 0.6762
vn 0.4698 -0.5490 0.6913
vn 0.4649 -0.5620 0.6841
vn 0.4862 -0.5620 0.6691
vn 0.4569 -0.5224 0.7199
vn 0.4704 -0.5157 0.7161
vn 0.4524 -0.5358 0.7129
vn 0.4478 -0.5490 0.7057
vn 0.4432 -0.5620 0.6984
vn 0.4612 -0.5090 0.7267
vn 0.4518 -0.5022 0.7373
vn 0.4476 -0.5157 0.7305
vn 0.4431 -0.5291 0.7236
vn 0.4433 -0.5291 0.7235
vn 0.4389 -0.5424 0.7163
vn 0.4345 -0.5555 0.7090
vn 0.4344 -0.5555 0.7090
vn 0.4970 -0.5291 0.6878
vn 0.4963 -0.5358 0.6831
vn 0.5094 -0.5291 0.6785
vn 0.4993 -0.5556 0.6649
vn 0.4993 -0.5555 0.6649
vn 0.4940 -0.5685 0.6579
vn 0.4939 -0.5685 0.6579
vn 0.5044 -0.5424 0.6718
vn 0.4747 -0.5022 0.7227
vn 0.4399 -0.5685 0.6951
vn 0.4298 -0.5685 0.7015
vn 0.4793 -0.5224 0.7052
vn 0.4926 -0.5157 0.7009
vn 0.4730 -0.5685 0.6731
vn 0.4516 -0.5684 0.6876
vn 0.4517 -0.5684 0.6876
vn 0.4517 -0.5685 0.6876
vn 0.4893 -0.5254 0.6960
vn 0.4880 -0.5290 0.6942
vn 0.4874 -0.5158 0.7045
vn 0.4702 -0.5157 0.7162
vn 0.4714 -0.5125 0.7177
vn 0.4705 -0.5155 0.7162
vn 0.4703 -0.5157 0.7161
vn 0.4705 -0.5157 0.7160
vn 0.4704 -0.5158 0.7160
vn 0.4560 -0.5022 0.7347
vn 0.4517 -0.5021 0.7374
vn 0.4519 -0.5022 0.7372
vn 0.4502 -0.5074 0.7347
vn 0.4465 -0.5192 0.7287
vn 0.4476 -0.5158 0.7305
vn 0.4477 -0.5157 0.7304
vn 0.4406 -0.5376 0.7190
vn 0.4434 -0.5291 0.7235
vn 0.4432 -0.5291 0.7236
vn 0.4435 -0.5291 0.7234
vn 0.4390 -0.5424 0.7163
vn 0.4390 -0.5423 0.7163
vn 0.4364 -0.5498 0.7122
vn 0.4389 -0.5424 0.7164
vn 0.4333 -0.5587 0.7071
vn 0.5061 -0.5379 0.6741
vn 0.5095 -0.5291 0.6785
vn 0.5095 -0.5291 0.6786
vn 0.5094 -0.5291 0.6786
vn 0.5094 -0.5292 0.6786
vn 0.5093 -0.5294 0.6785
vn 0.5093 -0.5288 0.6790
vn 0.4977 -0.5594 0.6629
vn 0.4992 -0.5555 0.6650
vn 0.5018 -0.5490 0.6684
vn 0.4992 -0.5555 0.6649
vn 0.4993 -0.5554 0.6650
vn 0.4993 -0.5557 0.6648
vn 0.4993 -0.5556 0.6648
vn 0.4796 -0.5685 0.6684
vn 0.5043 -0.5424 0.6718
vn 0.4747 -0.5023 0.7227
vn 0.4748 -0.5022 0.7227
vn 0.4747 -0.5022 0.7228
vn 0.4299 -0.5685 0.7014
vn 0.4296 -0.5685 0.7016
vn 0.4298 -0.5684 0.7015
vn 0.4928 -0.5160 0.7006
vn 0.4926 -0.5157 0.7010
vn 0.4927 -0.5157 0.7009
vn 0.4925 -0.5158 0.7009
vn 0.4927 -0.5158 0.7009
vn 0.4924 -0.5160 0.7009
vn 0.4609 -0.5685 0.6814
vn 0.4731 -0.5684 0.6731
vn 0.4731 -0.5685 0.6730
vn 0.4516 -0.5685 0.6876
usemtl None
s 1
f 105//1 104//1 5//2
f 2//3 5//2 6//4
f 2//3 7//5 3//6
f 9//7 157//8 156//8
f 5//2 9//7 10//9
f 6//4 10//9 11//10
f 6//4 12//11 7//5
f 8//12 130//13 129//13
f 41//14 9//7 45//14
f 138//15 137//16 141//16
f 11//10 112//17 111//17
f 11//10 149//18 147//19
f 17//20 1//21 31//22
f 54//23 53//24 3//6
f 59//25 58//26 3//6
f 62//27 61//27 65//27
f 73//28 72//28 8//12
f 20//29 12//11 83//30
f 4//31 98//32 97//32
f 121//33 120//33 7//5
f 164//34 163//35 166//36
f 5//2 1//21 105//1
f 1//21 17//20 107//1
f 1//21 107//1 106//1
f 21//37 4//31 104//1
f 4//31 5//2 104//1
f 104//1 103//38 21//37
f 1//21 106//1 105//1
f 2//3 1//21 5//2
f 2//3 6//4 7//5
f 4//31 19//39 160//40
f 4//31 160//40 159//8
f 8//12 9//7 22//41
f 9//7 4//31 157//8
f 151//42 22//41 152//43
f 155//44 22//41 156//8
f 154//45 153//8 155//44
f 153//8 152//43 155//44
f 22//41 155//44 152//43
f 4//31 159//8 158//8
f 4//31 158//8 157//8
f 156//8 22//41 9//7
f 5//2 4//31 9//7
f 6//4 5//2 10//9
f 6//4 11//10 12//11
f 8//12 24//46 130//13
f 24//46 132//47 131//13
f 130//13 24//46 131//13
f 129//13 128//13 8//12
f 128//13 127//48 16//49
f 128//13 16//49 8//12
f 18//50 9//7 38//14
f 9//7 8//12 46//14
f 40//14 9//7 41//14
f 8//12 16//49 47//14
f 8//12 47//14 46//14
f 38//14 37//51 18//50
f 39//14 38//14 9//7
f 46//14 45//14 9//7
f 45//14 44//51 43//14
f 45//14 43//14 42//52
f 40//14 39//14 9//7
f 45//14 42//52 41//14
f 23//53 10//9 133//16
f 10//9 9//7 142//54
f 133//16 10//9 134//54
f 9//7 18//50 146//54
f 9//7 146//54 145//16
f 134//54 10//9 137//16
f 136//55 135//16 137//16
f 135//16 134//54 137//16
f 137//16 10//9 141//16
f 9//7 145//16 144//54
f 9//7 144//54 143//16
f 141//16 10//9 142//54
f 9//7 143//16 142//54
f 141//16 140//16 138//15
f 140//16 139//56 138//15
f 11//10 10//9 114//17
f 10//9 23//53 116//17
f 114//17 10//9 115//17
f 23//53 117//57 116//17
f 116//17 115//17 10//9
f 108//58 27//59 111//17
f 27//59 11//10 111//17
f 110//60 109//17 108//58
f 111//17 110//60 108//58
f 11//10 114//17 113//57
f 11//10 113//57 112//17
f 28//61 12//11 147//19
f 12//11 11//10 147//19
f 11//10 27//59 150//18
f 150//18 149//18 11//10
f 149//18 148//18 147//19
f 1//21 15//62 36//63
f 36//63 35//64 1//21
f 35//64 34//65 1//21
f 34//65 33//66 32//65
f 31//22 30//67 29//68
f 34//65 32//65 1//21
f 32//65 31//22 1//21
f 29//68 17//20 31//22
f 3//6 13//69 50//24
f 3//6 50//24 54//23
f 50//24 49//70 54//23
f 26//71 2//3 51//72
f 2//3 3//6 53//24
f 52//73 2//3 53//24
f 52//73 51//72 2//3
f 49//70 48//24 55//70
f 54//23 49//70 55//70
f 48//24 57//74 56//75
f 48//24 56//75 55//70
f 3//6 25//76 59//25
f 58//26 13//69 3//6
f 2//3 26//71 70//27
f 2//3 70//27 69//27
f 15//62 1//21 60//27
f 1//21 2//3 69//27
f 60//27 1//21 68//27
f 68//27 1//21 69//27
f 68//27 67//27 60//27
f 67//27 66//27 61//27
f 65//27 64//77 63//77
f 67//27 61//27 60//27
f 66//27 65//27 61//27
f 63//77 62//27 65//27
f 8//12 22//41 80//28
f 80//28 79//28 74//28
f 79//28 78//78 77//28
f 74//28 79//28 77//28
f 77//28 76//79 74//28
f 76//79 75//80 74//28
f 8//12 80//28 73//28
f 71//28 24//46 8//12
f 72//28 71//28 8//12
f 80//28 74//28 73//28
f 12//11 28//61 84//81
f 83//30 82//82 81//83
f 12//11 84//81 83//30
f 81//83 20//29 83//30
f 4//31 21//37 101//32
f 21//37 102//84 101//32
f 101//32 100//85 99//32
f 85//32 19//39 94//86
f 19//39 4//31 95//86
f 87//86 86//32 92//32
f 86//32 85//32 92//32
f 89//87 88//88 91//32
f 88//88 87//86 91//32
f 91//32 90//89 89//87
f 93//32 92//32 85//32
f 92//32 91//32 87//86
f 94//86 93//32 85//32
f 19//39 95//86 94//86
f 4//31 101//32 99//32
f 4//31 99//32 98//32
f 97//32 96//88 4//31
f 96//88 95//86 4//31
f 7//5 14//90 126//33
f 125//33 124//91 123//33
f 7//5 126//33 125//33
f 25//76 3//6 118//92
f 3//6 7//5 120//33
f 118//92 3//6 120//33
f 120//33 119//92 118//92
f 7//5 125//33 121//33
f 125//33 123//33 121//33
f 123//33 122//92 121//33
f 12//11 20//29 169//93
f 168//36 167//93 7//5
f 167//93 166//36 7//5
f 12//11 169//93 168//36
f 14//90 7//5 161//93
f 7//5 12//11 168//36
f 161//93 7//5 166//36
f 163//35 162//36 166//36
f 162//36 161//93 166//36
f 166//36 165//35 164//34
