# Blender v2.81 (sub 16) OBJ File: ''
# www.blender.org
mtllib Vanuatu.mtl
o 0_Vanuatu.002_sphere.001
v -4.617321 -1.729682 -0.825707
v -4.616579 -1.729628 -0.830075
v -4.616755 -1.726452 -0.835879
v -4.618396 -1.722447 -0.835074
v -4.619759 -1.721742 -0.828777
v -4.619988 -1.721999 -0.826909
v -4.619463 -1.725152 -0.823152
vn -0.9242 -0.3460 -0.1613
vn -0.9242 -0.3462 -0.1613
vn -0.9242 -0.3461 -0.1613
usemtl None
s 1
f 4//1 3//2 2//3
f 7//3 6//3 1//3
f 6//3 5//1 2//3
f 1//3 6//3 2//3
f 5//1 4//1 2//3
o 1_Vanuatu.002_sphere.001
v -4.628752 -1.681149 -0.863036
v -4.628174 -1.679092 -0.870546
v -4.629190 -1.672648 -0.877882
v -4.630506 -1.667014 -0.881849
v -4.634666 -1.656178 -0.880138
v -4.635952 -1.654250 -0.876708
v -4.636378 -1.654879 -0.872981
v -4.633067 -1.665433 -0.870405
v -4.632598 -1.672170 -0.859331
vn -0.9295 -0.3312 -0.1622
vn -0.9295 -0.3313 -0.1621
vn -0.9294 -0.3316 -0.1621
usemtl None
s 1
f 9//4 16//4 15//4
f 15//4 14//5 12//4
f 14//5 13//6 12//4
f 12//4 11//4 15//4
f 11//4 10//4 15//4
f 10//4 9//4 15//4
f 9//4 8//4 16//4
o 2_Vanuatu.002_sphere.001
v -4.646615 -1.619590 -0.886386
v -4.651071 -1.605995 -0.887236
v -4.649444 -1.610959 -0.886926
v -4.648229 -1.619590 -0.877140
v -4.644188 -1.619590 -0.898104
v -4.644834 -1.624754 -0.886046
v -4.651121 -1.608256 -0.882565
v -4.648897 -1.616793 -0.878739
v -4.643847 -1.617142 -0.903778
v -4.645278 -1.613330 -0.903145
v -4.648292 -1.603582 -0.904625
v -4.650499 -1.598316 -0.902632
v -4.652411 -1.596162 -0.896941
v -4.652977 -1.597302 -0.892332
v -4.650995 -1.605101 -0.889076
v -4.645364 -1.626845 -0.878738
v -4.644933 -1.626441 -0.882031
v -4.647394 -1.622856 -0.875256
vn -0.9289 -0.3165 -0.1924
vn -0.9282 -0.3185 -0.1922
vn -0.9311 -0.3165 -0.1812
vn -0.9276 -0.3312 -0.1729
vn -0.9293 -0.3239 -0.1773
vn -0.9344 -0.3165 -0.1631
vn -0.9312 -0.3261 -0.1625
vn -0.9344 -0.3166 -0.1631
vn -0.9310 -0.3164 -0.1821
vn -0.9295 -0.3312 -0.1622
vn -0.9289 -0.3164 -0.1923
vn -0.9290 -0.3163 -0.1923
vn -0.9289 -0.3164 -0.1924
vn -0.9294 -0.3312 -0.1623
usemtl None
s 1
f 26//7 21//8 19//9
f 21//8 22//10 17//11
f 24//12 17//11 20//13
f 19//9 23//14 18//15
f 20//13 17//11 33//16
f 21//8 17//11 19//9
f 19//9 18//15 31//17
f 31//17 30//7 29//18
f 29//18 28//19 31//17
f 28//19 27//7 31//17
f 26//7 25//19 21//8
f 27//7 26//7 31//17
f 19//9 31//17 26//7
f 24//12 19//9 17//11
f 17//11 22//10 33//16
f 33//16 32//16 20//13
f 32//16 34//20 20//13
o 3_Vanuatu.002_sphere.001
v -4.668206 -1.518655 -0.945910
v -4.668579 -1.519603 -0.942631
v -4.664928 -1.528105 -0.947005
v -4.662587 -1.528856 -0.957138
v -4.660778 -1.526656 -0.969305
v -4.662600 -1.523723 -0.965078
v -4.663142 -1.520440 -0.967579
v -4.662598 -1.519771 -0.971250
v -4.661249 -1.521340 -0.975316
v -4.661015 -1.520800 -0.977287
v -4.663256 -1.515341 -0.974978
v -4.667028 -1.507632 -0.968780
v -4.667625 -1.507033 -0.966831
v -4.668026 -1.506942 -0.965039
v -4.668184 -1.507600 -0.963247
v -4.670198 -1.506806 -0.954763
vn -0.9336 -0.3015 -0.1933
vn -0.9337 -0.3015 -0.1933
vn -0.9337 -0.3014 -0.1933
vn -0.9337 -0.3014 -0.1934
vn -0.9334 -0.3022 -0.1933
vn -0.9336 -0.3016 -0.1934
vn -0.9337 -0.3014 -0.1932
usemtl None
s 1
f 38//21 37//22 35//23
f 35//23 50//24 40//22
f 50//24 49//22 40//22
f 49//22 48//25 47//24
f 47//24 46//23 49//22
f 46//23 45//23 41//23
f 45//23 44//26 43//26
f 45//23 43//26 42//21
f 46//23 41//23 49//22
f 37//22 36//27 35//23
f 45//23 42//21 41//23
f 40//22 39//21 38//21
f 49//22 41//23 40//22
f 40//22 38//21 35//23
o 4_Vanuatu.002_sphere.001
v -4.689616 -1.444408 -0.956111
v -4.688326 -1.447861 -0.957248
v -4.687149 -1.443928 -0.968732
v -4.684831 -1.445454 -0.977675
v -4.684360 -1.445276 -0.980212
v -4.684740 -1.442076 -0.983098
v -4.686181 -1.435752 -0.985466
v -4.687666 -1.431318 -0.984836
v -4.689365 -1.428208 -0.981219
v -4.689801 -1.427722 -0.979833
v -4.689274 -1.431528 -0.976763
v -4.689045 -1.434133 -0.974022
v -4.689240 -1.435250 -0.971437
v -4.688594 -1.441499 -0.965339
v -4.689473 -1.443166 -0.958632
vn -0.9381 -0.2866 -0.1943
vn -0.9381 -0.2867 -0.1943
vn -0.9381 -0.2868 -0.1943
vn -0.9381 -0.2866 -0.1942
vn -0.9381 -0.2865 -0.1943
vn -0.9382 -0.2864 -0.1943
vn -0.9382 -0.2863 -0.1942
vn -0.9382 -0.2865 -0.1943
usemtl None
s 1
f 53//28 52//29 64//28
f 51//30 65//31 52//29
f 65//31 64//28 52//29
f 64//28 63//32 53//28
f 63//32 62//32 54//28
f 53//28 63//32 54//28
f 61//33 60//34 59//35
f 62//32 61//33 57//28
f 61//33 59//35 58//32
f 57//28 61//33 58//32
f 57//28 56//28 62//32
f 56//28 55//32 54//28
f 62//32 56//28 54//28
o 5_Vanuatu.002_sphere.001
v -4.695590 -1.394959 -1.000205
v -4.699845 -1.394959 -0.979661
v -4.695564 -1.407070 -0.982469
v -4.693595 -1.404468 -0.995813
v -4.693557 -1.400844 -1.001342
v -4.694143 -1.397216 -1.003866
v -4.699294 -1.397416 -0.978699
v -4.699154 -1.400218 -0.975239
v -4.698702 -1.403049 -0.973243
v -4.697767 -1.406178 -0.973148
v -4.695874 -1.394504 -0.999471
v -4.697581 -1.393222 -0.993009
v -4.701590 -1.384836 -0.985309
v -4.701287 -1.388048 -0.982304
vn -0.9381 -0.2865 -0.1943
vn -0.9399 -0.2805 -0.1946
vn -0.9381 -0.2866 -0.1943
vn -0.9425 -0.2714 -0.1951
vn -0.9389 -0.2839 -0.1944
vn -0.9381 -0.2866 -0.1942
vn -0.9382 -0.2864 -0.1943
vn -0.9425 -0.2713 -0.1952
vn -0.9425 -0.2713 -0.1951
vn -0.9424 -0.2715 -0.1951
usemtl None
s 1
f 72//36 67//37 68//38
f 67//37 77//39 66//40
f 67//37 66//40 69//38
f 66//40 71//41 70//38
f 69//38 66//40 70//38
f 69//38 68//38 67//37
f 68//38 75//42 74//38
f 72//36 68//38 73//41
f 74//38 73//41 68//38
f 67//37 79//43 77//39
f 79//43 78//44 77//39
f 77//39 76//45 66//40
o 6_Vanuatu.002_sphere.001
v -4.685817 -1.394959 -1.047401
v -4.685125 -1.394959 -1.050282
v -4.688893 -1.383777 -1.048089
v -4.688356 -1.394959 -1.035138
v -4.680921 -1.411728 -1.046307
v -4.685878 -1.391122 -1.051777
v -4.686126 -1.387831 -1.054718
v -4.683983 -1.390664 -1.060227
v -4.683306 -1.391142 -1.062469
v -4.683731 -1.384848 -1.068300
v -4.687859 -1.372082 -1.066520
v -4.689177 -1.368452 -1.065415
v -4.690430 -1.367763 -1.061026
v -4.691110 -1.371135 -1.054121
v -4.688402 -1.400181 -1.027215
v -4.689148 -1.399916 -1.023999
v -4.688408 -1.404373 -1.021001
v -4.688796 -1.406610 -1.015828
v -4.687761 -1.411124 -1.014167
v -4.687167 -1.415717 -1.010259
v -4.684225 -1.421316 -1.016207
v -4.682132 -1.419863 -1.028457
v -4.678828 -1.426227 -1.035023
v -4.677994 -1.424612 -1.041434
v -4.678735 -1.421310 -1.042725
v -4.679249 -1.420173 -1.041922
v -4.688723 -1.388008 -1.043030
v -4.689149 -1.388014 -1.040963
v -4.688284 -1.392088 -1.039479
v -4.688437 -1.386201 -1.046924
v -4.684317 -1.398768 -1.048769
vn -0.9359 -0.2713 -0.2247
vn -0.9382 -0.2865 -0.1943
vn -0.9381 -0.2866 -0.1943
vn -0.9381 -0.2865 -0.1943
vn -0.9425 -0.2713 -0.1952
vn -0.9425 -0.2714 -0.1950
vn -0.9372 -0.2789 -0.2095
vn -0.9316 -0.2865 -0.2236
vn -0.9342 -0.2774 -0.2243
vn -0.9367 -0.2713 -0.2210
vn -0.9359 -0.2713 -0.2246
vn -0.9359 -0.2712 -0.2247
vn -0.9379 -0.2866 -0.1955
vn -0.9390 -0.2836 -0.1945
vn -0.9381 -0.2866 -0.1942
vn -0.9381 -0.2867 -0.1943
vn -0.9382 -0.2864 -0.1943
vn -0.9383 -0.2862 -0.1942
vn -0.9424 -0.2715 -0.1953
usemtl None
s 1
f 93//46 90//46 86//46
f 94//47 101//48 96//49
f 106//50 109//51 80//52
f 110//53 80//52 81//54
f 81//54 80//52 85//46
f 80//52 82//55 85//46
f 82//55 93//46 86//46
f 93//46 92//46 90//46
f 92//46 91//56 90//46
f 90//46 89//56 86//46
f 89//56 88//46 87//57
f 86//46 89//56 87//57
f 86//46 85//46 82//55
f 80//52 84//58 83//59
f 84//58 105//48 101//48
f 83//59 84//58 94//47
f 105//48 104//60 103//61
f 103//61 102//48 105//48
f 102//48 101//48 105//48
f 101//48 100//49 98//49
f 100//49 99//48 98//49
f 98//49 97//62 96//49
f 94//47 84//58 101//48
f 96//49 95//63 94//47
f 101//48 98//49 96//49
f 80//52 83//59 108//50
f 108//50 107//64 106//50
f 109//51 82//55 80//52
f 108//50 106//50 80//52
f 110//53 84//58 80//52
o 7_Vanuatu.002_sphere.001
v -4.692317 -1.357119 -1.066019
v -4.691743 -1.351647 -1.075018
v -4.693673 -1.346354 -1.073371
v -4.695405 -1.348286 -1.063823
v -4.693278 -1.354926 -1.064664
vn -0.9359 -0.2714 -0.2246
vn -0.9359 -0.2712 -0.2246
vn -0.9359 -0.2713 -0.2246
usemtl None
s 1
f 112//65 111//66 115//67
f 114//67 113//65 115//67
f 113//65 112//65 115//67
o 8_Vanuatu.002_sphere.001
v -4.704676 -1.375636 -0.983194
v -4.705457 -1.371765 -0.984807
v -4.710171 -1.351192 -0.990639
v -4.715879 -1.332797 -0.988650
v -4.715202 -1.336701 -0.986490
v -4.707739 -1.368947 -0.977703
v -4.706086 -1.374233 -0.978334
v -4.704993 -1.375517 -0.981830
vn -0.9425 -0.2713 -0.1951
vn -0.9425 -0.2713 -0.1952
vn -0.9424 -0.2713 -0.1952
vn -0.9424 -0.2714 -0.1952
vn -0.9424 -0.2713 -0.1954
vn -0.9425 -0.2712 -0.1952
usemtl None
s 1
f 122//68 121//68 117//69
f 121//68 120//70 118//69
f 120//70 119//71 118//69
f 118//69 117//69 121//68
f 117//69 116//72 123//73
f 123//73 122//68 117//69
o 9_Vanuatu.002_sphere.001
v -4.714985 -1.319368 -1.011634
v -4.716711 -1.319368 -1.003302
v -4.710024 -1.334510 -1.014538
v -4.708000 -1.334173 -1.024780
v -4.707812 -1.332014 -1.028691
v -4.713645 -1.320257 -1.016867
v -4.712234 -1.330644 -1.009246
v -4.717304 -1.317805 -1.002481
vn -0.9425 -0.2713 -0.1952
vn -0.9424 -0.2714 -0.1952
vn -0.9452 -0.2611 -0.1957
vn -0.9466 -0.2560 -0.1960
vn -0.9427 -0.2706 -0.1953
vn -0.9425 -0.2713 -0.1951
usemtl None
s 1
f 126//74 130//74 129//75
f 125//76 131//77 124//78
f 125//76 124//78 130//74
f 124//78 129//75 130//74
f 129//75 128//79 127//79
f 127//79 126//74 129//75
o 10_Vanuatu.002_sphere.001
v -4.719057 -1.319368 -0.991970
v -4.720077 -1.319368 -0.987047
v -4.724877 -1.295302 -0.995332
v -4.725670 -1.292943 -0.994587
v -4.726089 -1.292751 -0.992820
v -4.722345 -1.310502 -0.987685
v -4.717733 -1.326819 -0.988006
v -4.718687 -1.320795 -0.991774
v -4.719465 -1.321608 -0.986887
vn -0.9465 -0.2563 -0.1960
vn -0.9446 -0.2635 -0.1956
vn -0.9425 -0.2713 -0.1951
vn -0.9425 -0.2712 -0.1951
vn -0.9445 -0.2638 -0.1955
vn -0.9465 -0.2564 -0.1960
vn -0.9464 -0.2565 -0.1960
vn -0.9425 -0.2714 -0.1951
usemtl None
s 1
f 134//80 132//81 137//80
f 139//82 140//83 133//84
f 132//81 133//84 137//80
f 137//80 136//85 134//80
f 136//85 135//86 134//80
f 133//84 132//81 139//82
f 139//82 138//87 140//83
o 11_Vanuatu.002_sphere.001
v -4.691682 -1.319368 -1.114252
v -4.701985 -1.319368 -1.071335
v -4.698162 -1.307201 -1.101082
v -4.699647 -1.307154 -1.094946
v -4.700783 -1.305675 -1.091896
v -4.703336 -1.299158 -1.088665
v -4.706376 -1.288891 -1.087663
v -4.707523 -1.287438 -1.084532
v -4.708201 -1.288547 -1.080452
v -4.706940 -1.291803 -1.082005
v -4.705092 -1.300040 -1.080345
v -4.704664 -1.304580 -1.076972
v -4.704948 -1.305406 -1.074853
v -4.693793 -1.311760 -1.114099
v -4.699285 -1.281259 -1.125866
v -4.701224 -1.273656 -1.126427
v -4.704610 -1.263690 -1.123643
v -4.705513 -1.263276 -1.120351
v -4.704453 -1.271566 -1.115347
v -4.704089 -1.279320 -1.108060
v -4.700270 -1.326851 -1.069441
v -4.699415 -1.331313 -1.067618
v -4.698398 -1.334918 -1.067502
v -4.694140 -1.342869 -1.075632
v -4.691123 -1.342601 -1.088521
v -4.687641 -1.347366 -1.097273
v -4.686399 -1.347061 -1.102815
v -4.687902 -1.341633 -1.103106
v -4.687902 -1.337338 -1.108293
v -4.689101 -1.328117 -1.114436
vn -0.9399 -0.2563 -0.2257
vn -0.9399 -0.2563 -0.2256
vn -0.9359 -0.2713 -0.2247
vn -0.9377 -0.2647 -0.2251
vn -0.9378 -0.2642 -0.2251
vn -0.9398 -0.2563 -0.2258
vn -0.9399 -0.2562 -0.2257
vn -0.9399 -0.2561 -0.2257
vn -0.9399 -0.2560 -0.2257
vn -0.9398 -0.2564 -0.2256
vn -0.9359 -0.2713 -0.2246
vn -0.9359 -0.2712 -0.2246
vn -0.9359 -0.2712 -0.2247
usemtl None
s 1
f 152//88 151//89 145//89
f 161//90 142//91 165//90
f 141//92 142//91 144//89
f 142//91 153//93 152//88
f 142//91 152//88 145//89
f 144//89 142//91 145//89
f 156//89 155//89 159//89
f 155//89 154//88 160//88
f 159//89 155//89 160//88
f 154//88 141//92 143//88
f 157//89 156//89 159//89
f 159//89 158//89 157//89
f 143//88 160//88 154//88
f 150//94 149//95 148//96
f 148//96 147//95 150//94
f 147//95 146//97 150//94
f 151//89 150//94 146//97
f 151//89 146//97 145//89
f 144//89 143//88 141//92
f 142//91 141//92 165//90
f 141//92 170//98 169//90
f 165//90 141//92 169//90
f 169//90 168//90 165//90
f 168//90 167//99 166//100
f 165//90 164//90 161//90
f 164//90 163//100 162//100
f 161//90 164//90 162//100
f 168//90 166//100 165//90
o 12_Vanuatu.002_sphere.001
v -4.730545 -1.235916 -1.044991
v -4.728942 -1.234532 -1.054427
v -4.728755 -1.233410 -1.056706
v -4.730606 -1.226288 -1.056492
v -4.731690 -1.223820 -1.054278
v -4.733397 -1.221569 -1.048794
v -4.734128 -1.225077 -1.040968
v -4.732305 -1.231610 -1.041770
vn -0.9503 -0.2411 -0.1968
vn -0.9503 -0.2410 -0.1968
vn -0.9504 -0.2410 -0.1967
usemtl None
s 1
f 171//101 178//101 175//102
f 177//102 176//102 178//101
f 176//102 175//102 178//101
f 175//102 174//102 172//102
f 174//102 173//103 172//102
f 172//102 171//101 175//102
o 13_Vanuatu.002_sphere.001
v -4.739279 -1.189769 -1.059352
v -4.738475 -1.193084 -1.059173
v -4.738658 -1.191648 -1.059939
v -4.737458 -1.202532 -1.052508
v -4.737218 -1.201877 -1.054469
v -4.739769 -1.188225 -1.058882
v -4.741844 -1.184937 -1.052887
v -4.741604 -1.190614 -1.047091
v -4.740942 -1.193782 -1.046407
v -4.740283 -1.196464 -1.046303
v -4.739542 -1.198795 -1.047027
v -4.738544 -1.199775 -1.050642
v -4.737912 -1.201692 -1.051346
vn -0.9497 -0.2410 -0.2000
vn -0.9438 -0.2411 -0.2262
vn -0.9495 -0.2410 -0.2010
vn -0.9503 -0.2412 -0.1967
vn -0.9503 -0.2410 -0.1968
vn -0.9503 -0.2412 -0.1968
vn -0.9503 -0.2413 -0.1968
vn -0.9503 -0.2414 -0.1967
vn -0.9502 -0.2416 -0.1967
vn -0.9503 -0.2412 -0.1966
usemtl None
s 1
f 179//104 181//105 180//106
f 188//107 187//108 190//109
f 179//104 180//106 186//108
f 180//106 183//110 190//109
f 183//110 182//111 191//112
f 190//109 189//110 188//107
f 183//110 191//112 190//109
f 184//113 179//104 185//109
f 180//106 190//109 187//108
f 186//108 180//106 187//108
f 186//108 185//109 179//104
