# Blender v2.81 (sub 16) OBJ File: ''
# www.blender.org
mtllib Western Sahara.mtl
o 0_Western_Sahara.002_sphere.001
v 4.400180 2.269951 0.696926
v 4.434855 2.199694 0.702418
v 4.376117 2.269951 0.834795
v 4.410603 2.199694 0.841374
v 4.447265 2.057570 0.994087
v 4.478258 1.985738 1.001014
v 4.502823 1.840621 1.156134
v 4.478202 1.913415 1.132410
v 4.498816 1.913415 1.046551
v 4.420195 2.128895 0.962677
v 4.424525 2.128895 0.941768
v 4.432900 2.089499 0.990877
v 4.510977 1.818863 1.158228
v 4.438739 2.191503 0.703034
v 4.378059 2.269951 0.823667
v 4.392774 2.269951 0.739358
v 4.375540 2.271083 0.834684
v 4.467877 1.830956 1.298044
v 4.472436 1.818685 1.299369
v 4.528690 1.840621 1.048393
v 4.456681 2.057570 0.948621
v 4.403656 2.269951 0.672497
v 4.482302 1.975951 1.001919
v 4.437608 2.057570 1.034311
v 4.373714 2.269951 0.846397
v 4.414477 2.191480 0.842113
v 4.485308 1.985738 0.966968
v 4.438369 2.199694 0.677727
v 4.451643 1.985738 1.111874
v 4.395965 2.199694 0.912056
v 4.396578 2.276972 0.696355
v 4.497024 1.840621 1.177335
v 4.486702 1.881717 1.151995
v 4.495152 1.847021 1.174355
v 4.493569 1.852717 1.171400
v 4.491127 1.858388 1.171624
v 4.489645 1.861628 1.172068
v 4.489121 1.865687 1.167753
v 4.487859 1.872180 1.162403
v 4.487556 1.876228 1.157297
v 4.486712 1.879476 1.155400
v 4.507941 1.818759 1.169477
v 4.503064 1.818649 1.187467
v 4.498167 1.818578 1.205470
v 4.493267 1.818533 1.223447
v 4.488355 1.818515 1.241431
v 4.483428 1.818535 1.259409
v 4.478508 1.818556 1.277366
v 4.473553 1.818653 1.295337
v 4.468078 1.830942 1.297333
v 4.470729 1.832446 1.285435
v 4.473308 1.832427 1.276037
v 4.477262 1.831577 1.262827
v 4.480900 1.829873 1.252028
v 4.484714 1.828258 1.240458
v 4.488357 1.828259 1.227138
v 4.491654 1.827467 1.216247
v 4.495496 1.827491 1.202168
v 4.497984 1.828321 1.191857
v 4.498384 1.832393 1.184426
v 4.395956 2.199814 0.911804
v 4.394012 2.204401 0.909890
v 4.392313 2.208351 0.908358
v 4.389919 2.214777 0.904089
v 4.388265 2.219878 0.899509
v 4.387230 2.222996 0.896821
v 4.385234 2.228414 0.893108
v 4.383965 2.232334 0.889584
v 4.382666 2.237276 0.883681
v 4.381732 2.241181 0.878564
v 4.380136 2.245119 0.876568
v 4.377810 2.249867 0.876106
v 4.375254 2.253657 0.879109
v 4.371324 2.260672 0.880803
v 4.372292 2.262840 0.870788
v 4.372909 2.265231 0.861915
v 4.373407 2.267546 0.853805
v 4.435183 2.065414 1.028922
v 4.433996 2.070939 1.022957
v 4.433849 2.073060 1.019384
v 4.433698 2.074908 1.016364
v 4.433550 2.078965 1.008969
v 4.433447 2.083717 1.000014
v 4.433144 2.087697 0.993420
v 4.451379 1.986464 1.111594
v 4.448386 1.995187 1.107546
v 4.445877 2.003205 1.102811
v 4.444222 2.008798 1.099113
v 4.443126 2.013541 1.094701
v 4.443061 2.016724 1.088943
v 4.443740 2.019911 1.080082
v 4.443863 2.023095 1.073540
v 4.444346 2.026309 1.065441
v 4.444986 2.028713 1.058225
v 4.445096 2.031922 1.051687
v 4.444311 2.035052 1.049033
v 4.442830 2.040655 1.044592
v 4.439664 2.051028 1.038134
v 4.437648 2.057434 1.034401
v 4.482154 1.975389 1.003552
v 4.482553 1.969023 1.013434
v 4.483068 1.960675 1.026433
v 4.483506 1.953457 1.037698
v 4.485683 1.944107 1.045585
v 4.487187 1.938989 1.048605
v 4.489169 1.933577 1.050166
v 4.491483 1.928451 1.049824
v 4.496656 1.918121 1.047012
v 4.475259 1.920590 1.131660
v 4.470030 1.934243 1.128677
v 4.466957 1.943088 1.125436
v 4.464365 1.950315 1.123127
v 4.460125 1.961550 1.120409
v 4.453334 1.980826 1.113736
v 4.499040 1.912908 1.046497
v 4.502774 1.903802 1.046741
v 4.506841 1.893886 1.046998
v 4.511237 1.883172 1.047276
v 4.515637 1.872449 1.047551
v 4.520300 1.861078 1.047852
v 4.524980 1.849669 1.048150
v 4.486669 1.882726 1.150384
v 4.485765 1.888382 1.144336
v 4.484942 1.892403 1.140788
v 4.483695 1.897979 1.136309
v 4.481963 1.902875 1.135031
v 4.479799 1.909351 1.132811
v 4.529644 1.838194 1.048439
v 4.533004 1.829636 1.048629
v 4.537260 1.818798 1.048863
v 4.534400 1.818765 1.060827
v 4.530075 1.818701 1.078949
v 4.525729 1.818690 1.097067
v 4.521376 1.818691 1.115199
v 4.517004 1.818744 1.133320
v 4.512630 1.818809 1.151437
v 4.375890 2.271506 0.831400
v 4.391748 2.273700 0.733910
v 4.391221 2.276667 0.727966
v 4.391625 2.277443 0.723307
v 4.392519 2.277454 0.718150
v 4.393456 2.277638 0.712233
v 4.395473 2.276933 0.702804
v 4.396557 2.276965 0.696491
v 4.379847 2.269135 0.815794
v 4.381975 2.266770 0.810477
v 4.385942 2.262076 0.801388
v 4.388868 2.258936 0.793747
v 4.389696 2.258945 0.788977
v 4.389852 2.260434 0.783759
v 4.389519 2.262642 0.779251
v 4.389909 2.262780 0.776613
v 4.391386 2.261185 0.772787
v 4.393996 2.258069 0.766882
v 4.395103 2.258067 0.760551
v 4.395793 2.258908 0.754154
v 4.394698 2.262813 0.749077
v 4.392998 2.269074 0.740625
v 4.398968 2.279081 0.671790
v 4.397281 2.277973 0.687726
v 4.397665 2.279233 0.680381
v 4.396921 2.281559 0.677033
v 4.395329 2.284660 0.676793
v 4.392737 2.289275 0.677988
v 4.390195 2.293746 0.679370
v 4.388030 2.297841 0.679489
v 4.385976 2.302133 0.678099
v 4.384385 2.305543 0.676702
v 4.381475 2.310993 0.677057
v 4.377858 2.317416 0.678800
v 4.376128 2.320705 0.678835
v 4.377603 2.320687 0.668542
v 4.384213 2.307812 0.669551
v 4.392330 2.292004 0.670791
v 4.406744 2.263703 0.672958
v 4.414395 2.248222 0.674099
v 4.423085 2.230634 0.675406
v 4.431738 2.213118 0.676713
v 4.438054 2.200331 0.677682
v 4.442321 2.191365 0.678338
v 4.440035 2.191441 0.694142
v 4.437788 2.191466 0.708587
v 4.435317 2.191386 0.722974
v 4.432837 2.191319 0.737362
v 4.430338 2.191288 0.751768
v 4.427835 2.191270 0.766164
v 4.425327 2.191265 0.780551
v 4.422798 2.191295 0.794956
v 4.420264 2.191338 0.809352
v 4.417737 2.191368 0.823750
v 4.415192 2.191435 0.838143
v 4.373796 2.270709 0.844059
v 4.375240 2.270747 0.836993
v 4.468229 1.818563 1.313206
v 4.462783 1.818463 1.331040
v 4.457328 1.818386 1.348870
v 4.454263 1.818374 1.358852
v 4.458901 1.803167 1.363782
v 4.462087 1.792200 1.367854
v 4.464851 1.783333 1.370537
v 4.468015 1.775803 1.370158
v 4.465274 1.779925 1.373645
v 4.451756 1.822248 1.361903
v 4.450594 1.825810 1.360996
v 4.451553 1.826582 1.356861
v 4.455588 1.829881 1.339404
v 4.458827 1.830799 1.327668
v 4.412362 2.191415 0.852481
v 4.409426 2.191360 0.866787
v 4.406487 2.191306 0.881109
v 4.403532 2.191287 0.895425
v 4.400569 2.191282 0.909742
v 4.397608 2.191277 0.924051
v 4.395218 2.191299 0.935542
v 4.399620 2.181926 0.936476
v 4.404655 2.171205 0.937545
v 4.409675 2.160510 0.938625
v 4.414713 2.149791 0.939678
v 4.419738 2.139083 0.940763
v 4.418277 2.133518 0.960994
v 4.413010 2.146108 0.956618
v 4.409808 2.153944 0.953528
v 4.405859 2.163390 0.950234
v 4.403147 2.170525 0.946434
v 4.399945 2.178360 0.943349
v 4.398792 2.181494 0.941494
v 4.396951 2.185414 0.941104
v 4.394674 2.190948 0.938998
v 4.394543 2.191371 0.938630
v 4.393674 2.194097 0.936369
v 4.394074 2.195613 0.930849
v 4.394592 2.197218 0.924550
v 4.396020 2.198441 0.914757
v 4.424761 2.128372 0.941819
v 4.429634 2.117563 0.942854
v 4.434489 2.106790 0.943899
v 4.439358 2.095993 0.944931
v 4.444220 2.085207 0.945969
v 4.449089 2.074411 0.947002
v 4.453959 2.063614 0.948026
v 4.432528 2.091722 0.987620
v 4.432117 2.094784 0.982644
v 4.431096 2.099541 0.976760
v 4.429798 2.103501 0.974026
v 4.427242 2.110604 0.970225
v 4.423027 2.121744 0.965259
v 4.458740 2.052806 0.949062
v 4.463444 2.041933 0.950051
v 4.468138 2.031071 0.951061
v 4.472842 2.020197 0.952051
v 4.477530 2.009346 0.953064
v 4.481735 1.999626 0.953950
v 4.485371 1.990948 0.955311
v 4.485504 1.988390 0.960243
v 4.485135 1.983793 0.971867
v 4.484706 1.979064 0.983808
v 4.482553 1.976946 0.998632
vn 0.8741 0.4610 0.1526
vn 0.8742 0.4609 0.1526
vn 0.8800 0.4539 0.1394
vn 0.8812 0.4469 0.1538
vn 0.8821 0.4399 0.1682
vn 0.8813 0.4469 0.1538
vn 0.8688 0.4613 0.1800
vn 0.8751 0.4486 0.1812
vn 0.8753 0.4538 0.1670
vn 0.8759 0.4470 0.1814
vn 0.8759 0.4470 0.1813
vn 0.8895 0.4115 0.1988
vn 0.8831 0.4186 0.2120
vn 0.8893 0.4043 0.2135
vn 0.8894 0.4042 0.2135
vn 0.8957 0.3971 0.2002
vn 0.8940 0.3753 0.2445
vn 0.9006 0.3681 0.2312
vn 0.8940 0.3753 0.2446
vn 0.8996 0.3608 0.2461
vn 0.8954 0.3899 0.2149
vn 0.8954 0.3899 0.2150
vn 0.8954 0.3898 0.2149
vn 0.8987 0.3817 0.2157
vn 0.9012 0.3754 0.2163
vn 0.9013 0.3753 0.2164
vn 0.9068 0.3609 0.2177
vn 0.9069 0.3608 0.2177
vn 0.9070 0.3605 0.2177
vn 0.8742 0.4610 0.1525
vn 0.8807 0.4479 0.1537
vn 0.8786 0.4609 0.1250
vn 0.8786 0.4609 0.1251
vn 0.8870 0.4399 0.1405
vn 0.8856 0.4469 0.1260
vn 0.8925 0.4328 0.1270
vn 0.8888 0.4404 0.1265
vn 0.8881 0.4328 0.1550
vn 0.8914 0.3608 0.2742
vn 0.8827 0.4328 0.1828
vn 0.8828 0.4327 0.1829
vn 0.8893 0.4186 0.1842
vn 0.8893 0.4186 0.1841
vn 0.8892 0.4187 0.1841
vn 0.8956 0.4043 0.1855
vn 0.9016 0.3900 0.1867
vn 0.8964 0.4024 0.1856
vn 0.8796 0.4502 0.1535
vn 0.8765 0.4611 0.1385
vn 0.8741 0.4610 0.1530
vn 0.8743 0.4607 0.1526
vn 0.8742 0.4610 0.1526
vn 0.8742 0.4608 0.1526
vn 0.8812 0.4470 0.1538
vn 0.8810 0.4474 0.1537
vn 0.8814 0.4466 0.1538
vn 0.8813 0.4467 0.1538
vn 0.8722 0.4605 0.1650
vn 0.8692 0.4606 0.1800
vn 0.8760 0.4469 0.1814
vn 0.8748 0.4493 0.1813
vn 0.8814 0.4356 0.1826
vn 0.8756 0.4474 0.1821
vn 0.8759 0.4469 0.1814
vn 0.8877 0.4081 0.2131
vn 0.8830 0.4186 0.2120
vn 0.8876 0.4187 0.1920
vn 0.8830 0.4187 0.2120
vn 0.8928 0.3962 0.2144
vn 0.8892 0.4046 0.2135
vn 0.8893 0.4042 0.2135
vn 0.8896 0.4037 0.2136
vn 0.8892 0.4045 0.2136
vn 0.8895 0.4040 0.2135
vn 0.8894 0.4043 0.2133
vn 0.8895 0.4040 0.2134
vn 0.8976 0.3661 0.2455
vn 0.8940 0.3754 0.2446
vn 0.8991 0.3754 0.2250
vn 0.8939 0.3755 0.2445
vn 0.8940 0.3754 0.2445
vn 0.8957 0.3608 0.2600
vn 0.8955 0.3609 0.2602
vn 0.8996 0.3608 0.2459
vn 0.8995 0.3609 0.2461
vn 0.9033 0.3608 0.2319
vn 0.8984 0.3826 0.2157
vn 0.8954 0.3898 0.2150
vn 0.8979 0.3899 0.2039
vn 0.9043 0.3676 0.2171
vn 0.9013 0.3753 0.2163
vn 0.9012 0.3753 0.2163
vn 0.9012 0.3753 0.2164
vn 0.9010 0.3765 0.2154
vn 0.8821 0.4539 0.1255
vn 0.8785 0.4610 0.1250
vn 0.8786 0.4608 0.1251
vn 0.8785 0.4610 0.1251
vn 0.8784 0.4612 0.1251
vn 0.8854 0.4474 0.1260
vn 0.8903 0.4329 0.1410
vn 0.8855 0.4328 0.1689
vn 0.8880 0.4329 0.1550
vn 0.8881 0.4327 0.1550
vn 0.8881 0.4326 0.1550
vn 0.8881 0.4328 0.1549
vn 0.8878 0.4333 0.1549
vn 0.8879 0.4331 0.1549
vn 0.8880 0.4328 0.1549
vn 0.8915 0.3606 0.2741
vn 0.8914 0.3609 0.2742
vn 0.8914 0.3607 0.2741
vn 0.8914 0.3609 0.2743
vn 0.8865 0.4247 0.1836
vn 0.8861 0.4255 0.1835
vn 0.8827 0.4329 0.1827
vn 0.8828 0.4328 0.1828
vn 0.8826 0.4330 0.1829
vn 0.8827 0.4330 0.1827
vn 0.8827 0.4328 0.1827
vn 0.8925 0.4115 0.1848
vn 0.8894 0.4183 0.1842
vn 0.8956 0.4042 0.1855
vn 0.8955 0.4044 0.1856
vn 0.9017 0.3899 0.1867
vn 0.9018 0.3898 0.1867
usemtl None
s 1
f 142//1 141//2 1//3
f 149//4 4//5 154//6
f 192//7 25//8 3//9
f 4//5 71//10 70//11
f 5//12 83//13 82//13
f 97//14 96//15 6//16
f 35//17 7//18 38//19
f 60//20 59//20 43//20
f 105//21 104//22 113//23
f 9//24 127//25 116//26
f 131//27 129//28 128//29
f 137//30 3//9 15//31
f 164//32 163//33 174//32
f 1//3 2//34 177//35
f 181//36 28//37 2//34
f 2//34 4//5 186//38
f 197//39 196//39 205//39
f 227//40 226//41 215//40
f 236//42 245//43 244//44
f 248//45 247//45 5//12
f 255//46 27//47 6//16
f 16//48 1//3 141//2
f 1//3 31//49 144//50
f 1//3 144//50 143//2
f 139//51 138//52 140//53
f 138//52 16//48 141//2
f 141//2 140//53 138//52
f 143//2 142//1 1//3
f 4//5 2//34 154//6
f 2//34 1//3 157//4
f 156//54 2//34 157//4
f 1//3 16//48 158//54
f 158//54 157//4 1//3
f 15//31 3//9 4//5
f 146//54 145//55 15//31
f 147//4 146//54 4//5
f 146//54 15//31 4//5
f 2//34 156//54 155//4
f 2//34 155//4 154//6
f 148//6 147//4 4//5
f 154//6 153//56 150//6
f 153//56 152//57 151//54
f 150//6 153//56 151//54
f 149//4 148//6 4//5
f 150//6 149//4 154//6
f 3//9 17//58 193//59
f 193//59 192//7 3//9
f 4//5 3//9 71//10
f 3//9 25//8 77//60
f 3//9 77//60 71//10
f 61//61 30//62 4//5
f 64//10 63//63 62//64
f 62//64 61//61 4//5
f 77//60 76//60 71//10
f 75//64 74//10 73//60
f 76//60 75//64 72//60
f 71//10 76//60 72//60
f 64//10 62//64 4//5
f 65//10 64//10 4//5
f 75//64 73//60 72//60
f 66//10 65//10 4//5
f 68//64 67//60 4//5
f 67//60 66//10 4//5
f 70//11 69//60 4//5
f 69//60 68//64 4//5
f 24//65 5//12 78//66
f 5//12 12//67 84//13
f 5//12 84//13 83//13
f 79//13 78//66 5//12
f 82//13 81//68 5//12
f 81//68 80//68 5//12
f 80//68 79//13 5//12
f 29//69 6//16 85//70
f 6//16 5//12 97//14
f 85//70 6//16 91//71
f 5//12 24//65 99//72
f 5//12 99//72 98//14
f 95//14 6//16 96//15
f 87//73 86//74 91//71
f 86//74 85//70 91//71
f 89//75 88//76 90//14
f 88//76 87//73 90//14
f 91//71 90//14 87//73
f 93//14 92//15 6//16
f 92//15 91//71 6//16
f 94//14 93//14 6//16
f 6//16 95//14 94//14
f 5//12 98//14 97//14
f 32//77 7//18 34//78
f 7//18 33//79 40//17
f 33//79 41//80 40//17
f 40//17 39//17 7//18
f 39//17 38//19 7//18
f 38//19 37//80 36//81
f 35//17 34//78 7//18
f 38//19 36//81 35//17
f 18//82 19//83 50//84
f 19//83 49//85 50//84
f 49//85 48//20 51//20
f 48//20 47//20 53//20
f 52//20 48//20 53//20
f 47//20 46//20 54//20
f 46//20 45//20 56//20
f 55//20 46//20 56//20
f 45//20 44//20 57//20
f 44//20 43//20 59//20
f 57//20 44//20 58//20
f 43//20 42//20 60//20
f 42//20 13//86 7//18
f 60//20 42//20 32//77
f 7//18 32//77 42//20
f 48//20 52//20 51//20
f 46//20 55//20 54//20
f 51//20 50//84 49//85
f 54//20 53//20 47//20
f 57//20 56//20 45//20
f 58//20 44//20 59//20
f 8//87 9//24 108//88
f 8//87 108//88 107//21
f 110//21 109//22 107//21
f 109//22 8//87 107//21
f 110//21 107//21 106//21
f 111//21 110//21 106//21
f 111//21 106//21 112//88
f 106//21 105//21 112//88
f 112//88 105//21 113//23
f 114//21 113//23 104//22
f 114//21 104//22 103//88
f 6//16 29//69 102//23
f 29//69 114//21 103//88
f 102//23 29//69 103//88
f 100//22 23//89 6//16
f 102//23 101//21 6//16
f 101//21 100//22 6//16
f 7//18 20//90 121//91
f 120//92 119//92 124//26
f 119//92 118//25 125//92
f 7//18 121//91 120//92
f 122//93 33//79 7//18
f 123//26 122//93 7//18
f 7//18 120//92 123//26
f 119//92 125//92 124//26
f 118//25 117//92 125//92
f 124//26 123//26 120//92
f 127//25 126//25 116//26
f 126//25 125//92 117//92
f 116//26 126//25 117//92
f 116//26 115//94 9//24
f 9//24 8//87 127//25
f 7//18 13//86 136//28
f 136//28 135//28 7//18
f 135//28 134//28 7//18
f 134//28 133//28 7//18
f 133//28 132//27 20//90
f 20//90 132//27 128//29
f 131//27 130//27 129//28
f 132//27 131//27 128//29
f 20//90 7//18 133//28
f 137//30 17//58 3//9
f 1//3 22//95 160//32
f 22//95 159//33 161//32
f 160//32 22//95 161//32
f 174//32 173//33 167//96
f 173//33 172//33 169//33
f 170//32 172//33 171//97
f 31//49 1//3 160//32
f 172//33 170//32 169//33
f 162//98 161//32 159//33
f 173//33 169//33 168//99
f 162//98 159//33 163//33
f 159//33 174//32 163//33
f 173//33 168//99 167//96
f 167//96 166//96 174//32
f 166//96 165//32 174//32
f 165//32 164//32 174//32
f 2//34 28//37 179//100
f 179//100 178//35 2//34
f 178//35 177//35 2//34
f 177//35 176//35 1//3
f 176//35 175//35 1//3
f 175//35 22//95 1//3
f 2//34 14//101 181//36
f 181//36 180//36 28//37
f 4//5 26//102 191//103
f 191//103 190//104 4//5
f 190//104 189//105 4//5
f 189//105 188//106 4//5
f 188//106 187//107 4//5
f 187//107 186//38 4//5
f 186//38 185//38 2//34
f 185//38 184//108 2//34
f 184//108 183//38 2//34
f 183//38 182//109 2//34
f 182//109 14//101 2//34
f 19//83 18//82 194//39
f 18//82 207//39 194//39
f 207//39 206//39 195//39
f 206//39 205//39 196//39
f 195//39 206//39 196//39
f 205//39 204//110 203//39
f 202//39 201//39 200//111
f 199//112 198//113 203//39
f 198//113 197//39 203//39
f 202//39 200//111 199//112
f 205//39 203//39 197//39
f 203//39 202//39 199//112
f 195//39 194//39 207//39
f 10//114 11//115 220//40
f 11//115 219//40 220//40
f 219//40 218//40 221//40
f 218//40 217//40 222//40
f 217//40 216//40 224//40
f 216//40 215//40 225//40
f 224//40 216//40 225//40
f 214//40 213//40 231//40
f 213//40 212//40 233//40
f 215//40 214//40 227//40
f 218//40 222//40 221//40
f 220//40 219//40 221//40
f 213//40 233//40 232//116
f 212//40 211//117 30//62
f 233//40 212//40 30//62
f 222//40 217//40 223//40
f 224//40 223//40 217//40
f 211//117 210//117 30//62
f 210//117 209//40 4//5
f 209//40 208//40 4//5
f 208//40 26//102 4//5
f 4//5 30//62 210//117
f 232//116 231//40 213//40
f 231//40 230//118 214//40
f 230//118 229//119 214//40
f 229//119 228//120 214//40
f 228//120 227//40 214//40
f 226//41 225//40 215//40
f 5//12 21//121 240//43
f 5//12 240//43 239//43
f 241//43 12//67 5//12
f 242//42 241//43 239//43
f 241//43 5//12 239//43
f 239//43 238//43 242//42
f 238//43 237//43 243//44
f 237//43 236//42 244//44
f 238//43 243//44 242//42
f 236//42 235//43 245//43
f 235//43 234//122 10//114
f 246//43 235//43 10//114
f 234//122 11//115 10//114
f 235//43 246//43 245//43
f 243//44 237//43 244//44
f 6//16 27//47 251//123
f 27//47 254//45 252//45
f 251//123 27//47 252//45
f 254//45 253//124 252//45
f 251//123 250//45 6//16
f 250//45 249//123 5//12
f 6//16 250//45 5//12
f 247//45 21//121 5//12
f 249//123 248//45 5//12
f 6//16 23//89 257//125
f 257//125 256//126 6//16
f 256//126 255//46 6//16
