# Blender v2.81 (sub 16) OBJ File: ''
# www.blender.org
mtllib Yemen.mtl
o 0_Yemen.002_sphere.001
v 2.868149 1.090714 -3.947663
v 2.870876 1.069170 -3.951416
v 2.842291 1.090714 -3.965837
v 2.867444 1.095890 -3.946692
v 2.909849 1.090714 -3.916354
v 2.879791 1.092772 -3.938326
v 2.872998 1.095741 -3.942565
v 2.908382 1.093422 -3.916671
v 2.906193 1.095997 -3.917568
v 2.898471 1.100452 -3.922075
v 2.891514 1.099751 -3.927502
v 2.883854 1.093781 -3.934983
v 2.833068 1.086584 -3.973406
v 2.837617 1.084075 -3.970868
v 2.840561 1.080662 -3.969697
v 2.850907 1.077558 -3.963243
v 2.861712 1.070253 -3.957571
v 2.890327 1.066663 -3.937486
v 2.898332 1.068635 -3.930945
v 2.904175 1.075697 -3.924657
v 2.915499 1.084883 -3.913681
v 2.854356 1.096108 -3.955829
vn 0.5863 0.2153 -0.7809
vn 0.5849 0.2258 -0.7790
vn 0.5849 0.2257 -0.7791
vn 0.5619 0.2121 -0.7995
vn 0.5736 0.2181 -0.7895
vn 0.5621 0.2104 -0.7998
vn 0.5870 0.2105 -0.7818
vn 0.5870 0.2104 -0.7818
vn 0.5602 0.2257 -0.7970
vn 0.5725 0.2258 -0.7882
vn 0.5849 0.2257 -0.7790
vn 0.5853 0.2254 -0.7788
vn 0.5754 0.2105 -0.7903
vn 0.5621 0.2105 -0.7998
vn 0.5622 0.2104 -0.7998
vn 0.5869 0.2105 -0.7818
usemtl None
s 1
f 5//1 6//2 12//3
f 3//4 1//5 16//6
f 20//7 18//8 1//5
f 22//9 1//5 3//4
f 1//5 4//10 7//11
f 1//5 7//11 6//2
f 8//12 5//1 9//3
f 5//1 1//5 6//2
f 10//11 9//3 5//1
f 12//3 11//2 5//1
f 11//2 10//11 5//1
f 1//5 2//13 17//14
f 16//6 15//6 3//4
f 15//6 14//6 3//4
f 1//5 17//14 16//6
f 13//15 3//4 14//6
f 1//5 5//1 20//7
f 5//1 21//7 20//7
f 20//7 19//16 18//8
f 18//8 2//13 1//5
f 22//9 4//10 1//5
o 1_Yemen.002_sphere.001
v 3.570610 1.181812 -3.293686
v 3.566808 1.188546 -3.295379
v 3.563921 1.189926 -3.298042
v 3.563226 1.189661 -3.298903
v 3.566372 1.184418 -3.297381
vn 0.7178 0.2410 -0.6532
vn 0.7179 0.2409 -0.6531
usemtl None
s 1
f 24//17 23//17 27//17
f 26//18 25//18 27//17
f 25//18 24//17 27//17
o 2_Yemen.002_sphere.001
v 3.561506 1.205255 -3.295039
v 3.562497 1.205646 -3.293805
v 3.565198 1.210127 -3.289184
v 3.560384 1.215190 -3.292605
v 3.559158 1.210507 -3.295681
v 3.560418 1.207059 -3.295569
vn 0.7178 0.2410 -0.6532
vn 0.7179 0.2410 -0.6531
vn 0.7179 0.2411 -0.6530
vn 0.7181 0.2408 -0.6529
usemtl None
s 1
f 32//19 29//20 33//21
f 32//19 31//19 30//19
f 30//19 29//20 32//19
f 29//20 28//22 33//21
o 3_Yemen.002_sphere.001
v 3.552299 1.319363 -3.261159
v 3.550325 1.319363 -3.263328
v 3.552353 1.317606 -3.261791
v 3.552225 1.320899 -3.260597
v 3.549508 1.328242 -3.260506
v 3.547238 1.330359 -3.262113
v 3.547100 1.324944 -3.264534
v 3.548514 1.321942 -3.264238
v 3.550164 1.319501 -3.263448
vn 0.7132 0.2650 -0.6489
vn 0.7150 0.2559 -0.6505
vn 0.7130 0.2674 -0.6482
vn 0.7118 0.2714 -0.6478
vn 0.7118 0.2713 -0.6478
vn 0.7118 0.2715 -0.6477
vn 0.7121 0.2709 -0.6477
usemtl None
s 1
f 34//23 36//24 35//25
f 40//26 39//27 38//27
f 34//23 35//25 37//28
f 35//25 42//29 37//28
f 42//29 41//26 37//28
f 41//26 40//26 38//27
f 37//28 41//26 38//27
o 4_Yemen.002_sphere.001
v 2.914549 1.545083 -3.757408
v 2.929064 1.470200 -3.776119
v 2.942856 1.394954 -3.793902
v 3.031134 1.545083 -3.664006
v 3.046229 1.470200 -3.682252
v 3.060574 1.394954 -3.699593
v 3.074162 1.319363 -3.716018
v 3.144728 1.545083 -3.566987
v 3.160389 1.470200 -3.584750
v 3.175271 1.394954 -3.601632
v 3.189369 1.319363 -3.617623
v 3.202680 1.243447 -3.632721
v 3.271429 1.470200 -3.483711
v 3.286834 1.394954 -3.500117
v 3.301427 1.319363 -3.515657
v 3.315206 1.243447 -3.530330
v 3.328167 1.167225 -3.544132
v 3.379241 1.470200 -3.379234
v 3.395154 1.394954 -3.395148
v 3.410228 1.319363 -3.410222
v 3.424461 1.243447 -3.424454
v 3.437849 1.167225 -3.437843
v 3.483718 1.470200 -3.271422
v 3.500123 1.394954 -3.286829
v 3.515663 1.319363 -3.301421
v 3.530336 1.243447 -3.315200
v 3.544721 1.319363 -3.269487
v 3.542458 1.319363 -3.271974
v 3.538626 1.319363 -3.276186
v 3.538083 1.200665 -3.322474
v 2.945126 1.381826 -3.796827
v 2.947902 1.365761 -3.800407
v 2.950903 1.348401 -3.804276
v 3.078965 1.290945 -3.721824
v 2.883852 1.470200 -3.810065
v 3.487434 1.470200 -3.267339
v 3.478586 1.492462 -3.266603
v 3.479705 1.487606 -3.267654
v 3.481266 1.480837 -3.269120
v 3.267459 1.470200 -3.487324
v 3.232717 1.470200 -3.518937
v 3.138044 1.575376 -3.559406
v 3.540364 1.167225 -3.332056
v 2.958780 1.619585 -3.690126
v 2.910886 1.619585 -3.728496
v 3.540070 1.243447 -3.304502
v 3.017334 1.609973 -3.647324
v 2.906138 1.586213 -3.746565
v 3.328565 1.164717 -3.544555
v 2.938880 1.394954 -3.796887
v 3.269909 1.477220 -3.482093
v 3.521580 1.394954 -3.263247
v 3.373118 1.497583 -3.373111
v 3.447496 1.108365 -3.447490
v 3.207599 1.213504 -3.638300
v 3.175361 1.243447 -3.656054
v 2.900006 1.545083 -3.768328
v 3.323885 1.167225 -3.548028
v 3.000901 1.319363 -3.774712
v 3.178948 1.545083 -3.535849
v 3.329291 1.164309 -3.543984
v 3.337391 1.161467 -3.537051
v 3.347472 1.159962 -3.527768
v 3.365604 1.160612 -3.509988
v 3.383283 1.158083 -3.493671
v 3.400036 1.153372 -3.478957
v 3.409003 1.144432 -3.473152
v 3.419881 1.130314 -3.467167
v 3.434843 1.124523 -3.454536
v 3.438968 1.119463 -3.452172
v 3.445013 1.109062 -3.449671
v 2.942826 1.622241 -3.701712
v 2.927611 1.624778 -3.712761
v 2.911922 1.627447 -3.724128
v 3.543714 1.321449 -3.269720
v 3.537935 1.321471 -3.276061
v 3.537116 1.325286 -3.275364
v 3.536892 1.349028 -3.265662
v 3.523412 1.380749 -3.267186
v 3.207980 1.213485 -3.637959
v 3.217632 1.210028 -3.630338
v 3.228449 1.209278 -3.620747
v 3.245767 1.213506 -3.603570
v 3.250895 1.210518 -3.599907
v 3.255521 1.205756 -3.597296
v 3.270778 1.197432 -3.586209
v 3.287734 1.180755 -3.576380
v 3.298832 1.176355 -3.567760
v 3.316463 1.171208 -3.553444
v 3.266849 1.468417 -3.488600
v 3.263081 1.457910 -3.496277
v 3.252846 1.457287 -3.505841
v 3.245406 1.461202 -3.511028
v 3.236979 1.466762 -3.516449
v 3.454365 1.106341 -3.441076
v 3.462617 1.104564 -3.433151
v 3.470012 1.109070 -3.424020
v 3.487459 1.096444 -3.410221
v 3.493641 1.094361 -3.404535
v 3.502527 1.093844 -3.395538
v 3.509234 1.091217 -3.389491
v 3.513608 1.091967 -3.384728
v 3.518393 1.096885 -3.378152
v 3.529288 1.102876 -3.364914
v 3.538618 1.099039 -3.356565
v 3.537358 1.110950 -3.353899
v 3.545579 1.147421 -3.333270
v 2.880883 1.454337 -3.818227
v 2.878806 1.443310 -3.823910
v 2.876743 1.432289 -3.829579
v 2.913186 1.417455 -3.807765
v 2.923271 1.410890 -3.802648
v 2.932842 1.402740 -3.798510
v 2.882960 1.465365 -3.812542
v 3.119031 1.586008 -3.570980
v 3.106322 1.593142 -3.578705
v 3.096138 1.596400 -3.585973
v 3.079652 1.599190 -3.598829
v 3.060265 1.602507 -3.613932
v 3.040867 1.605866 -3.629026
v 3.020252 1.609445 -3.645063
v 3.014574 1.312985 -3.765924
v 3.035964 1.305789 -3.751232
v 3.069525 1.297241 -3.727249
v 3.519599 1.409221 -3.259085
v 3.506566 1.420731 -3.268293
v 3.503131 1.424216 -3.270519
v 3.500915 1.427251 -3.271607
v 3.497036 1.433738 -3.272987
v 3.493172 1.435876 -3.276284
v 3.490475 1.442702 -3.276215
v 3.489858 1.446105 -3.275381
v 3.491385 1.449018 -3.272409
v 3.491304 1.456987 -3.268957
v 3.488564 1.467048 -3.267497
v 3.542624 1.210468 -3.313866
v 3.539434 1.226785 -3.311349
v 3.540087 1.238443 -3.306330
v 3.231637 1.471056 -3.519553
v 3.222844 1.488048 -3.520290
v 3.217163 1.499049 -3.520756
v 3.206901 1.511395 -3.524816
v 3.198301 1.521731 -3.528223
v 3.186934 1.535450 -3.532701
v 3.180654 1.543051 -3.535166
v 3.537122 1.179039 -3.331184
v 3.536318 1.183511 -3.330419
v 3.536623 1.197622 -3.325067
v 2.899967 1.544804 -3.768467
v 2.898609 1.536490 -3.772774
v 2.897304 1.528154 -3.777050
v 2.895930 1.519832 -3.781372
v 2.894586 1.511522 -3.785667
v 2.893226 1.503206 -3.789976
v 2.891870 1.494876 -3.794288
v 2.890559 1.486737 -3.798491
v 2.886302 1.484040 -3.802753
v 2.884972 1.476365 -3.806786
v 3.177274 1.239534 -3.655698
v 3.183384 1.232138 -3.652895
v 3.194918 1.220004 -3.647007
v 3.203154 1.213785 -3.642004
v 3.364305 1.497398 -3.381732
v 3.361731 1.497053 -3.384379
v 3.359412 1.495630 -3.387253
v 3.350854 1.488381 -3.398738
v 3.343478 1.486893 -3.406541
v 3.328430 1.484900 -3.422001
v 3.312369 1.482781 -3.438498
v 3.298382 1.481029 -3.452824
v 3.285859 1.482735 -3.464208
v 3.275440 1.484181 -3.473668
v 3.272772 1.483972 -3.476345
v 3.270695 1.479522 -3.480318
v 2.996734 1.613325 -3.662395
v 2.980594 1.615967 -3.674196
v 2.959975 1.619395 -3.689249
v 2.910845 1.619238 -3.728677
v 2.909674 1.610958 -3.733155
v 2.908508 1.602726 -3.737607
v 2.907347 1.594466 -3.742068
v 2.948075 1.374518 -3.797105
v 2.959150 1.343345 -3.799495
v 2.967844 1.339097 -3.794065
v 2.977810 1.332644 -3.788412
v 2.983497 1.331008 -3.784448
v 2.988801 1.325890 -3.782047
v 2.994520 1.322319 -3.778756
v 3.168146 1.557967 -3.539867
v 3.158005 1.563810 -3.546459
v 3.138549 1.575099 -3.559072
v 3.540006 1.250405 -3.301832
v 3.538680 1.253580 -3.302038
v 3.537994 1.256453 -3.301660
v 3.538657 1.274854 -3.293684
v 3.539341 1.278571 -3.291467
v 3.539113 1.282423 -3.290201
v 3.537158 1.285372 -3.291188
v 3.536542 1.288798 -3.290515
v 3.537695 1.294447 -3.287022
v 3.537950 1.305182 -3.282514
v 3.547541 1.313557 -3.268675
v 3.542070 1.318693 -3.272664
v 3.539577 1.316364 -3.276321
v 3.487076 1.471262 -3.267233
v 3.484171 1.478922 -3.266827
v 3.480165 1.488900 -3.266542
v 3.479257 1.491789 -3.266181
v 3.479805 1.481788 -3.270195
v 3.478365 1.484059 -3.270649
v 3.470976 1.499858 -3.271095
v 3.467856 1.502305 -3.273202
v 3.463123 1.504779 -3.276963
v 3.459882 1.504735 -3.280327
v 3.456458 1.503296 -3.284514
v 3.453610 1.501018 -3.288488
v 3.451314 1.496879 -3.292738
v 3.448933 1.492175 -3.297332
v 3.444051 1.490384 -3.303184
v 3.440340 1.490836 -3.306809
v 3.437885 1.488756 -3.310287
v 3.435165 1.489892 -3.312577
v 3.431791 1.492332 -3.314950
v 3.427333 1.492148 -3.319634
v 3.422649 1.494876 -3.323229
v 3.410828 1.496205 -3.334822
v 3.399891 1.495395 -3.346477
v 3.387756 1.497728 -3.357939
v 3.376225 1.497629 -3.369884
v 2.904955 1.577931 -3.750908
v 2.903704 1.569648 -3.755303
v 2.902466 1.561386 -3.759679
v 2.901204 1.553080 -3.764091
v 2.940756 1.392542 -3.796329
v 2.947739 1.358062 -3.803245
v 2.949554 1.349221 -3.804999
v 3.083385 1.287898 -3.719111
v 3.095504 1.281423 -3.711018
v 3.112546 1.279434 -3.697156
v 3.137030 1.270491 -3.679363
v 3.151014 1.263359 -3.669906
v 3.168880 1.251770 -3.658687
v 3.173061 1.248088 -3.656400
vn 0.5931 0.3164 -0.7403
vn 0.5930 0.3165 -0.7403
vn 0.5928 0.3173 -0.7402
vn 0.5858 0.2940 -0.7552
vn 0.6062 0.3090 -0.7328
vn 0.6092 0.2940 -0.7364
vn 0.6121 0.2790 -0.7399
vn 0.5886 0.2789 -0.7588
vn 0.6160 0.3164 -0.7213
vn 0.6289 0.3090 -0.7134
vn 0.6321 0.2940 -0.7169
vn 0.6350 0.2790 -0.7203
vn 0.6148 0.2638 -0.7432
vn 0.6379 0.2638 -0.7235
vn 0.6384 0.3164 -0.7016
vn 0.6417 0.3015 -0.7052
vn 0.6416 0.3017 -0.7051
vn 0.6448 0.2865 -0.7086
vn 0.6574 0.2790 -0.7000
vn 0.6603 0.2638 -0.7031
vn 0.6405 0.2487 -0.7265
vn 0.6630 0.2487 -0.7060
vn 0.6635 0.3015 -0.6847
vn 0.6758 0.2940 -0.6758
vn 0.6543 0.2940 -0.6967
vn 0.6790 0.2790 -0.6790
vn 0.6820 0.2638 -0.6820
vn 0.6849 0.2487 -0.6849
vn 0.6656 0.2334 -0.7088
vn 0.6876 0.2334 -0.6876
vn 0.6847 0.3015 -0.6635
vn 0.6847 0.3014 -0.6635
vn 0.6967 0.2940 -0.6543
vn 0.7000 0.2790 -0.6574
vn 0.7031 0.2638 -0.6603
vn 0.7060 0.2486 -0.6630
vn 0.6969 0.2411 -0.6754
vn 0.6969 0.2410 -0.6754
vn 0.7052 0.3013 -0.6417
vn 0.7052 0.3014 -0.6417
vn 0.7086 0.2865 -0.6448
vn 0.7085 0.2865 -0.6449
vn 0.7118 0.2714 -0.6477
vn 0.7119 0.2713 -0.6477
vn 0.7149 0.2562 -0.6505
vn 0.6779 0.2258 -0.6996
vn 0.6779 0.2257 -0.6996
vn 0.5918 0.3222 -0.7389
vn 0.5899 0.3313 -0.7363
vn 0.5900 0.3312 -0.7364
vn 0.7142 0.2600 -0.6499
vn 0.7118 0.2715 -0.6477
vn 0.7137 0.2620 -0.6495
vn 0.6532 0.2410 -0.7178
vn 0.6996 0.2257 -0.6779
vn 0.6984 0.2328 -0.6768
vn 0.5752 0.2865 -0.7661
vn 0.6044 0.2562 -0.7544
vn 0.6021 0.2695 -0.7515
vn 0.7178 0.2410 -0.6531
vn 0.7019 0.2411 -0.6702
vn 0.6438 0.2913 -0.7076
vn 0.6592 0.3015 -0.6889
vn 0.5724 0.3015 -0.7625
vn 0.5829 0.3090 -0.7515
vn 0.6303 0.2410 -0.7380
vn 0.6287 0.2505 -0.7361
vn 0.6018 0.2714 -0.7511
vn 0.6017 0.2714 -0.7512
vn 0.6698 0.2257 -0.7073
vn 0.6535 0.2390 -0.7182
vn 0.6901 0.3015 -0.6578
vn 0.7050 0.3016 -0.6418
vn 0.6893 0.3015 -0.6587
vn 0.5695 0.3164 -0.7586
vn 0.5902 0.3164 -0.7426
vn 0.5937 0.2714 -0.7575
vn 0.5779 0.2714 -0.7696
vn 0.6001 0.2714 -0.7525
vn 0.5779 0.2713 -0.7696
vn 0.5996 0.2714 -0.7528
vn 0.6277 0.2562 -0.7350
vn 0.6278 0.2562 -0.7350
vn 0.5931 0.3165 -0.7403
vn 0.6036 0.3165 -0.7317
vn 0.6161 0.3164 -0.7213
vn 0.6241 0.3164 -0.7143
vn 0.6408 0.3057 -0.7042
vn 0.6386 0.3163 -0.7014
vn 0.6442 0.2896 -0.7079
vn 0.6448 0.2866 -0.7086
vn 0.6635 0.3016 -0.6847
vn 0.6635 0.3014 -0.6847
vn 0.6743 0.3015 -0.6741
vn 0.6636 0.3014 -0.6847
vn 0.6917 0.3015 -0.6561
vn 0.6848 0.3015 -0.6634
vn 0.6846 0.3017 -0.6635
vn 0.6848 0.3011 -0.6636
vn 0.6847 0.3016 -0.6635
vn 0.6847 0.3017 -0.6634
vn 0.6847 0.3016 -0.6634
vn 0.7071 0.2931 -0.6435
vn 0.7087 0.2865 -0.6447
vn 0.7086 0.2863 -0.6448
vn 0.7101 0.2795 -0.6462
vn 0.7086 0.2865 -0.6447
vn 0.7086 0.2864 -0.6448
vn 0.7136 0.2631 -0.6493
vn 0.7161 0.2499 -0.6517
vn 0.7149 0.2563 -0.6505
vn 0.7150 0.2562 -0.6505
vn 0.7149 0.2562 -0.6506
vn 0.7148 0.2563 -0.6506
vn 0.6903 0.2258 -0.6874
vn 0.6777 0.2257 -0.6998
vn 0.6780 0.2257 -0.6995
vn 0.5899 0.3312 -0.7364
vn 0.6532 0.2411 -0.7178
vn 0.6419 0.2411 -0.7279
vn 0.6529 0.2411 -0.7180
vn 0.6995 0.2258 -0.6780
vn 0.6995 0.2258 -0.6779
vn 0.6996 0.2258 -0.6779
vn 0.6995 0.2259 -0.6779
vn 0.6995 0.2257 -0.6780
vn 0.6996 0.2256 -0.6780
vn 0.5761 0.2819 -0.7672
vn 0.5742 0.2920 -0.7648
vn 0.6202 0.2563 -0.7414
vn 0.6044 0.2563 -0.7544
vn 0.7178 0.2410 -0.6532
vn 0.5725 0.3015 -0.7625
vn 0.5712 0.3065 -0.7614
vn 0.5723 0.3011 -0.7627
vn 0.6017 0.2711 -0.7512
vn 0.6017 0.2714 -0.7511
vn 0.7051 0.3016 -0.6417
vn 0.5777 0.2715 -0.7698
vn 0.6277 0.2563 -0.7350
vn 0.6278 0.2563 -0.7350
usemtl None
s 1
f 221//30 220//31 86//32
f 44//33 46//34 47//35
f 44//33 48//36 45//37
f 46//34 161//38 160//38
f 47//35 50//39 51//40
f 47//35 52//41 48//36
f 49//42 52//41 53//43
f 232//44 231//44 50//39
f 182//45 181//46 51//40
f 134//47 133//47 56//48
f 53//43 56//48 57//49
f 54//50 57//49 58//51
f 210//52 209//52 60//53
f 55//54 61//55 56//48
f 57//49 61//55 62//56
f 58//51 62//56 63//57
f 59//58 63//57 64//59
f 263//60 261//61 65//62
f 60//53 66//63 61//55
f 62//56 66//63 67//64
f 62//56 68//65 63//57
f 63//57 190//66 189//67
f 247//68 65//62 248//69
f 66//63 173//70 172//71
f 120//72 119//73 67//64
f 236//74 235//74 68//65
f 108//75 107//76 64//59
f 87//77 115//78 114//79
f 70//80 117//81 69//82
f 58//51 126//83 125//83
f 142//84 139//84 85//85
f 152//86 151//86 153//86
f 164//87 101//88 49//42
f 179//89 72//90 68//65
f 82//91 93//92 55//54
f 193//93 192//93 43//94
f 201//95 98//96 54//50
f 228//97 226//97 224//98
f 91//99 100//100 59//58
f 79//101 249//102 80//103
f 272//104 90//105 43//94
f 75//106 277//107 74//108
f 276//109 45//37 73//110
f 282//111 281//112 53//43
f 46//34 43//94 219//31
f 43//94 90//105 86//32
f 223//30 222//113 86//32
f 222//113 221//30 86//32
f 43//94 86//32 219//31
f 90//105 223//30 86//32
f 217//30 89//114 46//34
f 219//31 218//30 46//34
f 218//30 217//30 46//34
f 220//31 87//77 86//32
f 44//33 43//94 46//34
f 44//33 47//35 48//36
f 50//39 46//34 160//38
f 46//34 89//114 163//38
f 46//34 163//38 162//38
f 157//115 84//116 50//39
f 159//38 158//115 50//39
f 158//115 157//115 50//39
f 160//38 159//38 50//39
f 46//34 162//38 161//38
f 47//35 46//34 50//39
f 47//35 51//40 52//41
f 49//42 48//36 52//41
f 102//117 50//39 231//44
f 50//39 84//116 233//118
f 232//44 50//39 233//118
f 51//40 50//39 186//45
f 50//39 102//117 187//45
f 186//45 50//39 187//45
f 185//45 184//45 51//40
f 184//45 183//45 51//40
f 186//45 185//45 51//40
f 181//46 83//119 51//40
f 183//45 182//45 51//40
f 56//48 52//41 135//47
f 52//41 51//40 83//119
f 135//47 52//41 136//47
f 83//119 136//47 52//41
f 82//91 55//54 132//120
f 55//54 56//48 133//47
f 132//120 55//54 133//47
f 56//48 135//47 134//47
f 53//43 52//41 56//48
f 54//50 53//43 57//49
f 60//53 55//54 211//52
f 55//54 93//92 216//52
f 212//121 55//54 213//122
f 216//52 215//52 214//52
f 214//52 213//122 55//54
f 55//54 216//52 214//52
f 55//54 212//121 211//52
f 205//52 95//123 60//53
f 207//52 206//124 205//52
f 208//52 207//52 60//53
f 207//52 205//52 60//53
f 209//52 208//52 60//53
f 60//53 211//52 210//52
f 55//54 60//53 61//55
f 57//49 56//48 61//55
f 58//51 57//49 62//56
f 59//58 58//51 63//57
f 65//62 60//53 263//60
f 60//53 95//123 271//60
f 263//60 60//53 266//60
f 271//60 270//60 60//53
f 269//60 268//60 60//53
f 268//60 267//60 266//60
f 270//60 269//60 60//53
f 81//125 65//62 251//126
f 251//126 65//62 252//60
f 268//60 266//60 60//53
f 79//101 80//103 252//60
f 254//60 253//61 252//60
f 253//61 79//101 252//60
f 256//127 255//128 254//60
f 258//60 257//129 252//60
f 257//129 256//127 254//60
f 260//60 259//60 252//60
f 259//60 258//60 252//60
f 263//60 262//130 261//61
f 257//129 254//60 252//60
f 266//60 265//61 264//131
f 266//60 264//131 263//60
f 261//61 260//60 65//62
f 260//60 252//60 65//62
f 60//53 65//62 66//63
f 62//56 61//55 66//63
f 62//56 67//64 68//65
f 85//85 64//59 188//67
f 64//59 63//57 189//67
f 188//67 64//59 189//67
f 63//57 68//65 190//66
f 68//65 72//90 190//66
f 78//132 65//62 247//68
f 65//62 81//125 248//69
f 65//62 78//132 177//133
f 177//133 176//70 65//62
f 176//70 175//71 174//134
f 176//70 174//134 65//62
f 167//70 94//135 168//136
f 94//135 66//63 168//136
f 65//62 174//134 173//70
f 169//70 168//136 66//63
f 172//71 171//137 170//70
f 170//70 169//70 66//63
f 66//63 65//62 173//70
f 172//71 170//70 66//63
f 71//138 67//64 118//72
f 67//64 66//63 121//72
f 118//72 67//64 119//73
f 66//63 94//135 121//72
f 121//72 120//72 67//64
f 88//139 68//65 234//140
f 68//65 67//64 237//74
f 236//74 68//65 237//74
f 67//64 71//138 243//74
f 71//138 246//140 243//74
f 245//140 70//80 69//82
f 246//140 245//140 244//74
f 245//140 69//82 244//74
f 244//74 243//74 246//140
f 243//74 242//141 67//64
f 242//141 241//142 67//64
f 240//141 239//141 238//143
f 240//141 238//143 237//74
f 240//141 237//74 67//64
f 241//142 240//141 67//64
f 235//74 234//140 68//65
f 64//59 96//144 112//76
f 96//144 113//145 112//76
f 91//99 59//58 103//75
f 59//58 64//59 106//76
f 104//75 103//75 59//58
f 106//76 105//76 59//58
f 105//76 104//75 59//58
f 64//59 112//76 111//146
f 111//146 110//76 64//59
f 110//76 109//76 64//59
f 109//76 108//75 64//59
f 107//76 106//76 64//59
f 87//77 116//147 115//78
f 114//79 86//32 87//77
f 59//58 100//100 131//83
f 131//83 130//83 58//51
f 130//83 129//83 58//51
f 128//83 127//148 126//83
f 129//83 128//83 58//51
f 58//51 59//58 131//83
f 97//149 54//50 122//150
f 54//50 58//51 125//83
f 122//150 54//50 123//83
f 124//83 123//83 54//50
f 58//51 128//83 126//83
f 54//50 125//83 124//83
f 64//59 85//85 139//84
f 85//85 149//151 148//152
f 148//152 147//152 146//153
f 85//85 148//152 146//153
f 137//153 96//144 64//59
f 139//84 138//154 137//153
f 141//155 140//84 142//84
f 140//84 139//84 142//84
f 144//156 143//84 145//84
f 143//84 142//84 145//84
f 139//84 137//153 64//59
f 85//85 146//153 145//84
f 85//85 145//84 142//84
f 45//37 92//157 155//86
f 45//37 155//86 44//33
f 155//86 154//86 44//33
f 77//158 44//33 156//86
f 156//86 44//33 153//86
f 151//86 150//86 153//86
f 150//86 156//86 153//86
f 44//33 154//86 153//86
f 49//42 76//159 166//87
f 166//87 165//160 49//42
f 165//160 164//87 49//42
f 68//65 88//139 180//161
f 179//89 178//161 72//90
f 68//65 180//161 179//89
f 44//33 77//158 200//162
f 200//162 199//93 198//162
f 198//162 197//162 44//33
f 197//162 196//162 44//33
f 195//162 194//162 44//33
f 194//162 193//93 43//94
f 44//33 194//162 43//94
f 196//162 195//162 44//33
f 44//33 200//162 198//162
f 99//163 43//94 191//164
f 191//164 43//94 192//93
f 54//50 97//149 204//95
f 204//95 203//95 54//50
f 203//95 202//95 54//50
f 202//95 201//95 54//50
f 49//42 101//88 48//36
f 101//88 230//165 228//97
f 48//36 101//88 228//97
f 230//165 229//98 228//97
f 228//97 227//97 226//97
f 226//97 225//166 74//108
f 225//166 75//106 74//108
f 226//97 74//108 224//98
f 224//98 73//110 45//37
f 45//37 48//36 228//97
f 45//37 228//97 224//98
f 79//101 250//167 249//102
f 43//94 99//163 275//104
f 274//104 273//104 43//94
f 273//104 272//104 43//94
f 43//94 275//104 274//104
f 75//106 278//168 277//107
f 276//109 92//157 45//37
f 54//50 98//96 285//169
f 54//50 285//169 284//170
f 49//42 53//43 281//112
f 53//43 54//50 284//170
f 279//111 76//159 49//42
f 281//112 280//112 49//42
f 280//112 279//111 49//42
f 53//43 284//170 283//111
f 53//43 283//111 282//111
