# Blender v2.81 (sub 16) OBJ File: ''
# www.blender.org
mtllib Zimbabwe.mtl
o 0_Zimbabwe.002_sphere.001
v 4.035014 -1.470205 -2.560691
v 4.015019 -1.545088 -2.548002
v 3.994032 -1.619590 -2.534683
v 3.972061 -1.693693 -2.520740
v 3.949109 -1.767377 -2.506174
v 4.132828 -1.394959 -2.444142
v 4.113456 -1.470205 -2.432684
v 4.093072 -1.545088 -2.420630
v 4.071678 -1.619590 -2.407977
v 4.049279 -1.693693 -2.394730
v 4.025881 -1.767377 -2.380893
v 4.001489 -1.840626 -2.366467
v 4.187839 -1.470205 -2.302277
v 4.167087 -1.545088 -2.290869
v 4.145305 -1.619590 -2.278894
v 4.122501 -1.693693 -2.266358
v 4.098680 -1.767377 -2.253262
v 4.073847 -1.840626 -2.239610
v 4.236989 -1.545088 -2.158847
v 4.214841 -1.619590 -2.147562
v 4.191655 -1.693693 -2.135749
v 3.945467 -1.767377 -2.511718
v 3.989700 -1.545088 -2.586547
v 4.254572 -1.619590 -2.066459
v 4.237796 -1.542223 -2.159258
v 4.229543 -1.470205 -2.223511
v 3.980454 -1.619590 -2.555354
v 4.205216 -1.394959 -2.317230
v 4.207930 -1.693693 -2.102527
v 4.047704 -1.419955 -2.568745
v 3.937419 -1.840626 -2.471021
v 3.939371 -1.797188 -2.499994
v 3.934920 -1.810815 -2.497169
v 3.932665 -1.817718 -2.495738
v 4.070245 -1.850775 -2.237629
v 4.201578 -1.417784 -2.309831
v 4.185723 -1.711738 -2.132726
v 4.140779 -1.767377 -2.173749
v 4.136938 -1.378027 -2.446572
v 4.011652 -1.470205 -2.596256
v 3.946106 -1.693693 -2.560252
v 4.300527 -1.545088 -2.029148
v 4.254424 -1.545088 -2.123257
v 4.240688 -1.545088 -2.151296
v 3.981415 -1.898204 -2.354596
v 4.088214 -1.394959 -2.516945
v 4.094644 -1.840626 -2.200332
v 3.979457 -1.622862 -2.554780
v 3.977208 -1.627880 -2.554993
v 3.974408 -1.629719 -2.558080
v 3.970870 -1.632537 -2.561665
v 3.968682 -1.636292 -2.562593
v 3.967521 -1.640228 -2.561844
v 3.966234 -1.647559 -2.559114
v 3.965050 -1.659704 -2.553149
v 3.958532 -1.673638 -2.554161
v 3.953168 -1.682686 -2.556540
v 3.946383 -1.693153 -2.560174
v 3.942852 -1.699589 -2.561245
v 3.941526 -1.704195 -2.560168
v 3.940675 -1.708673 -2.558456
v 3.940333 -1.727692 -2.546198
v 3.940654 -1.739539 -2.537750
v 3.941586 -1.752220 -2.527810
v 3.945524 -1.760216 -2.516444
v 3.946005 -1.764049 -2.513136
v 3.955348 -1.900707 -2.395195
v 3.961593 -1.897748 -2.387297
v 3.968688 -1.896389 -2.376771
v 3.977102 -1.897033 -2.362542
v 3.938759 -1.848416 -2.462796
v 3.940561 -1.859226 -2.451476
v 3.942619 -1.871463 -2.438634
v 3.944909 -1.885208 -2.424242
v 3.946823 -1.896994 -2.411983
v 3.949918 -1.905324 -2.400477
v 4.201290 -1.413676 -2.312816
v 4.202875 -1.403809 -2.315992
v 3.945271 -1.768416 -2.511286
v 3.941978 -1.777832 -2.509664
v 3.939054 -1.787703 -2.507161
v 3.931891 -1.815972 -2.498147
v 3.932291 -1.817160 -2.496701
v 3.939463 -1.802885 -2.495627
v 3.933439 -1.819042 -2.493495
v 3.936136 -1.833692 -2.478249
v 4.301911 -1.542483 -2.028194
v 4.303849 -1.538022 -2.027445
v 4.305027 -1.531999 -2.029370
v 4.305484 -1.527882 -2.031396
v 4.297237 -1.532094 -2.045202
v 4.293267 -1.532462 -2.053042
v 4.290887 -1.530298 -2.059455
v 4.286347 -1.533124 -2.066692
v 4.279688 -1.540910 -2.074688
v 4.274419 -1.542400 -2.084374
v 4.270536 -1.537575 -2.095768
v 4.263052 -1.539030 -2.109997
v 4.260612 -1.610898 -2.060722
v 4.263458 -1.604816 -2.059524
v 4.266139 -1.598665 -2.058718
v 4.278660 -1.581542 -2.046141
v 4.283425 -1.574058 -2.042089
v 4.288229 -1.564468 -2.039556
v 4.292451 -1.556766 -2.036779
v 4.294993 -1.553679 -2.033930
v 4.298666 -1.548480 -2.030376
v 4.251887 -1.546839 -2.127107
v 4.244030 -1.548429 -2.141941
v 4.212018 -1.689311 -2.097681
v 4.225117 -1.674540 -2.082731
v 4.228560 -1.671956 -2.077764
v 4.236041 -1.658103 -2.073550
v 4.248302 -1.634358 -2.067473
v 4.250488 -1.626457 -2.069317
v 4.252427 -1.622582 -2.068450
v 4.189547 -1.709222 -2.127030
v 4.200802 -1.701182 -2.110798
v 3.986524 -1.899549 -2.344540
v 3.998421 -1.896402 -2.326255
v 4.012996 -1.887705 -2.307811
v 4.023663 -1.884645 -2.291612
v 4.033765 -1.888414 -2.270819
v 4.034216 -1.888534 -2.269930
v 4.037249 -1.885596 -2.267015
v 4.042593 -1.879298 -2.262793
v 4.048217 -1.878182 -2.253847
v 4.050139 -1.876742 -2.251654
v 4.052129 -1.874401 -2.250077
v 4.053950 -1.871406 -2.249334
v 4.055458 -1.868038 -2.249443
v 4.058287 -1.857643 -2.252979
v 4.059153 -1.856485 -2.252408
v 4.060989 -1.855245 -2.250202
v 4.064298 -1.853994 -2.245424
v 4.229504 -1.466696 -2.225827
v 4.226269 -1.452951 -2.240722
v 4.219990 -1.442435 -2.259302
v 4.213112 -1.433508 -2.277997
v 4.201832 -1.422679 -2.306222
v 4.237153 -1.541614 -2.160883
v 4.234218 -1.522392 -2.179415
v 4.231420 -1.504335 -2.196903
v 4.229506 -1.483539 -2.214570
v 4.141161 -1.766345 -2.173842
v 4.143783 -1.758565 -2.175023
v 4.145307 -1.753338 -2.176266
v 4.146802 -1.751094 -2.175212
v 4.149439 -1.749476 -2.171505
v 4.155594 -1.748812 -2.160404
v 4.162669 -1.749183 -2.146749
v 4.165502 -1.741249 -2.147654
v 4.170208 -1.728984 -2.148433
v 4.173896 -1.721911 -2.147044
v 4.176731 -1.718281 -2.144552
v 4.181304 -1.714458 -2.138929
v 4.097672 -1.839609 -2.195452
v 4.103280 -1.838269 -2.185971
v 4.105004 -1.836737 -2.183980
v 4.107840 -1.832855 -2.181833
v 4.114492 -1.820854 -2.179190
v 4.119620 -1.812893 -2.176086
v 4.129537 -1.800676 -2.167455
v 4.131760 -1.796869 -2.166404
v 4.134794 -1.787154 -2.168705
v 4.137076 -1.779281 -2.170903
v 4.138734 -1.772626 -2.173273
v 4.072757 -1.849287 -2.234172
v 4.082567 -1.844690 -2.219623
v 4.044959 -1.421313 -2.572184
v 4.034972 -1.427419 -2.584060
v 4.028245 -1.434769 -2.590298
v 4.024695 -1.436435 -2.594795
v 4.020303 -1.436960 -2.601195
v 4.018066 -1.437612 -2.604246
v 4.017193 -1.442949 -2.602668
v 4.017759 -1.451977 -2.596888
v 4.014154 -1.464853 -2.595361
v 4.135586 -1.378071 -2.448754
v 4.121827 -1.379034 -2.470687
v 4.108580 -1.379943 -2.491814
v 4.097646 -1.390774 -2.503812
v 4.094300 -1.393054 -2.508042
v 4.084938 -1.395968 -2.521714
v 4.069323 -1.413935 -2.536911
v 4.055638 -1.415679 -2.558244
v 4.206404 -1.390099 -2.317914
v 4.207811 -1.381175 -2.320525
v 4.207270 -1.377098 -2.323794
v 4.205571 -1.373896 -2.328594
v 4.203355 -1.369772 -2.334827
v 4.196089 -1.359221 -2.353572
v 4.189437 -1.352514 -2.369051
v 4.180413 -1.348134 -2.387364
v 4.169378 -1.348095 -2.406733
v 4.158732 -1.348100 -2.425395
v 4.152676 -1.348110 -2.436007
v 4.149367 -1.361340 -2.434278
v 4.145274 -1.376247 -2.432971
v 4.143752 -1.377707 -2.434808
v 4.005607 -1.482659 -2.598285
v 4.000971 -1.498130 -2.596433
v 3.994943 -1.525403 -2.589902
v 3.987792 -1.551800 -2.585374
v 3.984775 -1.561180 -2.584267
v 3.982374 -1.567410 -2.584136
v 3.980622 -1.570811 -2.584737
v 3.979682 -1.574683 -2.583815
v 3.978915 -1.585711 -2.578282
v 3.977504 -1.597334 -2.573368
v 3.976250 -1.601997 -2.572443
v 3.976046 -1.605256 -2.570774
v 3.976608 -1.608161 -2.568153
v 3.981109 -1.613556 -2.558023
v 3.981209 -1.616874 -2.555855
vn 0.8169 -0.2865 -0.5006
vn 0.8171 -0.2856 -0.5007
vn 0.8227 -0.2940 -0.4865
vn 0.8070 -0.2940 -0.5121
vn 0.8186 -0.3090 -0.4841
vn 0.8030 -0.3090 -0.5096
vn 0.7988 -0.3239 -0.5069
vn 0.8143 -0.3239 -0.4816
vn 0.8098 -0.3387 -0.4789
vn 0.7944 -0.3387 -0.5041
vn 0.8052 -0.3534 -0.4762
vn 0.7898 -0.3534 -0.5012
vn 0.8341 -0.2789 -0.4758
vn 0.8360 -0.2713 -0.4769
vn 0.8360 -0.2714 -0.4769
vn 0.8266 -0.2790 -0.4888
vn 0.8322 -0.2865 -0.4747
vn 0.8334 -0.3090 -0.4582
vn 0.8291 -0.3239 -0.4558
vn 0.8245 -0.3387 -0.4533
vn 0.8197 -0.3534 -0.4506
vn 0.8003 -0.3681 -0.4733
vn 0.8148 -0.3681 -0.4479
vn 0.8375 -0.2940 -0.4604
vn 0.8467 -0.2865 -0.4483
vn 0.8440 -0.2964 -0.4469
vn 0.8428 -0.3011 -0.4461
vn 0.8480 -0.3014 -0.4359
vn 0.8474 -0.3089 -0.4318
vn 0.8430 -0.3239 -0.4295
vn 0.8383 -0.3387 -0.4271
vn 0.8291 -0.3460 -0.4390
vn 0.8292 -0.3461 -0.4389
vn 0.8292 -0.3460 -0.4390
vn 0.8242 -0.3608 -0.4364
vn 0.8524 -0.3148 -0.4175
vn 0.8518 -0.3165 -0.4173
vn 0.8519 -0.3164 -0.4173
vn 0.8524 -0.3146 -0.4176
vn 0.8473 -0.3313 -0.4151
vn 0.7886 -0.3313 -0.5180
vn 0.7887 -0.3313 -0.5179
vn 0.7841 -0.3461 -0.5151
vn 0.7903 -0.3753 -0.4843
vn 0.7795 -0.3608 -0.5119
vn 0.7931 -0.3608 -0.4906
vn 0.7901 -0.3609 -0.4954
vn 0.7794 -0.3609 -0.5120
vn 0.7821 -0.3525 -0.5138
vn 0.7952 -0.3608 -0.4873
vn 0.8548 -0.3066 -0.4187
vn 0.8562 -0.3016 -0.4195
vn 0.8562 -0.3015 -0.4194
vn 0.8425 -0.3461 -0.4127
vn 0.8343 -0.3461 -0.4290
vn 0.8051 -0.3753 -0.4592
vn 0.8051 -0.3754 -0.4592
vn 0.8191 -0.3753 -0.4337
vn 0.8191 -0.3754 -0.4337
vn 0.8008 -0.2865 -0.5260
vn 0.8007 -0.2865 -0.5260
vn 0.8206 -0.2714 -0.5029
vn 0.7969 -0.3015 -0.5235
vn 0.7928 -0.3164 -0.5208
vn 0.8105 -0.2865 -0.5108
vn 0.8169 -0.2864 -0.5006
vn 0.8285 -0.2714 -0.4898
vn 0.8361 -0.2711 -0.4769
vn 0.8360 -0.2715 -0.4769
vn 0.8360 -0.2714 -0.4768
vn 0.8361 -0.2713 -0.4768
vn 0.8349 -0.2865 -0.4699
vn 0.8468 -0.2862 -0.4483
vn 0.8426 -0.3014 -0.4462
vn 0.8426 -0.3015 -0.4462
vn 0.8269 -0.3529 -0.4378
vn 0.8292 -0.3459 -0.4390
vn 0.8292 -0.3461 -0.4390
vn 0.8239 -0.3617 -0.4362
vn 0.8242 -0.3609 -0.4364
vn 0.8243 -0.3608 -0.4363
vn 0.8242 -0.3609 -0.4363
vn 0.8242 -0.3607 -0.4364
vn 0.8506 -0.3205 -0.4167
vn 0.8520 -0.3163 -0.4173
vn 0.8519 -0.3165 -0.4171
vn 0.8518 -0.3163 -0.4176
vn 0.8518 -0.3166 -0.4172
vn 0.8463 -0.3345 -0.4146
vn 0.8473 -0.3312 -0.4151
vn 0.7859 -0.3405 -0.5162
vn 0.7886 -0.3314 -0.5179
vn 0.7907 -0.3238 -0.5194
vn 0.7886 -0.3314 -0.5180
vn 0.7841 -0.3461 -0.5152
vn 0.7842 -0.3459 -0.5150
vn 0.7984 -0.3754 -0.4707
vn 0.7939 -0.3646 -0.4865
vn 0.7903 -0.3754 -0.4843
vn 0.7902 -0.3754 -0.4843
vn 0.7795 -0.3608 -0.5120
vn 0.7924 -0.3608 -0.4917
vn 0.7951 -0.3609 -0.4873
vn 0.8562 -0.3014 -0.4194
vn 0.8562 -0.3016 -0.4194
vn 0.8563 -0.3013 -0.4195
vn 0.8562 -0.3015 -0.4195
vn 0.8562 -0.3014 -0.4195
vn 0.8563 -0.3012 -0.4195
vn 0.8106 -0.3754 -0.4494
vn 0.8050 -0.3753 -0.4593
vn 0.8051 -0.3753 -0.4593
vn 0.8049 -0.3758 -0.4592
vn 0.8051 -0.3757 -0.4588
vn 0.8053 -0.3746 -0.4595
vn 0.7984 -0.2957 -0.5245
vn 0.8007 -0.2864 -0.5260
vn 0.8206 -0.2715 -0.5029
vn 0.7949 -0.3090 -0.5221
vn 0.7928 -0.3165 -0.5208
vn 0.7926 -0.3171 -0.5208
vn 0.7927 -0.3166 -0.5210
usemtl None
s 1
f 185//1 46//2 7//3
f 1//4 8//5 2//6
f 3//7 8//5 9//8
f 3//7 10//9 4//10
f 4//10 11//11 5//12
f 28//13 199//14 192//15
f 6//16 78//17 77//17
f 7//3 14//18 8//5
f 9//8 14//18 15//19
f 9//8 16//20 10//9
f 10//9 17//21 11//11
f 12//22 17//21 18//23
f 13//24 137//25 26//26
f 141//27 25//28 19//29
f 15//19 19//29 20//30
f 15//19 21//31 16//20
f 150//32 149//33 153//34
f 162//35 161//35 17//21
f 19//29 25//28 44//36
f 104//37 103//38 43//39
f 20//30 113//40 111//40
f 53//41 52//41 50//42
f 63//43 62//43 4//10
f 12//22 69//44 68//44
f 83//45 33//46 34//47
f 79//48 22//49 5//12
f 85//50 33//46 84//50
f 42//51 95//52 92//53
f 117//54 37//55 21//31
f 122//56 132//57 126//56
f 169//58 168//59 18//23
f 172//60 1//4 177//61
f 180//62 179//62 6//16
f 1//4 2//6 202//63
f 209//64 206//64 2//6
f 7//3 1//4 185//1
f 1//4 30//65 186//1
f 185//1 1//4 186//1
f 185//1 184//66 46//2
f 46//2 6//16 7//3
f 1//4 7//3 8//5
f 3//7 2//6 8//5
f 3//7 9//8 10//9
f 4//10 10//9 11//11
f 28//13 6//16 199//14
f 6//16 39//67 200//68
f 6//16 200//68 199//14
f 188//69 187//14 189//70
f 187//14 28//13 190//70
f 190//70 189//70 187//14
f 192//15 191//71 28//13
f 191//71 190//70 28//13
f 194//15 193//15 199//14
f 193//15 192//15 199//14
f 196//15 195//15 198//15
f 195//15 194//15 199//14
f 198//15 197//15 196//15
f 199//14 198//15 195//15
f 13//24 7//3 77//17
f 7//3 6//16 77//17
f 6//16 28//13 78//17
f 77//17 36//72 13//24
f 7//3 13//24 14//18
f 9//8 8//5 14//18
f 9//8 15//19 16//20
f 10//9 16//20 17//21
f 12//22 11//11 17//21
f 13//24 36//72 140//25
f 140//25 139//25 13//24
f 139//25 138//25 13//24
f 138//25 137//25 13//24
f 137//25 136//73 26//26
f 19//29 14//18 142//74
f 14//18 13//24 144//75
f 19//29 142//74 141//27
f 13//24 26//26 144//75
f 143//75 142//74 14//18
f 143//75 14//18 144//75
f 15//19 14//18 19//29
f 15//19 20//30 21//31
f 38//76 17//21 145//77
f 17//21 16//20 147//34
f 145//77 17//21 146//32
f 16//20 21//31 155//32
f 21//31 37//55 156//32
f 21//31 156//32 155//32
f 147//34 146//32 17//21
f 16//20 155//32 154//34
f 148//34 147//34 16//20
f 149//33 148//34 154//34
f 148//34 16//20 154//34
f 154//34 153//34 149//33
f 152//78 151//34 150//32
f 153//34 152//78 150//32
f 47//79 18//23 17//21
f 17//21 38//76 167//80
f 167//80 166//35 162//35
f 166//35 165//35 162//35
f 165//35 164//81 163//35
f 165//35 163//35 162//35
f 17//21 167//80 162//35
f 157//80 47//79 161//35
f 47//79 17//21 161//35
f 159//82 158//83 160//83
f 158//83 157//80 160//83
f 161//35 160//83 157//80
f 24//84 20//30 108//38
f 20//30 19//29 109//38
f 19//29 44//36 109//38
f 108//38 43//39 24//84
f 43//39 42//51 105//38
f 20//30 109//38 108//38
f 43//39 105//38 104//37
f 42//51 107//85 106//86
f 42//51 106//86 105//38
f 99//87 24//84 100//88
f 101//38 100//88 24//84
f 103//38 102//38 43//39
f 102//38 101//38 43//39
f 43//39 101//38 24//84
f 29//89 21//31 110//40
f 21//31 20//30 110//40
f 20//30 24//84 116//40
f 115//40 114//40 113//40
f 20//30 116//40 115//40
f 113//40 112//90 111//40
f 111//40 110//40 20//30
f 20//30 115//40 113//40
f 4//10 41//91 58//92
f 4//10 58//92 57//41
f 27//93 3//7 48//41
f 3//7 4//10 55//41
f 48//41 3//7 49//41
f 49//41 3//7 55//41
f 4//10 57//41 56//41
f 55//41 54//41 49//41
f 54//41 53//41 50//42
f 49//41 54//41 50//42
f 4//10 56//41 55//41
f 51//94 50//42 52//41
f 5//12 22//49 66//95
f 65//43 64//43 4//10
f 64//43 63//43 4//10
f 5//12 66//95 65//43
f 41//91 4//10 61//43
f 4//10 5//12 65//43
f 60//95 59//96 41//91
f 62//43 61//43 4//10
f 61//43 60//95 41//91
f 12//22 45//97 70//44
f 12//22 70//44 69//44
f 71//44 31//98 12//22
f 73//99 72//44 12//22
f 72//44 71//44 12//22
f 76//100 75//99 67//99
f 75//99 74//99 68//44
f 67//99 75//99 68//44
f 74//99 73//99 12//22
f 68//44 74//99 12//22
f 83//45 82//101 33//46
f 5//12 32//102 81//101
f 81//101 80//101 5//12
f 80//101 79//48 5//12
f 12//22 31//98 11//11
f 31//98 86//103 84//50
f 11//11 31//98 84//50
f 85//50 34//47 33//46
f 86//103 85//50 84//50
f 5//12 11//11 84//50
f 84//50 32//102 5//12
f 43//39 98//104 96//105
f 98//104 97//106 96//105
f 87//53 42//51 91//105
f 42//51 43//39 96//105
f 89//107 88//104 91//105
f 88//104 87//53 91//105
f 91//105 90//52 89//107
f 94//108 93//109 92//53
f 92//53 91//105 42//51
f 42//51 96//105 95//52
f 95//52 94//108 92//53
f 21//31 29//89 118//54
f 118//54 117//54 21//31
f 18//23 35//110 135//56
f 18//23 135//56 134//111
f 45//97 12//22 119//57
f 12//22 18//23 133//57
f 133//57 18//23 134//111
f 120//56 119//57 12//22
f 121//57 120//56 12//22
f 12//22 133//57 132//57
f 121//57 12//22 122//56
f 132//57 131//56 126//56
f 131//56 130//112 127//56
f 126//56 131//56 127//56
f 12//22 132//57 122//56
f 124//113 123//57 125//56
f 123//57 122//56 125//56
f 130//112 129//114 127//56
f 129//114 128//115 127//56
f 126//56 125//56 122//56
f 18//23 47//79 169//58
f 168//59 35//110 18//23
f 1//4 40//116 178//61
f 177//61 176//61 173//60
f 176//61 175//117 174//117
f 173//60 176//61 174//117
f 1//4 178//61 177//61
f 170//61 30//65 1//4
f 172//60 171//61 1//4
f 171//61 170//61 1//4
f 173//60 172//60 177//61
f 6//16 46//2 183//62
f 182//118 181//62 180//62
f 6//16 183//62 182//118
f 179//62 39//67 6//16
f 182//118 180//62 6//16
f 2//6 23//119 203//63
f 203//63 202//63 2//6
f 202//63 201//63 1//4
f 201//63 40//116 1//4
f 3//7 27//93 215//64
f 214//64 213//120 210//64
f 213//120 212//121 211//64
f 210//64 213//120 211//64
f 3//7 215//64 214//64
f 23//119 2//6 204//64
f 2//6 3//7 214//64
f 204//64 2//6 205//64
f 205//64 2//6 206//64
f 209//64 208//64 206//64
f 208//64 207//122 206//64
f 214//64 210//64 2//6
f 210//64 209//64 2//6
