# Blender v2.81 (sub 16) OBJ File: ''
# www.blender.org
mtllib American Samoa.mtl
o 0_American_Samoa_sphere.001
v -4.736445 -1.254514 0.992811
v -4.736844 -1.253736 0.991904
v -4.736766 -1.253403 0.992716
v -4.736691 -1.253499 0.992956
vn -0.9467 -0.2560 0.1957
vn -0.9466 -0.2561 0.1959
vn -0.9468 -0.2557 0.1951
vn -0.9465 -0.2562 0.1961
usemtl None
s 1
f 3//1 1//2 4//3
f 3//1 2//4 1//2
o 1_American_Samoa_sphere.001
v -4.780161 -1.231893 0.792118
v -4.780202 -1.230851 0.793387
v -4.779946 -1.231359 0.794118
v -4.779707 -1.232406 0.793973
v -4.779794 -1.232984 0.792642
v -4.780577 -1.233242 0.787782
v -4.780726 -1.233637 0.786356
v -4.780712 -1.235130 0.784280
v -4.780216 -1.239423 0.780920
v -4.780164 -1.241227 0.778612
v -4.780420 -1.240588 0.778067
v -4.781579 -1.238292 0.774745
v -4.782235 -1.237182 0.772589
v -4.782507 -1.236571 0.771910
v -4.782408 -1.234448 0.775551
v -4.782240 -1.234177 0.776899
v -4.781723 -1.234231 0.779785
v -4.781546 -1.233988 0.781153
v -4.781809 -1.231543 0.783177
v -4.781441 -1.230848 0.786293
v -4.780797 -1.231023 0.789727
vn -0.9560 -0.2412 0.1668
vn -0.9560 -0.2412 0.1669
vn -0.9561 -0.2410 0.1668
vn -0.9560 -0.2412 0.1667
vn -0.9560 -0.2412 0.1670
vn -0.9561 -0.2409 0.1670
vn -0.9560 -0.2411 0.1669
vn -0.9560 -0.2414 0.1668
vn -0.9560 -0.2410 0.1669
vn -0.9560 -0.2410 0.1671
vn -0.9561 -0.2411 0.1668
vn -0.9560 -0.2411 0.1668
vn -0.9561 -0.2407 0.1670
usemtl None
s 1
f 11//5 10//6 24//7
f 7//8 6//9 8//10
f 6//9 5//11 8//10
f 5//11 25//12 10//6
f 25//12 24//7 10//6
f 24//7 23//5 11//5
f 23//5 22//11 12//5
f 11//5 23//5 12//5
f 21//13 20//13 15//5
f 20//13 19//14 16//7
f 20//13 16//7 15//5
f 19//14 18//5 17//15
f 16//7 19//14 17//15
f 22//11 21//13 13//16
f 15//5 14//12 13//16
f 13//16 21//13 15//5
f 13//16 12//5 22//11
f 10//6 9//17 5//11
f 9//17 8//10 5//11
o 2_American_Samoa_sphere.001
v -4.763710 -1.231149 0.887449
v -4.764012 -1.230698 0.886373
v -4.763954 -1.231402 0.885687
v -4.763995 -1.231716 0.884996
v -4.764131 -1.231682 0.884268
v -4.764373 -1.231277 0.883468
v -4.764243 -1.232023 0.883138
v -4.764236 -1.232402 0.882626
v -4.764329 -1.232510 0.881939
v -4.764498 -1.232430 0.881082
v -4.764787 -1.231411 0.880903
v -4.765053 -1.230547 0.880625
v -4.765292 -1.229897 0.880196
v -4.765497 -1.229528 0.879554
v -4.765496 -1.228628 0.880859
v -4.765267 -1.228311 0.882631
v -4.764624 -1.228410 0.886175
v -4.764182 -1.229040 0.887797
v -4.763824 -1.230271 0.888064
vn -0.9561 -0.2409 0.1668
vn -0.9561 -0.2408 0.1668
vn -0.9560 -0.2411 0.1669
vn -0.9560 -0.2412 0.1669
vn -0.9560 -0.2413 0.1668
vn -0.9559 -0.2415 0.1669
vn -0.9563 -0.2402 0.1666
vn -0.9560 -0.2409 0.1672
vn -0.9561 -0.2405 0.1669
vn -0.9556 -0.2428 0.1669
vn -0.9558 -0.2420 0.1668
vn -0.9563 -0.2400 0.1668
vn -0.9557 -0.2428 0.1666
vn -0.9560 -0.2414 0.1667
vn -0.9562 -0.2406 0.1667
vn -0.9563 -0.2404 0.1662
vn -0.9561 -0.2407 0.1669
usemtl None
s 1
f 42//18 31//19 27//20
f 44//21 43//20 27//20
f 43//20 42//18 27//20
f 42//18 41//22 31//19
f 41//22 40//23 37//20
f 31//19 41//22 37//20
f 40//23 39//24 38//25
f 40//23 38//25 37//20
f 27//20 26//26 44//21
f 29//27 28//28 30//29
f 28//28 27//20 31//19
f 31//19 30//29 28//28
f 33//30 32//31 36//32
f 32//31 31//19 36//32
f 35//33 34//34 36//32
f 34//34 33//30 36//32
f 37//20 36//32 31//19
o 3_American_Samoa_sphere.001
v -4.768196 -1.225475 0.869946
v -4.768362 -1.225371 0.869147
v -4.768727 -1.224264 0.868653
v -4.768730 -1.223777 0.869341
v -4.768586 -1.223763 0.870183
v -4.768356 -1.224049 0.871091
v -4.768087 -1.224463 0.872032
vn -0.9561 -0.2410 0.1668
vn -0.9561 -0.2409 0.1669
vn -0.9561 -0.2411 0.1665
vn -0.9560 -0.2414 0.1668
vn -0.9561 -0.2409 0.1667
vn -0.9561 -0.2406 0.1669
vn -0.9562 -0.2408 0.1664
usemtl None
s 1
f 45//35 48//36 46//37
f 51//38 50//39 45//35
f 50//39 49//40 45//35
f 49//40 48//36 45//35
f 48//36 47//41 46//37
o 4_American_Samoa_sphere.001
v -4.847468 -0.959652 0.760688
v -4.847626 -0.959159 0.760279
v -4.847769 -0.958385 0.760366
v -4.847591 -0.958491 0.761463
v -4.847437 -0.959315 0.761387
vn -0.9709 -0.1953 0.1381
vn -0.9710 -0.1951 0.1381
vn -0.9709 -0.1957 0.1380
usemtl None
s 1
f 53//42 56//42 55//43
f 55//43 54//43 53//42
f 53//42 52//44 56//42
