# Blender v2.81 (sub 16) OBJ File: ''
# www.blender.org
mtllib Bahrain.mtl
o 0_Bahrain_sphere.001
v 2.857291 2.199694 -3.463581
v 2.848935 2.199694 -3.470275
v 2.848738 2.204323 -3.467469
v 2.847761 2.205452 -3.467529
v 2.846580 2.206259 -3.467959
v 2.846563 2.205110 -3.468709
v 2.846754 2.203246 -3.469748
v 2.845982 2.203171 -3.470416
v 2.846888 2.202294 -3.470251
v 2.847396 2.200813 -3.470792
v 2.848736 2.200475 -3.469935
v 2.857289 2.201414 -3.462481
v 2.857650 2.203539 -3.460832
v 2.857615 2.204458 -3.460272
v 2.857121 2.205744 -3.459844
v 2.855273 2.209430 -3.458965
v 2.854521 2.210354 -3.458976
v 2.853591 2.210785 -3.459445
v 2.852237 2.210732 -3.460564
v 2.851539 2.210551 -3.461239
v 2.850730 2.210020 -3.462226
v 2.850066 2.209606 -3.463024
v 2.847177 2.210734 -3.464616
v 2.846889 2.210442 -3.465034
v 2.846952 2.209407 -3.465646
v 2.846742 2.208708 -3.466261
v 2.846709 2.208378 -3.466499
v 2.846687 2.208063 -3.466719
v 2.847255 2.207222 -3.466802
v 2.847916 2.207032 -3.466394
v 2.849542 2.207352 -3.464887
v 2.850532 2.206996 -3.464321
v 2.849769 2.195894 -3.471945
v 2.852024 2.188957 -3.474406
v 2.855575 2.180313 -3.476879
v 2.856656 2.178583 -3.477078
v 2.859473 2.175209 -3.476897
v 2.859151 2.177584 -3.475693
v 2.859073 2.180181 -3.474158
v 2.859253 2.182727 -3.472447
v 2.859796 2.184937 -3.470653
v 2.861419 2.188466 -3.467181
v 2.861183 2.190632 -3.466038
v 2.859185 2.193261 -3.466021
v 2.858505 2.194406 -3.465862
v 2.857820 2.195571 -3.465694
v 2.857245 2.198528 -3.464335
vn 0.5592 0.4469 -0.6982
vn 0.5594 0.4469 -0.6980
vn 0.5593 0.4469 -0.6982
vn 0.5637 0.4327 -0.7035
vn 0.5637 0.4328 -0.7035
vn 0.5636 0.4328 -0.7035
vn 0.5610 0.4415 -0.7003
vn 0.5615 0.4397 -0.7009
vn 0.5593 0.4470 -0.6981
vn 0.5595 0.4469 -0.6980
vn 0.5592 0.4470 -0.6981
vn 0.5593 0.4471 -0.6980
vn 0.5593 0.4469 -0.6981
vn 0.5591 0.4469 -0.6983
vn 0.5587 0.4473 -0.6984
vn 0.5594 0.4464 -0.6984
vn 0.5590 0.4469 -0.6984
vn 0.5590 0.4476 -0.6979
vn 0.5594 0.4470 -0.6980
vn 0.5590 0.4470 -0.6983
vn 0.5591 0.4471 -0.6981
vn 0.5594 0.4469 -0.6981
vn 0.5578 0.4475 -0.6989
vn 0.5636 0.4327 -0.7036
vn 0.5636 0.4329 -0.7035
vn 0.5636 0.4328 -0.7036
vn 0.5635 0.4328 -0.7036
vn 0.5633 0.4328 -0.7038
usemtl None
s 1
f 25//1 22//2 31//3
f 44//4 42//5 41//6
f 1//7 2//8 11//9
f 11//9 10//10 9//11
f 9//11 8//12 7//9
f 7//9 6//3 3//3
f 6//3 5//13 4//14
f 3//3 6//3 4//14
f 11//9 9//11 7//9
f 12//1 1//7 3//3
f 1//7 11//9 3//3
f 14//15 13//1 15//13
f 13//1 12//1 32//13
f 16//13 15//13 32//13
f 32//13 15//13 13//1
f 18//16 17//17 16//13
f 20//9 19//18 16//13
f 19//18 18//16 16//13
f 21//19 20//9 32//13
f 32//13 12//1 3//3
f 11//9 7//9 3//3
f 16//13 32//13 20//9
f 22//2 21//19 32//13
f 24//20 23//21 25//1
f 23//21 22//2 25//1
f 27//12 26//22 30//13
f 26//22 25//1 30//13
f 31//3 30//13 25//1
f 30//13 29//9 27//12
f 27//12 29//9 28//23
f 32//13 31//3 22//2
f 2//8 1//7 47//24
f 2//8 47//24 46//25
f 34//6 33//6 45//5
f 33//6 2//8 46//25
f 34//6 45//5 44//4
f 36//26 35//27 39//26
f 35//27 34//6 40//26
f 39//26 35//27 40//26
f 38//6 37//6 36//26
f 39//26 38//6 36//26
f 46//25 45//5 33//6
f 44//4 43//28 42//5
f 40//26 34//6 41//6
f 41//6 34//6 44//4
