# Blender v2.81 (sub 16) OBJ File: ''
# www.blender.org
mtllib Barbados.mtl
o 0_Barbados_sphere.001
v 2.476427 1.135416 4.192397
v 2.474810 1.133221 4.193905
v 2.473459 1.132063 4.194983
v 2.472653 1.131362 4.195631
v 2.471317 1.129567 4.196871
v 2.470732 1.129480 4.197228
v 2.470256 1.129486 4.197499
v 2.469827 1.129393 4.197768
v 2.469365 1.129034 4.198128
v 2.468470 1.130440 4.198263
v 2.467002 1.131308 4.198868
v 2.465292 1.131751 4.199726
v 2.464297 1.131826 4.200274
v 2.463711 1.131868 4.200596
v 2.462606 1.132653 4.201017
v 2.461548 1.134518 4.201123
v 2.460135 1.138291 4.200922
v 2.458211 1.149748 4.198964
v 2.458216 1.151071 4.198607
v 2.458589 1.152180 4.198100
v 2.459495 1.153389 4.197260
v 2.460757 1.153958 4.196389
v 2.462230 1.153138 4.195766
v 2.463443 1.151410 4.195536
v 2.463902 1.150548 4.195504
v 2.464544 1.149289 4.195474
v 2.466385 1.145861 4.195338
v 2.467505 1.144345 4.195104
v 2.469004 1.143173 4.194562
v 2.471159 1.141525 4.193772
v 2.472352 1.140795 4.193286
v 2.473854 1.140272 4.192569
v 2.475318 1.139584 4.191918
v 2.476312 1.138348 4.191680
vn 0.4827 0.2257 0.8462
vn 0.4831 0.2261 0.8459
vn 0.4828 0.2258 0.8461
vn 0.4830 0.2257 0.8460
vn 0.4821 0.2257 0.8465
vn 0.4828 0.2257 0.8461
vn 0.4824 0.2258 0.8463
vn 0.4825 0.2257 0.8463
vn 0.4826 0.2257 0.8462
vn 0.4830 0.2264 0.8458
vn 0.4839 0.2251 0.8456
vn 0.4826 0.2258 0.8462
vn 0.4826 0.2259 0.8462
vn 0.4837 0.2258 0.8456
vn 0.4828 0.2255 0.8462
vn 0.4825 0.2258 0.8462
vn 0.4827 0.2258 0.8462
vn 0.4827 0.2258 0.8461
vn 0.4827 0.2257 0.8461
vn 0.4826 0.2254 0.8463
vn 0.4829 0.2256 0.8461
vn 0.4825 0.2260 0.8462
vn 0.4822 0.2254 0.8465
vn 0.4814 0.2249 0.8471
usemtl None
s 1
f 16//1 13//2 12//3
f 34//4 33//5 1//6
f 33//5 32//7 1//6
f 32//7 31//1 2//8
f 2//8 1//6 32//7
f 3//9 2//8 31//1
f 31//1 30//1 3//9
f 6//10 5//11 4//1
f 4//1 3//9 30//1
f 4//1 30//1 11//9
f 30//1 29//12 11//9
f 7//13 6//10 4//1
f 10//1 9//14 8//15
f 8//15 7//13 10//1
f 7//13 4//1 10//1
f 29//12 28//16 17//9
f 12//3 29//12 16//1
f 29//12 12//3 11//9
f 28//16 27//1 17//9
f 11//9 10//1 4//1
f 16//1 29//12 17//9
f 27//1 26//1 18//13
f 26//1 25//1 18//13
f 25//1 24//17 18//13
f 24//17 23//18 20//19
f 23//18 22//20 21//21
f 20//19 23//18 21//21
f 20//19 19//22 24//17
f 19//22 18//13 24//17
f 18//13 17//9 27//1
f 16//1 15//23 13//2
f 15//23 14//24 13//2
