# Blender v2.81 (sub 16) OBJ File: ''
# www.blender.org
mtllib Baykonur Cosmodrome.mtl
o 0_Baykonur_Cosmodrome_sphere.001
v 1.579691 3.590631 -3.100313
v 1.589838 3.590631 -3.094941
v 1.527508 3.590631 -3.125877
v 1.586236 3.576438 -3.113159
v 1.568540 3.614061 -3.078429
v 1.567631 3.614519 -3.078340
v 1.564528 3.615936 -3.078206
v 1.561342 3.617161 -3.078337
v 1.558082 3.618207 -3.078714
v 1.554819 3.618999 -3.079388
v 1.551512 3.619592 -3.080316
v 1.548212 3.619941 -3.081525
v 1.544930 3.620091 -3.082958
v 1.541776 3.619915 -3.084708
v 1.538814 3.619542 -3.086594
v 1.536091 3.618889 -3.088690
v 1.533588 3.618089 -3.090850
v 1.531336 3.617008 -3.093215
v 1.529304 3.615746 -3.095683
v 1.527534 3.614344 -3.098187
v 1.526024 3.612728 -3.100813
v 1.524806 3.610934 -3.103503
v 1.523863 3.609049 -3.106165
v 1.523225 3.607011 -3.108856
v 1.522934 3.604810 -3.111569
v 1.522909 3.602509 -3.114266
v 1.523235 3.600167 -3.116840
v 1.523865 3.597673 -3.119442
v 1.524868 3.595167 -3.121876
v 1.526201 3.592614 -3.124203
v 1.589214 3.592746 -3.092763
v 1.588167 3.595290 -3.090299
v 1.586805 3.597808 -3.088034
v 1.585120 3.600296 -3.085976
v 1.583210 3.602670 -3.084171
v 1.581074 3.604961 -3.082586
v 1.578707 3.607153 -3.081239
v 1.576163 3.609208 -3.080149
v 1.573450 3.611136 -3.079298
v 1.570606 3.612929 -3.078678
v 1.571322 3.570188 -3.127535
v 1.574327 3.570587 -3.125611
v 1.577109 3.571238 -3.123513
v 1.579644 3.572104 -3.121292
v 1.581944 3.573195 -3.118930
v 1.583991 3.574485 -3.116468
v 1.585771 3.575911 -3.113984
v 1.527824 3.590127 -3.126292
v 1.529683 3.587708 -3.128117
v 1.531804 3.585385 -3.129705
v 1.534145 3.583173 -3.131061
v 1.536647 3.581091 -3.132189
v 1.539374 3.579163 -3.133035
v 1.542228 3.577359 -3.133677
v 1.545212 3.575727 -3.134061
v 1.548326 3.574295 -3.134155
v 1.551517 3.573018 -3.134036
v 1.554809 3.571976 -3.133602
v 1.558125 3.571127 -3.132938
v 1.561444 3.570537 -3.131979
v 1.564792 3.570154 -3.130772
v 1.568132 3.570033 -3.129273
v 1.587266 3.577559 -3.111326
v 1.588466 3.579351 -3.108630
v 1.589368 3.581272 -3.105946
v 1.590000 3.583332 -3.103244
v 1.590285 3.585519 -3.100579
v 1.590269 3.587837 -3.097923
v 1.589939 3.590261 -3.095311
vn 0.3230 0.7235 -0.6101
vn 0.3231 0.7235 -0.6100
vn 0.3160 0.7181 -0.6201
vn 0.3037 0.7235 -0.6199
vn 0.3057 0.7185 -0.6247
vn 0.3086 0.7126 -0.6301
vn 0.3284 0.7125 -0.6200
vn 0.3137 0.7125 -0.6275
vn 0.3255 0.7186 -0.6144
vn 0.3229 0.7235 -0.6101
vn 0.3088 0.7235 -0.6174
vn 0.3230 0.7235 -0.6100
vn 0.3229 0.7236 -0.6100
vn 0.3037 0.7236 -0.6198
vn 0.3037 0.7235 -0.6198
vn 0.3036 0.7235 -0.6200
vn 0.3037 0.7235 -0.6200
vn 0.3037 0.7236 -0.6199
vn 0.3036 0.7236 -0.6199
vn 0.3045 0.7232 -0.6199
vn 0.3041 0.7238 -0.6193
vn 0.3038 0.7235 -0.6199
vn 0.3036 0.7235 -0.6199
vn 0.3085 0.7126 -0.6301
vn 0.3087 0.7126 -0.6300
vn 0.3087 0.7125 -0.6300
vn 0.3086 0.7126 -0.6300
vn 0.3086 0.7125 -0.6301
vn 0.3087 0.7125 -0.6301
vn 0.2982 0.7117 -0.6360
vn 0.3285 0.7127 -0.6198
vn 0.3283 0.7126 -0.6200
vn 0.3283 0.7126 -0.6199
usemtl None
s 1
f 33//1 32//2 1//3
f 14//4 12//4 1//3
f 3//5 1//3 49//6
f 63//7 4//8 1//3
f 2//9 1//3 31//10
f 1//3 5//11 40//12
f 31//10 1//3 32//2
f 40//12 39//2 1//3
f 39//2 38//1 1//3
f 38//1 37//1 1//3
f 37//1 36//12 1//3
f 36//12 35//12 1//3
f 35//12 34//13 1//3
f 34//13 33//1 1//3
f 1//3 3//5 30//4
f 30//4 29//14 1//3
f 29//14 28//4 1//3
f 28//4 27//4 1//3
f 27//4 26//4 1//3
f 26//4 25//15 1//3
f 25//15 24//4 1//3
f 24//4 23//16 1//3
f 23//16 22//17 1//3
f 22//17 21//4 1//3
f 21//4 20//18 1//3
f 20//18 19//19 1//3
f 19//19 18//4 1//3
f 18//4 17//20 16//4
f 16//4 15//4 1//3
f 15//4 14//4 1//3
f 14//4 13//21 12//4
f 12//4 11//15 1//3
f 11//15 10//22 1//3
f 10//22 9//4 1//3
f 9//4 8//4 1//3
f 8//4 7//23 1//3
f 7//23 6//17 1//3
f 6//17 5//11 1//3
f 18//4 16//4 1//3
f 1//3 4//8 47//24
f 47//24 46//25 1//3
f 46//25 45//26 1//3
f 45//26 44//25 1//3
f 44//25 43//6 1//3
f 43//6 42//27 1//3
f 42//27 41//6 1//3
f 41//6 62//27 1//3
f 62//27 61//27 1//3
f 61//27 60//28 1//3
f 60//28 59//27 1//3
f 59//27 58//27 1//3
f 58//27 57//27 1//3
f 57//27 56//27 1//3
f 56//27 55//27 1//3
f 55//27 54//27 1//3
f 54//27 53//27 1//3
f 53//27 52//29 1//3
f 52//29 51//27 1//3
f 51//27 50//6 1//3
f 50//6 49//6 1//3
f 49//6 48//30 3//5
f 1//3 2//9 69//31
f 69//31 68//32 1//3
f 68//32 67//32 1//3
f 67//32 66//32 1//3
f 66//32 65//33 1//3
f 65//33 64//32 1//3
f 64//32 63//7 1//3
