# Blender v2.81 (sub 16) OBJ File: ''
# www.blender.org
mtllib Bermuda.mtl
o 0_Bermuda_sphere.001
v 1.799779 2.670494 3.824732
v 1.799205 2.670700 3.824850
v 1.799629 2.670298 3.824934
v 1.799054 2.670397 3.825126
v 1.798442 2.670313 3.825459
v 1.797809 2.670353 3.825718
v 1.797522 2.670754 3.825572
v 1.797704 2.670906 3.825387
v 1.798297 2.670748 3.825227
v 1.798621 2.670877 3.824992
v 1.798841 2.670979 3.824823
vn 0.3487 0.5289 0.7737
vn 0.3495 0.5289 0.7734
vn 0.3489 0.5291 0.7735
vn 0.3492 0.5314 0.7718
vn 0.3490 0.5296 0.7730
vn 0.3497 0.5289 0.7732
vn 0.3486 0.5289 0.7737
vn 0.3471 0.5293 0.7742
vn 0.3489 0.5290 0.7735
vn 0.3495 0.5290 0.7732
usemtl None
s 1
f 4//1 3//2 2//3
f 2//3 11//4 10//5
f 9//6 8//7 6//1
f 8//7 7//8 6//1
f 2//3 10//5 4//1
f 10//5 9//6 5//9
f 4//1 10//5 5//9
f 3//2 1//10 2//3
f 6//1 5//9 9//6
o 1_Bermuda_sphere.001
v 1.799333 2.672173 3.823784
v 1.799617 2.671102 3.824389
v 1.799894 2.670061 3.824976
v 1.800228 2.668804 3.825685
v 1.807884 2.676064 3.816893
v 1.808035 2.675390 3.817287
v 1.807672 2.675639 3.817292
v 1.807094 2.676039 3.817298
v 1.806151 2.676257 3.817608
v 1.805938 2.675922 3.817945
v 1.805408 2.676416 3.817862
v 1.804545 2.675510 3.818914
v 1.804910 2.674906 3.819154
v 1.805634 2.674641 3.818984
v 1.806872 2.674246 3.818651
v 1.805680 2.673642 3.819655
v 1.804663 2.672848 3.820704
v 1.803399 2.671753 3.822084
v 1.802595 2.671210 3.822855
v 1.802201 2.670422 3.823595
v 1.801208 2.669323 3.824845
v 1.800968 2.670794 3.823940
v 1.801026 2.671067 3.823723
v 1.800029 2.670956 3.824288
v 1.800711 2.671986 3.823239
v 1.801768 2.672543 3.822335
v 1.802419 2.672717 3.821895
v 1.802948 2.673503 3.821090
v 1.803254 2.673414 3.821002
v 1.804392 2.673471 3.820405
v 1.804584 2.673881 3.820026
v 1.805009 2.674370 3.819478
v 1.804380 2.674872 3.819437
v 1.803691 2.674567 3.819987
v 1.803254 2.674206 3.820452
v 1.803249 2.673741 3.820777
v 1.802901 2.673840 3.820879
v 1.802671 2.674141 3.820782
v 1.802828 2.674941 3.820150
v 1.803582 2.675572 3.819343
v 1.803943 2.676437 3.818565
v 1.804831 2.677122 3.817655
v 1.805914 2.678251 3.816341
v 1.808214 2.676728 3.816271
v 1.799699 2.668501 3.826131
v 1.798194 2.667876 3.827239
v 1.797167 2.667899 3.827686
v 1.796387 2.667927 3.828019
v 1.795172 2.668583 3.828119
v 1.794460 2.669569 3.827766
v 1.794031 2.670392 3.827397
v 1.794740 2.670126 3.827259
v 1.794499 2.670679 3.826989
v 1.794541 2.671376 3.826493
v 1.793989 2.672105 3.826244
v 1.794546 2.671934 3.826109
v 1.794652 2.672360 3.825770
v 1.795081 2.671935 3.825866
v 1.795601 2.671542 3.825901
v 1.795142 2.671049 3.826445
v 1.795169 2.670198 3.827016
v 1.795090 2.669943 3.827226
v 1.795484 2.669693 3.827219
v 1.796756 2.669549 3.826743
v 1.796803 2.669337 3.826867
v 1.795835 2.669412 3.827253
v 1.795882 2.668933 3.827559
v 1.796479 2.668356 3.827684
v 1.797213 2.668358 3.827352
v 1.798035 2.668712 3.826738
v 1.798169 2.669258 3.826305
v 1.798784 2.669326 3.825980
v 1.799720 2.669943 3.825135
v 1.799223 2.671234 3.824477
v 1.798442 2.672024 3.824289
v 1.798570 2.672277 3.824057
vn 0.3731 0.5291 0.7621
vn 0.3729 0.5289 0.7623
vn 0.3729 0.5291 0.7622
vn 0.3491 0.5292 0.7734
vn 0.3604 0.5292 0.7681
vn 0.3497 0.5293 0.7730
vn 0.3495 0.5288 0.7734
vn 0.3497 0.5290 0.7732
vn 0.3493 0.5289 0.7734
vn 0.3656 0.5290 0.7657
vn 0.3577 0.5291 0.7695
vn 0.3735 0.5291 0.7619
vn 0.3735 0.5293 0.7618
vn 0.3735 0.5290 0.7620
vn 0.3734 0.5291 0.7620
vn 0.3734 0.5290 0.7620
vn 0.3733 0.5290 0.7620
vn 0.3736 0.5290 0.7619
vn 0.3731 0.5293 0.7620
vn 0.3735 0.5292 0.7618
vn 0.3732 0.5292 0.7620
vn 0.3733 0.5291 0.7620
vn 0.3733 0.5288 0.7623
vn 0.3734 0.5292 0.7619
vn 0.3735 0.5294 0.7617
vn 0.3734 0.5289 0.7621
vn 0.3735 0.5289 0.7620
vn 0.3731 0.5296 0.7617
vn 0.3730 0.5292 0.7620
vn 0.3732 0.5293 0.7619
vn 0.3732 0.5289 0.7622
vn 0.3742 0.5285 0.7619
vn 0.3649 0.5288 0.7663
vn 0.3738 0.5289 0.7619
vn 0.3742 0.5293 0.7614
vn 0.3498 0.5296 0.7727
vn 0.3491 0.5289 0.7735
vn 0.3492 0.5292 0.7733
vn 0.3495 0.5289 0.7733
vn 0.3494 0.5292 0.7732
vn 0.3493 0.5291 0.7733
vn 0.3494 0.5291 0.7733
vn 0.3490 0.5288 0.7736
vn 0.3492 0.5289 0.7735
vn 0.3490 0.5291 0.7735
vn 0.3494 0.5289 0.7733
vn 0.3491 0.5291 0.7734
vn 0.3496 0.5291 0.7732
vn 0.3492 0.5291 0.7733
vn 0.3492 0.5290 0.7734
vn 0.3486 0.5292 0.7735
vn 0.3493 0.5290 0.7733
vn 0.3495 0.5286 0.7736
vn 0.3491 0.5292 0.7733
vn 0.3491 0.5287 0.7737
vn 0.3495 0.5301 0.7725
vn 0.3494 0.5300 0.7727
vn 0.3499 0.5292 0.7729
usemtl None
s 1
f 25//11 24//12 43//13
f 85//14 12//15 86//16
f 79//17 78//18 59//19
f 14//20 15//21 32//22
f 32//22 31//23 33//24
f 31//23 30//25 34//26
f 33//24 31//23 34//26
f 30//25 29//27 38//28
f 29//27 28//29 40//30
f 38//28 29//27 40//30
f 27//31 26//32 25//11
f 28//29 27//31 41//31
f 27//31 25//11 43//13
f 41//31 27//31 42//33
f 14//20 32//22 33//24
f 22//34 21//35 20//25
f 19//36 18//11 16//37
f 18//11 17//38 16//37
f 16//37 55//34 19//36
f 55//34 54//25 19//36
f 53//34 52//25 22//34
f 52//25 51//24 23//26
f 54//25 53//34 20//25
f 20//25 53//34 22//34
f 20//25 19//36 54//25
f 51//24 50//39 45//40
f 50//39 49//13 46//32
f 49//13 48//41 46//32
f 48//41 47//42 46//32
f 52//25 23//26 22//34
f 50//39 46//32 45//40
f 51//24 45//40 44//37
f 23//26 51//24 44//37
f 24//12 23//26 44//37
f 43//13 42//33 27//31
f 24//12 44//37 43//13
f 13//43 35//44 12//15
f 35//44 34//26 36//32
f 36//32 12//15 35//44
f 38//28 37//24 30//25
f 37//24 36//32 30//25
f 40//30 39//45 38//28
f 41//31 40//30 28//29
f 30//25 36//32 34//26
f 13//43 12//15 85//14
f 12//15 87//46 86//16
f 15//21 14//20 84//47
f 83//48 82//49 81//50
f 15//21 84//47 83//48
f 57//51 56//52 81//50
f 56//52 15//21 83//48
f 81//50 56//52 83//48
f 59//19 58//53 79//17
f 58//53 57//51 80//54
f 61//55 60//48 74//51
f 60//48 59//19 78//18
f 63//51 62//56 61//55
f 65//57 64//58 71//59
f 64//58 63//51 72//52
f 71//59 64//58 72//52
f 67//60 66//61 65//57
f 69//62 68//63 67//60
f 71//59 70//64 69//62
f 73//65 72//52 63//51
f 76//66 75//67 77//68
f 75//67 74//51 77//68
f 71//59 69//62 65//57
f 65//57 69//62 67//60
f 77//68 74//51 78//18
f 74//51 73//65 61//55
f 78//18 74//51 60//48
f 63//51 61//55 73//65
f 58//53 80//54 79//17
f 80//54 57//51 81//50
