# Blender v2.81 (sub 16) OBJ File: ''
# www.blender.org
mtllib British Indian Ocean Territory.mtl
o 0_British_Indian_Ocean_Territory_sphere.001
v 1.496295 -0.646098 -4.726316
v 1.495456 -0.645320 -4.726683
v 1.493556 -0.642502 -4.727664
v 1.493246 -0.642086 -4.727818
v 1.492978 -0.641867 -4.727931
v 1.492752 -0.641549 -4.728045
v 1.492570 -0.640848 -4.728199
v 1.492304 -0.641327 -4.728214
v 1.492164 -0.641812 -4.728189
v 1.492194 -0.642385 -4.728099
v 1.492446 -0.643083 -4.727923
v 1.493081 -0.643888 -4.727615
v 1.495360 -0.646066 -4.726608
v 1.496255 -0.646689 -4.726245
v 1.496839 -0.644248 -4.726408
v 1.496546 -0.639304 -4.727193
v 1.497210 -0.637239 -4.727279
v 1.497771 -0.636757 -4.727174
v 1.499708 -0.635672 -4.726731
v 1.500417 -0.635477 -4.726540
v 1.501185 -0.634983 -4.726373
v 1.503071 -0.632523 -4.726139
v 1.501961 -0.632685 -4.726458
v 1.497760 -0.635592 -4.727341
v 1.496649 -0.636646 -4.727535
v 1.496077 -0.638733 -4.727418
vn 0.2912 -0.1332 -0.9473
vn 0.2913 -0.1331 -0.9473
vn 0.2913 -0.1332 -0.9473
vn 0.2920 -0.1332 -0.9471
vn 0.2915 -0.1335 -0.9472
vn 0.2917 -0.1330 -0.9472
vn 0.2915 -0.1331 -0.9472
vn 0.2918 -0.1331 -0.9472
vn 0.2892 -0.1332 -0.9479
vn 0.2924 -0.1334 -0.9469
vn 0.2914 -0.1330 -0.9473
vn 0.2910 -0.1330 -0.9474
vn 0.2898 -0.1332 -0.9478
vn 0.2909 -0.1334 -0.9474
vn 0.2918 -0.1329 -0.9472
vn 0.2926 -0.1330 -0.9469
vn 0.2917 -0.1333 -0.9471
vn 0.2907 -0.1327 -0.9475
vn 0.2911 -0.1330 -0.9474
vn 0.2916 -0.1329 -0.9472
vn 0.2916 -0.1328 -0.9473
vn 0.2915 -0.1332 -0.9472
vn 0.2912 -0.1330 -0.9474
vn 0.2919 -0.1332 -0.9471
vn 0.2912 -0.1329 -0.9474
vn 0.2911 -0.1336 -0.9473
usemtl None
s 1
f 25//1 18//2 17//3
f 9//4 6//5 5//6
f 23//7 22//8 21//9
f 21//9 20//10 23//7
f 20//10 19//11 23//7
f 25//1 24//12 18//2
f 24//12 23//7 19//11
f 15//13 1//14 26//15
f 16//16 15//13 26//15
f 24//12 19//11 18//2
f 16//16 26//15 17//3
f 26//15 25//1 17//3
f 9//4 8//17 6//5
f 8//17 7//18 6//5
f 11//19 10//20 4//21
f 10//20 9//4 5//6
f 13//22 12//23 2//24
f 12//23 11//19 3//25
f 2//24 12//23 3//25
f 1//14 14//26 13//22
f 4//21 3//25 11//19
f 2//24 1//14 13//22
f 10//20 5//6 4//21
o 1_British_Indian_Ocean_Territory_sphere.001
v 1.492693 -0.640601 -4.728197
v 1.493063 -0.640137 -4.728148
v 1.493455 -0.639470 -4.728121
v 1.493698 -0.638752 -4.728147
v 1.493499 -0.638111 -4.728298
v 1.492297 -0.635451 -4.729042
v 1.493133 -0.633372 -4.729077
v 1.494921 -0.631359 -4.728810
v 1.496434 -0.628911 -4.728688
v 1.495532 -0.629551 -4.728876
v 1.492557 -0.633360 -4.729256
v 1.491642 -0.634909 -4.729320
v 1.492015 -0.636095 -4.729038
v 1.492812 -0.637242 -4.728632
v 1.493203 -0.638703 -4.728306
v 1.493148 -0.639302 -4.728239
v 1.493040 -0.639804 -4.728202
vn 0.2920 -0.1333 -0.9471
vn 0.2932 -0.1332 -0.9467
vn 0.2910 -0.1332 -0.9474
vn 0.2914 -0.1332 -0.9473
vn 0.2912 -0.1330 -0.9474
vn 0.2922 -0.1328 -0.9471
vn 0.2918 -0.1332 -0.9471
vn 0.2915 -0.1330 -0.9472
vn 0.2900 -0.1327 -0.9478
vn 0.2900 -0.1328 -0.9478
vn 0.2924 -0.1326 -0.9471
vn 0.2907 -0.1331 -0.9475
vn 0.2899 -0.1331 -0.9477
vn 0.2898 -0.1330 -0.9478
vn 0.2893 -0.1335 -0.9478
vn 0.2878 -0.1335 -0.9483
usemtl None
s 1
f 29//27 43//28 42//29
f 38//30 37//31 32//32
f 37//31 36//33 34//34
f 33//35 37//31 34//34
f 36//33 35//33 34//34
f 40//36 39//37 32//32
f 39//37 38//30 32//32
f 37//31 33//35 32//32
f 32//32 31//38 40//36
f 31//38 30//39 41//40
f 40//36 31//38 41//40
f 30//39 29//27 42//29
f 29//27 28//41 43//28
f 28//41 27//42 43//28
f 41//40 30//39 42//29
o 2_British_Indian_Ocean_Territory_sphere.001
v 1.587525 -0.579484 -4.704985
v 1.587802 -0.579428 -4.704898
v 1.587918 -0.579239 -4.704881
v 1.586970 -0.579185 -4.705213
vn 0.3215 -0.1166 -0.9397
vn 0.3211 -0.1183 -0.9396
vn 0.3208 -0.1191 -0.9396
vn 0.3224 -0.1133 -0.9398
usemtl None
s 1
f 46//43 44//44 47//45
f 46//43 45//46 44//44
o 3_British_Indian_Ocean_Territory_sphere.001
v 1.596072 -0.556284 -4.704961
v 1.596147 -0.555368 -4.705050
v 1.596038 -0.555019 -4.705131
v 1.595639 -0.554679 -4.705310
v 1.595526 -0.555372 -4.705262
v 1.595580 -0.555775 -4.705194
v 1.595826 -0.556050 -4.705075
vn 0.3230 -0.1172 -0.9391
vn 0.3217 -0.1169 -0.9395
vn 0.3220 -0.1167 -0.9395
vn 0.3224 -0.1180 -0.9392
vn 0.3219 -0.1170 -0.9395
vn 0.3215 -0.1177 -0.9395
vn 0.3226 -0.1177 -0.9392
usemtl None
s 1
f 53//47 52//48 49//49
f 52//48 51//50 50//51
f 50//51 49//49 52//48
f 49//49 48//52 54//53
f 53//47 49//49 54//53
o 4_British_Indian_Ocean_Territory_sphere.001
v 1.589800 -0.540346 -4.708962
v 1.590359 -0.539566 -4.708855
v 1.590060 -0.538897 -4.709030
v 1.589685 -0.538386 -4.709213
v 1.589189 -0.538050 -4.709420
v 1.588571 -0.537955 -4.709642
v 1.588863 -0.538948 -4.709434
v 1.589288 -0.539950 -4.709180
vn 0.3226 -0.1019 -0.9410
vn 0.3226 -0.1021 -0.9410
vn 0.3221 -0.1018 -0.9412
vn 0.3230 -0.1024 -0.9408
vn 0.3229 -0.1026 -0.9409
vn 0.3224 -0.1020 -0.9411
vn 0.3222 -0.1020 -0.9412
vn 0.3233 -0.1018 -0.9408
usemtl None
s 1
f 62//54 61//55 57//56
f 60//57 59//58 61//55
f 59//58 58//59 61//55
f 58//59 57//56 61//55
f 57//56 56//60 62//54
f 56//60 55//61 62//54
o 5_British_Indian_Ocean_Territory_sphere.001
v 1.556777 -0.474008 -4.727451
v 1.557503 -0.473457 -4.727262
v 1.557709 -0.473272 -4.727211
v 1.556933 -0.473414 -4.727462
v 1.556689 -0.473624 -4.727523
v 1.556692 -0.473826 -4.727500
vn 0.3205 -0.1012 -0.9418
vn 0.3202 -0.1014 -0.9419
vn 0.3219 -0.1012 -0.9413
vn 0.3238 -0.1020 -0.9406
vn 0.3228 -0.0999 -0.9412
vn 0.3226 -0.1002 -0.9412
usemtl None
s 1
f 63//62 68//63 66//64
f 67//65 66//64 68//63
f 66//64 65//66 64//67
f 63//62 66//64 64//67
o 7_British_Indian_Ocean_Territory_sphere.001
v 1.560123 -0.460537 -4.727596
v 1.559329 -0.459213 -4.727990
v 1.559454 -0.459973 -4.727877
v 1.559690 -0.460356 -4.727762
v 1.559968 -0.460514 -4.727652
vn 0.3249 -0.0859 -0.9418
vn 0.3244 -0.0833 -0.9422
vn 0.3276 -0.0823 -0.9412
vn 0.3245 -0.0864 -0.9419
vn 0.3198 -0.0799 -0.9441
usemtl None
s 1
f 71//68 69//69 72//70
f 70//71 69//69 71//68
f 69//69 73//72 72//70
o 8_British_Indian_Ocean_Territory_sphere.001
v 1.557965 -0.456577 -4.728698
v 1.558106 -0.456429 -4.728663
v 1.558306 -0.456311 -4.728606
v 1.557645 -0.456097 -4.728852
v 1.557811 -0.456535 -4.728755
vn 0.3223 -0.0877 -0.9425
vn 0.3221 -0.0868 -0.9427
vn 0.3227 -0.0871 -0.9424
vn 0.3226 -0.0883 -0.9424
vn 0.3201 -0.0876 -0.9433
usemtl None
s 1
f 75//73 78//74 77//75
f 77//75 76//76 75//73
f 75//73 74//77 78//74
o 9_British_Indian_Ocean_Territory_sphere.001
v 1.541404 -0.456171 -4.734406
v 1.541538 -0.455964 -4.734378
v 1.541705 -0.455864 -4.734330
v 1.541786 -0.455762 -4.734312
v 1.541706 -0.455491 -4.734364
v 1.541390 -0.455538 -4.734468
v 1.541340 -0.455686 -4.734472
v 1.541412 -0.455910 -4.734427
vn 0.3219 -0.0857 -0.9429
vn 0.3231 -0.0856 -0.9425
vn 0.3251 -0.0860 -0.9418
vn 0.3228 -0.0862 -0.9425
vn 0.3234 -0.0862 -0.9423
vn 0.3285 -0.0861 -0.9405
vn 0.3232 -0.0874 -0.9423
vn 0.3153 -0.0870 -0.9449
usemtl None
s 1
f 86//78 85//79 81//80
f 85//79 84//81 83//82
f 83//82 82//83 81//80
f 80//84 79//85 86//78
f 83//82 81//80 85//79
f 81//80 80//84 86//78
