# Blender v2.81 (sub 16) OBJ File: ''
# www.blender.org
mtllib Cayman Islands.mtl
o 1_Cayman_Islands_sphere.001
v 0.819875 1.685542 4.634731
v 0.819112 1.685068 4.635034
v 0.817051 1.684470 4.635606
v 0.811233 1.681485 4.637685
v 0.808362 1.681862 4.638052
v 0.809453 1.683374 4.637322
v 0.810791 1.684128 4.636820
v 0.812291 1.685340 4.636127
v 0.814242 1.685611 4.635690
v 0.816595 1.685603 4.635282
v 0.818780 1.686463 4.634594
v 0.820184 1.685686 4.634626
vn 0.1622 0.3312 0.9295
vn 0.1621 0.3315 0.9294
vn 0.1623 0.3313 0.9294
vn 0.1610 0.3312 0.9297
vn 0.1620 0.3315 0.9294
vn 0.1614 0.3314 0.9296
vn 0.1623 0.3312 0.9295
vn 0.1622 0.3313 0.9295
vn 0.1621 0.3313 0.9295
vn 0.1625 0.3313 0.9294
usemtl None
s 1
f 3//1 2//2 10//3
f 12//4 11//5 1//6
f 11//5 10//3 2//2
f 1//6 11//5 2//2
f 10//3 9//7 3//1
f 9//7 8//1 4//8
f 3//1 9//7 4//8
f 7//9 6//3 4//8
f 6//3 5//10 4//8
f 8//1 7//9 4//8
o 2_Cayman_Islands_sphere.001
v 0.826025 1.683608 4.634347
v 0.827675 1.685655 4.633329
v 0.833110 1.687996 4.631546
v 0.835765 1.689569 4.630523
v 0.837589 1.690042 4.630035
v 0.838783 1.689593 4.629987
v 0.839255 1.688355 4.630346
v 0.835555 1.686401 4.631689
v 0.829115 1.684539 4.633476
vn 0.1623 0.3313 0.9294
vn 0.1624 0.3313 0.9294
vn 0.1622 0.3313 0.9295
vn 0.1635 0.3313 0.9292
vn 0.1620 0.3313 0.9295
vn 0.1622 0.3314 0.9294
vn 0.1623 0.3314 0.9294
vn 0.1624 0.3314 0.9294
usemtl None
s 1
f 20//11 19//12 16//13
f 19//12 18//14 17//15
f 17//15 16//13 19//12
f 16//13 15//16 20//11
f 15//16 14//17 21//16
f 14//17 13//18 21//16
f 21//16 20//11 15//16
