# Blender v2.81 (sub 16) OBJ File: ''
# www.blender.org
mtllib Clipperton Island.mtl
o 0_Clipperton_Island_sphere.001
v -1.618497 0.892922 4.645029
v -1.619203 0.892298 4.644908
v -1.619917 0.893220 4.644485
v -1.620359 0.894570 4.644073
v -1.619641 0.894837 4.644267
v -1.618573 0.894119 4.644772
vn -0.3185 0.1798 0.9307
vn -0.3191 0.1798 0.9305
vn -0.3187 0.1799 0.9306
vn -0.3187 0.1798 0.9306
vn -0.3181 0.1798 0.9308
vn -0.3170 0.1798 0.9312
usemtl None
s 1
f 3//1 2//2 1//3
f 1//3 6//4 3//1
f 6//4 5//5 3//1
f 5//5 4//6 3//1
