# Blender v2.81 (sub 16) OBJ File: ''
# www.blender.org
mtllib Comoros.mtl
o 0_Comoros_sphere.001
v 3.523398 -1.071269 -3.381059
v 3.527597 -1.070130 -3.377079
v 3.531795 -1.069984 -3.372792
v 3.532815 -1.069500 -3.371889
v 3.533151 -1.068865 -3.371738
v 3.533331 -1.067393 -3.372008
v 3.533634 -1.066584 -3.371945
v 3.534249 -1.065890 -3.371526
v 3.534823 -1.065575 -3.371031
v 3.535344 -1.065119 -3.370634
v 3.535711 -1.063991 -3.370604
v 3.536224 -1.060922 -3.371025
v 3.536101 -1.059655 -3.371543
v 3.535022 -1.060123 -3.372511
v 3.534100 -1.060763 -3.373266
v 3.531503 -1.061433 -3.375738
v 3.530304 -1.061913 -3.376827
v 3.526740 -1.064804 -3.379610
v 3.526079 -1.065691 -3.380018
v 3.525551 -1.066001 -3.380467
v 3.521905 -1.068934 -3.383322
v 3.521020 -1.070408 -3.383779
v 3.521111 -1.071094 -3.383473
v 3.521999 -1.071278 -3.382500
vn 0.7021 -0.2105 -0.6803
vn 0.7019 -0.2103 -0.6805
vn 0.7021 -0.2103 -0.6803
vn 0.7021 -0.2104 -0.6802
vn 0.7021 -0.2104 -0.6803
vn 0.7020 -0.2104 -0.6803
vn 0.7020 -0.2105 -0.6803
vn 0.7020 -0.2102 -0.6804
vn 0.7021 -0.2099 -0.6803
vn 0.7021 -0.2107 -0.6802
vn 0.7023 -0.2105 -0.6800
vn 0.7021 -0.2106 -0.6802
vn 0.7019 -0.2107 -0.6803
vn 0.7023 -0.2108 -0.6799
vn 0.7017 -0.2104 -0.6807
usemtl None
s 1
f 11//1 8//2 15//1
f 22//3 21//4 24//5
f 21//4 20//6 1//5
f 24//5 21//4 1//5
f 19//6 18//7 2//6
f 18//7 17//1 2//6
f 6//6 17//1 7//8
f 20//6 19//6 2//6
f 24//5 23//9 22//3
f 2//6 1//5 20//6
f 4//10 3//7 5//11
f 3//7 2//6 17//1
f 6//6 3//7 17//1
f 6//6 5//11 3//7
f 17//1 16//12 7//8
f 16//12 15//1 8//2
f 7//8 16//12 8//2
f 15//1 14//1 12//1
f 14//1 13//13 12//1
f 12//1 11//1 15//1
f 11//1 10//14 9//15
f 11//1 9//15 8//2
o 1_Comoros_sphere.001
v 3.483462 -1.058107 -3.426342
v 3.483130 -1.059297 -3.426316
v 3.481546 -1.069698 -3.424733
v 3.481643 -1.071232 -3.424158
v 3.482222 -1.071872 -3.423363
v 3.482794 -1.071565 -3.422867
v 3.483521 -1.070840 -3.422342
v 3.484163 -1.069969 -3.421948
v 3.484458 -1.069218 -3.421877
v 3.484739 -1.068162 -3.421913
v 3.485160 -1.067565 -3.421663
v 3.490196 -1.063298 -3.417787
v 3.490844 -1.062193 -3.417460
v 3.491420 -1.060879 -3.417272
v 3.492400 -1.060262 -3.416451
v 3.494848 -1.059569 -3.414140
v 3.498951 -1.056887 -3.410735
v 3.499531 -1.056329 -3.410310
v 3.502223 -1.054332 -3.408149
v 3.503207 -1.053105 -3.407514
v 3.502281 -1.053062 -3.408482
v 3.501442 -1.053342 -3.409261
v 3.499769 -1.054276 -3.410699
v 3.498675 -1.054650 -3.411712
v 3.496695 -1.055032 -3.413637
v 3.495942 -1.055441 -3.414288
v 3.495665 -1.055088 -3.414683
v 3.495147 -1.054647 -3.415354
v 3.494903 -1.054274 -3.415721
v 3.493036 -1.054798 -3.417485
v 3.491783 -1.052769 -3.419406
v 3.491365 -1.049597 -3.420818
v 3.492000 -1.046711 -3.421057
v 3.491481 -1.046469 -3.421667
v 3.490757 -1.045798 -3.422621
v 3.490178 -1.045555 -3.423294
v 3.489905 -1.045372 -3.423632
v 3.489661 -1.045105 -3.423967
v 3.489422 -1.044894 -3.424278
v 3.489015 -1.044907 -3.424695
v 3.488630 -1.045268 -3.424981
v 3.487938 -1.046462 -3.425325
v 3.487716 -1.046732 -3.425470
vn 0.7020 -0.2104 -0.6804
vn 0.7019 -0.2105 -0.6804
vn 0.7020 -0.2104 -0.6803
vn 0.7020 -0.2107 -0.6802
vn 0.7021 -0.2107 -0.6802
vn 0.7020 -0.2105 -0.6803
vn 0.7021 -0.2104 -0.6803
vn 0.7019 -0.2108 -0.6803
vn 0.7023 -0.2101 -0.6801
vn 0.7021 -0.2113 -0.6799
vn 0.7019 -0.2099 -0.6806
vn 0.7022 -0.2104 -0.6802
vn 0.7020 -0.2106 -0.6802
vn 0.7018 -0.2118 -0.6801
vn 0.7020 -0.2103 -0.6804
vn 0.7020 -0.2107 -0.6803
vn 0.7020 -0.2106 -0.6803
vn 0.7021 -0.2110 -0.6800
vn 0.7020 -0.2102 -0.6803
vn 0.7017 -0.2105 -0.6807
vn 0.7023 -0.2105 -0.6800
vn 0.7020 -0.2109 -0.6802
vn 0.7020 -0.2105 -0.6804
vn 0.7021 -0.2106 -0.6802
vn 0.7022 -0.2106 -0.6801
usemtl None
s 1
f 48//16 47//16 42//17
f 26//18 25//18 37//19
f 25//18 67//20 56//21
f 55//22 25//18 56//21
f 66//20 65//23 61//24
f 65//23 64//25 63//26
f 25//18 55//22 38//21
f 67//20 66//20 56//21
f 28//27 27//22 30//28
f 27//22 26//18 35//18
f 30//28 29//29 28//27
f 32//21 31//30 27//22
f 31//30 30//28 27//22
f 34//21 33//31 27//22
f 33//31 32//21 27//22
f 37//19 36//32 26//18
f 36//32 35//18 26//18
f 38//21 37//19 25//18
f 35//18 34//21 27//22
f 65//23 63//26 62//33
f 61//24 65//23 62//33
f 60//34 59//35 56//21
f 59//35 58//23 56//21
f 61//24 60//34 66//20
f 58//23 57//19 56//21
f 60//34 56//21 66//20
f 41//17 40//21 49//21
f 40//21 39//18 54//22
f 50//36 40//21 51//17
f 42//17 41//17 48//16
f 40//21 50//36 49//21
f 39//18 38//21 54//22
f 54//22 53//37 52//38
f 38//21 55//22 54//22
f 54//22 52//38 40//21
f 52//38 51//17 40//21
f 43//39 42//17 46//21
f 48//16 41//17 49//21
f 45//39 44//40 43//39
f 47//16 46//21 42//17
f 46//21 45//39 43//39
o 2_Comoros_sphere.001
v 3.567649 -1.013939 -3.353131
v 3.555732 -1.013939 -3.365428
v 3.566846 -1.011602 -3.354627
v 3.566960 -1.010684 -3.354771
v 3.567269 -1.009770 -3.354715
v 3.567469 -1.008765 -3.354795
v 3.568843 -0.993641 -3.357699
v 3.569105 -0.992639 -3.357715
v 3.569564 -0.991716 -3.357505
v 3.569186 -0.990232 -3.358319
v 3.568926 -0.988129 -3.359189
v 3.568540 -0.986491 -3.360055
v 3.567855 -0.986449 -3.360774
v 3.565502 -0.985226 -3.363551
v 3.564061 -0.984904 -3.365131
v 3.562891 -0.985526 -3.366159
v 3.561986 -0.986841 -3.366718
v 3.561251 -0.988220 -3.367083
v 3.560761 -0.989776 -3.367143
v 3.559778 -1.005764 -3.363589
v 3.558734 -1.009233 -3.363675
v 3.551194 -1.033749 -3.363983
v 3.551917 -1.033631 -3.363273
v 3.552330 -1.032995 -3.363044
v 3.552897 -1.031932 -3.362787
v 3.556894 -1.027593 -3.360005
v 3.557858 -1.027087 -3.359167
v 3.560428 -1.026884 -3.356577
v 3.561077 -1.026657 -3.355978
v 3.561848 -1.026148 -3.355340
v 3.563187 -1.024850 -3.354359
v 3.563829 -1.023991 -3.353963
v 3.564111 -1.023230 -3.353907
v 3.564299 -1.022491 -3.353942
v 3.564679 -1.021663 -3.353806
v 3.566530 -1.019570 -3.352543
v 3.567399 -1.018210 -3.352067
v 3.568002 -1.016126 -3.352089
v 3.567964 -1.015292 -3.352386
v 3.567732 -1.014251 -3.352948
v 3.555333 -1.014578 -3.365642
v 3.553808 -1.018070 -3.366135
v 3.553645 -1.018938 -3.366035
v 3.553461 -1.020745 -3.365666
v 3.553267 -1.021613 -3.365597
v 3.552888 -1.022234 -3.365797
v 3.552430 -1.022776 -3.366102
v 3.551961 -1.023390 -3.366396
v 3.551649 -1.024259 -3.366449
v 3.551368 -1.025111 -3.366476
v 3.550845 -1.026078 -3.366715
v 3.549067 -1.028678 -3.367747
v 3.548974 -1.029386 -3.367623
v 3.549401 -1.030919 -3.366708
v 3.549480 -1.031779 -3.366360
v 3.549432 -1.032392 -3.366220
v 3.549524 -1.032873 -3.365976
v 3.549908 -1.033313 -3.365444
v 3.550409 -1.033574 -3.364847
vn 0.7044 -0.1950 -0.6825
vn 0.7044 -0.1951 -0.6825
vn 0.7043 -0.1950 -0.6825
vn 0.7020 -0.2104 -0.6803
vn 0.7019 -0.2107 -0.6803
vn 0.7021 -0.2104 -0.6803
vn 0.7032 -0.2056 -0.6806
vn 0.7028 -0.2057 -0.6810
vn 0.7043 -0.1952 -0.6825
vn 0.7043 -0.1951 -0.6825
vn 0.7043 -0.1949 -0.6825
vn 0.7043 -0.1953 -0.6824
vn 0.7044 -0.1949 -0.6825
vn 0.7044 -0.1953 -0.6824
vn 0.7043 -0.1945 -0.6827
vn 0.7042 -0.1949 -0.6827
vn 0.7052 -0.1946 -0.6817
vn 0.7070 -0.1940 -0.6800
vn 0.7021 -0.2103 -0.6803
vn 0.7037 -0.2104 -0.6786
vn 0.7019 -0.2105 -0.6804
vn 0.7020 -0.2103 -0.6803
vn 0.7017 -0.2105 -0.6806
vn 0.7002 -0.2106 -0.6821
vn 0.7031 -0.2107 -0.6791
vn 0.7021 -0.2105 -0.6803
vn 0.7021 -0.2104 -0.6802
vn 0.7021 -0.2103 -0.6802
vn 0.7022 -0.2107 -0.6801
vn 0.7014 -0.2107 -0.6809
vn 0.7021 -0.2106 -0.6802
vn 0.7027 -0.2101 -0.6797
vn 0.7029 -0.2104 -0.6794
vn 0.7022 -0.2105 -0.6801
vn 0.7031 -0.2108 -0.6791
vn 0.7020 -0.2105 -0.6803
vn 0.7031 -0.2104 -0.6792
vn 0.7020 -0.2106 -0.6803
vn 0.7020 -0.2112 -0.6800
vn 0.7018 -0.2113 -0.6803
vn 0.7017 -0.2108 -0.6806
vn 0.7021 -0.2107 -0.6802
vn 0.7019 -0.2109 -0.6803
vn 0.7020 -0.2102 -0.6804
usemtl None
s 1
f 74//41 73//42 87//43
f 92//44 126//45 122//46
f 68//47 69//48 70//49
f 69//48 88//43 70//49
f 87//43 86//50 74//41
f 86//50 85//49 81//50
f 74//41 86//50 77//51
f 88//43 87//43 71//52
f 70//49 88//43 71//52
f 85//49 84//53 81//50
f 84//53 83//49 82//54
f 82//54 81//50 84//53
f 81//50 80//43 86//50
f 80//43 79//53 78//55
f 77//51 76//56 75//57
f 80//43 78//55 77//51
f 77//51 86//50 80//43
f 71//52 87//43 73//42
f 73//42 72//58 71//52
f 77//51 75//57 74//41
f 69//48 68//47 102//59
f 68//47 107//60 103//61
f 102//59 68//47 103//61
f 107//60 106//62 104//63
f 106//62 105//64 104//63
f 104//63 103//61 107//60
f 109//65 108//66 110//67
f 108//66 69//48 101//68
f 110//67 108//66 94//44
f 111//62 110//67 94//44
f 94//44 108//66 101//68
f 101//68 100//69 98//44
f 100//69 99//70 98//44
f 69//48 102//59 101//68
f 112//71 111//62 94//44
f 115//72 114//73 116//68
f 114//73 113//66 116//68
f 113//66 112//71 93//44
f 98//44 97//74 101//68
f 97//74 96//75 95//46
f 101//68 97//74 95//46
f 95//46 94//44 101//68
f 112//71 94//44 93//44
f 117//76 116//68 93//44
f 116//68 113//66 93//44
f 120//77 119//74 121//59
f 119//74 118//78 121//59
f 118//78 117//76 92//44
f 122//46 121//59 92//44
f 121//59 118//78 92//44
f 124//79 123//80 125//81
f 123//80 122//46 125//81
f 126//45 125//81 122//46
f 90//82 89//83 91//84
f 89//83 126//45 91//84
f 92//44 91//84 126//45
f 117//76 93//44 92//44
