# Blender v2.81 (sub 16) OBJ File: ''
# www.blender.org
mtllib Cook Islands.mtl
o 0_Cook_Islands_sphere.001
v -4.297519 -1.867875 1.742603
v -4.298009 -1.867767 1.741533
v -4.298485 -1.867350 1.740827
v -4.298989 -1.866685 1.740314
v -4.299581 -1.865746 1.739879
v -4.299795 -1.864799 1.740364
v -4.299883 -1.863835 1.741171
v -4.299800 -1.863169 1.742077
v -4.299585 -1.862910 1.742870
v -4.299023 -1.863302 1.743813
v -4.298399 -1.864071 1.744505
v -4.297065 -1.865954 1.745733
v -4.296644 -1.866857 1.745795
v -4.296770 -1.867441 1.744871
v -4.297167 -1.867762 1.743573
vn -0.8563 -0.3754 0.3547
vn -0.8563 -0.3754 0.3546
vn -0.8563 -0.3752 0.3548
vn -0.8565 -0.3751 0.3546
vn -0.8564 -0.3753 0.3546
vn -0.8562 -0.3755 0.3547
vn -0.8569 -0.3736 0.3551
vn -0.8561 -0.3759 0.3546
vn -0.8565 -0.3750 0.3546
vn -0.8564 -0.3754 0.3544
vn -0.8563 -0.3756 0.3545
vn -0.8563 -0.3752 0.3549
usemtl None
s 1
f 11//1 7//2 3//3
f 13//4 12//2 14//5
f 12//2 11//1 15//6
f 14//5 12//2 15//6
f 11//1 10//1 7//2
f 10//1 9//7 8//8
f 7//2 10//1 8//8
f 7//2 6//9 4//10
f 6//9 5//11 4//10
f 7//2 4//10 3//3
f 3//3 2//12 11//1
f 2//12 1//2 11//1
f 1//2 15//6 11//1
o 1_Cook_Islands_sphere.001
v -4.371287 -1.811673 1.613687
v -4.371204 -1.812316 1.613201
v -4.372112 -1.811993 1.611153
v -4.372195 -1.812048 1.610872
v -4.373009 -1.811311 1.609526
v -4.374067 -1.811549 1.606466
v -4.374770 -1.810677 1.605561
v -4.374763 -1.810079 1.606230
v -4.375154 -1.808536 1.606886
v -4.375458 -1.807576 1.607133
v -4.375428 -1.807039 1.607800
v -4.374782 -1.806798 1.609774
v -4.374203 -1.806845 1.611255
v -4.373487 -1.807233 1.612725
v -4.372748 -1.808026 1.613811
v -4.372111 -1.809277 1.614129
v -4.371509 -1.810918 1.613926
vn -0.8724 -0.3607 0.3298
vn -0.8724 -0.3606 0.3298
vn -0.8724 -0.3608 0.3297
vn -0.8726 -0.3606 0.3295
vn -0.8725 -0.3608 0.3296
vn -0.8723 -0.3610 0.3296
vn -0.8722 -0.3606 0.3303
vn -0.8724 -0.3609 0.3296
vn -0.8722 -0.3609 0.3302
vn -0.8723 -0.3605 0.3302
vn -0.8724 -0.3609 0.3295
vn -0.8726 -0.3605 0.3295
vn -0.8717 -0.3626 0.3297
usemtl None
s 1
f 23//13 21//14 20//15
f 32//16 31//17 18//18
f 31//17 30//19 29//20
f 18//18 31//17 29//20
f 29//20 28//20 20//15
f 28//20 27//15 20//15
f 27//15 26//13 24//15
f 20//15 27//15 24//15
f 26//13 25//21 24//15
f 23//13 22//22 21//14
f 24//15 23//13 20//15
f 29//20 20//15 18//18
f 16//23 32//16 18//18
f 18//18 17//24 16//23
f 20//15 19//25 18//18
o 2_Cook_Islands_sphere.001
v -4.329867 -1.724548 1.808677
v -4.330332 -1.724265 1.807828
v -4.331031 -1.723039 1.807321
v -4.331509 -1.721613 1.807543
v -4.331337 -1.721133 1.808420
v -4.330782 -1.721481 1.809425
v -4.330026 -1.722613 1.810160
v -4.329731 -1.723963 1.809571
vn -0.8667 -0.3463 0.3590
vn -0.8668 -0.3460 0.3589
vn -0.8668 -0.3460 0.3591
vn -0.8669 -0.3459 0.3590
vn -0.8667 -0.3460 0.3592
vn -0.8665 -0.3459 0.3598
vn -0.8667 -0.3461 0.3592
vn -0.8665 -0.3466 0.3591
usemtl None
s 1
f 40//26 39//27 35//28
f 39//27 38//29 35//28
f 38//29 37//30 35//28
f 37//30 36//31 35//28
f 35//28 34//32 40//26
f 34//32 33//33 40//26
o 3_Cook_Islands_sphere.001
v -4.358377 -1.711571 1.752357
v -4.359072 -1.711245 1.750993
v -4.359957 -1.710024 1.750032
v -4.360783 -1.708053 1.749939
v -4.360421 -1.707737 1.751117
v -4.359457 -1.708463 1.752744
v -4.358525 -1.709478 1.754017
v -4.358103 -1.711007 1.753561
vn -0.8667 -0.3461 0.3591
vn -0.8666 -0.3464 0.3591
vn -0.8667 -0.3462 0.3591
vn -0.8668 -0.3461 0.3590
vn -0.8667 -0.3462 0.3590
vn -0.8668 -0.3461 0.3589
vn -0.8667 -0.3461 0.3593
usemtl None
s 1
f 41//34 48//35 47//36
f 47//36 46//37 41//34
f 46//37 45//38 43//39
f 45//38 44//40 43//39
f 43//39 42//37 46//37
f 42//37 41//34 46//37
o 4_Cook_Islands_sphere.001
v -4.368991 -1.696307 1.741444
v -4.369694 -1.695420 1.740602
v -4.369508 -1.695540 1.740937
v -4.369337 -1.695774 1.741124
vn -0.8669 -0.3448 0.3600
vn -0.8664 -0.3474 0.3586
vn -0.8670 -0.3443 0.3602
vn -0.8659 -0.3500 0.3573
usemtl None
s 1
f 52//41 50//42 49//43
f 52//41 51//44 50//42
o 5_Cook_Islands_sphere.001
v -4.370333 -1.695071 1.739397
v -4.370369 -1.694832 1.739540
v -4.370206 -1.694535 1.740219
v -4.370241 -1.695013 1.739674
vn -0.8661 -0.3473 0.3594
vn -0.8660 -0.3476 0.3594
vn -0.8655 -0.3492 0.3592
vn -0.8668 -0.3453 0.3597
usemtl None
s 1
f 54//45 56//46 55//47
f 54//45 53//48 56//46
o 6_Cook_Islands_sphere.001
v -4.353314 -1.693693 1.781811
v -4.352311 -1.693693 1.784234
v -4.353361 -1.693238 1.782115
v -4.353301 -1.691301 1.784039
v -4.353220 -1.690805 1.784687
v -4.352723 -1.692553 1.784284
v -4.351217 -1.698098 1.782628
v -4.351600 -1.696968 1.782793
v -4.352034 -1.696162 1.782522
v -4.352429 -1.695653 1.782060
v -4.352829 -1.695014 1.781710
v -4.353291 -1.693902 1.781667
v -4.351879 -1.694814 1.784196
v -4.351199 -1.696901 1.783826
vn -0.8717 -0.3309 0.3614
vn -0.8719 -0.3306 0.3612
vn -0.8717 -0.3313 0.3611
vn -0.8668 -0.3462 0.3587
vn -0.8670 -0.3458 0.3588
vn -0.8667 -0.3462 0.3590
vn -0.8684 -0.3411 0.3598
vn -0.8692 -0.3390 0.3600
vn -0.8716 -0.3309 0.3616
vn -0.8665 -0.3467 0.3590
vn -0.8667 -0.3463 0.3589
vn -0.8665 -0.3468 0.3591
vn -0.8669 -0.3457 0.3591
vn -0.8672 -0.3450 0.3588
usemtl None
s 1
f 60//49 59//50 62//51
f 64//52 70//53 65//54
f 57//55 58//56 59//50
f 58//56 62//51 59//50
f 62//51 61//57 60//49
f 58//56 57//55 67//58
f 57//55 68//59 67//58
f 67//58 66//60 69//61
f 67//58 69//61 58//56
f 66//60 65//54 69//61
f 63//62 70//53 64//52
f 70//53 69//61 65//54
o 7_Cook_Islands_sphere.001
v -4.403983 -1.649422 1.696502
v -4.403663 -1.649158 1.697611
v -4.403601 -1.649401 1.697534
v -4.403594 -1.649571 1.697383
v -4.403642 -1.649837 1.696992
v -4.404144 -1.649415 1.696082
v -4.404776 -1.648606 1.695213
v -4.405179 -1.647842 1.694906
v -4.404973 -1.647601 1.695688
v -4.404694 -1.648026 1.696006
v -4.404350 -1.648820 1.696128
vn -0.8813 -0.3360 0.3321
vn -0.8826 -0.3315 0.3332
vn -0.8824 -0.3326 0.3326
vn -0.8827 -0.3313 0.3331
vn -0.8827 -0.3310 0.3336
vn -0.8826 -0.3311 0.3336
vn -0.8826 -0.3302 0.3345
vn -0.8820 -0.3331 0.3332
vn -0.8830 -0.3305 0.3332
vn -0.8873 -0.3223 0.3298
vn -0.8836 -0.3291 0.3329
usemtl None
s 1
f 71//63 81//64 76//65
f 81//64 80//66 77//67
f 80//66 79//68 77//67
f 79//68 78//69 77//67
f 77//67 76//65 81//64
f 76//65 75//70 71//63
f 75//70 74//71 71//63
f 74//71 73//72 72//73
f 71//63 74//71 72//73
o 8_Cook_Islands_sphere.001
v -4.439646 -1.614239 1.636803
v -4.439410 -1.614928 1.636776
v -4.439614 -1.614620 1.636527
v -4.439837 -1.614073 1.636454
v -4.439947 -1.613993 1.636236
v -4.439746 -1.615539 1.635310
v -4.439668 -1.615834 1.635239
v -4.439002 -1.617651 1.635287
v -4.438936 -1.618454 1.634702
v -4.439265 -1.618406 1.633875
v -4.439718 -1.617641 1.633401
v -4.440079 -1.616617 1.633413
v -4.440454 -1.615022 1.633925
v -4.440503 -1.614484 1.634301
v -4.440484 -1.613725 1.635069
v -4.440169 -1.613558 1.636060
vn -0.8873 -0.3170 0.3349
vn -0.8873 -0.3166 0.3353
vn -0.8873 -0.3163 0.3356
vn -0.8871 -0.3168 0.3356
vn -0.8874 -0.3162 0.3352
vn -0.8874 -0.3164 0.3352
vn -0.8874 -0.3168 0.3349
vn -0.8871 -0.3171 0.3352
vn -0.8875 -0.3157 0.3355
vn -0.8875 -0.3158 0.3355
vn -0.8874 -0.3162 0.3353
vn -0.8871 -0.3169 0.3355
vn -0.8875 -0.3160 0.3353
vn -0.8872 -0.3168 0.3353
vn -0.8871 -0.3171 0.3353
vn -0.8867 -0.3185 0.3351
usemtl None
s 1
f 82//74 84//75 83//76
f 87//77 86//78 96//79
f 82//74 85//80 84//75
f 97//81 96//79 86//78
f 96//79 95//82 87//77
f 95//82 94//83 87//77
f 94//83 93//84 88//85
f 87//77 94//83 88//85
f 93//84 92//86 89//87
f 92//86 91//88 89//87
f 91//88 90//89 89//87
f 89//87 88//85 93//84
f 86//78 85//80 97//81
o 9_Cook_Islands_sphere.001
v -4.759991 -0.944699 1.202817
v -4.760098 -0.944495 1.202546
v -4.760270 -0.943860 1.202369
v -4.760120 -0.943739 1.203094
v -4.760040 -0.943726 1.203440
v -4.759940 -0.943823 1.203774
v -4.759937 -0.944494 1.203217
vn -0.9539 -0.1945 0.2287
vn -0.9536 -0.1952 0.2292
vn -0.9537 -0.1948 0.2289
vn -0.9534 -0.1963 0.2292
vn -0.9536 -0.1957 0.2287
vn -0.9535 -0.1953 0.2296
vn -0.9530 -0.1985 0.2289
usemtl None
s 1
f 101//90 99//91 104//92
f 103//93 102//94 104//92
f 102//94 101//90 104//92
f 101//90 100//95 99//91
f 99//91 98//96 104//92
o 10_Cook_Islands_sphere.001
v -4.647162 -0.904413 1.605768
v -4.649106 -0.900925 1.602058
v -4.649433 -0.900290 1.601460
v -4.649541 -0.900018 1.601297
v -4.648949 -0.900817 1.602575
vn -0.9304 -0.1805 0.3189
vn -0.9305 -0.1799 0.3188
vn -0.9304 -0.1804 0.3189
vn -0.9306 -0.1796 0.3188
usemtl None
s 1
f 106//97 109//98 107//99
f 105//100 109//98 106//97
f 109//98 108//99 107//99
o 11_Cook_Islands_sphere.001
v -4.656922 -0.871954 1.595563
v -4.657092 -0.871135 1.595528
v -4.656701 -0.870480 1.597040
v -4.656725 -0.871250 1.596535
vn -0.9307 -0.1798 0.3186
vn -0.9306 -0.1802 0.3185
vn -0.9306 -0.1805 0.3184
vn -0.9307 -0.1796 0.3186
usemtl None
s 1
f 111//101 113//102 112//103
f 111//101 110//104 113//102
o 12_Cook_Islands_sphere.001
v -4.577424 -0.780432 1.852932
v -4.578032 -0.780034 1.851619
v -4.578777 -0.779052 1.850205
v -4.579285 -0.778043 1.849376
v -4.579174 -0.777511 1.849854
v -4.576803 -0.779903 1.854636
v -4.576727 -0.780432 1.854612
vn -0.9135 -0.1492 0.3783
vn -0.9135 -0.1491 0.3785
vn -0.9134 -0.1491 0.3786
vn -0.9134 -0.1493 0.3786
vn -0.9135 -0.1491 0.3786
vn -0.9136 -0.1479 0.3786
vn -0.9134 -0.1489 0.3788
usemtl None
s 1
f 116//105 115//106 118//107
f 120//108 119//109 114//110
f 119//109 118//107 115//106
f 114//110 119//109 115//106
f 118//107 117//111 116//105
