# Blender v2.81 (sub 16) OBJ File: ''
# www.blender.org
mtllib Cyprus.mtl
o 0_Cyprus_sphere.001
v 3.404775 2.866582 -2.277398
v 3.404593 2.866583 -2.277674
v 3.404437 2.866579 -2.277916
v 3.404351 2.866401 -2.278271
v 3.404408 2.866093 -2.278573
v 3.404681 2.866030 -2.278236
v 3.404859 2.865960 -2.278054
v 3.404959 2.865967 -2.277893
v 3.404899 2.866188 -2.277706
v 3.405056 2.866251 -2.277387
v 3.405261 2.866209 -2.277128
v 3.405139 2.866519 -2.276924
v 3.405225 2.866632 -2.276651
v 3.405348 2.866846 -2.276193
v 3.405191 2.866969 -2.276278
v 3.405010 2.866966 -2.276558
v 3.404772 2.866850 -2.277066
vn 0.6877 0.5684 -0.4516
vn 0.6876 0.5689 -0.4510
vn 0.6876 0.5687 -0.4514
vn 0.6874 0.5688 -0.4516
vn 0.6877 0.5685 -0.4514
vn 0.6875 0.5684 -0.4519
vn 0.6870 0.5684 -0.4526
vn 0.6876 0.5684 -0.4517
vn 0.6870 0.5689 -0.4521
vn 0.6875 0.5686 -0.4516
vn 0.6875 0.5686 -0.4517
vn 0.6873 0.5687 -0.4519
vn 0.6876 0.5690 -0.4511
vn 0.6872 0.5687 -0.4519
vn 0.6876 0.5683 -0.4519
vn 0.6883 0.5678 -0.4515
vn 0.6879 0.5687 -0.4509
usemtl None
s 1
f 9//1 7//2 6//3
f 5//4 4//5 6//3
f 4//5 3//6 6//3
f 3//6 2//7 9//1
f 2//7 1//8 9//1
f 1//8 17//9 12//10
f 17//9 16//11 12//10
f 16//11 15//12 13//13
f 15//12 14//14 13//13
f 13//13 12//10 16//11
f 12//10 11//15 10//16
f 9//1 8//17 7//2
f 12//10 10//16 1//8
f 10//16 9//1 1//8
f 6//3 3//6 9//1
o 1_Cyprus_sphere.001
v 3.405475 2.867763 -2.274847
v 3.405533 2.867852 -2.274646
v 3.405455 2.868051 -2.274513
v 3.405221 2.868365 -2.274475
v 3.405011 2.868642 -2.274446
v 3.404782 2.868721 -2.274695
v 3.404556 2.868706 -2.275059
v 3.404994 2.867953 -2.275340
v 3.405260 2.867854 -2.275060
vn 0.6876 0.5691 -0.4508
vn 0.6879 0.5677 -0.4521
vn 0.6878 0.5679 -0.4520
vn 0.6880 0.5682 -0.4514
vn 0.6878 0.5682 -0.4517
vn 0.6878 0.5681 -0.4518
vn 0.6879 0.5672 -0.4529
vn 0.6876 0.5686 -0.4515
vn 0.6880 0.5680 -0.4516
usemtl None
s 1
f 20//18 18//19 26//20
f 24//21 23//22 25//23
f 23//22 22//24 21//25
f 21//25 20//18 26//20
f 21//25 25//23 23//22
f 20//18 19//26 18//19
f 26//20 25//23 21//25
o 2_Cyprus_sphere.001
v 3.396022 2.871394 -2.284667
v 3.395467 2.871394 -2.285512
v 3.394529 2.871854 -2.286362
v 3.393843 2.871841 -2.287421
v 3.393672 2.871481 -2.288136
v 3.393379 2.871129 -2.289024
v 3.392908 2.871270 -2.289564
v 3.392566 2.871480 -2.289820
v 3.392176 2.871851 -2.289947
v 3.392029 2.871154 -2.291048
v 3.392004 2.870151 -2.292349
v 3.392697 2.868191 -2.293762
v 3.392992 2.866926 -2.294904
v 3.393111 2.865764 -2.296185
v 3.392910 2.865291 -2.297087
v 3.393485 2.865226 -2.296292
v 3.394422 2.865371 -2.294683
v 3.395165 2.865777 -2.293042
v 3.395200 2.866483 -2.292099
v 3.395447 2.866855 -2.291256
v 3.397826 2.866431 -2.288168
v 3.400182 2.865557 -2.285680
v 3.400783 2.865209 -2.285205
v 3.401393 2.864693 -2.284925
v 3.402261 2.865042 -2.283165
v 3.403141 2.864797 -2.282134
v 3.403289 2.865068 -2.281566
v 3.402413 2.865747 -2.282045
v 3.402003 2.865879 -2.282505
v 3.401302 2.867105 -2.282027
v 3.401985 2.867207 -2.280860
v 3.402079 2.867763 -2.280017
v 3.401147 2.869331 -2.279462
v 3.401173 2.869847 -2.278773
v 3.401727 2.870456 -2.277163
v 3.401081 2.871215 -2.277190
v 3.400446 2.871682 -2.277570
v 3.399689 2.872084 -2.278216
v 3.399576 2.871751 -2.278807
v 3.399570 2.871354 -2.279316
v 3.398914 2.871520 -2.280105
v 3.398123 2.872040 -2.280656
v 3.397576 2.872530 -2.280871
v 3.397128 2.872935 -2.281045
v 3.396918 2.872084 -2.282436
v 3.396576 2.871830 -2.283276
v 3.396308 2.871531 -2.284059
vn 0.6874 0.5686 -0.4518
vn 0.6878 0.5684 -0.4516
vn 0.6877 0.5684 -0.4515
vn 0.6876 0.5685 -0.4516
vn 0.6876 0.5683 -0.4517
vn 0.6879 0.5682 -0.4516
vn 0.6876 0.5686 -0.4514
vn 0.6873 0.5690 -0.4514
vn 0.6877 0.5684 -0.4516
vn 0.6881 0.5682 -0.4513
vn 0.6883 0.5680 -0.4513
vn 0.6879 0.5683 -0.4515
vn 0.6877 0.5686 -0.4514
vn 0.6875 0.5686 -0.4517
vn 0.6871 0.5688 -0.4521
vn 0.6873 0.5686 -0.4519
vn 0.6875 0.5686 -0.4516
vn 0.6875 0.5685 -0.4518
vn 0.6876 0.5686 -0.4516
vn 0.6877 0.5689 -0.4510
vn 0.6874 0.5688 -0.4516
vn 0.6876 0.5684 -0.4517
vn 0.6876 0.5685 -0.4517
vn 0.6879 0.5686 -0.4511
vn 0.6877 0.5685 -0.4515
vn 0.6875 0.5687 -0.4516
vn 0.6879 0.5682 -0.4515
vn 0.6874 0.5686 -0.4519
vn 0.6876 0.5684 -0.4518
vn 0.6868 0.5695 -0.4516
vn 0.6879 0.5680 -0.4519
vn 0.6879 0.5683 -0.4514
vn 0.6874 0.5687 -0.4517
usemtl None
s 1
f 66//27 63//28 60//29
f 38//30 37//31 46//30
f 37//31 36//32 33//33
f 46//30 37//31 33//33
f 36//32 35//30 34//34
f 36//32 34//34 33//33
f 39//30 38//30 44//35
f 42//36 41//37 40//38
f 38//30 46//30 45//30
f 42//36 40//38 43//30
f 40//38 39//30 43//30
f 44//35 43//30 39//30
f 45//30 44//35 38//30
f 33//33 32//39 46//30
f 31//40 30//41 29//42
f 46//30 32//39 47//30
f 32//39 31//40 47//30
f 31//40 29//42 28//43
f 47//30 31//40 28//43
f 48//43 47//30 27//44
f 47//30 28//43 27//44
f 51//45 50//46 49//47
f 49//47 48//43 56//48
f 48//43 27//44 73//48
f 73//48 72//30 56//48
f 72//30 71//49 56//48
f 48//43 73//48 56//48
f 53//50 52//51 54//52
f 52//51 51//45 54//52
f 51//45 49//47 55//43
f 71//49 70//53 69//51
f 49//47 56//48 55//43
f 55//43 54//52 51//45
f 71//49 69//51 68//54
f 71//49 68//54 67//55
f 56//48 71//49 67//55
f 58//35 57//48 59//35
f 57//48 56//48 59//35
f 59//35 56//48 67//55
f 66//27 65//56 63//28
f 65//56 64//57 63//28
f 59//35 67//55 66//27
f 62//58 61//59 60//29
f 60//29 59//35 66//27
f 63//28 62//58 60//29
o 3_Cyprus_sphere.001
v 3.456357 2.870878 -2.193465
v 3.466435 2.853607 -2.199861
v 3.450201 2.875025 -2.197617
v 3.438411 2.875025 -2.215566
v 3.431291 2.875025 -2.226405
v 3.412591 2.875025 -2.254874
v 3.438328 2.874461 -2.216401
v 3.438781 2.873420 -2.217022
v 3.439177 2.872747 -2.217267
v 3.439297 2.872166 -2.217816
v 3.439041 2.871912 -2.218524
v 3.438715 2.871890 -2.219049
v 3.437419 2.872336 -2.220459
v 3.436635 2.872832 -2.221030
v 3.436324 2.873163 -2.221087
v 3.435620 2.873954 -2.221162
v 3.435146 2.874242 -2.221522
v 3.434956 2.873930 -2.222204
v 3.435004 2.873430 -2.222760
v 3.434758 2.872819 -2.223903
v 3.434233 2.872814 -2.224709
v 3.433418 2.873310 -2.225325
v 3.432044 2.874438 -2.225996
v 3.412609 2.874828 -2.255094
v 3.412780 2.874416 -2.255351
v 3.413448 2.873163 -2.255913
v 3.414162 2.872018 -2.256267
v 3.414991 2.870588 -2.256804
v 3.416175 2.868965 -2.257044
v 3.417141 2.867706 -2.257159
v 3.417588 2.866720 -2.257718
v 3.417635 2.866001 -2.258552
v 3.417194 2.866020 -2.259200
v 3.416389 2.866286 -2.260091
v 3.415458 2.867428 -2.260072
v 3.414126 2.869481 -2.259514
v 3.413715 2.869804 -2.259733
v 3.413150 2.870274 -2.260002
v 3.412507 2.870761 -2.260367
v 3.412478 2.870274 -2.261025
v 3.413469 2.868551 -2.261685
v 3.413795 2.867567 -2.262426
v 3.413488 2.867261 -2.263280
v 3.412510 2.867718 -2.264194
v 3.411661 2.868668 -2.264290
v 3.411094 2.869045 -2.264679
v 3.410712 2.868970 -2.265355
v 3.410524 2.868508 -2.266222
v 3.410132 2.868604 -2.266699
v 3.409705 2.868818 -2.267080
v 3.409388 2.868625 -2.267805
v 3.409174 2.868350 -2.268476
v 3.408731 2.867634 -2.270052
v 3.408299 2.867540 -2.270828
v 3.407931 2.867416 -2.271544
v 3.407658 2.866837 -2.272689
v 3.407598 2.866776 -2.272857
v 3.408264 2.865705 -2.273190
v 3.409371 2.865223 -2.272112
v 3.411325 2.863637 -2.271135
v 3.412145 2.862723 -2.271037
v 3.413088 2.861556 -2.271070
v 3.414021 2.860264 -2.271276
v 3.414810 2.859009 -2.271654
v 3.415534 2.857628 -2.272290
v 3.415981 2.857008 -2.272389
v 3.416485 2.856778 -2.271911
v 3.416882 2.856503 -2.271652
v 3.417883 2.855248 -2.271709
v 3.418309 2.854819 -2.271601
v 3.419054 2.854554 -2.270800
v 3.420390 2.854518 -2.268812
v 3.420996 2.854332 -2.268124
v 3.421648 2.853792 -2.267810
v 3.422531 2.852967 -2.267505
v 3.423450 2.852206 -2.267063
v 3.424176 2.851865 -2.266388
v 3.425704 2.851409 -2.264635
v 3.427327 2.850559 -2.263234
v 3.428424 2.850252 -2.261951
v 3.428402 2.851327 -2.260630
v 3.429601 2.849296 -2.261363
v 3.431304 2.848278 -2.260051
v 3.434759 2.847368 -2.255936
v 3.435588 2.846945 -2.255207
v 3.436165 2.846576 -2.254793
v 3.436928 2.846089 -2.254244
v 3.437598 2.845935 -2.253419
v 3.440164 2.846395 -2.248933
v 3.443268 2.845925 -2.244799
v 3.444011 2.845689 -2.243965
v 3.444891 2.845136 -2.243321
v 3.448184 2.842599 -2.241502
v 3.449308 2.841375 -2.241331
v 3.450271 2.841389 -2.239847
v 3.451227 2.841189 -2.238644
v 3.451789 2.840711 -2.238391
v 3.451902 2.840978 -2.237882
v 3.451370 2.842000 -2.237406
v 3.450554 2.842617 -2.237871
v 3.450610 2.842216 -2.238291
v 3.449853 2.842196 -2.239468
v 3.448774 2.844195 -2.238595
v 3.449911 2.844476 -2.236511
v 3.450822 2.843740 -2.236048
v 3.451439 2.843075 -2.235947
v 3.451506 2.843415 -2.235416
v 3.451828 2.843710 -2.234556
v 3.452254 2.843220 -2.234524
v 3.453111 2.843710 -2.232602
v 3.453366 2.844573 -2.231128
v 3.453177 2.845236 -2.230581
v 3.452665 2.846156 -2.230203
v 3.452945 2.846069 -2.229885
v 3.453248 2.846072 -2.229422
v 3.453448 2.846087 -2.229098
v 3.453633 2.846118 -2.228776
v 3.453744 2.846170 -2.228542
v 3.454102 2.845884 -2.228357
v 3.454492 2.845512 -2.228232
v 3.454798 2.845238 -2.228110
v 3.455391 2.845097 -2.227386
v 3.456286 2.844073 -2.227313
v 3.457002 2.844206 -2.226054
v 3.457342 2.844424 -2.225264
v 3.457888 2.843933 -2.225050
v 3.458544 2.842761 -2.225526
v 3.459095 2.842578 -2.224918
v 3.460936 2.842251 -2.222527
v 3.462304 2.842729 -2.219842
v 3.463269 2.843759 -2.217076
v 3.464161 2.845681 -2.213300
v 3.464599 2.846178 -2.212008
v 3.465233 2.846478 -2.210663
v 3.466744 2.846765 -2.208002
v 3.467178 2.847197 -2.206799
v 3.467460 2.847845 -2.205554
v 3.467935 2.849721 -2.202469
v 3.467949 2.850103 -2.201967
v 3.466971 2.852203 -2.200812
v 3.466942 2.852540 -2.200433
v 3.466576 2.853212 -2.200144
v 3.455798 2.870898 -2.194290
v 3.453707 2.872038 -2.196039
v 3.451546 2.873752 -2.197171
v 3.440220 2.878001 -2.208939
v 3.440318 2.877274 -2.209735
v 3.440008 2.876783 -2.210847
v 3.439278 2.876265 -2.212633
v 3.438884 2.875597 -2.214101
v 3.430752 2.875437 -2.226690
v 3.429744 2.875924 -2.227590
v 3.428326 2.876768 -2.228650
v 3.427550 2.877367 -2.229053
v 3.427122 2.877457 -2.229586
v 3.426250 2.877290 -2.231132
v 3.425404 2.876962 -2.232846
v 3.424429 2.876964 -2.234328
v 3.423654 2.877349 -2.235006
v 3.423228 2.877625 -2.235296
v 3.422616 2.878235 -2.235433
v 3.421085 2.879212 -2.236493
v 3.420463 2.879227 -2.237419
v 3.420153 2.878888 -2.238333
v 3.419791 2.878617 -2.239238
v 3.419349 2.878544 -2.240006
v 3.419130 2.878264 -2.240703
v 3.419120 2.877397 -2.241846
v 3.419182 2.876634 -2.242745
v 3.418893 2.876042 -2.243957
v 3.418174 2.875749 -2.245431
v 3.417776 2.875899 -2.245843
v 3.417351 2.876299 -2.245967
v 3.416975 2.876839 -2.245839
v 3.416152 2.877390 -2.246373
v 3.414596 2.878676 -2.247069
v 3.414150 2.878839 -2.247536
v 3.413585 2.878735 -2.248532
v 3.412500 2.878874 -2.250002
v 3.411693 2.879071 -2.250975
v 3.411598 2.878859 -2.251394
v 3.412158 2.877948 -2.251727
v 3.412651 2.876914 -2.252324
v 3.412620 2.876456 -2.252966
v 3.412623 2.875726 -2.253912
v 3.449587 2.875609 -2.197792
v 3.447670 2.877816 -2.197838
v 3.446536 2.879003 -2.198019
v 3.445528 2.879648 -2.198715
v 3.445228 2.880018 -2.198689
v 3.444930 2.880329 -2.198738
v 3.444617 2.880476 -2.199023
v 3.444481 2.880373 -2.199365
v 3.444345 2.880112 -2.199911
v 3.444312 2.880048 -2.200045
v 3.444137 2.879933 -2.200461
v 3.443655 2.880064 -2.201025
v 3.443822 2.879284 -2.201784
v 3.443558 2.878744 -2.202890
v 3.443085 2.878579 -2.203825
v 3.442519 2.878742 -2.204474
v 3.441720 2.879257 -2.205021
v 3.440880 2.880189 -2.205087
v 3.440103 2.881093 -2.205093
v 3.439009 2.880823 -2.207109
v 3.439870 2.878967 -2.208214
v 3.465241 2.856978 -2.197351
v 3.465341 2.857533 -2.196455
v 3.465649 2.858365 -2.194851
v 3.465655 2.858920 -2.194107
v 3.465552 2.859642 -2.193321
v 3.465274 2.860494 -2.192648
v 3.464760 2.861414 -2.192270
v 3.463887 2.862370 -2.192430
v 3.463515 2.864227 -2.190580
v 3.463159 2.864942 -2.190216
v 3.462234 2.866546 -2.189604
v 3.461610 2.867877 -2.188862
v 3.461138 2.870093 -2.186701
v 3.460784 2.871203 -2.185810
v 3.459903 2.873006 -2.184865
v 3.458992 2.874322 -2.184610
v 3.458309 2.874765 -2.185140
v 3.458054 2.873927 -2.186664
v 3.458050 2.872027 -2.189183
v 3.457877 2.871242 -2.190503
v 3.457436 2.870798 -2.191810
vn 0.6875 0.5685 -0.4519
vn 0.6875 0.5686 -0.4517
vn 0.6876 0.5685 -0.4517
vn 0.6799 0.5814 -0.4469
vn 0.6798 0.5810 -0.4476
vn 0.6800 0.5814 -0.4467
vn 0.6800 0.5815 -0.4466
vn 0.6800 0.5816 -0.4465
vn 0.6800 0.5814 -0.4466
vn 0.7010 0.5685 -0.4304
vn 0.7019 0.5680 -0.4298
vn 0.7015 0.5685 -0.4297
vn 0.6945 0.5685 -0.4410
vn 0.6892 0.5684 -0.4493
vn 0.6876 0.5685 -0.4516
vn 0.6879 0.5681 -0.4516
vn 0.6878 0.5685 -0.4514
vn 0.6868 0.5688 -0.4524
vn 0.6872 0.5688 -0.4518
vn 0.6874 0.5682 -0.4523
vn 0.6875 0.5687 -0.4516
vn 0.6876 0.5686 -0.4516
vn 0.6873 0.5690 -0.4514
vn 0.6889 0.5664 -0.4523
vn 0.6876 0.5685 -0.4518
vn 0.6876 0.5684 -0.4517
vn 0.6875 0.5687 -0.4515
vn 0.6865 0.5705 -0.4508
vn 0.6854 0.5723 -0.4501
vn 0.6876 0.5690 -0.4510
vn 0.6878 0.5683 -0.4516
vn 0.6875 0.5684 -0.4519
vn 0.6876 0.5684 -0.4518
vn 0.6876 0.5685 -0.4515
vn 0.6877 0.5686 -0.4513
vn 0.6876 0.5688 -0.4513
vn 0.6874 0.5687 -0.4517
vn 0.6880 0.5682 -0.4514
vn 0.6881 0.5667 -0.4530
vn 0.6873 0.5687 -0.4519
vn 0.6874 0.5686 -0.4519
vn 0.6870 0.5677 -0.4535
vn 0.6877 0.5684 -0.4516
vn 0.6884 0.5697 -0.4489
vn 0.6899 0.5718 -0.4439
vn 0.6859 0.5678 -0.4550
vn 0.6873 0.5686 -0.4519
vn 0.6877 0.5683 -0.4517
vn 0.6878 0.5682 -0.4517
vn 0.6875 0.5690 -0.4511
vn 0.6876 0.5687 -0.4514
vn 0.6876 0.5679 -0.4523
vn 0.6876 0.5686 -0.4515
vn 0.6876 0.5681 -0.4521
vn 0.6875 0.5683 -0.4521
vn 0.6877 0.5683 -0.4516
vn 0.6872 0.5687 -0.4520
vn 0.6857 0.5717 -0.4505
vn 0.6877 0.5683 -0.4518
vn 0.6875 0.5686 -0.4516
vn 0.6884 0.5690 -0.4497
vn 0.6856 0.5720 -0.4502
vn 0.6875 0.5682 -0.4522
vn 0.6866 0.5684 -0.4533
vn 0.6875 0.5685 -0.4517
vn 0.6874 0.5686 -0.4518
vn 0.6875 0.5685 -0.4518
vn 0.6876 0.5684 -0.4516
vn 0.6878 0.5684 -0.4514
vn 0.6882 0.5688 -0.4503
vn 0.6876 0.5683 -0.4518
vn 0.6879 0.5675 -0.4524
vn 0.6872 0.5694 -0.4510
vn 0.6876 0.5687 -0.4515
vn 0.6883 0.5669 -0.4526
vn 0.6881 0.5682 -0.4513
vn 0.6875 0.5676 -0.4529
vn 0.6877 0.5685 -0.4514
vn 0.6877 0.5685 -0.4515
vn 0.6874 0.5684 -0.4520
vn 0.6864 0.5696 -0.4520
vn 0.6873 0.5688 -0.4517
vn 0.6879 0.5684 -0.4513
vn 0.6878 0.5683 -0.4515
vn 0.6877 0.5682 -0.4519
vn 0.6880 0.5684 -0.4510
vn 0.6874 0.5690 -0.4513
vn 0.6874 0.5683 -0.4522
vn 0.6874 0.5686 -0.4517
vn 0.6875 0.5681 -0.4523
vn 0.6877 0.5684 -0.4515
vn 0.6800 0.5815 -0.4465
vn 0.6800 0.5817 -0.4462
vn 0.6800 0.5812 -0.4468
vn 0.6795 0.5818 -0.4469
vn 0.6802 0.5812 -0.4467
vn 0.6795 0.5813 -0.4476
vn 0.6801 0.5814 -0.4464
vn 0.6801 0.5813 -0.4466
vn 0.6807 0.5799 -0.4475
vn 0.6801 0.5812 -0.4467
vn 0.6800 0.5813 -0.4467
vn 0.6801 0.5805 -0.4477
vn 0.6800 0.5812 -0.4469
vn 0.6801 0.5813 -0.4467
vn 0.6806 0.5807 -0.4466
vn 0.6801 0.5811 -0.4469
vn 0.6800 0.5813 -0.4468
vn 0.6800 0.5811 -0.4470
vn 0.6800 0.5811 -0.4471
vn 0.6797 0.5820 -0.4463
vn 0.6798 0.5817 -0.4465
vn 0.6802 0.5811 -0.4468
vn 0.6787 0.5835 -0.4459
vn 0.6802 0.5810 -0.4468
vn 0.6809 0.5799 -0.4473
vn 0.6794 0.5813 -0.4476
vn 0.6798 0.5816 -0.4466
vn 0.6802 0.5810 -0.4469
vn 0.6799 0.5816 -0.4467
vn 0.6810 0.5807 -0.4461
vn 0.6798 0.5822 -0.4460
vn 0.6795 0.5821 -0.4466
vn 0.6803 0.5811 -0.4466
vn 0.6805 0.5823 -0.4447
vn 0.6800 0.5822 -0.4457
vn 0.6799 0.5815 -0.4467
vn 0.6797 0.5817 -0.4467
vn 0.6801 0.5813 -0.4468
vn 0.6805 0.5810 -0.4465
vn 0.7013 0.5686 -0.4299
vn 0.7015 0.5683 -0.4300
vn 0.7014 0.5685 -0.4299
vn 0.7015 0.5684 -0.4299
vn 0.7015 0.5684 -0.4298
vn 0.7014 0.5686 -0.4298
vn 0.7015 0.5682 -0.4301
vn 0.7014 0.5686 -0.4297
vn 0.7015 0.5685 -0.4298
vn 0.7013 0.5687 -0.4297
vn 0.7023 0.5677 -0.4295
vn 0.7021 0.5691 -0.4278
vn 0.7013 0.5685 -0.4300
usemtl None
s 1
f 137//60 136//61 145//62
f 237//63 236//64 235//65
f 273//66 272//67 259//68
f 284//69 283//70 287//71
f 74//72 75//73 216//74
f 75//73 215//75 207//76
f 216//74 75//73 217//74
f 215//75 214//77 213//78
f 213//78 212//79 211//80
f 211//80 210//81 213//78
f 210//81 209//82 207//76
f 213//78 210//81 207//76
f 209//82 208//83 207//76
f 215//75 213//78 207//76
f 217//74 75//73 206//84
f 206//84 75//73 207//76
f 218//85 217//74 83//80
f 218//85 83//80 82//86
f 77//87 76//88 82//86
f 76//88 218//85 82//86
f 81//89 80//90 77//87
f 82//86 81//89 77//87
f 206//84 205//91 83//80
f 205//91 204//85 198//81
f 204//85 203//74 198//81
f 203//74 202//92 199//80
f 202//92 201//93 199//80
f 201//93 200//74 199//80
f 198//81 197//94 195//95
f 197//94 196//96 195//95
f 203//74 199//80 198//81
f 206//84 83//80 217//74
f 205//91 198//81 191//85
f 191//85 198//81 195//95
f 195//95 194//97 193//91
f 191//85 195//95 192//98
f 84//99 83//80 191//85
f 191//85 83//80 205//91
f 85//100 84//99 191//85
f 195//95 193//91 192//98
f 86//74 85//100 186//62
f 186//62 191//85 189//101
f 87//102 86//74 93//81
f 191//85 186//62 85//100
f 191//85 190//103 189//101
f 189//101 188//104 186//62
f 188//104 187//105 186//62
f 186//62 185//106 183//107
f 185//106 184//108 183//107
f 86//74 186//62 93//81
f 90//109 89//92 91//110
f 89//92 88//111 91//110
f 88//111 87//102 92//80
f 92//80 87//102 93//81
f 186//62 183//107 181//81
f 183//107 182//112 181//81
f 92//80 91//110 88//111
f 186//62 181//81 177//74
f 181//81 180//113 178//91
f 177//74 181//81 178//91
f 180//113 179//114 178//91
f 93//81 186//62 94//80
f 186//62 177//74 94//80
f 94//80 177//74 164//61
f 177//74 176//115 164//61
f 164//61 176//115 165//116
f 78//117 96//74 162//74
f 96//74 95//81 162//74
f 78//117 104//85 103//118
f 95//81 94//80 163//119
f 104//85 78//117 162//74
f 97//120 79//121 98//122
f 79//121 78//117 100//62
f 102//62 78//117 103//118
f 99//118 98//122 79//121
f 102//62 101//123 100//62
f 100//62 99//118 79//121
f 78//117 102//62 100//62
f 176//115 175//74 166//84
f 94//80 164//61 163//119
f 165//116 176//115 166//84
f 174//124 173//125 172//126
f 105//81 104//85 154//74
f 175//74 174//124 168//112
f 174//124 172//126 169//61
f 172//126 171//61 169//61
f 171//61 170//125 169//61
f 106//112 105//81 146//60
f 174//124 169//61 168//112
f 168//112 167//61 175//74
f 167//61 166//84 175//74
f 107//62 106//112 146//60
f 95//81 163//119 162//74
f 110//74 109//62 114//127
f 109//62 108//126 114//127
f 111//81 110//74 114//127
f 112//74 111//81 113//107
f 114//127 113//107 111//81
f 114//127 108//126 115//128
f 108//126 107//62 115//128
f 116//127 115//128 107//62
f 119//129 118//128 120//61
f 118//128 117//62 121//74
f 120//61 118//128 121//74
f 116//127 107//62 136//61
f 104//85 162//74 157//130
f 117//62 116//127 134//62
f 104//85 157//130 154//74
f 151//62 105//81 154//74
f 124//131 123//132 122//133
f 122//133 121//74 133//81
f 121//74 117//62 133//81
f 105//81 151//62 147//124
f 162//74 161//112 158//134
f 161//112 160//135 159//136
f 158//134 161//112 159//136
f 105//81 147//124 146//60
f 124//131 122//133 125//85
f 126//85 125//85 133//81
f 133//81 125//85 122//133
f 128//137 127//138 132//85
f 127//138 126//85 132//85
f 131//139 130//140 129//141
f 129//141 128//137 132//85
f 107//62 146//60 145//62
f 157//130 156//85 154//74
f 156//85 155//142 154//74
f 162//74 158//134 157//130
f 132//85 131//139 129//141
f 133//81 132//85 126//85
f 136//61 107//62 145//62
f 154//74 153//143 152//74
f 133//81 117//62 134//62
f 154//74 152//74 151//62
f 151//62 150//144 147//124
f 150//144 149//145 148//146
f 147//124 150//144 148//146
f 145//62 144//80 141//62
f 144//80 143//147 142//84
f 116//127 136//61 135//148
f 134//62 116//127 135//148
f 144//80 142//84 141//62
f 140//78 139//149 138//150
f 145//62 141//62 137//60
f 141//62 140//78 137//60
f 140//78 138//150 137//60
f 78//117 79//121 244//151
f 79//121 258//65 245//152
f 244//151 79//121 245//152
f 258//65 257//68 245//152
f 257//68 256//153 245//152
f 255//67 254//154 253//66
f 256//153 255//67 252//155
f 255//67 253//66 252//155
f 224//156 78//117 225//157
f 256//153 252//155 251//158
f 251//158 250//159 249//160
f 248//161 247//162 246//163
f 251//158 249//160 248//161
f 256//153 251//158 248//161
f 228//164 227//165 226//166
f 230//65 229//161 226//166
f 229//161 228//164 226//166
f 230//65 226//166 225//157
f 231//167 230//65 78//117
f 230//65 225//157 78//117
f 256//153 248//161 246//163
f 245//152 256//153 246//163
f 78//117 244//151 243//168
f 231//167 78//117 243//168
f 232//169 231//167 242//170
f 231//167 243//168 242//170
f 242//170 241//171 238//65
f 241//171 240//172 238//65
f 238//65 240//172 239//173
f 235//65 234//63 237//63
f 234//63 233//174 237//63
f 233//174 232//169 242//170
f 233//174 242//170 238//65
f 237//63 233//174 238//65
f 76//88 77//87 223//68
f 223//68 222//175 221//167
f 76//88 223//68 221//167
f 261//176 260//167 262//177
f 260//167 259//68 272//67
f 262//177 260//167 271//178
f 259//68 76//88 273//66
f 76//88 221//167 220//179
f 76//88 220//179 273//66
f 262//177 269//166 268//180
f 264//181 263//182 266//183
f 263//182 262//177 267//184
f 266//183 265//185 264//181
f 267//184 266//183 263//182
f 268//180 267//184 262//177
f 220//179 219//186 274//187
f 273//66 220//179 274//187
f 279//186 278//188 276//65
f 278//188 277//164 276//65
f 219//186 279//186 275//163
f 269//166 262//177 271//178
f 271//178 270//189 269//166
f 271//178 260//167 272//67
f 279//186 276//65 275//163
f 275//163 274//187 219//186
f 75//73 74//72 280//190
f 74//72 300//191 290//192
f 280//190 74//72 287//71
f 300//191 299//192 291//71
f 287//71 74//72 289//193
f 74//72 290//192 289//193
f 298//193 297//194 293//195
f 297//194 296//196 295//71
f 299//192 298//193 292//197
f 283//70 282//198 287//71
f 282//198 281//199 287//71
f 281//199 280//190 287//71
f 290//192 300//191 291//71
f 297//194 295//71 294//198
f 293//195 297//194 294//198
f 293//195 292//197 298//193
f 292//197 291//71 299//192
f 289//193 288//200 287//71
f 287//71 286//201 285//202
f 285//202 284//69 287//71
