# Blender v2.81 (sub 16) OBJ File: ''
# www.blender.org
mtllib Cyprus No Mans Area.mtl
o 0_Cyprus_No_Mans_Area_sphere.001
v 3.395271 2.872000 -2.285047
v 3.394025 2.872645 -2.286134
v 3.392588 2.872028 -2.289098
v 3.392287 2.872310 -2.289201
v 3.392201 2.871822 -2.289944
v 3.392547 2.871500 -2.289824
v 3.392918 2.871235 -2.289593
v 3.393371 2.871135 -2.289029
v 3.393699 2.871433 -2.288155
v 3.393810 2.871850 -2.287460
v 3.394545 2.871821 -2.286378
v 3.395443 2.871411 -2.285527
v 3.396021 2.871379 -2.284688
v 3.396301 2.871535 -2.284065
v 3.396570 2.871805 -2.283314
v 3.396898 2.872104 -2.282439
v 3.396246 2.872644 -2.282752
v 3.396144 2.872417 -2.283193
v 3.395754 2.872209 -2.284050
vn 0.6877 0.5681 -0.4519
vn 0.6877 0.5684 -0.4516
vn 0.6876 0.5683 -0.4518
vn 0.6870 0.5690 -0.4519
vn 0.6871 0.5687 -0.4522
vn 0.6874 0.5686 -0.4518
vn 0.6876 0.5685 -0.4516
vn 0.6875 0.5686 -0.4517
vn 0.6875 0.5687 -0.4514
vn 0.6878 0.5684 -0.4515
vn 0.6874 0.5687 -0.4517
vn 0.6876 0.5683 -0.4519
vn 0.6876 0.5686 -0.4516
vn 0.6877 0.5688 -0.4510
vn 0.6877 0.5683 -0.4517
vn 0.6878 0.5683 -0.4516
usemtl None
s 1
f 12//1 11//2 1//3
f 5//4 4//5 3//6
f 3//6 2//7 10//8
f 2//7 1//3 11//2
f 10//8 2//7 11//2
f 5//4 3//6 6//9
f 7//10 6//9 3//6
f 9//11 8//12 3//6
f 8//12 7//10 3//6
f 10//8 9//11 3//6
f 18//13 17//14 16//15
f 15//3 14//16 19//7
f 14//16 13//15 19//7
f 18//13 16//15 15//3
f 19//7 18//13 15//3
f 13//15 12//1 1//3
f 13//15 1//3 19//7
o 1_Cyprus_No_Mans_Area_sphere.001
v 3.441735 2.879247 -2.205010
v 3.442501 2.878761 -2.204478
v 3.443051 2.878609 -2.203837
v 3.443545 2.878767 -2.202880
v 3.443829 2.879262 -2.201802
v 3.443640 2.880082 -2.201023
v 3.442720 2.880505 -2.201873
v 3.442872 2.880200 -2.202040
v 3.442838 2.879433 -2.203090
v 3.442336 2.879544 -2.203708
v 3.441666 2.880094 -2.204013
v 3.441017 2.880881 -2.203977
v 3.440827 2.881119 -2.203957
v 3.440400 2.881182 -2.204525
v 3.440098 2.881091 -2.205103
v 3.440894 2.880179 -2.205077
vn 0.6800 0.5812 -0.4469
vn 0.6801 0.5813 -0.4467
vn 0.6801 0.5812 -0.4467
vn 0.6800 0.5814 -0.4467
vn 0.6799 0.5815 -0.4467
vn 0.6800 0.5814 -0.4466
vn 0.6800 0.5815 -0.4465
vn 0.6799 0.5816 -0.4465
vn 0.6802 0.5811 -0.4467
vn 0.6801 0.5811 -0.4469
vn 0.6801 0.5813 -0.4466
vn 0.6801 0.5815 -0.4464
usemtl None
s 1
f 20//17 30//18 29//19
f 34//20 33//21 35//22
f 33//21 32//23 31//24
f 33//21 31//24 35//22
f 20//17 35//22 30//18
f 22//25 21//26 29//19
f 21//26 20//17 29//19
f 24//27 23//18 28//27
f 23//18 22//25 28//27
f 26//28 25//22 27//27
f 25//22 24//27 27//27
f 28//27 22//25 29//19
f 35//22 31//24 30//18
f 28//27 27//27 24//27
o 2_Cyprus_No_Mans_Area_sphere.001
v 3.438423 2.875025 -2.215548
v 3.437176 2.875025 -2.217446
v 3.434808 2.875025 -2.221051
v 3.432500 2.875025 -2.224564
v 3.431294 2.875025 -2.226401
v 3.412610 2.875025 -2.254844
v 3.412003 2.875025 -2.255768
v 3.412096 2.874402 -2.256412
v 3.412838 2.873103 -2.256917
v 3.413632 2.871729 -2.257437
v 3.414615 2.870391 -2.257624
v 3.415850 2.868639 -2.257950
v 3.416195 2.867975 -2.258260
v 3.415885 2.867823 -2.258924
v 3.415646 2.868255 -2.258744
v 3.415154 2.868984 -2.258574
v 3.414516 2.869897 -2.258397
v 3.414046 2.870370 -2.258516
v 3.412996 2.871672 -2.258477
v 3.412552 2.872020 -2.258715
v 3.412298 2.871981 -2.259151
v 3.411988 2.871885 -2.259743
v 3.411662 2.871619 -2.260574
v 3.411375 2.871669 -2.260947
v 3.410888 2.872403 -2.260765
v 3.410480 2.872876 -2.260792
v 3.410255 2.872838 -2.261182
v 3.410156 2.872404 -2.261879
v 3.410282 2.871765 -2.262491
v 3.410699 2.870720 -2.263172
v 3.410530 2.870157 -2.264138
v 3.410083 2.870074 -2.264922
v 3.409359 2.870630 -2.265326
v 3.408689 2.870967 -2.265921
v 3.408421 2.869848 -2.267736
v 3.407840 2.869848 -2.268621
v 3.407631 2.869942 -2.268822
v 3.407109 2.869849 -2.269735
v 3.406651 2.870062 -2.270163
v 3.406629 2.869733 -2.270610
v 3.406210 2.869257 -2.271847
v 3.406384 2.868756 -2.272213
v 3.407017 2.868261 -2.271872
v 3.407135 2.867831 -2.272235
v 3.406723 2.867452 -2.273339
v 3.407392 2.866591 -2.273404
v 3.407597 2.866797 -2.272833
v 3.407664 2.866837 -2.272680
v 3.407912 2.867476 -2.271497
v 3.408299 2.867559 -2.270803
v 3.408758 2.867622 -2.270027
v 3.409220 2.868297 -2.268472
v 3.409434 2.868572 -2.267801
v 3.409699 2.868838 -2.267063
v 3.410143 2.868608 -2.266677
v 3.410558 2.868475 -2.266211
v 3.410729 2.868950 -2.265354
v 3.411104 2.869053 -2.264653
v 3.411668 2.868668 -2.264280
v 3.412516 2.867717 -2.264185
v 3.413506 2.867244 -2.263273
v 3.413799 2.867595 -2.262386
v 3.413475 2.868551 -2.261676
v 3.412479 2.870275 -2.261022
v 3.412529 2.870749 -2.260348
v 3.413150 2.870275 -2.260000
v 3.413697 2.869842 -2.259713
v 3.414132 2.869486 -2.259500
v 3.415492 2.867399 -2.260055
v 3.416388 2.866314 -2.260057
v 3.417195 2.866021 -2.259197
v 3.417640 2.866010 -2.258533
v 3.417583 2.866741 -2.257700
v 3.417163 2.867694 -2.257140
v 3.416164 2.868987 -2.257034
v 3.414997 2.870593 -2.256790
v 3.414191 2.871982 -2.256268
v 3.413453 2.873168 -2.255898
v 3.412797 2.874401 -2.255344
v 3.412619 2.874832 -2.255073
v 3.432044 2.874449 -2.225984
v 3.433443 2.873316 -2.225280
v 3.434237 2.872828 -2.224685
v 3.434757 2.872828 -2.223892
v 3.435019 2.873429 -2.222739
v 3.434947 2.873964 -2.222173
v 3.435156 2.874240 -2.221509
v 3.435624 2.873969 -2.221138
v 3.436318 2.873173 -2.221082
v 3.436650 2.872835 -2.221003
v 3.437442 2.872314 -2.220453
v 3.438725 2.871888 -2.219036
v 3.439064 2.871890 -2.218519
v 3.439312 2.872169 -2.217789
v 3.439171 2.872758 -2.217263
v 3.438803 2.873398 -2.217017
v 3.438316 2.874493 -2.216381
v 3.437184 2.874861 -2.217641
v 3.437672 2.873397 -2.218740
v 3.437092 2.873335 -2.219701
v 3.436477 2.873972 -2.219836
v 3.435687 2.874703 -2.220118
v 3.435363 2.874839 -2.220440
v 3.433990 2.874839 -2.222531
v 3.433626 2.874720 -2.223234
v 3.433101 2.874836 -2.223886
v 3.411262 2.878239 -2.252713
v 3.411530 2.877073 -2.253822
v 3.412605 2.875762 -2.253893
v 3.412614 2.876477 -2.252948
v 3.412656 2.876914 -2.252316
v 3.412152 2.877969 -2.251710
v 3.411630 2.878851 -2.251357
v 3.411691 2.879100 -2.250939
v 3.412482 2.878910 -2.249983
v 3.413579 2.878755 -2.248514
v 3.414176 2.878836 -2.247500
v 3.414593 2.878701 -2.247041
v 3.416145 2.877415 -2.246351
v 3.416996 2.876832 -2.245814
v 3.417373 2.876292 -2.245944
v 3.417809 2.875872 -2.245827
v 3.418203 2.875717 -2.245429
v 3.418869 2.876079 -2.243943
v 3.419186 2.876639 -2.242732
v 3.419129 2.877410 -2.241816
v 3.419116 2.878309 -2.240665
v 3.419342 2.878569 -2.239984
v 3.419796 2.878627 -2.239217
v 3.420146 2.878913 -2.238311
v 3.420476 2.879245 -2.237377
v 3.421066 2.879257 -2.236463
v 3.422625 2.878253 -2.235397
v 3.423237 2.877639 -2.235265
v 3.423653 2.877355 -2.234999
v 3.424434 2.876973 -2.234308
v 3.425413 2.876975 -2.232815
v 3.426254 2.877300 -2.231112
v 3.427126 2.877471 -2.229562
v 3.427557 2.877352 -2.229060
v 3.428347 2.876765 -2.228622
v 3.429764 2.875926 -2.227557
v 3.430783 2.875418 -2.226666
v 3.438911 2.875579 -2.214083
v 3.439260 2.876291 -2.212626
v 3.440007 2.876797 -2.210830
v 3.440315 2.877293 -2.209714
v 3.440230 2.878000 -2.208924
v 3.439903 2.878953 -2.208182
v 3.439012 2.880841 -2.207081
v 3.438336 2.880689 -2.208309
v 3.438656 2.880209 -2.208446
v 3.439068 2.879372 -2.208908
v 3.439201 2.878648 -2.209647
v 3.439195 2.877942 -2.210575
v 3.438960 2.877522 -2.211480
v 3.438491 2.877268 -2.212525
v 3.437413 2.876773 -2.214809
v 3.437083 2.876044 -2.216262
v 3.431199 2.875713 -2.225650
v 3.429654 2.877035 -2.226282
v 3.428227 2.877774 -2.227492
v 3.427238 2.878313 -2.228295
v 3.426006 2.878730 -2.229629
v 3.424710 2.879421 -2.230703
v 3.423817 2.879775 -2.231601
v 3.423780 2.878976 -2.232697
v 3.423307 2.879056 -2.233313
v 3.421571 2.880522 -2.234048
v 3.420766 2.880849 -2.234848
v 3.419282 2.881194 -2.236658
v 3.418433 2.880404 -2.238978
v 3.418140 2.879840 -2.240159
v 3.417055 2.879638 -2.242074
v 3.416148 2.879250 -2.243958
v 3.415569 2.879193 -2.244914
v 3.414968 2.879506 -2.245422
v 3.414236 2.879506 -2.246537
v 3.412747 2.880061 -2.248082
v 3.412324 2.880340 -2.248362
v 3.411597 2.881051 -2.248542
v 3.410722 2.881735 -2.248986
v 3.410151 2.881835 -2.249725
v 3.410062 2.881465 -2.250342
v 3.410448 2.880632 -2.250839
v 3.410928 2.879618 -2.251427
vn 0.6875 0.5686 -0.4517
vn 0.6876 0.5685 -0.4516
vn 0.6865 0.5705 -0.4509
vn 0.6875 0.5685 -0.4518
vn 0.6875 0.5685 -0.4519
vn 0.6800 0.5815 -0.4465
vn 0.6818 0.5784 -0.4477
vn 0.6800 0.5815 -0.4466
vn 0.6800 0.5814 -0.4466
vn 0.6800 0.5813 -0.4468
vn 0.6850 0.5729 -0.4500
vn 0.6816 0.5787 -0.4478
vn 0.6875 0.5686 -0.4516
vn 0.6877 0.5684 -0.4516
vn 0.6877 0.5685 -0.4514
vn 0.6877 0.5687 -0.4513
vn 0.6873 0.5689 -0.4515
vn 0.6874 0.5688 -0.4516
vn 0.6876 0.5688 -0.4514
vn 0.6876 0.5684 -0.4517
vn 0.6878 0.5681 -0.4519
vn 0.6876 0.5687 -0.4514
vn 0.6876 0.5686 -0.4516
vn 0.6873 0.5685 -0.4519
vn 0.6880 0.5677 -0.4520
vn 0.6877 0.5685 -0.4515
vn 0.6877 0.5683 -0.4517
vn 0.6877 0.5683 -0.4516
vn 0.6878 0.5682 -0.4517
vn 0.6850 0.5729 -0.4499
vn 0.6821 0.5777 -0.4483
vn 0.6875 0.5682 -0.4523
vn 0.6877 0.5685 -0.4516
vn 0.6876 0.5684 -0.4518
vn 0.6877 0.5683 -0.4518
vn 0.6876 0.5686 -0.4515
vn 0.6874 0.5689 -0.4515
vn 0.6874 0.5685 -0.4519
vn 0.6878 0.5684 -0.4515
vn 0.6873 0.5690 -0.4514
vn 0.6875 0.5684 -0.4519
vn 0.6868 0.5693 -0.4519
vn 0.6875 0.5687 -0.4515
vn 0.6875 0.5687 -0.4516
vn 0.6872 0.5689 -0.4517
vn 0.6876 0.5685 -0.4517
vn 0.6877 0.5682 -0.4518
vn 0.6875 0.5685 -0.4517
vn 0.6877 0.5681 -0.4519
vn 0.6876 0.5684 -0.4516
vn 0.6873 0.5687 -0.4519
vn 0.6870 0.5687 -0.4523
vn 0.6877 0.5684 -0.4515
vn 0.6873 0.5688 -0.4516
vn 0.6879 0.5679 -0.4519
vn 0.6874 0.5687 -0.4516
vn 0.6869 0.5685 -0.4528
vn 0.6876 0.5684 -0.4519
vn 0.6874 0.5686 -0.4517
vn 0.6875 0.5686 -0.4518
vn 0.6800 0.5814 -0.4467
vn 0.6799 0.5815 -0.4466
vn 0.6801 0.5813 -0.4467
vn 0.6803 0.5810 -0.4468
vn 0.6802 0.5813 -0.4466
vn 0.6800 0.5815 -0.4467
vn 0.6797 0.5818 -0.4465
vn 0.6801 0.5812 -0.4467
vn 0.6794 0.5823 -0.4464
vn 0.6799 0.5817 -0.4464
vn 0.6801 0.5811 -0.4469
vn 0.6799 0.5814 -0.4469
vn 0.6800 0.5813 -0.4467
vn 0.6801 0.5814 -0.4466
vn 0.6801 0.5812 -0.4468
vn 0.6797 0.5817 -0.4468
vn 0.6800 0.5816 -0.4465
vn 0.6800 0.5812 -0.4469
vn 0.6802 0.5813 -0.4465
vn 0.6800 0.5813 -0.4466
vn 0.6800 0.5814 -0.4468
vn 0.6801 0.5813 -0.4466
vn 0.6798 0.5816 -0.4467
vn 0.6802 0.5811 -0.4468
vn 0.6803 0.5811 -0.4467
vn 0.6799 0.5813 -0.4470
vn 0.6800 0.5812 -0.4470
vn 0.6799 0.5813 -0.4469
vn 0.6798 0.5813 -0.4471
usemtl None
s 1
f 141//29 117//30 39//31
f 83//32 82//32 79//33
f 195//34 40//35 178//36
f 182//37 190//37 189//38
f 37//39 36//40 132//41
f 131//42 130//43 134//41
f 130//43 129//44 134//41
f 37//39 132//41 133//45
f 132//41 131//42 133//45
f 134//41 133//45 131//42
f 137//46 136//29 123//47
f 136//29 135//48 124//49
f 123//47 136//29 124//49
f 138//50 137//46 123//47
f 135//48 134//41 126//51
f 126//51 134//41 127//52
f 129//44 128//51 134//41
f 128//51 127//52 134//41
f 126//51 125//53 135//48
f 125//53 124//49 135//48
f 38//42 138//50 122//54
f 122//54 138//50 123//47
f 139//42 38//42 122//54
f 121//42 120//55 139//42
f 120//55 119//56 140//55
f 120//55 140//55 139//42
f 119//56 118//54 140//55
f 139//42 122//54 121//42
f 118//54 117//30 141//29
f 116//57 40//35 39//31
f 118//54 141//29 140//55
f 117//30 116//57 39//31
f 42//58 41//59 115//60
f 42//58 115//60 114//29
f 44//30 43//51 113//61
f 43//51 42//58 114//29
f 46//41 45//33 111//32
f 45//33 44//30 112//62
f 111//32 45//33 112//62
f 47//45 46//41 110//51
f 43//51 114//29 113//61
f 113//61 112//62 44//30
f 46//41 111//32 110//51
f 48//30 47//45 110//51
f 110//51 109//30 48//30
f 109//30 108//41 48//30
f 51//63 50//29 103//64
f 50//29 49//65 104//66
f 103//64 50//29 104//66
f 52//67 51//63 103//64
f 49//65 48//30 106//29
f 48//30 108//41 106//29
f 108//41 107//68 106//29
f 106//29 105//69 49//65
f 105//69 104//66 49//65
f 53//30 52//67 103//64
f 55//70 54//51 56//71
f 54//51 53//30 101//51
f 57//72 56//71 100//55
f 101//51 56//71 54//51
f 58//73 57//72 100//55
f 56//71 101//51 100//55
f 53//30 103//64 102//68
f 53//30 102//68 101//51
f 61//62 60//55 62//51
f 60//55 59//72 63//74
f 62//51 60//55 63//74
f 59//72 58//73 99//74
f 58//73 100//55 99//74
f 99//74 98//75 94//76
f 98//75 97//77 95//76
f 94//76 98//75 95//76
f 65//41 64//78 59//72
f 64//78 63//74 59//72
f 59//72 99//74 65//41
f 65//41 99//74 94//76
f 97//77 96//69 95//76
f 66//30 65//41 94//76
f 94//76 93//66 66//30
f 92//79 91//80 90//54
f 92//79 90//54 67//48
f 90//54 89//81 67//48
f 66//30 93//66 67//48
f 93//66 92//79 67//48
f 69//82 68//41 89//81
f 68//41 67//48 89//81
f 70//30 69//82 89//81
f 73//69 72//49 71//42
f 71//42 70//30 87//81
f 70//30 89//81 88//41
f 70//30 88//41 87//81
f 75//62 74//83 73//69
f 73//69 71//42 86//48
f 87//81 86//48 71//42
f 86//48 85//76 73//69
f 76//84 75//62 78//32
f 75//62 73//69 85//76
f 78//32 75//62 85//76
f 78//32 77//85 76//84
f 81//86 80//87 82//32
f 80//87 79//33 82//32
f 79//33 78//32 84//88
f 84//88 78//32 85//76
f 84//88 83//32 79//33
f 41//59 42//58 144//36
f 42//58 143//89 144//36
f 143//89 142//90 146//91
f 144//36 143//89 145//92
f 145//92 143//89 146//91
f 221//93 220//38 149//94
f 220//38 219//95 217//96
f 217//96 219//95 218//97
f 142//90 221//93 148//89
f 147//98 146//91 142//90
f 149//94 220//38 216//99
f 217//96 216//99 220//38
f 216//99 215//100 150//89
f 149//94 216//99 150//89
f 142//90 148//89 147//98
f 148//89 221//93 149//94
f 151//101 150//89 214//89
f 152//91 151//101 214//89
f 150//89 215//100 214//89
f 155//37 154//102 211//89
f 154//102 153//101 212//100
f 211//89 154//102 212//100
f 153//101 152//91 213//103
f 152//91 214//89 213//103
f 213//103 212//100 153//101
f 157//100 156//104 158//105
f 156//104 155//37 158//105
f 160//38 159//89 210//91
f 159//89 158//105 155//37
f 210//91 159//89 155//37
f 161//106 160//38 209//91
f 155//37 211//89 210//91
f 210//91 209//91 160//38
f 209//91 208//102 162//37
f 162//37 161//106 209//91
f 165//38 164//107 207//108
f 164//107 163//109 207//108
f 207//108 163//109 208//102
f 166//100 165//38 207//108
f 163//109 162//37 208//102
f 207//108 206//101 166//100
f 167//101 206//101 205//89
f 206//101 167//101 166//100
f 167//101 205//89 204//101
f 204//101 203//101 168//110
f 167//101 204//101 168//110
f 202//101 201//111 200//89
f 202//101 200//89 172//91
f 200//89 199//89 173//36
f 203//101 202//101 171//38
f 170//89 169//34 203//101
f 169//34 168//110 203//101
f 171//38 170//89 203//101
f 200//89 173//36 172//91
f 199//89 198//112 174//101
f 197//91 196//89 177//37
f 196//89 195//34 178//36
f 199//89 174//101 173//36
f 198//112 197//91 175//113
f 174//101 198//112 175//113
f 172//91 171//38 202//101
f 195//34 39//31 40//35
f 177//37 176//37 197//91
f 176//37 175//113 197//91
f 196//89 178//36 177//37
f 36//40 37//39 194//91
f 194//91 193//89 36//40
f 193//89 192//36 179//109
f 193//89 179//109 36//40
f 192//36 191//89 180//91
f 182//37 181//89 190//37
f 181//89 180//91 191//89
f 180//91 179//109 192//36
f 183//99 182//37 189//38
f 181//89 191//89 190//37
f 185//114 184//115 187//116
f 184//115 183//99 189//38
f 188//38 184//115 189//38
f 187//116 186//117 185//114
f 188//38 187//116 184//115
