# Blender v2.81 (sub 16) OBJ File: ''
# www.blender.org
mtllib Djibouti.mtl
o 0_Djibouti_sphere.001
v 3.557065 1.090714 -3.340301
v 3.650123 1.013934 -3.262592
v 3.595021 1.013934 -3.323149
v 3.571403 0.998165 -3.353764
v 3.572525 0.990427 -3.354818
v 3.565723 1.035555 -3.348431
v 3.577313 1.090714 -3.318048
v 3.576873 1.091636 -3.318215
v 3.575712 1.092864 -3.319067
v 3.575203 1.092774 -3.319659
v 3.574612 1.091957 -3.320590
v 3.574043 1.092050 -3.321183
v 3.560225 1.099879 -3.333673
v 3.559475 1.098959 -3.334814
v 3.559198 1.097465 -3.335633
v 3.559038 1.095785 -3.336387
v 3.558665 1.094342 -3.337294
v 3.573392 0.988927 -3.354309
v 3.593772 0.953859 -3.342273
v 3.594611 0.954306 -3.341219
v 3.595265 0.953584 -3.340714
v 3.595992 0.952545 -3.340221
v 3.596929 0.952092 -3.339326
v 3.597672 0.952277 -3.338454
v 3.599014 0.952864 -3.336806
v 3.601334 0.953216 -3.334153
v 3.602554 0.953634 -3.332688
v 3.603359 0.954835 -3.331448
v 3.604128 0.959498 -3.329226
v 3.605148 0.960105 -3.327925
v 3.606520 0.960173 -3.326398
v 3.610390 0.961590 -3.321726
v 3.610847 0.961544 -3.321237
v 3.613106 0.961291 -3.318829
v 3.618608 0.958966 -3.313469
v 3.622994 0.955269 -3.309741
v 3.624337 0.954407 -3.308521
v 3.625214 0.954473 -3.307538
v 3.626050 0.954926 -3.306484
v 3.627302 0.955231 -3.305019
v 3.629322 0.954301 -3.303074
v 3.629841 0.954232 -3.302523
v 3.630852 0.954279 -3.301399
v 3.631356 0.954199 -3.300868
v 3.633625 0.952850 -3.298773
v 3.634422 0.952561 -3.297983
v 3.635509 0.952581 -3.296782
v 3.638334 0.953577 -3.293383
v 3.641575 0.953066 -3.289972
v 3.643234 0.952321 -3.288369
v 3.645411 0.949668 -3.286761
v 3.647119 0.949087 -3.285055
v 3.650387 0.948896 -3.281520
v 3.650829 0.948656 -3.281105
v 3.651148 0.948239 -3.280878
v 3.651513 0.947918 -3.280571
v 3.651980 0.948020 -3.280029
v 3.652253 0.948447 -3.279602
v 3.652343 0.948950 -3.279355
v 3.652470 0.949394 -3.279084
v 3.658972 0.951430 -3.271337
v 3.660311 0.952238 -3.269626
v 3.660604 0.953051 -3.269064
v 3.660830 0.953619 -3.268648
v 3.659411 0.956057 -3.269487
v 3.658533 0.959714 -3.269371
v 3.655931 0.976164 -3.267370
v 3.655246 0.985478 -3.265370
v 3.655273 0.995321 -3.262433
v 3.654662 0.999983 -3.261727
v 3.651781 1.007755 -3.262596
v 3.600304 1.003762 -3.320349
v 3.600772 1.003025 -3.320052
v 3.601372 1.002579 -3.319524
v 3.603281 1.001820 -3.317650
v 3.603826 1.001765 -3.317068
v 3.605155 1.002143 -3.315496
v 3.606679 1.002051 -3.313848
v 3.607132 1.002133 -3.313326
v 3.607436 1.002461 -3.312895
v 3.607803 1.003575 -3.312163
v 3.608050 1.003880 -3.311801
v 3.609345 1.003769 -3.310411
v 3.610101 1.003043 -3.309794
v 3.610198 1.002457 -3.309861
v 3.609408 1.002702 -3.310657
v 3.609435 1.000854 -3.311173
v 3.609721 0.998713 -3.311491
v 3.609634 0.996960 -3.312105
v 3.607937 0.995894 -3.314285
v 3.606977 0.994350 -3.315796
v 3.606364 0.993952 -3.316587
v 3.605504 0.994172 -3.317467
v 3.604446 0.995404 -3.318266
v 3.603719 0.995711 -3.318974
v 3.603253 0.995510 -3.319546
v 3.602766 0.995144 -3.320189
v 3.602223 0.994978 -3.320835
v 3.601669 0.995396 -3.321320
v 3.601140 0.996478 -3.321582
v 3.601456 0.997121 -3.321045
v 3.601990 0.997567 -3.320327
v 3.602212 0.998050 -3.319940
v 3.601505 0.999461 -3.320299
v 3.600176 1.000647 -3.321410
v 3.597333 1.002150 -3.324090
v 3.593328 1.002828 -3.328291
v 3.592009 1.003323 -3.329594
v 3.591308 1.003956 -3.330177
v 3.590742 1.004685 -3.330584
v 3.590242 1.004934 -3.331060
v 3.589685 1.004238 -3.331878
v 3.589267 1.003912 -3.332434
v 3.587779 1.003945 -3.334059
v 3.579727 1.004138 -3.342851
v 3.578427 1.004501 -3.344173
v 3.577330 1.004448 -3.345394
v 3.576216 1.003375 -3.346936
v 3.575028 1.003766 -3.348125
v 3.574235 1.004957 -3.348645
v 3.573653 1.006093 -3.348949
v 3.572988 1.006377 -3.349596
v 3.572782 1.005479 -3.350088
v 3.572681 1.000493 -3.351671
v 3.572639 1.000384 -3.351750
v 3.572210 0.999094 -3.352603
v 3.571656 0.998383 -3.353421
v 3.569997 0.996984 -3.355553
v 3.569341 0.995765 -3.356577
v 3.554450 1.085018 -3.344762
v 3.553546 1.081870 -3.346669
v 3.552894 1.080623 -3.347728
v 3.552035 1.080248 -3.348729
v 3.550899 1.081191 -3.349611
v 3.551372 1.078189 -3.350051
v 3.551486 1.076754 -3.350377
v 3.551404 1.075314 -3.350908
v 3.551132 1.074139 -3.351552
v 3.550746 1.073218 -3.352234
v 3.550471 1.072165 -3.352844
v 3.550537 1.070648 -3.353245
v 3.550971 1.067400 -3.353802
v 3.551026 1.065668 -3.354281
v 3.550862 1.064474 -3.354820
v 3.549333 1.060101 -3.357750
v 3.549387 1.058666 -3.358139
v 3.550354 1.053705 -3.358675
v 3.550915 1.047261 -3.360090
v 3.551647 1.044531 -3.360179
v 3.552905 1.042000 -3.359664
v 3.554533 1.039899 -3.358634
v 3.556332 1.038458 -3.357224
v 3.556855 1.038276 -3.356740
v 3.558478 1.037898 -3.355182
v 3.560307 1.036739 -3.353654
v 3.561529 1.036420 -3.352492
v 3.564108 1.036357 -3.349849
v 3.565270 1.035940 -3.348779
v 3.650038 1.014233 -3.262591
v 3.648707 1.016944 -3.263186
v 3.647724 1.017775 -3.264000
v 3.645221 1.019224 -3.266288
v 3.644459 1.020315 -3.266776
v 3.643937 1.021543 -3.266958
v 3.643382 1.022030 -3.267411
v 3.642713 1.022327 -3.268052
v 3.641800 1.022878 -3.268878
v 3.640878 1.023769 -3.269607
v 3.640097 1.024703 -3.270167
v 3.637148 1.029260 -3.271950
v 3.630833 1.039109 -3.275739
v 3.627476 1.045403 -3.277415
v 3.626710 1.046417 -3.277933
v 3.625194 1.047388 -3.279288
v 3.624569 1.048445 -3.279637
v 3.623180 1.051546 -3.280171
v 3.613105 1.066795 -3.286365
v 3.610466 1.072375 -3.287481
v 3.605943 1.079156 -3.290282
v 3.602240 1.083800 -3.292866
v 3.601209 1.084068 -3.293913
v 3.599759 1.083477 -3.295696
v 3.597392 1.081749 -3.298850
v 3.590254 1.070134 -3.310411
v 3.589237 1.071749 -3.311011
v 3.588945 1.071859 -3.311297
v 3.587027 1.072616 -3.313163
v 3.585977 1.074253 -3.313793
v 3.585382 1.075013 -3.314204
v 3.583579 1.075493 -3.316032
v 3.582764 1.076067 -3.316743
v 3.582066 1.078357 -3.316779
v 3.582181 1.081032 -3.315796
v 3.581983 1.083569 -3.315202
v 3.578941 1.087028 -3.317439
v 3.567485 1.033983 -3.346997
v 3.573101 1.026240 -3.343302
v 3.573433 1.025965 -3.343025
v 3.573845 1.025747 -3.342642
v 3.574463 1.025405 -3.342072
v 3.574900 1.025019 -3.341715
v 3.575252 1.024428 -3.341518
v 3.575665 1.023250 -3.341441
v 3.576047 1.022742 -3.341184
v 3.576942 1.022310 -3.340338
v 3.580101 1.022085 -3.336939
v 3.580998 1.021637 -3.336096
v 3.581992 1.020742 -3.335289
v 3.582934 1.020184 -3.334433
v 3.584350 1.021010 -3.332613
v 3.585540 1.020735 -3.331393
v 3.591300 1.017947 -3.325955
v 3.593032 1.016603 -3.324481
v 3.594671 1.014526 -3.323344
vn 0.7205 0.2258 -0.6557
vn 0.7200 0.2277 -0.6555
vn 0.7222 0.2160 -0.6571
vn 0.7236 0.1957 -0.6618
vn 0.7255 0.1949 -0.6600
vn 0.7254 0.1950 -0.6601
vn 0.7216 0.1950 -0.6642
vn 0.7043 0.1950 -0.6825
vn 0.7177 0.1952 -0.6684
vn 0.7021 0.2105 -0.6803
vn 0.7027 0.2106 -0.6795
vn 0.7021 0.2103 -0.6802
vn 0.7230 0.2104 -0.6579
vn 0.7177 0.2146 -0.6625
vn 0.7205 0.2257 -0.6556
vn 0.7205 0.2256 -0.6557
vn 0.7208 0.2250 -0.6555
vn 0.7206 0.2258 -0.6555
vn 0.7211 0.2259 -0.6550
vn 0.7209 0.2250 -0.6555
vn 0.7206 0.2255 -0.6556
vn 0.7205 0.2259 -0.6556
vn 0.7238 0.2052 -0.6587
vn 0.7244 0.2019 -0.6591
vn 0.7253 0.1951 -0.6601
vn 0.7255 0.1948 -0.6601
vn 0.7255 0.1950 -0.6600
vn 0.7253 0.1950 -0.6601
vn 0.7255 0.1951 -0.6600
vn 0.7255 0.1952 -0.6599
vn 0.7263 0.1957 -0.6589
vn 0.7251 0.1963 -0.6600
vn 0.7254 0.1948 -0.6601
vn 0.7255 0.1941 -0.6602
vn 0.7257 0.1951 -0.6597
vn 0.7261 0.1926 -0.6600
vn 0.7254 0.1951 -0.6601
vn 0.7255 0.1950 -0.6601
vn 0.7256 0.1950 -0.6598
vn 0.7253 0.1957 -0.6600
vn 0.7254 0.1954 -0.6600
vn 0.7255 0.1942 -0.6602
vn 0.7255 0.1939 -0.6604
vn 0.7255 0.1954 -0.6599
vn 0.7255 0.1947 -0.6601
vn 0.7253 0.1952 -0.6602
vn 0.7254 0.1953 -0.6600
vn 0.7254 0.1949 -0.6601
vn 0.7252 0.1966 -0.6598
vn 0.7252 0.1962 -0.6600
vn 0.7254 0.1952 -0.6600
vn 0.7251 0.1982 -0.6595
vn 0.7264 0.1949 -0.6590
vn 0.7253 0.1956 -0.6600
vn 0.7254 0.1956 -0.6599
vn 0.7256 0.1949 -0.6599
vn 0.7256 0.1953 -0.6598
vn 0.7255 0.1938 -0.6603
vn 0.7255 0.1946 -0.6601
vn 0.7255 0.1953 -0.6598
vn 0.7253 0.1955 -0.6601
vn 0.7253 0.1944 -0.6604
vn 0.7254 0.1951 -0.6600
vn 0.7253 0.1950 -0.6602
vn 0.7253 0.1948 -0.6603
vn 0.7255 0.1952 -0.6600
vn 0.7255 0.1950 -0.6599
vn 0.7252 0.1950 -0.6603
vn 0.7251 0.1956 -0.6602
vn 0.7255 0.1945 -0.6601
vn 0.7254 0.1940 -0.6604
vn 0.7253 0.1949 -0.6602
vn 0.7258 0.1952 -0.6597
vn 0.7251 0.1958 -0.6602
vn 0.7042 0.1950 -0.6826
vn 0.7166 0.2105 -0.6650
vn 0.7020 0.2105 -0.6803
vn 0.7017 0.2105 -0.6807
vn 0.7021 0.2104 -0.6803
vn 0.7021 0.2103 -0.6803
vn 0.7020 0.2104 -0.6803
vn 0.7021 0.2100 -0.6804
vn 0.7020 0.2104 -0.6804
vn 0.7021 0.2108 -0.6801
vn 0.7021 0.2105 -0.6802
vn 0.7021 0.2102 -0.6803
vn 0.7019 0.2106 -0.6804
vn 0.7018 0.2111 -0.6803
vn 0.7018 0.2105 -0.6805
vn 0.7019 0.2105 -0.6804
vn 0.7025 0.2100 -0.6800
vn 0.7015 0.2108 -0.6808
vn 0.7020 0.2103 -0.6804
vn 0.7023 0.2103 -0.6801
vn 0.7019 0.2111 -0.6802
vn 0.7019 0.2104 -0.6804
vn 0.7024 0.2099 -0.6801
vn 0.7022 0.2107 -0.6800
vn 0.7230 0.2105 -0.6579
vn 0.7230 0.2103 -0.6580
vn 0.7231 0.2105 -0.6579
vn 0.7231 0.2104 -0.6579
vn 0.7233 0.2105 -0.6577
vn 0.7230 0.2108 -0.6579
vn 0.7229 0.2106 -0.6580
vn 0.7228 0.2106 -0.6582
vn 0.7239 0.2093 -0.6573
vn 0.7229 0.2103 -0.6582
vn 0.7232 0.2106 -0.6577
vn 0.7231 0.2102 -0.6580
vn 0.7230 0.2110 -0.6578
vn 0.7230 0.2102 -0.6580
vn 0.7234 0.2085 -0.6582
vn 0.7230 0.2110 -0.6579
vn 0.7229 0.2097 -0.6583
vn 0.7230 0.2104 -0.6580
vn 0.7229 0.2108 -0.6580
vn 0.7229 0.2105 -0.6581
vn 0.7231 0.2111 -0.6577
vn 0.7230 0.2106 -0.6579
vn 0.7233 0.2097 -0.6579
vn 0.7237 0.2080 -0.6580
vn 0.7231 0.2103 -0.6579
vn 0.7246 0.2029 -0.6586
vn 0.7237 0.2132 -0.6564
vn 0.7231 0.2100 -0.6580
vn 0.7232 0.2102 -0.6579
vn 0.7232 0.2105 -0.6577
vn 0.7231 0.2102 -0.6579
usemtl None
s 1
f 12//1 11//2 7//3
f 124//4 119//5 118//6
f 5//7 128//8 4//9
f 142//10 138//11 137//12
f 192//13 191//13 1//14
f 7//3 1//14 12//1
f 1//14 17//15 12//1
f 16//16 15//17 13//18
f 15//17 14//19 13//18
f 17//15 16//16 12//1
f 9//20 8//21 10//22
f 8//21 7//3 11//2
f 11//2 10//22 8//21
f 13//18 12//1 16//16
f 3//23 2//24 83//6
f 2//24 71//6 84//25
f 3//23 83//6 82//26
f 71//6 70//27 69//28
f 71//6 69//28 68//6
f 72//29 3//23 82//26
f 74//30 73//31 72//29
f 76//32 75//33 77//6
f 75//33 74//30 72//29
f 79//34 78//6 80//35
f 78//6 77//6 81//36
f 80//35 78//6 81//36
f 75//33 72//29 77//6
f 71//6 68//6 85//37
f 68//6 67//6 48//6
f 49//37 67//6 50//37
f 65//38 64//30 63//39
f 63//39 62//5 65//38
f 62//5 61//37 65//38
f 61//37 60//37 65//38
f 59//40 58//41 55//25
f 58//41 57//42 55//25
f 66//6 65//38 60//37
f 60//37 59//40 54//43
f 54//43 59//40 55//25
f 57//42 56//44 55//25
f 67//6 66//6 50//37
f 66//6 60//37 50//37
f 53//45 52//6 50//37
f 52//6 51//46 50//37
f 60//37 54//43 53//45
f 67//6 49//37 48//6
f 50//37 60//37 53//45
f 81//36 77//6 82//26
f 77//6 72//29 82//26
f 83//6 2//24 84//25
f 48//6 47//47 44//48
f 47//47 46//49 45//45
f 44//48 47//47 45//45
f 68//6 48//6 89//6
f 89//6 48//6 44//48
f 87//6 86//48 85//37
f 85//37 84//25 71//6
f 43//48 42//50 40//51
f 42//50 41//52 40//51
f 68//6 89//6 85//37
f 44//48 43//48 89//6
f 87//6 85//37 88//53
f 88//53 85//37 89//6
f 43//48 40//51 89//6
f 39//54 38//55 36//27
f 38//55 37//56 36//27
f 40//51 39//54 35//6
f 91//37 35//6 34//6
f 91//37 90//57 89//6
f 91//37 89//6 35//6
f 35//6 39//54 36//27
f 40//51 35//6 89//6
f 92//28 91//37 34//6
f 95//58 94//27 96//59
f 94//27 93//6 96//59
f 93//6 92//28 32//6
f 92//28 34//6 33//6
f 97//60 96//59 93//6
f 98//37 97//60 93//6
f 92//28 33//6 32//6
f 32//6 31//6 98//37
f 31//6 30//6 98//37
f 98//37 93//6 32//6
f 99//6 98//37 30//6
f 29//6 28//29 26//6
f 28//29 27//61 26//6
f 99//6 30//6 29//6
f 100//5 99//6 107//62
f 99//6 29//6 114//6
f 108//63 99//6 113//64
f 25//6 24//26 21//45
f 24//26 23//65 22//37
f 29//6 26//6 25//6
f 99//6 108//63 107//62
f 29//6 25//6 20//6
f 20//6 25//6 21//45
f 24//26 22//37 21//45
f 20//6 19//28 18//6
f 29//6 20//6 114//6
f 103//66 102//46 104//64
f 102//46 101//67 104//64
f 113//64 99//6 114//6
f 20//6 18//6 114//6
f 101//67 100//5 105//6
f 18//6 5//7 126//6
f 5//7 4//9 127//68
f 5//7 127//68 126//6
f 104//64 101//67 105//6
f 106//63 105//6 100//5
f 107//62 106//63 100//5
f 126//6 125//69 118//6
f 125//69 124//4 118//6
f 18//6 126//6 118//6
f 111//70 110//6 112//48
f 110//6 109//6 112//48
f 109//6 108//63 113//64
f 124//4 123//48 119//5
f 123//48 122//71 121//72
f 113//64 112//48 109//6
f 114//6 18//6 115//6
f 123//48 121//72 120//73
f 123//48 120//73 119//5
f 115//6 18//6 118//6
f 117//74 116//5 118//6
f 116//5 115//6 118//6
f 5//7 129//75 128//8
f 1//14 6//76 131//77
f 6//76 158//78 131//77
f 157//79 156//80 154//81
f 156//80 155//82 154//81
f 158//78 157//79 144//83
f 131//77 158//78 142//10
f 131//77 130//84 1//14
f 143//85 158//78 144//83
f 154//81 153//86 151//87
f 153//86 152//88 151//87
f 154//81 151//87 150//85
f 150//85 149//89 154//81
f 149//89 148//90 154//81
f 147//77 146//81 144//83
f 146//81 145//91 144//83
f 148//90 147//77 154//81
f 158//78 143//85 142//10
f 157//79 154//81 147//77
f 132//92 131//77 137//12
f 147//77 144//83 157//79
f 135//81 134//93 133//94
f 133//94 132//92 135//81
f 131//77 142//10 137//12
f 136//95 135//81 132//92
f 137//12 136//95 132//92
f 142//10 141//96 138//11
f 141//96 140//97 139//98
f 138//11 141//96 139//98
f 2//24 3//23 162//99
f 3//23 214//100 174//99
f 162//99 3//23 167//101
f 214//100 213//102 175//102
f 3//23 168//99 167//101
f 160//103 159//104 161//105
f 159//104 2//24 161//105
f 162//99 161//105 2//24
f 165//106 164//107 163//108
f 166//109 165//106 163//108
f 168//99 3//23 169//110
f 166//109 163//108 167//101
f 163//108 162//99 167//101
f 169//110 3//23 170//99
f 213//102 212//102 184//99
f 170//99 3//23 171//99
f 212//102 211//99 184//99
f 171//99 3//23 174//99
f 210//13 209//111 208//112
f 211//99 210//13 184//99
f 174//99 214//100 175//102
f 210//13 208//112 207//113
f 206//102 205//100 202//114
f 205//100 204//115 203//116
f 210//13 207//113 206//102
f 175//102 213//102 176//13
f 173//117 172//118 174//99
f 172//118 171//99 174//99
f 176//13 213//102 184//99
f 205//100 203//116 202//114
f 210//13 206//102 196//99
f 177//99 176//13 184//99
f 184//99 210//13 187//99
f 179//13 178//99 183//102
f 178//99 177//99 184//99
f 183//102 178//99 184//99
f 181//119 180//99 182//101
f 180//99 179//13 182//101
f 183//102 182//101 179//13
f 186//120 185//121 184//99
f 206//102 202//114 201//122
f 187//99 186//120 184//99
f 187//99 210//13 196//99
f 206//102 201//122 200//123
f 199//124 198//125 197//126
f 206//102 200//123 196//99
f 200//123 199//124 197//126
f 196//99 6//76 191//13
f 6//76 1//14 191//13
f 200//123 197//126 196//99
f 189//127 188//128 190//13
f 188//128 187//99 190//13
f 1//14 7//3 195//13
f 195//13 194//129 193//101
f 1//14 195//13 192//13
f 192//13 195//13 193//101
f 190//13 187//99 196//99
f 191//13 190//13 196//99
