# Blender v2.81 (sub 16) OBJ File: ''
# www.blender.org
mtllib Dominica.mtl
o 0_Dominica_sphere.001
v 2.309111 1.319363 4.233796
v 2.319239 1.319363 4.228434
v 2.308908 1.320015 4.233696
v 2.308502 1.322076 4.233253
v 2.307970 1.323604 4.233047
v 2.306573 1.326071 4.233000
v 2.306366 1.326661 4.232922
v 2.305990 1.328206 4.232627
v 2.305657 1.328939 4.232570
v 2.303684 1.330790 4.233024
v 2.303331 1.331490 4.232988
v 2.303050 1.332279 4.232885
v 2.302614 1.333144 4.232839
v 2.302108 1.333814 4.232894
v 2.301662 1.334087 4.233042
v 2.301112 1.334529 4.233193
v 2.300814 1.335547 4.233026
v 2.300472 1.337588 4.232556
v 2.300078 1.338230 4.232560
v 2.299603 1.338641 4.232680
v 2.299245 1.339080 4.232729
v 2.299146 1.339869 4.232530
v 2.299426 1.340421 4.232205
v 2.300548 1.341378 4.231306
v 2.300816 1.342214 4.230898
v 2.300284 1.342322 4.231145
v 2.299332 1.342685 4.231533
v 2.298756 1.342763 4.231813
v 2.299228 1.343717 4.231259
v 2.299614 1.347343 4.229897
v 2.301096 1.347268 4.229137
v 2.301980 1.347245 4.228676
v 2.302881 1.346895 4.228311
v 2.303880 1.346151 4.228019
v 2.305332 1.344209 4.227870
v 2.306394 1.343542 4.227520
v 2.307404 1.344154 4.226791
v 2.308317 1.344367 4.226239
v 2.312210 1.342798 4.224679
v 2.312437 1.342233 4.224739
v 2.313060 1.340943 4.224821
v 2.313980 1.339572 4.224771
v 2.314501 1.338795 4.224742
v 2.315890 1.336974 4.224588
v 2.316030 1.336822 4.224563
v 2.317127 1.333870 4.224924
v 2.317677 1.330757 4.225626
v 2.317466 1.328418 4.226484
v 2.317843 1.328293 4.226324
v 2.318180 1.328019 4.226233
v 2.318565 1.327838 4.226087
v 2.318530 1.324777 4.227082
v 2.319013 1.322089 4.227684
v 2.319098 1.321423 4.227851
v 2.311466 1.311291 4.234971
v 2.311229 1.311959 4.234896
v 2.311226 1.314026 4.234277
v 2.310861 1.316506 4.233727
v 2.310847 1.316828 4.233638
v 2.310333 1.317807 4.233616
v 2.309227 1.318984 4.233849
v 2.319337 1.318117 4.228755
v 2.318190 1.315154 4.230252
v 2.317702 1.314695 4.230648
v 2.317364 1.314588 4.230859
v 2.317049 1.314597 4.231023
v 2.316314 1.314489 4.231445
v 2.315654 1.314655 4.231744
v 2.315206 1.314560 4.232009
v 2.314868 1.314162 4.232308
v 2.314603 1.313029 4.232788
v 2.313645 1.312542 4.233441
v 2.313489 1.311937 4.233706
v 2.313200 1.311327 4.234042
v 2.312353 1.311033 4.234578
vn 0.4505 0.2713 0.8506
vn 0.4503 0.2714 0.8506
vn 0.4504 0.2714 0.8506
vn 0.4523 0.2562 0.8542
vn 0.4523 0.2563 0.8542
vn 0.4524 0.2562 0.8542
vn 0.4514 0.2648 0.8521
vn 0.4514 0.2641 0.8523
vn 0.4504 0.2712 0.8506
vn 0.4504 0.2713 0.8506
vn 0.4488 0.2718 0.8513
vn 0.4502 0.2715 0.8506
vn 0.4521 0.2709 0.8498
vn 0.4505 0.2714 0.8505
vn 0.4503 0.2715 0.8506
vn 0.4503 0.2713 0.8506
vn 0.4558 0.2694 0.8483
vn 0.4509 0.2711 0.8504
vn 0.4502 0.2713 0.8507
vn 0.4504 0.2715 0.8505
vn 0.4503 0.2712 0.8506
vn 0.4499 0.2715 0.8508
vn 0.4500 0.2721 0.8506
vn 0.4507 0.2713 0.8504
vn 0.4506 0.2715 0.8504
vn 0.4509 0.2712 0.8503
vn 0.4490 0.2714 0.8513
vn 0.4504 0.2716 0.8505
vn 0.4505 0.2712 0.8506
vn 0.4514 0.2717 0.8499
vn 0.4507 0.2715 0.8504
vn 0.4501 0.2709 0.8509
vn 0.4505 0.2713 0.8505
vn 0.4489 0.2716 0.8513
vn 0.4500 0.2719 0.8506
vn 0.4497 0.2715 0.8509
vn 0.4511 0.2711 0.8503
vn 0.4498 0.2709 0.8510
vn 0.4523 0.2564 0.8542
vn 0.4538 0.2574 0.8531
vn 0.4524 0.2563 0.8542
vn 0.4527 0.2561 0.8541
vn 0.4522 0.2561 0.8543
vn 0.4516 0.2546 0.8551
vn 0.4532 0.2567 0.8536
vn 0.4519 0.2565 0.8543
vn 0.4521 0.2575 0.8540
vn 0.4528 0.2559 0.8541
vn 0.4534 0.2557 0.8538
vn 0.4521 0.2555 0.8545
vn 0.4524 0.2561 0.8542
vn 0.4522 0.2566 0.8542
vn 0.4518 0.2568 0.8544
vn 0.4531 0.2553 0.8541
usemtl None
s 1
f 24//1 18//2 36//3
f 72//4 70//5 57//6
f 1//7 2//8 54//9
f 54//9 53//9 4//10
f 53//9 52//2 4//10
f 4//10 52//2 5//10
f 52//2 51//11 50//12
f 50//12 49//13 48//14
f 48//14 47//15 9//16
f 47//15 46//10 9//16
f 48//14 9//16 8//2
f 46//10 45//17 44//18
f 43//19 42//16 12//20
f 42//16 41//16 36//3
f 43//19 9//16 44//18
f 46//10 44//18 9//16
f 52//2 50//12 48//14
f 9//16 43//19 12//20
f 52//2 48//14 5//10
f 3//21 1//7 54//9
f 4//10 3//21 54//9
f 40//22 39//23 38//24
f 48//14 8//2 7//2
f 41//16 40//22 38//24
f 7//2 6//19 48//14
f 6//19 5//10 48//14
f 38//24 37//25 41//16
f 37//25 36//3 41//16
f 11//26 10//27 9//16
f 12//20 42//16 13//28
f 42//16 36//3 13//28
f 12//20 11//26 9//16
f 36//3 35//10 25//29
f 13//28 36//3 14//1
f 35//10 34//12 25//29
f 34//12 33//10 25//29
f 33//10 32//16 25//29
f 32//16 31//12 25//29
f 31//12 30//12 29//14
f 29//14 28//30 27//31
f 27//31 26//32 29//14
f 26//32 25//29 29//14
f 24//1 23//33 19//31
f 23//33 22//34 20//28
f 20//28 22//34 21//35
f 31//12 29//14 25//29
f 23//33 20//28 19//31
f 25//29 24//1 36//3
f 14//1 36//3 18//2
f 24//1 19//31 18//2
f 18//2 17//36 14//1
f 17//36 16//37 15//38
f 14//1 17//36 15//38
f 2//8 1//7 60//39
f 1//7 61//40 60//39
f 63//41 62//42 68//43
f 62//42 2//8 68//43
f 65//44 64//45 66//46
f 64//45 63//41 66//46
f 68//43 67//47 66//46
f 2//8 60//39 68//43
f 59//48 58//49 69//50
f 58//49 57//6 70//5
f 69//50 58//49 70//5
f 60//39 59//48 68//43
f 68//43 66//46 63//41
f 57//6 56//6 72//4
f 56//6 55//51 75//43
f 68//43 59//48 69//50
f 56//6 75//43 73//52
f 72//4 56//6 73//52
f 75//43 74//53 73//52
f 72//4 71//54 70//5
