# Blender v2.81 (sub 16) OBJ File: ''
# www.blender.org
mtllib Equatorial Guinea.mtl
o 0_Equatorial_Guinea_sphere.001
v 4.973821 -0.128752 -0.490225
v 4.974008 -0.127701 -0.488756
v 4.973963 -0.127566 -0.489194
v 4.973929 -0.127233 -0.489567
v 4.973886 -0.127056 -0.489993
v 4.973970 -0.126039 -0.489454
v 4.974006 -0.125032 -0.489344
v 4.973987 -0.124152 -0.489707
v 4.973904 -0.123527 -0.490594
v 4.973732 -0.125499 -0.491733
v 4.973715 -0.127630 -0.491422
vn 0.9937 -0.0234 -0.1096
vn 0.9937 -0.0238 -0.1095
vn 0.9937 -0.0237 -0.1097
vn 0.9937 -0.0237 -0.1099
vn 0.9937 -0.0232 -0.1096
vn 0.9937 -0.0234 -0.1097
vn 0.9937 -0.0233 -0.1100
vn 0.9937 -0.0237 -0.1094
vn 0.9937 -0.0239 -0.1091
usemtl None
s 1
f 1//1 11//2 5//3
f 10//3 9//4 8//3
f 8//3 7//5 10//3
f 7//5 6//6 10//3
f 5//3 4//7 1//1
f 4//7 3//8 1//1
f 6//6 5//3 10//3
f 11//2 10//3 5//3
f 2//9 1//1 3//8
o 1_Equatorial_Guinea_sphere.001
v 4.909009 0.157051 -0.936439
v 4.899604 0.157051 -0.981851
v 4.910624 0.087343 -0.936747
v 4.925024 0.157051 -0.844672
v 4.907778 0.188941 -0.936203
v 4.919907 0.188920 -0.866718
v 4.917890 0.188921 -0.878271
v 4.916924 0.188922 -0.883804
v 4.913630 0.188930 -0.902681
v 4.913405 0.188929 -0.903967
v 4.908921 0.188936 -0.929657
v 4.924961 0.157460 -0.844939
v 4.924877 0.157825 -0.845337
v 4.924806 0.158409 -0.845610
v 4.924669 0.160518 -0.845915
v 4.924577 0.161100 -0.846312
v 4.924490 0.161525 -0.846712
v 4.924440 0.161980 -0.846889
v 4.924325 0.162804 -0.847366
v 4.923676 0.165855 -0.850385
v 4.923402 0.168806 -0.851281
v 4.923322 0.172418 -0.850913
v 4.923462 0.179544 -0.848484
v 4.923542 0.181180 -0.847658
v 4.923560 0.181926 -0.847381
v 4.923537 0.182880 -0.847292
v 4.923469 0.183799 -0.847476
v 4.923378 0.184386 -0.847865
v 4.923290 0.184822 -0.848264
v 4.923239 0.185289 -0.848449
v 4.922697 0.196114 -0.849088
v 4.922665 0.198081 -0.848821
v 4.922734 0.199599 -0.848079
v 4.922780 0.201555 -0.847372
v 4.922527 0.203068 -0.848472
v 4.922183 0.204280 -0.850166
v 4.922066 0.202808 -0.851172
v 4.922117 0.201177 -0.851254
v 4.922236 0.199374 -0.850982
v 4.922273 0.197576 -0.851181
v 4.922134 0.196193 -0.852290
v 4.921857 0.194408 -0.854288
v 4.921535 0.192899 -0.856478
v 4.921288 0.192317 -0.858024
v 4.921041 0.191962 -0.859521
v 4.920199 0.189209 -0.864976
v 4.911562 0.087356 -0.931368
v 4.916049 0.087439 -0.905649
v 4.916394 0.087443 -0.903668
v 4.920541 0.087515 -0.879899
v 4.922176 0.087550 -0.870526
v 4.922620 0.087222 -0.868026
v 4.922920 0.087000 -0.866339
v 4.923028 0.085724 -0.865894
v 4.923090 0.083140 -0.865894
v 4.923171 0.081997 -0.865587
v 4.923370 0.080995 -0.864583
v 4.923617 0.080690 -0.863210
v 4.923878 0.080924 -0.861682
v 4.924127 0.081581 -0.860165
v 4.924349 0.082699 -0.858739
v 4.924678 0.085287 -0.856495
v 4.924903 0.086306 -0.855071
v 4.925124 0.086801 -0.853736
v 4.925563 0.087102 -0.851180
v 4.925530 0.087559 -0.851305
v 4.925516 0.089053 -0.851180
v 4.925578 0.091283 -0.850521
v 4.925522 0.092318 -0.850698
v 4.925394 0.092862 -0.851361
v 4.925189 0.093256 -0.852476
v 4.924959 0.093491 -0.853763
v 4.924766 0.093565 -0.854860
v 4.924846 0.094023 -0.854337
v 4.925021 0.094385 -0.853290
v 4.925232 0.094620 -0.852046
v 4.925415 0.094705 -0.850985
v 4.925563 0.094981 -0.850099
v 4.925909 0.096216 -0.847950
v 4.926085 0.096487 -0.846903
v 4.926718 0.095717 -0.843382
v 4.926872 0.095951 -0.842467
v 4.926913 0.096825 -0.842110
v 4.926825 0.097765 -0.842485
v 4.926689 0.098530 -0.843162
v 4.926589 0.098873 -0.843686
v 4.926883 0.098191 -0.842095
v 4.927265 0.096442 -0.840145
v 4.927602 0.094503 -0.838484
v 4.927753 0.093243 -0.837789
v 4.927869 0.092619 -0.837209
v 4.928380 0.091909 -0.834377
v 4.928775 0.090993 -0.832240
v 4.928886 0.092023 -0.831465
v 4.929022 0.096212 -0.830110
v 4.929118 0.097316 -0.829409
v 4.929261 0.098157 -0.828476
v 4.929484 0.098875 -0.827095
v 4.929749 0.099251 -0.825529
v 4.929952 0.098990 -0.824403
v 4.930138 0.098528 -0.823401
v 4.930627 0.098003 -0.820668
v 4.931098 0.096774 -0.818139
v 4.931333 0.096492 -0.816831
v 4.931453 0.096974 -0.816075
v 4.931751 0.099262 -0.814057
v 4.931924 0.100071 -0.812950
v 4.931875 0.100944 -0.813114
v 4.931897 0.101632 -0.812896
v 4.932058 0.103102 -0.811769
v 4.931809 0.103663 -0.813119
v 4.931610 0.104689 -0.814121
v 4.931454 0.105962 -0.814837
v 4.931106 0.110428 -0.816221
v 4.930938 0.112012 -0.816966
v 4.930750 0.112687 -0.817950
v 4.930504 0.113400 -0.819261
v 4.930254 0.115084 -0.820458
v 4.930048 0.117062 -0.821373
v 4.929935 0.118642 -0.821802
v 4.929897 0.121982 -0.821564
v 4.929805 0.123412 -0.821892
v 4.929368 0.124462 -0.824253
v 4.928705 0.127578 -0.827624
v 4.928399 0.129542 -0.829109
v 4.928347 0.129688 -0.829388
v 4.928304 0.130157 -0.829568
v 4.928225 0.130581 -0.829965
v 4.928142 0.131165 -0.830358
v 4.928088 0.132094 -0.830540
v 4.927853 0.134590 -0.831543
v 4.927552 0.137163 -0.832917
v 4.927213 0.138547 -0.834669
v 4.927026 0.138171 -0.835792
v 4.926862 0.137145 -0.836873
v 4.926592 0.136566 -0.838499
v 4.926184 0.136870 -0.840794
v 4.925884 0.137644 -0.842410
v 4.925598 0.138631 -0.843909
v 4.925243 0.139593 -0.845813
v 4.925548 0.139503 -0.844080
v 4.926216 0.137091 -0.840581
v 4.926474 0.137461 -0.839050
v 4.927041 0.141053 -0.835314
v 4.927211 0.143466 -0.834005
v 4.927001 0.145823 -0.834883
v 4.926002 0.150907 -0.839912
v 4.925953 0.151235 -0.840148
v 4.925843 0.152206 -0.840644
v 4.925757 0.152696 -0.841069
v 4.925422 0.153888 -0.842824
v 4.925289 0.154577 -0.843496
v 4.925210 0.155195 -0.843864
v 4.925041 0.156927 -0.844594
v 4.903834 0.188937 -0.955251
v 4.898543 0.188936 -0.980802
v 4.898536 0.185595 -0.981485
v 4.898799 0.178590 -0.981568
v 4.899633 0.155739 -0.981864
v 4.899731 0.151161 -0.981926
v 4.900132 0.132886 -0.982112
v 4.900633 0.110031 -0.982353
v 4.901136 0.087174 -0.982581
v 4.906434 0.087269 -0.956986
v 4.907723 0.087292 -0.950755
vn 0.9843 0.0392 -0.1717
vn 0.9843 0.0390 -0.1717
vn 0.9843 0.0391 -0.1718
vn 0.9848 0.0236 -0.1719
vn 0.9848 0.0236 -0.1718
vn 0.9848 0.0233 -0.1719
vn 0.9848 0.0226 -0.1720
vn 0.9848 0.0238 -0.1718
vn 0.9848 0.0237 -0.1718
vn 0.9848 0.0231 -0.1719
vn 0.9785 0.0392 -0.2026
vn 0.9815 0.0392 -0.1872
vn 0.9818 0.0314 -0.1873
vn 0.9789 0.0236 -0.2027
vn 0.9846 0.0284 -0.1720
vn 0.9843 0.0394 -0.1717
vn 0.9843 0.0392 -0.1718
vn 0.9843 0.0394 -0.1719
vn 0.9844 0.0389 -0.1713
vn 0.9843 0.0399 -0.1717
vn 0.9845 0.0393 -0.1707
vn 0.9846 0.0387 -0.1705
vn 0.9843 0.0393 -0.1718
vn 0.9843 0.0394 -0.1718
vn 0.9851 0.0454 -0.1659
vn 0.9844 0.0399 -0.1711
vn 0.9843 0.0395 -0.1717
vn 0.9843 0.0389 -0.1718
vn 0.9843 0.0397 -0.1717
vn 0.9843 0.0392 -0.1722
vn 0.9843 0.0398 -0.1719
vn 0.9843 0.0394 -0.1720
vn 0.9843 0.0390 -0.1718
vn 0.9846 0.0396 -0.1703
vn 0.9844 0.0386 -0.1718
vn 0.9844 0.0390 -0.1714
vn 0.9843 0.0386 -0.1718
vn 0.9843 0.0398 -0.1718
vn 0.9843 0.0390 -0.1719
vn 0.9841 0.0206 -0.1762
vn 0.9848 0.0237 -0.1719
vn 0.9848 0.0234 -0.1718
vn 0.9820 0.0236 -0.1874
vn 0.9849 0.0228 -0.1717
vn 0.9848 0.0235 -0.1718
vn 0.9848 0.0240 -0.1719
vn 0.9848 0.0235 -0.1717
vn 0.9847 0.0244 -0.1723
vn 0.9850 0.0242 -0.1707
vn 0.9848 0.0236 -0.1720
vn 0.9848 0.0236 -0.1717
vn 0.9848 0.0235 -0.1722
vn 0.9848 0.0234 -0.1719
vn 0.9848 0.0260 -0.1718
vn 0.9848 0.0241 -0.1718
vn 0.9849 0.0233 -0.1716
vn 0.9849 0.0237 -0.1716
vn 0.9847 0.0232 -0.1724
vn 0.9848 0.0242 -0.1718
vn 0.9849 0.0238 -0.1715
vn 0.9849 0.0235 -0.1717
vn 0.9851 0.0272 -0.1698
vn 0.9848 0.0235 -0.1720
vn 0.9846 0.0226 -0.1729
vn 0.9848 0.0242 -0.1721
vn 0.9848 0.0240 -0.1720
vn 0.9848 0.0231 -0.1718
vn 0.9848 0.0240 -0.1718
vn 0.9848 0.0251 -0.1717
vn 0.9844 0.0231 -0.1743
vn 0.9846 0.0222 -0.1732
vn 0.9848 0.0241 -0.1719
vn 0.9848 0.0243 -0.1717
vn 0.9847 0.0244 -0.1722
vn 0.9849 0.0215 -0.1718
vn 0.9849 0.0240 -0.1715
vn 0.9849 0.0252 -0.1712
vn 0.9848 0.0242 -0.1719
vn 0.9844 0.0295 -0.1733
vn 0.9847 0.0229 -0.1726
vn 0.9848 0.0239 -0.1718
vn 0.9848 0.0228 -0.1719
vn 0.9847 0.0231 -0.1724
vn 0.9848 0.0227 -0.1718
vn 0.9848 0.0230 -0.1718
vn 0.9848 0.0238 -0.1720
vn 0.9848 0.0237 -0.1720
vn 0.9848 0.0229 -0.1718
vn 0.9787 0.0313 -0.2027
vn 0.9785 0.0393 -0.2026
vn 0.9789 0.0235 -0.2027
vn 0.9789 0.0234 -0.2027
usemtl None
s 1
f 48//10 47//11 46//12
f 135//13 134//14 131//14
f 85//15 84//16 62//17
f 99//18 106//19 100//14
f 166//20 16//21 12//22
f 12//22 176//23 172//23
f 15//24 12//22 24//25
f 12//22 16//21 22//26
f 12//22 22//26 21//27
f 24//25 12//22 31//26
f 24//25 23//28 15//24
f 27//29 26//30 25//31
f 24//25 31//26 25//31
f 28//32 27//29 25//31
f 21//27 20//33 12//22
f 20//33 19//26 12//22
f 12//22 19//26 31//26
f 29//34 28//32 30//35
f 28//32 25//31 31//26
f 31//26 30//35 28//32
f 19//26 18//10 31//26
f 31//26 18//10 32//33
f 18//10 17//26 32//33
f 57//36 56//12 34//26
f 56//12 55//37 41//32
f 34//26 56//12 41//32
f 32//33 17//26 33//10
f 17//26 57//36 33//10
f 55//37 54//38 41//32
f 33//10 57//36 34//26
f 34//26 41//32 40//39
f 36//40 35//41 40//39
f 35//41 34//26 40//39
f 54//38 53//42 41//32
f 37//43 36//40 39//44
f 39//44 38//45 37//43
f 40//39 39//44 36//40
f 41//32 53//42 42//26
f 53//42 52//46 42//26
f 42//26 52//46 51//47
f 45//48 44//37 49//32
f 44//37 43//37 50//33
f 43//37 42//26 51//47
f 50//33 49//32 44//37
f 49//32 48//10 46//12
f 43//37 51//47 50//33
f 46//12 45//48 49//32
f 12//22 15//24 151//14
f 15//24 165//49 164//50
f 151//14 15//24 164//50
f 97//51 14//52 151//14
f 14//52 12//22 151//14
f 108//51 96//53 97//51
f 109//51 108//51 130//54
f 108//51 97//51 130//54
f 164//50 163//55 151//14
f 162//56 161//57 159//55
f 161//57 160//58 159//55
f 163//55 162//56 151//14
f 148//54 97//51 149//14
f 110//59 109//51 129//60
f 97//51 148//54 137//61
f 162//56 159//55 151//14
f 111//14 110//59 128//13
f 97//51 137//61 135//13
f 130//54 97//51 131//14
f 113//50 112//62 124//14
f 112//62 111//14 124//14
f 115//63 114//18 116//64
f 114//18 113//50 117//14
f 117//14 116//64 114//18
f 119//51 118//65 117//14
f 122//66 121//54 120//67
f 120//67 119//51 123//54
f 119//51 117//14 123//54
f 113//50 124//14 123//54
f 159//55 158//68 151//14
f 158//68 157//14 152//51
f 157//14 156//69 155//18
f 152//51 157//14 155//18
f 155//18 154//51 152//51
f 154//51 153//70 152//51
f 151//14 150//71 149//14
f 152//51 151//14 158//68
f 117//14 113//50 123//54
f 122//66 120//67 123//54
f 151//14 149//14 97//51
f 124//14 111//14 125//72
f 126//73 125//72 127//74
f 127//74 125//72 128//13
f 125//72 111//14 128//13
f 137//61 148//54 139//75
f 148//54 147//76 139//75
f 146//19 145//18 143//18
f 145//18 144//77 143//18
f 110//59 129//60 128//13
f 147//76 146//19 142//62
f 129//60 109//51 130//54
f 143//18 142//62 146//19
f 142//62 141//78 147//76
f 141//78 140//76 147//76
f 133//13 132//50 134//14
f 132//50 131//14 134//14
f 131//14 97//51 135//13
f 139//75 138//79 137//61
f 140//76 139//75 147//76
f 137//61 136//80 135//13
f 14//52 97//51 58//81
f 97//51 96//53 92//14
f 58//81 97//51 59//14
f 96//53 95//14 92//14
f 95//14 94//75 92//14
f 94//75 93//82 92//14
f 92//14 91//83 97//51
f 59//14 97//51 60//14
f 61//13 60//14 85//15
f 85//15 60//14 97//51
f 90//76 89//84 87//85
f 89//84 88//86 87//85
f 91//83 90//76 97//51
f 64//87 63//54 84//16
f 63//54 62//17 84//16
f 62//17 61//13 85//15
f 85//15 97//51 86//88
f 67//89 66//59 68//85
f 66//59 65//51 70//90
f 69//13 66//59 70//90
f 69//13 68//85 66//59
f 71//18 70//90 65//51
f 73//13 72//18 65//51
f 72//18 71//18 65//51
f 73//13 65//51 64//87
f 74//13 73//13 84//16
f 77//75 76//91 75//18
f 73//13 64//87 84//16
f 78//50 77//75 75//18
f 75//18 74//13 84//16
f 90//76 87//85 86//88
f 90//76 86//88 97//51
f 79//54 78//50 82//62
f 78//50 75//18 83//62
f 79//54 82//62 81//13
f 81//13 80//92 79//54
f 83//62 82//62 78//50
f 84//16 83//62 75//18
f 96//53 108//51 98//93
f 108//51 107//94 98//93
f 106//19 105//95 103//13
f 105//95 104//75 103//13
f 107//94 106//19 99//18
f 98//93 107//94 99//18
f 103//13 102//96 101//97
f 103//13 101//97 100//14
f 106//19 103//13 100//14
f 12//22 13//98 166//20
f 13//98 169//20 166//20
f 169//20 168//20 166//20
f 168//20 167//99 166//20
f 12//22 14//52 176//23
f 176//23 175//100 173//23
f 175//100 174//100 173//23
f 173//23 172//23 176//23
f 172//23 171//100 12//22
f 171//100 170//101 12//22
f 170//101 13//98 12//22
o 2_Equatorial_Guinea_sphere.001
v 4.933305 0.313950 -0.748227
v 4.929587 0.313950 -0.774350
v 4.930450 0.327080 -0.761692
v 4.930286 0.327708 -0.762529
v 4.930051 0.327110 -0.764481
v 4.929685 0.326685 -0.767270
v 4.929261 0.326767 -0.770205
v 4.928853 0.327718 -0.772596
v 4.928845 0.327334 -0.772846
v 4.928815 0.327191 -0.773126
v 4.928724 0.327069 -0.773827
v 4.928599 0.324213 -0.776144
v 4.928581 0.322728 -0.777012
v 4.928661 0.320887 -0.777374
v 4.928796 0.319213 -0.777269
v 4.928953 0.317693 -0.776926
v 4.929125 0.316336 -0.776400
v 4.929306 0.315184 -0.775708
v 4.932967 0.318139 -0.748501
v 4.932594 0.321202 -0.749586
v 4.932011 0.324921 -0.751814
v 4.931365 0.327944 -0.754831
v 4.930793 0.328942 -0.758346
v 4.930842 0.328615 -0.758169
v 4.930957 0.327706 -0.757817
v 4.930615 0.327139 -0.760506
v 4.929921 0.312386 -0.772622
v 4.930176 0.309974 -0.771765
v 4.930770 0.306548 -0.768934
v 4.930821 0.306255 -0.768686
v 4.931321 0.301574 -0.767003
v 4.931598 0.300382 -0.765523
v 4.931767 0.298332 -0.765132
v 4.931828 0.297863 -0.764891
v 4.931870 0.297572 -0.764705
v 4.932305 0.296079 -0.762237
v 4.932424 0.294675 -0.761949
v 4.932648 0.290663 -0.761939
v 4.932801 0.289238 -0.761417
v 4.933599 0.284725 -0.757571
v 4.934285 0.279826 -0.754668
v 4.934453 0.278847 -0.753872
v 4.934541 0.279411 -0.753032
v 4.934776 0.280261 -0.751047
v 4.934809 0.280822 -0.750597
v 4.934900 0.280586 -0.750051
v 4.935052 0.281045 -0.748800
v 4.935320 0.282390 -0.746395
v 4.935421 0.282169 -0.745771
v 4.935729 0.281721 -0.743783
v 4.935850 0.281742 -0.742921
v 4.935961 0.282146 -0.741988
v 4.936157 0.283325 -0.740150
v 4.936302 0.283571 -0.739030
v 4.936563 0.283637 -0.737171
v 4.936829 0.284121 -0.735117
v 4.936993 0.285422 -0.733459
v 4.936952 0.287983 -0.732741
v 4.936956 0.288926 -0.732344
v 4.937006 0.290069 -0.731554
v 4.937024 0.291205 -0.730977
v 4.936931 0.292174 -0.731259
v 4.936840 0.292975 -0.731579
v 4.936563 0.296662 -0.732090
v 4.936388 0.298352 -0.732660
v 4.936109 0.300548 -0.733759
v 4.935800 0.301993 -0.735369
v 4.935540 0.301424 -0.737416
v 4.935351 0.302058 -0.738496
v 4.935147 0.301992 -0.739955
v 4.934741 0.301425 -0.743033
v 4.934501 0.302019 -0.744482
v 4.934356 0.303413 -0.744954
v 4.934305 0.305018 -0.744691
v 4.934350 0.306241 -0.743900
v 4.934165 0.306825 -0.744972
v 4.933919 0.307805 -0.746312
v 4.933685 0.308973 -0.747504
v 4.933552 0.310083 -0.748003
vn 0.9878 0.0670 -0.1405
vn 0.9875 0.0705 -0.1405
vn 0.9885 0.0548 -0.1407
vn 0.9885 0.0549 -0.1407
vn 0.9885 0.0549 -0.1408
vn 0.9881 0.0622 -0.1406
vn 0.9875 0.0707 -0.1405
vn 0.9876 0.0692 -0.1405
vn 0.9876 0.0710 -0.1400
vn 0.9875 0.0710 -0.1406
vn 0.9875 0.0707 -0.1404
vn 0.9876 0.0706 -0.1403
vn 0.9875 0.0706 -0.1406
vn 0.9874 0.0709 -0.1411
vn 0.9875 0.0704 -0.1406
vn 0.9873 0.0701 -0.1423
vn 0.9874 0.0715 -0.1412
vn 0.9875 0.0701 -0.1406
vn 0.9878 0.0673 -0.1405
vn 0.9875 0.0716 -0.1404
vn 0.9875 0.0708 -0.1406
vn 0.9875 0.0708 -0.1405
vn 0.9875 0.0702 -0.1406
vn 0.9877 0.0690 -0.1403
vn 0.9878 0.0681 -0.1402
vn 0.9875 0.0703 -0.1405
vn 0.9885 0.0553 -0.1407
vn 0.9886 0.0548 -0.1404
vn 0.9886 0.0548 -0.1405
vn 0.9885 0.0551 -0.1407
vn 0.9885 0.0550 -0.1407
vn 0.9884 0.0547 -0.1413
vn 0.9886 0.0550 -0.1404
vn 0.9885 0.0550 -0.1408
vn 0.9886 0.0526 -0.1406
vn 0.9886 0.0542 -0.1406
vn 0.9885 0.0546 -0.1407
vn 0.9883 0.0561 -0.1415
vn 0.9886 0.0551 -0.1399
vn 0.9885 0.0546 -0.1406
vn 0.9885 0.0550 -0.1406
vn 0.9885 0.0548 -0.1406
vn 0.9886 0.0546 -0.1406
vn 0.9884 0.0554 -0.1413
vn 0.9885 0.0556 -0.1408
vn 0.9886 0.0530 -0.1408
vn 0.9886 0.0538 -0.1407
vn 0.9885 0.0560 -0.1407
vn 0.9885 0.0547 -0.1407
vn 0.9884 0.0560 -0.1407
vn 0.9885 0.0552 -0.1408
vn 0.9885 0.0553 -0.1405
vn 0.9885 0.0549 -0.1405
vn 0.9885 0.0541 -0.1410
vn 0.9885 0.0546 -0.1409
vn 0.9885 0.0545 -0.1411
vn 0.9886 0.0533 -0.1406
vn 0.9885 0.0554 -0.1404
vn 0.9887 0.0547 -0.1396
vn 0.9885 0.0551 -0.1409
vn 0.9884 0.0550 -0.1414
vn 0.9885 0.0555 -0.1408
vn 0.9885 0.0548 -0.1408
usemtl None
s 1
f 178//102 182//103 181//103
f 247//104 244//105 239//106
f 177//107 178//102 179//108
f 178//102 194//109 193//110
f 177//107 179//108 202//111
f 193//110 192//112 178//102
f 192//112 191//113 183//114
f 191//113 190//115 188//116
f 190//115 189//117 188//116
f 188//116 187//118 186//119
f 185//120 184//121 183//114
f 188//116 186//119 183//114
f 186//119 185//120 183//114
f 191//113 188//116 183//114
f 178//102 192//112 183//114
f 196//122 195//116 202//111
f 195//116 177//107 202//111
f 198//114 197//123 201//124
f 197//123 196//122 202//111
f 200//125 199//126 198//114
f 201//124 200//125 198//114
f 197//123 202//111 201//124
f 183//114 182//103 178//102
f 179//108 178//102 181//103
f 181//103 180//127 179//108
f 178//102 177//107 203//128
f 177//107 255//105 206//129
f 203//128 177//107 205//130
f 255//105 254//131 208//132
f 177//107 206//129 205//130
f 205//130 204//133 203//128
f 206//129 255//105 208//132
f 254//131 253//134 249//132
f 208//132 207//135 206//129
f 210//136 209//137 212//138
f 209//137 208//132 212//138
f 212//138 211//139 210//136
f 215//104 214//140 213//141
f 216//105 215//104 213//141
f 212//138 208//132 254//131
f 212//138 254//131 249//132
f 216//105 213//141 248//132
f 213//141 212//138 248//132
f 218//142 217//143 219//144
f 217//143 216//105 221//104
f 219//144 217//143 221//104
f 221//104 220//145 219//144
f 221//104 216//105 224//131
f 223//146 222//147 221//104
f 224//131 216//105 248//132
f 224//131 223//146 221//104
f 226//148 225//149 228//150
f 225//149 224//131 229//142
f 228//150 227//151 226//148
f 229//142 228//150 225//149
f 232//152 231//105 234//153
f 231//105 230//154 234//153
f 230//154 229//142 247//104
f 229//142 224//131 247//104
f 230//154 235//106 234//153
f 252//155 251//104 250//156
f 212//138 249//132 248//132
f 253//134 252//155 250//156
f 249//132 253//134 250//156
f 233//157 232//152 234//153
f 235//106 230//154 239//106
f 230//154 247//104 239//106
f 247//104 246//158 244//105
f 246//158 245//159 244//105
f 224//131 248//132 247//104
f 237//160 236//161 238//162
f 236//161 235//106 239//106
f 239//106 238//162 236//161
f 241//163 240//164 244//105
f 240//164 239//106 244//105
f 243//131 242//104 244//105
f 242//104 241//163 244//105
