# Blender v2.81 (sub 16) OBJ File: ''
# www.blender.org
mtllib Gibraltar.mtl
o 0_Gibraltar_sphere.001
v 4.020203 2.948812 0.375689
v 4.020792 2.948003 0.375821
v 4.021106 2.947582 0.375787
v 4.021772 2.946654 0.376063
v 4.021279 2.947262 0.376598
v 4.020097 2.948809 0.377062
vn 0.8019 0.5941 0.0630
vn 0.8016 0.5944 0.0632
vn 0.8019 0.5941 0.0631
vn 0.8024 0.5935 0.0632
vn 0.8021 0.5938 0.0631
vn 0.8021 0.5938 0.0629
usemtl None
s 1
f 5//1 3//2 2//3
f 1//4 6//5 2//3
f 6//5 5//1 2//3
f 5//1 4//6 3//2
