# Blender v2.81 (sub 16) OBJ File: ''
# www.blender.org
mtllib Guam.mtl
o 0_Guam_sphere.001
v -3.970229 1.167225 -2.805175
v -3.976715 1.167225 -2.795946
v -3.976123 1.165833 -2.797349
v -3.973634 1.162479 -2.802242
v -3.972817 1.160336 -2.804269
v -3.972784 1.156819 -2.805732
v -3.973850 1.148867 -2.807419
v -3.973257 1.145765 -2.809514
v -3.972488 1.145154 -2.810854
v -3.971529 1.145081 -2.812248
v -3.970607 1.145568 -2.813364
v -3.969785 1.147102 -2.813914
v -3.968890 1.148558 -2.814601
v -3.968628 1.148988 -2.814801
v -3.967719 1.152210 -2.814796
v -3.967471 1.152789 -2.814916
v -3.967138 1.153278 -2.815193
v -3.966784 1.153671 -2.815537
v -3.966362 1.153947 -2.816028
v -3.966698 1.154801 -2.815205
v -3.966855 1.155680 -2.814628
v -3.966824 1.156771 -2.814232
v -3.966587 1.158277 -2.813963
v -3.966368 1.158984 -2.813988
v -3.965937 1.159854 -2.814251
v -3.965521 1.160596 -2.814544
v -3.964874 1.161252 -2.815202
v -3.964969 1.161894 -2.814807
v -3.965295 1.162273 -2.814190
v -3.965574 1.161809 -2.813980
v -3.966222 1.161933 -2.813008
v -3.968638 1.164833 -2.808403
v -3.969134 1.165866 -2.807280
v -3.975059 1.177084 -2.794043
v -3.976122 1.176015 -2.792992
v -3.977197 1.175544 -2.791666
v -3.978091 1.175433 -2.790441
v -3.978300 1.174446 -2.790570
v -3.978036 1.172215 -2.791910
v -3.977266 1.168499 -2.794612
v -3.971271 1.168504 -2.803139
v -3.971606 1.169381 -2.802284
v -3.971838 1.170400 -2.801513
v -3.971984 1.171626 -2.800776
v -3.971863 1.177301 -2.798496
v -3.971967 1.178333 -2.797903
v -3.972353 1.179262 -2.796951
v -3.972981 1.180043 -2.795719
v -3.973620 1.180134 -2.794772
v -3.974144 1.178961 -2.794533
vn -0.7971 0.2256 -0.5601
vn -0.7970 0.2257 -0.5602
vn -0.7941 0.2409 -0.5580
vn -0.7940 0.2410 -0.5580
vn -0.7940 0.2412 -0.5580
vn -0.7947 0.2375 -0.5585
vn -0.7965 0.2282 -0.5599
vn -0.7970 0.2257 -0.5601
vn -0.7971 0.2257 -0.5601
vn -0.7970 0.2258 -0.5602
vn -0.7970 0.2262 -0.5600
vn -0.7970 0.2263 -0.5600
vn -0.7971 0.2259 -0.5600
vn -0.7969 0.2258 -0.5603
vn -0.7971 0.2258 -0.5600
vn -0.7970 0.2258 -0.5601
vn -0.7976 0.2256 -0.5594
vn -0.7968 0.2257 -0.5605
vn -0.7974 0.2256 -0.5597
vn -0.7971 0.2253 -0.5602
vn -0.7968 0.2258 -0.5604
vn -0.7960 0.2260 -0.5614
vn -0.7969 0.2257 -0.5603
vn -0.7975 0.2253 -0.5596
vn -0.7967 0.2256 -0.5606
vn -0.7974 0.2257 -0.5596
vn -0.7971 0.2255 -0.5602
vn -0.7939 0.2413 -0.5580
vn -0.7940 0.2409 -0.5581
vn -0.7940 0.2411 -0.5581
vn -0.7940 0.2411 -0.5580
vn -0.7941 0.2413 -0.5579
vn -0.7940 0.2409 -0.5580
vn -0.7941 0.2410 -0.5579
vn -0.7941 0.2410 -0.5580
vn -0.7940 0.2410 -0.5581
usemtl None
s 1
f 21//1 15//1 6//2
f 47//3 46//4 50//5
f 2//6 1//7 3//1
f 1//7 33//8 5//1
f 4//9 1//7 5//1
f 1//7 4//9 3//1
f 33//8 32//9 5//1
f 32//9 31//10 6//2
f 5//1 32//9 6//2
f 30//11 29//12 28//13
f 31//10 30//11 26//14
f 6//2 31//10 23//15
f 8//2 7//8 12//16
f 7//8 6//2 15//1
f 24//17 31//10 25//18
f 30//11 28//13 26//14
f 28//13 27//19 26//14
f 6//2 23//15 22//8
f 31//10 24//17 23//15
f 10//20 9//16 12//16
f 9//16 8//2 12//16
f 12//16 11//21 10//20
f 14//22 13//23 15//1
f 13//23 12//16 7//8
f 13//23 7//8 15//1
f 26//14 25//18 31//10
f 16//24 15//1 21//1
f 6//2 22//8 21//1
f 17//25 16//24 21//1
f 20//26 19//20 18//27
f 20//26 18//27 17//25
f 21//1 20//26 17//25
f 1//7 2//6 41//28
f 2//6 40//5 44//29
f 41//28 2//6 42//5
f 40//5 39//30 35//31
f 39//30 38//31 36//30
f 35//31 39//30 36//30
f 38//31 37//32 36//30
f 42//5 2//6 43//33
f 40//5 35//31 44//29
f 43//33 2//6 44//29
f 44//29 35//31 34//31
f 50//5 49//34 48//35
f 34//31 50//5 46//4
f 44//29 34//31 45//36
f 46//4 45//36 34//31
f 50//5 48//35 47//3
