# Blender v2.81 (sub 16) OBJ File: ''
# www.blender.org
mtllib Indian Ocean Territories.mtl
o 0_Indian_Ocean_Territories_sphere.001
v -0.587241 -1.056512 -4.851174
v -0.586422 -1.056179 -4.851337
v -0.586200 -1.055910 -4.851420
v -0.586110 -1.055449 -4.851530
v -0.587097 -1.055394 -4.851432
v -0.587861 -1.054998 -4.851434
v -0.588354 -1.054268 -4.851538
v -0.588512 -1.053265 -4.851737
v -0.588907 -1.054268 -4.851477
v -0.588806 -1.055255 -4.851274
v -0.588250 -1.056059 -4.851161
vn -0.1072 -0.2105 -0.9717
vn -0.1070 -0.2105 -0.9717
vn -0.1060 -0.2104 -0.9718
vn -0.1069 -0.2105 -0.9717
vn -0.1075 -0.2104 -0.9716
vn -0.1084 -0.2107 -0.9715
vn -0.1070 -0.2099 -0.9718
vn -0.1082 -0.2104 -0.9716
usemtl None
s 1
f 6//1 5//1 11//2
f 9//2 8//3 7//4
f 9//2 7//4 10//5
f 7//4 6//1 10//5
f 11//2 10//5 6//1
f 2//6 1//4 5//1
f 1//4 11//2 5//1
f 4//7 3//8 5//1
f 3//8 2//6 5//1
o 1_Indian_Ocean_Territories_sphere.001
v -0.582651 -1.055421 -4.851918
v -0.583984 -1.054959 -4.851871
v -0.584496 -1.055495 -4.851698
v -0.582428 -1.056317 -4.851748
v -0.581226 -1.054801 -4.852209
v -0.580683 -1.052326 -4.852806
v -0.580577 -1.050251 -4.853267
v -0.581156 -1.050251 -4.853203
v -0.581134 -1.051083 -4.853025
v -0.581243 -1.051774 -4.852863
v -0.581662 -1.053146 -4.852520
v -0.581302 -1.054075 -4.852358
v -0.581699 -1.054984 -4.852118
vn -0.1083 -0.2109 -0.9715
vn -0.1064 -0.2109 -0.9717
vn -0.1091 -0.2107 -0.9714
vn -0.1075 -0.2105 -0.9716
vn -0.1075 -0.2104 -0.9717
vn -0.1071 -0.2106 -0.9717
vn -0.1070 -0.2106 -0.9717
vn -0.1058 -0.2105 -0.9718
vn -0.1073 -0.2105 -0.9717
vn -0.1063 -0.2105 -0.9718
vn -0.1061 -0.2104 -0.9718
vn -0.1053 -0.2104 -0.9719
usemtl None
s 1
f 16//9 24//10 23//11
f 14//12 13//13 12//14
f 15//15 14//12 12//14
f 18//16 17//17 20//18
f 17//17 16//9 23//11
f 21//19 17//17 22//12
f 20//18 19//20 18//16
f 23//11 22//12 17//17
f 21//19 20//18 17//17
f 16//9 15//15 24//10
f 15//15 12//14 24//10
o 2_Indian_Ocean_Territories_sphere.001
v -1.330717 -0.910562 -4.732195
v -1.330619 -0.912282 -4.731896
v -1.329877 -0.913553 -4.731859
v -1.329934 -0.915648 -4.731447
v -1.329448 -0.916626 -4.731394
v -1.328122 -0.916727 -4.731738
v -1.327752 -0.915273 -4.732115
v -1.327326 -0.913909 -4.732489
v -1.327117 -0.912643 -4.732786
v -1.325911 -0.912180 -4.733204
v -1.324184 -0.911827 -4.733743
v -1.322264 -0.911910 -4.734252
v -1.320576 -0.912453 -4.734612
v -1.320370 -0.911467 -4.734854
v -1.321252 -0.910915 -4.734718
v -1.321941 -0.909376 -4.734820
v -1.321558 -0.908192 -4.735149
v -1.321620 -0.907109 -4.735338
v -1.322661 -0.907477 -4.734983
v -1.324264 -0.908378 -4.734374
v -1.326546 -0.908468 -4.733733
v -1.327812 -0.907293 -4.733609
v -1.329192 -0.905937 -4.733488
v -1.330793 -0.905123 -4.733204
v -1.331640 -0.905674 -4.732868
v -1.331424 -0.906850 -4.732704
v -1.331238 -0.908473 -4.732449
vn -0.2594 -0.1797 -0.9489
vn -0.2598 -0.1797 -0.9488
vn -0.2595 -0.1796 -0.9489
vn -0.2586 -0.1799 -0.9491
vn -0.2595 -0.1799 -0.9488
vn -0.2594 -0.1796 -0.9489
vn -0.2595 -0.1797 -0.9489
vn -0.2593 -0.1797 -0.9489
vn -0.2596 -0.1796 -0.9489
vn -0.2596 -0.1795 -0.9489
vn -0.2598 -0.1795 -0.9488
vn -0.2596 -0.1796 -0.9488
vn -0.2593 -0.1796 -0.9489
vn -0.2594 -0.1798 -0.9489
vn -0.2597 -0.1801 -0.9487
vn -0.2596 -0.1798 -0.9488
vn -0.2597 -0.1796 -0.9488
vn -0.2595 -0.1800 -0.9488
vn -0.2572 -0.1794 -0.9495
vn -0.2589 -0.1795 -0.9490
usemtl None
s 1
f 40//21 36//22 35//23
f 49//24 48//25 50//26
f 48//25 47//27 50//26
f 47//27 46//23 51//28
f 50//26 47//27 51//28
f 25//23 51//28 46//23
f 25//23 46//23 45//29
f 27//30 26//31 33//32
f 26//31 25//23 33//32
f 44//33 43//34 40//21
f 43//34 42//35 41//36
f 25//23 45//29 33//32
f 45//29 44//33 35//23
f 34//37 45//29 35//23
f 29//34 28//26 31//26
f 28//26 27//30 31//26
f 45//29 34//37 33//32
f 43//34 41//36 40//21
f 30//38 29//34 31//26
f 33//32 32//26 27//30
f 32//26 31//26 27//30
f 44//33 40//21 35//23
f 39//33 38//39 37//40
f 40//21 39//33 36//22
f 39//33 37//40 36//22
