# Blender v2.81 (sub 16) OBJ File: ''
# www.blender.org
mtllib Kosovo.mtl
o 0_Kosovo_sphere.001
v 3.466746 3.365062 -1.286523
v 3.440055 3.365062 -1.357158
v 3.416862 3.390193 -1.352825
v 3.434371 3.369820 -1.359758
v 3.405981 3.422734 -1.296530
v 3.410367 3.422734 -1.284920
v 3.411100 3.422734 -1.282982
v 3.406618 3.422018 -1.296717
v 3.407419 3.421171 -1.296812
v 3.407552 3.421121 -1.296591
v 3.407843 3.420619 -1.297134
v 3.407925 3.418595 -1.302209
v 3.408020 3.416370 -1.307776
v 3.408020 3.416065 -1.308570
v 3.407869 3.415700 -1.309928
v 3.406511 3.415532 -1.313961
v 3.406673 3.414932 -1.315099
v 3.407585 3.413463 -1.316528
v 3.410127 3.410114 -1.318557
v 3.410674 3.409257 -1.319349
v 3.410689 3.408783 -1.320549
v 3.410068 3.409140 -1.321262
v 3.409364 3.409595 -1.321933
v 3.409073 3.409487 -1.322988
v 3.409974 3.408040 -1.324385
v 3.411653 3.406055 -1.325133
v 3.413249 3.404051 -1.326148
v 3.413969 3.402481 -1.328348
v 3.413819 3.402363 -1.329054
v 3.413282 3.402374 -1.330448
v 3.413131 3.402253 -1.331162
v 3.413159 3.401945 -1.331893
v 3.413374 3.401184 -1.333313
v 3.413385 3.400890 -1.334054
v 3.412971 3.400536 -1.336073
v 3.412555 3.400488 -1.337301
v 3.412754 3.400015 -1.338012
v 3.413032 3.399682 -1.338148
v 3.414191 3.398340 -1.338590
v 3.415233 3.397244 -1.338699
v 3.417375 3.395114 -1.338598
v 3.418318 3.394104 -1.338745
v 3.418654 3.393799 -1.338651
v 3.418938 3.393595 -1.338432
v 3.419114 3.393404 -1.338468
v 3.419143 3.393099 -1.339188
v 3.418965 3.392859 -1.340285
v 3.418664 3.392894 -1.340992
v 3.418085 3.392925 -1.342442
v 3.416341 3.392310 -1.348666
v 3.416116 3.391963 -1.350169
v 3.416327 3.391319 -1.351293
v 3.434572 3.369676 -1.359604
v 3.436693 3.368776 -1.356344
v 3.438098 3.367708 -1.355416
v 3.439469 3.366148 -1.355867
v 3.466540 3.366001 -1.284611
v 3.466797 3.366105 -1.283658
v 3.468399 3.366058 -1.279542
v 3.468602 3.366140 -1.278790
v 3.468390 3.366599 -1.278150
v 3.467688 3.367637 -1.277297
v 3.467335 3.368078 -1.277076
v 3.466522 3.368974 -1.276886
v 3.466152 3.369459 -1.276595
v 3.465940 3.369856 -1.276117
v 3.465763 3.370473 -1.274976
v 3.465519 3.370870 -1.274582
v 3.465123 3.371298 -1.274509
v 3.464232 3.372055 -1.274889
v 3.463760 3.372590 -1.274740
v 3.463453 3.373076 -1.274282
v 3.463204 3.373713 -1.273274
v 3.462999 3.374088 -1.272837
v 3.460863 3.377293 -1.270110
v 3.460351 3.378336 -1.268735
v 3.460319 3.379677 -1.265315
v 3.459862 3.380748 -1.263722
v 3.458849 3.381596 -1.264187
v 3.458111 3.382413 -1.264004
v 3.457379 3.383330 -1.263543
v 3.456483 3.384356 -1.263232
v 3.455957 3.384869 -1.263280
v 3.454799 3.385908 -1.263629
v 3.453063 3.387559 -1.263905
v 3.452917 3.387780 -1.263716
v 3.452513 3.388443 -1.263052
v 3.451550 3.391050 -1.258784
v 3.450933 3.392083 -1.257715
v 3.449791 3.393352 -1.257420
v 3.449153 3.393873 -1.257745
v 3.447992 3.394665 -1.258748
v 3.447464 3.395023 -1.259206
v 3.446987 3.395278 -1.259803
v 3.446583 3.394813 -1.262089
v 3.446667 3.393737 -1.264679
v 3.446313 3.393260 -1.266865
v 3.444592 3.394593 -1.267933
v 3.444020 3.395209 -1.267835
v 3.443556 3.395783 -1.267564
v 3.443010 3.396397 -1.267400
v 3.442199 3.397112 -1.267677
v 3.441799 3.397353 -1.268108
v 3.440342 3.398033 -1.270185
v 3.437972 3.398652 -1.274838
v 3.435385 3.399483 -1.279513
v 3.433465 3.400432 -1.282110
v 3.431721 3.401862 -1.282987
v 3.431294 3.402474 -1.282518
v 3.430765 3.403227 -1.281949
v 3.430679 3.403903 -1.280411
v 3.430348 3.404702 -1.279196
v 3.428601 3.406495 -1.279132
v 3.427307 3.407551 -1.279795
v 3.426714 3.407781 -1.280763
v 3.426316 3.407781 -1.281815
v 3.425602 3.408104 -1.282860
v 3.425124 3.408450 -1.283218
v 3.424634 3.408875 -1.283404
v 3.423569 3.409855 -1.283661
v 3.422995 3.410288 -1.284049
v 3.422754 3.410292 -1.284675
v 3.422645 3.410121 -1.285412
v 3.422358 3.410139 -1.286125
v 3.421073 3.411083 -1.287055
v 3.418767 3.413048 -1.288021
v 3.416476 3.415152 -1.288581
v 3.415021 3.416720 -1.288333
v 3.414841 3.417119 -1.287765
v 3.415066 3.417129 -1.287145
v 3.415364 3.417061 -1.286535
v 3.415458 3.417186 -1.285956
v 3.415219 3.417619 -1.285458
v 3.414815 3.418222 -1.284948
v 3.413800 3.419618 -1.283984
v 3.413025 3.420827 -1.282877
v 3.412461 3.421544 -1.282493
v 3.411604 3.422366 -1.282611
v 3.404709 3.423620 -1.297508
v 3.404796 3.423767 -1.296878
v 3.405497 3.423278 -1.296343
v 3.405791 3.422930 -1.296503
v 3.409521 3.423121 -1.286117
v 3.405341 3.425838 -1.289848
v 3.404364 3.426327 -1.291115
v 3.403665 3.426482 -1.292547
v 3.403513 3.426269 -1.293524
v 3.403427 3.426121 -1.294152
v 3.403646 3.425395 -1.295528
v 3.403861 3.424907 -1.296278
v 3.404080 3.424485 -1.296837
v 3.404643 3.423614 -1.297696
v 3.417207 3.389422 -1.353853
v 3.417254 3.388889 -1.355025
v 3.416892 3.388895 -1.355887
v 3.415048 3.389797 -1.358159
v 3.414510 3.389808 -1.359432
v 3.414091 3.389452 -1.361304
v 3.414085 3.389293 -1.361699
v 3.414147 3.388653 -1.363097
v 3.415164 3.387228 -1.364084
v 3.415772 3.386678 -1.363943
v 3.416309 3.386359 -1.363419
v 3.416801 3.386119 -1.362808
v 3.417357 3.385759 -1.362337
v 3.417487 3.385584 -1.362446
v 3.418744 3.384276 -1.362570
v 3.418929 3.384096 -1.362560
v 3.419096 3.383958 -1.362489
v 3.419371 3.383835 -1.362123
v 3.419578 3.383645 -1.362082
v 3.419784 3.383364 -1.362263
v 3.420098 3.382793 -1.362884
v 3.420271 3.382568 -1.363009
v 3.421786 3.381093 -1.362916
v 3.426349 3.377202 -1.361296
v 3.428956 3.375322 -1.359541
v 3.429794 3.374602 -1.359258
v 3.430680 3.373628 -1.359472
v 3.432306 3.371591 -1.360466
v 3.433270 3.370603 -1.360526
v 3.440955 3.363331 -1.359160
v 3.442160 3.361613 -1.360324
v 3.443623 3.361057 -1.357863
v 3.444130 3.361014 -1.356630
v 3.444046 3.361603 -1.355359
v 3.444735 3.361039 -1.354965
v 3.445066 3.360759 -1.354796
v 3.445194 3.360888 -1.354130
v 3.445019 3.361354 -1.353416
v 3.445133 3.361531 -1.352665
v 3.445896 3.361071 -1.351811
v 3.446318 3.360517 -1.352098
v 3.446645 3.359929 -1.352721
v 3.446979 3.359501 -1.352923
v 3.447275 3.359430 -1.352320
v 3.447529 3.360080 -1.350001
v 3.448016 3.359987 -1.348948
v 3.448354 3.359746 -1.348662
v 3.448732 3.359483 -1.348331
v 3.453722 3.355106 -1.346215
v 3.454226 3.354541 -1.346310
v 3.454475 3.354181 -1.346563
v 3.454707 3.353833 -1.346832
v 3.455128 3.353276 -1.347128
v 3.456214 3.351951 -1.347611
v 3.456331 3.351824 -1.347625
v 3.456765 3.351343 -1.347692
v 3.457090 3.351241 -1.347093
v 3.457726 3.351663 -1.344341
v 3.457865 3.351711 -1.343851
v 3.457696 3.352152 -1.343181
v 3.457618 3.352349 -1.342888
v 3.457081 3.353246 -1.342035
v 3.456364 3.354542 -1.340649
v 3.455781 3.356218 -1.337947
v 3.455466 3.357643 -1.335169
v 3.455463 3.358005 -1.334261
v 3.455532 3.358105 -1.333825
v 3.455713 3.358103 -1.333352
v 3.456888 3.357355 -1.332136
v 3.459002 3.355747 -1.330617
v 3.459729 3.355192 -1.330100
v 3.460822 3.354576 -1.328767
v 3.461886 3.354084 -1.327197
v 3.464497 3.352911 -1.323259
v 3.467945 3.351356 -1.318074
v 3.469112 3.350661 -1.316746
v 3.470539 3.349494 -1.315927
v 3.471943 3.348090 -1.315770
v 3.474905 3.344890 -1.316038
v 3.476171 3.343408 -1.316440
v 3.477611 3.341431 -1.317640
v 3.478044 3.340826 -1.318027
v 3.479242 3.339491 -1.318239
v 3.479442 3.339264 -1.318284
v 3.480716 3.338037 -1.318022
v 3.482255 3.336645 -1.317477
v 3.482869 3.336162 -1.317074
v 3.483649 3.335538 -1.316591
v 3.484452 3.335180 -1.315374
v 3.484375 3.335532 -1.314684
v 3.483740 3.336818 -1.313109
v 3.483717 3.337100 -1.312455
v 3.484046 3.336881 -1.312138
v 3.485111 3.335901 -1.311802
v 3.485526 3.335614 -1.311430
v 3.485956 3.335557 -1.310441
v 3.485951 3.335887 -1.309613
v 3.485476 3.337089 -1.307827
v 3.485081 3.337549 -1.307707
v 3.484516 3.338358 -1.307152
v 3.484125 3.338821 -1.307014
v 3.483361 3.339613 -1.307029
v 3.482923 3.339969 -1.307286
v 3.482527 3.340244 -1.307638
v 3.481920 3.340735 -1.307998
v 3.480678 3.341934 -1.308247
v 3.479993 3.342745 -1.308008
v 3.479390 3.343606 -1.307420
v 3.478404 3.344909 -1.306729
v 3.475777 3.348904 -1.303559
v 3.474889 3.350121 -1.302826
v 3.473159 3.352205 -1.302127
v 3.472239 3.353360 -1.301633
v 3.471037 3.355088 -1.300435
v 3.468585 3.359043 -1.296903
v 3.467946 3.360327 -1.295343
v 3.467763 3.360754 -1.294745
v 3.467446 3.361597 -1.293447
vn 0.6868 0.6790 -0.2591
vn 0.6869 0.6787 -0.2598
vn 0.6867 0.6786 -0.2606
vn 0.6769 0.6902 -0.2557
vn 0.6768 0.6902 -0.2560
vn 0.6768 0.6903 -0.2556
vn 0.6791 0.6779 -0.2814
vn 0.6789 0.6789 -0.2796
vn 0.6782 0.6787 -0.2817
vn 0.6967 0.6673 -0.2633
vn 0.6963 0.6676 -0.2634
vn 0.6937 0.6708 -0.2621
vn 0.6970 0.6672 -0.2627
vn 0.6970 0.6670 -0.2632
vn 0.6970 0.6669 -0.2634
vn 0.6890 0.6764 -0.2604
vn 0.6869 0.6788 -0.2595
vn 0.6870 0.6787 -0.2596
vn 0.6870 0.6786 -0.2597
vn 0.6870 0.6787 -0.2595
vn 0.6870 0.6787 -0.2594
vn 0.6868 0.6788 -0.2596
vn 0.6869 0.6788 -0.2593
vn 0.6869 0.6787 -0.2596
vn 0.6868 0.6787 -0.2603
vn 0.6847 0.6788 -0.2652
vn 0.6874 0.6782 -0.2597
vn 0.6865 0.6791 -0.2597
vn 0.6868 0.6789 -0.2595
vn 0.6857 0.6800 -0.2598
vn 0.6852 0.6787 -0.2642
vn 0.6872 0.6784 -0.2597
vn 0.6865 0.6794 -0.2590
vn 0.6873 0.6784 -0.2595
vn 0.6865 0.6794 -0.2591
vn 0.6869 0.6786 -0.2600
vn 0.6877 0.6774 -0.2613
vn 0.6873 0.6783 -0.2598
vn 0.6872 0.6786 -0.2593
vn 0.6865 0.6793 -0.2592
vn 0.6866 0.6787 -0.2605
vn 0.6872 0.6787 -0.2588
vn 0.6880 0.6795 -0.2548
vn 0.6864 0.6788 -0.2607
vn 0.6869 0.6786 -0.2598
vn 0.6868 0.6790 -0.2593
vn 0.6869 0.6787 -0.2597
vn 0.6868 0.6789 -0.2596
vn 0.6868 0.6785 -0.2604
vn 0.6871 0.6785 -0.2595
vn 0.6869 0.6790 -0.2588
vn 0.6872 0.6792 -0.2575
vn 0.6870 0.6787 -0.2593
vn 0.6876 0.6780 -0.2597
vn 0.6869 0.6788 -0.2596
vn 0.6870 0.6786 -0.2598
vn 0.6867 0.6789 -0.2597
vn 0.6872 0.6785 -0.2597
vn 0.6882 0.6782 -0.2575
vn 0.6867 0.6788 -0.2601
vn 0.6869 0.6790 -0.2590
vn 0.6870 0.6788 -0.2594
vn 0.6870 0.6786 -0.2596
vn 0.6867 0.6789 -0.2598
vn 0.6864 0.6793 -0.2596
vn 0.6871 0.6785 -0.2600
vn 0.6869 0.6788 -0.2594
vn 0.6871 0.6789 -0.2587
vn 0.6869 0.6789 -0.2594
vn 0.6876 0.6782 -0.2594
vn 0.6867 0.6791 -0.2592
vn 0.6874 0.6781 -0.2601
vn 0.6862 0.6795 -0.2596
vn 0.6872 0.6785 -0.2596
vn 0.6864 0.6792 -0.2598
vn 0.6871 0.6785 -0.2597
vn 0.6868 0.6792 -0.2587
vn 0.6879 0.6785 -0.2575
vn 0.6818 0.6848 -0.2571
vn 0.6859 0.6799 -0.2593
vn 0.6863 0.6793 -0.2599
vn 0.6872 0.6785 -0.2595
vn 0.6868 0.6788 -0.2597
vn 0.6867 0.6789 -0.2596
vn 0.6865 0.6792 -0.2595
vn 0.6869 0.6789 -0.2593
vn 0.6868 0.6788 -0.2599
vn 0.6869 0.6787 -0.2600
vn 0.6870 0.6788 -0.2593
vn 0.6863 0.6797 -0.2586
vn 0.6871 0.6786 -0.2595
vn 0.6870 0.6787 -0.2597
vn 0.6871 0.6786 -0.2593
vn 0.6874 0.6785 -0.2590
vn 0.6769 0.6901 -0.2559
vn 0.6792 0.6899 -0.2502
vn 0.6771 0.6901 -0.2556
vn 0.6770 0.6901 -0.2557
vn 0.6770 0.6901 -0.2558
vn 0.6765 0.6903 -0.2566
vn 0.6764 0.6902 -0.2571
vn 0.6768 0.6901 -0.2564
vn 0.6768 0.6904 -0.2554
vn 0.6767 0.6903 -0.2559
vn 0.6785 0.6787 -0.2809
vn 0.6784 0.6788 -0.2810
vn 0.6785 0.6788 -0.2809
vn 0.6784 0.6787 -0.2811
vn 0.6783 0.6788 -0.2812
vn 0.6785 0.6786 -0.2813
vn 0.6785 0.6787 -0.2810
vn 0.6784 0.6787 -0.2813
vn 0.6787 0.6784 -0.2812
vn 0.6779 0.6791 -0.2816
vn 0.6785 0.6786 -0.2811
vn 0.6784 0.6789 -0.2810
vn 0.6785 0.6785 -0.2812
vn 0.6783 0.6789 -0.2810
vn 0.6786 0.6786 -0.2808
vn 0.6785 0.6787 -0.2811
vn 0.6790 0.6785 -0.2800
vn 0.6805 0.6758 -0.2830
vn 0.6789 0.6783 -0.2809
vn 0.6969 0.6671 -0.2633
vn 0.6969 0.6670 -0.2633
vn 0.6968 0.6672 -0.2633
vn 0.6968 0.6671 -0.2633
vn 0.6969 0.6671 -0.2632
vn 0.6977 0.6661 -0.2637
vn 0.6965 0.6675 -0.2632
vn 0.6893 0.6723 -0.2700
vn 0.6968 0.6672 -0.2631
vn 0.6970 0.6673 -0.2622
vn 0.6971 0.6676 -0.2615
vn 0.6965 0.6674 -0.2635
vn 0.6968 0.6670 -0.2636
vn 0.6966 0.6674 -0.2632
vn 0.6968 0.6670 -0.2634
vn 0.6967 0.6672 -0.2634
vn 0.6960 0.6682 -0.2627
vn 0.6966 0.6673 -0.2633
vn 0.6969 0.6670 -0.2635
vn 0.6967 0.6672 -0.2633
vn 0.6969 0.6668 -0.2639
vn 0.6968 0.6670 -0.2635
vn 0.6970 0.6669 -0.2633
vn 0.6967 0.6672 -0.2635
vn 0.6968 0.6673 -0.2631
vn 0.6968 0.6672 -0.2632
vn 0.6973 0.6670 -0.2623
vn 0.6968 0.6670 -0.2637
vn 0.6973 0.6666 -0.2634
vn 0.6970 0.6668 -0.2637
vn 0.6971 0.6668 -0.2635
vn 0.6962 0.6676 -0.2637
vn 0.6969 0.6670 -0.2634
vn 0.6973 0.6661 -0.2647
vn 0.6968 0.6672 -0.2630
vn 0.6966 0.6673 -0.2634
vn 0.6969 0.6672 -0.2630
vn 0.6979 0.6649 -0.2661
vn 0.6970 0.6670 -0.2630
vn 0.6970 0.6669 -0.2635
vn 0.6966 0.6673 -0.2632
vn 0.6971 0.6666 -0.2637
vn 0.6975 0.6661 -0.2640
vn 0.6969 0.6671 -0.2631
vn 0.6965 0.6675 -0.2633
vn 0.6968 0.6671 -0.2635
vn 0.6967 0.6672 -0.2632
vn 0.6966 0.6674 -0.2633
vn 0.6976 0.6661 -0.2637
vn 0.6972 0.6665 -0.2639
vn 0.6977 0.6673 -0.2608
usemtl None
s 1
f 123//1 120//2 119//3
f 151//4 150//5 140//6
f 170//7 168//8 167//9
f 183//10 182//11 2//12
f 206//13 205//14 210//15
f 1//16 2//12 56//17
f 1//16 56//17 55//18
f 57//19 1//16 106//20
f 1//16 55//18 45//21
f 46//22 55//18 47//23
f 54//24 53//25 4//26
f 55//18 46//22 45//21
f 55//18 54//24 47//23
f 60//17 59//17 61//21
f 59//17 58//27 64//28
f 64//28 58//27 65//29
f 58//27 57//19 71//30
f 54//24 4//26 3//31
f 3//31 52//32 50//18
f 52//32 51//33 50//18
f 50//18 49//34 3//31
f 49//34 48//17 3//31
f 48//17 47//23 54//24
f 3//31 48//17 54//24
f 58//27 71//30 65//29
f 62//35 61//21 59//17
f 64//28 63//36 59//17
f 63//36 62//35 59//17
f 68//37 67//38 69//39
f 67//38 66//40 70//41
f 69//39 67//38 70//41
f 65//29 71//30 70//41
f 66//40 65//29 70//41
f 1//16 45//21 107//18
f 1//16 107//18 106//20
f 44//42 43//43 42//44
f 45//21 44//42 28//20
f 107//18 45//21 28//20
f 71//30 57//19 72//29
f 44//42 42//44 41//45
f 41//45 40//18 34//46
f 40//18 39//20 35//47
f 34//46 40//18 35//47
f 39//20 38//48 35//47
f 38//48 37//49 36//50
f 35//47 38//48 36//50
f 44//42 41//45 33//17
f 74//51 73//52 72//29
f 72//29 57//19 106//20
f 33//17 32//18 29//53
f 32//18 31//39 30//54
f 29//53 32//18 30//54
f 41//45 34//46 33//17
f 74//51 72//29 75//24
f 75//24 72//29 106//20
f 33//17 29//53 44//42
f 76//55 75//24 85//56
f 78//57 77//29 79//58
f 77//29 76//55 79//58
f 44//42 29//53 28//20
f 80//19 79//58 76//55
f 82//59 81//60 83//61
f 81//60 80//19 84//22
f 84//22 83//61 81//60
f 80//19 76//55 84//22
f 85//56 75//24 97//62
f 28//20 27//19 108//20
f 107//18 28//20 108//20
f 85//56 84//22 76//55
f 26//55 25//63 21//64
f 25//63 24//47 22//48
f 22//48 24//47 23//65
f 27//19 26//55 21//64
f 86//66 85//56 97//62
f 25//63 22//48 21//64
f 87//67 86//66 97//62
f 75//24 106//20 105//17
f 97//62 75//24 98//47
f 89//68 88//67 91//69
f 88//67 87//67 96//55
f 92//18 95//55 93//70
f 91//69 90//71 89//68
f 92//18 91//69 88//67
f 95//55 94//72 93//70
f 96//55 95//55 88//67
f 88//67 95//55 92//18
f 21//64 20//48 27//19
f 27//19 20//48 108//20
f 19//73 18//24 15//74
f 18//24 17//75 16//18
f 15//74 18//24 16//18
f 20//48 19//73 14//63
f 97//62 96//55 87//67
f 98//47 75//24 105//17
f 19//73 15//74 14//63
f 20//48 14//63 125//29
f 13//76 12//20 126//24
f 12//20 11//18 127//22
f 128//67 11//18 10//67
f 14//63 13//76 125//29
f 10//67 9//77 8//78
f 8//78 5//79 10//67
f 5//79 6//80 10//67
f 6//80 7//81 138//82
f 138//82 137//19 6//80
f 137//19 136//83 6//80
f 135//47 134//84 129//20
f 134//84 133//85 130//47
f 129//20 134//84 130//47
f 136//83 135//47 6//80
f 10//67 6//80 129//20
f 135//47 129//20 6//80
f 133//85 132//86 131//87
f 133//85 131//87 130//47
f 10//67 129//20 128//67
f 101//29 100//88 103//89
f 100//88 99//2 103//89
f 103//89 102//90 101//29
f 105//17 104//20 98//47
f 104//20 103//89 99//2
f 98//47 104//20 99//2
f 11//18 128//67 127//22
f 12//20 127//22 126//24
f 108//20 20//48 124//17
f 20//48 125//29 124//17
f 110//55 109//91 117//60
f 109//91 108//20 117//60
f 13//76 126//24 125//29
f 112//89 111//24 113//20
f 111//24 110//55 113//20
f 113//20 110//55 116//83
f 114//27 113//20 115//92
f 116//83 115//92 113//20
f 108//20 124//17 118//2
f 117//60 108//20 118//2
f 117//60 116//83 110//55
f 123//1 122//93 120//2
f 122//93 121//94 120//2
f 124//17 123//1 119//3
f 118//2 124//17 119//3
f 6//80 5//79 143//95
f 5//79 142//96 141//97
f 143//95 5//79 144//98
f 145//99 144//98 141//97
f 141//97 144//98 5//79
f 140//6 139//100 151//4
f 139//100 152//101 151//4
f 141//97 140//6 150//5
f 145//99 147//4 146//102
f 148//103 147//4 141//97
f 141//97 147//4 145//99
f 150//5 149//104 141//97
f 149//104 148//103 141//97
f 3//31 4//26 178//105
f 4//26 181//106 180//107
f 179//108 4//26 180//107
f 4//26 179//108 178//105
f 153//109 3//31 177//110
f 3//31 178//105 177//110
f 154//108 153//109 177//110
f 177//110 176//111 154//108
f 176//111 175//112 171//113
f 171//113 175//112 172//114
f 157//115 156//106 165//106
f 156//106 155//116 165//106
f 155//116 154//108 171//113
f 155//116 171//113 170//7
f 175//112 174//106 172//114
f 174//106 173//117 172//114
f 159//9 158//110 164//118
f 158//110 157//115 164//118
f 161//119 160//111 163//120
f 160//111 159//9 164//118
f 163//120 162//121 161//119
f 164//118 163//120 160//111
f 176//111 171//113 154//108
f 170//7 169//122 168//8
f 167//9 166//123 170//7
f 166//123 165//106 170//7
f 165//106 164//118 157//115
f 155//116 170//7 165//106
f 2//12 1//16 270//124
f 270//124 183//10 2//12
f 264//124 263//125 229//124
f 263//125 262//126 229//124
f 229//124 262//126 230//124
f 261//127 260//126 231//124
f 260//126 259//10 232//128
f 262//126 261//127 230//124
f 265//126 264//124 229//124
f 261//127 231//124 230//124
f 185//129 184//130 186//131
f 184//130 183//10 186//131
f 256//132 255//133 253//134
f 255//133 254//135 253//134
f 253//134 252//136 256//132
f 251//126 250//137 249//127
f 252//136 251//126 256//132
f 251//126 249//127 245//138
f 249//127 248//124 246//139
f 245//138 249//127 246//139
f 248//124 247//140 246//139
f 256//132 251//126 245//138
f 257//141 256//132 244//142
f 256//132 245//138 244//142
f 258//143 257//141 244//142
f 259//10 258//143 232//128
f 258//143 244//142 233//127
f 243//144 242//127 239//145
f 242//127 241//146 240//147
f 258//143 233//127 232//128
f 244//142 243//144 237//148
f 233//127 244//142 235//149
f 260//126 232//128 231//124
f 242//127 240//147 239//145
f 239//145 238//132 243//144
f 238//132 237//148 243//144
f 266//126 265//126 228//124
f 237//148 236//150 235//149
f 235//149 234//151 233//127
f 235//149 244//142 237//148
f 267//143 266//126 227//124
f 268//143 267//143 226//124
f 265//126 229//124 228//124
f 269//127 268//143 221//149
f 266//126 228//124 227//124
f 186//131 183//10 270//124
f 189//152 188//153 187//154
f 186//131 270//124 191//155
f 270//124 269//127 220//156
f 191//155 270//124 220//156
f 267//143 227//124 226//124
f 189//152 187//154 190//124
f 187//154 186//131 190//124
f 268//143 226//124 221//149
f 226//124 225//127 221//149
f 225//127 224//157 222//158
f 221//149 225//127 222//158
f 224//157 223//159 222//158
f 191//155 190//124 186//131
f 269//127 221//149 220//156
f 192//152 191//155 198//160
f 219//161 191//155 220//156
f 195//162 194//124 196//124
f 194//124 193//163 196//124
f 193//163 192//152 197//164
f 191//155 219//161 198//160
f 197//164 196//124 193//163
f 192//152 198//160 197//164
f 219//161 218//165 198//160
f 200//166 199//167 218//165
f 199//167 198//160 218//165
f 218//165 217//168 200//166
f 200//166 217//168 216//124
f 201//169 200//166 216//124
f 201//169 216//124 215//124
f 202//159 201//169 215//124
f 214//170 213//127 203//171
f 213//127 212//154 203//171
f 202//159 215//124 214//170
f 205//14 204//126 210//15
f 204//126 203//171 210//15
f 203//171 202//159 214//170
f 212//154 211//172 210//15
f 210//15 209//149 206//13
f 209//149 208//173 207//174
f 212//154 210//15 203//171
f 207//174 206//13 209//149
