# Blender v2.81 (sub 16) OBJ File: ''
# www.blender.org
mtllib Lebanon.mtl
o 0_Lebanon_sphere.001
v 3.345614 2.810416 -2.430725
v 3.319510 2.810416 -2.465493
v 3.362677 2.778852 -2.443121
v 3.368616 2.767864 -2.447437
v 3.371427 2.762664 -2.449479
v 3.361084 2.810416 -2.408715
v 3.327729 2.842402 -2.417731
v 3.413732 2.745113 -2.409678
v 3.394552 2.745113 -2.436968
v 3.310765 2.840620 -2.442378
v 3.309514 2.841053 -2.443545
v 3.310920 2.838821 -2.444241
v 3.311418 2.838464 -2.443989
v 3.311597 2.838978 -2.443160
v 3.312073 2.839237 -2.442227
v 3.313028 2.838696 -2.441578
v 3.313585 2.837847 -2.441813
v 3.314137 2.836782 -2.442304
v 3.314957 2.835644 -2.442521
v 3.316292 2.834748 -2.441775
v 3.317931 2.833911 -2.440555
v 3.319241 2.832867 -2.440012
v 3.319459 2.831710 -2.441052
v 3.319520 2.831404 -2.441324
v 3.319402 2.831372 -2.441518
v 3.319330 2.831308 -2.441687
v 3.319176 2.831362 -2.441830
v 3.319022 2.831428 -2.441960
v 3.318027 2.831717 -2.442952
v 3.316695 2.831823 -2.444604
v 3.315582 2.831690 -2.446240
v 3.315150 2.831411 -2.447136
v 3.315556 2.830166 -2.448028
v 3.315676 2.829219 -2.448958
v 3.315459 2.828545 -2.450022
v 3.314936 2.828145 -2.451180
v 3.314911 2.827081 -2.452437
v 3.314755 2.826803 -2.452965
v 3.314382 2.826920 -2.453328
v 3.314074 2.826216 -2.454548
v 3.314167 2.825606 -2.455126
v 3.314651 2.824810 -2.455398
v 3.315474 2.823613 -2.455679
v 3.315866 2.823122 -2.455723
v 3.316212 2.822789 -2.455645
v 3.316528 2.822436 -2.455631
v 3.316927 2.821822 -2.455805
v 3.317118 2.821255 -2.456204
v 3.317212 2.820708 -2.456707
v 3.317271 2.818905 -2.458704
v 3.317213 2.818175 -2.459622
v 3.317006 2.817998 -2.460101
v 3.316687 2.818017 -2.460503
v 3.316445 2.817927 -2.460930
v 3.316529 2.817371 -2.461459
v 3.317153 2.816438 -2.461700
v 3.317964 2.815689 -2.461483
v 3.318828 2.814745 -2.461419
v 3.319363 2.813391 -2.462265
v 3.319656 2.812338 -2.463087
v 3.319403 2.810926 -2.465049
v 3.327484 2.841575 -2.419011
v 3.326772 2.841170 -2.420424
v 3.325838 2.841095 -2.421755
v 3.324566 2.841322 -2.423188
v 3.323560 2.841205 -2.424663
v 3.321798 2.841004 -2.427241
v 3.321562 2.841072 -2.427477
v 3.320796 2.841502 -2.428002
v 3.320474 2.841604 -2.428314
v 3.320347 2.841447 -2.428663
v 3.320120 2.840948 -2.429540
v 3.319945 2.840802 -2.429941
v 3.317248 2.840981 -2.433328
v 3.316674 2.841235 -2.433799
v 3.315943 2.841816 -2.434105
v 3.315405 2.842502 -2.434031
v 3.314626 2.843887 -2.433475
v 3.314175 2.844448 -2.433429
v 3.312801 2.845277 -2.434306
v 3.312481 2.844709 -2.435385
v 3.312869 2.842170 -2.437791
v 3.312615 2.841093 -2.439369
v 3.311848 2.840602 -2.440955
v 3.319551 2.810221 -2.465655
v 3.321806 2.808259 -2.464834
v 3.324042 2.805947 -2.464429
v 3.327243 2.803620 -2.462755
v 3.328869 2.802162 -2.462211
v 3.329670 2.801131 -2.462293
v 3.330216 2.800273 -2.462520
v 3.330797 2.799633 -2.462459
v 3.331781 2.799120 -2.461717
v 3.332402 2.799098 -2.460916
v 3.333060 2.799602 -2.459479
v 3.333533 2.799644 -2.458802
v 3.334786 2.799006 -2.457844
v 3.337614 2.796459 -2.456911
v 3.340449 2.794376 -2.455452
v 3.341773 2.793196 -2.455002
v 3.343087 2.791884 -2.454712
v 3.345414 2.789298 -2.454491
v 3.345479 2.789026 -2.454706
v 3.345571 2.788325 -2.455363
v 3.345531 2.787889 -2.455903
v 3.345004 2.786484 -2.458167
v 3.343523 2.786074 -2.460596
v 3.343113 2.785422 -2.461867
v 3.343840 2.783922 -2.462567
v 3.344881 2.782978 -2.462232
v 3.345815 2.782780 -2.461208
v 3.347143 2.783373 -2.458779
v 3.348558 2.784903 -2.455192
v 3.349191 2.785105 -2.454125
v 3.350051 2.784744 -2.453382
v 3.351010 2.784082 -2.452840
v 3.352057 2.783480 -2.452116
v 3.352962 2.783466 -2.450927
v 3.353116 2.783803 -2.450346
v 3.353164 2.784763 -2.449213
v 3.353315 2.785037 -2.448709
v 3.355604 2.783689 -2.447160
v 3.356584 2.783265 -2.446325
v 3.357579 2.782944 -2.445359
v 3.358472 2.782554 -2.444602
v 3.359333 2.781766 -2.444333
v 3.360740 2.780243 -2.444152
v 3.368259 2.767471 -2.448350
v 3.367945 2.766701 -2.449625
v 3.368000 2.765872 -2.450475
v 3.368877 2.764523 -2.450807
v 3.370135 2.763429 -2.450350
v 3.363074 2.778546 -2.442912
v 3.364323 2.777293 -2.442590
v 3.365037 2.776455 -2.442547
v 3.366346 2.775445 -2.441858
v 3.367032 2.774760 -2.441678
v 3.367425 2.774177 -2.441797
v 3.368010 2.772839 -2.442518
v 3.368497 2.772166 -2.442609
v 3.368852 2.771882 -2.442433
v 3.369553 2.771576 -2.441791
v 3.369859 2.771332 -2.441640
v 3.370859 2.769771 -2.442031
v 3.370557 2.769284 -2.443026
v 3.369776 2.769051 -2.444407
v 3.369236 2.768235 -2.446124
v 3.368763 2.768003 -2.447066
v 3.372552 2.762093 -2.448542
v 3.373512 2.762109 -2.447157
v 3.374783 2.761611 -2.445928
v 3.375792 2.760637 -2.445624
v 3.376030 2.759166 -2.446994
v 3.377939 2.756837 -2.446984
v 3.380089 2.755261 -2.445757
v 3.381234 2.754582 -2.444916
v 3.382799 2.753644 -2.443778
v 3.384264 2.752764 -2.442718
v 3.385504 2.751656 -2.442239
v 3.387676 2.749223 -2.441976
v 3.388972 2.748081 -2.441460
v 3.389711 2.747630 -2.440932
v 3.390489 2.747279 -2.440232
v 3.391240 2.746996 -2.439492
v 3.391818 2.746933 -2.438743
v 3.392745 2.746612 -2.437798
v 3.413079 2.745751 -2.409866
v 3.410536 2.748942 -2.409776
v 3.409920 2.749884 -2.409558
v 3.408831 2.751839 -2.408836
v 3.408116 2.752866 -2.408660
v 3.406475 2.754484 -2.409115
v 3.405715 2.755407 -2.409124
v 3.405383 2.756295 -2.408564
v 3.401874 2.758762 -2.410691
v 3.399871 2.760420 -2.411615
v 3.398237 2.762568 -2.411443
v 3.397644 2.763497 -2.411209
v 3.392600 2.769803 -2.411058
v 3.392593 2.770315 -2.410473
v 3.391488 2.771130 -2.411100
v 3.389382 2.774089 -2.410658
v 3.388304 2.774777 -2.411391
v 3.387876 2.775631 -2.411008
v 3.383018 2.781512 -2.411087
v 3.382089 2.782929 -2.410764
v 3.380381 2.785946 -2.409688
v 3.380081 2.786474 -2.409502
v 3.379774 2.787297 -2.408981
v 3.379619 2.788027 -2.408354
v 3.379462 2.788604 -2.407908
v 3.378913 2.789183 -2.408015
v 3.378347 2.789409 -2.408559
v 3.377862 2.789290 -2.409386
v 3.377534 2.788991 -2.410200
v 3.377475 2.788656 -2.410674
v 3.377177 2.788662 -2.411092
v 3.376599 2.789000 -2.411520
v 3.376028 2.788946 -2.412396
v 3.375664 2.788918 -2.412947
v 3.374912 2.789201 -2.413687
v 3.374372 2.789697 -2.413879
v 3.373191 2.791139 -2.413884
v 3.372647 2.791723 -2.413980
v 3.372468 2.792032 -2.413876
v 3.372462 2.792149 -2.413750
v 3.372706 2.792179 -2.413367
v 3.372013 2.792797 -2.413634
v 3.370587 2.794513 -2.413670
v 3.369888 2.795248 -2.413810
v 3.369524 2.795403 -2.414147
v 3.368835 2.795413 -2.415117
v 3.368495 2.795714 -2.415251
v 3.368150 2.796378 -2.414970
v 3.368162 2.796724 -2.414551
v 3.368287 2.796910 -2.414157
v 3.368245 2.797205 -2.413875
v 3.367334 2.798943 -2.413152
v 3.364907 2.802134 -2.412897
v 3.363487 2.804404 -2.412281
v 3.363152 2.805259 -2.411763
v 3.362870 2.806870 -2.410293
v 3.362464 2.807871 -2.409707
v 3.360700 2.810866 -2.408719
v 3.359760 2.811481 -2.409319
v 3.359427 2.811849 -2.409349
v 3.358122 2.814118 -2.408478
v 3.356667 2.816360 -2.407855
v 3.355095 2.818269 -2.407797
v 3.353440 2.819484 -2.408691
v 3.353216 2.818641 -2.410025
v 3.351676 2.820160 -2.410389
v 3.349775 2.822436 -2.410360
v 3.348366 2.823934 -2.410563
v 3.345045 2.825769 -2.413084
v 3.343532 2.827189 -2.413530
v 3.343304 2.828916 -2.411780
v 3.343086 2.829340 -2.411579
v 3.342462 2.829079 -2.412781
v 3.338465 2.830326 -2.416969
v 3.334547 2.833393 -2.418859
v 3.333480 2.834101 -2.419525
v 3.332718 2.834712 -2.419877
v 3.331916 2.835743 -2.419778
v 3.329993 2.839105 -2.418474
v 3.329268 2.840611 -2.417695
v 3.328787 2.841905 -2.416824
v 3.328773 2.842717 -2.415868
v 3.328238 2.842759 -2.416579
v 3.327973 2.842584 -2.417166
v 3.395612 2.744206 -2.436478
v 3.396991 2.743209 -2.435635
v 3.397780 2.742960 -2.434793
v 3.398466 2.742794 -2.434004
v 3.399121 2.742232 -2.433702
v 3.399716 2.740876 -2.434377
v 3.399901 2.740572 -2.434455
v 3.400011 2.740837 -2.434003
v 3.400230 2.741452 -2.433000
v 3.400088 2.743196 -2.431244
v 3.400096 2.743634 -2.430740
v 3.400632 2.743562 -2.430059
v 3.401267 2.742855 -2.429948
v 3.402040 2.741862 -2.429964
v 3.402960 2.740857 -2.429784
v 3.404119 2.739250 -2.429938
v 3.406131 2.735622 -2.431150
v 3.407343 2.733729 -2.431550
v 3.408362 2.732492 -2.431489
v 3.410213 2.730444 -2.431155
v 3.411011 2.729354 -2.431243
v 3.412365 2.729186 -2.429505
v 3.415100 2.727869 -2.427094
v 3.417921 2.726976 -2.424083
v 3.418428 2.727087 -2.423236
v 3.418417 2.727836 -2.422411
v 3.418266 2.728692 -2.421664
v 3.418281 2.729437 -2.420805
v 3.418462 2.729984 -2.419934
v 3.418611 2.730165 -2.419520
v 3.418761 2.730315 -2.419137
v 3.419274 2.730309 -2.418414
v 3.421222 2.729548 -2.416497
v 3.421491 2.729605 -2.416050
v 3.421984 2.729792 -2.415139
v 3.422217 2.729838 -2.414756
v 3.422547 2.729716 -2.414424
v 3.423306 2.729163 -2.413964
v 3.423547 2.729039 -2.413762
v 3.426737 2.729399 -2.408817
v 3.426647 2.729553 -2.408773
v 3.426463 2.729826 -2.408726
v 3.426651 2.729831 -2.408455
v 3.426685 2.729894 -2.408336
v 3.426568 2.730081 -2.408293
v 3.426496 2.730286 -2.408164
v 3.425781 2.731155 -2.408206
v 3.425001 2.731930 -2.408445
v 3.424201 2.732584 -2.408850
v 3.422966 2.733152 -2.409969
v 3.422286 2.733904 -2.410092
v 3.421567 2.734739 -2.410178
v 3.420966 2.735357 -2.410338
v 3.420967 2.735846 -2.409789
v 3.420671 2.735915 -2.410132
v 3.420602 2.735811 -2.410346
v 3.420690 2.735356 -2.410733
v 3.417287 2.739381 -2.411055
v 3.415953 2.741555 -2.410512
v 3.415854 2.743405 -2.408575
v 3.414406 2.744427 -2.409488
vn 0.6730 0.5685 -0.4731
vn 0.6731 0.5685 -0.4730
vn 0.6732 0.5683 -0.4730
vn 0.6578 0.5685 -0.4940
vn 0.6579 0.5685 -0.4939
vn 0.6649 0.5556 -0.4992
vn 0.6745 0.5557 -0.4859
vn 0.6649 0.5556 -0.4993
vn 0.6650 0.5555 -0.4991
vn 0.6651 0.5554 -0.4991
vn 0.6649 0.5554 -0.4994
vn 0.6691 0.5620 -0.4862
vn 0.6803 0.5555 -0.4781
vn 0.6802 0.5556 -0.4781
vn 0.6875 0.5423 -0.4829
vn 0.6876 0.5421 -0.4830
vn 0.6873 0.5423 -0.4831
vn 0.6684 0.5687 -0.4795
vn 0.6731 0.5683 -0.4732
vn 0.6730 0.5686 -0.4730
vn 0.6728 0.5686 -0.4733
vn 0.6729 0.5687 -0.4730
vn 0.6730 0.5684 -0.4732
vn 0.6728 0.5688 -0.4729
vn 0.6723 0.5689 -0.4736
vn 0.6771 0.5612 -0.4760
vn 0.6731 0.5684 -0.4731
vn 0.6730 0.5686 -0.4731
vn 0.6731 0.5686 -0.4728
vn 0.6733 0.5684 -0.4728
vn 0.6731 0.5686 -0.4729
vn 0.6732 0.5688 -0.4725
vn 0.6730 0.5682 -0.4735
vn 0.6729 0.5685 -0.4733
vn 0.6731 0.5684 -0.4730
vn 0.6623 0.5607 -0.4970
vn 0.6584 0.5683 -0.4934
vn 0.6579 0.5684 -0.4940
vn 0.6579 0.5683 -0.4940
vn 0.6578 0.5685 -0.4939
vn 0.6579 0.5684 -0.4939
vn 0.6579 0.5679 -0.4946
vn 0.6576 0.5688 -0.4939
vn 0.6579 0.5685 -0.4940
vn 0.6579 0.5686 -0.4939
vn 0.6574 0.5692 -0.4939
vn 0.6579 0.5686 -0.4938
vn 0.6577 0.5686 -0.4941
vn 0.6579 0.5684 -0.4941
vn 0.6580 0.5685 -0.4938
vn 0.6580 0.5683 -0.4939
vn 0.6576 0.5686 -0.4942
vn 0.6573 0.5692 -0.4939
vn 0.6561 0.5704 -0.4941
vn 0.6578 0.5686 -0.4939
vn 0.6572 0.5697 -0.4935
vn 0.6578 0.5688 -0.4937
vn 0.6577 0.5690 -0.4936
vn 0.6579 0.5685 -0.4938
vn 0.6577 0.5685 -0.4941
vn 0.6578 0.5684 -0.4940
vn 0.6577 0.5686 -0.4940
vn 0.6576 0.5687 -0.4941
vn 0.6580 0.5684 -0.4938
vn 0.6575 0.5687 -0.4943
vn 0.6573 0.5687 -0.4944
vn 0.6628 0.5683 -0.4876
vn 0.6583 0.5683 -0.4936
vn 0.6578 0.5684 -0.4942
vn 0.6572 0.5694 -0.4937
vn 0.6576 0.5687 -0.4939
vn 0.6582 0.5682 -0.4938
vn 0.6575 0.5686 -0.4943
vn 0.6580 0.5680 -0.4943
vn 0.6579 0.5687 -0.4937
vn 0.6567 0.5694 -0.4944
vn 0.6577 0.5689 -0.4937
vn 0.6579 0.5683 -0.4941
vn 0.6581 0.5665 -0.4960
vn 0.6602 0.5651 -0.4948
vn 0.6486 0.5874 -0.4841
vn 0.6577 0.5683 -0.4944
vn 0.6753 0.5555 -0.4852
vn 0.6647 0.5556 -0.4994
vn 0.6649 0.5555 -0.4993
vn 0.6760 0.5557 -0.4839
vn 0.6650 0.5555 -0.4992
vn 0.6648 0.5559 -0.4990
vn 0.6645 0.5568 -0.4984
vn 0.6649 0.5555 -0.4992
vn 0.6648 0.5555 -0.4995
vn 0.6650 0.5556 -0.4991
vn 0.6648 0.5556 -0.4993
vn 0.6650 0.5549 -0.4998
vn 0.6647 0.5557 -0.4993
vn 0.6651 0.5551 -0.4995
vn 0.6650 0.5554 -0.4993
vn 0.6647 0.5555 -0.4996
vn 0.6641 0.5554 -0.5004
vn 0.6650 0.5556 -0.4989
vn 0.6651 0.5549 -0.4997
vn 0.6649 0.5557 -0.4991
vn 0.6642 0.5569 -0.4986
vn 0.6651 0.5554 -0.4990
vn 0.6649 0.5556 -0.4991
vn 0.6648 0.5555 -0.4993
vn 0.6649 0.5554 -0.4993
vn 0.6851 0.5466 -0.4814
vn 0.6821 0.5522 -0.4793
vn 0.6802 0.5558 -0.4779
vn 0.6803 0.5553 -0.4783
vn 0.6803 0.5561 -0.4775
vn 0.6804 0.5555 -0.4779
vn 0.6802 0.5554 -0.4783
vn 0.6806 0.5557 -0.4775
vn 0.6803 0.5551 -0.4786
vn 0.6803 0.5554 -0.4781
vn 0.6803 0.5555 -0.4780
vn 0.6805 0.5553 -0.4781
vn 0.6804 0.5555 -0.4780
vn 0.6808 0.5550 -0.4779
vn 0.6804 0.5557 -0.4777
vn 0.6803 0.5556 -0.4781
vn 0.6804 0.5553 -0.4781
vn 0.6803 0.5557 -0.4779
vn 0.6805 0.5554 -0.4779
vn 0.6808 0.5550 -0.4780
vn 0.6802 0.5555 -0.4782
vn 0.6805 0.5555 -0.4777
vn 0.6801 0.5556 -0.4783
vn 0.6804 0.5552 -0.4783
vn 0.6797 0.5555 -0.4789
vn 0.6799 0.5553 -0.4789
vn 0.6802 0.5555 -0.4783
vn 0.6803 0.5553 -0.4782
vn 0.6806 0.5551 -0.4781
vn 0.6802 0.5557 -0.4779
vn 0.6803 0.5557 -0.4778
vn 0.6801 0.5557 -0.4781
vn 0.6808 0.5548 -0.4781
vn 0.6803 0.5552 -0.4783
vn 0.6804 0.5553 -0.4782
vn 0.6805 0.5556 -0.4777
vn 0.6805 0.5565 -0.4766
vn 0.6800 0.5554 -0.4786
vn 0.6800 0.5551 -0.4790
vn 0.6817 0.5536 -0.4783
vn 0.6811 0.5551 -0.4773
vn 0.6808 0.5558 -0.4770
vn 0.6800 0.5554 -0.4787
vn 0.6803 0.5558 -0.4778
vn 0.6795 0.5556 -0.4792
vn 0.6801 0.5557 -0.4782
vn 0.6804 0.5556 -0.4778
vn 0.6803 0.5556 -0.4779
vn 0.6797 0.5553 -0.4791
vn 0.6805 0.5557 -0.4775
vn 0.6800 0.5574 -0.4763
vn 0.6874 0.5423 -0.4830
vn 0.6875 0.5421 -0.4832
vn 0.6873 0.5424 -0.4830
vn 0.6875 0.5424 -0.4829
vn 0.6874 0.5424 -0.4830
vn 0.6872 0.5422 -0.4834
vn 0.6873 0.5426 -0.4828
vn 0.6874 0.5422 -0.4832
vn 0.6877 0.5423 -0.4827
vn 0.6866 0.5437 -0.4827
vn 0.6882 0.5411 -0.4834
vn 0.6877 0.5416 -0.4833
vn 0.6875 0.5420 -0.4833
vn 0.6871 0.5426 -0.4831
vn 0.6873 0.5423 -0.4832
vn 0.6877 0.5421 -0.4829
vn 0.6873 0.5424 -0.4831
vn 0.6873 0.5425 -0.4830
vn 0.6868 0.5426 -0.4836
vn 0.6872 0.5429 -0.4827
vn 0.6868 0.5425 -0.4837
vn 0.6872 0.5423 -0.4834
vn 0.6866 0.5416 -0.4849
vn 0.6872 0.5425 -0.4832
vn 0.6886 0.5432 -0.4804
vn 0.6875 0.5422 -0.4830
vn 0.6871 0.5424 -0.4834
vn 0.6872 0.5426 -0.4830
vn 0.6874 0.5423 -0.4831
vn 0.6871 0.5423 -0.4835
vn 0.6873 0.5422 -0.4834
vn 0.6875 0.5422 -0.4831
vn 0.6871 0.5424 -0.4833
vn 0.6868 0.5423 -0.4838
vn 0.6872 0.5420 -0.4837
vn 0.6887 0.5424 -0.4810
vn 0.6869 0.5425 -0.4834
vn 0.6872 0.5423 -0.4833
vn 0.7019 0.5323 -0.4732
vn 0.6878 0.5422 -0.4826
vn 0.6874 0.5426 -0.4827
vn 0.6874 0.5421 -0.4833
vn 0.6875 0.5424 -0.4828
vn 0.6875 0.5431 -0.4820
vn 0.6876 0.5422 -0.4829
vn 0.6872 0.5425 -0.4831
vn 0.6879 0.5417 -0.4829
vn 0.6870 0.5430 -0.4829
vn 0.6876 0.5426 -0.4825
usemtl None
s 1
f 239//1 237//2 236//3
f 21//4 20//5 17//5
f 128//6 4//7 132//8
f 104//9 103//10 114//11
f 1//12 219//13 214//14
f 280//15 279//16 266//17
f 1//12 7//18 244//1
f 7//18 250//19 247//20
f 245//21 7//18 246//22
f 250//19 249//23 247//20
f 249//23 248//24 247//20
f 224//25 6//26 225//27
f 6//26 1//12 225//27
f 247//20 246//22 7//18
f 226//3 225//27 1//12
f 228//28 227//29 231//2
f 227//29 226//3 231//2
f 230//30 229//31 231//2
f 229//31 228//28 231//2
f 226//3 1//12 231//2
f 7//18 245//21 244//1
f 234//32 233//33 235//2
f 233//33 232//1 235//2
f 232//1 231//2 1//12
f 1//12 244//1 243//34
f 242//31 241//35 1//12
f 241//35 240//2 1//12
f 1//12 243//34 242//31
f 232//1 1//12 235//2
f 239//1 238//31 237//2
f 1//12 240//2 235//2
f 240//2 239//1 236//3
f 236//3 235//2 240//2
f 1//12 2//36 60//5
f 2//36 61//37 60//5
f 62//5 7//18 1//12
f 63//38 62//5 1//12
f 1//12 60//5 59//39
f 1//12 59//39 58//40
f 64//38 63//38 1//12
f 66//41 65//42 64//38
f 67//43 66//41 22//44
f 66//41 64//38 22//44
f 22//44 64//38 1//12
f 1//12 58//40 49//45
f 24//46 1//12 48//47
f 57//48 56//49 52//50
f 56//49 55//51 52//50
f 1//12 24//46 23//49
f 58//40 57//48 51//5
f 49//45 58//40 50//47
f 22//44 1//12 23//49
f 55//51 54//52 53//53
f 52//50 55//51 53//53
f 68//54 67//43 73//55
f 70//56 69//55 71//44
f 69//55 68//54 71//44
f 72//57 71//44 68//54
f 57//48 52//50 51//5
f 51//5 50//47 58//40
f 73//55 72//57 68//54
f 79//58 78//59 81//5
f 78//59 77//60 81//5
f 81//5 80//61 79//58
f 82//5 81//5 77//60
f 83//5 82//5 76//62
f 82//5 77//60 76//62
f 84//41 83//5 16//39
f 83//5 76//62 75//47
f 83//5 75//47 17//5
f 16//39 83//5 17//5
f 12//52 11//63 10//4
f 75//47 74//59 21//4
f 12//52 10//4 14//4
f 10//4 84//41 15//64
f 14//4 13//65 12//52
f 15//64 14//4 10//4
f 74//59 73//55 22//44
f 45//66 44//67 43//68
f 43//68 42//64 38//69
f 42//64 41//70 40//71
f 38//69 42//64 40//71
f 40//71 39//72 38//69
f 45//66 43//68 38//69
f 46//73 45//66 38//69
f 38//69 37//62 46//73
f 37//62 36//74 35//51
f 47//75 46//73 35//51
f 46//73 37//62 35//51
f 48//47 47//75 26//76
f 47//75 35//51 34//45
f 47//75 34//45 26//76
f 34//45 33//77 29//55
f 33//77 32//43 31//78
f 31//78 30//49 33//77
f 30//49 29//55 33//77
f 29//55 28//79 27//80
f 26//76 25//81 24//46
f 29//55 27//80 34//45
f 27//80 26//76 34//45
f 49//45 48//47 1//12
f 48//47 26//76 24//46
f 16//39 15//64 84//41
f 17//5 75//47 21//4
f 19//82 18//55 20//5
f 18//55 17//5 20//5
f 21//4 74//59 22//44
f 22//44 73//55 67//43
f 4//7 5//83 132//8
f 132//8 131//84 129//10
f 131//84 130//85 129//10
f 129//10 128//6 132//8
f 1//12 3//86 126//87
f 3//86 127//88 126//87
f 85//89 2//36 86//90
f 2//36 1//12 86//90
f 88//85 87//91 86//90
f 1//12 126//87 125//92
f 124//93 123//94 122//95
f 1//12 125//92 124//93
f 88//85 86//90 1//12
f 89//96 88//85 96//85
f 88//85 1//12 96//85
f 1//12 124//93 121//97
f 124//93 122//95 121//97
f 90//92 89//96 95//98
f 95//98 89//96 96//85
f 92//99 91//6 93//87
f 91//6 90//92 94//100
f 94//100 93//87 91//6
f 95//98 94//100 90//92
f 1//12 121//97 101//6
f 121//97 120//101 115//87
f 102//85 115//87 114//11
f 120//101 119//102 116//9
f 119//102 118//103 117//104
f 116//9 119//102 117//104
f 116//9 115//87 120//101
f 115//87 102//85 121//97
f 102//85 114//11 103//10
f 97//85 96//85 1//12
f 99//90 98//90 1//12
f 98//90 97//85 1//12
f 114//11 113//85 104//9
f 113//85 112//90 106//90
f 112//90 111//6 106//90
f 111//6 110//105 109//106
f 109//106 108//107 107//85
f 109//106 107//85 111//6
f 107//85 106//90 111//6
f 100//6 99//90 1//12
f 101//6 100//6 1//12
f 113//85 106//90 105//6
f 102//85 101//6 121//97
f 113//85 105//6 104//9
f 8//108 9//109 167//110
f 9//109 166//13 176//13
f 167//110 9//109 168//14
f 165//111 164//112 163//113
f 166//13 165//111 159//13
f 168//14 9//109 169//14
f 165//111 163//113 160//114
f 163//113 162//115 160//114
f 162//115 161//116 160//114
f 160//114 159//13 165//111
f 169//14 9//109 172//117
f 175//13 9//109 176//13
f 9//109 175//13 172//117
f 171//118 170//114 172//117
f 170//114 169//14 172//117
f 166//13 177//119 176//13
f 177//119 166//13 159//13
f 159//13 158//13 179//120
f 175//13 174//13 173//121
f 173//121 172//117 175//13
f 158//13 157//122 152//13
f 156//13 155//13 152//13
f 155//13 154//123 152//13
f 177//119 159//13 178//124
f 157//122 156//13 152//13
f 158//13 152//13 144//13
f 154//123 153//125 152//13
f 178//124 159//13 179//120
f 152//13 151//126 144//13
f 179//120 158//13 181//118
f 150//118 149//127 5//83
f 181//118 158//13 144//13
f 151//126 150//118 145//128
f 181//118 180//129 179//120
f 150//118 5//83 147//14
f 5//83 4//7 148//130
f 147//14 5//83 148//130
f 147//14 146//130 150//118
f 146//130 145//128 150//118
f 144//13 151//126 145//128
f 183//128 182//131 181//118
f 185//13 184//132 183//128
f 188//133 187//134 197//113
f 187//134 186//135 200//13
f 188//133 197//113 196//122
f 191//136 190//111 192//137
f 190//111 189//118 194//117
f 193//138 190//111 194//117
f 193//138 192//137 190//111
f 195//139 194//117 189//118
f 196//122 195//139 189//118
f 189//118 188//133 196//122
f 197//113 187//134 200//13
f 199//140 198//141 197//113
f 186//135 185//13 201//142
f 200//13 186//135 201//142
f 200//13 199//140 197//113
f 183//128 181//118 144//13
f 185//13 183//128 143//13
f 201//142 185//13 143//13
f 202//142 201//142 137//118
f 204//143 203//144 202//142
f 183//128 144//13 143//13
f 201//142 143//13 137//118
f 142//145 141//146 139//120
f 141//146 140//147 139//120
f 143//13 142//145 138//148
f 137//118 143//13 138//148
f 204//143 202//142 134//13
f 142//145 139//120 138//148
f 205//149 204//143 212//13
f 202//142 137//118 136//118
f 208//150 207//151 206//152
f 206//152 205//149 208//150
f 202//142 136//118 134//13
f 136//118 135//138 134//13
f 134//13 133//153 204//143
f 204//143 133//153 212//13
f 209//154 208//150 212//13
f 212//13 208//150 205//149
f 211//124 210//155 209//154
f 212//13 211//124 209//154
f 133//153 3//86 213//14
f 3//86 1//12 213//14
f 213//14 1//12 214//14
f 1//12 6//26 221//117
f 6//26 223//143 221//117
f 223//143 222//156 221//117
f 213//14 212//13 133//153
f 1//12 221//117 220//117
f 1//12 220//117 219//13
f 215//157 214//14 218//13
f 217//139 216//158 215//157
f 219//13 218//13 214//14
f 218//13 217//139 215//157
f 9//109 8//108 262//159
f 8//108 311//160 309//161
f 262//159 8//108 263//162
f 311//160 310//163 309//161
f 8//108 309//161 266//17
f 252//164 251//165 253//166
f 251//165 9//109 261//167
f 253//166 261//167 254//168
f 257//169 256//170 258//171
f 256//170 255//172 258//171
f 253//166 251//165 261//167
f 259//173 258//171 255//172
f 260//174 259//173 255//172
f 260//174 255//172 254//168
f 261//167 260//174 254//168
f 309//161 308//175 266//17
f 307//176 306//177 303//178
f 306//177 305//179 303//178
f 262//159 261//167 9//109
f 305//179 304//180 303//178
f 303//178 302//181 307//176
f 302//181 301//182 307//176
f 263//162 8//108 265//161
f 265//161 264//183 263//162
f 265//161 8//108 266//17
f 308//175 307//176 282//184
f 266//17 308//175 280//15
f 307//176 301//182 286//185
f 301//182 300//17 287//186
f 286//185 301//182 287//186
f 300//17 299//187 289//188
f 299//187 298//159 289//188
f 300//17 289//188 288//189
f 298//159 297//190 292//191
f 297//190 296//192 292//191
f 295//193 294//194 293//195
f 296//192 295//193 292//191
f 307//176 285//196 282//184
f 295//193 293//195 292//191
f 292//191 291//197 290//198
f 290//198 289//188 292//191
f 292//191 289//188 298//159
f 288//189 287//186 300//17
f 285//196 307//176 286//185
f 268//199 267//161 269//176
f 267//161 266//17 279//16
f 269//176 267//161 272//175
f 272//175 267//161 279//16
f 272//175 271//200 270//201
f 270//201 269//176 272//175
f 285//196 284//188 282//184
f 284//188 283//202 282//184
f 272//175 279//16 278//203
f 274//175 273//204 277//175
f 273//204 272//175 278//203
f 277//175 273//204 278//203
f 276//205 275//206 274//175
f 277//175 276//205 274//175
f 308//175 282//184 281//207
f 308//175 281//207 280//15
