# Blender v2.81 (sub 16) OBJ File: ''
# www.blender.org
mtllib Lesotho.mtl
o 0_Lesotho_sphere.001
v 3.839568 -2.408771 -2.110814
v 3.805939 -2.477296 -2.092326
v 3.793144 -2.477296 -2.114759
v 3.808136 -2.545210 -2.003885
v 3.804469 -2.545210 -2.010810
v 3.796785 -2.545210 -2.025324
v 3.836240 -2.408771 -2.116649
v 3.865806 -2.408771 -2.061261
v 3.841210 -2.405299 -2.111717
v 3.867873 -2.477296 -1.975354
v 3.791052 -2.506544 -2.084142
v 3.791148 -2.506648 -2.083830
v 3.793023 -2.507553 -2.079167
v 3.795063 -2.509773 -2.072557
v 3.796281 -2.509742 -2.070297
v 3.798597 -2.508518 -2.067441
v 3.799291 -2.508350 -2.066339
v 3.799719 -2.508621 -2.065195
v 3.800393 -2.510312 -2.061823
v 3.800998 -2.510857 -2.060004
v 3.802926 -2.510403 -2.056925
v 3.803669 -2.510634 -2.055235
v 3.803781 -2.511772 -2.053612
v 3.803550 -2.512819 -2.052750
v 3.803049 -2.514927 -2.051079
v 3.803063 -2.515969 -2.049758
v 3.803180 -2.516408 -2.048992
v 3.803014 -2.517589 -2.047841
v 3.803040 -2.518030 -2.047244
v 3.803222 -2.518319 -2.046541
v 3.804130 -2.518589 -2.044492
v 3.804546 -2.519055 -2.043128
v 3.804835 -2.519913 -2.041517
v 3.804804 -2.521042 -2.040174
v 3.804154 -2.522440 -2.039665
v 3.803245 -2.523477 -2.040095
v 3.802517 -2.523908 -2.040937
v 3.801747 -2.524590 -2.041543
v 3.800786 -2.526305 -2.041231
v 3.800163 -2.527959 -2.040353
v 3.800150 -2.528943 -2.039157
v 3.800892 -2.533320 -2.032324
v 3.800701 -2.534215 -2.031572
v 3.800329 -2.534807 -2.031541
v 3.799231 -2.536149 -2.031950
v 3.798754 -2.536870 -2.031955
v 3.798475 -2.537493 -2.031710
v 3.797270 -2.541007 -2.029624
v 3.797153 -2.541464 -2.029277
v 3.797091 -2.542150 -2.028543
v 3.797144 -2.542588 -2.027899
v 3.797294 -2.542891 -2.027240
v 3.797372 -2.543294 -2.026592
v 3.797240 -2.543990 -2.025977
v 3.808590 -2.545002 -2.003285
v 3.810300 -2.543751 -2.001607
v 3.814267 -2.539743 -1.999090
v 3.817970 -2.536712 -1.995860
v 3.818522 -2.536078 -1.995604
v 3.818917 -2.535405 -1.995694
v 3.819302 -2.534711 -1.995826
v 3.819765 -2.534043 -1.995782
v 3.821733 -2.531841 -1.994798
v 3.823525 -2.530161 -1.993498
v 3.824010 -2.529426 -1.993495
v 3.824594 -2.528573 -1.993451
v 3.826426 -2.527492 -1.991332
v 3.827410 -2.526642 -1.990528
v 3.828384 -2.525481 -1.990129
v 3.829599 -2.523635 -1.990126
v 3.830120 -2.523148 -1.989746
v 3.830669 -2.523148 -1.988709
v 3.831147 -2.523705 -1.987116
v 3.831339 -2.523803 -1.986632
v 3.831749 -2.523701 -1.985984
v 3.832634 -2.523338 -1.984763
v 3.833088 -2.523240 -1.984027
v 3.833651 -2.522058 -1.984431
v 3.836520 -2.518020 -1.984022
v 3.837688 -2.515859 -1.984500
v 3.838766 -2.512283 -1.986901
v 3.838759 -2.511277 -1.988165
v 3.839110 -2.510538 -1.988417
v 3.839699 -2.510036 -1.987931
v 3.840386 -2.509742 -1.986996
v 3.841173 -2.509753 -1.985497
v 3.841500 -2.509960 -1.984622
v 3.841958 -2.509717 -1.984058
v 3.843040 -2.508459 -1.983576
v 3.843807 -2.507425 -1.983411
v 3.846154 -2.503830 -1.983441
v 3.847422 -2.502325 -1.982914
v 3.850482 -2.499691 -1.980403
v 3.851927 -2.498217 -1.979505
v 3.855131 -2.493903 -1.978806
v 3.864686 -2.481041 -1.976722
v 3.865582 -2.479908 -1.976437
v 3.828180 -2.416902 -2.121592
v 3.827061 -2.417348 -2.123048
v 3.825925 -2.418010 -2.124292
v 3.825203 -2.418775 -2.124693
v 3.824449 -2.420277 -2.124318
v 3.823764 -2.421250 -2.124419
v 3.822974 -2.421841 -2.125135
v 3.821928 -2.422228 -2.126533
v 3.820115 -2.423274 -2.128528
v 3.814174 -2.429061 -2.132404
v 3.812605 -2.429720 -2.134410
v 3.811048 -2.429802 -2.137047
v 3.809497 -2.430640 -2.138819
v 3.807156 -2.435025 -2.137967
v 3.806299 -2.435923 -2.138454
v 3.805332 -2.436703 -2.139268
v 3.804298 -2.437739 -2.139910
v 3.803383 -2.439037 -2.140047
v 3.801659 -2.441717 -2.140042
v 3.799380 -2.444237 -2.141189
v 3.798201 -2.445872 -2.141407
v 3.797929 -2.446347 -2.141348
v 3.797414 -2.447494 -2.140954
v 3.797106 -2.448041 -2.140876
v 3.796684 -2.448532 -2.141061
v 3.795779 -2.449390 -2.141677
v 3.795443 -2.449831 -2.141768
v 3.795029 -2.450954 -2.141226
v 3.794878 -2.452714 -2.139502
v 3.794366 -2.453909 -2.139048
v 3.793797 -2.455015 -2.138795
v 3.793563 -2.455860 -2.138251
v 3.793523 -2.456560 -2.137529
v 3.793694 -2.457107 -2.136611
v 3.794311 -2.457877 -2.134660
v 3.795125 -2.458506 -2.132522
v 3.795776 -2.459341 -2.130437
v 3.795872 -2.460767 -2.128656
v 3.795363 -2.462376 -2.127731
v 3.794580 -2.464016 -2.127249
v 3.794405 -2.464340 -2.127190
v 3.793266 -2.466151 -2.127140
v 3.792153 -2.467331 -2.127758
v 3.792398 -2.468084 -2.126477
v 3.791888 -2.469264 -2.126039
v 3.791262 -2.470525 -2.125711
v 3.791221 -2.471469 -2.124715
v 3.793344 -2.473065 -2.119189
v 3.793662 -2.474633 -2.116861
v 3.793346 -2.476528 -2.115272
v 3.832622 -2.413215 -2.117971
v 3.828696 -2.416966 -2.120614
v 3.868126 -2.476995 -1.975236
v 3.868975 -2.476229 -1.974547
v 3.869678 -2.475757 -1.973786
v 3.870573 -2.474980 -1.973026
v 3.870974 -2.474739 -1.972555
v 3.871484 -2.472842 -1.973863
v 3.872069 -2.471624 -1.974217
v 3.872177 -2.470898 -1.974881
v 3.871792 -2.470889 -1.975619
v 3.871034 -2.471778 -1.975987
v 3.871072 -2.471203 -1.976604
v 3.871421 -2.469971 -1.977417
v 3.871396 -2.469639 -1.977863
v 3.871030 -2.469655 -1.978534
v 3.870758 -2.470007 -1.978627
v 3.870424 -2.470482 -1.978690
v 3.870000 -2.470728 -1.979196
v 3.869969 -2.470498 -1.979529
v 3.869961 -2.468205 -1.982288
v 3.869894 -2.467957 -1.982713
v 3.869262 -2.467215 -1.984793
v 3.868326 -2.466993 -1.986827
v 3.868074 -2.466758 -1.987585
v 3.867771 -2.466088 -1.988959
v 3.866984 -2.465681 -1.990932
v 3.866513 -2.465092 -1.992527
v 3.866032 -2.463769 -1.995017
v 3.866026 -2.463449 -1.995412
v 3.866029 -2.463293 -1.995594
v 3.866104 -2.462632 -1.996243
v 3.866332 -2.461832 -1.996770
v 3.866699 -2.460959 -1.997121
v 3.866657 -2.460661 -1.997556
v 3.865789 -2.460734 -1.999108
v 3.865754 -2.460410 -1.999562
v 3.866278 -2.459056 -2.000193
v 3.866488 -2.457848 -2.001242
v 3.866529 -2.454797 -2.004816
v 3.866464 -2.454465 -2.005336
v 3.866556 -2.454003 -2.005716
v 3.866979 -2.453043 -2.006065
v 3.867363 -2.452455 -2.006043
v 3.867809 -2.451974 -2.005777
v 3.868189 -2.451521 -2.005601
v 3.868368 -2.450999 -2.005888
v 3.868277 -2.450528 -2.006623
v 3.868066 -2.450300 -2.007294
v 3.867886 -2.449982 -2.008014
v 3.867985 -2.449085 -2.008902
v 3.868243 -2.448403 -2.009229
v 3.869041 -2.446632 -2.009842
v 3.869246 -2.446020 -2.010187
v 3.869021 -2.445296 -2.011478
v 3.867997 -2.444420 -2.014462
v 3.867811 -2.444219 -2.015054
v 3.867715 -2.443668 -2.015893
v 3.868204 -2.442783 -2.016030
v 3.869313 -2.441015 -2.016050
v 3.869663 -2.440278 -2.016272
v 3.869740 -2.439627 -2.016905
v 3.869617 -2.439184 -2.017667
v 3.869370 -2.438938 -2.018429
v 3.869245 -2.438665 -2.018991
v 3.869523 -2.433979 -2.024074
v 3.870152 -2.431118 -2.026310
v 3.870386 -2.430714 -2.026351
v 3.871216 -2.429299 -2.026476
v 3.871226 -2.428797 -2.027059
v 3.870743 -2.429289 -2.027383
v 3.870619 -2.429166 -2.027764
v 3.870443 -2.428866 -2.028455
v 3.870260 -2.428773 -2.028912
v 3.870955 -2.428010 -2.028512
v 3.871806 -2.427166 -2.027915
v 3.872324 -2.426477 -2.027762
v 3.871895 -2.426172 -2.028936
v 3.871646 -2.425802 -2.029849
v 3.871649 -2.424918 -2.030902
v 3.871887 -2.423038 -2.032701
v 3.871798 -2.422948 -2.032977
v 3.871578 -2.423056 -2.033264
v 3.871403 -2.423087 -2.033557
v 3.871521 -2.422763 -2.033722
v 3.871797 -2.422200 -2.033875
v 3.871883 -2.421952 -2.034010
v 3.871903 -2.421732 -2.034234
v 3.872032 -2.421309 -2.034496
v 3.872301 -2.420696 -2.034723
v 3.872816 -2.419655 -2.034995
v 3.872820 -2.419048 -2.035715
v 3.872450 -2.418664 -2.036873
v 3.872354 -2.418080 -2.037754
v 3.873248 -2.416805 -2.037592
v 3.868928 -2.417317 -2.045136
v 3.868376 -2.416507 -2.047150
v 3.868613 -2.415358 -2.048077
v 3.868974 -2.414165 -2.048822
v 3.869184 -2.413159 -2.049629
v 3.868944 -2.412593 -2.050760
v 3.868187 -2.412765 -2.051983
v 3.867403 -2.413488 -2.052599
v 3.866678 -2.414285 -2.053014
v 3.866069 -2.414684 -2.053687
v 3.865097 -2.414687 -2.055521
v 3.864883 -2.414488 -2.056161
v 3.865060 -2.414046 -2.056357
v 3.865361 -2.413459 -2.056491
v 3.865514 -2.412848 -2.056934
v 3.865817 -2.409489 -2.060380
v 3.792753 -2.478672 -2.113831
v 3.792313 -2.480924 -2.111963
v 3.792217 -2.481135 -2.111884
v 3.791408 -2.482819 -2.111327
v 3.790612 -2.484818 -2.110380
v 3.789708 -2.486635 -2.109835
v 3.788467 -2.487980 -2.110435
v 3.787680 -2.488607 -2.111079
v 3.787287 -2.489168 -2.111109
v 3.786986 -2.489826 -2.110867
v 3.786361 -2.490886 -2.110721
v 3.785218 -2.492341 -2.111019
v 3.784749 -2.493083 -2.110970
v 3.784654 -2.493737 -2.110371
v 3.784908 -2.494109 -2.109490
v 3.785632 -2.494627 -2.107612
v 3.785896 -2.494991 -2.106722
v 3.787202 -2.498220 -2.100649
v 3.787846 -2.499844 -2.097616
v 3.789633 -2.504907 -2.088549
v 3.796676 -2.545496 -2.025162
v 3.795992 -2.546719 -2.024879
v 3.795268 -2.547910 -2.024715
v 3.794514 -2.549371 -2.024259
v 3.795717 -2.548678 -2.022878
v 3.800213 -2.548028 -2.015223
v 3.801178 -2.547599 -2.013952
v 3.802233 -2.546934 -2.012816
v 3.802819 -2.546450 -2.012331
v 3.803377 -2.545936 -2.011938
v 3.803897 -2.545514 -2.011498
v 3.804698 -2.545346 -2.010204
v 3.805051 -2.545948 -2.008762
v 3.805347 -2.546050 -2.008071
v 3.806997 -2.545715 -2.005387
v 3.865750 -2.406293 -2.064222
v 3.865859 -2.405857 -2.064520
v 3.866166 -2.403118 -2.067097
v 3.866220 -2.402000 -2.068284
v 3.866325 -2.401043 -2.069190
v 3.865882 -2.401282 -2.069750
v 3.864111 -2.400930 -2.073502
v 3.863703 -2.400850 -2.074364
v 3.862699 -2.401447 -2.075572
v 3.861785 -2.401632 -2.077085
v 3.861052 -2.401418 -2.078717
v 3.860584 -2.400892 -2.080205
v 3.860447 -2.399722 -2.081814
v 3.860960 -2.396583 -2.084466
v 3.860892 -2.395266 -2.086111
v 3.860426 -2.394696 -2.087648
v 3.855736 -2.394091 -2.097204
v 3.855160 -2.393789 -2.098641
v 3.854349 -2.391195 -2.103162
v 3.853869 -2.391078 -2.104204
v 3.852734 -2.392040 -2.105239
v 3.851746 -2.393120 -2.105860
v 3.850826 -2.394389 -2.106134
v 3.849873 -2.395914 -2.106177
v 3.848128 -2.399063 -2.105840
v 3.847240 -2.400148 -2.106267
v 3.845607 -2.400249 -2.109235
v 3.844678 -2.401100 -2.110008
v 3.841890 -2.404798 -2.111011
v 3.841374 -2.405243 -2.111471
v 3.840001 -2.405636 -2.113470
v 3.839186 -2.406049 -2.114449
v 3.838359 -2.406626 -2.115270
v 3.837422 -2.407457 -2.116009
v 3.836464 -2.408487 -2.116566
vn 0.7779 -0.4746 -0.4119
vn 0.7778 -0.4748 -0.4118
vn 0.7705 -0.4896 -0.4081
vn 0.7711 -0.4885 -0.4082
vn 0.7711 -0.4886 -0.4083
vn 0.7612 -0.4954 -0.4185
vn 0.7642 -0.5022 -0.4046
vn 0.7643 -0.5021 -0.4047
vn 0.7578 -0.4887 -0.4322
vn 0.7574 -0.4892 -0.4324
vn 0.7583 -0.4877 -0.4326
vn 0.7512 -0.5022 -0.4283
vn 0.7510 -0.5022 -0.4286
vn 0.7572 -0.5157 -0.4009
vn 0.7557 -0.5178 -0.4009
vn 0.7566 -0.5163 -0.4013
vn 0.7572 -0.5157 -0.4008
vn 0.7574 -0.5154 -0.4008
vn 0.7572 -0.5155 -0.4010
vn 0.7645 -0.4748 -0.4360
vn 0.7721 -0.4750 -0.4222
vn 0.7679 -0.4817 -0.4222
vn 0.7728 -0.4851 -0.4092
vn 0.7777 -0.4749 -0.4118
vn 0.7777 -0.4748 -0.4120
vn 0.7778 -0.4747 -0.4118
vn 0.7775 -0.4753 -0.4117
vn 0.7779 -0.4747 -0.4118
vn 0.7780 -0.4745 -0.4118
vn 0.7776 -0.4751 -0.4118
vn 0.7779 -0.4744 -0.4122
vn 0.7778 -0.4747 -0.4119
vn 0.7777 -0.4750 -0.4117
vn 0.7774 -0.4755 -0.4116
vn 0.7777 -0.4748 -0.4119
vn 0.7778 -0.4746 -0.4121
vn 0.7777 -0.4749 -0.4117
vn 0.7778 -0.4749 -0.4117
vn 0.7775 -0.4757 -0.4112
vn 0.7780 -0.4744 -0.4118
vn 0.7776 -0.4749 -0.4120
vn 0.7689 -0.4929 -0.4072
vn 0.7712 -0.4884 -0.4082
vn 0.7711 -0.4887 -0.4081
vn 0.7705 -0.4899 -0.4078
vn 0.7712 -0.4882 -0.4085
vn 0.7719 -0.4873 -0.4083
vn 0.7711 -0.4881 -0.4087
vn 0.7710 -0.4886 -0.4084
vn 0.7708 -0.4891 -0.4082
vn 0.7712 -0.4886 -0.4081
vn 0.7711 -0.4886 -0.4082
vn 0.7710 -0.4887 -0.4082
vn 0.7711 -0.4887 -0.4082
vn 0.7713 -0.4883 -0.4082
vn 0.7703 -0.4901 -0.4080
vn 0.7709 -0.4890 -0.4082
vn 0.7706 -0.4894 -0.4082
vn 0.7710 -0.4886 -0.4083
vn 0.7711 -0.4888 -0.4080
vn 0.7709 -0.4891 -0.4080
vn 0.7710 -0.4890 -0.4080
vn 0.7711 -0.4885 -0.4083
vn 0.7711 -0.4883 -0.4084
vn 0.7710 -0.4888 -0.4081
vn 0.7712 -0.4881 -0.4086
vn 0.7712 -0.4884 -0.4081
vn 0.7713 -0.4883 -0.4081
vn 0.7715 -0.4879 -0.4082
vn 0.7713 -0.4882 -0.4083
vn 0.7705 -0.4895 -0.4083
vn 0.7719 -0.4874 -0.4081
vn 0.7711 -0.4887 -0.4080
vn 0.7741 -0.4827 -0.4096
vn 0.7692 -0.4926 -0.4069
vn 0.7712 -0.4884 -0.4083
vn 0.7712 -0.4885 -0.4082
vn 0.7710 -0.4885 -0.4085
vn 0.7710 -0.4888 -0.4082
vn 0.7709 -0.4887 -0.4085
vn 0.7713 -0.4877 -0.4090
vn 0.7789 -0.4769 -0.4073
vn 0.7707 -0.4884 -0.4092
vn 0.7707 -0.4893 -0.4082
vn 0.7709 -0.4888 -0.4083
vn 0.7700 -0.4898 -0.4089
vn 0.7715 -0.4881 -0.4081
vn 0.7714 -0.4884 -0.4079
vn 0.7708 -0.4890 -0.4082
vn 0.7713 -0.4885 -0.4080
vn 0.7713 -0.4882 -0.4082
vn 0.7710 -0.4886 -0.4085
vn 0.7710 -0.4885 -0.4084
vn 0.7714 -0.4878 -0.4086
vn 0.7717 -0.4883 -0.4075
vn 0.7712 -0.4883 -0.4085
vn 0.7707 -0.4893 -0.4080
vn 0.7711 -0.4884 -0.4083
vn 0.7719 -0.4880 -0.4074
vn 0.7713 -0.4881 -0.4084
vn 0.7711 -0.4886 -0.4081
vn 0.7711 -0.4883 -0.4085
vn 0.7709 -0.4890 -0.4081
vn 0.7706 -0.4889 -0.4088
vn 0.7711 -0.4884 -0.4085
vn 0.7711 -0.4883 -0.4086
vn 0.7709 -0.4887 -0.4084
vn 0.7714 -0.4883 -0.4081
vn 0.7709 -0.4884 -0.4088
vn 0.7708 -0.4891 -0.4080
vn 0.7709 -0.4889 -0.4082
vn 0.7630 -0.5045 -0.4040
vn 0.7616 -0.5072 -0.4035
vn 0.7640 -0.5026 -0.4045
vn 0.7642 -0.5023 -0.4046
vn 0.7652 -0.5006 -0.4048
vn 0.7636 -0.5035 -0.4042
vn 0.7644 -0.5019 -0.4046
vn 0.7644 -0.5021 -0.4045
vn 0.7641 -0.5022 -0.4048
vn 0.7641 -0.5024 -0.4046
vn 0.7640 -0.5027 -0.4045
vn 0.7650 -0.5005 -0.4053
vn 0.7638 -0.5027 -0.4047
vn 0.7612 -0.5075 -0.4038
vn 0.7639 -0.5026 -0.4047
vn 0.7642 -0.5021 -0.4049
vn 0.7627 -0.5021 -0.4076
vn 0.7643 -0.5022 -0.4044
vn 0.7642 -0.5022 -0.4047
vn 0.7639 -0.5020 -0.4055
vn 0.7643 -0.5023 -0.4043
vn 0.7643 -0.5024 -0.4043
vn 0.7642 -0.5024 -0.4044
vn 0.7643 -0.5022 -0.4045
vn 0.7644 -0.5018 -0.4048
vn 0.7643 -0.5022 -0.4046
vn 0.7639 -0.5022 -0.4053
vn 0.7645 -0.5022 -0.4042
vn 0.7644 -0.5019 -0.4047
vn 0.7649 -0.5013 -0.4045
vn 0.7644 -0.5020 -0.4045
vn 0.7641 -0.5022 -0.4049
vn 0.7642 -0.5021 -0.4047
vn 0.7643 -0.5021 -0.4046
vn 0.7646 -0.5016 -0.4046
vn 0.7639 -0.5027 -0.4046
vn 0.7638 -0.5027 -0.4048
vn 0.7642 -0.5023 -0.4047
vn 0.7659 -0.4997 -0.4046
vn 0.7641 -0.5023 -0.4048
vn 0.7642 -0.5023 -0.4045
vn 0.7647 -0.5008 -0.4054
vn 0.7643 -0.5020 -0.4047
vn 0.7639 -0.5026 -0.4046
vn 0.7640 -0.5031 -0.4040
vn 0.7641 -0.5025 -0.4044
vn 0.7641 -0.5022 -0.4047
vn 0.7641 -0.5027 -0.4043
vn 0.7638 -0.5020 -0.4057
vn 0.7593 -0.5022 -0.4138
vn 0.7553 -0.4938 -0.4308
vn 0.7578 -0.4886 -0.4323
vn 0.7599 -0.4842 -0.4335
vn 0.7578 -0.4887 -0.4323
vn 0.7579 -0.4886 -0.4322
vn 0.7579 -0.4885 -0.4322
vn 0.7577 -0.4888 -0.4325
vn 0.7579 -0.4887 -0.4322
vn 0.7579 -0.4886 -0.4323
vn 0.7580 -0.4888 -0.4317
vn 0.7579 -0.4885 -0.4323
vn 0.7580 -0.4893 -0.4312
vn 0.7582 -0.4882 -0.4322
vn 0.7582 -0.4877 -0.4328
vn 0.7580 -0.4885 -0.4322
vn 0.7583 -0.4880 -0.4321
vn 0.7577 -0.4885 -0.4326
vn 0.7577 -0.4889 -0.4321
vn 0.7576 -0.4889 -0.4325
vn 0.7577 -0.4887 -0.4324
vn 0.7573 -0.4890 -0.4329
vn 0.7580 -0.4884 -0.4322
vn 0.7578 -0.4885 -0.4324
vn 0.7580 -0.4889 -0.4317
vn 0.7580 -0.4881 -0.4327
vn 0.7580 -0.4884 -0.4323
vn 0.7578 -0.4888 -0.4321
vn 0.7580 -0.4883 -0.4324
vn 0.7577 -0.4889 -0.4322
vn 0.7581 -0.4887 -0.4317
vn 0.7576 -0.4885 -0.4329
vn 0.7575 -0.4883 -0.4333
vn 0.7580 -0.4887 -0.4319
vn 0.7579 -0.4884 -0.4324
vn 0.7595 -0.4866 -0.4317
vn 0.7511 -0.5022 -0.4284
vn 0.7511 -0.5022 -0.4285
vn 0.7515 -0.5018 -0.4282
vn 0.7511 -0.5023 -0.4284
vn 0.7515 -0.5018 -0.4281
vn 0.7512 -0.5022 -0.4284
vn 0.7511 -0.5021 -0.4285
vn 0.7512 -0.5020 -0.4285
vn 0.7510 -0.5024 -0.4284
vn 0.7509 -0.5028 -0.4281
vn 0.7508 -0.5019 -0.4293
vn 0.7571 -0.5157 -0.4010
vn 0.7570 -0.5159 -0.4009
vn 0.7570 -0.5158 -0.4009
vn 0.7567 -0.5160 -0.4013
vn 0.7580 -0.5152 -0.3999
vn 0.7589 -0.5142 -0.3996
vn 0.7575 -0.5146 -0.4017
vn 0.7572 -0.5158 -0.4008
vn 0.7570 -0.5159 -0.4008
vn 0.7641 -0.4755 -0.4359
vn 0.7645 -0.4747 -0.4361
vn 0.7644 -0.4750 -0.4359
usemtl None
s 1
f 306//1 319//2 310//2
f 203//3 202//4 199//5
f 2//6 97//7 96//8
f 126//9 122//10 121//11
f 268//12 267//12 265//13
f 292//14 291//15 290//16
f 283//17 281//18 280//19
f 324//20 9//21 1//22
f 8//23 1//22 304//24
f 1//22 9//21 323//25
f 1//22 323//25 322//26
f 8//23 303//27 294//28
f 296//24 295//29 302//24
f 295//29 294//28 302//24
f 303//27 8//23 304//24
f 322//26 321//2 319//2
f 321//2 320//30 319//2
f 1//22 322//26 319//2
f 297//31 296//24 299//26
f 299//26 296//24 300//32
f 299//26 298//33 297//31
f 301//34 300//32 302//24
f 302//24 300//32 296//24
f 1//22 319//2 305//35
f 303//27 302//24 294//28
f 319//2 318//36 310//2
f 318//36 317//2 311//37
f 317//2 316//26 311//37
f 316//26 315//32 311//37
f 315//32 314//38 312//38
f 311//37 315//32 312//38
f 314//38 313//39 312//38
f 304//24 1//22 305//35
f 305//35 319//2 306//1
f 310//2 309//32 306//1
f 309//32 308//40 307//41
f 306//1 309//32 307//41
f 318//36 311//37 310//2
f 10//42 2//6 176//43
f 2//6 1//22 254//4
f 10//42 176//43 175//44
f 1//22 8//23 254//4
f 8//23 258//45 254//4
f 258//45 257//46 255//47
f 257//46 256//48 255//47
f 150//49 10//42 166//50
f 153//51 152//52 155//53
f 152//52 151//54 159//5
f 151//54 150//49 159//5
f 10//42 175//44 174//49
f 258//45 255//47 254//4
f 152//52 159//5 155//53
f 10//42 174//49 172//52
f 155//53 154//55 153//51
f 157//56 156//57 158//52
f 156//57 155//53 159//5
f 159//5 158//52 156//57
f 162//58 161//59 164//60
f 161//59 160//50 165//61
f 163//62 162//58 164//60
f 161//59 165//61 164//60
f 160//50 159//5 166//50
f 165//61 160//50 166//50
f 254//4 253//4 2//6
f 166//50 159//5 150//49
f 251//63 250//64 246//65
f 250//64 249//66 247//67
f 251//63 246//65 245//5
f 249//66 248//68 247//67
f 247//67 246//65 250//64
f 251//63 245//5 244//49
f 252//69 251//63 244//49
f 243//4 242//49 241//59
f 252//69 244//49 253//4
f 244//49 243//4 253//4
f 243//4 241//59 236//70
f 241//59 240//71 236//70
f 240//71 239//52 237//72
f 239//52 238//73 237//72
f 253//4 243//4 221//52
f 232//70 236//70 235//74
f 240//71 237//72 236//70
f 169//75 168//76 170//77
f 168//76 167//5 170//77
f 170//77 167//5 171//78
f 174//49 173//79 172//52
f 172//52 171//78 10//42
f 171//78 167//5 10//42
f 10//42 167//5 166//50
f 236//70 232//70 243//4
f 232//70 235//74 233//80
f 235//74 234//81 233//80
f 243//4 232//70 231//77
f 243//4 231//77 221//52
f 176//43 2//6 183//55
f 176//43 183//55 177//82
f 230//62 229//83 228//84
f 231//77 230//62 227//85
f 230//62 228//84 227//85
f 177//82 183//55 178//86
f 183//55 2//6 184//87
f 253//4 221//52 213//5
f 231//77 227//85 221//52
f 227//85 226//43 221//52
f 179//88 178//86 183//55
f 182//79 181//3 180//89
f 180//89 179//88 183//55
f 226//43 225//5 222//90
f 225//5 224//91 223//92
f 225//5 223//92 222//90
f 183//55 182//79 180//89
f 186//93 185//94 184//87
f 184//87 2//6 188//76
f 187//95 186//93 184//87
f 188//76 2//6 189//96
f 226//43 222//90 221//52
f 221//52 220//97 219//52
f 187//95 184//87 188//76
f 189//96 2//6 205//98
f 253//4 213//5 2//6
f 221//52 219//52 214//78
f 214//78 219//52 215//99
f 218//100 217//4 216//101
f 219//52 218//100 215//99
f 205//98 2//6 213//5
f 190//102 189//96 198//52
f 204//94 189//96 205//98
f 218//100 216//101 215//99
f 191//103 190//102 197//57
f 189//96 204//94 198//52
f 197//57 190//102 198//52
f 193//104 192//105 194//5
f 192//105 191//103 195//90
f 195//90 191//103 196//106
f 195//90 194//5 192//105
f 196//106 191//103 197//57
f 221//52 214//78 213//5
f 213//5 212//107 205//98
f 205//98 212//107 206//108
f 201//61 200//107 202//4
f 200//107 199//5 202//4
f 199//5 198//52 203//3
f 212//107 211//109 206//108
f 211//109 210//110 207//52
f 210//110 209//100 207//52
f 209//100 208//111 207//52
f 207//52 206//108 211//109
f 198//52 204//94 203//3
f 5//112 6//113 54//114
f 5//112 54//114 53//115
f 55//116 4//117 56//7
f 4//117 5//112 56//7
f 57//115 56//7 5//112
f 59//118 58//115 60//119
f 58//115 57//115 61//120
f 61//120 60//119 58//115
f 5//112 53//115 43//121
f 53//115 52//118 44//122
f 43//121 53//115 44//122
f 52//118 51//123 50//124
f 50//124 49//125 48//126
f 48//126 47//127 44//122
f 47//127 46//128 45//129
f 44//122 47//127 45//129
f 52//118 50//124 48//126
f 57//115 5//112 43//121
f 62//130 61//120 57//115
f 65//115 64//131 63//130
f 63//130 62//130 42//115
f 62//130 57//115 43//121
f 42//115 62//130 43//121
f 52//118 48//126 44//122
f 42//115 41//7 36//115
f 41//7 40//132 39//7
f 36//115 41//7 39//7
f 65//115 63//130 66//7
f 66//7 63//130 34//7
f 68//133 67//134 69//135
f 67//134 66//7 70//130
f 69//135 67//134 70//130
f 63//130 35//115 34//7
f 39//7 38//136 37//129
f 39//7 37//129 36//115
f 63//130 42//115 35//115
f 42//115 36//115 35//115
f 70//130 66//7 83//137
f 66//7 34//7 83//137
f 71//138 70//130 82//139
f 82//139 70//130 83//137
f 34//7 33//140 83//137
f 74//141 73//115 75//142
f 73//115 72//143 78//144
f 75//142 73//115 78//144
f 72//143 71//138 80//7
f 71//138 82//139 81//129
f 33//140 32//145 83//137
f 78//144 77//143 76//143
f 76//143 75//142 78//144
f 32//145 31//146 23//145
f 31//146 30//147 28//115
f 30//147 29//148 28//115
f 28//115 27//149 31//146
f 27//149 26//150 25//7
f 27//149 25//7 24//151
f 79//152 72//143 80//7
f 79//152 78//144 72//143
f 81//129 80//7 71//138
f 31//146 27//149 24//151
f 31//146 24//151 23//145
f 83//137 32//145 23//145
f 84//153 83//137 92//7
f 83//137 23//145 22//115
f 83//137 22//115 92//7
f 85//154 84//153 91//126
f 91//126 84//153 92//7
f 21//155 20//151 19//115
f 22//115 21//155 2//6
f 88//7 87//156 86//130
f 21//155 19//115 18//7
f 88//7 86//130 89//157
f 86//130 85//154 90//7
f 90//7 89//157 86//130
f 91//126 90//7 85//154
f 2//6 21//155 18//7
f 92//7 22//115 96//8
f 18//7 17//158 2//6
f 22//115 2//6 96//8
f 94//134 93//154 95//130
f 93//154 92//7 95//130
f 16//7 15//159 14//121
f 95//130 92//7 96//8
f 16//7 14//121 13//7
f 17//158 16//7 2//6
f 16//7 13//7 2//6
f 13//7 12//160 11//161
f 11//161 2//6 13//7
f 2//6 10//42 97//7
f 2//6 3//162 147//9
f 2//6 147//9 146//163
f 7//164 1//22 148//165
f 1//22 2//6 149//166
f 148//165 1//22 149//166
f 2//6 146//163 136//167
f 146//163 145//168 136//167
f 145//168 144//169 142//170
f 144//169 143//171 142//170
f 149//166 2//6 103//165
f 99//172 98//173 149//166
f 137//174 145//168 138//175
f 145//168 142//170 141//170
f 141//170 140//176 139//177
f 141//170 139//177 138//175
f 145//168 137//174 136//167
f 145//168 141//170 138//175
f 100//178 99//172 102//179
f 99//172 149//166 102//179
f 102//179 101//180 100//178
f 103//165 2//6 104//181
f 103//165 102//179 149//166
f 106//181 105//182 104//181
f 104//181 2//6 107//170
f 107//170 106//181 104//181
f 2//6 136//167 135//170
f 107//170 2//6 135//170
f 110//183 109//172 111//170
f 109//172 108//184 111//170
f 108//184 107//170 111//170
f 107//170 135//170 111//170
f 135//170 134//166 111//170
f 114//185 113//186 115//187
f 113//186 112//172 115//187
f 112//172 111//170 134//166
f 134//166 133//188 120//189
f 112//172 134//166 116//172
f 133//188 132//181 126//9
f 132//181 131//172 127//190
f 126//9 132//181 127//190
f 131//172 130//191 127//190
f 130//191 129//192 127//190
f 129//192 128//193 127//190
f 126//9 125//187 122//10
f 125//187 124//194 123//181
f 116//172 134//166 120//189
f 118//195 117//183 120//189
f 117//183 116//172 120//189
f 118//195 120//189 119//196
f 116//172 115//187 112//172
f 125//187 123//181 122//10
f 133//188 126//9 121//11
f 120//189 133//188 121//11
f 2//6 11//161 278//197
f 2//6 278//197 277//197
f 259//198 3//162 2//6
f 260//199 259//198 2//6
f 2//6 277//197 276//197
f 2//6 276//197 264//200
f 276//197 275//197 264//200
f 261//201 260//199 2//6
f 263//200 262//202 2//6
f 262//202 261//201 2//6
f 275//197 274//197 269//203
f 264//200 275//197 265//13
f 274//197 273//197 269//203
f 273//197 272//204 270//205
f 269//203 273//197 270//205
f 272//204 271//206 270//205
f 264//200 263//200 2//6
f 267//12 266//207 265//13
f 265//13 275//197 268//12
f 275//197 269//203 268//12
f 5//112 4//117 290//16
f 4//117 293//208 290//16
f 293//208 292//14 290//16
f 6//113 5//112 289//209
f 288//210 287//211 285//212
f 287//211 286//213 285//212
f 6//113 289//209 288//210
f 279//214 6//113 284//215
f 6//113 288//210 284//215
f 285//212 284//215 288//210
f 284//215 283//17 279//214
f 283//17 282//216 281//18
f 280//19 279//214 283//17
f 1//22 7//164 328//217
f 328//217 327//218 1//22
f 327//218 326//218 1//22
f 326//218 325//219 1//22
f 325//219 324//20 1//22
