# Blender v2.81 (sub 16) OBJ File: ''
# www.blender.org
mtllib Luxembourg.mtl
o 0_Luxembourg_sphere.001
v 3.230125 3.802029 -0.330102
v 3.226958 3.802029 -0.358787
v 3.227691 3.801401 -0.358744
v 3.229623 3.799697 -0.359139
v 3.230112 3.799271 -0.359188
v 3.230170 3.799328 -0.358051
v 3.229692 3.799890 -0.356485
v 3.228456 3.801227 -0.353636
v 3.228432 3.801259 -0.353527
v 3.228151 3.801653 -0.351935
v 3.228184 3.801778 -0.350321
v 3.228791 3.801560 -0.347113
v 3.229359 3.801028 -0.347546
v 3.229636 3.800940 -0.345964
v 3.229820 3.800818 -0.345578
v 3.230243 3.800478 -0.345322
v 3.230667 3.800107 -0.345372
v 3.231032 3.799801 -0.345280
v 3.231297 3.799636 -0.344619
v 3.231994 3.799080 -0.344138
v 3.232311 3.798882 -0.343338
v 3.233065 3.798688 -0.338550
v 3.233376 3.798512 -0.337596
v 3.231604 3.800132 -0.336627
v 3.230908 3.800842 -0.335479
v 3.230650 3.801411 -0.331834
v 3.230282 3.801868 -0.330369
v 3.185707 3.838391 -0.338280
v 3.185453 3.838561 -0.338736
v 3.185105 3.838822 -0.339059
v 3.185016 3.838856 -0.339491
v 3.185476 3.838401 -0.340262
v 3.186059 3.837885 -0.340567
v 3.186692 3.837357 -0.340570
v 3.187214 3.836904 -0.340753
v 3.187403 3.836666 -0.341613
v 3.188399 3.835860 -0.341333
v 3.189354 3.835078 -0.341158
v 3.191256 3.833502 -0.341007
v 3.191219 3.833494 -0.341441
v 3.191455 3.833301 -0.341387
v 3.192291 3.832643 -0.340951
v 3.192475 3.832431 -0.341582
v 3.193001 3.831952 -0.342006
v 3.194358 3.830773 -0.342496
v 3.195093 3.830166 -0.342420
v 3.195593 3.829720 -0.342720
v 3.196667 3.828722 -0.343809
v 3.198428 3.827155 -0.344851
v 3.198951 3.826671 -0.345359
v 3.197962 3.827451 -0.345862
v 3.199037 3.826452 -0.346953
v 3.202251 3.823563 -0.349156
v 3.202835 3.822988 -0.350104
v 3.203252 3.822458 -0.352066
v 3.203591 3.822095 -0.352928
v 3.203925 3.821788 -0.353234
v 3.204377 3.821385 -0.353506
v 3.205021 3.820809 -0.353919
v 3.205234 3.820624 -0.354004
v 3.205210 3.820601 -0.354458
v 3.204721 3.820936 -0.355251
v 3.204681 3.820925 -0.355742
v 3.205046 3.820527 -0.356743
v 3.206023 3.819551 -0.358483
v 3.206388 3.819153 -0.359481
v 3.206487 3.818978 -0.360484
v 3.206203 3.818968 -0.363169
v 3.206382 3.818656 -0.364935
v 3.206353 3.818659 -0.365156
v 3.206569 3.818448 -0.365486
v 3.206659 3.818385 -0.365355
v 3.207238 3.817896 -0.365417
v 3.208742 3.816656 -0.365237
v 3.209223 3.816249 -0.365287
v 3.209529 3.815976 -0.365469
v 3.209778 3.815768 -0.365474
v 3.210203 3.815460 -0.364971
v 3.210799 3.814959 -0.364999
v 3.211338 3.814490 -0.365194
v 3.211771 3.814100 -0.365510
v 3.212146 3.813745 -0.365956
v 3.212040 3.813880 -0.365453
v 3.212168 3.813796 -0.365205
v 3.212526 3.813511 -0.365047
v 3.212804 3.813241 -0.365466
v 3.212930 3.813123 -0.365597
v 3.215469 3.811361 -0.361702
v 3.216505 3.810565 -0.360940
v 3.216697 3.810393 -0.361063
v 3.216845 3.810235 -0.361445
v 3.217074 3.810009 -0.361816
v 3.217487 3.809655 -0.361921
v 3.217824 3.809384 -0.361800
v 3.218342 3.808985 -0.361428
v 3.219310 3.808219 -0.360962
v 3.220857 3.807048 -0.359652
v 3.221958 3.806195 -0.358920
v 3.222751 3.805554 -0.358681
v 3.224848 3.803781 -0.358914
v 3.225501 3.803239 -0.358874
v 3.229674 3.802479 -0.329314
v 3.228060 3.804008 -0.327356
v 3.227429 3.804417 -0.328642
v 3.226257 3.805287 -0.329827
v 3.225155 3.806168 -0.330255
v 3.224855 3.806510 -0.329264
v 3.224310 3.806912 -0.329846
v 3.223594 3.807474 -0.330232
v 3.222003 3.808752 -0.330791
v 3.221535 3.809105 -0.331199
v 3.221077 3.809441 -0.331718
v 3.220466 3.809928 -0.331970
v 3.219554 3.810727 -0.331566
v 3.219343 3.810944 -0.331126
v 3.219368 3.811028 -0.329989
v 3.219188 3.811215 -0.329585
v 3.218702 3.811645 -0.329338
v 3.218451 3.811850 -0.329392
v 3.218210 3.812037 -0.329543
v 3.217794 3.812386 -0.329520
v 3.217411 3.812701 -0.329574
v 3.217163 3.812886 -0.329823
v 3.216854 3.813127 -0.330005
v 3.216496 3.813435 -0.329913
v 3.216366 3.813547 -0.329874
v 3.216002 3.813885 -0.329512
v 3.216001 3.813920 -0.329144
v 3.216154 3.813824 -0.328790
v 3.216136 3.813869 -0.328475
v 3.216038 3.813983 -0.328124
v 3.215926 3.814149 -0.327327
v 3.215731 3.814348 -0.326939
v 3.215581 3.814473 -0.326947
v 3.214662 3.815262 -0.326731
v 3.214351 3.815531 -0.326616
v 3.212499 3.817220 -0.325086
v 3.212137 3.817561 -0.324671
v 3.211859 3.817862 -0.323931
v 3.211824 3.817948 -0.323317
v 3.211670 3.818130 -0.322729
v 3.210972 3.818775 -0.322062
v 3.210194 3.819464 -0.321640
v 3.209422 3.820125 -0.321475
v 3.208732 3.820683 -0.321664
v 3.208335 3.820957 -0.322295
v 3.207981 3.821306 -0.321719
v 3.207761 3.821483 -0.321791
v 3.207574 3.821631 -0.321878
v 3.207386 3.821783 -0.321942
v 3.206992 3.822116 -0.321896
v 3.206967 3.822001 -0.323377
v 3.206414 3.822516 -0.322794
v 3.205799 3.823151 -0.321485
v 3.205647 3.823341 -0.320804
v 3.204977 3.823886 -0.320961
v 3.202199 3.826052 -0.322644
v 3.201757 3.826405 -0.322825
v 3.201404 3.826691 -0.322925
v 3.201030 3.826988 -0.323092
v 3.200546 3.827356 -0.323487
v 3.200294 3.827532 -0.323860
v 3.200053 3.827659 -0.324668
v 3.199683 3.827928 -0.325099
v 3.198709 3.828694 -0.325620
v 3.198341 3.829026 -0.325355
v 3.198030 3.829325 -0.324924
v 3.197117 3.830091 -0.324896
v 3.196719 3.830395 -0.325211
v 3.196198 3.830729 -0.326297
v 3.195832 3.831002 -0.326666
v 3.195279 3.831456 -0.326750
v 3.194700 3.831946 -0.326685
v 3.193927 3.832604 -0.326545
v 3.193461 3.832967 -0.326836
v 3.192842 3.833415 -0.327593
v 3.192430 3.833731 -0.327892
v 3.191942 3.834130 -0.327985
v 3.190860 3.835034 -0.327982
v 3.190440 3.835371 -0.328140
v 3.189681 3.835927 -0.328996
v 3.188667 3.836590 -0.330985
v 3.187931 3.837135 -0.331746
v 3.186917 3.837951 -0.332087
v 3.186011 3.838695 -0.332222
v 3.185328 3.839229 -0.332629
v 3.185119 3.839295 -0.333804
v 3.184497 3.839741 -0.334604
v 3.184743 3.839499 -0.334990
v 3.185395 3.838932 -0.335243
v 3.185824 3.838537 -0.335632
v 3.185966 3.838372 -0.336142
v 3.186035 3.838290 -0.336398
v 3.186036 3.838231 -0.337032
vn 0.6513 0.7554 -0.0719
vn 0.6509 0.7557 -0.0721
vn 0.6451 0.7607 -0.0713
vn 0.6396 0.7653 -0.0714
vn 0.6395 0.7654 -0.0708
vn 0.6396 0.7655 -0.0697
vn 0.6391 0.7658 -0.0707
vn 0.6398 0.7653 -0.0704
vn 0.6396 0.7654 -0.0706
vn 0.6426 0.7629 -0.0709
vn 0.6522 0.7546 -0.0717
vn 0.6506 0.7560 -0.0717
vn 0.6519 0.7548 -0.0721
vn 0.6515 0.7552 -0.0719
vn 0.6516 0.7551 -0.0719
vn 0.6515 0.7552 -0.0714
vn 0.6515 0.7552 -0.0718
vn 0.6514 0.7553 -0.0720
vn 0.6513 0.7554 -0.0721
vn 0.6515 0.7554 -0.0705
vn 0.6518 0.7549 -0.0716
vn 0.6516 0.7551 -0.0718
vn 0.6514 0.7552 -0.0721
vn 0.6515 0.7548 -0.0759
vn 0.6518 0.7549 -0.0720
vn 0.6509 0.7559 -0.0711
vn 0.6513 0.7554 -0.0716
vn 0.6516 0.7551 -0.0720
vn 0.6516 0.7552 -0.0719
vn 0.6540 0.7529 -0.0729
vn 0.6520 0.7548 -0.0721
vn 0.6396 0.7655 -0.0704
vn 0.6396 0.7658 -0.0661
vn 0.6396 0.7654 -0.0708
vn 0.6396 0.7654 -0.0707
vn 0.6395 0.7655 -0.0700
vn 0.6397 0.7652 -0.0723
vn 0.6396 0.7654 -0.0702
vn 0.6396 0.7654 -0.0709
vn 0.6396 0.7653 -0.0711
vn 0.6396 0.7653 -0.0727
vn 0.6396 0.7655 -0.0699
vn 0.6394 0.7656 -0.0703
vn 0.6397 0.7653 -0.0713
vn 0.6395 0.7656 -0.0706
vn 0.6391 0.7660 -0.0684
vn 0.6396 0.7655 -0.0701
vn 0.6399 0.7656 -0.0663
vn 0.6395 0.7654 -0.0724
vn 0.6396 0.7655 -0.0706
vn 0.6391 0.7659 -0.0702
vn 0.6395 0.7655 -0.0704
vn 0.6353 0.7696 -0.0641
vn 0.6397 0.7654 -0.0704
vn 0.6397 0.7656 -0.0673
vn 0.6396 0.7654 -0.0710
vn 0.6400 0.7652 -0.0702
vn 0.6398 0.7653 -0.0705
vn 0.6394 0.7656 -0.0713
vn 0.6395 0.7654 -0.0711
vn 0.6395 0.7656 -0.0707
vn 0.6394 0.7656 -0.0710
vn 0.6391 0.7659 -0.0692
vn 0.6391 0.7659 -0.0704
vn 0.6395 0.7655 -0.0707
vn 0.6390 0.7660 -0.0693
vn 0.6392 0.7657 -0.0710
vn 0.6400 0.7650 -0.0714
vn 0.6398 0.7653 -0.0706
vn 0.6396 0.7654 -0.0704
vn 0.6391 0.7658 -0.0706
vn 0.6394 0.7655 -0.0709
vn 0.6390 0.7657 -0.0729
vn 0.6395 0.7655 -0.0705
vn 0.6398 0.7653 -0.0701
vn 0.6395 0.7655 -0.0706
vn 0.6395 0.7655 -0.0714
vn 0.6396 0.7655 -0.0707
vn 0.6397 0.7652 -0.0716
vn 0.6397 0.7654 -0.0700
vn 0.6393 0.7656 -0.0708
vn 0.6399 0.7652 -0.0706
vn 0.6402 0.7649 -0.0705
vn 0.6409 0.7642 -0.0715
vn 0.6387 0.7664 -0.0683
vn 0.6403 0.7648 -0.0703
vn 0.6402 0.7646 -0.0740
vn 0.6400 0.7653 -0.0691
vn 0.6399 0.7651 -0.0708
vn 0.6396 0.7654 -0.0705
vn 0.6397 0.7654 -0.0701
vn 0.6391 0.7658 -0.0708
vn 0.6408 0.7644 -0.0702
vn 0.6410 0.7642 -0.0713
vn 0.6377 0.7675 -0.0649
vn 0.6398 0.7653 -0.0703
vn 0.6394 0.7657 -0.0693
vn 0.6394 0.7656 -0.0711
vn 0.6391 0.7658 -0.0715
vn 0.6395 0.7655 -0.0702
vn 0.6395 0.7655 -0.0710
vn 0.6389 0.7662 -0.0693
vn 0.6396 0.7654 -0.0714
vn 0.6396 0.7654 -0.0703
vn 0.6398 0.7654 -0.0699
vn 0.6389 0.7660 -0.0714
vn 0.6397 0.7653 -0.0704
vn 0.6395 0.7656 -0.0703
vn 0.6389 0.7660 -0.0707
vn 0.6396 0.7653 -0.0725
vn 0.6395 0.7655 -0.0708
vn 0.6395 0.7654 -0.0714
vn 0.6397 0.7653 -0.0702
vn 0.6393 0.7657 -0.0707
vn 0.6395 0.7656 -0.0704
vn 0.6398 0.7653 -0.0696
vn 0.6397 0.7654 -0.0706
vn 0.6399 0.7652 -0.0701
vn 0.6394 0.7654 -0.0725
vn 0.6391 0.7657 -0.0715
vn 0.6408 0.7647 -0.0679
vn 0.6394 0.7657 -0.0703
vn 0.6399 0.7652 -0.0705
vn 0.6394 0.7657 -0.0698
vn 0.6398 0.7656 -0.0675
vn 0.6380 0.7669 -0.0691
vn 0.6397 0.7654 -0.0693
vn 0.6398 0.7652 -0.0713
vn 0.6397 0.7653 -0.0710
vn 0.6395 0.7655 -0.0709
vn 0.6399 0.7651 -0.0712
vn 0.4921 0.8675 -0.0724
vn 0.6397 0.7653 -0.0706
vn 0.6395 0.7656 -0.0691
vn 0.6401 0.7653 -0.0683
vn 0.6395 0.7656 -0.0697
vn 0.6396 0.7655 -0.0696
vn 0.6397 0.7653 -0.0707
vn 0.6393 0.7656 -0.0705
vn 0.6399 0.7652 -0.0703
usemtl None
s 1
f 11//1 10//2 2//3
f 166//4 165//5 170//6
f 190//7 189//8 187//9
f 2//3 1//10 11//1
f 1//10 27//11 26//12
f 11//1 1//10 12//13
f 26//12 25//14 1//10
f 24//15 23//16 22//17
f 24//15 22//17 21//18
f 21//18 20//19 19//17
f 19//17 18//20 17//21
f 19//17 17//21 16//22
f 24//15 21//18 19//17
f 25//14 24//15 15//23
f 24//15 19//17 16//22
f 15//23 24//15 16//22
f 14//24 13//25 12//13
f 15//23 14//24 12//13
f 25//14 15//23 12//13
f 5//26 4//27 6//28
f 4//27 3//29 7//14
f 7//14 6//28 4//27
f 8//30 7//14 3//29
f 9//31 8//30 2//3
f 8//30 3//29 2//3
f 25//14 12//13 1//10
f 10//2 9//31 2//3
f 1//10 2//3 106//32
f 2//3 101//32 106//32
f 101//32 100//33 99//9
f 101//32 99//9 112//34
f 106//32 101//32 112//34
f 103//9 102//35 104//35
f 102//35 1//10 105//36
f 104//35 102//35 105//36
f 99//9 98//35 113//9
f 97//37 96//38 89//39
f 96//38 95//40 90//41
f 98//35 97//37 89//39
f 108//42 107//43 106//32
f 106//32 105//36 1//10
f 112//34 99//9 113//9
f 96//38 90//41 89//39
f 95//40 94//35 90//41
f 94//35 93//44 91//45
f 90//41 94//35 91//45
f 93//44 92//46 91//45
f 113//9 98//35 89//39
f 109//47 108//42 106//32
f 110//48 109//47 111//49
f 109//47 106//32 112//34
f 112//34 111//49 109//47
f 88//50 87//51 85//52
f 87//51 86//53 85//52
f 89//39 88//50 60//54
f 113//9 89//39 114//35
f 114//35 89//39 60//54
f 88//50 85//52 79//35
f 85//52 84//55 80//56
f 117//57 116//58 118//59
f 116//58 115//60 120//61
f 118//59 116//58 119//62
f 115//60 114//35 124//63
f 114//35 60//54 125//64
f 85//52 80//56 79//35
f 60//54 88//50 65//65
f 120//61 119//62 116//58
f 122//66 121//67 123//42
f 121//67 120//61 123//42
f 84//55 83//68 81//34
f 83//68 82//69 81//34
f 81//34 80//56 84//55
f 120//61 115//60 123//42
f 124//63 123//42 115//60
f 124//63 114//35 125//64
f 88//50 79//35 66//70
f 126//71 125//64 60//54
f 78//72 77//73 76//74
f 79//35 78//72 67//75
f 66//70 79//35 67//75
f 127//34 126//71 53//76
f 88//50 66//70 65//65
f 78//72 76//74 75//77
f 74//78 73//35 68//35
f 73//35 72//79 69//80
f 78//72 75//77 74//78
f 128//81 127//34 136//82
f 130//83 129//84 128//81
f 133//85 132//86 134//54
f 132//86 131//69 134//54
f 131//69 130//83 128//81
f 126//71 60//54 54//76
f 78//72 74//78 67//75
f 72//79 71//87 70//88
f 73//35 69//80 68//35
f 131//69 128//81 135//89
f 134//54 131//69 135//89
f 72//79 70//88 69//80
f 68//35 67//75 74//78
f 136//82 135//89 128//81
f 137//90 136//82 127//34
f 138//91 137//90 152//65
f 126//71 54//76 53//76
f 65//65 64//92 61//93
f 64//92 63//65 61//93
f 63//65 62//94 61//93
f 60//54 59//95 58//96
f 60//54 58//96 54//76
f 58//96 57//97 55//98
f 65//65 61//93 60//54
f 127//34 53//76 50//65
f 141//99 140//100 142//9
f 140//100 139//101 142//9
f 139//101 138//91 152//65
f 137//90 127//34 50//65
f 58//96 55//98 54//76
f 57//97 56//102 55//98
f 144//38 143//103 146//35
f 143//103 142//9 146//35
f 146//35 145//104 144//38
f 148//105 147//106 146//35
f 149//107 148//105 146//35
f 142//9 139//101 146//35
f 146//35 139//101 152//65
f 150//108 149//107 152//65
f 149//107 146//35 152//65
f 152//65 151//109 150//108
f 137//90 50//65 152//65
f 53//76 52//65 50//65
f 52//65 51//65 50//65
f 49//35 48//110 47//65
f 152//65 50//65 49//35
f 153//111 152//65 157//35
f 152//65 49//35 164//34
f 163//112 152//65 164//34
f 152//65 163//112 157//35
f 49//35 47//65 165//5
f 156//9 155//113 154//114
f 154//114 153//111 156//9
f 46//115 45//116 42//117
f 45//116 44//65 42//117
f 47//65 46//115 171//90
f 157//35 156//9 153//111
f 160//58 159//118 163//112
f 159//118 158//119 163//112
f 158//119 157//35 163//112
f 164//34 49//35 165//5
f 44//65 43//120 42//117
f 42//117 41//121 40//122
f 40//122 177//52 42//117
f 177//52 176//35 42//117
f 176//35 175//123 173//124
f 175//123 174//125 173//124
f 46//115 42//117 171//90
f 162//126 161//4 163//112
f 161//4 160//58 163//112
f 42//117 176//35 172//9
f 176//35 173//124 172//9
f 165//5 47//65 171//90
f 42//117 172//9 171//90
f 170//6 169//117 166//4
f 169//117 168//127 166//4
f 171//90 170//6 165//5
f 168//127 167//128 166//4
f 37//32 36//129 35//35
f 34//130 33//54 28//35
f 33//54 32//101 29//82
f 38//9 37//32 35//35
f 33//54 29//82 28//35
f 32//101 31//56 29//82
f 29//82 31//56 30//131
f 38//9 35//35 194//39
f 35//35 34//130 28//35
f 38//9 194//39 193//54
f 177//52 40//122 39//132
f 39//132 38//9 183//133
f 182//35 177//52 39//132
f 177//52 182//35 178//134
f 180//135 179//136 181//5
f 179//136 178//134 181//5
f 182//35 39//132 183//133
f 28//35 194//39 35//35
f 182//35 181//5 178//134
f 38//9 193//54 183//133
f 183//133 193//54 192//137
f 186//129 185//65 187//9
f 185//65 184//138 187//9
f 184//138 183//133 191//139
f 183//133 192//137 191//139
f 189//8 188//140 187//9
f 184//138 191//139 187//9
f 191//139 190//7 187//9
