# Blender v2.81 (sub 16) OBJ File: ''
# www.blender.org
mtllib Macao S.A.R.mtl
o 0_Macao_S.A.R_sphere.001
v -1.851509 1.887174 -4.243465
v -1.852141 1.886633 -4.243420
v -1.853055 1.885653 -4.243443
v -1.853600 1.884718 -4.243612
v -1.853832 1.884111 -4.243777
v -1.852715 1.884504 -4.244107
v -1.852613 1.884099 -4.244333
v -1.852964 1.883822 -4.244298
v -1.853073 1.883565 -4.244363
v -1.853147 1.883363 -4.244419
v -1.853241 1.883197 -4.244451
v -1.853253 1.882982 -4.244540
v -1.853011 1.882864 -4.244702
v -1.852502 1.883133 -4.244812
v -1.852612 1.882676 -4.244966
v -1.852359 1.882547 -4.245137
v -1.852113 1.882604 -4.245223
v -1.851764 1.882882 -4.245257
v -1.851828 1.882396 -4.245445
v -1.851776 1.881994 -4.245646
v -1.851934 1.881602 -4.245749
v -1.851721 1.881541 -4.245872
v -1.851231 1.881907 -4.245931
v -1.850897 1.881617 -4.246211
v -1.850868 1.881499 -4.246276
v -1.850696 1.881418 -4.246390
v -1.850520 1.881425 -4.246466
v -1.850261 1.881623 -4.246495
v -1.850004 1.882082 -4.246407
v -1.850289 1.882155 -4.246246
v -1.849730 1.884281 -4.245554
v -1.849009 1.884949 -4.245583
v -1.848832 1.885245 -4.245531
v -1.848229 1.886579 -4.245210
v -1.848984 1.886877 -4.244737
v -1.849414 1.887185 -4.244406
v -1.850231 1.887346 -4.243966
v -1.850975 1.887311 -4.243646
vn -0.3815 0.3754 -0.8447
vn -0.3816 0.3753 -0.8447
vn -0.3814 0.3753 -0.8448
vn -0.3821 0.3754 -0.8444
vn -0.3822 0.3752 -0.8444
vn -0.3817 0.3753 -0.8447
vn -0.3813 0.3754 -0.8448
vn -0.3815 0.3753 -0.8448
vn -0.3833 0.3741 -0.8444
vn -0.3819 0.3750 -0.8446
vn -0.3815 0.3751 -0.8448
vn -0.3814 0.3752 -0.8448
vn -0.3827 0.3751 -0.8443
vn -0.3811 0.3754 -0.8449
vn -0.3816 0.3752 -0.8447
vn -0.3828 0.3752 -0.8442
vn -0.3815 0.3753 -0.8447
vn -0.3807 0.3757 -0.8449
vn -0.3810 0.3764 -0.8444
vn -0.3779 0.3784 -0.8450
vn -0.3803 0.3742 -0.8458
vn -0.3816 0.3754 -0.8447
vn -0.3813 0.3750 -0.8450
vn -0.3817 0.3752 -0.8447
vn -0.3809 0.3755 -0.8449
vn -0.3807 0.3754 -0.8450
vn -0.3821 0.3750 -0.8446
vn -0.3799 0.3757 -0.8453
vn -0.3839 0.3756 -0.8435
vn -0.3804 0.3763 -0.8448
vn -0.3817 0.3756 -0.8445
vn -0.3809 0.3757 -0.8448
vn -0.3796 0.3758 -0.8454
vn -0.3820 0.3753 -0.8445
vn -0.3806 0.3759 -0.8449
usemtl None
s 1
f 18//1 7//2 31//3
f 5//4 4//5 6//6
f 4//5 3//7 6//6
f 3//7 2//8 6//6
f 2//8 1//9 38//10
f 6//6 2//8 31//3
f 38//10 37//11 31//3
f 2//8 38//10 31//3
f 37//11 36//12 31//3
f 36//12 35//13 32//7
f 31//3 36//12 32//7
f 35//13 34//14 33//15
f 33//15 32//7 35//13
f 30//6 29//16 28//17
f 30//6 28//17 24//18
f 28//17 27//19 24//18
f 31//3 30//6 18//1
f 27//19 26//20 24//18
f 26//20 25//21 24//18
f 30//6 24//18 23//22
f 9//23 8//24 14//25
f 8//24 7//2 14//25
f 10//26 9//23 14//25
f 7//2 6//6 31//3
f 30//6 23//22 18//1
f 23//22 22//25 20//27
f 22//25 21//28 20//27
f 14//25 7//2 18//1
f 12//29 11//30 13//31
f 11//30 10//26 13//31
f 14//25 13//31 10//26
f 16//32 15//33 14//25
f 18//1 17//34 14//25
f 17//34 16//32 14//25
f 20//27 19//35 23//22
f 19//35 18//1 23//22
o 1_Macao_S.A.R_sphere.001
v -1.850097 1.890109 -4.242799
v -1.850297 1.889636 -4.242919
v -1.850097 1.889423 -4.243104
v -1.850069 1.889166 -4.243230
v -1.850204 1.888629 -4.243408
v -1.850205 1.888217 -4.243591
v -1.850007 1.887991 -4.243781
v -1.849658 1.887793 -4.244026
v -1.849277 1.887564 -4.244300
v -1.848943 1.887413 -4.244517
v -1.848564 1.887371 -4.244708
v -1.848244 1.887355 -4.244859
v -1.848018 1.886960 -4.245137
v -1.847518 1.887775 -4.245000
v -1.847594 1.888323 -4.244722
v -1.847755 1.888530 -4.244558
v -1.848067 1.889210 -4.244115
v -1.848352 1.889707 -4.243765
v -1.848184 1.889951 -4.243733
v -1.848072 1.889959 -4.243780
v -1.848154 1.889843 -4.243794
v -1.847757 1.889692 -4.244040
v -1.847481 1.890118 -4.243976
v -1.847799 1.890222 -4.243787
v -1.848250 1.890275 -4.243559
v -1.848323 1.890486 -4.243432
v -1.848458 1.890774 -4.243243
v -1.848914 1.890528 -4.243147
v -1.848925 1.890401 -4.243198
v -1.849262 1.890463 -4.243019
v -1.849624 1.890308 -4.242924
vn -0.3802 0.3752 -0.8453
vn -0.3813 0.3758 -0.8446
vn -0.3819 0.3751 -0.8446
vn -0.3843 0.3743 -0.8439
vn -0.3808 0.3748 -0.8452
vn -0.3809 0.3746 -0.8453
vn -0.3809 0.3750 -0.8451
vn -0.3806 0.3727 -0.8463
vn -0.3799 0.3753 -0.8454
vn -0.3730 0.3757 -0.8483
vn -0.3812 0.3757 -0.8447
vn -0.3821 0.3750 -0.8446
vn -0.3818 0.3756 -0.8445
vn -0.3804 0.3754 -0.8452
vn -0.3827 0.3742 -0.8447
vn -0.3806 0.3750 -0.8453
vn -0.3808 0.3743 -0.8455
vn -0.3852 0.3716 -0.8447
vn -0.3853 0.3746 -0.8433
vn -0.3819 0.3754 -0.8445
vn -0.3814 0.3753 -0.8448
vn -0.3815 0.3756 -0.8446
vn -0.3830 0.3755 -0.8440
vn -0.3811 0.3752 -0.8449
vn -0.3816 0.3754 -0.8447
vn -0.3809 0.3752 -0.8450
vn -0.3815 0.3750 -0.8449
vn -0.3822 0.3749 -0.8446
vn -0.3824 0.3754 -0.8442
vn -0.3815 0.3748 -0.8450
usemtl None
s 1
f 53//36 52//37 50//38
f 40//39 39//40 41//41
f 39//40 69//42 41//41
f 69//42 68//43 67//44
f 67//44 66//45 65//46
f 65//46 64//47 67//44
f 64//47 63//48 67//44
f 63//48 62//49 58//50
f 62//49 61//51 60//52
f 58//50 62//49 60//52
f 60//52 59//53 58//50
f 63//48 58//50 57//54
f 69//42 67//44 41//41
f 67//44 63//48 56//55
f 56//55 63//48 57//54
f 44//56 43//57 45//58
f 43//57 42//59 46//60
f 42//59 41//41 67//44
f 56//55 55//56 42//59
f 55//56 54//61 47//62
f 46//60 55//56 47//62
f 67//44 56//55 42//59
f 43//57 46//60 45//58
f 46//60 42//59 55//56
f 48//63 47//62 54//61
f 50//38 49//64 54//61
f 49//64 48//63 54//61
f 52//37 51//65 50//38
f 54//61 53//36 50//38
