# Blender v2.81 (sub 16) OBJ File: ''
# www.blender.org
mtllib Marshall Islands.mtl
o 0_Marshall_Islands_sphere.001
v -4.886663 0.398671 -0.977745
v -4.887416 0.400124 -0.973491
v -4.887518 0.400832 -0.972693
v -4.887714 0.403477 -0.970620
v -4.887722 0.401350 -0.971486
v -4.887563 0.399719 -0.972956
v -4.887210 0.398755 -0.975071
vn -0.9756 0.0859 -0.2018
vn -0.9756 0.0857 -0.2018
vn -0.9755 0.0868 -0.2019
vn -0.9755 0.0865 -0.2022
vn -0.9755 0.0871 -0.2021
vn -0.9755 0.0870 -0.2021
vn -0.9755 0.0865 -0.2021
usemtl None
s 1
f 5//1 4//2 3//3
f 2//4 1//5 7//6
f 7//6 6//7 2//4
f 6//7 5//1 3//3
f 2//4 6//7 3//3
o 1_Marshall_Islands_sphere.001
v -4.868658 0.487520 -1.025389
v -4.868812 0.487448 -1.024684
v -4.868864 0.487100 -1.024606
v -4.868899 0.487615 -1.024179
v -4.868907 0.488337 -1.023777
v -4.868868 0.489076 -1.023592
v -4.868786 0.489825 -1.023610
v -4.868666 0.490543 -1.023825
v -4.868906 0.489459 -1.023213
v -4.868981 0.487988 -1.023596
vn -0.9744 0.1016 -0.2007
vn -0.9741 0.1019 -0.2016
vn -0.9742 0.1009 -0.2018
vn -0.9743 0.1002 -0.2017
vn -0.9743 0.1004 -0.2017
vn -0.9741 0.1021 -0.2018
vn -0.9743 0.1025 -0.2007
vn -0.9742 0.1034 -0.2007
vn -0.9742 0.1032 -0.2007
vn -0.9743 0.0994 -0.2019
usemtl None
s 1
f 13//8 12//9 17//10
f 10//11 9//12 8//13
f 16//14 15//15 14//16
f 16//14 14//16 13//8
f 12//9 11//17 17//10
f 16//14 13//8 17//10
f 10//11 11//17 9//12
o 2_Marshall_Islands_sphere.001
v -4.886034 0.491199 -0.939625
v -4.885972 0.492167 -0.939440
v -4.886062 0.492003 -0.939089
vn -0.9741 0.1028 -0.2012
usemtl None
s 1
f 19//18 18//18 20//18
o 3_Marshall_Islands_sphere.001
v -4.892342 0.505107 -0.896566
v -4.891952 0.505301 -0.898685
v -4.892149 0.506254 -0.896982
v -4.892205 0.506799 -0.896340
v -4.892216 0.507586 -0.895808
v -4.892196 0.508697 -0.895263
v -4.892067 0.511325 -0.894436
v -4.891756 0.515383 -0.893802
v -4.891685 0.517617 -0.892884
v -4.891831 0.519192 -0.891106
v -4.892062 0.520495 -0.889005
v -4.892187 0.521972 -0.887413
v -4.892249 0.523712 -0.886017
v -4.892370 0.520542 -0.887209
v -4.891863 0.517265 -0.892066
v -4.892014 0.513881 -0.893217
v -4.892206 0.511289 -0.893658
v -4.892372 0.507735 -0.894827
vn -0.9799 0.1014 -0.1715
vn -0.9800 0.1012 -0.1709
vn -0.9799 0.1014 -0.1718
vn -0.9799 0.1023 -0.1710
vn -0.9800 0.1013 -0.1709
vn -0.9800 0.1015 -0.1708
vn -0.9801 0.1013 -0.1707
vn -0.9801 0.1014 -0.1708
vn -0.9800 0.1018 -0.1709
vn -0.9801 0.1021 -0.1702
vn -0.9800 0.1020 -0.1707
vn -0.9801 0.1017 -0.1704
vn -0.9801 0.1016 -0.1706
vn -0.9801 0.1018 -0.1702
vn -0.9799 0.1020 -0.1712
vn -0.9798 0.1023 -0.1716
vn -0.9799 0.1019 -0.1711
vn -0.9799 0.1018 -0.1711
usemtl None
s 1
f 38//19 26//20 25//21
f 31//22 30//23 34//24
f 30//23 29//25 35//26
f 29//25 28//27 35//26
f 28//27 27//28 36//29
f 34//24 33//30 32//31
f 35//26 34//24 30//23
f 34//24 32//31 31//22
f 38//19 37//32 26//20
f 37//32 36//29 27//28
f 26//20 37//32 27//28
f 21//33 38//19 24//34
f 36//29 35//26 28//27
f 23//35 22//36 21//33
f 24//34 23//35 21//33
f 25//21 24//34 38//19
o 4_Marshall_Islands_sphere.001
v -4.923360 0.527262 -0.689323
v -4.923079 0.527445 -0.691161
v -4.922824 0.527051 -0.693242
v -4.922558 0.527063 -0.695105
v -4.922281 0.528288 -0.696163
v -4.922379 0.528132 -0.695582
v -4.922518 0.527943 -0.694745
v -4.922888 0.527856 -0.692205
vn -0.9848 0.1026 -0.1400
vn -0.9848 0.1027 -0.1401
vn -0.9848 0.1024 -0.1400
vn -0.9850 0.1007 -0.1403
vn -0.9849 0.1017 -0.1401
vn -0.9850 0.1008 -0.1403
vn -0.9847 0.1034 -0.1398
vn -0.9847 0.1039 -0.1399
usemtl None
s 1
f 42//37 41//38 45//39
f 39//40 46//41 40//42
f 46//41 45//39 41//38
f 40//42 46//41 41//38
f 44//43 43//44 42//37
f 45//39 44//43 42//37
o 5_Marshall_Islands_sphere.001
v -4.919659 0.529437 -0.713746
v -4.919575 0.529446 -0.714334
v -4.919449 0.529453 -0.715211
v -4.919347 0.529814 -0.715667
v -4.919269 0.530468 -0.715742
v -4.919209 0.531399 -0.715483
v -4.919292 0.531047 -0.715154
v -4.919388 0.530567 -0.714830
v -4.919598 0.529792 -0.713921
vn -0.9849 0.1018 -0.1402
vn -0.9849 0.1019 -0.1399
vn -0.9848 0.1023 -0.1402
vn -0.9849 0.1018 -0.1398
vn -0.9849 0.1018 -0.1399
vn -0.9847 0.1027 -0.1403
vn -0.9848 0.1022 -0.1403
vn -0.9848 0.1021 -0.1404
vn -0.9849 0.1016 -0.1404
usemtl None
s 1
f 49//45 48//46 54//47
f 47//48 55//49 48//46
f 55//49 54//47 48//46
f 54//47 53//50 51//51
f 53//50 52//52 51//51
f 51//51 50//53 54//47
f 50//53 49//45 54//47
o 6_Marshall_Islands_sphere.001
v -4.908774 0.610997 -0.723896
v -4.909537 0.611249 -0.718325
v -4.909731 0.610991 -0.717182
v -4.910633 0.607933 -0.713411
v -4.911036 0.606847 -0.711489
v -4.910679 0.607145 -0.713749
v -4.909857 0.609835 -0.717266
v -4.909446 0.610402 -0.719680
v -4.908948 0.609798 -0.723678
v -4.908595 0.610597 -0.725491
v -4.908084 0.613359 -0.726758
v -4.908340 0.612224 -0.725916
v -4.908565 0.611413 -0.725018
vn -0.9832 0.1170 -0.1400
vn -0.9832 0.1174 -0.1398
vn -0.9832 0.1172 -0.1399
vn -0.9832 0.1173 -0.1400
vn -0.9831 0.1174 -0.1403
vn -0.9831 0.1177 -0.1401
vn -0.9831 0.1178 -0.1399
vn -0.9832 0.1169 -0.1399
vn -0.9831 0.1176 -0.1400
vn -0.9831 0.1176 -0.1401
vn -0.9832 0.1172 -0.1400
vn -0.9832 0.1174 -0.1399
usemtl None
s 1
f 56//54 68//55 65//56
f 59//57 58//58 62//59
f 58//58 57//60 62//59
f 61//57 60//61 59//57
f 62//59 61//57 59//57
f 67//62 66//63 65//56
f 65//56 64//64 56//54
f 64//64 63//65 56//54
f 63//65 62//59 57//60
f 63//65 57//60 56//54
f 68//55 67//62 65//56
o 7_Marshall_Islands_sphere.001
v -4.910648 0.610949 -0.710767
v -4.910625 0.611762 -0.710247
v -4.910628 0.614025 -0.708324
v -4.910630 0.614261 -0.708118
v -4.910621 0.614474 -0.707995
v -4.910627 0.614627 -0.707824
v -4.910658 0.614692 -0.707557
v -4.910710 0.613566 -0.708132
v -4.910725 0.612568 -0.708870
v -4.910703 0.611692 -0.709759
vn -0.9830 0.1191 -0.1398
vn -0.9831 0.1182 -0.1395
vn -0.9831 0.1180 -0.1398
vn -0.9830 0.1188 -0.1402
vn -0.9820 0.1260 -0.1404
vn -0.9828 0.1166 -0.1431
vn -0.9833 0.1163 -0.1397
vn -0.9832 0.1168 -0.1405
vn -0.9832 0.1174 -0.1396
vn -0.9832 0.1174 -0.1399
usemtl None
s 1
f 78//66 77//67 70//68
f 75//69 74//70 73//71
f 72//72 71//73 76//74
f 71//73 70//68 77//67
f 75//69 73//71 72//72
f 77//67 76//74 71//73
f 76//74 75//69 72//72
f 69//75 78//66 70//68
o 8_Marshall_Islands_sphere.001
v -4.911486 0.617124 -0.699697
v -4.911500 0.617396 -0.699367
v -4.911533 0.617557 -0.699001
v -4.911619 0.617812 -0.698184
v -4.911653 0.618365 -0.697479
v -4.911636 0.618939 -0.697111
v -4.911560 0.619521 -0.697162
v -4.911420 0.620099 -0.697660
v -4.911655 0.619506 -0.696507
v -4.911735 0.618299 -0.696963
v -4.911675 0.617250 -0.698260
vn -0.9832 0.1170 -0.1403
vn -0.9834 0.1154 -0.1401
vn -0.9829 0.1191 -0.1400
vn -0.9831 0.1176 -0.1401
vn -0.9829 0.1196 -0.1396
vn -0.9831 0.1186 -0.1397
vn -0.9831 0.1169 -0.1406
vn -0.9830 0.1188 -0.1399
vn -0.9834 0.1158 -0.1399
vn -0.9835 0.1151 -0.1399
vn -0.9830 0.1188 -0.1398
usemtl None
s 1
f 88//76 83//77 82//78
f 87//79 86//80 85//81
f 87//79 85//81 84//82
f 89//83 88//76 82//78
f 88//76 87//79 84//82
f 83//77 88//76 84//82
f 80//84 79//85 89//83
f 82//78 81//86 89//83
f 81//86 80//84 89//83
o 9_Marshall_Islands_sphere.001
v -4.903510 0.615866 -0.756795
v -4.903644 0.615883 -0.755838
v -4.903911 0.616302 -0.753612
v -4.904095 0.616954 -0.751769
v -4.905205 0.618813 -0.742406
v -4.905035 0.617476 -0.744729
v -4.904250 0.616550 -0.751022
v -4.904041 0.615166 -0.753647
v -4.903700 0.615169 -0.756043
v -4.903246 0.615586 -0.758880
v -4.900884 0.621058 -0.770884
v -4.900376 0.622769 -0.773012
v -4.900397 0.624118 -0.771736
v -4.900497 0.623283 -0.771729
v -4.900581 0.622745 -0.771591
v -4.900756 0.621759 -0.771193
vn -0.9832 0.1166 -0.1400
vn -0.9832 0.1173 -0.1400
vn -0.9831 0.1179 -0.1399
vn -0.9832 0.1172 -0.1399
vn -0.9832 0.1170 -0.1400
vn -0.9832 0.1172 -0.1400
vn -0.9832 0.1173 -0.1399
vn -0.9832 0.1176 -0.1398
vn -0.9832 0.1174 -0.1398
vn -0.9831 0.1179 -0.1400
vn -0.9831 0.1181 -0.1399
vn -0.9832 0.1169 -0.1400
vn -0.9831 0.1178 -0.1399
usemtl None
s 1
f 105//87 101//88 100//88
f 94//89 93//90 95//89
f 93//90 92//91 97//92
f 95//89 93//90 96//93
f 96//93 93//90 97//92
f 98//94 97//92 91//95
f 91//95 97//92 92//91
f 100//88 99//96 105//87
f 99//96 98//94 90//97
f 105//87 99//96 90//97
f 103//92 102//98 101//88
f 104//99 103//92 101//88
f 98//94 91//95 90//97
f 105//87 104//99 101//88
o 10_Marshall_Islands_sphere.001
v -4.863708 0.635939 -0.966761
v -4.864975 0.635950 -0.960635
v -4.864891 0.634612 -0.961927
v -4.864466 0.634688 -0.963926
v -4.863544 0.635614 -0.967764
v -4.862557 0.636410 -0.972006
v -4.862109 0.637056 -0.973741
v -4.862019 0.638288 -0.973361
v -4.862431 0.637134 -0.972135
v -4.862896 0.636574 -0.970258
v -4.863352 0.636036 -0.968412
vn -0.9705 0.1331 -0.2010
vn -0.9706 0.1325 -0.2010
vn -0.9706 0.1323 -0.2010
vn -0.9705 0.1333 -0.2010
vn -0.9709 0.1304 -0.2010
vn -0.9707 0.1320 -0.2007
vn -0.9705 0.1329 -0.2010
vn -0.9707 0.1313 -0.2010
vn -0.9704 0.1336 -0.2011
vn -0.9704 0.1333 -0.2011
usemtl None
s 1
f 115//100 114//101 111//102
f 114//101 113//103 112//100
f 112//100 111//102 114//101
f 111//102 110//104 115//100
f 115//100 110//104 116//105
f 110//104 109//106 106//107
f 109//106 108//108 107//109
f 106//107 109//106 107//109
f 106//107 116//105 110//104
o 11_Marshall_Islands_sphere.001
v -4.859438 0.644251 -0.981875
v -4.859116 0.644996 -0.982939
v -4.858762 0.646516 -0.983644
v -4.858512 0.648209 -0.983726
v -4.858501 0.649459 -0.982953
v -4.858725 0.648293 -0.982642
v -4.859209 0.645431 -0.982200
vn -0.9705 0.1339 -0.2005
vn -0.9704 0.1345 -0.2005
vn -0.9705 0.1337 -0.2005
vn -0.9705 0.1331 -0.2007
vn -0.9705 0.1331 -0.2006
vn -0.9706 0.1328 -0.2007
vn -0.9705 0.1332 -0.2007
usemtl None
s 1
f 118//110 117//111 123//112
f 123//112 122//113 119//114
f 122//113 121//115 120//116
f 119//114 122//113 120//116
f 119//114 118//110 123//112
o 12_Marshall_Islands_sphere.001
v -4.864402 0.658741 -0.948313
v -4.864310 0.659038 -0.948564
v -4.864277 0.659549 -0.948381
v -4.864243 0.659885 -0.948327
v -4.864056 0.660510 -0.948815
v -4.863821 0.660854 -0.949724
v -4.863587 0.660908 -0.950813
v -4.863667 0.661056 -0.950329
v -4.863790 0.661155 -0.949672
v -4.863934 0.661105 -0.949013
v -4.864071 0.660832 -0.948528
v -4.864237 0.660075 -0.948227
v -4.864279 0.659832 -0.948183
v -4.864328 0.659380 -0.948249
vn -0.9708 0.1327 -0.1998
vn -0.9706 0.1338 -0.2000
vn -0.9707 0.1336 -0.1994
vn -0.9708 0.1314 -0.2006
vn -0.9705 0.1333 -0.2009
vn -0.9705 0.1331 -0.2009
vn -0.9704 0.1337 -0.2010
vn -0.9706 0.1321 -0.2012
vn -0.9705 0.1326 -0.2011
vn -0.9702 0.1348 -0.2011
vn -0.9702 0.1353 -0.2011
vn -0.9709 0.1326 -0.1993
vn -0.9710 0.1325 -0.1990
vn -0.9707 0.1331 -0.2000
usemtl None
s 1
f 127//117 126//118 136//119
f 136//119 135//120 127//117
f 135//120 134//121 128//122
f 127//117 135//120 128//122
f 134//121 133//123 128//122
f 133//123 132//124 129//125
f 132//124 131//126 129//125
f 131//126 130//127 129//125
f 125//128 124//129 137//130
f 126//118 125//128 137//130
f 133//123 129//125 128//122
f 126//118 137//130 136//119
o 13_Marshall_Islands_sphere.001
v -4.828227 0.722657 -1.079233
v -4.828398 0.722392 -1.078601
v -4.828162 0.723301 -1.079068
vn -0.9684 0.1477 -0.2009
usemtl None
s 1
f 138//131 139//131 140//131
o 14_Marshall_Islands_sphere.001
v -4.828782 0.758354 -1.050061
v -4.828695 0.758848 -1.050114
v -4.828626 0.759267 -1.050136
v -4.828617 0.759651 -1.049896
v -4.828691 0.760010 -1.049275
v -4.828792 0.759477 -1.049178
v -4.828820 0.759088 -1.049331
vn -0.9684 0.1484 -0.2004
vn -0.9684 0.1481 -0.2007
vn -0.9684 0.1484 -0.2005
vn -0.9682 0.1492 -0.2006
vn -0.9682 0.1500 -0.2003
vn -0.9683 0.1495 -0.2002
vn -0.9685 0.1480 -0.2001
usemtl None
s 1
f 147//132 146//133 144//134
f 146//133 145//135 144//134
f 144//134 143//136 147//132
f 143//136 142//137 147//132
f 142//137 141//138 147//132
o 15_Marshall_Islands_sphere.001
v -4.876776 0.772345 -0.785961
v -4.876673 0.772484 -0.786434
v -4.876646 0.772538 -0.786542
v -4.876570 0.773387 -0.786232
v -4.876591 0.773574 -0.785945
v -4.876663 0.773631 -0.785484
v -4.876734 0.773323 -0.785344
vn -0.9742 0.1485 -0.1695
vn -0.9742 0.1485 -0.1700
vn -0.9742 0.1486 -0.1697
vn -0.9741 0.1481 -0.1706
vn -0.9742 0.1481 -0.1700
vn -0.9739 0.1490 -0.1710
vn -0.9742 0.1486 -0.1700
usemtl None
s 1
f 148//139 154//140 151//141
f 154//140 153//142 152//143
f 152//143 151//141 154//140
f 151//141 150//144 149//145
f 148//139 151//141 149//145
o 16_Marshall_Islands_sphere.001
v -4.860027 0.820788 -0.835966
v -4.859766 0.822241 -0.836053
v -4.859847 0.822221 -0.835613
v -4.860016 0.821471 -0.835367
vn -0.9717 0.1641 -0.1697
vn -0.9717 0.1644 -0.1695
vn -0.9718 0.1636 -0.1698
vn -0.9717 0.1646 -0.1695
usemtl None
s 1
f 156//146 158//147 157//148
f 156//146 155//149 158//147
o 17_Marshall_Islands_sphere.001
v -4.857238 0.891776 -0.780221
v -4.857048 0.892812 -0.780212
v -4.857100 0.892864 -0.779859
v -4.857288 0.891827 -0.779876
vn -0.9692 0.1789 -0.1690
vn -0.9693 0.1788 -0.1687
vn -0.9692 0.1789 -0.1692
vn -0.9693 0.1788 -0.1685
usemtl None
s 1
f 160//150 162//151 161//152
f 160//150 159//153 162//151
o 18_Marshall_Islands_sphere.001
v -4.776935 0.966324 -1.113814
v -4.776492 0.966359 -1.115626
v -4.775908 0.967549 -1.117044
v -4.776577 0.967822 -1.114029
v -4.777047 0.968725 -1.111302
v -4.777142 0.967214 -1.112194
vn -0.9536 0.1952 -0.2289
vn -0.9536 0.1954 -0.2289
vn -0.9537 0.1950 -0.2290
vn -0.9537 0.1950 -0.2289
vn -0.9537 0.1949 -0.2291
usemtl None
s 1
f 168//154 167//155 166//156
f 166//156 165//157 164//156
f 164//156 163//158 166//156
f 163//158 168//154 166//156
o 19_Marshall_Islands_sphere.001
v -4.742560 1.007061 -1.221770
v -4.742023 1.008255 -1.222833
v -4.742095 1.008198 -1.222615
v -4.742221 1.008022 -1.222288
v -4.742370 1.007678 -1.222004
vn -0.9467 0.1916 -0.2590
vn -0.9462 0.1925 -0.2599
vn -0.9468 0.1915 -0.2586
vn -0.9463 0.1923 -0.2599
vn -0.9450 0.1974 -0.2608
usemtl None
s 1
f 170//159 173//160 171//161
f 169//162 173//160 170//159
f 173//160 172//163 171//161
o 20_Marshall_Islands_sphere.001
v -4.735119 1.013934 -1.243791
v -4.735195 1.013934 -1.243514
v -4.735199 1.013501 -1.243825
v -4.734983 1.014585 -1.243756
v -4.735044 1.014791 -1.243367
v -4.735177 1.014380 -1.243217
vn -0.9444 0.2028 -0.2589
vn -0.9460 0.1947 -0.2592
vn -0.9438 0.2055 -0.2588
vn -0.9429 0.2098 -0.2586
vn -0.9430 0.2095 -0.2586
vn -0.9429 0.2099 -0.2586
usemtl None
s 1
f 174//164 176//165 175//166
f 179//167 178//168 177//169
f 174//164 175//166 177//169
f 175//166 179//167 177//169
o 21_Marshall_Islands_sphere.001
v -4.749377 1.259158 -0.924283
v -4.749300 1.260184 -0.923311
v -4.749267 1.261122 -0.922248
v -4.749310 1.261155 -0.921993
v -4.749371 1.260499 -0.922556
v -4.749404 1.259683 -0.923466
vn -0.9464 0.2562 -0.1964
vn -0.9472 0.2540 -0.1955
vn -0.9465 0.2566 -0.1958
vn -0.9467 0.2554 -0.1962
vn -0.9468 0.2551 -0.1961
vn -0.9465 0.2559 -0.1966
usemtl None
s 1
f 185//170 184//171 181//172
f 183//173 182//174 184//171
f 182//174 181//172 184//171
f 181//172 180//175 185//170
