# Blender v2.81 (sub 16) OBJ File: ''
# www.blender.org
mtllib Monaco.mtl
o 0_Monaco_sphere.001
v 3.581877 3.456716 -0.467290
v 3.582552 3.456141 -0.466432
v 3.583446 3.455324 -0.465682
v 3.583568 3.455417 -0.464197
v 3.583503 3.455627 -0.463231
v 3.582784 3.456372 -0.463235
v 3.582048 3.457100 -0.463480
v 3.581193 3.457863 -0.464319
v 3.580689 3.458214 -0.465489
v 3.581016 3.457687 -0.466762
v 3.581647 3.456915 -0.467550
vn 0.7164 0.6902 -0.1020
vn 0.7164 0.6902 -0.1019
vn 0.7164 0.6902 -0.1021
vn 0.7162 0.6903 -0.1025
vn 0.7163 0.6902 -0.1020
vn 0.7165 0.6901 -0.1021
vn 0.7164 0.6901 -0.1019
vn 0.7164 0.6903 -0.1013
vn 0.7163 0.6903 -0.1018
vn 0.7164 0.6902 -0.1017
vn 0.7164 0.6901 -0.1022
usemtl None
s 1
f 2//1 1//2 10//3
f 11//4 10//3 1//2
f 10//3 9//5 2//1
f 9//5 8//6 2//1
f 8//6 7//7 2//1
f 7//7 6//8 4//9
f 6//8 5//10 4//9
f 7//7 4//9 2//1
f 4//9 3//11 2//1
