# Blender v2.81 (sub 16) OBJ File: ''
# www.blender.org
mtllib Montserrat.mtl
o 0_Montserrat_sphere.001
v 2.236690 1.439682 4.232888
v 2.236541 1.438632 4.233322
v 2.236646 1.438295 4.233380
v 2.236950 1.437917 4.233347
v 2.237270 1.437332 4.233376
v 2.237577 1.436753 4.233410
v 2.237685 1.436301 4.233505
v 2.237535 1.435617 4.233816
v 2.237176 1.435057 4.234196
v 2.236633 1.434696 4.234606
v 2.235919 1.434535 4.235038
v 2.231994 1.435642 4.236742
v 2.230714 1.438898 4.236318
v 2.230989 1.442982 4.234790
v 2.231701 1.446580 4.233195
v 2.232699 1.446156 4.232810
v 2.233203 1.446003 4.232595
v 2.233800 1.446050 4.232263
v 2.233681 1.444501 4.232851
v 2.234578 1.443029 4.232873
v 2.235778 1.441628 4.232712
v 2.236633 1.440295 4.232711
vn 0.4484 0.2865 0.8466
vn 0.4482 0.2867 0.8467
vn 0.4483 0.2866 0.8467
vn 0.4498 0.2853 0.8463
vn 0.4469 0.2867 0.8473
vn 0.4464 0.2870 0.8475
vn 0.4478 0.2867 0.8469
vn 0.4480 0.2865 0.8468
vn 0.4486 0.2866 0.8465
vn 0.4487 0.2861 0.8466
vn 0.4487 0.2862 0.8466
vn 0.4481 0.2865 0.8468
vn 0.4482 0.2865 0.8467
vn 0.4449 0.2868 0.8484
vn 0.4479 0.2865 0.8469
vn 0.4492 0.2865 0.8462
vn 0.4484 0.2864 0.8467
vn 0.4483 0.2865 0.8467
vn 0.4480 0.2867 0.8468
usemtl None
s 1
f 19//1 16//2 14//3
f 7//4 6//5 8//6
f 6//5 5//7 8//6
f 5//7 4//8 11//9
f 4//8 3//10 11//9
f 2//11 1//12 21//13
f 1//12 22//14 21//13
f 8//6 5//7 9//15
f 9//15 5//7 10//16
f 2//11 21//13 13//13
f 21//13 20//17 14//3
f 13//13 21//13 14//3
f 10//16 5//7 11//9
f 3//10 2//11 12//13
f 19//1 18//18 17//19
f 2//11 13//13 12//13
f 20//17 19//1 14//3
f 12//13 11//9 3//10
f 16//2 15//19 14//3
f 19//1 17//19 16//2
