# Blender v2.81 (sub 16) OBJ File: ''
# www.blender.org
mtllib Puerto Rico.mtl
o 0_Puerto_Rico_sphere.001
v 1.789688 1.549287 4.403609
v 1.788953 1.549391 4.403876
v 1.788601 1.549621 4.403939
v 1.788000 1.550362 4.403921
v 1.785698 1.551613 4.404422
v 1.785013 1.552746 4.404297
v 1.785377 1.553949 4.403712
v 1.786189 1.554426 4.403203
v 1.790612 1.554547 4.401328
v 1.791095 1.554434 4.401168
v 1.792059 1.553583 4.401076
v 1.792155 1.553023 4.401239
v 1.791789 1.552428 4.401605
v 1.791213 1.551010 4.402356
v 1.790928 1.550650 4.402604
v 1.790721 1.550244 4.402836
v 1.790687 1.549613 4.403078
v 1.790396 1.549385 4.403281
vn 0.3630 0.3165 0.8763
vn 0.3632 0.3165 0.8763
vn 0.3629 0.3165 0.8764
vn 0.3617 0.3165 0.8769
vn 0.3627 0.3165 0.8765
vn 0.3630 0.3164 0.8764
vn 0.3635 0.3167 0.8761
vn 0.3631 0.3164 0.8763
vn 0.3634 0.3164 0.8762
vn 0.3630 0.3165 0.8764
vn 0.3624 0.3165 0.8766
vn 0.3628 0.3164 0.8765
vn 0.3629 0.3164 0.8764
vn 0.3626 0.3158 0.8768
vn 0.3630 0.3160 0.8766
vn 0.3634 0.3157 0.8765
vn 0.3652 0.3158 0.8757
vn 0.3628 0.3170 0.8763
usemtl None
s 1
f 14//1 9//2 4//3
f 12//4 11//5 13//6
f 11//5 10//7 13//6
f 10//7 9//2 13//6
f 9//2 8//8 4//3
f 8//8 7//9 5//10
f 7//9 6//11 5//10
f 5//10 4//3 8//8
f 4//3 3//12 16//13
f 3//12 2//14 1//15
f 16//13 3//12 1//15
f 1//15 18//16 16//13
f 18//16 17//17 16//13
f 15//18 14//1 4//3
f 14//1 13//6 9//2
f 16//13 15//18 4//3
o 1_Puerto_Rico_sphere.001
v 1.986647 1.555995 4.315891
v 1.984599 1.556133 4.316766
v 1.984105 1.555945 4.317058
v 1.982826 1.554907 4.318015
v 1.982489 1.554417 4.318346
v 1.981954 1.554417 4.318588
v 1.981204 1.555102 4.318676
v 1.980137 1.554841 4.319253
v 1.978775 1.554199 4.320103
v 1.973054 1.552749 4.323216
v 1.971962 1.552148 4.323930
v 1.970327 1.552683 4.324472
v 1.968020 1.552390 4.325622
v 1.965768 1.552701 4.326524
v 1.964302 1.555023 4.326336
v 1.965456 1.555045 4.325807
v 1.965855 1.555037 4.325630
v 1.967329 1.555179 4.324912
v 1.968749 1.555742 4.324065
v 1.969974 1.556616 4.323192
v 1.970944 1.557546 4.322413
v 1.971598 1.557921 4.321981
v 1.977496 1.558935 4.318947
v 1.978475 1.558795 4.318556
v 1.981245 1.557829 4.317659
v 1.985238 1.557671 4.315914
v 1.986260 1.557257 4.315604
v 1.987138 1.556305 4.315556
vn 0.3904 0.3165 0.8645
vn 0.3891 0.3167 0.8650
vn 0.3899 0.3166 0.8647
vn 0.3903 0.3164 0.8646
vn 0.3902 0.3165 0.8646
vn 0.3905 0.3163 0.8645
vn 0.3904 0.3164 0.8646
vn 0.3906 0.3164 0.8645
vn 0.3903 0.3165 0.8646
vn 0.3904 0.3164 0.8645
vn 0.3905 0.3165 0.8645
vn 0.3905 0.3164 0.8645
vn 0.3910 0.3162 0.8643
vn 0.3906 0.3168 0.8643
vn 0.3907 0.3163 0.8644
vn 0.3906 0.3164 0.8644
vn 0.3900 0.3166 0.8647
vn 0.3901 0.3164 0.8647
vn 0.3892 0.3167 0.8650
vn 0.3911 0.3164 0.8642
vn 0.3902 0.3166 0.8646
usemtl None
s 1
f 32//19 31//19 35//20
f 46//21 45//22 19//22
f 45//22 44//23 20//24
f 19//22 45//22 20//24
f 43//25 42//26 26//21
f 42//26 41//26 27//27
f 26//21 42//26 27//27
f 44//23 43//25 21//25
f 20//24 44//23 21//25
f 41//26 40//28 27//27
f 40//28 39//29 28//28
f 39//29 38//30 28//28
f 24//31 23//32 22//33
f 22//33 21//25 43//25
f 38//30 37//22 30//34
f 40//28 28//28 27//27
f 37//22 36//35 31//19
f 24//31 22//33 25//36
f 22//33 43//25 25//36
f 25//36 43//25 26//21
f 28//28 38//30 30//34
f 35//20 34//37 32//19
f 34//37 33//38 32//19
f 36//35 35//20 31//19
f 30//34 29//39 28//28
f 30//34 37//22 31//19
o 2_Puerto_Rico_sphere.001
v 1.987553 1.570330 4.310235
v 1.987349 1.570280 4.310345
v 1.986532 1.570331 4.310696
v 1.987112 1.569782 4.310635
v 1.986322 1.569738 4.311007
v 1.985674 1.569915 4.311235
v 1.985190 1.570316 4.311307
v 1.984911 1.570938 4.311205
v 1.984387 1.570949 4.311438
v 1.985282 1.569537 4.311551
v 1.985492 1.568879 4.311697
v 1.985289 1.568068 4.312085
v 1.984002 1.569772 4.312043
v 1.980441 1.572865 4.312518
v 1.980425 1.573142 4.312424
v 1.982278 1.573162 4.311581
v 1.984487 1.572698 4.310752
v 1.986442 1.571767 4.310210
vn 0.3904 0.3167 0.8644
vn 0.3904 0.3164 0.8646
vn 0.3904 0.3166 0.8645
vn 0.3906 0.3161 0.8645
vn 0.3903 0.3164 0.8646
vn 0.3907 0.3164 0.8644
vn 0.3905 0.3164 0.8645
vn 0.3902 0.3161 0.8647
vn 0.3904 0.3162 0.8646
vn 0.3905 0.3165 0.8645
vn 0.3912 0.3164 0.8642
vn 0.3909 0.3165 0.8643
vn 0.3905 0.3166 0.8644
vn 0.3908 0.3163 0.8644
vn 0.3901 0.3165 0.8646
vn 0.3902 0.3168 0.8645
vn 0.3911 0.3165 0.8642
usemtl None
s 1
f 49//40 48//41 64//42
f 47//43 64//42 48//41
f 64//42 63//44 54//45
f 63//44 62//46 55//46
f 62//46 61//47 60//48
f 63//44 55//46 54//45
f 60//48 59//49 62//46
f 59//49 58//50 57//51
f 57//51 56//52 59//49
f 56//52 55//46 59//49
f 54//45 53//53 49//40
f 53//53 52//54 49//40
f 52//54 51//55 49//40
f 59//49 55//46 62//46
f 51//55 50//56 49//40
f 64//42 54//45 49//40
o 3_Puerto_Rico_sphere.001
v 1.888545 1.545083 4.364180
v 1.842762 1.545083 4.383143
v 1.874739 1.545083 4.369898
v 1.875453 1.545083 4.369603
v 1.944324 1.545083 4.338995
v 1.888886 1.542366 4.364968
v 1.883188 1.585515 4.351799
v 1.859750 1.585169 4.361632
v 1.867557 1.586253 4.358007
v 1.868665 1.586108 4.357601
v 1.871681 1.585107 4.356713
v 1.872816 1.585035 4.356268
v 1.875705 1.585738 4.354818
v 1.879998 1.586164 4.352886
v 1.882055 1.585916 4.352123
v 1.843253 1.545341 4.382847
v 1.843752 1.545642 4.382532
v 1.844450 1.545866 4.382162
v 1.844984 1.546186 4.381824
v 1.845155 1.546810 4.381529
v 1.844787 1.547254 4.381521
v 1.843999 1.547628 4.381712
v 1.843030 1.547438 4.382182
v 1.841989 1.547893 4.382449
v 1.841831 1.549447 4.381953
v 1.842260 1.550225 4.381495
v 1.842934 1.550778 4.381016
v 1.842506 1.551616 4.380890
v 1.842010 1.552998 4.380598
v 1.842713 1.553852 4.379998
v 1.842329 1.556522 4.379192
v 1.842714 1.559530 4.377947
v 1.843234 1.560188 4.377494
v 1.843786 1.560814 4.377038
v 1.844095 1.561780 4.376562
v 1.843460 1.562657 4.376509
v 1.842391 1.563555 4.376627
v 1.840648 1.567524 4.375916
v 1.839738 1.569057 4.375740
v 1.837968 1.569410 4.376345
v 1.836540 1.569736 4.376819
v 1.835027 1.572178 4.376564
v 1.834111 1.573398 4.376502
v 1.833275 1.574871 4.376317
v 1.833374 1.575473 4.376059
v 1.835460 1.576138 4.374955
v 1.837114 1.576888 4.373998
v 1.838486 1.577527 4.373199
v 1.839466 1.578229 4.372540
v 1.841191 1.579787 4.371263
v 1.841031 1.581627 4.370665
v 1.840032 1.583071 4.370557
v 1.839678 1.585172 4.369945
v 1.840826 1.587050 4.368791
v 1.844502 1.588237 4.366840
v 1.848575 1.588109 4.365200
v 1.851507 1.586823 4.364450
v 1.942646 1.543907 4.340160
v 1.938899 1.542477 4.342349
v 1.937187 1.542520 4.343106
v 1.935413 1.542910 4.343772
v 1.933847 1.543067 4.344425
v 1.932951 1.542870 4.344897
v 1.930833 1.541929 4.346180
v 1.930318 1.541870 4.346433
v 1.928002 1.541947 4.347453
v 1.926493 1.541522 4.348281
v 1.922383 1.539059 4.350991
v 1.921447 1.538989 4.351438
v 1.920605 1.539030 4.351804
v 1.919882 1.538950 4.352159
v 1.919351 1.538570 4.352530
v 1.918956 1.539075 4.352533
v 1.918835 1.539306 4.352508
v 1.918729 1.539704 4.352417
v 1.919518 1.539943 4.351978
v 1.919673 1.540341 4.351770
v 1.919263 1.540844 4.351780
v 1.918515 1.541396 4.351927
v 1.917226 1.540029 4.352983
v 1.916390 1.539773 4.353449
v 1.915281 1.540051 4.353854
v 1.913153 1.540285 4.354734
v 1.912416 1.540479 4.354999
v 1.911962 1.540955 4.355039
v 1.911610 1.541500 4.355008
v 1.911156 1.541977 4.355048
v 1.910146 1.542523 4.355315
v 1.909448 1.542695 4.355570
v 1.908213 1.542616 4.356155
v 1.906520 1.542174 4.357073
v 1.904546 1.540627 4.358500
v 1.902987 1.540820 4.359138
v 1.901384 1.542039 4.359439
v 1.899946 1.543560 4.359560
v 1.898550 1.544434 4.359888
v 1.897187 1.544125 4.360610
v 1.896122 1.543987 4.361139
v 1.895373 1.543559 4.361626
v 1.894311 1.543337 4.362183
v 1.891838 1.543211 4.363342
v 1.891102 1.542781 4.363823
v 1.890385 1.542216 4.364343
v 1.889522 1.542052 4.364790
v 1.888226 1.542711 4.365123
v 1.887746 1.542333 4.365451
v 1.887215 1.542083 4.365757
v 1.886567 1.543008 4.365709
v 1.885251 1.543111 4.366219
v 1.882168 1.542671 4.367647
v 1.881591 1.542828 4.367832
v 1.879152 1.543732 4.368533
v 1.876009 1.543723 4.369838
v 1.875933 1.544866 4.369478
v 1.874214 1.544964 4.370157
v 1.873317 1.544344 4.370740
v 1.873397 1.543708 4.370925
v 1.874443 1.543716 4.370489
v 1.873722 1.542476 4.371212
v 1.872330 1.541607 4.372086
v 1.870638 1.541077 4.372968
v 1.869035 1.540804 4.373725
v 1.866637 1.540881 4.374692
v 1.865502 1.540766 4.375201
v 1.864611 1.540826 4.375550
v 1.864240 1.540775 4.375721
v 1.863997 1.540440 4.375937
v 1.863912 1.539885 4.376162
v 1.863973 1.539092 4.376408
v 1.862523 1.539244 4.376956
v 1.861332 1.540085 4.377162
v 1.859373 1.541957 4.377333
v 1.857806 1.542055 4.377948
v 1.856055 1.542363 4.378568
v 1.854197 1.542296 4.379361
v 1.853059 1.542651 4.379711
v 1.852105 1.541732 4.380421
v 1.850942 1.541031 4.381142
v 1.849832 1.540744 4.381700
v 1.848894 1.540877 4.382043
v 1.846211 1.541173 4.383053
v 1.844433 1.542128 4.383463
v 1.843671 1.541441 4.384014
v 1.844460 1.539531 4.384340
v 1.843620 1.539593 4.384667
v 1.842274 1.541330 4.384630
v 1.841804 1.542142 4.384547
v 1.841539 1.544454 4.383865
v 1.884176 1.585150 4.351487
v 1.885399 1.585398 4.350844
v 1.890253 1.585326 4.348679
v 1.893372 1.584389 4.347613
v 1.899604 1.585683 4.344326
v 1.905789 1.583804 4.342221
v 1.909098 1.584841 4.340347
v 1.913259 1.583499 4.338959
v 1.914018 1.584167 4.338372
v 1.915040 1.583998 4.337973
v 1.915681 1.583295 4.337940
v 1.916023 1.582833 4.337955
v 1.916697 1.582497 4.337774
v 1.917352 1.582940 4.337316
v 1.917849 1.583775 4.336786
v 1.918635 1.583520 4.336524
v 1.918535 1.582445 4.336963
v 1.920087 1.581634 4.336560
v 1.920445 1.580816 4.336697
v 1.921075 1.579783 4.336791
v 1.922243 1.579699 4.336294
v 1.924606 1.580496 4.334935
v 1.924515 1.581093 4.334758
v 1.923254 1.581276 4.335260
v 1.921790 1.582012 4.335652
v 1.920547 1.583145 4.335799
v 1.919500 1.584160 4.335899
v 1.924679 1.582507 4.334167
v 1.925926 1.582245 4.333699
v 1.926836 1.581919 4.333408
v 1.928103 1.581690 4.332920
v 1.929075 1.582179 4.332301
v 1.929612 1.583263 4.331662
v 1.931375 1.582877 4.331007
v 1.934991 1.581843 4.329753
v 1.936036 1.582673 4.328978
v 1.936991 1.582467 4.328622
v 1.937996 1.581751 4.328430
v 1.940508 1.581183 4.327504
v 1.941932 1.580411 4.327143
v 1.943514 1.578898 4.326983
v 1.944290 1.579292 4.326488
v 1.944714 1.580128 4.325991
v 1.945199 1.579959 4.325834
v 1.945350 1.579527 4.325924
v 1.945020 1.579076 4.326238
v 1.944815 1.578442 4.326562
v 1.945356 1.578587 4.326265
v 1.946101 1.578919 4.325808
v 1.946541 1.579239 4.325491
v 1.948077 1.577297 4.325509
v 1.949456 1.576554 4.325158
v 1.950353 1.577304 4.324479
v 1.952606 1.575650 4.324066
v 1.955292 1.575258 4.322998
v 1.956479 1.576245 4.322100
v 1.956985 1.576844 4.321653
v 1.957580 1.577289 4.321221
v 1.958189 1.577131 4.321004
v 1.958297 1.576572 4.321159
v 1.958123 1.572471 4.322739
v 1.958440 1.569019 4.323860
v 1.958876 1.568022 4.324028
v 1.958716 1.567006 4.324472
v 1.959324 1.566422 4.324411
v 1.960003 1.566144 4.324207
v 1.960968 1.566681 4.323574
v 1.960857 1.565912 4.323905
v 1.961148 1.565306 4.323997
v 1.962235 1.564041 4.323968
v 1.961524 1.563438 4.324510
v 1.961520 1.562731 4.324770
v 1.960854 1.562672 4.325093
v 1.959953 1.563893 4.325053
v 1.959117 1.563897 4.325429
v 1.958950 1.562996 4.325834
v 1.959852 1.561963 4.325805
v 1.959200 1.561321 4.326334
v 1.958270 1.561477 4.326697
v 1.956922 1.562157 4.327057
v 1.955657 1.561697 4.327796
v 1.954358 1.560979 4.328646
v 1.952928 1.560631 4.329419
v 1.951781 1.560047 4.330151
v 1.950642 1.558660 4.331173
v 1.948555 1.554357 4.333690
v 1.948645 1.552174 4.334448
v 1.947778 1.550726 4.335370
v 1.947427 1.550483 4.335617
v 1.945728 1.550095 4.336526
v 1.945417 1.549598 4.336849
v 1.946529 1.547141 4.337246
v 1.945225 1.545712 4.338358
vn 0.3631 0.3164 0.8764
vn 0.3632 0.3164 0.8763
vn 0.3630 0.3156 0.8767
vn 0.3923 0.3005 0.8693
vn 0.3923 0.3015 0.8690
vn 0.3922 0.3016 0.8690
vn 0.3648 0.3013 0.8809
vn 0.3648 0.3014 0.8809
vn 0.3650 0.3018 0.8807
vn 0.3650 0.3012 0.8809
vn 0.3777 0.3089 0.8729
vn 0.3902 0.3165 0.8646
vn 0.3904 0.3170 0.8643
vn 0.3901 0.3165 0.8647
vn 0.3632 0.3148 0.8769
vn 0.3630 0.3164 0.8764
vn 0.3739 0.3164 0.8718
vn 0.3629 0.3164 0.8764
vn 0.3631 0.3165 0.8763
vn 0.3630 0.3165 0.8764
vn 0.3624 0.3148 0.8772
vn 0.3629 0.3166 0.8764
vn 0.3629 0.3165 0.8764
vn 0.3709 0.3272 0.8691
vn 0.3646 0.3038 0.8802
vn 0.3631 0.3166 0.8763
vn 0.3631 0.3164 0.8763
vn 0.3625 0.3166 0.8766
vn 0.3626 0.3132 0.8777
vn 0.3630 0.3165 0.8763
vn 0.3634 0.3167 0.8762
vn 0.3623 0.3166 0.8766
vn 0.3628 0.3166 0.8764
vn 0.3625 0.3165 0.8766
vn 0.3628 0.3164 0.8765
vn 0.3623 0.3169 0.8765
vn 0.3627 0.3165 0.8765
vn 0.3634 0.3164 0.8762
vn 0.3635 0.3162 0.8763
vn 0.3625 0.3164 0.8766
vn 0.3625 0.3166 0.8765
vn 0.3619 0.3163 0.8769
vn 0.3642 0.3162 0.8760
vn 0.3629 0.3164 0.8765
vn 0.3829 0.3014 0.8732
vn 0.3928 0.3014 0.8688
vn 0.3926 0.3007 0.8691
vn 0.3925 0.3012 0.8690
vn 0.3920 0.3012 0.8692
vn 0.3922 0.3017 0.8690
vn 0.3923 0.3020 0.8688
vn 0.3925 0.3010 0.8691
vn 0.3906 0.3138 0.8654
vn 0.3927 0.3017 0.8687
vn 0.3923 0.3016 0.8690
vn 0.3925 0.3016 0.8689
vn 0.3924 0.3017 0.8689
vn 0.3889 0.3066 0.8687
vn 0.3925 0.3013 0.8690
vn 0.3924 0.3016 0.8689
vn 0.3926 0.3010 0.8690
vn 0.3924 0.3013 0.8690
vn 0.3923 0.3010 0.8691
vn 0.3927 0.3018 0.8687
vn 0.3920 0.3013 0.8692
vn 0.3924 0.3004 0.8694
vn 0.3923 0.3014 0.8690
vn 0.3914 0.3020 0.8692
vn 0.3925 0.3011 0.8690
vn 0.3924 0.3014 0.8690
vn 0.3917 0.3015 0.8693
vn 0.3925 0.3014 0.8690
vn 0.3921 0.3016 0.8690
vn 0.3920 0.3017 0.8690
vn 0.3916 0.3012 0.8694
vn 0.3925 0.3018 0.8688
vn 0.3931 0.3016 0.8686
vn 0.3915 0.3006 0.8697
vn 0.3929 0.3019 0.8686
vn 0.3924 0.3020 0.8687
vn 0.3928 0.3006 0.8690
vn 0.3923 0.3003 0.8694
vn 0.3921 0.3013 0.8691
vn 0.3920 0.3009 0.8693
vn 0.3648 0.3028 0.8805
vn 0.3647 0.3015 0.8809
vn 0.3644 0.3016 0.8810
vn 0.3647 0.3016 0.8809
vn 0.3646 0.3013 0.8810
vn 0.3646 0.3016 0.8810
vn 0.3641 0.3013 0.8813
vn 0.3637 0.3013 0.8814
vn 0.3650 0.3014 0.8809
vn 0.3649 0.3015 0.8808
vn 0.3652 0.3014 0.8807
vn 0.3654 0.3013 0.8807
vn 0.3647 0.3014 0.8810
vn 0.3643 0.3018 0.8810
vn 0.3642 0.3019 0.8810
vn 0.3651 0.2982 0.8819
vn 0.3655 0.3001 0.8811
vn 0.3657 0.3005 0.8809
vn 0.3643 0.3014 0.8811
vn 0.3649 0.3012 0.8810
vn 0.3646 0.3008 0.8812
vn 0.3650 0.3015 0.8808
vn 0.3644 0.3025 0.8807
vn 0.3650 0.3013 0.8809
vn 0.3645 0.3016 0.8810
vn 0.3649 0.3014 0.8809
vn 0.3649 0.3020 0.8806
vn 0.3651 0.3012 0.8809
vn 0.3649 0.3012 0.8809
vn 0.3649 0.3016 0.8808
vn 0.3648 0.3015 0.8809
vn 0.3648 0.3021 0.8807
vn 0.3656 0.3017 0.8805
vn 0.3650 0.3016 0.8808
vn 0.3905 0.3165 0.8645
vn 0.3900 0.3164 0.8647
vn 0.3904 0.3165 0.8645
vn 0.3904 0.3164 0.8646
vn 0.3905 0.3164 0.8645
vn 0.3903 0.3166 0.8645
vn 0.3871 0.3174 0.8656
vn 0.3904 0.3164 0.8645
vn 0.3907 0.3166 0.8643
vn 0.3907 0.3164 0.8644
vn 0.3905 0.3167 0.8644
vn 0.3903 0.3162 0.8647
vn 0.3903 0.3164 0.8646
vn 0.3905 0.3161 0.8646
vn 0.3901 0.3160 0.8648
vn 0.3904 0.3162 0.8646
vn 0.3901 0.3169 0.8645
vn 0.3908 0.3156 0.8647
vn 0.3899 0.3158 0.8650
vn 0.3902 0.3164 0.8646
vn 0.3903 0.3163 0.8646
vn 0.3901 0.3165 0.8646
vn 0.3903 0.3167 0.8645
vn 0.3900 0.3166 0.8647
vn 0.3928 0.3166 0.8633
vn 0.3912 0.3165 0.8641
vn 0.3901 0.3167 0.8646
vn 0.3902 0.3163 0.8647
vn 0.3907 0.3162 0.8645
vn 0.3901 0.3164 0.8647
vn 0.3907 0.3161 0.8645
vn 0.3906 0.3162 0.8645
vn 0.3901 0.3162 0.8647
vn 0.3905 0.3170 0.8643
vn 0.3901 0.3166 0.8646
vn 0.3905 0.3165 0.8644
vn 0.3902 0.3166 0.8646
vn 0.3906 0.3165 0.8644
vn 0.3906 0.3163 0.8645
vn 0.3905 0.3163 0.8645
vn 0.3910 0.3164 0.8643
vn 0.3906 0.3161 0.8646
vn 0.3906 0.3158 0.8647
vn 0.3899 0.3164 0.8648
vn 0.3902 0.3161 0.8647
vn 0.3902 0.3169 0.8644
vn 0.3902 0.3168 0.8645
vn 0.3903 0.3165 0.8645
vn 0.3911 0.3160 0.8644
vn 0.3904 0.3163 0.8646
vn 0.3893 0.3168 0.8649
vn 0.3897 0.3166 0.8648
vn 0.3898 0.3164 0.8648
vn 0.3916 0.3171 0.8638
vn 0.3866 0.3167 0.8661
vn 0.3899 0.3165 0.8647
vn 0.3914 0.3164 0.8641
vn 0.3911 0.3164 0.8642
usemtl None
s 1
f 99//57 98//58 67//59
f 131//60 143//61 142//62
f 196//63 189//64 180//65
f 172//66 169//64 65//67
f 263//68 260//69 259//70
f 68//71 65//67 76//72
f 65//67 71//73 77//74
f 76//72 65//67 77//74
f 71//73 79//75 78//76
f 78//76 77//74 71//73
f 75//72 74//77 73//78
f 75//72 73//78 72//72
f 76//72 75//72 68//71
f 75//72 72//72 67//59
f 68//71 75//72 67//59
f 121//72 120//79 115//58
f 120//79 119//79 115//58
f 119//79 118//76 115//58
f 72//72 121//72 114//57
f 67//59 72//72 99//57
f 80//80 66//81 82//82
f 66//81 67//59 82//82
f 99//57 72//72 100//83
f 118//76 117//84 116//82
f 115//58 118//76 116//82
f 81//85 80//80 82//82
f 121//72 115//58 114//57
f 102//76 114//57 103//74
f 83//82 82//82 67//59
f 84//57 83//82 67//59
f 114//57 102//76 100//83
f 114//57 113//86 103//74
f 113//86 112//79 103//74
f 85//87 84//57 94//79
f 84//57 67//59 98//58
f 88//88 87//89 89//58
f 87//89 86//90 89//58
f 86//90 85//87 91//91
f 84//57 98//58 94//79
f 91//91 85//87 94//79
f 112//79 111//74 103//74
f 110//83 109//92 108//93
f 111//74 110//83 106//91
f 103//74 111//74 104//72
f 90//94 89//58 86//90
f 93//95 92//96 94//79
f 92//96 91//91 94//79
f 91//91 90//94 86//90
f 110//83 108//93 107//72
f 111//74 106//91 104//72
f 107//72 106//91 110//83
f 106//91 105//97 104//72
f 96//98 95//72 97//99
f 95//72 94//79 98//58
f 98//58 97//99 95//72
f 102//76 101//100 100//83
f 114//57 100//83 72//72
f 65//67 70//101 167//102
f 70//101 168//103 167//102
f 167//102 166//104 65//67
f 165//105 164//106 65//67
f 164//106 163//107 162//61
f 166//104 165//105 65//67
f 122//108 69//109 125//110
f 69//109 65//67 160//111
f 124//112 123//113 122//108
f 125//110 124//112 122//108
f 164//106 162//61 65//67
f 162//61 161//114 160//111
f 159//62 158//115 155//116
f 158//115 157//111 155//116
f 155//116 157//111 156//117
f 162//61 160//111 65//67
f 69//109 160//111 126//118
f 160//111 159//62 154//119
f 159//62 155//116 154//119
f 126//118 125//110 69//109
f 129//120 128//121 127//122
f 130//113 129//120 127//122
f 127//122 126//118 153//123
f 126//118 160//111 153//123
f 160//111 154//119 153//123
f 130//113 127//122 153//123
f 130//113 153//123 143//61
f 153//123 152//124 143//61
f 133//125 132//126 141//127
f 132//126 131//60 142//62
f 141//127 132//126 142//62
f 131//60 130//113 143//61
f 152//124 151//128 143//61
f 134//129 133//125 141//127
f 137//130 136//131 135//132
f 135//132 134//129 140//133
f 140//133 134//129 141//127
f 151//128 150//134 146//61
f 143//61 151//128 146//61
f 150//134 149//135 147//136
f 149//135 148//137 147//136
f 147//136 146//61 150//134
f 146//61 145//138 144//139
f 146//61 144//139 143//61
f 137//130 135//132 140//133
f 139//140 138//112 140//133
f 138//112 137//130 140//133
f 67//59 66//81 179//141
f 66//81 212//142 206//143
f 179//141 66//81 200//64
f 212//142 211//144 206//143
f 211//144 210//145 207//146
f 210//145 209//147 207//146
f 209//147 208//148 207//146
f 200//64 66//81 204//149
f 180//65 179//141 196//63
f 198//150 179//141 200//64
f 211//144 207//146 206//143
f 206//143 205//151 66//81
f 205//151 204//149 66//81
f 181//152 180//65 184//153
f 179//141 198//150 196//63
f 183//154 182//155 181//152
f 185//66 184//153 180//65
f 184//153 183//154 181//152
f 187//63 186//64 180//65
f 186//64 185//66 180//65
f 189//64 188//156 187//63
f 189//64 187//63 180//65
f 204//149 203//157 202//158
f 202//158 201//159 204//149
f 201//159 200//64 204//149
f 200//64 199//160 198//150
f 198//150 197//161 196//63
f 196//63 195//162 190//163
f 195//162 194//164 191//165
f 194//164 193//166 192//66
f 194//164 192//66 191//165
f 195//162 191//165 190//163
f 196//63 190//163 189//64
f 65//67 68//71 178//167
f 178//167 177//168 176//169
f 176//169 175//170 173//171
f 175//170 174//172 173//171
f 65//67 178//167 176//169
f 169//64 70//101 65//67
f 171//173 170//174 172//66
f 170//174 169//64 172//66
f 176//169 173//171 65//67
f 173//171 172//66 65//67
f 65//67 69//109 232//175
f 69//109 305//176 303//177
f 305//176 304//178 303//177
f 302//179 301//180 299//70
f 301//180 300//181 299//70
f 69//109 303//177 232//175
f 65//67 232//175 218//182
f 303//177 302//179 233//183
f 213//184 71//73 65//67
f 215//185 214//186 216//187
f 214//186 213//184 216//187
f 218//182 217//180 216//187
f 213//184 65//67 216//187
f 216//187 65//67 218//182
f 302//179 299//70 298//187
f 302//179 298//187 234//68
f 298//187 297//187 247//182
f 220//180 219//188 218//182
f 218//182 232//175 220//180
f 303//177 233//183 232//175
f 222//189 221//190 223//191
f 221//190 220//180 223//191
f 233//183 302//179 234//68
f 297//187 296//182 259//70
f 224//192 223//191 220//180
f 296//182 295//187 264//178
f 234//68 298//187 243//178
f 295//187 294//193 293//194
f 292//179 291//195 288//194
f 291//195 290//196 288//194
f 295//187 293//194 266//179
f 298//187 247//182 243//178
f 290//196 289//197 288//194
f 293//194 292//179 276//198
f 225//179 224//192 220//180
f 228//199 227//200 229//179
f 227//200 226//201 229//179
f 226//201 225//179 229//179
f 231//202 230//203 229//179
f 292//179 288//194 287//204
f 231//202 229//179 225//179
f 232//175 231//202 225//179
f 286//178 285//205 283//206
f 285//205 284//176 283//206
f 283//206 282//207 281//175
f 286//178 283//206 281//175
f 280//208 279//190 278//209
f 286//178 281//175 278//209
f 281//175 280//208 278//209
f 287//204 286//178 278//209
f 232//175 225//179 220//180
f 247//182 297//187 253//204
f 292//179 287//204 276//198
f 287//204 278//209 277//210
f 287//204 277//210 276//198
f 253//204 297//187 259//70
f 259//70 296//182 263//68
f 263//68 296//182 264//178
f 276//198 275//211 274//68
f 273//212 272//213 268//214
f 272//213 271//215 270//216
f 276//198 274//68 293//194
f 272//213 270//216 269//217
f 274//68 273//212 267//179
f 235//218 234//68 241//203
f 242//190 234//68 243//178
f 237//219 236//179 240//186
f 236//179 235//218 240//186
f 239//220 238//221 240//186
f 238//221 237//219 240//186
f 242//190 241//203 234//68
f 241//203 240//186 235//218
f 293//194 274//68 266//179
f 272//213 269//217 268//214
f 273//212 268//214 267//179
f 266//179 265//188 264//178
f 267//179 266//179 274//68
f 244//222 243//178 247//182
f 246//187 245//194 244//222
f 249//187 248//223 247//182
f 247//182 246//187 244//222
f 266//179 264//178 295//187
f 250//224 249//187 247//182
f 263//68 262//225 261//226
f 251//227 250//224 253//204
f 250//224 247//182 253//204
f 253//204 252//228 251//227
f 256//229 255//230 257//231
f 255//230 254//176 258//232
f 257//231 255//230 258//232
f 254//176 253//204 259//70
f 258//232 254//176 259//70
f 263//68 261//226 260//69
