# Blender v2.81 (sub 16) OBJ File: ''
# www.blender.org
mtllib Qatar.mtl
o 0_Qatar_sphere.001
v 2.861388 2.128895 -3.503855
v 2.808935 2.128895 -3.545877
v 2.816450 2.199694 -3.496301
v 2.804215 2.199694 -3.506103
v 2.814464 2.201397 -3.496802
v 2.813762 2.202578 -3.496608
v 2.812831 2.202087 -3.497668
v 2.811398 2.202545 -3.498523
v 2.808655 2.204173 -3.499679
v 2.804754 2.201118 -3.504760
v 2.804155 2.199845 -3.506055
v 2.852102 2.079248 -3.540617
v 2.855695 2.077960 -3.538500
v 2.859182 2.077966 -3.535702
v 2.862761 2.078568 -3.532479
v 2.865401 2.080121 -3.529447
v 2.867208 2.084055 -3.525676
v 2.869173 2.092808 -3.518932
v 2.867978 2.092941 -3.519811
v 2.865858 2.094648 -3.520501
v 2.864861 2.096654 -3.520115
v 2.863183 2.104223 -3.516989
v 2.863127 2.106196 -3.515869
v 2.864079 2.111999 -3.511678
v 2.863934 2.113164 -3.511106
v 2.862629 2.115382 -3.510841
v 2.862033 2.116934 -3.510402
v 2.861706 2.118345 -3.509832
v 2.861899 2.118993 -3.509294
v 2.863216 2.120141 -3.507561
v 2.862869 2.122842 -3.506243
v 2.862114 2.125762 -3.505123
v 2.862117 2.127649 -3.504007
v 2.810309 2.123703 -3.547843
v 2.813313 2.115557 -3.550248
v 2.813266 2.114607 -3.550846
v 2.813992 2.113945 -3.550656
v 2.816311 2.109161 -3.551624
v 2.817546 2.107623 -3.551543
v 2.820493 2.104791 -3.550854
v 2.821700 2.102873 -3.551021
v 2.822276 2.102564 -3.550741
v 2.822917 2.102366 -3.550344
v 2.823410 2.102049 -3.550137
v 2.823892 2.101358 -3.550159
v 2.827584 2.094155 -3.551456
v 2.827765 2.093757 -3.551546
v 2.828333 2.092908 -3.551592
v 2.829253 2.092271 -3.551231
v 2.830036 2.090767 -3.551492
v 2.831414 2.087452 -3.552346
v 2.832564 2.086224 -3.552150
v 2.835573 2.084491 -3.550763
v 2.836278 2.083897 -3.550549
v 2.837118 2.082056 -3.550963
v 2.838272 2.080816 -3.550771
v 2.839399 2.079807 -3.550464
v 2.840277 2.078733 -3.550395
v 2.840676 2.079895 -3.549389
v 2.840101 2.081027 -3.549181
v 2.839196 2.082286 -3.549163
v 2.838412 2.083896 -3.548840
v 2.838637 2.084759 -3.548150
v 2.839708 2.084945 -3.547181
v 2.841964 2.084684 -3.545529
v 2.841643 2.086068 -3.544968
v 2.842040 2.086099 -3.544632
v 2.842808 2.085576 -3.544326
v 2.843769 2.085221 -3.543765
v 2.844870 2.085070 -3.542973
v 2.846002 2.084614 -3.542335
v 2.846751 2.083780 -3.542227
v 2.846781 2.083276 -3.542502
v 2.846749 2.083168 -3.542591
v 2.861270 2.129088 -3.503831
v 2.860845 2.130724 -3.503165
v 2.860599 2.132491 -3.502274
v 2.860134 2.134196 -3.501598
v 2.858357 2.138463 -3.500397
v 2.857902 2.140105 -3.499751
v 2.856969 2.146004 -3.496869
v 2.855236 2.149412 -3.496161
v 2.854669 2.150955 -3.495666
v 2.855205 2.151922 -3.494642
v 2.852740 2.154474 -3.495047
v 2.851517 2.154694 -3.495891
v 2.851141 2.153657 -3.496830
v 2.851354 2.152237 -3.497533
v 2.850995 2.151648 -3.498183
v 2.851454 2.150107 -3.498764
v 2.849933 2.149745 -3.500205
v 2.849952 2.152925 -3.498234
v 2.849736 2.154297 -3.497562
v 2.849366 2.155729 -3.496978
v 2.848976 2.156618 -3.496743
v 2.848480 2.157528 -3.496581
v 2.848146 2.158506 -3.496247
v 2.848237 2.159482 -3.495573
v 2.848595 2.159873 -3.495046
v 2.849880 2.160180 -3.493828
v 2.850459 2.160562 -3.493129
v 2.849454 2.161571 -3.493313
v 2.848571 2.161830 -3.493861
v 2.847706 2.161930 -3.494493
v 2.846699 2.162449 -3.494980
v 2.846390 2.162904 -3.494947
v 2.845602 2.164127 -3.494827
v 2.845288 2.164351 -3.494941
v 2.844955 2.164185 -3.495310
v 2.844769 2.163435 -3.495919
v 2.844346 2.163286 -3.496350
v 2.844227 2.162692 -3.496811
v 2.844753 2.161362 -3.497208
v 2.845800 2.159234 -3.497679
v 2.846285 2.157606 -3.498292
v 2.846403 2.157009 -3.498564
v 2.846378 2.155501 -3.499512
v 2.846195 2.155090 -3.499912
v 2.845888 2.154646 -3.500430
v 2.845213 2.154841 -3.500851
v 2.845035 2.155059 -3.500859
v 2.844965 2.155419 -3.500694
v 2.844143 2.157281 -3.500207
v 2.843531 2.159173 -3.499534
v 2.843034 2.159989 -3.499430
v 2.842053 2.160825 -3.499701
v 2.841694 2.160586 -3.500136
v 2.841356 2.160036 -3.500745
v 2.840527 2.159986 -3.501440
v 2.839982 2.160538 -3.501537
v 2.838418 2.162837 -3.501376
v 2.837651 2.163795 -3.501401
v 2.839585 2.163041 -3.500315
v 2.841280 2.162695 -3.499170
v 2.842365 2.163341 -3.497903
v 2.842634 2.165420 -3.496409
v 2.842352 2.166544 -3.495943
v 2.840786 2.170244 -3.494922
v 2.840506 2.170621 -3.494914
v 2.839751 2.171191 -3.495168
v 2.839500 2.171583 -3.495128
v 2.839470 2.171919 -3.494946
v 2.839652 2.172376 -3.494518
v 2.839618 2.172725 -3.494331
v 2.838885 2.175073 -3.493474
v 2.838117 2.174841 -3.494232
v 2.837632 2.175469 -3.494234
v 2.837170 2.176321 -3.494080
v 2.836499 2.176749 -3.494354
v 2.836135 2.176475 -3.494815
v 2.835981 2.175787 -3.495361
v 2.836069 2.174885 -3.495846
v 2.836289 2.173943 -3.496249
v 2.835222 2.174631 -3.496680
v 2.834331 2.175709 -3.496732
v 2.833776 2.176987 -3.496389
v 2.833684 2.178299 -3.495656
v 2.834295 2.177750 -3.495504
v 2.834817 2.178897 -3.494380
v 2.834201 2.180556 -3.493854
v 2.831225 2.185060 -3.493467
v 2.830551 2.186585 -3.493068
v 2.829282 2.190149 -3.491893
v 2.828890 2.189718 -3.492472
v 2.828766 2.189487 -3.492713
v 2.828748 2.189039 -3.493003
v 2.828344 2.189034 -3.493330
v 2.825586 2.193740 -3.492644
v 2.823720 2.195781 -3.492883
v 2.821715 2.196650 -3.493956
v 2.820685 2.196885 -3.494637
v 2.817787 2.198076 -3.496225
v 2.817116 2.198503 -3.496500
v 2.804529 2.198355 -3.506675
v 2.805237 2.196377 -3.507325
v 2.805696 2.194684 -3.507998
v 2.805274 2.193947 -3.508790
v 2.804285 2.193412 -3.509911
v 2.804329 2.192102 -3.510683
v 2.804751 2.190458 -3.511355
v 2.804873 2.189009 -3.512149
v 2.804234 2.188002 -3.513280
v 2.803505 2.187853 -3.513957
v 2.803050 2.187747 -3.514386
v 2.800343 2.187991 -3.516404
v 2.798892 2.187819 -3.517673
v 2.797786 2.187386 -3.518825
v 2.796945 2.186685 -3.519931
v 2.796171 2.185816 -3.521085
v 2.795660 2.184829 -3.522102
v 2.795359 2.183627 -3.523082
v 2.795322 2.182249 -3.523960
v 2.796804 2.173687 -3.528040
v 2.797173 2.172606 -3.528410
v 2.797603 2.171693 -3.528627
v 2.798213 2.171295 -3.528383
v 2.798495 2.171560 -3.527994
v 2.798494 2.172704 -3.527291
v 2.798949 2.172961 -3.526768
v 2.799555 2.172623 -3.526491
v 2.800203 2.171865 -3.526438
v 2.800716 2.170960 -3.526583
v 2.800846 2.170233 -3.526927
v 2.800457 2.169629 -3.527610
v 2.799887 2.169720 -3.528011
v 2.799340 2.170179 -3.528166
v 2.798952 2.170766 -3.528116
v 2.798519 2.168961 -3.529573
v 2.799878 2.167120 -3.529617
v 2.801280 2.166577 -3.528828
v 2.800910 2.168603 -3.527878
v 2.801823 2.168312 -3.527326
v 2.804302 2.167004 -3.526145
v 2.803568 2.166576 -3.526996
v 2.802808 2.165922 -3.528007
v 2.802288 2.165112 -3.528922
v 2.802172 2.164309 -3.529509
v 2.802904 2.162614 -3.529965
v 2.803944 2.161899 -3.529572
v 2.805075 2.161611 -3.528843
v 2.806086 2.161080 -3.528359
v 2.806386 2.161396 -3.527925
v 2.806785 2.161565 -3.527501
v 2.807865 2.157455 -3.529164
v 2.808356 2.156266 -3.529502
v 2.808936 2.155458 -3.529535
v 2.809675 2.154731 -3.529391
v 2.810245 2.153960 -3.529408
v 2.810309 2.153229 -3.529806
v 2.809434 2.148690 -3.533299
v 2.809373 2.147577 -3.534033
v 2.809594 2.146483 -3.534529
v 2.810817 2.143052 -3.535661
v 2.812271 2.138932 -3.537030
v 2.812732 2.137201 -3.537726
v 2.812641 2.136310 -3.538346
v 2.812019 2.135905 -3.539095
v 2.808573 2.135280 -3.542239
v 2.808234 2.134591 -3.542935
v 2.808150 2.133041 -3.543956
v 2.808335 2.131654 -3.544661
v 2.808563 2.130253 -3.545340
vn 0.5594 0.4469 -0.6981
vn 0.5593 0.4470 -0.6981
vn 0.5591 0.4469 -0.6983
vn 0.5677 0.4185 -0.7089
vn 0.5678 0.4186 -0.7088
vn 0.5679 0.4186 -0.7087
vn 0.5635 0.4327 -0.7037
vn 0.5636 0.4328 -0.7035
vn 0.5623 0.4369 -0.7020
vn 0.5620 0.4397 -0.7006
vn 0.5593 0.4469 -0.6981
vn 0.5614 0.4464 -0.6968
vn 0.5594 0.4467 -0.6982
vn 0.5592 0.4469 -0.6982
vn 0.5658 0.4256 -0.7062
vn 0.5662 0.4240 -0.7068
vn 0.5678 0.4186 -0.7087
vn 0.5680 0.4186 -0.7085
vn 0.5681 0.4184 -0.7086
vn 0.5676 0.4187 -0.7089
vn 0.5676 0.4193 -0.7085
vn 0.5678 0.4184 -0.7088
vn 0.5675 0.4188 -0.7089
vn 0.5679 0.4183 -0.7088
vn 0.5677 0.4186 -0.7088
vn 0.5679 0.4185 -0.7088
vn 0.5674 0.4187 -0.7090
vn 0.5668 0.4190 -0.7093
vn 0.5679 0.4188 -0.7085
vn 0.5694 0.4201 -0.7066
vn 0.5677 0.4184 -0.7089
vn 0.5679 0.4187 -0.7086
vn 0.5678 0.4187 -0.7087
vn 0.5683 0.4184 -0.7085
vn 0.5686 0.4185 -0.7082
vn 0.5677 0.4187 -0.7088
vn 0.5678 0.4185 -0.7088
vn 0.5681 0.4186 -0.7085
vn 0.5679 0.4185 -0.7087
vn 0.5680 0.4185 -0.7086
vn 0.5679 0.4184 -0.7088
vn 0.5677 0.4186 -0.7089
vn 0.5679 0.4187 -0.7087
vn 0.5676 0.4190 -0.7086
vn 0.5680 0.4184 -0.7087
vn 0.5662 0.4181 -0.7103
vn 0.5672 0.4184 -0.7093
vn 0.5679 0.4184 -0.7087
vn 0.5671 0.4190 -0.7090
vn 0.5679 0.4183 -0.7089
vn 0.5636 0.4328 -0.7036
vn 0.5637 0.4328 -0.7035
vn 0.5635 0.4329 -0.7036
vn 0.5631 0.4328 -0.7040
vn 0.5636 0.4326 -0.7037
vn 0.5636 0.4327 -0.7037
vn 0.5638 0.4327 -0.7035
vn 0.5648 0.4329 -0.7025
vn 0.5634 0.4328 -0.7037
vn 0.5637 0.4327 -0.7035
vn 0.5637 0.4328 -0.7034
vn 0.5632 0.4328 -0.7038
vn 0.5636 0.4327 -0.7036
vn 0.5645 0.4312 -0.7038
vn 0.5635 0.4331 -0.7035
vn 0.5638 0.4325 -0.7035
vn 0.5635 0.4325 -0.7038
vn 0.5639 0.4327 -0.7034
vn 0.5633 0.4330 -0.7037
vn 0.5633 0.4329 -0.7037
vn 0.5634 0.4337 -0.7031
vn 0.5636 0.4329 -0.7035
vn 0.5635 0.4328 -0.7036
vn 0.5641 0.4326 -0.7032
vn 0.5638 0.4326 -0.7035
vn 0.5636 0.4336 -0.7031
vn 0.5635 0.4323 -0.7039
vn 0.5639 0.4328 -0.7034
vn 0.5641 0.4330 -0.7030
vn 0.5641 0.4327 -0.7032
vn 0.5639 0.4329 -0.7032
vn 0.5638 0.4328 -0.7034
vn 0.5640 0.4328 -0.7033
vn 0.5629 0.4340 -0.7034
vn 0.5632 0.4331 -0.7036
vn 0.5636 0.4330 -0.7035
vn 0.5641 0.4326 -0.7033
vn 0.5635 0.4339 -0.7029
vn 0.5635 0.4330 -0.7035
vn 0.5637 0.4329 -0.7035
vn 0.5647 0.4326 -0.7028
vn 0.5637 0.4329 -0.7034
vn 0.5639 0.4325 -0.7035
vn 0.5636 0.4330 -0.7034
vn 0.5639 0.4326 -0.7035
vn 0.5640 0.4334 -0.7029
vn 0.5637 0.4326 -0.7036
vn 0.5633 0.4327 -0.7038
vn 0.5649 0.4303 -0.7041
vn 0.5647 0.4334 -0.7023
vn 0.5642 0.4320 -0.7035
vn 0.5636 0.4324 -0.7038
vn 0.5634 0.4329 -0.7037
vn 0.5638 0.4327 -0.7034
vn 0.5640 0.4328 -0.7032
vn 0.5640 0.4327 -0.7033
vn 0.5639 0.4330 -0.7032
vn 0.5633 0.4332 -0.7036
vn 0.5634 0.4330 -0.7036
vn 0.5635 0.4349 -0.7024
vn 0.5645 0.4319 -0.7034
vn 0.5632 0.4328 -0.7039
vn 0.5615 0.4321 -0.7056
vn 0.5636 0.4327 -0.7035
vn 0.5648 0.4337 -0.7020
vn 0.5630 0.4326 -0.7042
vn 0.5638 0.4325 -0.7036
vn 0.5637 0.4331 -0.7033
vn 0.5636 0.4331 -0.7034
vn 0.5632 0.4353 -0.7024
vn 0.5630 0.4329 -0.7039
vn 0.5632 0.4329 -0.7038
vn 0.5640 0.4324 -0.7035
usemtl None
s 1
f 7//1 6//2 5//3
f 66//4 64//5 50//6
f 154//7 153//8 132//8
f 3//9 4//10 8//11
f 4//10 11//12 10//13
f 8//11 4//10 10//13
f 10//13 9//14 8//11
f 5//3 3//9 7//1
f 7//1 3//9 8//11
f 2//15 1//16 28//17
f 1//16 33//18 32//19
f 32//19 31//20 29//21
f 31//20 30//22 29//21
f 1//16 32//19 28//17
f 28//17 32//19 29//21
f 35//5 34//17 28//17
f 34//17 2//15 28//17
f 37//23 36//24 35//5
f 39//25 38//26 37//23
f 42//27 41//28 40//29
f 40//29 39//25 37//23
f 37//23 35//5 40//29
f 40//29 35//5 44//6
f 43//30 42//27 40//29
f 44//6 43//30 40//29
f 35//5 28//17 44//6
f 44//6 28//17 27//5
f 45//31 44//6 23//17
f 44//6 27//5 23//17
f 26//32 25//33 24//33
f 27//5 26//32 23//17
f 48//34 47//35 49//6
f 47//35 46//36 49//6
f 46//36 45//31 49//6
f 49//6 45//31 67//5
f 26//32 24//33 23//17
f 23//17 22//37 45//31
f 45//31 22//37 67//5
f 52//6 51//38 50//6
f 50//6 49//6 66//4
f 49//6 67//5 66//4
f 22//37 21//5 71//4
f 67//5 22//37 70//37
f 53//39 52//6 50//6
f 56//40 55//17 61//5
f 55//17 54//41 62//42
f 61//5 55//17 62//42
f 54//41 53//39 63//43
f 53//39 50//6 63//43
f 21//5 20//39 71//4
f 19//32 18//44 17//17
f 70//37 22//37 71//4
f 20//39 19//32 17//17
f 57//6 56//40 60//5
f 20//39 17//17 14//5
f 17//17 16//45 15//36
f 15//36 14//5 17//17
f 14//5 13//5 72//6
f 13//5 12//17 72//6
f 12//17 74//46 73//47
f 12//17 73//47 72//6
f 58//45 57//6 59//25
f 56//40 61//5 60//5
f 60//5 59//25 57//6
f 14//5 72//6 20//39
f 62//42 54//41 63//43
f 72//6 71//4 20//39
f 70//37 69//48 67//5
f 69//48 68//49 67//5
f 64//5 63//43 50//6
f 66//4 65//50 64//5
f 1//16 2//15 237//51
f 2//15 242//52 237//51
f 237//51 241//53 240//51
f 242//52 241//53 237//51
f 240//51 239//54 238//8
f 240//51 238//8 237//51
f 75//55 1//16 237//51
f 237//51 236//56 75//55
f 78//57 77//58 76//8
f 76//8 75//55 235//52
f 75//55 236//56 235//52
f 79//52 78//57 76//8
f 82//8 81//52 90//52
f 81//52 80//59 91//8
f 90//52 81//52 91//8
f 79//52 76//8 91//8
f 76//8 235//52 91//8
f 80//59 79//52 91//8
f 85//8 84//60 83//8
f 83//8 82//8 90//52
f 235//52 234//8 91//8
f 233//61 232//62 230//63
f 232//62 231//64 230//63
f 234//8 233//61 229//51
f 85//8 83//8 88//53
f 88//53 83//8 90//52
f 87//65 86//66 85//8
f 90//52 89//67 88//53
f 88//53 87//65 85//8
f 234//8 229//51 120//68
f 229//51 233//61 230//63
f 91//8 234//8 120//68
f 229//51 228//51 120//68
f 227//69 226//70 224//63
f 226//70 225//71 224//63
f 228//51 227//69 223//72
f 93//51 92//73 117//52
f 92//73 91//8 119//74
f 117//52 92//73 118//55
f 95//52 94//61 116//8
f 94//61 93//51 117//52
f 116//8 94//61 117//52
f 96//53 95//52 116//8
f 96//53 116//8 115//75
f 97//73 96//53 115//75
f 228//51 223//72 132//8
f 223//72 227//69 224//63
f 222//76 221//77 220//51
f 120//68 228//51 121//68
f 223//72 222//76 220//51
f 220//51 219//73 216//78
f 219//73 218//79 217//80
f 216//78 219//73 217//80
f 216//78 215//72 220//51
f 215//72 214//70 220//51
f 214//70 213//73 223//72
f 223//72 220//51 214//70
f 101//81 100//82 102//83
f 100//82 99//60 103//72
f 103//72 102//83 100//82
f 104//72 103//72 99//60
f 105//51 104//72 98//51
f 104//72 99//60 98//51
f 108//84 107//85 109//85
f 107//85 106//67 110//86
f 109//85 107//85 110//86
f 106//67 105//51 110//86
f 105//51 98//51 113//52
f 113//52 98//51 114//52
f 98//51 97//73 114//52
f 112//87 111//88 110//86
f 114//52 97//73 115//75
f 223//72 213//73 132//8
f 121//68 228//51 129//73
f 213//73 212//51 203//73
f 113//52 112//87 110//86
f 113//52 110//86 105//51
f 211//72 210//68 209//57
f 209//57 208//52 211//72
f 208//52 207//57 206//89
f 208//52 206//89 205//90
f 208//52 205//90 211//72
f 212//51 211//72 204//52
f 211//72 205//90 204//52
f 213//73 203//73 202//91
f 212//51 204//52 203//73
f 118//55 92//73 119//74
f 213//73 202//91 201//92
f 213//73 201//92 183//93
f 129//73 228//51 130//56
f 201//92 200//94 184//95
f 130//56 228//51 132//8
f 200//94 199//51 192//52
f 120//68 119//74 91//8
f 123//52 122//96 121//68
f 132//8 213//73 155//8
f 198//97 197//60 194//53
f 197//60 196//95 195//98
f 123//52 121//68 129//73
f 197//60 195//98 194//53
f 194//53 193//72 198//97
f 193//72 192//52 199//51
f 198//97 193//72 199//51
f 192//52 191//99 190//100
f 190//100 189//89 192//52
f 189//89 188//8 192//52
f 188//8 187//101 186//102
f 186//102 185//52 188//8
f 185//52 184//95 192//52
f 188//8 185//52 192//52
f 184//95 183//93 201//92
f 183//93 182//60 213//73
f 184//95 200//94 192//52
f 213//73 182//60 155//8
f 125//52 124//82 128//103
f 124//82 123//52 128//103
f 127//104 126//105 125//52
f 128//103 127//104 125//52
f 180//106 179//51 177//107
f 179//51 178//108 177//107
f 181//60 180//106 176//52
f 180//106 177//107 176//52
f 175//8 174//8 3//9
f 174//8 4//10 3//9
f 175//8 3//9 173//109
f 173//109 172//53 176//52
f 175//8 173//109 176//52
f 171//8 170//89 168//52
f 170//89 169//98 168//52
f 172//53 171//8 167//73
f 176//52 172//53 181//60
f 181//60 172//53 167//73
f 171//8 168//52 167//73
f 182//60 181//60 156//72
f 181//60 167//73 156//72
f 129//73 128//103 123//52
f 156//72 167//73 161//59
f 166//103 165//110 164//111
f 167//73 166//103 162//112
f 161//59 167//73 162//112
f 132//8 131//113 130//56
f 166//103 164//111 163//55
f 134//8 133//8 136//59
f 133//8 132//8 137//73
f 136//59 133//8 137//73
f 136//59 135//114 134//8
f 138//109 137//73 140//73
f 140//73 137//73 132//8
f 140//73 139//115 138//109
f 166//103 163//55 162//112
f 161//59 160//52 157//72
f 160//52 159//82 157//72
f 141//116 140//73 153//8
f 140//73 132//8 153//8
f 182//60 156//72 155//8
f 159//82 158//117 157//72
f 142//118 141//116 153//8
f 144//119 143//120 142//118
f 146//59 145//121 144//119
f 149//122 148//51 150//123
f 148//51 147//51 151//60
f 150//123 148//51 151//60
f 147//51 146//59 152//86
f 146//59 144//119 153//8
f 144//119 142//118 153//8
f 161//59 157//72 156//72
f 146//59 153//8 152//86
f 152//86 151//60 147//51
f 132//8 155//8 154//7
