# Blender v2.81 (sub 16) OBJ File: ''
# www.blender.org
mtllib Rwanda.mtl
o 0_Rwanda_sphere.001
v 4.301586 -0.157056 -2.543945
v 4.299837 -0.208786 -2.542911
v 4.291078 -0.157056 -2.561094
v 4.368327 -0.235535 -2.420715
v 4.367211 -0.235535 -2.422670
v 4.354221 -0.235535 -2.445445
v 4.329844 -0.235535 -2.488183
v 4.302397 -0.117082 -2.544425
v 4.364296 -0.157056 -2.434002
v 4.302020 -0.117597 -2.545018
v 4.301307 -0.118840 -2.546126
v 4.300867 -0.119328 -2.546821
v 4.297827 -0.121461 -2.551686
v 4.296922 -0.121703 -2.553152
v 4.296007 -0.122732 -2.554599
v 4.295714 -0.125012 -2.554974
v 4.295751 -0.127283 -2.554811
v 4.295866 -0.128313 -2.554578
v 4.296090 -0.128818 -2.554189
v 4.295808 -0.129953 -2.554597
v 4.295009 -0.131883 -2.555815
v 4.294427 -0.133035 -2.556711
v 4.294206 -0.133702 -2.557043
v 4.293709 -0.136841 -2.557712
v 4.293217 -0.138805 -2.558426
v 4.292493 -0.139880 -2.559559
v 4.291410 -0.139084 -2.561361
v 4.291041 -0.140931 -2.561881
v 4.291035 -0.143179 -2.561789
v 4.291496 -0.150059 -2.560728
v 4.291497 -0.150995 -2.560683
v 4.291373 -0.151445 -2.560865
v 4.290947 -0.152636 -2.561507
v 4.290823 -0.153439 -2.561673
v 4.291299 -0.155838 -2.560786
v 4.291116 -0.156757 -2.561045
v 4.300055 -0.208668 -2.542539
v 4.300985 -0.208433 -2.540927
v 4.301776 -0.209425 -2.539461
v 4.303195 -0.209315 -2.536981
v 4.304687 -0.207953 -2.534475
v 4.307159 -0.204066 -2.530448
v 4.307434 -0.203381 -2.530021
v 4.307701 -0.202154 -2.529649
v 4.307921 -0.201676 -2.529303
v 4.308073 -0.201784 -2.529027
v 4.309464 -0.201126 -2.526640
v 4.309682 -0.200909 -2.526276
v 4.310345 -0.201324 -2.525081
v 4.310758 -0.202115 -2.524294
v 4.310903 -0.202590 -2.524001
v 4.311088 -0.203116 -2.523635
v 4.311601 -0.204152 -2.522655
v 4.312201 -0.204792 -2.521551
v 4.313016 -0.205322 -2.520081
v 4.313824 -0.205665 -2.518637
v 4.314519 -0.205727 -2.517412
v 4.315063 -0.205483 -2.516479
v 4.316444 -0.204160 -2.514163
v 4.316956 -0.204058 -2.513274
v 4.317083 -0.204644 -2.513003
v 4.317075 -0.205464 -2.512952
v 4.317149 -0.206076 -2.512775
v 4.318934 -0.211014 -2.509254
v 4.319636 -0.212042 -2.507941
v 4.320603 -0.212104 -2.506242
v 4.321612 -0.211328 -2.504534
v 4.322556 -0.210120 -2.502976
v 4.323317 -0.208867 -2.501740
v 4.324757 -0.205667 -2.499469
v 4.325307 -0.204847 -2.498569
v 4.325814 -0.204496 -2.497708
v 4.326235 -0.204469 -2.496972
v 4.326592 -0.204539 -2.496341
v 4.326934 -0.204440 -2.495750
v 4.327739 -0.203122 -2.494442
v 4.327818 -0.202990 -2.494315
v 4.328133 -0.202476 -2.493802
v 4.328487 -0.202078 -2.493214
v 4.328939 -0.202107 -2.492419
v 4.329052 -0.202593 -2.492183
v 4.329023 -0.203402 -2.492169
v 4.329137 -0.207863 -2.491616
v 4.328605 -0.214567 -2.492017
v 4.329315 -0.221158 -2.490250
v 4.329184 -0.230102 -2.489770
v 4.329171 -0.231072 -2.489716
v 4.329348 -0.232991 -2.489254
v 4.329694 -0.234892 -2.488496
v 4.354683 -0.234732 -2.444699
v 4.354889 -0.233472 -2.444438
v 4.354858 -0.232443 -2.444572
v 4.354912 -0.232038 -2.444510
v 4.355469 -0.231247 -2.443598
v 4.356287 -0.230337 -2.442236
v 4.357229 -0.229894 -2.440617
v 4.359047 -0.229436 -2.437467
v 4.360045 -0.228843 -2.435765
v 4.362746 -0.226535 -2.431212
v 4.363444 -0.226329 -2.430004
v 4.365953 -0.226664 -2.425580
v 4.366875 -0.228601 -2.423810
v 4.368935 -0.234958 -2.419695
v 4.370238 -0.234679 -2.417433
v 4.370823 -0.234221 -2.416441
v 4.372517 -0.232095 -2.413642
v 4.372859 -0.231403 -2.413097
v 4.372808 -0.224742 -2.413715
v 4.373170 -0.222714 -2.413240
v 4.373650 -0.221804 -2.412472
v 4.374146 -0.221337 -2.411638
v 4.374538 -0.220805 -2.410993
v 4.374753 -0.219687 -2.410704
v 4.374624 -0.218541 -2.411022
v 4.373919 -0.217191 -2.412364
v 4.374106 -0.216127 -2.412122
v 4.374601 -0.214554 -2.411378
v 4.374817 -0.212820 -2.411136
v 4.374971 -0.210955 -2.411015
v 4.374746 -0.208667 -2.411590
v 4.374174 -0.207610 -2.412678
v 4.373037 -0.206798 -2.414735
v 4.372148 -0.206266 -2.416335
v 4.371434 -0.205372 -2.417659
v 4.370868 -0.204110 -2.418750
v 4.370416 -0.202533 -2.419668
v 4.370122 -0.201235 -2.420286
v 4.370013 -0.200299 -2.420552
v 4.369985 -0.199542 -2.420661
v 4.369581 -0.198702 -2.421435
v 4.369218 -0.198441 -2.422093
v 4.367961 -0.198520 -2.424290
v 4.366081 -0.197492 -2.427668
v 4.364675 -0.195121 -2.430321
v 4.363716 -0.191723 -2.432272
v 4.363190 -0.187594 -2.433521
v 4.363066 -0.183952 -2.434026
v 4.363245 -0.180816 -2.433963
v 4.364861 -0.167130 -2.432213
v 4.365063 -0.163938 -2.432113
v 4.364954 -0.160820 -2.432551
v 4.290626 -0.160254 -2.561590
v 4.290845 -0.161732 -2.561121
v 4.291257 -0.163040 -2.560351
v 4.291481 -0.164383 -2.559885
v 4.291069 -0.165940 -2.560440
v 4.291766 -0.167050 -2.559219
v 4.292025 -0.167619 -2.558754
v 4.292229 -0.168320 -2.558368
v 4.290850 -0.168735 -2.560587
v 4.290626 -0.171041 -2.560780
v 4.291055 -0.176116 -2.559698
v 4.290210 -0.175765 -2.561104
v 4.289374 -0.176551 -2.562408
v 4.288635 -0.177882 -2.563514
v 4.288112 -0.179142 -2.564273
v 4.287630 -0.181674 -2.564869
v 4.288876 -0.191381 -2.562107
v 4.289133 -0.195221 -2.561398
v 4.288753 -0.201188 -2.561570
v 4.288877 -0.202963 -2.561235
v 4.289290 -0.204595 -2.560437
v 4.289862 -0.205416 -2.559442
v 4.290597 -0.206066 -2.558195
v 4.291292 -0.206841 -2.557002
v 4.291909 -0.207138 -2.555972
v 4.292220 -0.207500 -2.555438
v 4.292633 -0.207715 -2.554748
v 4.293011 -0.207544 -2.554145
v 4.295475 -0.205304 -2.550290
v 4.295965 -0.205005 -2.549514
v 4.296560 -0.205160 -2.548531
v 4.297047 -0.205945 -2.547678
v 4.297629 -0.208288 -2.546551
v 4.298108 -0.209109 -2.545708
v 4.299062 -0.209208 -2.544144
v 4.308754 -0.093805 -2.534389
v 4.309072 -0.094763 -2.533786
v 4.309200 -0.095744 -2.533514
v 4.309024 -0.096681 -2.533778
v 4.308375 -0.097559 -2.534874
v 4.308207 -0.098746 -2.535113
v 4.308291 -0.099263 -2.534940
v 4.308443 -0.099757 -2.534651
v 4.308547 -0.100282 -2.534443
v 4.308461 -0.100803 -2.534569
v 4.308072 -0.101318 -2.535228
v 4.307735 -0.101209 -2.535823
v 4.307457 -0.100902 -2.536325
v 4.307276 -0.100805 -2.536647
v 4.306732 -0.101579 -2.537565
v 4.306537 -0.102122 -2.537880
v 4.306333 -0.104375 -2.538131
v 4.306042 -0.105646 -2.538581
v 4.305192 -0.108279 -2.539944
v 4.304916 -0.110056 -2.540343
v 4.304474 -0.111111 -2.541069
v 4.304384 -0.111824 -2.541192
v 4.304412 -0.112094 -2.541131
v 4.304506 -0.112473 -2.540948
v 4.304597 -0.112986 -2.540764
v 4.304637 -0.113635 -2.540663
v 4.304370 -0.115034 -2.541064
v 4.303796 -0.115882 -2.542031
v 4.302493 -0.116948 -2.544264
v 4.362768 -0.151768 -2.436934
v 4.361740 -0.148197 -2.438906
v 4.360894 -0.144704 -2.440556
v 4.360425 -0.143160 -2.441450
v 4.358394 -0.139671 -2.445178
v 4.357985 -0.138524 -2.445950
v 4.356898 -0.133603 -2.448090
v 4.356431 -0.132303 -2.448970
v 4.355753 -0.131725 -2.450186
v 4.352459 -0.131452 -2.455974
v 4.352359 -0.131400 -2.456151
v 4.352267 -0.131274 -2.456319
v 4.352176 -0.131085 -2.456488
v 4.352050 -0.130620 -2.456730
v 4.351267 -0.127973 -2.458229
v 4.349844 -0.124843 -2.460873
v 4.348164 -0.122336 -2.463939
v 4.346489 -0.121120 -2.466931
v 4.344759 -0.121309 -2.469957
v 4.343853 -0.121174 -2.471551
v 4.343064 -0.120730 -2.472956
v 4.342184 -0.119721 -2.474546
v 4.341528 -0.118747 -2.475743
v 4.340826 -0.117990 -2.477010
v 4.339791 -0.117609 -2.478843
v 4.339258 -0.117846 -2.479765
v 4.338332 -0.118974 -2.481335
v 4.338023 -0.119189 -2.481868
v 4.337672 -0.118766 -2.482502
v 4.337445 -0.117044 -2.482982
v 4.337073 -0.116106 -2.483680
v 4.336698 -0.115601 -2.484361
v 4.336323 -0.115376 -2.485029
v 4.335934 -0.115491 -2.485705
v 4.335450 -0.115979 -2.486530
v 4.334154 -0.119542 -2.488634
v 4.333925 -0.121372 -2.488948
v 4.333754 -0.124961 -2.489078
v 4.333294 -0.126810 -2.489795
v 4.332512 -0.128207 -2.491100
v 4.331668 -0.128694 -2.492555
v 4.330758 -0.128496 -2.494161
v 4.329824 -0.127786 -2.495831
v 4.326955 -0.124502 -2.501019
v 4.326512 -0.124314 -2.501803
v 4.326167 -0.122410 -2.502500
v 4.325616 -0.121239 -2.503521
v 4.325398 -0.120997 -2.503916
v 4.324146 -0.119618 -2.506175
v 4.322409 -0.118229 -2.509287
v 4.321974 -0.117346 -2.510092
v 4.321766 -0.116021 -2.510520
v 4.321573 -0.112641 -2.511018
v 4.321287 -0.111451 -2.511577
v 4.320957 -0.111046 -2.512174
v 4.320621 -0.110928 -2.512769
v 4.320270 -0.110873 -2.513388
v 4.319955 -0.110684 -2.513947
v 4.319309 -0.109885 -2.515119
v 4.317457 -0.106197 -2.518540
v 4.316927 -0.104735 -2.519540
v 4.316493 -0.103158 -2.520376
v 4.316424 -0.102580 -2.520524
v 4.316362 -0.101328 -2.520692
v 4.316232 -0.100807 -2.520946
v 4.316108 -0.100559 -2.521174
v 4.315951 -0.100298 -2.521462
v 4.315227 -0.099644 -2.522764
v 4.314979 -0.099201 -2.523219
v 4.314777 -0.097875 -2.523635
v 4.314570 -0.094269 -2.524171
v 4.314251 -0.093023 -2.524789
v 4.313577 -0.092548 -2.525993
v 4.312861 -0.092764 -2.527238
v 4.312113 -0.093198 -2.528529
v 4.311385 -0.093389 -2.529797
v 4.310721 -0.093046 -2.530977
v 4.310170 -0.092532 -2.531967
v 4.309564 -0.092371 -2.533038
v 4.308898 -0.092785 -2.534185
v 4.308444 -0.093083 -2.534966
v 4.330130 -0.236695 -2.487552
v 4.330649 -0.238270 -2.486467
v 4.331429 -0.240080 -2.484900
v 4.332201 -0.241042 -2.483438
v 4.333066 -0.241375 -2.481885
v 4.334132 -0.241312 -2.480023
v 4.335137 -0.240726 -2.478327
v 4.335623 -0.240736 -2.477473
v 4.335910 -0.241545 -2.476881
v 4.335963 -0.243375 -2.476584
v 4.336112 -0.244186 -2.476233
v 4.336501 -0.244700 -2.475493
v 4.337465 -0.244942 -2.473778
v 4.338283 -0.244690 -2.472371
v 4.340143 -0.243494 -2.469242
v 4.340632 -0.243185 -2.468419
v 4.340932 -0.243151 -2.467897
v 4.342166 -0.244086 -2.465629
v 4.342465 -0.244483 -2.465060
v 4.342805 -0.244753 -2.464435
v 4.343248 -0.244718 -2.463663
v 4.344197 -0.244970 -2.461972
v 4.344939 -0.246008 -2.460556
v 4.345738 -0.246565 -2.459092
v 4.346790 -0.245421 -2.457376
v 4.348376 -0.244833 -2.454659
v 4.349231 -0.244520 -2.453195
v 4.350009 -0.244701 -2.451812
v 4.351778 -0.246332 -2.448529
v 4.352846 -0.246528 -2.446634
v 4.353300 -0.244873 -2.446023
v 4.353399 -0.243784 -2.445970
v 4.353887 -0.241975 -2.445316
v 4.354038 -0.240965 -2.445162
v 4.353933 -0.240055 -2.445447
v 4.353416 -0.238578 -2.446518
v 4.353348 -0.237587 -2.446746
v 4.353673 -0.236506 -2.446299
v 4.367282 -0.237325 -2.422348
v 4.368026 -0.235839 -2.421209
vn 0.8684 -0.0235 -0.4953
vn 0.8684 -0.0239 -0.4953
vn 0.8684 -0.0236 -0.4953
vn 0.8524 -0.0236 -0.5223
vn 0.8603 -0.0314 -0.5088
vn 0.8679 -0.0392 -0.4951
vn 0.8679 -0.0398 -0.4951
vn 0.8679 -0.0395 -0.4950
vn 0.8520 -0.0392 -0.5221
vn 0.8520 -0.0393 -0.5220
vn 0.8673 -0.0545 -0.4948
vn 0.8676 -0.0463 -0.4950
vn 0.8679 -0.0417 -0.4950
vn 0.8673 -0.0553 -0.4946
vn 0.8673 -0.0550 -0.4946
vn 0.8673 -0.0548 -0.4947
vn 0.8681 -0.0339 -0.4952
vn 0.8637 -0.0227 -0.5035
vn 0.8688 -0.0129 -0.4949
vn 0.8684 -0.0230 -0.4953
vn 0.8686 -0.0233 -0.4950
vn 0.8683 -0.0239 -0.4955
vn 0.8683 -0.0235 -0.4953
vn 0.8684 -0.0237 -0.4953
vn 0.8683 -0.0251 -0.4954
vn 0.8683 -0.0233 -0.4954
vn 0.8688 -0.0241 -0.4945
vn 0.8684 -0.0238 -0.4953
vn 0.8684 -0.0233 -0.4953
vn 0.8685 -0.0214 -0.4952
vn 0.8678 -0.0336 -0.4958
vn 0.8681 -0.0235 -0.4958
vn 0.8682 -0.0235 -0.4956
vn 0.8687 -0.0235 -0.4948
vn 0.8676 -0.0229 -0.4966
vn 0.8686 -0.0234 -0.4950
vn 0.8659 -0.0223 -0.4997
vn 0.8682 -0.0265 -0.4956
vn 0.8683 -0.0238 -0.4953
vn 0.8685 -0.0242 -0.4951
vn 0.8683 -0.0237 -0.4954
vn 0.8680 -0.0243 -0.4959
vn 0.8685 -0.0240 -0.4952
vn 0.8683 -0.0230 -0.4954
vn 0.8684 -0.0242 -0.4952
vn 0.8684 -0.0221 -0.4954
vn 0.8683 -0.0232 -0.4954
vn 0.8684 -0.0250 -0.4952
vn 0.8683 -0.0238 -0.4954
vn 0.8684 -0.0234 -0.4953
vn 0.8684 -0.0228 -0.4953
vn 0.8684 -0.0237 -0.4952
vn 0.8683 -0.0255 -0.4953
vn 0.8684 -0.0229 -0.4953
vn 0.8683 -0.0237 -0.4953
vn 0.8683 -0.0246 -0.4954
vn 0.8683 -0.0234 -0.4954
vn 0.8679 -0.0237 -0.4961
vn 0.8683 -0.0234 -0.4955
vn 0.8683 -0.0231 -0.4955
vn 0.8683 -0.0235 -0.4954
vn 0.8685 -0.0230 -0.4951
vn 0.8683 -0.0236 -0.4953
vn 0.8684 -0.0233 -0.4952
vn 0.8683 -0.0238 -0.4955
vn 0.8684 -0.0232 -0.4953
vn 0.8683 -0.0225 -0.4954
vn 0.8683 -0.0236 -0.4954
vn 0.8684 -0.0242 -0.4953
vn 0.8684 -0.0243 -0.4952
vn 0.8684 -0.0238 -0.4952
vn 0.8690 -0.0232 -0.4942
vn 0.8675 -0.0251 -0.4967
vn 0.8681 -0.0217 -0.4959
vn 0.8686 -0.0237 -0.4949
vn 0.8684 -0.0241 -0.4953
vn 0.8684 -0.0247 -0.4952
vn 0.8686 -0.0231 -0.4949
vn 0.8682 -0.0240 -0.4956
vn 0.8683 -0.0236 -0.4955
vn 0.8683 -0.0243 -0.4954
vn 0.8681 -0.0240 -0.4957
vn 0.8683 -0.0242 -0.4953
vn 0.8686 -0.0249 -0.4948
vn 0.8685 -0.0265 -0.4949
vn 0.8687 -0.0228 -0.4948
vn 0.8682 -0.0244 -0.4956
vn 0.8521 -0.0324 -0.5223
vn 0.8524 -0.0236 -0.5224
vn 0.8504 -0.0246 -0.5255
vn 0.8519 -0.0242 -0.5231
vn 0.8525 -0.0236 -0.5221
vn 0.8537 -0.0191 -0.5203
vn 0.8524 -0.0235 -0.5224
vn 0.8523 -0.0241 -0.5224
vn 0.8520 -0.0237 -0.5230
vn 0.8523 -0.0236 -0.5224
vn 0.8524 -0.0229 -0.5224
vn 0.8523 -0.0233 -0.5226
vn 0.8524 -0.0237 -0.5223
vn 0.8525 -0.0235 -0.5222
vn 0.8524 -0.0238 -0.5223
vn 0.8524 -0.0235 -0.5223
vn 0.8525 -0.0238 -0.5221
vn 0.8533 -0.0239 -0.5208
vn 0.8524 -0.0233 -0.5224
vn 0.8525 -0.0232 -0.5222
vn 0.8527 -0.0234 -0.5219
vn 0.8512 -0.0220 -0.5243
vn 0.8678 -0.0430 -0.4950
vn 0.8677 -0.0445 -0.4951
vn 0.8678 -0.0394 -0.4953
vn 0.8668 -0.0393 -0.4971
vn 0.8680 -0.0392 -0.4949
vn 0.8680 -0.0393 -0.4950
vn 0.8696 -0.0379 -0.4923
vn 0.8679 -0.0393 -0.4952
vn 0.8679 -0.0393 -0.4951
vn 0.8675 -0.0398 -0.4958
vn 0.8679 -0.0387 -0.4952
vn 0.8678 -0.0387 -0.4953
vn 0.8679 -0.0392 -0.4950
vn 0.8650 -0.0361 -0.5005
vn 0.8679 -0.0394 -0.4951
vn 0.8679 -0.0393 -0.4950
vn 0.8679 -0.0387 -0.4951
vn 0.8678 -0.0386 -0.4955
vn 0.8679 -0.0392 -0.4952
vn 0.8680 -0.0391 -0.4950
vn 0.8680 -0.0388 -0.4949
vn 0.8678 -0.0393 -0.4954
vn 0.8679 -0.0390 -0.4951
vn 0.8679 -0.0391 -0.4952
vn 0.8683 -0.0399 -0.4945
vn 0.8680 -0.0392 -0.4950
vn 0.8682 -0.0392 -0.4947
vn 0.8678 -0.0392 -0.4953
vn 0.8679 -0.0390 -0.4953
vn 0.8679 -0.0388 -0.4951
vn 0.8677 -0.0394 -0.4955
vn 0.8681 -0.0390 -0.4948
vn 0.8680 -0.0396 -0.4949
vn 0.8679 -0.0395 -0.4952
vn 0.8677 -0.0402 -0.4954
vn 0.8681 -0.0390 -0.4949
vn 0.8679 -0.0395 -0.4951
vn 0.8683 -0.0381 -0.4946
vn 0.8675 -0.0391 -0.4958
vn 0.8680 -0.0389 -0.4949
vn 0.8679 -0.0390 -0.4952
vn 0.8682 -0.0395 -0.4946
vn 0.8676 -0.0393 -0.4957
vn 0.8584 -0.0391 -0.5114
vn 0.8680 -0.0398 -0.4950
vn 0.8679 -0.0397 -0.4950
vn 0.8679 -0.0394 -0.4950
vn 0.8680 -0.0385 -0.4951
vn 0.8685 -0.0383 -0.4942
vn 0.8679 -0.0470 -0.4944
vn 0.8679 -0.0437 -0.4947
vn 0.8679 -0.0412 -0.4950
vn 0.8677 -0.0390 -0.4955
vn 0.8680 -0.0310 -0.4955
vn 0.8678 -0.0385 -0.4954
vn 0.8681 -0.0392 -0.4949
vn 0.8678 -0.0401 -0.4953
vn 0.8678 -0.0404 -0.4952
vn 0.8680 -0.0384 -0.4950
vn 0.8679 -0.0410 -0.4951
vn 0.8681 -0.0369 -0.4950
vn 0.8679 -0.0377 -0.4952
vn 0.8680 -0.0385 -0.4950
vn 0.8679 -0.0389 -0.4951
vn 0.8680 -0.0397 -0.4950
vn 0.8681 -0.0384 -0.4949
vn 0.8679 -0.0391 -0.4950
vn 0.8679 -0.0394 -0.4952
vn 0.8680 -0.0388 -0.4951
vn 0.8679 -0.0384 -0.4951
vn 0.8679 -0.0391 -0.4951
vn 0.8679 -0.0397 -0.4951
vn 0.8680 -0.0374 -0.4951
vn 0.8664 -0.0393 -0.4977
vn 0.8520 -0.0387 -0.5220
vn 0.8525 -0.0401 -0.5211
vn 0.8519 -0.0390 -0.5222
vn 0.8519 -0.0396 -0.5222
vn 0.8520 -0.0391 -0.5221
vn 0.8519 -0.0391 -0.5222
vn 0.8519 -0.0384 -0.5223
vn 0.8520 -0.0392 -0.5220
vn 0.8520 -0.0393 -0.5221
vn 0.8518 -0.0400 -0.5223
vn 0.8519 -0.0393 -0.5222
vn 0.8520 -0.0397 -0.5220
vn 0.8520 -0.0383 -0.5221
vn 0.8518 -0.0409 -0.5223
vn 0.8524 -0.0392 -0.5213
vn 0.8517 -0.0391 -0.5224
vn 0.8523 -0.0385 -0.5216
vn 0.8520 -0.0396 -0.5220
vn 0.8519 -0.0388 -0.5223
vn 0.8520 -0.0401 -0.5220
vn 0.8672 -0.0552 -0.4948
vn 0.8673 -0.0547 -0.4947
vn 0.8673 -0.0550 -0.4947
vn 0.8673 -0.0555 -0.4947
vn 0.8674 -0.0540 -0.4946
vn 0.8671 -0.0576 -0.4947
vn 0.8673 -0.0554 -0.4946
vn 0.8672 -0.0553 -0.4948
vn 0.8670 -0.0565 -0.4950
vn 0.8672 -0.0547 -0.4949
vn 0.8672 -0.0548 -0.4948
vn 0.8676 -0.0544 -0.4942
vn 0.8672 -0.0550 -0.4948
vn 0.8673 -0.0546 -0.4947
vn 0.8672 -0.0549 -0.4948
vn 0.8673 -0.0547 -0.4946
vn 0.8673 -0.0551 -0.4947
vn 0.8672 -0.0548 -0.4949
vn 0.8679 -0.0559 -0.4935
vn 0.8673 -0.0543 -0.4947
vn 0.8674 -0.0549 -0.4946
vn 0.8674 -0.0552 -0.4945
vn 0.8674 -0.0537 -0.4947
vn 0.8673 -0.0552 -0.4947
vn 0.8673 -0.0551 -0.4946
vn 0.8671 -0.0539 -0.4951
vn 0.8673 -0.0525 -0.4950
vn 0.8671 -0.0590 -0.4946
usemtl None
s 1
f 255//1 254//2 250//3
f 24//4 21//4 1//5
f 60//6 71//7 70//8
f 158//9 152//9 172//10
f 326//11 5//12 4//13
f 304//14 324//15 308//16
f 9//17 1//5 246//1
f 1//5 8//18 204//1
f 8//18 205//19 204//1
f 1//5 204//1 203//1
f 206//1 9//17 246//1
f 246//1 1//5 247//20
f 1//5 203//1 256//1
f 209//21 208//22 210//23
f 208//22 207//24 210//23
f 207//24 206//1 216//25
f 247//20 1//5 248//2
f 203//1 202//26 265//3
f 213//27 212//28 214//29
f 212//28 211//30 215//31
f 214//29 212//28 215//31
f 215//31 211//30 210//23
f 216//25 215//31 210//23
f 248//2 1//5 250//3
f 202//26 201//32 196//33
f 250//3 1//5 255//1
f 200//34 199//35 197//36
f 199//35 198//37 197//36
f 201//32 200//34 196//33
f 216//25 210//23 207//24
f 217//38 216//25 245//39
f 245//39 216//25 206//1
f 255//1 1//5 256//1
f 197//36 196//33 200//34
f 196//33 195//40 194//41
f 193//42 192//43 188//44
f 192//43 191//45 188//44
f 191//45 190//46 189//47
f 188//44 191//45 189//47
f 194//41 193//42 187//29
f 193//42 188//44 187//29
f 196//33 194//41 202//26
f 194//41 187//29 266//24
f 194//41 266//24 202//26
f 187//29 186//24 266//24
f 220//2 219//21 224//1
f 219//21 218//48 224//1
f 222//49 221//50 224//1
f 221//50 220//2 224//1
f 224//1 223//51 222//49
f 225//1 224//1 218//48
f 226//29 225//1 244//52
f 225//1 218//48 245//39
f 244//52 225//1 245//39
f 218//48 217//38 245//39
f 229//3 228//29 232//53
f 228//29 227//54 232//53
f 226//29 233//55 227//54
f 230//56 229//3 231//57
f 233//55 226//29 244//52
f 227//54 233//55 232//53
f 273//29 186//24 274//54
f 229//3 232//53 231//57
f 184//49 183//58 181//29
f 183//58 182//59 181//29
f 181//29 180//50 184//49
f 185//28 184//49 180//50
f 185//28 180//50 275//3
f 180//50 179//60 281//50
f 275//3 281//50 280//28
f 177//61 286//62 285//3
f 285//3 284//63 177//61
f 284//63 283//64 178//65
f 284//63 178//65 177//61
f 283//64 282//66 178//65
f 179//60 178//65 282//66
f 282//66 281//50 179//60
f 280//28 279//1 275//3
f 279//1 278//67 276//68
f 279//1 276//68 275//3
f 278//67 277//36 276//68
f 180//50 281//50 275//3
f 186//24 185//28 274//54
f 236//69 235//39 240//3
f 235//39 234//57 240//3
f 234//57 233//55 243//70
f 186//24 273//29 267//71
f 185//28 275//3 274//54
f 273//29 272//50 268//72
f 272//50 271//73 268//72
f 271//73 270//74 269//75
f 268//72 271//73 269//75
f 186//24 267//71 266//24
f 237//76 236//69 239//54
f 239//54 236//69 240//3
f 239//54 238//77 237//76
f 241//24 240//3 234//57
f 243//70 242//50 234//57
f 242//50 241//24 234//57
f 273//29 268//72 267//71
f 244//52 243//70 233//55
f 202//26 266//24 265//3
f 265//3 264//1 203//1
f 246//1 245//39 206//1
f 264//1 263//78 257//79
f 262//80 261//81 258//1
f 261//81 260//82 258//1
f 264//1 257//79 256//1
f 263//78 262//80 257//79
f 250//3 249//83 248//2
f 256//1 203//1 264//1
f 257//79 262//80 258//1
f 260//82 259//84 258//1
f 252//85 251//86 253//87
f 251//86 250//3 253//87
f 254//2 253//87 250//3
f 1//5 3//88 35//89
f 3//88 36//90 35//89
f 35//89 34//91 33//92
f 10//93 8//18 11//94
f 8//18 1//5 11//94
f 1//5 35//89 31//95
f 35//89 33//92 32//96
f 35//89 32//96 31//95
f 12//97 11//94 1//5
f 15//98 14//99 16//100
f 14//99 13//4 16//100
f 13//4 12//97 19//101
f 12//97 1//5 19//101
f 30//102 29//89 26//103
f 29//89 28//103 26//103
f 1//5 31//95 30//102
f 17//104 16//100 13//4
f 19//101 18//105 17//104
f 19//101 17//104 13//4
f 1//5 30//102 25//89
f 28//103 27//106 26//103
f 30//102 26//103 25//89
f 20//107 19//101 1//5
f 24//4 23//108 21//4
f 23//108 22//109 21//4
f 1//5 25//89 24//4
f 21//4 20//107 1//5
f 6//110 7//111 93//112
f 7//111 89//113 86//114
f 93//112 7//111 86//114
f 89//113 88//115 86//114
f 88//115 87//116 86//114
f 86//114 85//6 93//112
f 85//6 84//117 83//118
f 83//118 82//119 81//120
f 90//121 6//110 91//122
f 92//123 6//110 93//112
f 92//123 91//122 6//110
f 85//6 83//118 93//112
f 93//112 83//118 94//124
f 83//118 81//120 135//122
f 94//124 83//118 135//122
f 95//115 94//124 135//122
f 95//115 135//122 134//125
f 81//120 80//126 137//122
f 95//115 134//125 96//114
f 98//6 97//127 96//114
f 134//125 98//6 96//114
f 98//6 134//125 99//122
f 99//122 134//125 133//6
f 99//122 133//6 100//6
f 100//6 133//6 125//117
f 101//6 100//6 125//117
f 101//6 115//128 109//6
f 4//13 5//12 102//6
f 105//129 104//130 102//6
f 104//130 103//118 102//6
f 103//118 4//13 102//6
f 107//131 106//118 108//132
f 106//118 105//129 108//132
f 105//129 102//6 108//132
f 102//6 101//6 108//132
f 109//6 108//132 101//6
f 115//128 101//6 124//133
f 112//134 111//135 113//136
f 111//135 110//137 115//128
f 110//137 109//6 115//128
f 124//133 101//6 125//117
f 111//135 115//128 114//138
f 114//138 113//136 111//135
f 118//125 117//139 116//140
f 116//140 115//128 123//141
f 118//125 116//140 122//118
f 115//128 124//133 123//141
f 120//142 119//143 121//137
f 119//143 118//125 122//118
f 122//118 121//137 119//143
f 123//141 122//118 116//140
f 125//117 133//6 132//124
f 126//144 125//117 132//124
f 80//126 79//145 1//5
f 127//146 126//144 132//124
f 128//115 127//146 132//124
f 130//147 129//148 128//115
f 132//124 131//149 128//115
f 131//149 130//147 128//115
f 135//122 81//120 136//6
f 136//6 81//120 137//122
f 137//122 80//126 138//6
f 138//6 80//126 9//17
f 9//17 80//126 1//5
f 140//150 139//122 9//17
f 139//122 138//6 9//17
f 9//17 141//151 140//150
f 37//152 2//153 1//5
f 40//6 39//154 38//142
f 38//142 37//152 45//155
f 37//152 1//5 45//155
f 40//6 38//142 41//156
f 42//115 41//156 44//157
f 44//157 41//156 38//142
f 44//157 43//158 42//115
f 47//159 46//160 45//155
f 48//154 47//159 45//155
f 45//155 44//157 38//142
f 1//5 79//145 60//6
f 79//145 78//161 60//6
f 77//162 76//163 73//150
f 76//163 75//164 74//165
f 73//150 76//163 74//165
f 78//161 77//162 72//139
f 48//154 45//155 1//5
f 78//161 72//139 60//6
f 77//162 73//150 72//139
f 49//8 48//154 1//5
f 52//166 51//167 54//168
f 51//167 50//169 54//168
f 50//169 49//8 59//170
f 49//8 1//5 60//6
f 72//139 71//7 60//6
f 49//8 60//6 59//170
f 54//168 53//171 52//166
f 56//172 55//173 59//170
f 55//173 54//168 50//169
f 58//174 57//175 56//172
f 59//170 58//174 56//172
f 59//170 55//173 50//169
f 70//8 69//176 61//177
f 69//176 68//178 61//177
f 68//178 67//179 64//6
f 61//177 68//178 63//180
f 67//179 66//181 64//6
f 66//181 65//182 64//6
f 64//6 63//180 68//178
f 63//180 62//183 61//177
f 61//177 60//6 70//8
f 1//5 2//153 172//10
f 2//153 176//184 173//185
f 176//184 175//186 174//187
f 176//184 174//187 173//185
f 3//88 1//5 144//188
f 2//153 173//185 172//10
f 143//10 142//189 3//88
f 144//188 143//10 3//88
f 1//5 172//10 152//9
f 149//9 1//5 152//9
f 145//188 144//188 1//5
f 147//190 146//191 145//188
f 148//192 147//190 145//188
f 170//193 169//194 166//195
f 169//194 168//196 167//197
f 166//195 169//194 167//197
f 166//195 165//198 164//188
f 164//188 163//199 160//9
f 163//199 162//200 161//187
f 160//9 163//199 161//187
f 160//9 159//9 170//193
f 164//188 170//193 166//195
f 171//201 170//193 159//9
f 164//188 160//9 170//193
f 158//9 157//191 152//9
f 157//191 156//9 152//9
f 152//9 156//9 155//202
f 159//9 158//9 171//201
f 155//202 154//191 152//9
f 154//191 153//203 152//9
f 152//9 151//9 149//9
f 151//9 150//188 149//9
f 171//201 158//9 172//10
f 148//192 145//188 1//5
f 149//9 148//192 1//5
f 326//11 325//204 5//12
f 7//111 6//110 294//205
f 6//110 324//15 303//206
f 294//205 6//110 303//206
f 324//15 323//207 312//206
f 288//205 287//14 293//208
f 287//14 7//111 293//208
f 290//209 289//208 291//210
f 289//208 288//205 291//210
f 292//211 291//210 288//205
f 293//208 292//211 288//205
f 294//205 303//206 302//212
f 323//207 322//213 314//214
f 322//213 321//215 319//216
f 321//215 320//217 319//216
f 319//216 318//206 322//213
f 318//206 317//218 315//219
f 317//218 316//220 315//219
f 315//219 314//214 318//206
f 293//208 7//111 294//205
f 322//213 318//206 314//214
f 314//214 313//221 323//207
f 297//222 296//16 298//204
f 296//16 295//223 299//224
f 295//223 294//205 301//225
f 303//206 324//15 304//14
f 313//221 312//206 323//207
f 311//226 310//205 309//227
f 312//206 311//226 308//16
f 296//16 299//224 298//204
f 294//205 302//212 301//225
f 301//225 300//228 295//223
f 300//228 299//224 295//223
f 312//206 308//16 324//15
f 311//226 309//227 308//16
f 308//16 307//229 304//14
f 307//229 306//230 305//231
f 307//229 305//231 304//14
