# Blender v2.81 (sub 16) OBJ File: ''
# www.blender.org
mtllib Saint Vincent and the Grenadines.mtl
o 0_Saint_Vincent_and_the_Grenadines_sphere.001
v 2.331593 1.090714 4.286149
v 2.333489 1.090714 4.285145
v 2.332585 1.089390 4.285946
v 2.331623 1.089474 4.286435
v 2.331289 1.089933 4.286500
v 2.331549 1.090368 4.286256
v 2.333761 1.089963 4.285184
v 2.333359 1.089624 4.285479
v 2.331375 1.091029 4.286182
v 2.331459 1.091269 4.286074
v 2.331966 1.091499 4.285746
v 2.332501 1.091325 4.285508
vn 0.4564 0.2105 0.8645
vn 0.4552 0.2106 0.8651
vn 0.4567 0.2140 0.8635
vn 0.4543 0.2261 0.8617
vn 0.4531 0.2273 0.8620
vn 0.4560 0.2189 0.8626
vn 0.4573 0.2104 0.8640
vn 0.4566 0.2104 0.8644
vn 0.4580 0.2102 0.8637
vn 0.4571 0.2103 0.8642
vn 0.4561 0.2257 0.8608
vn 0.4559 0.2255 0.8610
usemtl None
s 1
f 8//1 7//2 2//3
f 10//4 9//5 1//6
f 2//3 1//6 3//7
f 1//6 6//8 3//7
f 6//8 5//9 4//10
f 4//10 3//7 6//8
f 3//7 8//1 2//3
f 1//6 2//3 12//11
f 12//11 11//12 1//6
f 11//12 10//4 1//6
o 1_Saint_Vincent_and_the_Grenadines_sphere.001
v 2.339017 1.098588 4.280154
v 2.338322 1.098889 4.280443
v 2.338452 1.099138 4.280309
v 2.339314 1.099346 4.279798
v 2.339641 1.099907 4.279478
v 2.339406 1.100659 4.279405
v 2.339344 1.101490 4.279220
v 2.339991 1.102004 4.278742
v 2.340480 1.102058 4.278469
v 2.340754 1.101738 4.278408
v 2.341016 1.100968 4.278471
v 2.340655 1.100368 4.278820
v 2.340271 1.099879 4.279151
v 2.340143 1.099136 4.279414
v 2.339797 1.098641 4.279727
vn 0.4559 0.2255 0.8610
vn 0.4558 0.2259 0.8609
vn 0.4560 0.2257 0.8609
vn 0.4559 0.2257 0.8609
vn 0.4561 0.2260 0.8607
vn 0.4546 0.2256 0.8616
vn 0.4557 0.2257 0.8610
vn 0.4556 0.2259 0.8610
vn 0.4554 0.2257 0.8611
vn 0.4557 0.2258 0.8610
vn 0.4559 0.2254 0.8610
vn 0.4555 0.2264 0.8609
vn 0.4556 0.2257 0.8610
usemtl None
s 1
f 26//13 25//14 17//15
f 23//16 22//17 20//14
f 22//17 21//18 20//14
f 20//14 19//19 24//20
f 23//16 20//14 24//20
f 19//19 18//21 24//20
f 18//21 17//15 25//14
f 16//13 15//22 13//23
f 15//22 14//24 13//23
f 17//15 16//13 26//13
f 16//13 13//23 27//25
f 26//13 16//13 27//25
f 25//14 24//20 18//21
o 2_Saint_Vincent_and_the_Grenadines_sphere.001
v 2.349001 1.112465 4.271201
v 2.348810 1.113514 4.271031
v 2.349315 1.114819 4.270394
v 2.349935 1.114672 4.270080
v 2.349483 1.112980 4.270789
v 2.349223 1.112499 4.271065
vn 0.4834 0.2255 0.8459
vn 0.4825 0.2257 0.8463
vn 0.4834 0.2257 0.8458
vn 0.4819 0.2257 0.8467
vn 0.4823 0.2257 0.8464
vn 0.4842 0.2254 0.8454
usemtl None
s 1
f 33//26 32//27 29//28
f 31//29 30//30 32//27
f 30//30 29//28 32//27
f 29//28 28//31 33//26
o 3_Saint_Vincent_and_the_Grenadines_sphere.001
v 2.346466 1.129084 4.268214
v 2.346539 1.128434 4.268346
v 2.346658 1.127366 4.268563
v 2.343935 1.123204 4.271096
v 2.344491 1.123207 4.270801
v 2.344013 1.122572 4.271220
v 2.343550 1.123194 4.271302
v 2.342906 1.123575 4.271543
v 2.342140 1.123756 4.271901
v 2.341262 1.123714 4.272377
v 2.341185 1.124354 4.272250
v 2.342358 1.123973 4.271729
v 2.344021 1.124353 4.270749
v 2.343938 1.125036 4.270614
v 2.343367 1.125666 4.270751
v 2.343092 1.126102 4.270782
v 2.343662 1.126768 4.270306
v 2.345570 1.128271 4.268902
v 2.346108 1.126693 4.269031
v 2.345034 1.124134 4.270270
v 2.346693 1.128145 4.268335
v 2.347043 1.127855 4.268213
vn 0.4548 0.2257 0.8615
vn 0.4553 0.2256 0.8613
vn 0.4557 0.2258 0.8610
vn 0.4629 0.2257 0.8571
vn 0.4857 0.2250 0.8446
vn 0.4596 0.2256 0.8590
vn 0.4558 0.2254 0.8610
vn 0.4557 0.2257 0.8610
vn 0.4557 0.2256 0.8610
vn 0.4559 0.2257 0.8610
vn 0.4548 0.2264 0.8613
vn 0.4555 0.2257 0.8611
vn 0.4559 0.2257 0.8609
vn 0.4560 0.2246 0.8611
vn 0.4560 0.2257 0.8608
vn 0.4559 0.2248 0.8611
vn 0.4560 0.2260 0.8607
vn 0.4558 0.2253 0.8611
vn 0.4556 0.2258 0.8610
vn 0.4562 0.2258 0.8607
vn 0.4829 0.2256 0.8461
usemtl None
s 1
f 40//32 37//33 46//34
f 36//35 54//36 35//37
f 35//37 34//38 51//39
f 51//39 50//40 52//41
f 50//40 49//42 48//43
f 47//34 50//40 48//43
f 50//40 47//34 52//41
f 36//35 35//37 51//39
f 37//33 53//44 46//34
f 53//44 52//41 47//34
f 46//34 53//44 47//34
f 52//41 36//35 51//39
f 45//45 44//46 42//47
f 44//46 43//48 42//47
f 46//34 45//45 41//49
f 45//45 42//47 41//49
f 39//50 38//51 37//33
f 40//32 39//50 37//33
f 41//49 40//32 46//34
f 36//35 55//52 54//36
o 4_Saint_Vincent_and_the_Grenadines_sphere.001
v 2.343380 1.156725 4.262601
v 2.345630 1.136573 4.266693
v 2.344815 1.136979 4.267018
v 2.339822 1.140556 4.268724
v 2.338937 1.143043 4.268540
v 2.338841 1.145954 4.267828
v 2.339587 1.148196 4.266845
v 2.339383 1.148523 4.266868
v 2.338900 1.149356 4.266905
v 2.340900 1.149738 4.265746
v 2.341535 1.151651 4.264908
v 2.341799 1.154109 4.264123
v 2.342562 1.156077 4.263204
v 2.346795 1.135986 4.266185
v 2.344290 1.157064 4.261992
v 2.345060 1.157075 4.261549
v 2.346970 1.156741 4.260549
v 2.347527 1.156509 4.260293
v 2.347873 1.155926 4.260252
v 2.348476 1.154686 4.260238
v 2.349652 1.150902 4.260577
v 2.350203 1.145693 4.261652
v 2.349748 1.140583 4.263275
v 2.347992 1.137141 4.265194
vn 0.4570 0.2256 0.8603
vn 0.4559 0.2257 0.8609
vn 0.4556 0.2257 0.8610
vn 0.4827 0.2257 0.8462
vn 0.4828 0.2259 0.8461
vn 0.4734 0.2258 0.8514
vn 0.4736 0.2256 0.8513
vn 0.4557 0.2257 0.8610
vn 0.4554 0.2255 0.8613
vn 0.4553 0.2260 0.8612
vn 0.4552 0.2260 0.8612
vn 0.4560 0.2259 0.8608
vn 0.4560 0.2257 0.8609
vn 0.4558 0.2257 0.8610
vn 0.4827 0.2256 0.8462
vn 0.4829 0.2256 0.8461
vn 0.4826 0.2257 0.8462
vn 0.4827 0.2258 0.8462
vn 0.4818 0.2255 0.8468
vn 0.4828 0.2255 0.8462
vn 0.4819 0.2252 0.8468
vn 0.4833 0.2271 0.8455
usemtl None
s 1
f 58//53 65//54 61//55
f 75//56 71//57 56//58
f 57//59 56//58 66//60
f 56//58 68//61 67//62
f 66//60 56//58 67//62
f 65//54 64//63 63//64
f 65//54 63//64 62//65
f 57//59 66//60 65//54
f 59//66 58//53 60//54
f 58//53 57//59 65//54
f 61//55 60//54 58//53
f 65//54 62//65 61//55
f 56//58 57//59 77//56
f 57//59 69//67 79//68
f 56//58 77//56 76//69
f 79//68 78//70 57//59
f 78//70 77//56 57//59
f 76//69 75//56 56//58
f 75//56 74//71 72//72
f 74//71 73//73 72//72
f 72//72 71//57 75//56
f 71//57 70//74 56//58
