# Blender v2.81 (sub 16) OBJ File: ''
# www.blender.org
mtllib Saint Pierre and Miquelon.mtl
o 0_Saint_Pierre_and_Miquelon_sphere.001
v 1.903933 3.644842 2.843977
v 1.906464 3.644842 2.842315
v 1.904171 3.645104 2.843483
v 1.904628 3.645252 2.842990
v 1.905531 3.645380 2.842232
v 1.906343 3.645175 2.841964
v 1.905858 3.641853 2.846461
v 1.904522 3.641956 2.847210
v 1.903196 3.642600 2.847274
v 1.903463 3.643989 2.845356
v 1.903700 3.644555 2.844491
v 1.906663 3.644315 2.842846
v 1.906540 3.644039 2.843272
v 1.906496 3.643768 2.843642
v 1.906536 3.643419 2.844052
v 1.906691 3.643060 2.844400
v 1.907629 3.642707 2.844227
v 1.907956 3.642627 2.844114
v 1.907095 3.642129 2.845303
vn 0.3726 0.7341 0.5676
vn 0.3728 0.7345 0.5670
vn 0.3775 0.7257 0.5751
vn 0.3788 0.7235 0.5770
vn 0.3789 0.7234 0.5771
vn 0.3756 0.7295 0.5716
vn 0.3726 0.7342 0.5675
vn 0.3728 0.7345 0.5669
vn 0.3792 0.7237 0.5766
vn 0.3789 0.7233 0.5772
vn 0.3809 0.7232 0.5761
vn 0.3790 0.7235 0.5770
vn 0.3795 0.7233 0.5769
vn 0.3790 0.7235 0.5769
vn 0.3788 0.7236 0.5770
vn 0.3787 0.7236 0.5770
vn 0.3789 0.7235 0.5769
vn 0.3786 0.7241 0.5765
vn 0.3787 0.7238 0.5767
usemtl None
s 1
f 4//1 3//2 1//3
f 14//4 1//3 15//5
f 1//3 2//6 4//1
f 2//6 6//7 5//8
f 4//1 2//6 5//8
f 2//6 1//3 13//9
f 1//3 11//10 15//5
f 2//6 13//9 12//11
f 11//10 10//12 15//5
f 10//12 9//13 8//14
f 7//15 10//12 8//14
f 7//15 19//16 16//17
f 19//16 18//18 17//19
f 19//16 17//19 16//17
f 10//12 7//15 16//17
f 15//5 10//12 16//17
f 13//9 1//3 14//4
o 1_Saint_Pierre_and_Miquelon_sphere.001
v 1.895088 3.644842 2.849787
v 1.898413 3.644842 2.847604
v 1.897275 3.643688 2.849799
v 1.896788 3.643478 2.850382
v 1.895969 3.643853 2.850449
v 1.895166 3.644600 2.850040
v 1.893258 3.655922 2.836650
v 1.892830 3.655672 2.837255
v 1.892466 3.655804 2.837324
v 1.892154 3.656094 2.837153
v 1.891914 3.656347 2.836983
v 1.891670 3.656470 2.836984
v 1.891364 3.656438 2.837227
v 1.890700 3.656084 2.838122
v 1.889873 3.656294 2.838393
v 1.889604 3.656212 2.838675
v 1.889939 3.655661 2.839169
v 1.890334 3.655350 2.839311
v 1.890699 3.655259 2.839189
v 1.890952 3.655306 2.838963
v 1.891460 3.655134 2.838851
v 1.891742 3.655148 2.838648
v 1.892086 3.655075 2.838517
v 1.892481 3.654855 2.838542
v 1.892814 3.654453 2.838843
v 1.892845 3.654181 2.839175
v 1.892772 3.653974 2.839491
v 1.892745 3.653796 2.839739
v 1.894203 3.651371 2.841919
v 1.894873 3.650607 2.842468
v 1.895551 3.650374 2.842324
v 1.896923 3.650341 2.841467
v 1.899665 3.648959 2.841453
v 1.900054 3.647173 2.843509
v 1.899072 3.645484 2.846340
v 1.895028 3.645086 2.849512
v 1.894791 3.645498 2.849134
v 1.893618 3.646113 2.849108
v 1.892925 3.646829 2.848637
v 1.893209 3.647734 2.847279
v 1.894205 3.649149 2.844793
v 1.893554 3.651476 2.842210
v 1.891710 3.653800 2.840414
v 1.886413 3.658652 2.837613
v 1.885705 3.659585 2.836871
v 1.884260 3.661729 2.835046
v 1.883412 3.662689 2.834362
v 1.883140 3.663243 2.833823
v 1.883117 3.663929 2.832949
v 1.883299 3.664476 2.832123
v 1.883651 3.664814 2.831454
v 1.884172 3.664878 2.831029
v 1.884979 3.664540 2.830936
v 1.884406 3.663974 2.832045
v 1.884233 3.663384 2.832922
v 1.884632 3.662778 2.833444
v 1.885736 3.662117 2.833574
v 1.886760 3.661784 2.833333
v 1.888714 3.661451 2.832480
v 1.892318 3.659718 2.832355
v 1.892749 3.659142 2.832817
v 1.893206 3.658347 2.833547
v 1.893459 3.657608 2.834336
v 1.893124 3.657026 2.835310
v 1.893230 3.656476 2.835951
vn 0.3789 0.7234 0.5771
vn 0.3790 0.7234 0.5770
vn 0.3790 0.7235 0.5770
vn 0.3728 0.7345 0.5670
vn 0.3726 0.7346 0.5670
vn 0.3727 0.7342 0.5674
vn 0.3741 0.7320 0.5694
vn 0.3762 0.7281 0.5730
vn 0.3781 0.7223 0.5790
vn 0.3727 0.7344 0.5672
vn 0.3728 0.7342 0.5674
vn 0.3726 0.7343 0.5673
vn 0.3725 0.7342 0.5675
vn 0.3727 0.7343 0.5673
vn 0.3728 0.7341 0.5675
vn 0.3728 0.7342 0.5673
vn 0.3727 0.7343 0.5672
vn 0.3730 0.7343 0.5672
vn 0.3723 0.7343 0.5676
vn 0.3727 0.7347 0.5668
vn 0.3731 0.7345 0.5669
vn 0.3725 0.7339 0.5680
vn 0.3734 0.7347 0.5664
vn 0.3739 0.7346 0.5660
vn 0.3716 0.7329 0.5698
vn 0.3725 0.7345 0.5672
vn 0.3732 0.7341 0.5673
vn 0.3729 0.7345 0.5669
vn 0.3726 0.7352 0.5662
vn 0.3723 0.7345 0.5673
vn 0.3721 0.7336 0.5686
vn 0.3726 0.7342 0.5675
vn 0.3728 0.7342 0.5675
vn 0.3728 0.7344 0.5671
vn 0.3727 0.7342 0.5675
vn 0.3728 0.7343 0.5672
vn 0.3726 0.7343 0.5674
vn 0.3731 0.7342 0.5672
vn 0.3731 0.7338 0.5676
vn 0.3725 0.7342 0.5676
vn 0.3731 0.7344 0.5669
vn 0.3728 0.7343 0.5673
vn 0.3726 0.7342 0.5674
vn 0.3727 0.7341 0.5676
vn 0.3725 0.7341 0.5677
vn 0.3726 0.7344 0.5673
vn 0.3728 0.7340 0.5677
vn 0.3724 0.7341 0.5678
usemtl None
s 1
f 24//20 23//21 22//22
f 29//23 28//24 26//25
f 21//26 20//27 22//22
f 20//27 25//28 24//20
f 22//22 20//27 24//20
f 20//27 21//26 55//29
f 21//26 54//30 59//31
f 55//29 21//26 56//32
f 54//30 53//25 60//33
f 53//25 52//34 51//35
f 50//33 53//25 51//35
f 50//33 49//36 60//33
f 53//25 50//33 60//33
f 56//32 21//26 59//31
f 54//30 60//33 59//31
f 58//37 57//38 59//31
f 57//38 56//32 59//31
f 49//36 48//36 61//25
f 60//33 49//36 61//25
f 46//39 45//40 40//41
f 45//40 44//42 40//41
f 44//42 43//43 41//44
f 43//43 42//45 41//44
f 41//44 40//41 44//42
f 40//41 39//46 38//47
f 47//48 46//39 62//31
f 46//39 40//41 62//31
f 61//25 48//36 47//48
f 64//33 63//33 78//33
f 63//33 62//31 36//49
f 62//31 61//25 47//48
f 40//41 38//47 62//31
f 38//47 37//50 62//31
f 67//51 66//52 75//53
f 66//52 65//25 75//53
f 69//34 68//54 73//55
f 68//54 67//51 74//47
f 71//56 70//32 73//55
f 70//32 69//34 73//55
f 73//55 72//57 71//56
f 74//47 73//55 68//54
f 74//47 67//51 75//53
f 62//31 37//50 36//49
f 65//25 64//33 76//56
f 75//53 65//25 76//56
f 63//33 36//49 35//58
f 63//33 35//58 34//59
f 79//60 78//33 80//61
f 78//33 77//62 64//33
f 80//61 78//33 31//63
f 77//62 76//56 64//33
f 63//33 34//59 32//25
f 78//33 32//25 31//63
f 34//59 33//64 32//25
f 63//33 32//25 78//33
f 82//49 81//34 83//65
f 81//34 80//61 31//63
f 83//65 81//34 31//63
f 26//25 84//36 30//66
f 84//36 83//65 30//66
f 30//66 83//65 31//63
f 28//24 27//67 26//25
f 30//66 29//23 26//25
