# Blender v2.81 (sub 16) OBJ File: ''
# www.blender.org
mtllib Saint Helena.mtl
o 0_Saint_Helena_sphere.001
v 3.750487 -3.240215 0.656258
v 3.750872 -3.239198 0.659018
v 3.752452 -3.236262 0.664321
v 3.752839 -3.235796 0.664379
v 3.753947 -3.234584 0.663954
v 3.754396 -3.234149 0.663510
v 3.754702 -3.233967 0.662648
v 3.755377 -3.233786 0.659665
v 3.755374 -3.233967 0.658795
v 3.755030 -3.234478 0.658266
v 3.753673 -3.236267 0.657304
v 3.753187 -3.236936 0.656813
v 3.752579 -3.237945 0.655364
v 3.752191 -3.238502 0.654862
v 3.751446 -3.239467 0.654418
vn 0.7542 -0.6433 0.1315
vn 0.7541 -0.6434 0.1316
vn 0.7541 -0.6433 0.1316
vn 0.7543 -0.6431 0.1320
vn 0.7541 -0.6434 0.1317
vn 0.7541 -0.6435 0.1316
vn 0.7550 -0.6424 0.1313
vn 0.7541 -0.6435 0.1314
vn 0.7541 -0.6435 0.1317
vn 0.7541 -0.6433 0.1321
vn 0.7541 -0.6433 0.1318
usemtl None
s 1
f 12//1 11//2 2//3
f 15//4 14//1 1//5
f 14//1 13//1 1//5
f 13//1 12//1 2//3
f 2//3 1//5 13//1
f 4//6 3//2 7//1
f 3//2 2//3 11//2
f 6//7 5//8 7//1
f 5//8 4//6 7//1
f 8//9 7//1 11//2
f 10//10 9//11 8//9
f 11//2 10//10 8//9
f 11//2 7//1 3//2
o 1_Saint_Helena_sphere.001
v 3.893917 -3.019254 0.847345
v 3.894726 -3.017648 0.849485
v 3.895389 -3.016170 0.851848
v 3.896027 -3.015497 0.851298
v 3.897556 -3.013790 0.850337
v 3.898281 -3.013022 0.849724
v 3.898527 -3.012779 0.849450
v 3.899023 -3.013005 0.846202
v 3.898809 -3.013615 0.844943
v 3.898403 -3.014439 0.843806
v 3.898164 -3.015175 0.842190
v 3.897685 -3.015732 0.842405
v 3.897347 -3.016096 0.842665
v 3.897073 -3.016371 0.842960
v 3.896824 -3.016582 0.843365
v 3.894967 -3.018447 0.845312
v 3.894084 -3.019272 0.846473
vn 0.7785 -0.6066 0.1610
vn 0.7784 -0.6066 0.1612
vn 0.7785 -0.6066 0.1611
vn 0.7785 -0.6065 0.1612
vn 0.7785 -0.6065 0.1616
vn 0.7790 -0.6059 0.1613
vn 0.7785 -0.6065 0.1611
vn 0.7787 -0.6064 0.1610
vn 0.7787 -0.6063 0.1612
vn 0.7785 -0.6066 0.1612
vn 0.7789 -0.6060 0.1613
vn 0.7784 -0.6065 0.1616
vn 0.7785 -0.6067 0.1607
vn 0.7783 -0.6067 0.1614
vn 0.7784 -0.6067 0.1613
usemtl None
s 1
f 23//12 20//13 17//14
f 25//15 24//14 30//16
f 24//14 23//12 17//14
f 23//12 22//17 21//18
f 21//18 20//13 23//12
f 20//13 19//14 17//14
f 19//14 18//19 17//14
f 17//14 16//20 31//21
f 16//20 32//22 31//21
f 31//21 30//16 24//14
f 17//14 31//21 24//14
f 30//16 29//23 25//15
f 29//23 28//24 25//15
f 28//24 27//25 25//15
f 27//25 26//26 25//15
o 2_Saint_Helena_sphere.001
v 4.784421 -1.371316 0.473981
v 4.784120 -1.372576 0.473466
v 4.783798 -1.373777 0.473300
v 4.783420 -1.375019 0.473531
v 4.782961 -1.376353 0.474260
v 4.782650 -1.377092 0.475174
v 4.782377 -1.377639 0.476244
v 4.781997 -1.378499 0.477474
v 4.782114 -1.378009 0.477683
v 4.782154 -1.377752 0.477978
v 4.782167 -1.377579 0.478304
v 4.782208 -1.377299 0.478649
v 4.781748 -1.378473 0.479805
v 4.781385 -1.379222 0.481163
v 4.781184 -1.379369 0.482604
v 4.781208 -1.378750 0.483987
v 4.781429 -1.377652 0.484798
v 4.781705 -1.376745 0.484630
v 4.782028 -1.375818 0.484091
v 4.782380 -1.374693 0.483795
v 4.782786 -1.373451 0.483301
v 4.783283 -1.372174 0.482083
v 4.783751 -1.371100 0.480609
v 4.784081 -1.370421 0.479356
v 4.784243 -1.370247 0.478340
v 4.784504 -1.370297 0.475846
v 4.784750 -1.369849 0.474770
vn 0.9568 -0.2709 0.1057
vn 0.9568 -0.2710 0.1056
vn 0.9566 -0.2714 0.1056
vn 0.9567 -0.2711 0.1055
vn 0.9567 -0.2712 0.1056
vn 0.9569 -0.2705 0.1057
vn 0.9566 -0.2716 0.1057
vn 0.9567 -0.2713 0.1056
vn 0.9567 -0.2713 0.1057
vn 0.9566 -0.2714 0.1057
vn 0.9566 -0.2716 0.1056
vn 0.9567 -0.2712 0.1055
vn 0.9567 -0.2712 0.1054
vn 0.9565 -0.2716 0.1059
vn 0.9563 -0.2723 0.1060
vn 0.9562 -0.2731 0.1055
vn 0.9565 -0.2720 0.1056
vn 0.9565 -0.2720 0.1054
vn 0.9570 -0.2701 0.1056
vn 0.9559 -0.2739 0.1055
vn 0.9566 -0.2715 0.1057
usemtl None
s 1
f 45//27 44//28 51//29
f 35//30 34//31 58//31
f 34//31 33//32 58//31
f 33//32 59//33 58//31
f 58//31 57//34 36//34
f 57//34 56//35 44//28
f 56//35 55//36 44//28
f 55//36 54//34 44//28
f 54//34 53//31 44//28
f 53//31 52//37 44//28
f 51//29 50//38 48//39
f 50//38 49//40 48//39
f 52//37 51//29 44//28
f 57//34 44//28 36//34
f 37//41 36//34 38//34
f 36//34 35//30 58//31
f 39//42 38//34 44//28
f 44//28 38//34 36//34
f 41//43 40//44 39//42
f 44//28 43//45 39//42
f 43//45 42//46 39//42
f 42//46 41//43 39//42
f 47//33 51//29 48//39
f 47//33 46//47 51//29
f 46//47 45//27 51//29
o 3_Saint_Helena_sphere.001
v 4.796734 -0.688080 1.231597
v 4.795989 -0.693811 1.231406
v 4.797574 -0.686288 1.229132
v 4.797687 -0.686283 1.228663
v 4.797905 -0.685878 1.227986
v 4.797915 -0.687185 1.227194
v 4.798352 -0.689570 1.224000
v 4.798463 -0.691124 1.222647
v 4.798176 -0.691702 1.223506
v 4.797592 -0.692596 1.225427
v 4.797285 -0.693259 1.226326
v 4.797011 -0.693668 1.227228
v 4.796425 -0.693793 1.229600
v 4.796134 -0.694101 1.230633
v 4.797159 -0.686290 1.230858
v 4.797569 -0.685295 1.229725
v 4.797548 -0.685945 1.229437
v 4.795873 -0.693607 1.231933
v 4.795890 -0.692666 1.232350
v 4.796001 -0.691574 1.232499
v 4.796005 -0.690601 1.232981
v 4.796429 -0.689296 1.232095
vn 0.9637 -0.1332 0.2313
vn 0.9637 -0.1330 0.2313
vn 0.9608 -0.1332 0.2429
vn 0.9559 -0.1329 0.2619
vn 0.9560 -0.1330 0.2614
vn 0.9627 -0.1331 0.2355
vn 0.9639 -0.1321 0.2312
vn 0.9637 -0.1331 0.2314
vn 0.9637 -0.1331 0.2315
vn 0.9638 -0.1325 0.2312
vn 0.9637 -0.1328 0.2314
vn 0.9635 -0.1348 0.2313
vn 0.9637 -0.1338 0.2312
vn 0.9637 -0.1333 0.2314
vn 0.9636 -0.1331 0.2318
vn 0.9636 -0.1334 0.2318
vn 0.9642 -0.1308 0.2307
vn 0.9559 -0.1331 0.2617
vn 0.9557 -0.1335 0.2622
vn 0.9559 -0.1341 0.2611
usemtl None
s 1
f 65//48 69//49 66//48
f 61//50 81//51 79//52
f 60//53 61//50 72//49
f 61//50 73//54 72//49
f 72//49 71//55 65//48
f 71//55 70//56 65//48
f 75//57 74//58 76//59
f 74//58 60//53 62//60
f 76//59 74//58 62//60
f 60//53 72//49 65//48
f 69//49 68//61 66//48
f 68//61 67//62 66//48
f 70//56 69//49 65//48
f 65//48 64//63 63//64
f 63//64 62//60 65//48
f 62//60 60//53 65//48
f 61//50 60//53 81//51
f 81//51 80//65 79//52
f 79//52 78//66 61//50
f 78//66 77//67 61//50
