# Blender v2.81 (sub 16) OBJ File: ''
# www.blender.org
mtllib Samoa.mtl
o 0_Samoa_sphere.001
v -4.799398 -1.205168 0.711778
v -4.798961 -1.204776 0.715542
v -4.797844 -1.206877 0.719682
v -4.796706 -1.209980 0.722210
v -4.796177 -1.212641 0.721233
v -4.796060 -1.212977 0.721467
v -4.795791 -1.213856 0.721810
v -4.796072 -1.213942 0.719682
v -4.797067 -1.213328 0.713775
v -4.797497 -1.213634 0.710212
v -4.797766 -1.213488 0.708576
v -4.798226 -1.212619 0.706878
v -4.798241 -1.213355 0.705476
v -4.798460 -1.213265 0.704092
v -4.798998 -1.212613 0.701466
v -4.799159 -1.212737 0.700116
v -4.799402 -1.213828 0.696487
v -4.799534 -1.213792 0.695621
v -4.799695 -1.213558 0.694899
v -4.799882 -1.213093 0.694407
v -4.800084 -1.212381 0.694246
v -4.800311 -1.211659 0.693923
v -4.800513 -1.211321 0.693097
v -4.800848 -1.210932 0.691431
v -4.801251 -1.210148 0.689978
v -4.801550 -1.209703 0.688661
v -4.801770 -1.209583 0.687331
v -4.802132 -1.210024 0.684011
v -4.802357 -1.209974 0.682517
v -4.802650 -1.209528 0.681238
v -4.803041 -1.208627 0.680081
v -4.803968 -1.205883 0.678408
v -4.804341 -1.204870 0.677577
v -4.804388 -1.205148 0.676755
v -4.804470 -1.205146 0.676182
v -4.805189 -1.203075 0.674783
v -4.805475 -1.202483 0.673819
v -4.805801 -1.202252 0.671931
v -4.806232 -1.201490 0.670248
v -4.806705 -1.199693 0.670090
v -4.807087 -1.197744 0.670843
v -4.807273 -1.196425 0.671859
v -4.806916 -1.194062 0.678540
v -4.806173 -1.192946 0.685725
v -4.805588 -1.193112 0.689547
v -4.804894 -1.193885 0.693055
v -4.802054 -1.198538 0.704808
v -4.801434 -1.198955 0.708427
v -4.801013 -1.199613 0.710232
v -4.800534 -1.200706 0.711664
v -4.800030 -1.202266 0.712456
v -4.799837 -1.203133 0.712283
v -4.799791 -1.203641 0.711709
v -4.799701 -1.204214 0.711331
vn -0.9607 -0.2414 0.1368
vn -0.9590 -0.2483 0.1363
vn -0.9608 -0.2413 0.1366
vn -0.9608 -0.2410 0.1369
vn -0.9608 -0.2411 0.1368
vn -0.9608 -0.2409 0.1369
vn -0.9608 -0.2411 0.1367
vn -0.9608 -0.2409 0.1368
vn -0.9609 -0.2408 0.1366
vn -0.9610 -0.2403 0.1368
vn -0.9610 -0.2404 0.1369
vn -0.9608 -0.2411 0.1366
vn -0.9606 -0.2418 0.1367
vn -0.9602 -0.2435 0.1367
vn -0.9607 -0.2413 0.1368
vn -0.9609 -0.2409 0.1366
vn -0.9608 -0.2412 0.1367
vn -0.9607 -0.2409 0.1379
vn -0.9608 -0.2412 0.1368
vn -0.9607 -0.2416 0.1366
vn -0.9608 -0.2413 0.1367
vn -0.9608 -0.2410 0.1367
vn -0.9608 -0.2408 0.1369
vn -0.9608 -0.2409 0.1366
vn -0.9607 -0.2417 0.1366
vn -0.9608 -0.2410 0.1368
vn -0.9605 -0.2423 0.1365
vn -0.9608 -0.2412 0.1366
vn -0.9609 -0.2407 0.1366
vn -0.9609 -0.2405 0.1367
usemtl None
s 1
f 25//1 24//2 23//3
f 4//4 3//5 5//6
f 3//5 2//5 9//7
f 3//5 9//7 8//8
f 2//5 1//9 9//7
f 7//10 6//11 8//8
f 6//11 5//6 8//8
f 5//6 3//5 8//8
f 11//5 10//12 1//9
f 10//12 9//7 1//9
f 14//13 13//14 12//15
f 12//15 11//5 1//9
f 1//9 54//16 12//15
f 15//17 14//13 12//15
f 53//16 52//18 51//19
f 15//17 12//15 54//16
f 54//16 53//16 49//3
f 53//16 51//19 50//20
f 50//20 49//3 53//16
f 49//3 48//21 54//16
f 48//21 47//5 54//16
f 47//5 46//5 23//3
f 46//5 45//7 26//7
f 27//7 44//7 32//7
f 45//7 44//7 27//7
f 44//7 43//5 33//7
f 43//5 42//22 37//5
f 42//22 41//22 37//5
f 43//5 37//5 36//5
f 41//22 40//23 38//7
f 40//23 39//24 38//7
f 38//7 37//5 41//22
f 36//5 35//25 34//20
f 36//5 34//20 33//7
f 44//7 33//7 32//7
f 33//7 43//5 36//5
f 32//7 31//3 28//26
f 31//3 30//27 29//28
f 31//3 29//28 28//26
f 45//7 27//7 26//7
f 16//17 15//17 47//5
f 15//17 54//16 47//5
f 18//29 17//17 21//22
f 17//17 16//17 22//12
f 21//22 17//17 22//12
f 20//30 19//10 21//22
f 19//10 18//29 21//22
f 32//7 28//26 27//7
f 22//12 16//17 47//5
f 46//5 26//7 25//1
f 46//5 25//1 23//3
f 23//3 22//12 47//5
o 1_Samoa_sphere.001
v -4.820737 -1.167230 0.628732
v -4.817203 -1.167230 0.653569
v -4.820668 -1.166127 0.631036
v -4.820604 -1.165798 0.632023
v -4.819668 -1.165778 0.638631
v -4.819483 -1.165519 0.640359
v -4.819252 -1.164324 0.643946
v -4.819056 -1.163970 0.645905
v -4.818795 -1.163981 0.647722
v -4.818457 -1.164309 0.649557
v -4.818009 -1.165128 0.651362
v -4.817439 -1.166565 0.653005
v -4.815410 -1.172046 0.657675
v -4.815308 -1.172410 0.657750
v -4.815091 -1.173371 0.657577
v -4.814991 -1.173743 0.657623
v -4.814834 -1.174123 0.658056
v -4.814587 -1.174534 0.659070
v -4.814433 -1.174953 0.659414
v -4.814172 -1.175842 0.659679
v -4.813924 -1.176757 0.659808
v -4.813439 -1.178695 0.659797
v -4.812983 -1.180321 0.660136
v -4.812634 -1.181309 0.660844
v -4.812307 -1.182364 0.661284
v -4.811905 -1.184240 0.660802
v -4.811696 -1.185569 0.659926
v -4.811580 -1.186600 0.658927
v -4.811392 -1.187820 0.658091
v -4.810956 -1.189778 0.657705
v -4.810441 -1.191724 0.657896
v -4.810236 -1.192588 0.657808
v -4.810214 -1.192972 0.657291
v -4.810502 -1.192952 0.655298
v -4.810672 -1.192766 0.654430
v -4.810898 -1.192357 0.653562
v -4.811363 -1.191237 0.652270
v -4.811663 -1.190412 0.651620
v -4.811890 -1.189972 0.650802
v -4.812108 -1.190096 0.649052
v -4.812334 -1.191609 0.644792
v -4.813834 -1.193021 0.631764
v -4.814090 -1.192452 0.630967
v -4.814493 -1.191317 0.630140
v -4.814746 -1.190670 0.629497
v -4.815119 -1.189940 0.628167
v -4.815338 -1.189430 0.627527
v -4.815562 -1.188685 0.627268
v -4.815779 -1.187907 0.627113
v -4.816308 -1.186216 0.626382
v -4.816588 -1.185187 0.626229
v -4.816898 -1.184167 0.625845
v -4.817195 -1.183531 0.624879
v -4.817469 -1.183080 0.623750
v -4.817718 -1.182586 0.622877
v -4.818655 -1.179821 0.621167
v -4.819129 -1.178528 0.620120
v -4.819641 -1.177703 0.617972
v -4.819919 -1.177070 0.617137
v -4.820385 -1.175913 0.615895
v -4.820529 -1.175483 0.615645
v -4.820757 -1.174609 0.615583
v -4.820903 -1.174142 0.615384
v -4.821034 -1.173885 0.614911
v -4.821167 -1.173987 0.613800
v -4.821265 -1.173844 0.613365
v -4.821680 -1.172719 0.612436
v -4.822339 -1.170785 0.611210
v -4.822869 -1.168934 0.610754
v -4.822883 -1.168099 0.612122
v -4.822475 -1.168096 0.614997
v -4.821745 -1.169249 0.618091
v -4.821323 -1.169319 0.620937
v -4.821124 -1.169048 0.622812
v -4.821106 -1.167968 0.624839
v -4.821032 -1.167721 0.625799
v -4.820809 -1.167550 0.627663
vn -0.9644 -0.2261 0.1372
vn -0.9643 -0.2263 0.1372
vn -0.9613 -0.2390 0.1369
vn -0.9608 -0.2412 0.1366
vn -0.9608 -0.2410 0.1367
vn -0.9607 -0.2415 0.1367
vn -0.9619 -0.2368 0.1369
vn -0.9646 -0.2250 0.1372
vn -0.9645 -0.2253 0.1373
vn -0.9641 -0.2271 0.1372
vn -0.9642 -0.2271 0.1367
vn -0.9649 -0.2236 0.1377
vn -0.9644 -0.2259 0.1370
vn -0.9644 -0.2260 0.1373
vn -0.9649 -0.2239 0.1373
vn -0.9608 -0.2411 0.1367
vn -0.9608 -0.2411 0.1368
vn -0.9608 -0.2412 0.1368
vn -0.9608 -0.2413 0.1365
vn -0.9607 -0.2421 0.1355
vn -0.9608 -0.2410 0.1368
vn -0.9617 -0.2376 0.1367
vn -0.9608 -0.2409 0.1367
vn -0.9606 -0.2412 0.1378
vn -0.9609 -0.2409 0.1367
vn -0.9608 -0.2412 0.1367
vn -0.9609 -0.2406 0.1368
vn -0.9607 -0.2425 0.1352
vn -0.9609 -0.2412 0.1361
vn -0.9608 -0.2412 0.1365
vn -0.9607 -0.2416 0.1364
vn -0.9608 -0.2408 0.1369
vn -0.9608 -0.2411 0.1366
vn -0.9607 -0.2413 0.1372
vn -0.9608 -0.2412 0.1370
vn -0.9607 -0.2427 0.1350
vn -0.9611 -0.2398 0.1367
vn -0.9608 -0.2412 0.1364
vn -0.9610 -0.2406 0.1363
vn -0.9608 -0.2409 0.1366
vn -0.9607 -0.2416 0.1367
vn -0.9612 -0.2398 0.1363
vn -0.9608 -0.2415 0.1359
vn -0.9608 -0.2413 0.1368
vn -0.9609 -0.2408 0.1367
vn -0.9606 -0.2414 0.1375
vn -0.9610 -0.2404 0.1365
vn -0.9607 -0.2416 0.1366
vn -0.9602 -0.2438 0.1361
vn -0.9609 -0.2408 0.1368
vn -0.9613 -0.2387 0.1376
vn -0.9606 -0.2430 0.1349
usemtl None
s 1
f 59//31 57//32 55//33
f 103//34 99//35 105//36
f 55//33 56//37 59//31
f 56//37 66//38 62//39
f 59//31 56//37 60//40
f 66//38 65//41 64//42
f 64//42 63//43 66//38
f 63//43 62//39 66//38
f 62//39 61//44 56//37
f 61//44 60//40 56//37
f 59//31 58//45 57//32
f 56//37 55//33 95//46
f 55//33 131//47 106//48
f 56//37 70//49 69//50
f 131//47 130//47 128//51
f 130//47 129//52 128//51
f 67//47 56//37 69//50
f 70//49 56//37 94//53
f 69//50 68//54 67//47
f 56//37 95//46 94//53
f 131//47 128//51 110//47
f 95//46 55//33 106//48
f 106//48 131//47 107//48
f 128//51 127//48 111//46
f 70//49 93//55 76//56
f 73//57 72//58 71//59
f 71//59 70//49 76//56
f 93//55 70//49 94//53
f 76//56 93//55 77//56
f 126//46 125//35 118//55
f 125//35 124//51 122//47
f 121//35 125//35 122//47
f 127//48 126//46 116//60
f 74//61 73//57 71//59
f 76//56 75//61 71//59
f 75//61 74//61 71//59
f 79//62 78//49 80//63
f 78//49 77//56 80//63
f 77//56 93//55 82//51
f 125//35 121//35 118//55
f 124//51 123//64 122//47
f 81//65 80//63 77//56
f 82//51 81//65 77//56
f 121//35 120//66 119//67
f 121//35 119//67 118//55
f 126//46 118//55 117//68
f 83//51 82//51 93//55
f 86//69 85//70 87//34
f 85//70 84//53 88//53
f 87//34 85//70 88//53
f 83//51 93//55 92//48
f 84//53 83//51 92//48
f 126//46 117//68 116//60
f 90//36 89//71 84//53
f 89//71 88//53 84//53
f 92//48 91//46 84//53
f 91//46 90//36 84//53
f 116//60 115//72 114//73
f 127//48 116//60 113//74
f 113//74 116//60 114//73
f 113//74 112//56 127//48
f 112//56 111//46 127//48
f 96//74 95//46 98//75
f 96//74 98//75 97//76
f 128//51 111//46 110//47
f 98//75 95//46 99//35
f 99//35 95//46 105//36
f 110//47 109//77 108//78
f 110//47 108//78 107//48
f 105//36 95//46 106//48
f 101//79 100//80 102//81
f 100//80 99//35 103//34
f 103//34 102//81 100//80
f 105//36 104//82 103//34
f 110//47 107//48 131//47
