# Blender v2.81 (sub 16) OBJ File: ''
# www.blender.org
mtllib San Marino.mtl
o 0_San_Marino_sphere.001
v 3.518350 3.467065 -0.773539
v 3.517295 3.468391 -0.772398
v 3.515758 3.469904 -0.772707
v 3.514905 3.470608 -0.773508
v 3.514322 3.471092 -0.774048
v 3.513215 3.471847 -0.775847
v 3.512612 3.472099 -0.777573
v 3.513080 3.471499 -0.778132
v 3.514016 3.470451 -0.778542
v 3.515059 3.469358 -0.778642
v 3.515740 3.468727 -0.778325
v 3.515984 3.468513 -0.778157
v 3.516171 3.468333 -0.778097
v 3.516351 3.468147 -0.778103
v 3.516508 3.467968 -0.778188
v 3.518037 3.466569 -0.777381
v 3.518640 3.466348 -0.775511
vn 0.7086 0.6902 -0.1464
vn 0.7082 0.6907 -0.1461
vn 0.7085 0.6902 -0.1466
vn 0.7088 0.6900 -0.1466
vn 0.7086 0.6902 -0.1467
vn 0.7089 0.6899 -0.1466
vn 0.7086 0.6901 -0.1467
vn 0.7086 0.6901 -0.1468
vn 0.7082 0.6906 -0.1465
vn 0.7086 0.6902 -0.1465
vn 0.7082 0.6906 -0.1468
vn 0.7087 0.6900 -0.1469
usemtl None
s 1
f 16//1 15//2 14//1
f 9//3 8//4 6//5
f 8//4 7//6 6//5
f 6//5 5//7 10//8
f 12//9 5//7 4//7
f 4//7 3//5 13//10
f 3//5 2//1 1//8
f 13//10 3//5 1//8
f 5//7 12//9 11//11
f 12//9 4//7 13//10
f 10//8 9//3 6//5
f 11//11 10//8 5//7
f 1//8 17//12 14//1
f 13//10 1//8 14//1
f 17//12 16//1 14//1
