# Blender v2.81 (sub 16) OBJ File: ''
# www.blender.org
mtllib Siachen Glacier.mtl
o 0_Siachen_Glacier_sphere.001
v 0.888264 2.901365 -3.973861
v 0.890260 2.888567 -3.982787
v 0.887393 2.901279 -3.974104
v 0.882889 2.901792 -3.974663
v 0.880387 2.901865 -3.975128
v 0.879883 2.901802 -3.975278
v 0.870278 2.900362 -3.978318
v 0.868213 2.900683 -3.978512
v 0.866194 2.901581 -3.978274
v 0.863858 2.902925 -3.977777
v 0.862909 2.903163 -3.977800
v 0.861979 2.903223 -3.977949
v 0.860167 2.902966 -3.978512
v 0.888415 2.889441 -3.982531
v 0.913433 2.909281 -3.962002
v 0.911946 2.909350 -3.962308
v 0.910676 2.908991 -3.962877
v 0.909889 2.908379 -3.963516
v 0.908688 2.906713 -3.965028
v 0.907895 2.906013 -3.965733
v 0.905553 2.905153 -3.966927
v 0.903077 2.904983 -3.967646
v 0.897923 2.905566 -3.968456
v 0.895866 2.905392 -3.969077
v 0.894291 2.904674 -3.969983
v 0.891419 2.902430 -3.972322
v 0.889387 2.901441 -3.973536
v 0.916642 2.875639 -3.985953
v 0.923001 2.894650 -3.970456
v 0.929299 2.913599 -3.955019
v 0.928925 2.913598 -3.955110
v 0.926027 2.913747 -3.955697
v 0.924823 2.913263 -3.956342
v 0.924009 2.912387 -3.957181
v 0.922705 2.910404 -3.958950
v 0.921748 2.909659 -3.959728
v 0.920536 2.909170 -3.960378
v 0.919135 2.908905 -3.960909
v 0.916341 2.908865 -3.961610
vn 0.1651 0.5813 -0.7967
vn 0.1650 0.5813 -0.7968
vn 0.1647 0.5814 -0.7967
vn 0.1900 0.5813 -0.7912
vn 0.1899 0.5813 -0.7912
vn 0.1782 0.5814 -0.7938
vn 0.1820 0.5814 -0.7930
vn 0.1649 0.5813 -0.7967
vn 0.1649 0.5814 -0.7967
vn 0.1650 0.5812 -0.7969
vn 0.1646 0.5806 -0.7974
vn 0.1653 0.5816 -0.7965
vn 0.1650 0.5812 -0.7968
vn 0.1650 0.5813 -0.7967
vn 0.1900 0.5813 -0.7911
vn 0.1902 0.5813 -0.7911
vn 0.1899 0.5815 -0.7911
vn 0.1899 0.5805 -0.7918
vn 0.1899 0.5813 -0.7911
vn 0.1909 0.5803 -0.7917
vn 0.1904 0.5809 -0.7914
vn 0.1888 0.5820 -0.7909
vn 0.1899 0.5812 -0.7913
vn 0.1899 0.5814 -0.7911
vn 0.1901 0.5813 -0.7911
vn 0.1897 0.5814 -0.7912
vn 0.1898 0.5814 -0.7912
vn 0.1900 0.5814 -0.7911
vn 0.1900 0.5811 -0.7913
vn 0.1885 0.5824 -0.7907
vn 0.1899 0.5809 -0.7915
usemtl None
s 1
f 14//1 8//2 7//3
f 15//4 39//5 19//5
f 1//6 2//7 14//1
f 14//1 13//8 8//2
f 13//8 12//9 9//10
f 8//2 13//8 9//10
f 12//9 11//11 10//12
f 12//9 10//12 9//10
f 3//9 1//6 14//1
f 5//13 4//14 14//1
f 4//14 3//9 14//1
f 7//3 6//14 14//1
f 6//14 5//13 14//1
f 2//7 1//6 27//15
f 26//15 25//16 23//17
f 25//16 24//18 23//17
f 2//7 27//15 26//15
f 29//19 28//5 2//7
f 31//20 30//21 35//4
f 30//21 29//19 35//4
f 33//22 32//5 34//23
f 32//5 31//20 34//23
f 35//4 34//23 31//20
f 29//19 2//7 22//24
f 36//25 29//19 37//26
f 2//7 26//15 22//24
f 22//24 26//15 23//17
f 36//25 35//4 29//19
f 37//26 29//19 38//27
f 22//24 21//28 29//19
f 21//28 20//24 29//19
f 38//27 29//19 39//5
f 39//5 29//19 19//5
f 20//24 19//5 29//19
f 19//5 18//29 15//4
f 18//29 17//30 16//31
f 15//4 18//29 16//31
