# Blender v2.81 (sub 16) OBJ File: ''
# www.blender.org
mtllib Singapore.mtl
o 0_Singapore_sphere.001
v -1.207893 0.120878 -4.849762
v -1.209069 0.120431 -4.849491
v -1.209396 0.119894 -4.849425
v -1.208427 0.118214 -4.849699
v -1.206997 0.116429 -4.850085
v -1.205263 0.115001 -4.850536
v -1.203352 0.114422 -4.851009
v -1.201267 0.114184 -4.851516
v -1.199608 0.113531 -4.851929
v -1.196662 0.111440 -4.852687
v -1.196175 0.110971 -4.852816
v -1.195924 0.110672 -4.852883
v -1.195494 0.110478 -4.852991
v -1.194408 0.110306 -4.853256
v -1.192321 0.110350 -4.853756
v -1.191304 0.110619 -4.853994
v -1.190870 0.111141 -4.854085
v -1.190128 0.112336 -4.854234
v -1.188375 0.113167 -4.854635
v -1.186256 0.113675 -4.855131
v -1.184434 0.113877 -4.855564
v -1.180750 0.113778 -4.856451
v -1.179250 0.114154 -4.856802
v -1.178632 0.115360 -4.856921
v -1.178984 0.116737 -4.856803
v -1.181497 0.120427 -4.856110
v -1.181847 0.122076 -4.855986
v -1.182266 0.123006 -4.855863
v -1.183224 0.124006 -4.855608
v -1.184329 0.124707 -4.855326
v -1.185156 0.124847 -4.855124
v -1.187007 0.124599 -4.854686
v -1.188898 0.124846 -4.854226
v -1.191260 0.126008 -4.853631
v -1.192524 0.126388 -4.853318
v -1.194785 0.126253 -4.852778
v -1.196956 0.125522 -4.852275
v -1.203365 0.122243 -4.850816
v -1.205767 0.121370 -4.850261
vn -0.2333 0.0236 -0.9721
vn -0.2338 0.0237 -0.9720
vn -0.2335 0.0236 -0.9721
vn -0.2336 0.0236 -0.9720
vn -0.2339 0.0236 -0.9720
vn -0.2336 0.0235 -0.9720
vn -0.2331 0.0236 -0.9721
vn -0.2334 0.0236 -0.9721
vn -0.2331 0.0236 -0.9722
vn -0.2334 0.0237 -0.9721
vn -0.2332 0.0236 -0.9721
vn -0.2335 0.0236 -0.9720
vn -0.2334 0.0235 -0.9721
vn -0.2336 0.0237 -0.9720
vn -0.2317 0.0246 -0.9724
vn -0.2335 0.0237 -0.9720
vn -0.2332 0.0235 -0.9721
vn -0.2336 0.0230 -0.9720
vn -0.2327 0.0234 -0.9722
vn -0.2327 0.0221 -0.9723
vn -0.2367 0.0201 -0.9713
vn -0.2348 0.0245 -0.9717
vn -0.2337 0.0241 -0.9720
vn -0.2336 0.0240 -0.9720
vn -0.2333 0.0239 -0.9721
usemtl None
s 1
f 26//1 21//2 20//3
f 3//4 2//5 4//6
f 2//5 1//7 4//6
f 1//7 39//8 4//6
f 5//6 4//6 39//8
f 7//8 6//9 38//8
f 6//9 5//6 39//8
f 38//8 6//9 39//8
f 8//10 7//8 38//8
f 38//8 37//11 9//1
f 37//11 36//11 18//12
f 9//1 37//11 18//12
f 36//11 35//13 34//1
f 34//1 33//8 18//12
f 32//8 31//14 29//10
f 31//14 30//15 29//10
f 34//1 18//12 36//11
f 9//1 18//12 10//16
f 33//8 32//8 19//4
f 9//1 8//10 38//8
f 32//8 29//10 27//17
f 29//10 28//18 27//17
f 26//1 25//17 21//2
f 25//17 24//19 22//1
f 27//17 26//1 32//8
f 18//12 33//8 19//4
f 13//20 12//21 11//22
f 11//22 10//16 14//10
f 25//17 22//1 21//2
f 24//19 23//23 22//1
f 10//16 18//12 14//10
f 14//10 13//20 11//22
f 16//24 15//25 17//4
f 15//25 14//10 18//12
f 18//12 17//4 15//25
f 19//4 32//8 20//3
f 32//8 26//1 20//3
