# Blender v2.81 (sub 16) OBJ File: ''
# www.blender.org
mtllib Trinidad and Tobago.mtl
o 0_Trinidad_and_Tobago_sphere.001
v 2.366114 0.936695 4.303954
v 2.371573 0.874678 4.313880
v 2.353286 0.936904 4.310702
v 2.357386 0.936904 4.308531
v 2.367862 0.936904 4.302913
v 2.386343 0.936904 4.292371
v 2.367498 0.875399 4.315889
v 2.365857 0.875222 4.316794
v 2.361119 0.874143 4.319526
v 2.355084 0.874718 4.322602
v 2.348642 0.874116 4.326138
v 2.348554 0.874136 4.326180
v 2.345480 0.874690 4.327694
v 2.344772 0.874503 4.328107
v 2.342701 0.873532 4.329404
v 2.341854 0.873428 4.329875
v 2.340402 0.873032 4.330725
v 2.339649 0.872931 4.331144
v 2.338536 0.873108 4.331697
v 2.337752 0.873556 4.332020
v 2.337006 0.874127 4.332297
v 2.336077 0.874681 4.332674
v 2.334628 0.875154 4.333343
v 2.333067 0.875345 4.334130
v 2.326475 0.875350 4.337619
v 2.324709 0.875115 4.338603
v 2.323418 0.874365 4.339442
v 2.322374 0.873408 4.340192
v 2.320960 0.872426 4.341145
v 2.319469 0.871751 4.342073
v 2.318144 0.871729 4.342779
v 2.316400 0.872966 4.343447
v 2.317065 0.874130 4.342854
v 2.319385 0.875577 4.341327
v 2.319722 0.875896 4.341082
v 2.320519 0.876181 4.340601
v 2.322939 0.876696 4.339214
v 2.323389 0.877241 4.338863
v 2.324067 0.878527 4.338238
v 2.325156 0.879542 4.337452
v 2.326380 0.880228 4.336662
v 2.332050 0.882188 4.333254
v 2.332396 0.882384 4.333031
v 2.335188 0.883941 4.331231
v 2.337251 0.886176 4.329677
v 2.336989 0.888805 4.329272
v 2.337907 0.889379 4.328667
v 2.339065 0.889399 4.328050
v 2.343026 0.888644 4.326109
v 2.346019 0.888768 4.324499
v 2.346248 0.888788 4.324373
v 2.347090 0.888820 4.323921
v 2.347903 0.889197 4.323412
v 2.348829 0.890118 4.322732
v 2.349675 0.891288 4.322042
v 2.350152 0.892396 4.321560
v 2.350278 0.894113 4.321139
v 2.350141 0.894768 4.321076
v 2.349943 0.895562 4.321017
v 2.349420 0.896941 4.321009
v 2.349082 0.898552 4.320855
v 2.348899 0.899017 4.320856
v 2.348197 0.899649 4.321097
v 2.347936 0.900023 4.321157
v 2.347851 0.900484 4.321108
v 2.348057 0.900611 4.320972
v 2.348318 0.900678 4.320820
v 2.348394 0.900917 4.320730
v 2.348291 0.901589 4.320646
v 2.347683 0.903269 4.320621
v 2.347370 0.903859 4.320664
v 2.347076 0.905086 4.320566
v 2.347372 0.906790 4.320057
v 2.348145 0.909456 4.319098
v 2.348361 0.912715 4.318310
v 2.348072 0.916089 4.317765
v 2.347032 0.919237 4.317665
v 2.345010 0.921807 4.318204
v 2.345499 0.922332 4.317837
v 2.342294 0.924638 4.319057
v 2.340684 0.925415 4.319749
v 2.338410 0.926521 4.320724
v 2.336773 0.926902 4.321513
v 2.332875 0.927191 4.323517
v 2.332379 0.927362 4.323744
v 2.331968 0.927814 4.323869
v 2.331403 0.928820 4.323960
v 2.335066 0.931861 4.321392
v 2.336053 0.932339 4.320771
v 2.339189 0.932058 4.319168
v 2.342578 0.932973 4.317184
v 2.344499 0.932949 4.316173
v 2.344813 0.932945 4.316007
v 2.345727 0.933438 4.315421
v 2.346236 0.934295 4.314974
v 2.346604 0.934649 4.314706
v 2.347078 0.933594 4.314674
v 2.347646 0.933594 4.314373
v 2.347634 0.933873 4.314322
v 2.347537 0.934770 4.314188
v 2.348019 0.934774 4.313931
v 2.348091 0.934330 4.313985
v 2.348244 0.934106 4.313951
v 2.348428 0.933923 4.313891
v 2.348670 0.933597 4.313830
v 2.348167 0.932950 4.314230
v 2.348782 0.933125 4.313869
v 2.349171 0.933526 4.313580
v 2.349440 0.933934 4.313353
v 2.349617 0.934137 4.313217
v 2.351060 0.934195 4.312441
v 2.351209 0.934139 4.312374
v 2.351775 0.934770 4.311944
v 2.353044 0.936663 4.310881
v 2.358857 0.936713 4.307792
v 2.368212 0.937239 4.302637
v 2.369340 0.938306 4.301749
v 2.373640 0.938893 4.299162
v 2.374914 0.939524 4.298291
v 2.384463 0.940720 4.292571
v 2.387610 0.940015 4.290936
v 2.353463 0.937118 4.310560
v 2.354528 0.937222 4.309973
v 2.354789 0.937248 4.309829
v 2.385030 0.933726 4.293788
v 2.381612 0.928215 4.296897
v 2.380212 0.928512 4.297633
v 2.379455 0.926874 4.298409
v 2.379300 0.924300 4.299039
v 2.379594 0.921833 4.299390
v 2.381517 0.916609 4.299392
v 2.382044 0.914066 4.299625
v 2.380059 0.911969 4.301199
v 2.380327 0.909562 4.301552
v 2.380702 0.907991 4.301668
v 2.381897 0.903256 4.301982
v 2.382396 0.902086 4.301944
v 2.382985 0.900985 4.301840
v 2.384508 0.898736 4.301444
v 2.387480 0.896509 4.300217
v 2.385571 0.893874 4.301859
v 2.384997 0.889422 4.303123
v 2.385420 0.884419 4.303934
v 2.386358 0.880054 4.304317
v 2.384711 0.880450 4.305173
v 2.382968 0.879837 4.306296
v 2.381369 0.878653 4.307457
v 2.380169 0.877379 4.308410
v 2.378934 0.876378 4.309324
v 2.377307 0.875677 4.310400
v 2.374025 0.874749 4.312467
v 2.373260 0.874678 4.312918
v 2.372225 0.874565 4.313533
v 2.367630 0.936694 4.303089
vn 0.4600 0.1798 0.8695
vn 0.4599 0.1797 0.8696
vn 0.4602 0.1796 0.8694
vn 0.4865 0.1940 0.8518
vn 0.4864 0.1831 0.8543
vn 0.4859 0.1949 0.8520
vn 0.4588 0.1950 0.8668
vn 0.4618 0.1974 0.8647
vn 0.4598 0.1840 0.8687
vn 0.4862 0.1797 0.8551
vn 0.4875 0.1796 0.8544
vn 0.4874 0.1797 0.8545
vn 0.4601 0.1803 0.8693
vn 0.4603 0.1795 0.8694
vn 0.4603 0.1802 0.8693
vn 0.4753 0.1797 0.8613
vn 0.4740 0.1796 0.8620
vn 0.4603 0.1797 0.8694
vn 0.4602 0.1797 0.8694
vn 0.4604 0.1798 0.8693
vn 0.4601 0.1798 0.8695
vn 0.4589 0.1799 0.8701
vn 0.4607 0.1790 0.8693
vn 0.4596 0.1805 0.8696
vn 0.4605 0.1790 0.8694
vn 0.4602 0.1792 0.8695
vn 0.4608 0.1796 0.8691
vn 0.4604 0.1797 0.8693
vn 0.4604 0.1796 0.8693
vn 0.4610 0.1799 0.8690
vn 0.4603 0.1796 0.8694
vn 0.4610 0.1792 0.8691
vn 0.4609 0.1793 0.8691
vn 0.4600 0.1796 0.8695
vn 0.4605 0.1797 0.8693
vn 0.4602 0.1799 0.8694
vn 0.4598 0.1799 0.8696
vn 0.4604 0.1795 0.8694
vn 0.4603 0.1788 0.8696
vn 0.4605 0.1796 0.8693
vn 0.4603 0.1790 0.8695
vn 0.4609 0.1803 0.8689
vn 0.4605 0.1789 0.8694
vn 0.4606 0.1798 0.8692
vn 0.4600 0.1797 0.8695
vn 0.4601 0.1796 0.8695
vn 0.4608 0.1793 0.8692
vn 0.4607 0.1791 0.8692
vn 0.4592 0.1798 0.8699
vn 0.4609 0.1800 0.8690
vn 0.4617 0.1790 0.8687
vn 0.4603 0.1797 0.8693
vn 0.4613 0.1797 0.8688
vn 0.4605 0.1798 0.8692
vn 0.4607 0.1797 0.8691
vn 0.4606 0.1794 0.8693
vn 0.4604 0.1796 0.8694
vn 0.4594 0.1798 0.8698
vn 0.4610 0.1795 0.8690
vn 0.4600 0.1808 0.8693
vn 0.4600 0.1800 0.8694
vn 0.4595 0.1799 0.8697
vn 0.4608 0.1797 0.8691
vn 0.4603 0.1798 0.8693
vn 0.4602 0.1795 0.8695
vn 0.4602 0.1800 0.8694
vn 0.4602 0.1794 0.8695
vn 0.4607 0.1796 0.8691
vn 0.4613 0.1797 0.8689
vn 0.4615 0.1795 0.8688
vn 0.4606 0.1796 0.8692
vn 0.4607 0.1797 0.8692
vn 0.4611 0.1804 0.8688
vn 0.4611 0.1798 0.8689
vn 0.4601 0.1799 0.8694
vn 0.4587 0.1797 0.8702
vn 0.4686 0.1797 0.8649
vn 0.4591 0.1798 0.8700
vn 0.4590 0.1793 0.8701
vn 0.4596 0.1798 0.8697
vn 0.4614 0.1795 0.8688
vn 0.4564 0.1794 0.8715
vn 0.4865 0.1898 0.8528
vn 0.4860 0.1950 0.8519
vn 0.4859 0.1948 0.8520
vn 0.4859 0.1952 0.8519
vn 0.4583 0.1968 0.8667
vn 0.4869 0.1802 0.8546
vn 0.4875 0.1796 0.8545
vn 0.4876 0.1796 0.8544
vn 0.4876 0.1803 0.8542
vn 0.4873 0.1797 0.8545
vn 0.4872 0.1798 0.8545
vn 0.4874 0.1796 0.8545
vn 0.4875 0.1797 0.8544
vn 0.4873 0.1778 0.8549
vn 0.4870 0.1809 0.8545
vn 0.4870 0.1798 0.8546
vn 0.4875 0.1798 0.8544
vn 0.4878 0.1796 0.8543
vn 0.4877 0.1796 0.8543
vn 0.4871 0.1797 0.8546
usemtl None
s 1
f 73//1 70//2 74//3
f 116//4 5//5 118//6
f 124//7 123//8 3//9
f 138//10 137//11 142//12
f 4//13 3//9 114//14
f 4//13 114//14 113//15
f 2//16 1//17 75//18
f 1//17 115//19 76//20
f 75//18 1//17 76//20
f 115//19 4//13 112//21
f 4//13 113//15 112//21
f 112//21 111//22 108//23
f 111//22 110//24 109//25
f 7//18 2//16 58//26
f 10//19 9//19 55//27
f 9//19 8//28 56//29
f 57//30 8//28 7//18
f 2//16 75//18 74//3
f 58//26 2//16 59//31
f 111//22 109//25 108//23
f 115//19 112//21 77//29
f 76//20 115//19 77//29
f 12//32 11//33 52//2
f 11//33 10//19 52//2
f 8//28 57//30 56//29
f 112//21 108//23 107//34
f 13//35 12//32 50//36
f 50//36 12//32 51//37
f 16//38 15//39 14//40
f 17//41 16//38 21//19
f 16//38 14//40 45//18
f 21//19 16//38 44//19
f 19//42 18//43 20//44
f 18//43 17//41 20//44
f 21//19 20//44 17//41
f 44//19 16//38 45//18
f 22//45 21//19 44//19
f 14//40 13//35 49//19
f 23//29 22//45 44//19
f 112//21 107//34 77//29
f 106//46 105//47 104//48
f 107//34 106//46 79//40
f 24//29 23//29 42//49
f 45//18 14//40 49//19
f 106//46 104//48 98//50
f 104//48 103//51 98//50
f 29//18 28//19 36//45
f 28//19 27//18 36//45
f 31//19 30//19 33//52
f 30//19 29//18 34//53
f 33//52 32//54 31//19
f 36//45 35//55 29//18
f 35//55 34//53 29//18
f 34//53 33//52 30//19
f 27//18 26//28 37//31
f 37//31 36//45 27//18
f 40//56 39//3 25//31
f 39//3 38//57 26//28
f 25//31 39//3 26//28
f 38//57 37//31 26//28
f 41//40 40//56 25//31
f 44//19 43//58 23//29
f 43//58 42//49 23//29
f 42//49 41//40 24//29
f 24//29 41//40 25//31
f 103//51 102//59 99//60
f 102//59 101//61 100//62
f 102//59 100//62 99//60
f 103//51 99//60 98//50
f 47//63 46//27 45//18
f 48//64 47//63 45//18
f 49//19 13//35 50//36
f 106//46 98//50 97//65
f 97//65 96//66 95//20
f 77//29 107//34 79//40
f 106//46 97//65 94//67
f 48//64 45//18 49//19
f 97//65 95//20 94//67
f 106//46 94//67 93//68
f 52//2 51//37 12//32
f 92//69 91//18 80//19
f 91//18 90//18 81//28
f 90//18 89//31 83//19
f 89//31 88//19 83//19
f 88//19 87//40 84//29
f 87//40 86//70 84//29
f 86//70 85//65 84//29
f 84//29 83//19 88//19
f 93//68 92//69 80//19
f 91//18 81//28 80//19
f 53//3 52//2 10//19
f 54//71 53//3 10//19
f 90//18 83//19 82//19
f 55//27 54//71 10//19
f 56//29 55//27 9//19
f 90//18 82//19 81//28
f 93//68 80//19 79//40
f 58//26 57//30 7//18
f 79//40 78//59 77//29
f 93//68 79//40 106//46
f 61//72 60//73 59//31
f 64//74 63//75 67//76
f 63//75 62//77 67//76
f 65//78 64//74 66//79
f 67//76 66//79 64//74
f 67//76 62//77 68//80
f 62//77 61//72 68//80
f 69//81 68//80 61//72
f 72//28 71//82 70//2
f 69//81 61//72 74//3
f 61//72 59//31 2//16
f 74//3 61//72 2//16
f 72//28 70//2 73//1
f 70//2 69//81 74//3
f 5//5 6//83 118//6
f 6//83 121//84 120//84
f 118//6 6//83 119//85
f 120//84 119//85 6//83
f 118//6 117//86 116//4
f 3//9 4//13 124//7
f 123//8 122//87 3//9
f 1//17 2//16 134//12
f 2//16 153//88 152//89
f 135//90 2//16 136//12
f 152//89 151//91 150//92
f 2//16 135//90 134//12
f 2//16 152//89 142//12
f 6//83 5//5 125//12
f 5//5 154//93 128//94
f 125//12 5//5 127//95
f 154//93 1//17 129//95
f 152//89 150//92 142//12
f 150//92 149//96 148//97
f 147//95 150//92 148//97
f 150//92 147//95 142//12
f 127//95 5//5 128//94
f 127//95 126//90 125//12
f 2//16 137//11 136//12
f 137//11 2//16 142//12
f 147//95 146//90 142//12
f 129//95 128//94 154//93
f 146//90 145//98 143//94
f 142//12 146//90 143//94
f 145//98 144//11 143//94
f 130//92 129//95 1//17
f 132//99 131//12 133//12
f 131//12 130//92 133//12
f 141//100 140//101 139//102
f 142//12 141//100 138//10
f 133//12 130//92 1//17
f 134//12 133//12 1//17
f 141//100 139//102 138//10
o 1_Trinidad_and_Tobago_sphere.001
v 2.412247 0.981200 4.267457
v 2.412266 0.978586 4.268044
v 2.411886 0.976725 4.268687
v 2.411034 0.976948 4.269122
v 2.410583 0.976958 4.269377
v 2.410246 0.975668 4.269864
v 2.409608 0.975523 4.270262
v 2.408833 0.975808 4.270638
v 2.408111 0.975783 4.271055
v 2.407990 0.975410 4.271210
v 2.407048 0.973725 4.272133
v 2.406793 0.973666 4.272292
v 2.405179 0.972454 4.273490
v 2.404688 0.971958 4.273884
v 2.403920 0.971397 4.274450
v 2.402969 0.971410 4.274990
v 2.402061 0.971619 4.275460
v 2.401357 0.971649 4.275855
v 2.397089 0.969078 4.278877
v 2.395813 0.968737 4.279683
v 2.394019 0.966770 4.281157
v 2.392799 0.966192 4.281985
v 2.392132 0.967566 4.282051
v 2.391108 0.966939 4.282779
v 2.390057 0.967138 4.283332
v 2.389363 0.967990 4.283534
v 2.389404 0.969282 4.283214
v 2.389990 0.969636 4.282799
v 2.391004 0.969825 4.282177
v 2.391927 0.970257 4.281552
v 2.392242 0.971376 4.281116
v 2.392868 0.972475 4.280508
v 2.398720 0.977149 4.276099
v 2.399904 0.978663 4.275077
v 2.400608 0.979297 4.274531
v 2.401495 0.979843 4.273901
v 2.403838 0.980869 4.272329
v 2.405893 0.981372 4.271042
v 2.406709 0.981926 4.270450
v 2.407594 0.982131 4.269897
v 2.408854 0.981326 4.269363
v 2.409390 0.981406 4.269039
v 2.410622 0.983318 4.267899
v 2.411361 0.983954 4.267332
v 2.411986 0.983322 4.267120
vn 0.4862 0.1949 0.8518
vn 0.4860 0.1950 0.8519
vn 0.4859 0.1949 0.8520
vn 0.4859 0.1950 0.8520
vn 0.4860 0.1948 0.8520
vn 0.4854 0.1948 0.8523
vn 0.4855 0.1951 0.8522
vn 0.4856 0.1950 0.8521
vn 0.4861 0.1953 0.8518
vn 0.4862 0.1951 0.8518
vn 0.4859 0.1950 0.8519
vn 0.4859 0.1951 0.8519
vn 0.4857 0.1950 0.8521
vn 0.4860 0.1955 0.8517
vn 0.4853 0.1951 0.8523
vn 0.4857 0.1953 0.8520
vn 0.4861 0.1950 0.8518
vn 0.4858 0.1950 0.8520
vn 0.4863 0.1949 0.8518
vn 0.4858 0.1952 0.8520
vn 0.4858 0.1949 0.8520
vn 0.4857 0.1950 0.8520
vn 0.4862 0.1950 0.8518
vn 0.4859 0.1953 0.8519
vn 0.4859 0.1952 0.8519
vn 0.4856 0.1949 0.8521
vn 0.4850 0.1946 0.8526
vn 0.4875 0.1948 0.8511
vn 0.4858 0.1956 0.8519
vn 0.4856 0.1955 0.8520
vn 0.4861 0.1950 0.8519
vn 0.4863 0.1951 0.8517
vn 0.4876 0.1948 0.8510
vn 0.4855 0.1950 0.8521
vn 0.4860 0.1949 0.8519
usemtl None
s 1
f 184//103 177//104 175//105
f 155//106 199//107 197//105
f 199//107 198//108 197//105
f 197//105 196//109 155//106
f 195//110 194//111 193//112
f 195//110 193//112 192//113
f 155//106 196//109 156//114
f 196//109 195//110 159//115
f 157//116 156//114 158//117
f 158//117 156//114 159//115
f 159//115 156//114 196//109
f 195//110 192//113 163//118
f 159//115 195//110 162//119
f 192//113 191//120 163//118
f 191//120 190//104 166//121
f 163//118 191//120 164//122
f 190//104 189//105 167//113
f 189//105 188//123 167//113
f 187//106 186//104 173//124
f 186//104 185//125 174//115
f 187//106 172//126 171//127
f 188//123 187//106 171//127
f 167//113 188//123 171//127
f 195//110 163//118 162//119
f 161//128 160//129 159//115
f 162//119 161//128 159//115
f 172//126 187//106 173//124
f 185//125 184//103 174//115
f 191//120 166//121 164//122
f 165//130 164//122 166//121
f 190//104 167//113 166//121
f 169//110 168//131 170//132
f 168//131 167//113 171//127
f 170//132 168//131 171//127
f 174//115 173//124 186//104
f 174//115 184//103 175//105
f 183//133 182//134 178//133
f 182//134 181//135 180//136
f 184//103 183//133 177//104
f 182//134 180//136 179//137
f 178//133 182//134 179//137
f 177//104 176//128 175//105
f 178//133 177//104 183//133
