# Blender v2.81 (sub 16) OBJ File: ''
# www.blender.org
mtllib United States Virgin Islands.mtl
o 0_United_States_Virgin_Islands_sphere.001
v 2.027104 1.527191 4.307825
v 2.028059 1.520097 4.309855
v 2.034144 1.524924 4.305174
v 2.035001 1.524499 4.304904
v 2.035774 1.523798 4.304772
v 2.037302 1.525313 4.303490
v 2.039890 1.525904 4.302015
v 2.042830 1.525751 4.300629
v 2.045376 1.524914 4.299675
v 2.045444 1.524358 4.299838
v 2.043550 1.524135 4.300845
v 2.042024 1.523570 4.301791
v 2.039090 1.522033 4.303769
v 2.037533 1.521518 4.304713
v 2.027405 1.527404 4.307603
v 2.029140 1.527815 4.306609
v 2.029350 1.527611 4.306577
v 2.032499 1.525548 4.305761
v 2.022388 1.519197 4.312728
v 2.021031 1.518664 4.313526
v 2.021401 1.520100 4.312860
v 2.021331 1.521304 4.312474
v 2.020801 1.524690 4.311539
v 2.020877 1.525742 4.311140
v 2.021439 1.526424 4.310649
v 2.024393 1.525511 4.309633
v 2.025912 1.526295 4.308674
vn 0.4196 0.3012 0.8563
vn 0.4200 0.3005 0.8563
vn 0.4197 0.3006 0.8564
vn 0.3924 0.3015 0.8690
vn 0.3925 0.3015 0.8689
vn 0.4108 0.3014 0.8604
vn 0.4047 0.3015 0.8633
vn 0.4194 0.3014 0.8563
vn 0.4195 0.3014 0.8562
vn 0.4194 0.3015 0.8562
vn 0.4195 0.3015 0.8562
vn 0.4193 0.3014 0.8563
vn 0.4212 0.3005 0.8557
vn 0.3926 0.3014 0.8689
vn 0.3939 0.3010 0.8684
vn 0.3927 0.3015 0.8688
vn 0.3924 0.3016 0.8689
usemtl None
s 1
f 17//1 16//2 15//3
f 26//4 23//5 22//4
f 1//6 2//7 17//1
f 2//7 14//8 5//9
f 18//10 2//7 3//10
f 14//8 13//10 6//11
f 13//10 12//8 7//8
f 14//8 6//11 5//9
f 11//9 10//12 9//12
f 12//8 11//9 8//8
f 11//9 9//12 8//8
f 8//8 7//8 12//8
f 7//8 6//11 13//10
f 5//9 4//13 3//10
f 5//9 3//10 2//7
f 15//3 1//6 17//1
f 2//7 18//10 17//1
f 2//7 1//6 27//14
f 26//4 25//4 23//5
f 25//4 24//15 23//5
f 2//7 27//14 26//4
f 21//16 20//17 19//17
f 19//17 2//7 22//4
f 2//7 26//4 22//4
f 22//4 21//16 19//17
o 1_United_States_Virgin_Islands_sphere.001
v 2.020810 1.572433 4.294449
v 2.020846 1.572183 4.294524
v 2.031132 1.572916 4.289213
v 2.030150 1.572756 4.289753
v 2.028034 1.573445 4.290534
v 2.027555 1.573224 4.290851
v 2.028508 1.572086 4.290807
v 2.028303 1.570174 4.291618
v 2.025685 1.571533 4.292395
v 2.022023 1.571175 4.294322
v 2.021621 1.574043 4.293454
v 2.022775 1.574604 4.292680
v 2.024062 1.575009 4.291899
v 2.023655 1.575621 4.291871
v 2.024259 1.575995 4.291436
v 2.026855 1.575286 4.290428
v 2.028081 1.575031 4.289922
v 2.029261 1.574519 4.289534
v 2.030709 1.573774 4.289101
vn 0.4172 0.3164 0.8519
vn 0.4170 0.3164 0.8520
vn 0.4180 0.3164 0.8516
vn 0.4170 0.3161 0.8521
vn 0.4170 0.3154 0.8524
vn 0.4173 0.3164 0.8519
vn 0.4178 0.3164 0.8516
vn 0.4176 0.3164 0.8517
vn 0.4174 0.3163 0.8519
vn 0.4177 0.3165 0.8517
vn 0.4174 0.3164 0.8518
vn 0.4174 0.3165 0.8518
vn 0.4175 0.3165 0.8517
vn 0.4176 0.3167 0.8516
vn 0.4175 0.3166 0.8517
usemtl None
s 1
f 45//18 44//19 32//20
f 28//21 29//22 37//18
f 36//18 35//23 34//18
f 28//21 37//18 38//24
f 37//18 36//18 39//25
f 39//25 38//24 37//18
f 42//26 41//27 40//28
f 40//28 39//25 36//18
f 36//18 34//18 33//27
f 36//18 33//27 40//28
f 43//29 42//26 40//28
f 32//20 31//30 45//18
f 31//30 30//31 46//32
f 40//28 33//27 43//29
f 33//27 32//20 43//29
f 44//19 43//29 32//20
f 46//32 45//18 31//30
o 2_United_States_Virgin_Islands_sphere.001
v 2.013574 1.574847 4.296832
v 2.016568 1.573214 4.296079
v 2.017941 1.571348 4.296142
v 2.017128 1.571211 4.296558
v 2.016420 1.571447 4.296792
v 2.015614 1.571101 4.297283
v 2.015180 1.570254 4.297789
v 2.012655 1.571167 4.298595
v 2.011735 1.571743 4.298799
v 2.010855 1.573139 4.298686
v 2.010633 1.572367 4.299068
v 2.009846 1.572894 4.299231
v 2.008265 1.572565 4.300065
v 2.007058 1.572809 4.300520
v 2.006011 1.573824 4.300622
v 2.003725 1.573051 4.301937
v 2.002311 1.574264 4.302131
v 2.004390 1.575514 4.300735
v 2.006228 1.576039 4.299713
v 2.009003 1.575958 4.298490
v 2.010262 1.575109 4.298232
v 2.010909 1.575358 4.297849
v 2.009510 1.576311 4.298131
v 2.008833 1.577006 4.298183
v 2.010548 1.576526 4.297584
vn 0.3907 0.3165 0.8644
vn 0.3905 0.3165 0.8645
vn 0.3904 0.3165 0.8645
vn 0.3904 0.3163 0.8646
vn 0.3903 0.3165 0.8646
vn 0.3903 0.3164 0.8646
vn 0.3904 0.3166 0.8645
vn 0.3901 0.3165 0.8646
vn 0.3902 0.3165 0.8646
vn 0.3900 0.3164 0.8647
vn 0.3897 0.3166 0.8648
vn 0.3904 0.3164 0.8645
vn 0.3902 0.3164 0.8646
vn 0.3904 0.3164 0.8646
vn 0.3909 0.3164 0.8643
vn 0.3907 0.3163 0.8644
vn 0.3905 0.3163 0.8645
vn 0.3901 0.3164 0.8647
vn 0.3905 0.3162 0.8645
vn 0.3906 0.3167 0.8643
usemtl None
s 1
f 55//33 54//34 47//35
f 49//36 48//37 50//38
f 48//37 47//35 52//35
f 50//38 48//37 51//39
f 47//35 71//40 68//41
f 71//40 70//42 69//42
f 68//41 71//40 69//42
f 67//43 66//41 58//35
f 66//41 65//44 59//45
f 58//35 66//41 59//45
f 65//44 64//46 61//47
f 47//35 68//41 56//34
f 68//41 67//43 56//34
f 51//39 48//37 52//35
f 56//34 67//43 58//35
f 64//46 63//48 62//49
f 61//47 60//50 65//44
f 60//50 59//45 65//44
f 64//46 62//49 61//47
f 54//34 53//51 52//35
f 58//35 57//52 56//34
f 54//34 52//35 47//35
f 56//34 55//33 47//35
