# Blender v2.81 (sub 16) OBJ File: ''
# www.blender.org
mtllib US Naval Base Guantanamo Bay.mtl
o 0_US_Naval_Base_Guantanamo_Bay_sphere.001
v 1.201189 1.703990 4.544112
v 1.200998 1.703566 4.544326
v 1.200551 1.703626 4.544425
v 1.200373 1.704099 4.544293
v 1.199924 1.704159 4.544393
v 1.199497 1.703904 4.544607
v 1.199242 1.703727 4.544744
v 1.199288 1.703362 4.544871
v 1.200298 1.702698 4.544849
v 1.201393 1.702573 4.544597
v 1.201527 1.702287 4.544670
v 1.200217 1.702245 4.545044
v 1.198392 1.701825 4.545704
v 1.198252 1.701777 4.545761
v 1.198271 1.704838 4.544585
v 1.201990 1.707554 4.542530
v 1.203462 1.707539 4.542133
v 1.202851 1.707196 4.542431
v 1.202688 1.706450 4.542761
v 1.203367 1.705886 4.542791
v 1.203981 1.704940 4.542984
v 1.202784 1.704670 4.543415
v 1.201871 1.704515 4.543724
vn 0.2476 0.3460 0.9050
vn 0.2480 0.3459 0.9049
vn 0.2475 0.3460 0.9050
vn 0.2479 0.3460 0.9049
vn 0.2473 0.3460 0.9051
vn 0.2477 0.3459 0.9050
vn 0.2473 0.3460 0.9050
vn 0.2479 0.3461 0.9048
vn 0.2475 0.3461 0.9049
vn 0.2475 0.3460 0.9049
vn 0.2483 0.3444 0.9054
vn 0.2476 0.3460 0.9049
vn 0.2487 0.3437 0.9055
vn 0.2478 0.3457 0.9050
vn 0.2477 0.3455 0.9051
vn 0.2476 0.3455 0.9051
vn 0.2474 0.3459 0.9051
vn 0.2472 0.3462 0.9050
vn 0.2474 0.3455 0.9052
vn 0.2477 0.3460 0.9049
vn 0.2479 0.3454 0.9051
vn 0.2471 0.3460 0.9051
vn 0.2481 0.3455 0.9050
usemtl None
s 1
f 15//1 7//2 6//3
f 21//4 20//5 22//6
f 20//5 19//7 22//6
f 18//8 17//9 16//10
f 19//7 18//8 16//10
f 15//1 14//11 8//12
f 14//11 13//13 8//12
f 12//14 11//15 10//16
f 19//7 16//10 23//17
f 16//10 15//1 5//18
f 23//17 22//6 19//7
f 3//19 2//20 1//21
f 1//21 23//17 4//22
f 4//22 16//10 5//18
f 13//13 12//14 8//12
f 12//14 10//16 9//23
f 12//14 9//23 8//12
f 16//10 4//22 23//17
f 4//22 3//19 1//21
f 8//12 7//2 15//1
f 6//3 5//18 15//1
o 1_US_Naval_Base_Guantanamo_Bay_sphere.001
v 1.209195 1.701501 4.542873
v 1.208200 1.701537 4.543131
v 1.205881 1.701125 4.543923
v 1.203948 1.701011 4.544496
v 1.203628 1.701481 4.544404
v 1.203582 1.702863 4.543888
v 1.204076 1.703252 4.543604
v 1.204911 1.703658 4.543221
v 1.206679 1.705044 4.542207
v 1.207031 1.705349 4.541994
v 1.208104 1.705239 4.541742
v 1.208291 1.706090 4.541366
v 1.207955 1.706577 4.541271
v 1.206933 1.707220 4.541305
v 1.205988 1.706290 4.541919
v 1.205657 1.706493 4.541932
v 1.205142 1.707053 4.541859
v 1.205292 1.707600 4.541608
v 1.208621 1.707592 4.540701
vn 0.2466 0.3462 0.9051
vn 0.2492 0.3459 0.9045
vn 0.2467 0.3460 0.9052
vn 0.2474 0.3462 0.9049
vn 0.2480 0.3461 0.9048
vn 0.2475 0.3462 0.9049
vn 0.2490 0.3460 0.9046
vn 0.2478 0.3462 0.9048
vn 0.2477 0.3463 0.9048
vn 0.2470 0.3460 0.9051
vn 0.2474 0.3465 0.9048
vn 0.2476 0.3460 0.9049
vn 0.2477 0.3460 0.9049
vn 0.2481 0.3458 0.9049
vn 0.2477 0.3459 0.9049
vn 0.2468 0.3469 0.9048
vn 0.2474 0.3461 0.9050
vn 0.2480 0.3462 0.9048
usemtl None
s 1
f 35//24 34//25 24//26
f 42//27 41//28 37//29
f 41//28 40//30 39//31
f 37//29 41//28 39//31
f 39//31 38//32 37//29
f 25//33 24//26 34//25
f 24//26 42//27 35//24
f 27//34 26//35 28//27
f 26//35 25//33 31//36
f 29//37 28//27 30//38
f 31//36 30//38 26//35
f 26//35 30//38 28//27
f 34//25 33//39 32//40
f 34//25 32//40 25//33
f 32//40 31//36 25//33
f 42//27 37//29 36//41
f 42//27 36//41 35//24
