# Blender v2.81 (sub 16) OBJ File: ''
# www.blender.org
mtllib Afghanistan.mtl
o 0_Afghanistan_sphere.001
v 1.115526 3.002100 -3.839660
v 1.354419 3.002100 -3.762039
v 1.370225 2.938925 -3.805942
v 1.385694 2.875025 -3.848907
v 1.400819 2.810416 -3.890920
v 1.471919 3.002100 -3.717639
v 1.489097 2.938925 -3.761024
v 1.505907 2.875025 -3.803482
v 1.522345 2.810416 -3.844999
v 1.538408 2.745113 -3.885569
v 1.554091 2.679133 -3.925182
v 1.587967 3.002100 -3.669571
v 1.606499 2.938925 -3.712395
v 1.624634 2.875025 -3.754303
v 1.642368 2.810416 -3.795284
v 1.659697 2.745113 -3.835329
v 1.676617 2.679133 -3.874429
v 1.693123 2.612492 -3.912571
v 1.702448 3.002100 -3.617881
v 1.722315 2.938925 -3.660102
v 1.741758 2.875025 -3.701420
v 1.760770 2.810416 -3.741823
v 1.779349 2.745113 -3.781304
v 1.797489 2.679133 -3.819854
v 1.815184 2.612492 -3.857458
v 1.832432 2.545206 -3.894112
v 1.849228 2.477292 -3.929805
v 1.857163 2.875025 -3.644883
v 1.877435 2.810416 -3.684669
v 1.897245 2.745113 -3.723547
v 1.916586 2.679133 -3.761508
v 1.935454 2.612492 -3.798538
v 1.953845 2.545206 -3.834632
v 1.971754 2.477292 -3.869780
v 1.970735 2.875025 -3.584750
v 1.992247 2.810416 -3.623880
v 2.013268 2.745113 -3.662116
v 2.033792 2.679133 -3.699451
v 2.053814 2.612492 -3.735870
v 1.709151 3.002100 -3.614597
v 2.082676 2.511804 -3.788370
v 2.091661 2.479696 -3.804713
v 1.258883 3.002100 -3.794749
v 1.782660 2.477292 -3.959862
v 1.852801 2.462308 -3.937398
v 2.056549 2.612492 -3.734309
v 1.977828 2.453400 -3.881702
v 2.054015 2.611800 -3.736234
v 1.702743 2.572256 -3.934803
v 1.343085 2.810416 -3.910687
v 2.021952 2.810416 -3.606936
v 2.039518 2.745113 -3.647144
v 1.697407 3.017613 -3.607168
v 1.775673 2.938925 -3.633962
v 1.417212 2.745113 -3.931365
v 1.296592 2.938925 -3.831153
v 2.061061 2.679133 -3.683897
v 2.043692 2.545206 -3.787060
v 1.403912 2.796750 -3.899511
v 1.411207 2.764520 -3.919773
v 1.415446 2.745794 -3.931546
v 1.981286 2.875025 -3.578732
v 1.227983 3.002100 -3.805064
v 1.332574 3.064534 -3.719162
v 1.251480 3.064534 -3.746926
v 1.724564 2.545206 -3.942816
v 1.107586 3.039392 -3.812331
v 1.613278 2.612492 -3.945644
v 1.085262 3.002100 -3.847940
v 1.849399 2.898957 -3.629645
v 1.467224 3.018811 -3.705781
v 1.494004 2.679133 -3.947887
v 1.294337 2.875025 -3.880185
v 1.958088 2.911763 -3.561743
v 1.578265 3.034110 -3.647151
v 1.116832 2.995765 -3.844154
v 1.340656 3.055341 -3.723809
v 1.236679 2.997294 -3.806103
v 1.241345 2.976853 -3.820462
v 2.085348 2.477292 -3.809635
v 1.566223 2.626290 -3.955822
v 1.901792 2.886896 -3.611656
v 1.851138 2.896581 -3.630646
v 1.956633 2.914074 -3.560645
v 1.827479 2.928677 -3.616737
v 2.012267 2.824884 -3.600950
v 1.248454 2.990647 -3.807259
v 1.252050 2.974648 -3.818517
v 1.298068 2.943933 -3.826738
v 1.357648 2.794852 -3.916692
v 1.406134 2.749286 -3.932268
v 1.721709 2.555474 -3.937323
v 1.097884 3.038231 -3.815903
v 1.028969 3.037959 -3.834971
v 1.020955 3.018100 -3.852875
v 1.061606 3.010264 -3.847952
v 1.433495 3.032747 -3.707159
v 1.415276 3.019308 -3.725006
v 1.385808 3.051068 -3.710233
v 1.347473 3.049797 -3.725755
v 1.499026 2.641934 -3.970786
v 1.530783 2.621156 -3.972636
v 1.554901 2.628199 -3.958827
v 2.031962 2.555124 -3.786515
v 2.023640 2.603240 -3.758147
v 2.069496 2.615907 -3.724473
v 2.060307 2.662892 -3.695986
v 2.062873 2.721498 -3.651374
v 1.622072 2.597511 -3.951762
v 1.673320 2.597748 -3.930380
v 1.774062 2.939249 -3.634485
v 1.731501 2.960711 -3.637685
v 1.643497 3.029993 -3.621145
v 1.625853 3.054666 -3.608454
v 1.601808 3.036201 -3.634770
v 1.583396 3.034160 -3.644792
v 1.329813 2.848416 -3.887475
v 1.333147 2.820860 -3.906461
v 1.836315 2.459791 -3.946388
v 2.111126 2.486847 -3.788829
v 1.176995 2.989248 -3.830681
v 2.009488 2.448003 -3.868359
v 1.453829 2.730631 -3.927524
v 1.492974 2.686364 -3.943285
v 1.334863 3.059994 -3.722040
v 1.269226 3.013400 -3.782094
v 1.547967 3.033570 -3.660147
v 1.503824 3.018908 -3.690542
v 1.486560 3.010509 -3.704630
v 1.609758 2.618393 -3.943119
v 1.701055 3.016745 -3.606119
v 1.882488 2.466409 -3.920297
v 1.900383 2.449667 -3.921971
v 1.938769 2.459402 -3.897095
v 1.320653 3.087636 -3.703995
v 1.286541 3.111380 -3.695892
v 1.255489 3.095758 -3.719539
v 1.267838 3.074798 -3.732774
v 1.248968 3.071614 -3.741888
v 1.098432 2.997521 -3.847843
v 1.739135 2.491311 -3.970581
v 1.289125 2.913919 -3.852595
v 1.289413 2.878634 -3.879145
v 1.221944 3.005364 -3.804316
v 1.190799 3.012125 -3.808500
v 1.142487 3.043230 -3.798530
v 1.422029 2.797234 -3.892320
v 2.022921 2.761609 -3.643923
v 2.046973 2.772182 -3.622072
vn 0.2231 0.6004 -0.7679
vn 0.2337 0.6066 -0.7598
vn 0.2360 0.5966 -0.7670
vn 0.2944 0.6004 -0.7436
vn 0.2709 0.6004 -0.7524
vn 0.2810 0.6066 -0.7436
vn 0.2740 0.5877 -0.7612
vn 0.2978 0.5877 -0.7522
vn 0.3012 0.5749 -0.7607
vn 0.2771 0.5749 -0.7698
vn 0.3045 0.5620 -0.7690
vn 0.2802 0.5620 -0.7782
vn 0.3176 0.6004 -0.7339
vn 0.3042 0.6066 -0.7345
vn 0.3213 0.5877 -0.7425
vn 0.3249 0.5749 -0.7509
vn 0.3285 0.5620 -0.7591
vn 0.3077 0.5490 -0.7771
vn 0.3319 0.5490 -0.7671
vn 0.3353 0.5358 -0.7749
vn 0.3108 0.5358 -0.7850
vn 0.3271 0.6066 -0.7245
vn 0.3405 0.6004 -0.7236
vn 0.3445 0.5877 -0.7320
vn 0.3483 0.5749 -0.7403
vn 0.3522 0.5620 -0.7484
vn 0.3559 0.5490 -0.7562
vn 0.3595 0.5358 -0.7640
vn 0.3630 0.5224 -0.7715
vn 0.3386 0.5224 -0.7825
vn 0.3497 0.6066 -0.7139
vn 0.3521 0.5996 -0.7187
vn 0.3539 0.5941 -0.7224
vn 0.3536 0.5938 -0.7227
vn 0.3714 0.5749 -0.7290
vn 0.3576 0.5823 -0.7301
vn 0.3605 0.5814 -0.7294
vn 0.3755 0.5620 -0.7369
vn 0.3794 0.5490 -0.7447
vn 0.3833 0.5358 -0.7523
vn 0.3871 0.5224 -0.7597
vn 0.3665 0.5090 -0.7788
vn 0.3908 0.5090 -0.7669
vn 0.3943 0.4954 -0.7739
vn 0.3698 0.4954 -0.7860
vn 0.3984 0.5620 -0.7248
vn 0.4027 0.5490 -0.7324
vn 0.4068 0.5358 -0.7399
vn 0.4107 0.5224 -0.7472
vn 0.4009 0.5157 -0.7571
vn 0.4009 0.5157 -0.7572
vn 0.4100 0.5022 -0.7613
vn 0.4141 0.5022 -0.7591
vn 0.4050 0.5007 -0.7650
vn 0.3807 0.5813 -0.7190
vn 0.3941 0.5749 -0.7170
vn 0.3826 0.5814 -0.7180
vn 0.4057 0.5739 -0.7113
vn 0.4076 0.5685 -0.7146
vn 0.4119 0.5555 -0.7223
vn 0.4149 0.5466 -0.7274
vn 0.4162 0.5424 -0.7297
vn 0.4204 0.5291 -0.7371
vn 0.4208 0.5280 -0.7376
vn 0.2605 0.5941 -0.7610
vn 0.2598 0.5972 -0.7588
vn 0.2852 0.5555 -0.7811
vn 0.2694 0.5555 -0.7866
vn 0.2904 0.5555 -0.7791
vn 0.2693 0.5555 -0.7866
vn 0.2813 0.5556 -0.7824
vn 0.3525 0.5157 -0.7808
vn 0.2098 0.6066 -0.7668
vn 0.2999 0.5291 -0.7938
vn 0.3279 0.5157 -0.7915
vn 0.3260 0.5238 -0.7870
vn 0.2665 0.5685 -0.7783
vn 0.3591 0.4886 -0.7952
vn 0.3703 0.4886 -0.7900
vn 0.4284 0.5022 -0.7511
vn 0.2365 0.5940 -0.7689
vn 0.4082 0.4886 -0.7711
vn 0.2969 0.5424 -0.7859
vn 0.2627 0.6066 -0.7503
vn 0.2575 0.6066 -0.7521
vn 0.3247 0.5291 -0.7839
vn 0.3838 0.4886 -0.7835
vn 0.2544 0.6190 -0.7430
vn 0.2562 0.6120 -0.7482
vn 0.2123 0.5941 -0.7759
vn 0.2254 0.5941 -0.7721
vn 0.3562 0.5007 -0.7889
vn 0.3542 0.5091 -0.7844
vn 0.2635 0.5813 -0.7698
vn 0.2939 0.5555 -0.7778
vn 0.4107 0.5157 -0.7519
vn 0.2228 0.6067 -0.7631
vn 0.2337 0.6067 -0.7598
vn 0.2889 0.6066 -0.7406
vn 0.3158 0.6067 -0.7295
vn 0.3364 0.6067 -0.7202
vn 0.3579 0.5813 -0.7306
vn 0.4036 0.5059 -0.7623
vn 0.3805 0.5815 -0.7191
vn 0.3808 0.5814 -0.7190
vn 0.4102 0.5608 -0.7192
vn 0.4120 0.5555 -0.7223
vn 0.4179 0.5372 -0.7326
vn 0.2625 0.5860 -0.7666
vn 0.2504 0.5941 -0.7644
vn 0.2436 0.5941 -0.7666
vn 0.2674 0.5643 -0.7810
vn 0.3470 0.5158 -0.7833
vn 0.2101 0.6049 -0.7680
vn 0.3139 0.5292 -0.7883
vn 0.2985 0.5354 -0.7900
vn 0.2664 0.5685 -0.7783
vn 0.2643 0.5781 -0.7720
vn 0.3974 0.4886 -0.7767
vn 0.2944 0.5536 -0.7790
vn 0.2559 0.6132 -0.7473
vn 0.3558 0.5022 -0.7881
usemtl None
s 1
f 1//1 145//2 63//3
f 6//4 2//5 98//6
f 3//7 6//4 7//8
f 3//7 8//9 4//10
f 4//10 9//11 5//12
f 12//13 6//4 129//14
f 7//8 12//13 13//15
f 7//8 14//16 8//9
f 8//9 15//17 9//11
f 10//18 15//17 16//19
f 10//18 17//20 11//21
f 12//13 115//22 113//22
f 13//15 19//23 20//24
f 13//15 21//25 14//16
f 14//16 22//26 15//17
f 16//19 22//26 23//27
f 16//19 24//28 17//20
f 17//20 25//29 18//30
f 19//23 131//31 40//32
f 20//24 112//33 111//34
f 28//35 54//36 70//37
f 21//25 29//38 22//26
f 23//27 29//38 30//39
f 23//27 31//40 24//28
f 25//29 31//40 32//41
f 26//42 32//41 33//43
f 26//42 34//44 27//45
f 30//39 36//46 37//47
f 30//39 38//48 31//40
f 32//41 38//48 39//49
f 32//41 105//50 104//51
f 41//52 42//53 80//54
f 28//35 82//55 35//56
f 28//35 36//46 29//38
f 35//56 74//57 62//58
f 35//56 62//58 86//59
f 148//60 52//61 37//47
f 37//47 52//61 108//62
f 107//63 106//63 46//64
f 87//65 43//66 88//65
f 61//67 91//68 60//69
f 90//70 5//12 59//71
f 25//29 26//42 92//72
f 96//73 94//73 93//73
f 103//74 101//74 11//21
f 110//75 68//76 18//30
f 117//77 4//10 5//12
f 119//78 27//45 45//79
f 41//52 120//80 42//53
f 1//1 63//3 121//81
f 122//82 34//44 80//54
f 124//83 123//83 10//18
f 77//84 2//5 126//85
f 17//20 18//30 130//86
f 34//44 134//87 132//87
f 135//88 64//89 138//88
f 140//90 1//1 76//91
f 26//42 44//92 66//93
f 4//10 142//94 3//7
f 9//11 10//18 147//95
f 46//64 48//96 39//49
f 1//1 67//97 146//2
f 145//2 144//98 63//3
f 1//1 146//2 145//2
f 2//5 77//84 100//6
f 100//6 99//6 2//5
f 99//6 98//6 2//5
f 98//6 97//6 6//4
f 97//6 71//99 6//4
f 3//7 2//5 6//4
f 3//7 7//8 8//9
f 4//10 8//9 9//11
f 6//4 71//99 129//14
f 129//14 128//14 12//13
f 128//14 127//14 12//13
f 127//14 75//100 12//13
f 7//8 6//4 12//13
f 7//8 13//15 14//16
f 8//9 14//16 15//17
f 10//18 9//11 15//17
f 10//18 16//19 17//20
f 19//23 12//13 113//22
f 12//13 75//100 116//22
f 12//13 116//22 115//22
f 113//22 53//101 19//23
f 115//22 114//22 113//22
f 13//15 12//13 19//23
f 13//15 20//24 21//25
f 14//16 21//25 22//26
f 16//19 15//17 22//26
f 16//19 23//27 24//28
f 17//20 24//28 25//29
f 19//23 53//101 131//31
f 20//24 19//23 112//33
f 19//23 40//32 112//33
f 111//34 54//36 20//24
f 28//35 21//25 54//36
f 21//25 20//24 54//36
f 54//36 85//102 70//37
f 21//25 28//35 29//38
f 23//27 22//26 29//38
f 23//27 30//39 31//40
f 25//29 24//28 31//40
f 26//42 25//29 32//41
f 26//42 33//43 34//44
f 30//39 29//38 36//46
f 30//39 37//47 38//48
f 32//41 31//40 38//48
f 58//103 33//43 104//51
f 33//43 32//41 104//51
f 32//41 39//49 105//50
f 39//49 48//96 105//50
f 80//54 34//44 58//103
f 34//44 33//43 58//103
f 58//103 41//52 80//54
f 28//35 70//37 83//104
f 82//55 84//105 74//57
f 28//35 83//104 82//55
f 82//55 74//57 35//56
f 28//35 35//56 36//46
f 51//106 36//46 86//59
f 36//46 35//56 86//59
f 37//47 36//46 148//60
f 36//46 51//106 148//60
f 51//106 149//107 148//60
f 57//108 38//48 108//62
f 38//48 37//47 108//62
f 46//64 39//49 107//63
f 39//49 38//48 107//63
f 38//48 57//108 107//63
f 3//7 56//109 89//65
f 88//65 79//110 87//65
f 79//110 78//111 87//65
f 3//7 89//65 2//5
f 89//65 88//65 43//66
f 43//66 2//5 89//65
f 90//70 50//112 5//12
f 26//42 66//93 92//72
f 92//72 49//113 18//30
f 18//30 25//29 92//72
f 1//1 69//114 93//73
f 69//114 96//73 93//73
f 96//73 95//73 94//73
f 93//73 67//97 1//1
f 11//21 81//115 103//74
f 103//74 102//74 101//74
f 101//74 72//116 11//21
f 18//30 49//113 110//75
f 110//75 109//75 68//76
f 5//12 50//112 117//77
f 50//112 118//117 117//77
f 117//77 73//118 4//10
f 119//78 44//92 27//45
f 78//111 79//110 63//3
f 79//110 121//81 63//3
f 121//81 76//91 1//1
f 122//82 47//119 34//44
f 11//21 72//116 124//83
f 123//83 55//120 10//18
f 11//21 124//83 10//18
f 2//5 43//66 126//85
f 126//85 65//121 125//85
f 65//121 64//89 125//85
f 125//85 77//84 126//85
f 18//30 68//76 130//86
f 130//86 81//115 11//21
f 11//21 17//20 130//86
f 34//44 47//119 134//87
f 134//87 133//87 132//87
f 132//87 45//79 27//45
f 27//45 34//44 132//87
f 64//89 65//121 138//88
f 65//121 139//88 138//88
f 138//88 137//88 136//88
f 136//88 135//88 138//88
f 140//90 69//114 1//1
f 27//45 44//92 26//42
f 44//92 141//122 66//93
f 4//10 73//118 142//94
f 73//118 143//94 142//94
f 142//94 56//109 3//7
f 10//18 55//120 147//95
f 55//120 61//67 60//69
f 147//95 55//120 60//69
f 147//95 59//71 5//12
f 5//12 9//11 147//95
