# Blender v2.81 (sub 16) OBJ File: ''
# www.blender.org
mtllib Angola.mtl
o 0_Angola_sphere.001
v 4.493432 -1.013939 -1.944475
v 4.478259 -1.090719 -1.937910
v 4.602505 -0.704509 -1.822255
v 4.591646 -0.782175 -1.817954
v 4.579658 -0.859648 -1.813209
v 4.566537 -0.936910 -1.808014
v 4.552292 -1.013939 -1.802374
v 4.536921 -1.090719 -1.796288
v 4.520433 -1.167230 -1.789760
v 4.502828 -1.243452 -1.782790
v 4.484114 -1.319368 -1.775380
v 4.464293 -1.394959 -1.767533
v 4.443367 -1.470205 -1.759247
v 4.667307 -0.626669 -1.680329
v 4.657473 -0.704509 -1.676788
v 4.646483 -0.782175 -1.672830
v 4.634353 -0.859648 -1.668464
v 4.621075 -0.936910 -1.663683
v 4.606660 -1.013939 -1.658493
v 4.591105 -1.090719 -1.652894
v 4.574420 -1.167230 -1.646886
v 4.556604 -1.243452 -1.640473
v 4.537667 -1.319368 -1.633654
v 4.517610 -1.394959 -1.626434
v 4.496434 -1.470205 -1.618810
v 4.707843 -0.704509 -1.529666
v 4.696735 -0.782175 -1.526055
v 4.684474 -0.859648 -1.522072
v 4.671052 -0.936910 -1.517711
v 4.656481 -1.013939 -1.512976
v 4.640758 -1.090719 -1.507868
v 4.623893 -1.167230 -1.502388
v 4.605884 -1.243452 -1.496537
v 4.586742 -1.319368 -1.490317
v 4.566468 -1.394959 -1.483730
v 4.545063 -1.470205 -1.476775
v 4.772472 -0.548674 -1.386526
v 4.763606 -0.626669 -1.383950
v 4.753568 -0.704509 -1.381034
v 4.742352 -0.782175 -1.377774
v 4.729971 -0.859648 -1.374178
v 4.716420 -0.936910 -1.370240
v 4.701707 -1.013939 -1.365966
v 4.685831 -1.090719 -1.361354
v 4.668802 -1.167230 -1.356406
v 4.650619 -1.243452 -1.351124
v 4.631291 -1.319368 -1.345508
v 4.610819 -1.394959 -1.339561
v 4.589207 -1.470205 -1.333282
v 4.813669 -0.548674 -1.235934
v 4.804726 -0.626669 -1.233639
v 4.794602 -0.704509 -1.231039
v 4.783288 -0.782175 -1.228133
v 4.770801 -0.859648 -1.224928
v 4.757133 -0.936910 -1.221418
v 4.742292 -1.013939 -1.217608
v 4.726280 -1.090719 -1.213497
v 4.709104 -1.167230 -1.209086
v 4.690763 -1.243452 -1.204378
v 4.671269 -1.319368 -1.199372
v 4.650620 -1.394959 -1.194071
v 4.628821 -1.470205 -1.188474
v 4.850115 -0.548674 -1.084123
v 4.744759 -1.167230 -1.060573
v 4.726279 -1.243452 -1.056443
v 4.706637 -1.319368 -1.052052
v 4.685832 -1.394959 -1.047402
v 4.492775 -1.243452 -1.807058
v 4.700889 -1.394959 -0.974697
v 4.559627 -0.859648 -1.861568
v 4.813110 -0.782175 -1.103916
v 4.644694 -0.626669 -1.740172
v 4.472674 -1.116979 -1.935493
v 4.747058 -0.626669 -1.437740
v 4.845458 -0.588994 -1.083083
v 4.776082 -0.511982 -1.387574
v 4.733263 -1.243452 -1.022718
v 4.756631 -1.013939 -1.157881
v 4.594520 -0.704509 -1.841534
v 4.667969 -0.620723 -1.680567
v 4.836826 -0.626669 -1.099934
v 4.666248 -1.462050 -1.043024
v 4.405898 -1.470205 -1.849706
v 4.475509 -1.013939 -1.984171
v 4.679034 -1.470205 -0.969258
v 4.669728 -1.470205 -1.014196
v 4.474514 -1.319368 -1.798556
v 4.547901 -0.936910 -1.853007
v 4.622392 -1.491196 -1.186823
v 4.795296 -0.859648 -1.122899
v 4.611233 -0.634602 -1.825711
v 4.708903 -0.696209 -1.530010
v 4.678581 -0.626669 -1.647400
v 4.747145 -1.156681 -1.061107
v 4.643754 -1.470205 -1.126276
v 4.424239 -1.535262 -1.751674
v 4.509898 -1.167230 -1.815194
v 4.478098 -1.531827 -1.612209
v 4.749946 -1.090719 -1.114920
v 4.539696 -1.488049 -1.475031
v 4.584620 -0.782175 -1.834915
v 4.583180 -1.490051 -1.331531
v 4.821001 -0.704509 -1.121077
v 4.765677 -0.548674 -1.408614
v 4.506217 -0.943899 -1.950008
v 4.856591 -0.548674 -1.052854
v 4.459327 -1.090719 -1.979840
v 4.852635 -0.523464 -1.084687
v 4.746002 -1.167230 -1.054569
v 4.771294 -0.936910 -1.162433
v 4.717486 -1.319368 -0.999663
v 4.817356 -0.511510 -1.236881
v 4.451875 -1.394959 -1.797513
v 4.588480 -0.722196 -1.849167
v 4.586085 -0.774246 -1.834496
v 4.543830 -0.961181 -1.850222
v 4.537163 -0.953313 -1.870405
v 4.522537 -0.955444 -1.904609
v 4.475330 -1.015745 -1.983623
v 4.461279 -1.055742 -1.993816
v 4.460222 -1.087705 -1.979436
v 4.626085 -1.491230 -1.171392
v 4.627244 -1.497057 -1.158672
v 4.759789 -0.576546 -1.416535
v 4.709251 -1.360742 -0.981892
v 4.772862 -0.511939 -1.398052
v 4.650254 -1.459325 -1.113138
v 4.663586 -1.456894 -1.060717
v 4.457701 -1.384845 -1.790900
v 4.850283 -0.519603 -1.096178
v 4.844271 -0.521171 -1.120534
v 4.838206 -0.510710 -1.150388
v 4.813423 -0.778571 -1.104934
v 4.812254 -0.744314 -1.131867
v 4.762165 -0.979401 -1.164258
v 4.606996 -0.634474 -1.835987
v 4.599601 -0.688912 -1.834740
v 4.520582 -1.116022 -1.820411
v 4.504422 -0.942698 -1.954563
v 4.487441 -0.947667 -1.989772
v 4.478886 -0.974226 -1.995883
v 4.381582 -1.505388 -1.879341
v 4.724017 -1.283722 -1.014727
v 4.732511 -1.247509 -1.021046
v 4.670099 -1.471109 -1.010992
v 4.673360 -1.486898 -0.970624
v 4.705328 -0.694759 -1.541053
v 4.697645 -0.682541 -1.568558
v 4.680623 -0.694731 -1.613225
v 4.679173 -0.673107 -1.626422
v 4.746564 -0.628486 -1.438515
v 4.737129 -0.656444 -1.456420
v 4.721591 -0.701698 -1.486260
v 4.644353 -0.635171 -1.737845
v 4.829904 -0.660890 -1.109081
v 4.772490 -0.930889 -1.162159
v 4.783932 -0.900188 -1.138519
v 4.748992 -1.136410 -1.073536
v 4.575597 -0.827195 -1.837124
v 4.559701 -0.859092 -1.861631
v 4.451061 -1.117059 -1.983314
v 4.745508 -1.171244 -1.052040
v 4.417305 -1.453251 -1.835415
v 4.678471 -0.622726 -1.649164
v 4.856735 -0.548111 -1.052440
v 4.856754 -0.531240 -1.060871
v 4.502106 -1.527439 -1.546372
v 4.532713 -1.487620 -1.495844
v 4.660838 -0.619355 -1.699897
v 4.660849 -0.604334 -1.704900
v 4.645270 -0.603953 -1.746255
v 4.690601 -1.434414 -0.966186
v 4.429590 -1.539274 -1.733924
v 4.841252 -0.602978 -1.093508
v 4.798352 -0.848087 -1.118410
v 4.811650 -0.796473 -1.099806
v 4.750007 -1.080680 -1.123922
v 4.751564 -1.042724 -1.152444
vn 0.9133 -0.1874 -0.3616
vn 0.9105 -0.2028 -0.3605
vn 0.9061 -0.1950 -0.3753
vn 0.8987 -0.2028 -0.3889
vn 0.9074 -0.2181 -0.3592
vn 0.8957 -0.2181 -0.3876
vn 0.9271 -0.1331 -0.3503
vn 0.9334 -0.1253 -0.3361
vn 0.9315 -0.1409 -0.3353
vn 0.9183 -0.1564 -0.3636
vn 0.9293 -0.1564 -0.3345
vn 0.9268 -0.1719 -0.3337
vn 0.9159 -0.1719 -0.3626
vn 0.9242 -0.1874 -0.3327
vn 0.9213 -0.2028 -0.3317
vn 0.9182 -0.2181 -0.3306
vn 0.9041 -0.2334 -0.3580
vn 0.9149 -0.2334 -0.3294
vn 0.9113 -0.2487 -0.3281
vn 0.9006 -0.2487 -0.3565
vn 0.8968 -0.2638 -0.3551
vn 0.9075 -0.2638 -0.3267
vn 0.9035 -0.2790 -0.3253
vn 0.8928 -0.2790 -0.3535
vn 0.8887 -0.2940 -0.3518
vn 0.8993 -0.2940 -0.3237
vn 0.9395 -0.1175 -0.3217
vn 0.9384 -0.1273 -0.3213
vn 0.9377 -0.1331 -0.3210
vn 0.9416 -0.1408 -0.3059
vn 0.9393 -0.1564 -0.3052
vn 0.9369 -0.1719 -0.3044
vn 0.9342 -0.1874 -0.3035
vn 0.9313 -0.2028 -0.3026
vn 0.9281 -0.2181 -0.3016
vn 0.9248 -0.2334 -0.3005
vn 0.9212 -0.2487 -0.2993
vn 0.9174 -0.2638 -0.2980
vn 0.9133 -0.2790 -0.2967
vn 0.9090 -0.2940 -0.2953
vn 0.9301 -0.2487 -0.2702
vn 0.9263 -0.2638 -0.2691
vn 0.9221 -0.2790 -0.2679
vn 0.9178 -0.2940 -0.2666
vn 0.9473 -0.1331 -0.2914
vn 0.9473 -0.1332 -0.2914
vn 0.9507 -0.1409 -0.2762
vn 0.9485 -0.1564 -0.2756
vn 0.9460 -0.1719 -0.2748
vn 0.9433 -0.1874 -0.2740
vn 0.9403 -0.2028 -0.2732
vn 0.9372 -0.2181 -0.2723
vn 0.9337 -0.2334 -0.2713
vn 0.9553 -0.1019 -0.2775
vn 0.9627 -0.1097 -0.2472
vn 0.9545 -0.1097 -0.2773
vn 0.9609 -0.1253 -0.2467
vn 0.9527 -0.1253 -0.2768
vn 0.9589 -0.1409 -0.2462
vn 0.9566 -0.1564 -0.2456
vn 0.9542 -0.1719 -0.2450
vn 0.9514 -0.1874 -0.2443
vn 0.9485 -0.2028 -0.2435
vn 0.9452 -0.2181 -0.2427
vn 0.9418 -0.2334 -0.2418
vn 0.9381 -0.2487 -0.2409
vn 0.9343 -0.2638 -0.2399
vn 0.9301 -0.2790 -0.2388
vn 0.9257 -0.2940 -0.2377
vn 0.9673 -0.1019 -0.2322
vn 0.9701 -0.1019 -0.2201
vn 0.9700 -0.1097 -0.2168
vn 0.9671 -0.1175 -0.2254
vn 0.9656 -0.1175 -0.2318
vn 0.9637 -0.1331 -0.2314
vn 0.9629 -0.1394 -0.2311
vn 0.9615 -0.1487 -0.2308
vn 0.9616 -0.1483 -0.2308
vn 0.9602 -0.1576 -0.2305
vn 0.9592 -0.1641 -0.2302
vn 0.9592 -0.1641 -0.2303
vn 0.9565 -0.1797 -0.2296
vn 0.9552 -0.1870 -0.2293
vn 0.9537 -0.1950 -0.2289
vn 0.9520 -0.2034 -0.2286
vn 0.9506 -0.2105 -0.2282
vn 0.9473 -0.2257 -0.2274
vn 0.9484 -0.2258 -0.2226
vn 0.9489 -0.2334 -0.2121
vn 0.9452 -0.2487 -0.2113
vn 0.9413 -0.2638 -0.2104
vn 0.9372 -0.2790 -0.2095
vn 0.9316 -0.2865 -0.2236
vn 0.9307 -0.2897 -0.2234
vn 0.9741 -0.1018 -0.2017
vn 0.9741 -0.1024 -0.2015
vn 0.9736 -0.1066 -0.2016
vn 0.9516 -0.2359 -0.1971
vn 0.9503 -0.2410 -0.1968
vn 0.9465 -0.2563 -0.1960
vn 0.9465 -0.2562 -0.1960
vn 0.9441 -0.2655 -0.1955
vn 0.9424 -0.2714 -0.1952
vn 0.9205 -0.1409 -0.3644
vn 0.9136 -0.1487 -0.3784
vn 0.8949 -0.2486 -0.3706
vn 0.8910 -0.2105 -0.4023
vn 0.9271 -0.3015 -0.2226
vn 0.9235 -0.3015 -0.2370
vn 0.9492 -0.1175 -0.2920
vn 0.9508 -0.1019 -0.2925
vn 0.9498 -0.1113 -0.2922
vn 0.8892 -0.2713 -0.3683
vn 0.9156 -0.1331 -0.3793
vn 0.9214 -0.1331 -0.3649
vn 0.9075 -0.1871 -0.3759
vn 0.9000 -0.2257 -0.3728
vn 0.8939 -0.1950 -0.4036
vn 0.8873 -0.3015 -0.3490
vn 0.8820 -0.2977 -0.3653
vn 0.9156 -0.3015 -0.2659
vn 0.9361 -0.2933 -0.1939
vn 0.9336 -0.3018 -0.1933
vn 0.9377 -0.2879 -0.1942
vn 0.9068 -0.3015 -0.2945
vn 0.9113 -0.1641 -0.3775
vn 0.8911 -0.2638 -0.3691
vn 0.8940 -0.2258 -0.3869
vn 0.8892 -0.2193 -0.4015
vn 0.8863 -0.2822 -0.3671
vn 0.9021 -0.3015 -0.3088
vn 0.9290 -0.1176 -0.3510
vn 0.9341 -0.1175 -0.3370
vn 0.9401 -0.2797 -0.1947
vn 0.9381 -0.2865 -0.1943
vn 0.8919 -0.3015 -0.3370
vn 0.8992 -0.1950 -0.3917
vn 0.9282 -0.1241 -0.3507
vn 0.9422 -0.1330 -0.3074
vn 0.9377 -0.1330 -0.3210
vn 0.9479 -0.1278 -0.2916
vn 0.9635 -0.1019 -0.2473
vn 0.9649 -0.1239 -0.2316
vn 0.9583 -0.1698 -0.2300
vn 0.9482 -0.2216 -0.2276
vn 0.9356 -0.2866 -0.2063
vn 0.9480 -0.2505 -0.1963
vn 0.9124 -0.1570 -0.3779
vn 0.9143 -0.1433 -0.3787
vn 0.8983 -0.2333 -0.3721
vn 0.8910 -0.2106 -0.4023
vn 0.8926 -0.2018 -0.4030
vn 0.9272 -0.3014 -0.2226
vn 0.9102 -0.1715 -0.3771
vn 0.8809 -0.3015 -0.3648
vn 0.9337 -0.3014 -0.1933
vn 0.9113 -0.1639 -0.3775
vn 0.8878 -0.2258 -0.4009
vn 0.8851 -0.2865 -0.3666
vn 0.9020 -0.3015 -0.3088
vn 0.8969 -0.3015 -0.3235
vn 0.9290 -0.1175 -0.3510
usemtl None
s 1
f 6//1 7//2 116//3
f 1//4 8//5 2//6
f 154//7 14//8 15//9
f 4//10 15//9 16//11
f 4//10 17//12 5//13
f 6//1 17//12 18//14
f 6//1 19//15 7//2
f 7//2 20//16 8//5
f 9//17 20//16 21//18
f 9//17 22//19 10//20
f 11//21 22//19 23//22
f 11//21 24//23 12//24
f 13//25 24//23 25//26
f 14//8 164//27 93//28
f 15//9 150//29 149//29
f 16//11 26//30 27//31
f 16//11 28//32 17//12
f 18//14 28//32 29//33
f 18//14 30//34 19//15
f 19//15 31//35 20//16
f 21//18 31//35 32//36
f 21//18 33//37 22//19
f 23//22 33//37 34//38
f 23//22 35//39 24//23
f 25//26 35//39 36//40
f 32//36 46//41 33//37
f 34//38 46//41 47//42
f 34//38 48//43 35//39
f 36//40 48//43 49//44
f 152//45 151//46 39//47
f 27//31 39//47 40//48
f 27//31 41//49 28//32
f 29//33 41//49 42//50
f 29//33 43//51 30//34
f 30//34 44//52 31//35
f 32//36 44//52 45//53
f 76//54 50//55 37//56
f 37//56 51//57 38//58
f 39//47 51//57 52//59
f 40//48 52//59 53//60
f 40//48 54//61 41//49
f 42//50 54//61 55//62
f 42//50 56//63 43//51
f 43//51 57//64 44//52
f 45//53 57//64 58//65
f 45//53 59//66 46//41
f 47//42 59//66 60//67
f 47//42 61//68 48//43
f 49//44 61//68 62//69
f 130//70 108//71 63//72
f 63//72 75//73 174//74
f 51//57 155//75 103//76
f 134//77 133//78 71//79
f 71//79 176//80 175//81
f 54//61 157//82 156//82
f 55//62 110//83 135//84
f 56//63 78//85 178//86
f 158//87 94//88 64//89
f 58//65 65//90 59//66
f 60//67 65//90 66//91
f 60//67 67//92 61//68
f 127//93 95//94 61//68
f 166//95 165//96 106//97
f 64//89 94//88 109//98
f 64//89 109//98 162//99
f 65//90 144//100 143//101
f 66//91 111//102 125//103
f 3//104 4//10 115//105
f 68//106 9//17 10//20
f 1//4 2//6 120//107
f 122//108 89//109 62//69
f 124//110 37//56 38//58
f 126//111 37//56 104//112
f 129//113 11//21 12//24
f 137//114 91//115 3//104
f 88//116 5//13 6//1
f 138//117 2//6 8//5
f 141//118 139//118 1//4
f 96//119 83//120 13//25
f 102//121 62//69 89//109
f 85//122 145//123 86//124
f 100//125 49//44 102//121
f 106//97 75//73 63//72
f 159//126 4//10 5//13
f 87//127 10//20 11//21
f 73//128 107//129 2//6
f 113//130 12//24 13//25
f 25//26 36//40 168//131
f 169//132 80//133 14//8
f 67//92 69//134 172//135
f 173//136 13//25 25//26
f 7//2 1//4 116//3
f 1//4 105//137 118//3
f 118//3 117//3 1//4
f 117//3 116//3 1//4
f 88//116 6//1 116//3
f 1//4 7//2 8//5
f 15//9 3//104 154//7
f 3//104 91//115 154//7
f 154//7 72//138 14//8
f 4//10 3//104 15//9
f 4//10 16//11 17//12
f 6//1 5//13 17//12
f 6//1 18//14 19//15
f 7//2 19//15 20//16
f 9//17 8//5 20//16
f 9//17 21//18 22//19
f 11//21 10//20 22//19
f 11//21 23//22 24//23
f 13//25 12//24 24//23
f 14//8 80//133 164//27
f 15//9 14//8 150//29
f 14//8 93//28 150//29
f 92//139 26//30 147//140
f 26//30 15//9 149//29
f 147//140 26//30 149//29
f 149//29 148//140 147//140
f 16//11 15//9 26//30
f 16//11 27//31 28//32
f 18//14 17//12 28//32
f 18//14 29//33 30//34
f 19//15 30//34 31//35
f 21//18 20//16 31//35
f 21//18 32//36 33//37
f 23//22 22//19 33//37
f 23//22 34//38 35//39
f 25//26 24//23 35//39
f 32//36 45//53 46//41
f 34//38 33//37 46//41
f 34//38 47//42 48//43
f 36//40 35//39 48//43
f 26//30 92//139 153//45
f 39//47 26//30 153//45
f 74//141 38//58 151//46
f 38//58 39//47 151//46
f 39//47 153//45 152//45
f 27//31 26//30 39//47
f 27//31 40//48 41//49
f 29//33 28//32 41//49
f 29//33 42//50 43//51
f 30//34 43//51 44//52
f 32//36 31//35 44//52
f 76//54 112//142 50//55
f 37//56 50//55 51//57
f 39//47 38//58 51//57
f 40//48 39//47 52//59
f 40//48 53//60 54//61
f 42//50 41//49 54//61
f 42//50 55//62 56//63
f 43//51 56//63 57//64
f 45//53 44//52 57//64
f 45//53 58//65 59//66
f 47//42 46//41 59//66
f 47//42 60//67 61//68
f 49//44 48//43 61//68
f 63//72 50//55 131//70
f 50//55 112//142 132//70
f 131//70 50//55 132//70
f 131//70 130//70 63//72
f 81//143 51//57 174//74
f 51//57 50//55 174//74
f 50//55 63//72 174//74
f 103//76 52//59 51//57
f 51//57 81//143 155//75
f 71//79 53//60 134//77
f 53//60 52//59 134//77
f 52//59 103//76 134//77
f 90//144 54//61 175//81
f 54//61 53//60 175//81
f 53//60 71//79 175//81
f 110//83 55//62 156//82
f 55//62 54//61 156//82
f 54//61 90//144 157//82
f 78//85 56//63 135//84
f 56//63 55//62 135//84
f 99//145 57//64 177//86
f 57//64 56//63 178//86
f 177//86 57//64 178//86
f 64//89 58//65 158//87
f 58//65 57//64 99//145
f 158//87 58//65 99//145
f 58//65 64//89 65//90
f 60//67 59//66 65//90
f 60//67 66//91 67//92
f 95//94 62//69 61//68
f 61//68 67//92 127//93
f 67//92 82//146 128//93
f 67//92 128//93 127//93
f 106//97 63//72 166//95
f 63//72 108//71 166//95
f 77//147 65//90 162//99
f 65//90 64//89 162//99
f 111//102 66//91 143//101
f 66//91 65//90 143//101
f 65//90 77//147 144//100
f 69//134 67//92 125//103
f 67//92 66//91 125//103
f 4//10 101//148 115//105
f 115//105 114//105 3//104
f 114//105 79//149 3//104
f 68//106 97//150 9//17
f 2//6 107//129 121//107
f 121//107 120//107 2//6
f 120//107 119//151 1//4
f 119//151 84//152 1//4
f 62//69 95//94 122//108
f 95//94 123//153 122//108
f 38//58 74//141 124//110
f 124//110 104//112 37//56
f 126//111 76//54 37//56
f 12//24 113//130 129//113
f 129//113 87//127 11//21
f 3//104 79//149 137//114
f 137//114 136//114 91//115
f 88//116 70//154 5//13
f 9//17 97//150 138//117
f 138//117 73//128 2//6
f 8//5 9//17 138//117
f 1//4 84//152 141//118
f 141//118 140//118 139//118
f 139//118 105//137 1//4
f 96//119 142//155 83//120
f 102//121 49//44 62//69
f 85//122 146//156 145//123
f 100//125 36//40 49//44
f 5//13 70//154 160//157
f 159//126 101//148 4//10
f 5//13 160//157 159//126
f 87//127 68//106 10//20
f 73//128 161//158 107//129
f 13//25 83//120 163//159
f 163//159 113//130 13//25
f 36//40 100//125 168//131
f 168//131 167//160 25//26
f 167//160 98//161 25//26
f 14//8 72//138 169//132
f 72//138 171//162 170//162
f 169//132 72//138 170//162
f 85//122 86//124 172//135
f 86//124 82//146 67//92
f 172//135 86//124 67//92
f 25//26 98//161 173//136
f 173//136 96//119 13//25
o 1_Angola_sphere.001
v 4.864542 -0.392298 -1.087349
v 4.860564 -0.439345 -1.086459
v 4.867720 -0.470544 -1.038574
v 4.860440 -0.470544 -1.073725
v 4.864845 -0.387916 -1.087416
v 4.862742 -0.392298 -1.094847
v 4.866141 -0.392298 -1.079628
v 4.872665 -0.439021 -1.028161
v 4.868727 -0.401504 -1.063208
v 4.861365 -0.457342 -1.074899
v 4.854446 -0.416699 -1.120345
v 4.860285 -0.435005 -1.089231
v 4.861898 -0.504356 -1.049608
v 4.858334 -0.495208 -1.071442
v 4.864490 -0.386900 -1.089205
vn 0.9729 -0.0784 -0.2175
vn 0.9723 -0.0706 -0.2226
vn 0.9758 -0.0837 -0.2021
vn 0.9756 -0.0863 -0.2020
vn 0.9750 -0.0924 -0.2019
vn 0.9687 -0.0863 -0.2326
vn 0.9690 -0.0826 -0.2326
vn 0.9741 -0.1018 -0.2017
vn 0.9749 -0.0937 -0.2019
vn 0.9699 -0.0707 -0.2329
vn 0.9744 -0.0863 -0.2076
usemtl None
s 1
f 179//163 183//164 185//165
f 186//166 181//167 188//166
f 190//168 184//169 179//163
f 181//167 192//170 182//171
f 193//172 179//163 184//169
f 181//167 182//171 188//166
f 188//166 180//173 186//166
f 180//173 179//163 185//165
f 187//166 180//173 185//165
f 187//166 186//166 180//173
f 179//163 180//173 190//168
f 190//168 189//168 184//169
f 181//167 191//170 192//170
f 193//172 183//164 179//163
