# Blender v2.81 (sub 16) OBJ File: ''
# www.blender.org
mtllib Austria.mtl
o 0_Austria_sphere.001
v 3.175272 3.750555 -0.922496
v 3.231451 3.698155 -0.938818
v 3.202682 3.750555 -0.822303
v 3.259346 3.698155 -0.836852
v 3.315207 3.644842 -0.851194
v 3.340308 3.644842 -0.746641
v 3.162630 3.750555 -0.963590
v 3.165591 3.759303 -0.919683
v 3.228841 3.698155 -0.947303
v 3.287726 3.644842 -0.951648
v 3.361610 3.644842 -0.643779
v 3.358728 3.644842 -0.657695
v 3.343284 3.644842 -0.732275
v 3.283733 3.647828 -0.954007
v 3.216346 3.750555 -0.765389
v 3.204918 3.750555 -0.812986
v 3.285680 3.696586 -0.734431
v 3.278378 3.698155 -0.757577
v 3.344727 3.640523 -0.747629
v 3.336349 3.624020 -0.856623
v 3.289495 3.698155 -0.707643
v 3.314624 3.689532 -0.632293
v 3.361469 3.645448 -0.641228
v 3.360045 3.650237 -0.619255
v 3.363656 3.651759 -0.588990
v 3.356726 3.662599 -0.560501
v 3.339725 3.677078 -0.566820
v 3.328904 3.687592 -0.562674
v 3.322399 3.690828 -0.579589
v 3.334722 3.674432 -0.612135
v 3.316584 3.690122 -0.617347
v 3.158600 3.761047 -0.935571
v 3.218593 3.698812 -0.978119
v 3.228310 3.698822 -0.946497
v 3.162807 3.750146 -0.964566
v 3.172027 3.742787 -0.962536
v 3.191898 3.722587 -0.974631
v 3.238355 3.685925 -0.961365
v 3.283566 3.647947 -0.954109
v 3.296955 3.637744 -0.946112
v 3.312449 3.636085 -0.896061
v 3.334162 3.622540 -0.870496
v 3.196006 3.766188 -0.772942
v 3.242928 3.732338 -0.741776
v 3.230110 3.739653 -0.760187
v 3.206382 3.747896 -0.819601
v 3.285519 3.696470 -0.735636
v 3.294124 3.684250 -0.756420
v 3.282297 3.694255 -0.759322
v 3.341516 3.627126 -0.821155
v 3.326149 3.663353 -0.716275
v 3.348964 3.653068 -0.660967
v 3.309333 3.687470 -0.668839
v 3.345159 3.642752 -0.734020
v 3.362249 3.641786 -0.656494
v 3.172028 3.771222 -0.844103
v 3.162000 3.775458 -0.862261
v 3.169478 3.758128 -0.910604
vn 0.6418 0.7476 -0.1705
vn 0.6351 0.7501 -0.1845
vn 0.6322 0.7552 -0.1729
vn 0.6519 0.7396 -0.1674
vn 0.6463 0.7396 -0.1877
vn 0.6488 0.7448 -0.1557
vn 0.6488 0.7448 -0.1558
vn 0.6601 0.7343 -0.1585
vn 0.6626 0.7343 -0.1473
vn 0.6681 0.7289 -0.1493
vn 0.6647 0.7343 -0.1376
vn 0.6687 0.7343 -0.1167
vn 0.6664 0.7343 -0.1294
vn 0.6265 0.7552 -0.1927
vn 0.6357 0.7467 -0.1956
vn 0.6377 0.7448 -0.1962
vn 0.6488 0.7343 -0.1996
vn 0.6452 0.7377 -0.1985
vn 0.6658 0.7235 -0.1821
vn 0.6580 0.7311 -0.1800
vn 0.6631 0.7289 -0.1702
vn 0.6467 0.7468 -0.1552
vn 0.6373 0.7552 -0.1530
vn 0.6448 0.7485 -0.1548
vn 0.6712 0.7235 -0.1611
vn 0.6660 0.7330 -0.1380
vn 0.6759 0.7235 -0.1400
vn 0.6689 0.7303 -0.1385
vn 0.6760 0.7234 -0.1400
vn 0.6290 0.7553 -0.1839
vn 0.6540 0.7400 -0.1570
vn 0.6601 0.7342 -0.1585
vn 0.6603 0.7341 -0.1584
vn 0.6669 0.7343 -0.1267
vn 0.6687 0.7342 -0.1167
vn 0.6377 0.7448 -0.1964
vn 0.6536 0.7341 -0.1838
vn 0.6494 0.7335 -0.2007
vn 0.6683 0.7235 -0.1726
vn 0.6732 0.7236 -0.1522
usemtl None
s 1
f 3//1 1//2 58//3
f 1//2 4//4 2//5
f 4//4 46//6 45//7
f 48//8 17//9 6//10
f 53//11 52//11 51//11
f 24//12 23//13 30//12
f 32//14 1//2 7//15
f 36//16 7//15 1//2
f 38//17 9//18 2//5
f 41//19 10//20 5//21
f 16//22 43//23 15//24
f 50//25 5//21 6//10
f 11//26 55//27 12//28
f 54//29 6//10 13//28
f 4//4 10//20 2//5
f 1//2 8//30 58//3
f 58//3 57//3 56//3
f 56//3 3//1 58//3
f 1//2 3//1 4//4
f 4//4 3//1 46//6
f 46//6 16//22 45//7
f 16//22 15//24 45//7
f 45//7 44//7 18//31
f 18//31 4//4 45//7
f 6//10 5//21 48//8
f 5//21 4//4 48//8
f 4//4 18//31 49//32
f 48//8 47//33 17//9
f 4//4 49//32 48//8
f 13//28 6//10 51//11
f 6//10 17//9 51//11
f 17//9 21//11 51//11
f 21//11 53//11 51//11
f 53//11 22//34 52//11
f 22//34 23//13 52//11
f 23//13 11//26 52//11
f 11//26 12//28 52//11
f 23//13 22//34 30//12
f 22//34 31//35 30//12
f 30//12 29//12 27//12
f 29//12 28//12 27//12
f 26//35 25//12 27//12
f 25//12 24//12 30//12
f 27//12 25//12 30//12
f 32//14 8//30 1//2
f 2//5 9//18 34//16
f 34//16 33//16 37//16
f 36//16 35//36 7//15
f 34//16 37//16 1//2
f 37//16 36//16 1//2
f 1//2 2//5 34//16
f 2//5 14//37 39//38
f 39//38 38//17 2//5
f 5//21 20//39 42//19
f 41//19 40//19 10//20
f 5//21 42//19 41//19
f 6//10 19//40 50//25
f 50//25 20//39 5//21
f 54//29 19//40 6//10
f 5//21 10//20 4//4
f 10//20 14//37 2//5
