# Blender v2.81 (sub 16) OBJ File: ''
# www.blender.org
mtllib Bangladesh.mtl
o 0_Bangladesh_sphere.001
v 0.000000 2.128895 -4.524136
v 0.000000 2.057570 -4.557017
v 0.000000 1.985738 -4.588774
v 0.000000 1.913415 -4.619399
v -0.143136 2.057570 -4.554740
v -0.145095 1.913415 -4.617093
v 0.109239 1.985738 -4.587058
v -0.145371 1.891712 -4.625878
v 0.084831 1.913415 -4.618066
v 0.000000 1.870273 -4.636873
v -0.203158 1.913415 -4.614355
v -0.101438 1.985738 -4.587168
v 0.142690 2.088636 -4.540454
v 0.142965 2.069614 -4.549219
v -0.045374 1.913415 -4.618678
v -0.129544 1.913415 -4.617340
v -0.165206 1.840621 -4.645654
v -0.215752 1.840621 -4.643270
v 0.126738 2.199694 -4.488147
v 0.063103 2.199694 -4.489147
v 0.000000 2.133510 -4.521920
v -0.159626 2.057570 -4.553963
v -0.142164 2.124721 -4.523801
v 0.089229 2.128895 -4.522734
v -0.191894 1.767372 -4.672769
v -0.193081 1.767372 -4.672713
v 0.115692 2.057570 -4.555200
v -0.143341 2.042864 -4.561241
v -0.145126 1.985738 -4.586445
v -0.177882 1.985738 -4.584900
v -0.031433 2.128895 -4.523637
v -0.144187 1.981852 -4.588136
v 0.012342 1.876083 -4.634326
v 0.024137 1.861308 -4.640124
v 0.047037 1.870056 -4.636222
v 0.078297 1.877282 -4.632804
v 0.090347 1.943708 -4.605152
v -0.068901 2.123365 -4.525590
v -0.116927 2.039294 -4.563240
v -0.092738 1.993828 -4.583729
v -0.114013 1.934562 -4.608633
v -0.039895 1.937762 -4.608455
v -0.137072 1.952379 -4.600725
v -0.047353 1.904562 -4.622231
v -0.022108 1.859624 -4.640834
v -0.187911 2.111036 -4.527959
v -0.152490 2.043991 -4.560311
v -0.149479 2.003623 -4.578323
v -0.171532 2.003770 -4.577218
v -0.164168 1.848724 -4.642417
v -0.148244 1.887757 -4.627346
v -0.216108 1.876102 -4.628870
v -0.215523 1.817944 -4.652065
v -0.186985 1.830305 -4.648623
v -0.169432 1.807318 -4.658355
v -0.193329 1.764804 -4.673650
v 0.112269 2.226623 -4.474919
v 0.084339 2.131770 -4.521430
v 0.140669 2.173592 -4.500463
v 0.050581 2.192784 -4.492662
v 0.013145 2.189045 -4.495046
v 0.006260 2.134356 -4.521416
v 0.134079 2.102404 -4.534243
v 0.117534 2.004072 -4.578822
v 0.103449 2.052137 -4.557794
v 0.152086 2.073514 -4.546989
vn 0.0141 0.4353 -0.9002
vn 0.0141 0.4379 -0.8989
vn 0.0142 0.4328 -0.9014
vn 0.0188 0.4186 -0.9080
vn 0.0245 0.4186 -0.9078
vn 0.0143 0.4165 -0.9090
vn 0.0143 0.4043 -0.9145
vn 0.0144 0.3989 -0.9169
vn -0.0000 0.3971 -0.9178
vn 0.0145 0.3899 -0.9207
vn -0.0144 0.4193 -0.9077
vn -0.0001 0.4257 -0.9048
vn -0.0001 0.4115 -0.9114
vn -0.0146 0.3898 -0.9207
vn -0.0146 0.3898 -0.9208
vn -0.0146 0.3935 -0.9192
vn 0.0146 0.3753 -0.9268
vn 0.0145 0.3753 -0.9268
vn -0.0001 0.3826 -0.9239
vn 0.0013 0.4328 -0.9015
vn -0.0287 0.4115 -0.9109
vn -0.0145 0.4044 -0.9145
vn -0.0147 0.3753 -0.9268
vn -0.0147 0.3817 -0.9242
vn -0.0146 0.3853 -0.9227
vn -0.0382 0.3753 -0.9261
vn -0.0291 0.3826 -0.9235
vn -0.0429 0.4136 -0.9094
vn -0.0271 0.4186 -0.9077
vn -0.0431 0.4044 -0.9135
vn -0.0432 0.3960 -0.9172
vn -0.0432 0.3957 -0.9173
vn -0.0275 0.4044 -0.9141
vn -0.0413 0.3898 -0.9199
vn -0.0436 0.3753 -0.9258
vn -0.0439 0.3609 -0.9316
vn -0.0438 0.3682 -0.9287
vn -0.0438 0.3686 -0.9286
vn -0.0434 0.3556 -0.9336
vn -0.0435 0.3459 -0.9372
vn -0.0435 0.3530 -0.9346
vn 0.0140 0.4469 -0.8944
vn 0.0427 0.4186 -0.9071
vn 0.0142 0.4212 -0.9068
vn 0.0141 0.4328 -0.9014
vn 0.0142 0.4328 -0.9013
vn 0.0143 0.4186 -0.9080
vn 0.0145 0.3834 -0.9234
vn -0.0144 0.4186 -0.9080
vn -0.0145 0.3898 -0.9208
vn -0.0045 0.3754 -0.9268
vn -0.0145 0.4043 -0.9145
vn -0.0428 0.4186 -0.9072
vn -0.0435 0.3812 -0.9235
usemtl None
s 1
f 20//1 19//2 58//3
f 13//4 14//5 27//6
f 65//7 64//7 7//8
f 3//9 7//8 37//10
f 31//11 1//12 2//13
f 42//14 41//15 12//16
f 35//17 33//18 4//19
f 31//11 21//20 1//12
f 5//21 2//13 39//22
f 44//23 15//24 4//19
f 16//25 8//26 6//27
f 22//28 23//29 5//21
f 49//30 29//31 30//32
f 47//30 5//21 28//33
f 30//32 32//34 6//27
f 51//35 50//35 52//35
f 54//36 18//37 17//38
f 25//39 56//40 26//41
f 20//1 57//42 19//2
f 13//4 66//43 14//5
f 24//44 1//12 58//3
f 1//12 21//20 62//3
f 62//3 61//3 60//45
f 1//12 62//3 58//3
f 19//2 59//46 58//3
f 62//3 60//45 58//3
f 60//45 20//1 58//3
f 27//6 2//13 24//44
f 2//13 1//12 24//44
f 24//44 63//47 27//6
f 63//47 13//4 27//6
f 7//8 3//9 65//7
f 3//9 2//13 65//7
f 2//13 27//6 65//7
f 9//48 4//19 37//10
f 4//19 3//9 37//10
f 2//13 5//21 38//49
f 5//21 23//29 38//49
f 38//49 31//11 2//13
f 16//25 6//27 43//50
f 6//27 32//34 43//50
f 43//50 12//16 41//15
f 12//16 3//9 42//14
f 41//15 16//25 43//50
f 3//9 4//19 42//14
f 4//19 15//24 42//14
f 4//19 9//48 35//17
f 9//48 36//17 35//17
f 35//17 34//18 33//18
f 33//18 10//51 4//19
f 3//9 12//16 40//52
f 39//22 28//33 5//21
f 3//9 40//52 2//13
f 40//52 39//22 2//13
f 4//19 10//51 44//23
f 10//51 45//23 44//23
f 22//28 46//53 23//29
f 49//30 48//30 29//31
f 47//30 22//28 5//21
f 6//27 11//54 30//32
f 30//32 29//31 32//34
f 17//38 18//37 50//35
f 18//37 52//35 50//35
f 52//35 11//54 51//35
f 11//54 6//27 51//35
f 6//27 8//26 51//35
f 25//39 26//41 55//36
f 26//41 54//36 55//36
f 54//36 53//36 18//37
f 17//38 55//36 54//36
