# Blender v2.81 (sub 16) OBJ File: ''
# www.blender.org
mtllib Benin.mtl
o 0_Benin_sphere.001
v 4.901741 0.936904 -0.308386
v 4.909009 0.936904 -0.154266
v 4.923114 0.859643 -0.154710
v 4.936000 0.782170 -0.155114
v 4.947675 0.704504 -0.155482
v 4.958124 0.626664 -0.155810
v 4.936187 0.782170 -0.143218
v 4.931650 0.782170 -0.247370
v 4.943850 0.704504 -0.236600
v 4.947886 0.704504 -0.142021
v 4.886983 1.011257 -0.307457
v 4.888757 1.002320 -0.307569
v 4.894010 0.975853 -0.307899
v 4.910285 0.936904 -0.073019
v 4.909062 0.896743 -0.308847
v 4.915375 0.862112 -0.309244
v 4.967093 0.550850 -0.156092
v 4.954351 0.626664 -0.235824
v 4.915917 0.859643 -0.307332
v 4.958360 0.626664 -0.140774
v 4.923721 0.859643 -0.116051
v 4.895141 1.006670 -0.153830
v 4.967315 0.548669 -0.156880
v 4.963702 0.548669 -0.233498
v 4.900581 0.936904 -0.323119
v 4.892975 1.013934 -0.169094
v 4.886619 1.013934 -0.303883
v 4.906881 0.953701 -0.077026
v 4.904490 0.963402 -0.106444
v 4.896773 1.000842 -0.123702
v 4.919786 0.883208 -0.092541
v 4.915572 0.908539 -0.066243
v 4.934347 0.793211 -0.143383
v 4.931674 0.810916 -0.125946
v 4.924699 0.853157 -0.122501
v 4.962148 0.594737 -0.140240
v 4.887874 1.034366 -0.183881
v 4.881156 1.059321 -0.212276
v 4.879669 1.059537 -0.242814
v 4.894156 1.008869 -0.165426
v 4.892884 0.982091 -0.305453
v 4.923893 0.820334 -0.277048
v 4.929532 0.793917 -0.250785
v 4.938657 0.739514 -0.234961
v 4.946486 0.684565 -0.237520
v 4.968490 0.534946 -0.161801
v 4.964084 0.544988 -0.233384
v 4.887052 1.010530 -0.308424
v 4.901441 0.931269 -0.325314
v 4.912564 0.873634 -0.318153
vn 0.9797 0.1950 -0.0462
vn 0.9818 0.1874 -0.0308
vn 0.9807 0.1950 -0.0154
vn 0.9824 0.1862 -0.0154
vn 0.9836 0.1796 -0.0154
vn 0.9843 0.1757 -0.0154
vn 0.9863 0.1641 -0.0155
vn 0.9846 0.1719 -0.0309
vn 0.9895 0.1409 -0.0311
vn 0.9876 0.1563 -0.0155
vn 0.9899 0.1408 -0.0155
vn 0.9916 0.1253 -0.0311
vn 0.9920 0.1252 -0.0156
vn 0.9929 0.1175 -0.0156
vn 0.9765 0.2105 -0.0461
vn 0.9765 0.2104 -0.0461
vn 0.9765 0.2105 -0.0460
vn 0.9823 0.1797 -0.0527
vn 0.9872 0.1564 -0.0310
vn 0.9853 0.1641 -0.0464
vn 0.9878 0.1487 -0.0466
vn 0.9900 0.1331 -0.0467
vn 0.9921 0.1175 -0.0434
vn 0.9928 0.1097 -0.0468
vn 0.9937 0.1018 -0.0468
vn 0.9927 0.1113 -0.0468
vn 0.9796 0.1856 -0.0771
vn 0.9795 0.1950 -0.0497
vn 0.9803 0.1874 -0.0617
vn 0.9796 0.1950 -0.0474
vn 0.9778 0.1951 -0.0768
vn 0.9792 0.1950 -0.0551
vn 0.9823 0.1797 -0.0529
vn 0.9807 0.1797 -0.0771
vn 0.9807 0.1797 -0.0772
vn 0.9790 0.1982 -0.0462
vn 0.9802 0.1950 -0.0327
vn 0.9788 0.1997 -0.0461
vn 0.9834 0.1751 -0.0464
vn 0.9864 0.1578 -0.0465
vn 0.9890 0.1407 -0.0466
vn 0.9910 0.1255 -0.0467
vn 0.9937 0.1015 -0.0469
usemtl None
s 1
f 40//1 2//2 41//1
f 2//2 29//3 14//4
f 31//5 21//6 2//2
f 34//7 33//7 3//8
f 5//9 7//10 10//11
f 6//12 10//11 20//13
f 36//14 6//12 20//13
f 39//15 38//16 37//17
f 15//18 2//2 3//8
f 3//8 4//19 43//20
f 44//21 4//19 5//9
f 45//22 5//9 6//12
f 17//23 24//24 6//12
f 46//25 24//24 23//26
f 25//27 13//28 1//29
f 12//30 48//31 11//32
f 16//33 50//34 15//18
f 49//35 1//29 15//18
f 2//2 1//29 41//1
f 1//29 13//28 41//1
f 41//1 12//30 27//36
f 12//30 11//32 27//36
f 40//1 22//37 2//2
f 27//36 26//38 41//1
f 26//38 40//1 41//1
f 2//2 22//37 30//3
f 29//3 28//3 14//4
f 2//2 30//3 29//3
f 21//6 3//8 2//2
f 2//2 14//4 31//5
f 14//4 32//5 31//5
f 7//10 4//19 33//7
f 4//19 3//8 33//7
f 3//8 21//6 35//7
f 35//7 34//7 3//8
f 5//9 4//19 7//10
f 6//12 5//9 10//11
f 36//14 17//23 6//12
f 26//38 27//36 37//17
f 27//36 39//15 37//17
f 3//8 19//39 15//18
f 19//39 16//33 15//18
f 15//18 1//29 2//2
f 4//19 8//40 43//20
f 43//20 42//20 3//8
f 42//20 19//39 3//8
f 5//9 9//41 44//21
f 44//21 8//40 4//19
f 6//12 18//42 45//22
f 45//22 9//41 5//9
f 23//26 24//24 17//23
f 24//24 18//42 6//12
f 46//25 47//43 24//24
f 49//35 25//27 1//29
