# Blender v2.81 (sub 16) OBJ File: ''
# www.blender.org
mtllib Bolivia.mtl
o 0_Bolivia_sphere.001
v 2.548001 -1.545088 4.015015
v 2.432682 -1.470205 4.113449
v 2.420629 -1.545088 4.093068
v 2.407976 -1.619590 4.071672
v 2.342208 -1.167230 4.260468
v 2.333085 -1.243452 4.243874
v 2.323388 -1.319368 4.226235
v 2.313119 -1.394959 4.207556
v 2.302275 -1.470205 4.187831
v 2.290869 -1.545088 4.167082
v 2.278893 -1.619590 4.145299
v 2.207227 -1.167230 4.331936
v 2.198631 -1.243452 4.315063
v 2.189492 -1.319368 4.297129
v 2.179815 -1.394959 4.278136
v 2.169596 -1.470205 4.258081
v 2.158847 -1.545088 4.236984
v 2.147562 -1.619590 4.214835
v 2.135749 -1.693693 4.191650
v 2.123410 -1.767377 4.167431
v 2.110542 -1.840626 4.142179
v 2.077619 -1.090719 4.415172
v 2.070069 -1.167230 4.399129
v 2.062006 -1.243452 4.381995
v 2.053436 -1.319368 4.363782
v 2.044360 -1.394959 4.344495
v 2.034776 -1.470205 4.324128
v 2.024695 -1.545088 4.302704
v 2.014111 -1.619590 4.280212
v 2.003032 -1.693693 4.256667
v 1.991460 -1.767377 4.232073
v 1.979391 -1.840626 4.206429
v 1.950560 -0.936910 4.507489
v 1.944476 -1.013939 4.493429
v 1.937910 -1.090719 4.478253
v 1.930868 -1.167230 4.461981
v 1.923347 -1.243452 4.444602
v 1.915353 -1.319368 4.426129
v 1.906888 -1.394959 4.406566
v 1.897948 -1.470205 4.385908
v 1.888545 -1.545088 4.364178
v 1.878673 -1.619590 4.341365
v 1.868339 -1.693693 4.317483
v 1.857544 -1.767377 4.292538
v 1.846287 -1.840626 4.266527
v 1.802375 -1.013939 4.552289
v 1.796288 -1.090719 4.536914
v 1.789761 -1.167230 4.520429
v 1.782790 -1.243452 4.502822
v 1.775380 -1.319368 4.484107
v 1.767533 -1.394959 4.464288
v 1.759247 -1.470205 4.443360
v 1.750531 -1.545088 4.421345
v 1.741380 -1.619590 4.398233
v 1.731802 -1.693693 4.374038
v 1.721796 -1.767377 4.348766
v 2.389859 -1.243452 4.211491
v 2.186782 -1.090719 4.361694
v 2.401307 -1.656899 4.060395
v 2.217207 -1.693693 4.148520
v 2.270011 -1.672100 4.129141
v 1.716931 -1.801527 4.336481
v 1.956009 -0.861822 4.520075
v 1.688227 -1.470205 4.470196
v 2.538733 -1.596927 4.000412
v 1.773121 -1.090719 4.545669
v 2.175735 -1.767377 4.139727
v 1.979868 -1.913420 4.173369
v 2.007887 -1.913420 4.159643
v 1.718727 -1.693693 4.378979
v 2.550461 -1.545088 4.013399
v 1.971342 -0.859648 4.513588
v 2.053447 -0.859648 4.476516
v 2.376431 -1.319368 4.195980
v 1.714633 -1.319368 4.507062
v 2.530331 -1.619590 3.996693
v 2.104148 -1.875402 4.129630
v 2.050430 -1.013939 4.445590
v 2.148453 -1.840626 4.122106
v 2.081809 -1.045026 4.424077
v 1.727099 -1.840626 4.315897
v 1.681645 -1.545088 4.447374
v 2.353829 -1.167230 4.253839
v 1.748279 -1.167230 4.536103
v 1.969915 -1.895582 4.186289
v 2.509038 -1.470205 4.066658
v 1.838634 -1.888209 4.248841
v 2.342385 -1.165644 4.260790
v 1.706472 -1.767377 4.354557
v 2.387589 -1.394959 4.165079
v 1.711622 -1.394959 4.485415
v 2.443165 -1.401363 4.131174
v 2.213364 -1.108903 4.343979
v 1.744159 -1.013939 4.574287
v 2.471422 -1.693693 4.002277
v 2.501012 -1.693693 3.984144
v 1.830660 -0.936910 4.557153
v 2.048035 -0.936910 4.463477
v 1.735196 -1.913420 4.280635
v 1.813049 -1.913420 4.248387
v 1.696425 -1.619590 4.415220
v 2.549313 -1.537347 4.017081
v 1.806635 -0.955739 4.563051
v 1.739458 -1.243452 4.519196
v 1.716505 -0.949734 4.598385
v 1.775550 -0.957016 4.574526
v 1.746947 -1.175777 4.534337
v 1.720940 -1.419969 4.473897
v 1.732734 -1.661163 4.385896
v 1.696722 -1.626168 4.412639
v 2.509985 -1.484320 4.060843
v 2.544803 -1.507809 4.030797
v 2.200013 -1.092924 4.354643
v 2.500299 -1.707539 3.978592
v 2.475152 -1.724402 3.986707
v 2.478874 -1.699142 3.995353
v 1.793703 -1.932269 4.247764
v 1.738300 -1.943277 4.265667
v 2.169428 -1.795863 4.130596
v 2.399114 -1.264023 4.199934
v 2.395295 -1.300408 4.191007
v 2.373742 -1.301821 4.202869
v 2.355488 -1.655918 4.086926
v 1.755870 -1.116040 4.545915
v 1.694405 -1.349448 4.505639
v 1.715286 -1.321210 4.506260
v 1.960591 -1.879074 4.197834
v 1.867388 -1.859344 4.248683
v 2.115736 -1.078803 4.399356
v 1.816837 -0.955196 4.558942
v 2.525702 -1.403123 4.079978
v 2.507673 -1.451391 4.074094
v 2.528410 -1.624641 3.995790
v 2.502441 -1.660666 3.996869
v 2.421302 -1.657127 4.048048
v 1.993083 -1.937263 4.155655
v 1.693574 -1.566473 4.435240
v 2.179017 -1.751970 4.144419
v 2.390767 -1.190430 4.226136
v 2.388008 -1.239388 4.213709
v 2.388248 -1.399655 4.163086
v 2.042682 -0.911971 4.470892
v 2.226501 -1.124700 4.332882
v 2.275495 -1.141423 4.302557
v 2.303860 -1.166179 4.281048
v 1.775421 -1.087334 4.545579
v 1.704099 -1.289921 4.519387
v 1.738927 -1.247830 4.518156
v 1.661917 -1.509987 4.466692
v 1.698091 -1.740478 4.368330
v 2.552508 -1.559482 4.006309
v 1.836362 -0.929249 4.556305
v 1.908104 -0.894407 4.533477
v 1.952252 -0.862321 4.521533
v 2.226134 -1.679874 4.149283
v 2.032994 -1.872329 4.165873
v 1.726106 -1.831969 4.319933
v 2.123401 -1.893039 4.111354
v 2.115060 -1.875757 4.123689
v 2.350966 -1.165437 4.255950
v 2.055837 -0.847609 4.477634
v 2.049737 -0.944974 4.460949
v 2.038683 -1.002340 4.453424
vn 0.4865 -0.2940 0.8227
vn 0.4841 -0.3090 0.8186
vn 0.4982 -0.3014 0.8130
vn 0.4747 -0.2865 0.8322
vn 0.4626 -0.2790 0.8415
vn 0.4604 -0.2940 0.8375
vn 0.4582 -0.3090 0.8334
vn 0.4558 -0.3239 0.8291
vn 0.4816 -0.3239 0.8143
vn 0.4360 -0.2790 0.8556
vn 0.4339 -0.2940 0.8516
vn 0.4318 -0.3090 0.8474
vn 0.4295 -0.3239 0.8430
vn 0.4415 -0.2334 0.8664
vn 0.4684 -0.2333 0.8521
vn 0.4558 -0.2258 0.8610
vn 0.4397 -0.2487 0.8630
vn 0.4666 -0.2487 0.8488
vn 0.4647 -0.2638 0.8452
vn 0.4379 -0.2638 0.8594
vn 0.4287 -0.2250 0.8750
vn 0.4155 -0.2181 0.8830
vn 0.4140 -0.2334 0.8798
vn 0.4124 -0.2487 0.8764
vn 0.4107 -0.2638 0.8727
vn 0.4089 -0.2790 0.8689
vn 0.4069 -0.2940 0.8648
vn 0.4049 -0.3090 0.8605
vn 0.4028 -0.3239 0.8560
vn 0.4006 -0.3387 0.8513
vn 0.4271 -0.3387 0.8383
vn 0.3983 -0.3534 0.8464
vn 0.4247 -0.3534 0.8335
vn 0.4221 -0.3681 0.8284
vn 0.3959 -0.3681 0.8413
vn 0.4026 -0.2070 0.8916
vn 0.3889 -0.2028 0.8987
vn 0.3876 -0.2181 0.8956
vn 0.3862 -0.2334 0.8924
vn 0.3847 -0.2487 0.8889
vn 0.3831 -0.2638 0.8852
vn 0.3814 -0.2790 0.8813
vn 0.3796 -0.2940 0.8772
vn 0.3777 -0.3090 0.8728
vn 0.3757 -0.3239 0.8683
vn 0.3737 -0.3387 0.8635
vn 0.3715 -0.3534 0.8585
vn 0.3692 -0.3681 0.8533
vn 0.3901 -0.1874 0.9015
vn 0.3765 -0.1796 0.9088
vn 0.3764 -0.1797 0.9088
vn 0.3753 -0.1950 0.9061
vn 0.3615 -0.1950 0.9117
vn 0.3605 -0.2028 0.9104
vn 0.3593 -0.2181 0.9074
vn 0.3580 -0.2334 0.9041
vn 0.3565 -0.2487 0.9005
vn 0.3551 -0.2638 0.8968
vn 0.3535 -0.2790 0.8928
vn 0.3518 -0.2940 0.8887
vn 0.3501 -0.3090 0.8843
vn 0.3483 -0.3239 0.8796
vn 0.3464 -0.3387 0.8748
vn 0.3443 -0.3534 0.8697
vn 0.3533 -0.3608 0.8631
vn 0.3569 -0.3608 0.8616
vn 0.3467 -0.1950 0.9174
vn 0.3467 -0.1950 0.9175
vn 0.3463 -0.2004 0.9164
vn 0.3456 -0.2105 0.9145
vn 0.3448 -0.2208 0.9123
vn 0.3443 -0.2257 0.9113
vn 0.3437 -0.2337 0.9095
vn 0.3430 -0.2411 0.9078
vn 0.3417 -0.2562 0.9042
vn 0.3411 -0.2617 0.9028
vn 0.3402 -0.2714 0.9003
vn 0.3396 -0.2767 0.8989
vn 0.3386 -0.2865 0.8962
vn 0.3376 -0.2964 0.8934
vn 0.3370 -0.3014 0.8919
vn 0.3365 -0.3061 0.8905
vn 0.3353 -0.3164 0.8874
vn 0.3335 -0.3312 0.8826
vn 0.3324 -0.3401 0.8797
vn 0.3316 -0.3460 0.8777
vn 0.5218 -0.3107 0.7945
vn 0.5010 -0.3014 0.8112
vn 0.5096 -0.3090 0.8030
vn 0.4902 -0.3460 0.8000
vn 0.4915 -0.3394 0.8020
vn 0.3537 -0.3814 0.8540
vn 0.3524 -0.3898 0.8508
vn 0.3541 -0.3793 0.8548
vn 0.4364 -0.3608 0.8242
vn 0.4789 -0.2562 0.8396
vn 0.4675 -0.3313 0.8196
vn 0.3814 -0.3753 0.8448
vn 0.3309 -0.3515 0.8758
vn 0.4301 -0.2105 0.8779
vn 0.5006 -0.2865 0.8169
vn 0.4875 -0.2866 0.8247
vn 0.4930 -0.3313 0.8045
vn 0.4925 -0.3338 0.8037
vn 0.4070 -0.3796 0.8308
vn 0.4051 -0.3898 0.8270
vn 0.4068 -0.3807 0.8304
vn 0.3560 -0.3669 0.8594
vn 0.4390 -0.3460 0.8292
vn 0.4811 -0.2387 0.8435
vn 0.4048 -0.1797 0.8966
vn 0.4048 -0.1790 0.8967
vn 0.5208 -0.3164 0.7928
vn 0.4973 -0.3164 0.8078
vn 0.4415 -0.3313 0.8339
vn 0.4024 -0.3753 0.8350
vn 0.4078 -0.3753 0.8324
vn 0.4337 -0.3753 0.8191
vn 0.4353 -0.3667 0.8222
vn 0.4827 -0.2257 0.8462
vn 0.4777 -0.2653 0.8375
vn 0.4756 -0.2804 0.8338
vn 0.4054 -0.1711 0.8979
vn 0.4059 -0.1640 0.8990
vn 0.4036 -0.1950 0.8939
vn 0.4992 -0.2952 0.8146
vn 0.4694 -0.2256 0.8536
vn 0.4559 -0.2257 0.8609
vn 0.4558 -0.2257 0.8610
vn 0.4356 -0.2257 0.8714
vn 0.4287 -0.2257 0.8748
vn 0.4100 -0.2105 0.8874
vn 0.3919 -0.1797 0.9023
vn 0.3757 -0.1904 0.9069
vn 0.3424 -0.2488 0.9060
vn 0.3345 -0.3231 0.8853
vn 0.3335 -0.3313 0.8826
vn 0.4377 -0.3532 0.8268
vn 0.4795 -0.2514 0.8407
vn 0.4531 -0.3313 0.8276
vn 0.4804 -0.3313 0.8120
vn 0.3607 -0.3753 0.8538
vn 0.4930 -0.3312 0.8045
vn 0.4945 -0.3229 0.8070
vn 0.4406 -0.3364 0.8322
vn 0.4808 -0.2411 0.8430
vn 0.4041 -0.1888 0.8950
vn 0.4211 -0.3754 0.8257
usemtl None
s 1
f 2//1 3//2 111//3
f 141//4 8//5 9//6
f 2//1 10//7 3//2
f 3//2 11//8 4//9
f 9//6 15//10 16//11
f 9//6 17//12 10//7
f 10//7 18//13 11//8
f 12//14 5//15 145//16
f 5//15 13//17 6//18
f 7//19 13//17 14//20
f 7//19 15//10 8//5
f 58//21 22//22 23//23
f 12//14 24//24 13//17
f 14//20 24//24 25//25
f 14//20 26//26 15//10
f 16//11 26//26 27//27
f 16//11 28//28 17//12
f 17//12 29//29 18//13
f 18//13 30//30 19//31
f 19//31 31//32 20//33
f 21//34 31//32 32//35
f 78//36 34//37 35//38
f 23//23 35//38 36//39
f 23//23 37//40 24//24
f 25//25 37//40 38//41
f 25//25 39//42 26//26
f 27//27 39//42 40//43
f 27//27 41//44 28//28
f 28//28 42//45 29//29
f 29//29 43//46 30//30
f 30//30 44//47 31//32
f 32//35 44//47 45//48
f 33//49 154//50 153//51
f 130//52 103//53 46//54
f 34//37 47//55 35//38
f 36//39 47//55 48//56
f 36//39 49//57 37//40
f 38//41 49//57 50//58
f 38//41 51//59 39//42
f 40//43 51//59 52//60
f 40//43 53//61 41//44
f 42//45 53//61 54//62
f 42//45 55//63 43//46
f 43//46 56//64 44//47
f 44//47 62//65 157//66
f 106//67 105//68 94//69
f 146//70 66//71 47//55
f 47//55 66//71 124//72
f 48//56 84//73 107//74
f 148//75 147//75 75//76
f 50//58 126//77 91//78
f 51//59 91//78 108//79
f 64//80 149//81 82//82
f 53//61 82//82 137//83
f 55//63 54//62 109//84
f 55//63 70//85 150//86
f 71//87 102//88 1//89
f 116//90 114//90 96//91
f 99//92 117//93 100//94
f 119//95 20//33 21//34
f 6//18 7//19 122//96
f 123//97 4//9 11//8
f 128//98 127//98 32//35
f 89//99 62//65 56//64
f 129//100 22//22 58//21
f 132//101 92//102 2//1
f 135//103 95//104 134//103
f 68//105 136//106 69//107
f 81//108 100//94 45//48
f 138//109 19//31 20//33
f 83//110 5//15 6//18
f 142//111 72//112 33//49
f 151//113 1//89 65//114
f 18//13 19//31 155//115
f 65//114 3//2 4//9
f 32//35 85//116 156//117
f 159//118 79//119 21//34
f 160//120 5//15 83//110
f 74//121 8//5 90//122
f 73//123 161//124 72//112
f 33//49 34//37 163//125
f 3//2 1//89 111//3
f 1//89 102//88 111//3
f 102//88 112//3 111//3
f 111//3 86//126 2//1
f 9//6 2//1 141//4
f 2//1 92//102 141//4
f 141//4 90//122 8//5
f 2//1 9//6 10//7
f 3//2 10//7 11//8
f 9//6 8//5 15//10
f 9//6 16//11 17//12
f 10//7 17//12 18//13
f 5//15 88//127 145//16
f 145//16 144//128 12//14
f 144//128 143//129 12//14
f 143//129 93//130 12//14
f 5//15 12//14 13//17
f 7//19 6//18 13//17
f 7//19 14//20 15//10
f 23//23 12//14 58//21
f 12//14 93//130 58//21
f 93//130 113//131 58//21
f 12//14 23//23 24//24
f 14//20 13//17 24//24
f 14//20 25//25 26//26
f 16//11 15//10 26//26
f 16//11 27//27 28//28
f 17//12 28//28 29//29
f 18//13 29//29 30//30
f 19//31 30//30 31//32
f 21//34 20//33 31//32
f 35//38 22//22 78//36
f 22//22 80//132 78//36
f 23//23 22//22 35//38
f 23//23 36//39 37//40
f 25//25 24//24 37//40
f 25//25 38//41 39//42
f 27//27 26//26 39//42
f 27//27 40//43 41//44
f 28//28 41//44 42//45
f 29//29 42//45 43//46
f 30//30 43//46 44//47
f 32//35 31//32 44//47
f 33//49 63//133 154//50
f 153//51 152//51 33//49
f 152//51 97//134 33//49
f 46//54 34//37 130//52
f 34//37 33//49 97//134
f 130//52 34//37 97//134
f 34//37 46//54 47//55
f 36//39 35//38 47//55
f 36//39 48//56 49//57
f 38//41 37//40 49//57
f 38//41 50//58 51//59
f 40//43 39//42 51//59
f 40//43 52//60 53//61
f 42//45 41//44 53//61
f 42//45 54//62 55//63
f 43//46 55//63 56//64
f 81//108 45//48 157//66
f 45//48 44//47 157//66
f 44//47 56//64 62//65
f 94//69 46//54 106//67
f 46//54 103//53 106//67
f 47//55 46//54 146//70
f 46//54 94//69 146//70
f 84//73 48//56 124//72
f 48//56 47//55 124//72
f 104//135 49//57 107//74
f 49//57 48//56 107//74
f 75//76 50//58 148//75
f 50//58 49//57 148//75
f 49//57 104//135 148//75
f 91//78 51//59 50//58
f 50//58 75//76 126//77
f 126//77 125//77 91//78
f 64//80 52//60 108//79
f 52//60 51//59 108//79
f 82//82 53//61 52//60
f 52//60 64//80 82//82
f 101//136 54//62 137//83
f 54//62 53//61 137//83
f 54//62 101//136 110//137
f 109//84 70//85 55//63
f 54//62 110//137 109//84
f 89//99 56//64 150//86
f 56//64 55//63 150//86
f 96//91 95//104 116//90
f 116//90 115//90 114//90
f 99//92 118//93 117//93
f 21//34 79//119 119//95
f 119//95 67//138 20//33
f 7//19 74//121 122//96
f 122//96 121//96 120//96
f 120//96 57//139 122//96
f 57//139 6//18 122//96
f 11//8 61//140 123//97
f 123//97 59//141 4//9
f 45//48 87//142 128//98
f 127//98 85//116 32//35
f 45//48 128//98 32//35
f 129//100 80//132 22//22
f 2//1 86//126 132//101
f 132//101 131//101 92//102
f 95//104 96//91 134//103
f 134//103 133//143 135//103
f 133//143 76//144 135//103
f 76//144 4//9 135//103
f 4//9 59//141 135//103
f 99//92 100//94 81//108
f 100//94 87//142 45//48
f 20//33 67//138 138//109
f 138//109 60//145 19//31
f 6//18 57//139 140//146
f 140//146 139//146 6//18
f 139//146 83//110 6//18
f 33//49 98//147 142//111
f 142//111 73//123 72//112
f 72//112 63//133 33//49
f 151//113 71//87 1//89
f 19//31 60//145 155//115
f 155//115 61//140 11//8
f 11//8 18//13 155//115
f 4//9 76//144 65//114
f 65//114 1//89 3//2
f 68//105 69//107 85//116
f 69//107 156//117 85//116
f 156//117 77//148 21//34
f 21//34 32//35 156//117
f 21//34 77//148 159//118
f 159//118 158//118 79//119
f 160//120 88//127 5//15
f 74//121 7//19 8//5
f 34//37 78//36 163//125
f 163//125 162//125 33//49
f 162//125 98//147 33//49
