# Blender v2.81 (sub 16) OBJ File: ''
# www.blender.org
mtllib Bosnia and Herzegovina.mtl
o 0_Bosnia_and_Herzegovina_sphere.001
v 3.362497 3.535533 -1.092536
v 3.414898 3.479563 -1.109561
v 3.466455 3.422734 -1.126313
v 3.395156 3.535533 -0.986378
v 3.384017 3.479563 -1.199756
v 3.400983 3.535533 -0.965079
v 3.444104 3.479563 -1.014625
v 3.451793 3.422734 -1.169137
v 3.348212 3.535533 -1.134260
v 3.431033 3.497580 -0.996801
v 3.358290 3.539887 -1.091169
v 3.475460 3.422734 -1.097043
v 3.483839 3.402961 -1.131962
v 3.390368 3.540441 -0.984987
v 3.346772 3.540370 -1.123297
v 3.385162 3.549775 -0.968087
v 3.385965 3.475615 -1.205693
v 3.415709 3.445844 -1.206483
v 3.423087 3.443001 -1.193303
v 3.432133 3.437216 -1.183917
v 3.432569 3.495183 -0.999835
v 3.413285 3.524127 -0.962655
v 3.482303 3.411642 -1.109668
v 3.343193 3.526868 -1.175251
v 3.373718 3.499444 -1.169426
v 3.350662 3.526649 -1.154099
v 3.392809 3.535741 -0.993286
v 3.376559 3.548387 -1.002427
v 3.366875 3.549662 -1.029499
v 3.361026 3.539645 -1.083114
v 3.452079 3.422525 -1.168902
v 3.485947 3.387314 -1.170454
v 3.465602 3.438099 -1.079246
v 3.459968 3.452057 -1.052285
v 3.446825 3.475750 -1.018148
vn 0.6725 0.7071 -0.2185
vn 0.6706 0.7126 -0.2063
vn 0.6703 0.7129 -0.2060
vn 0.6790 0.7071 -0.1973
vn 0.6825 0.7015 -0.2051
vn 0.6812 0.7015 -0.2095
vn 0.6916 0.6902 -0.2127
vn 0.6830 0.6959 -0.2219
vn 0.6751 0.7126 -0.1907
vn 0.6832 0.7059 -0.1869
vn 0.6637 0.7126 -0.2272
vn 0.6722 0.7036 -0.2301
vn 0.6846 0.6902 -0.2344
vn 0.6819 0.6932 -0.2334
vn 0.6874 0.7015 -0.1881
vn 0.7019 0.6788 -0.2159
vn 0.6933 0.6845 -0.2253
vn 0.6948 0.6866 -0.2138
vn 0.6742 0.7015 -0.2308
vn 0.6949 0.6786 -0.2378
vn 0.6871 0.6874 -0.2352
vn 0.6671 0.7126 -0.2169
vn 0.6849 0.6975 -0.2107
vn 0.6767 0.7126 -0.1851
vn 0.6972 0.6788 -0.2306
vn 0.6948 0.6787 -0.2379
usemtl None
s 1
f 1//1 30//2 27//3
f 4//4 10//5 21//6
f 34//7 33//7 2//8
f 14//9 6//10 4//4
f 15//11 1//1 9//12
f 19//13 17//13 5//14
f 22//15 4//4 6//10
f 23//16 3//17 12//18
f 25//19 9//12 2//8
f 31//20 8//21 3//17
f 1//1 11//22 30//2
f 30//2 29//2 27//3
f 29//2 28//2 27//3
f 27//3 14//9 4//4
f 27//3 4//4 1//1
f 7//23 2//8 21//6
f 2//8 1//1 21//6
f 1//1 4//4 21//6
f 12//18 3//17 33//7
f 3//17 2//8 33//7
f 2//8 7//23 35//7
f 35//7 34//7 2//8
f 14//9 16//24 6//10
f 15//11 11//22 1//1
f 3//17 8//21 2//8
f 8//21 20//13 2//8
f 19//13 18//13 17//13
f 20//13 19//13 2//8
f 5//14 2//8 19//13
f 22//15 10//5 4//4
f 23//16 13//25 3//17
f 2//8 5//14 25//19
f 25//19 24//19 26//19
f 26//19 9//12 25//19
f 9//12 1//1 2//8
f 3//17 13//25 31//20
f 13//25 32//26 31//20
