# Blender v2.81 (sub 16) OBJ File: ''
# www.blender.org
mtllib Brunei.mtl
o 0_Brunei_sphere.001
v -2.122326 0.392293 -4.510174
v -2.133193 0.470539 -4.497293
v -2.138615 0.470539 -4.494637
v -2.045106 0.392293 -4.545040
v -2.119800 0.460684 -4.504807
v -2.135140 0.392293 -4.503897
v -2.122781 0.377181 -4.511142
v -2.136899 0.431848 -4.499215
v -2.096475 0.379052 -4.522874
v -2.080721 0.349388 -4.532290
v -2.138773 0.474653 -4.494091
v -2.073464 0.427025 -4.528931
v -2.043237 0.394486 -4.545675
v -2.134311 0.376317 -4.505561
vn -0.4100 0.0864 -0.9080
vn -0.4099 0.0863 -0.9080
vn -0.4100 0.0821 -0.9083
vn -0.4293 0.0864 -0.8990
vn -0.4245 0.0785 -0.9020
vn -0.4383 0.0864 -0.8947
vn -0.4105 0.0705 -0.9091
vn -0.4379 0.0946 -0.8940
vn -0.4376 0.1019 -0.8933
vn -0.4382 0.0892 -0.8944
vn -0.4389 0.0705 -0.8957
vn -0.4253 0.0706 -0.9023
vn -0.4386 0.0789 -0.8952
vn -0.4104 0.0705 -0.9091
usemtl None
s 1
f 12//1 13//2 4//3
f 5//4 1//5 8//6
f 4//3 9//7 1//5
f 3//8 11//9 2//10
f 14//11 1//5 7//12
f 4//3 1//5 12//1
f 1//5 5//4 12//1
f 1//5 6//13 8//6
f 8//6 3//8 2//10
f 2//10 5//4 8//6
f 4//3 10//14 9//7
f 9//7 7//12 1//5
f 14//11 6//13 1//5
