# Blender v2.81 (sub 16) OBJ File: ''
# www.blender.org
mtllib Cambodia.mtl
o 0_Cambodia_sphere.001
v -1.356404 1.167225 -4.668782
v -1.361353 1.090714 -4.685806
v -1.204373 1.243447 -4.690736
v -1.209085 1.167225 -4.709084
v -1.213496 1.090714 -4.726255
v -1.217607 1.013934 -4.742274
v -1.221415 0.936904 -4.757108
v -1.060572 1.167225 -4.744739
v -1.064442 1.090714 -4.762040
v -1.185542 1.243447 -4.695257
v -1.366024 1.243447 -4.646006
v -1.408060 1.243447 -4.633074
v -1.365722 1.017976 -4.700852
v -1.135195 0.936904 -4.777807
v -1.369142 0.956644 -4.712626
v -1.369485 0.950463 -4.713807
v -1.046397 1.167225 -4.747674
v -1.470853 1.167225 -4.633573
v -1.357554 1.013934 -4.703989
v -1.059551 1.186058 -4.740171
v -1.056434 1.090714 -4.763699
v -1.468668 1.090714 -4.652792
v -1.086593 1.013934 -4.773727
v -1.352766 1.219695 -4.656260
v -1.222518 0.912628 -4.761403
v -1.066223 1.052796 -4.770011
v -1.271883 0.936904 -4.743302
v -1.194540 1.244825 -4.692721
v -1.089171 1.228589 -4.722191
v -1.110915 0.967067 -4.777470
v -1.217152 0.909968 -4.763190
v -1.146775 0.922391 -4.777753
v -1.040071 1.158171 -4.751126
v -1.064822 1.055433 -4.769721
v -1.271843 1.232583 -4.675077
v -1.341428 1.199463 -4.664574
v -1.334481 1.002506 -4.712656
v -1.287171 0.944416 -4.737571
v -1.373988 1.257757 -4.639587
v -1.447949 1.226600 -4.625183
v -1.470935 1.170153 -4.632787
v -1.467944 1.068186 -4.658091
v -1.373546 0.950725 -4.712502
vn -0.2418 0.2334 -0.9418
vn -0.2712 0.2334 -0.9337
vn -0.2561 0.2412 -0.9361
vn -0.2427 0.2181 -0.9452
vn -0.2723 0.2181 -0.9372
vn -0.2399 0.2419 -0.9402
vn -0.2256 0.2563 -0.9399
vn -0.2265 0.2419 -0.9435
vn -0.2265 0.2412 -0.9437
vn -0.2205 0.2412 -0.9451
vn -0.2121 0.2334 -0.9489
vn -0.2129 0.2181 -0.9524
vn -0.2239 0.2105 -0.9516
vn -0.2285 0.2050 -0.9517
vn -0.2435 0.2028 -0.9485
vn -0.2289 0.1950 -0.9537
vn -0.2292 0.1905 -0.9546
vn -0.1973 0.2303 -0.9529
vn -0.1975 0.2257 -0.9539
vn -0.2296 0.1796 -0.9565
vn -0.2403 0.1797 -0.9539
vn -0.2443 0.1873 -0.9514
vn -0.1980 0.2105 -0.9573
vn -0.1979 0.2190 -0.9554
vn -0.2581 0.2083 -0.9434
vn -0.2588 0.1950 -0.9460
vn -0.2589 0.1928 -0.9464
vn -0.2852 0.2431 -0.9271
vn -0.2842 0.2562 -0.9239
vn -0.2850 0.2459 -0.9264
vn -0.2801 0.2412 -0.9292
vn -0.2869 0.2186 -0.9326
vn -0.2874 0.2105 -0.9344
vn -0.2686 0.2105 -0.9399
vn -0.2731 0.1950 -0.9420
vn -0.2886 0.1950 -0.9374
vn -0.2647 0.1950 -0.9444
vn -0.2297 0.1797 -0.9565
vn -0.2859 0.2339 -0.9293
vn -0.2853 0.2411 -0.9276
usemtl None
s 1
f 4//1 1//2 36//3
f 1//2 5//4 2//5
f 3//6 28//7 10//8
f 29//9 20//10 8//11
f 4//1 9//12 5//4
f 5//4 26//13 23//14
f 6//15 30//16 14//17
f 8//11 20//10 17//18
f 8//11 17//18 33//19
f 31//20 25//21 7//22
f 34//23 9//12 21//24
f 5//4 19//25 2//5
f 38//26 37//26 6//15
f 25//21 27//27 7//22
f 12//28 39//29 11//30
f 24//31 1//2 12//28
f 22//32 1//2 2//5
f 42//33 2//5 13//34
f 16//35 43//36 15//37
f 1//2 24//31 36//3
f 36//3 35//3 4//1
f 35//3 3//6 4//1
f 1//2 4//1 5//4
f 8//11 4//1 29//9
f 4//1 3//6 10//8
f 29//9 4//1 10//8
f 4//1 8//11 9//12
f 23//14 6//15 5//4
f 5//4 9//12 26//13
f 14//17 7//22 6//15
f 6//15 23//14 30//16
f 21//24 9//12 33//19
f 9//12 8//11 33//19
f 7//22 14//17 32//38
f 32//38 31//20 7//22
f 34//23 26//13 9//12
f 6//15 19//25 5//4
f 19//25 13//34 2//5
f 7//22 27//27 6//15
f 27//27 38//26 6//15
f 38//26 16//35 15//37
f 37//26 19//25 6//15
f 38//26 15//37 37//26
f 1//2 18//39 41//40
f 41//40 40//40 1//2
f 40//40 12//28 1//2
f 12//28 11//30 24//31
f 22//32 18//39 1//2
f 42//33 22//32 2//5
