# Blender v2.81 (sub 16) OBJ File: ''
# www.blender.org
mtllib Cameroon.mtl
o 0_Cameroon_sphere.001
v 4.726280 1.090714 -1.213497
v 4.757133 0.936904 -1.221418
v 4.783289 0.782170 -1.228134
v 4.794603 0.704504 -1.231039
v 4.804728 0.626664 -1.233639
v 4.813670 0.548669 -1.235935
v 4.821421 0.470539 -1.237924
v 4.827988 0.392293 -1.239611
v 4.833358 0.313950 -1.240990
v 4.837537 0.235530 -1.242062
v 4.830904 0.704504 -1.079830
v 4.841106 0.626664 -1.082110
v 4.850116 0.548669 -1.084124
v 4.857925 0.470539 -1.085869
v 4.864542 0.392293 -1.087349
v 4.869954 0.313950 -1.088558
v 4.874165 0.235530 -1.089499
v 4.881776 0.548669 -0.931243
v 4.889637 0.470539 -0.932742
v 4.896297 0.392293 -0.934013
v 4.901743 0.313950 -0.935052
v 4.905982 0.235530 -0.935860
v 4.916522 0.470539 -0.778695
v 4.923218 0.392293 -0.779756
v 4.926961 0.338744 -0.780349
v 4.780788 0.782170 -1.237276
v 4.821353 0.392293 -1.263864
v 4.810690 0.157051 -1.351879
v 4.804832 0.157051 -1.373292
v 4.732257 1.062058 -1.215032
v 4.808319 0.548669 -1.255495
v 4.838684 0.704504 -1.042263
v 4.773631 0.936904 -1.152698
v 4.744056 0.936904 -1.269219
v 4.839170 0.192594 -1.242482
v 4.875684 0.195867 -1.089839
v 4.929486 0.392293 -0.735714
v 4.744630 1.001809 -1.218208
v 4.876394 0.594955 -0.930217
v 4.907434 0.197875 -0.936137
v 4.730391 1.090714 -1.196375
v 4.775228 0.704504 -1.301863
v 4.720505 1.090714 -1.234607
v 4.814610 0.313950 -1.309521
v 4.769721 0.865755 -1.224651
v 4.819776 0.470539 -1.243938
v 4.855237 0.626664 -1.013877
v 4.794116 0.859643 -1.127818
v 4.776502 0.859643 -1.201185
v 4.911501 0.520171 -0.777900
v 4.803181 0.235530 -1.367649
v 4.781775 0.791565 -1.227745
v 4.921458 0.313950 -0.822089
v 4.906201 0.548669 -0.791291
v 4.787143 0.626664 -1.297917
v 4.741488 1.013934 -1.220555
v 4.729989 1.013934 -1.262592
v 4.922076 0.235530 -0.843642
v 4.721697 1.111129 -1.212320
v 4.814775 0.782170 -1.096987
v 4.919845 0.470539 -0.755348
v 4.824577 0.747616 -1.078415
v 4.811471 0.290809 -1.325821
v 4.802440 0.262806 -1.364670
v 4.927482 0.340416 -0.775851
v 4.927250 0.379391 -0.757905
v 4.929519 0.391856 -0.735705
v 4.726130 1.107876 -1.197086
v 4.788737 0.881940 -1.132775
v 4.773714 0.936713 -1.152501
v 4.773544 0.870038 -1.205373
v 4.924642 0.199166 -0.837248
v 4.927327 0.415883 -0.736379
v 4.873763 0.578483 -0.952536
v 4.858309 0.607652 -1.010134
v 4.737110 1.031403 -1.222305
v 4.731445 1.046803 -1.230447
v 4.721955 1.058175 -1.255856
v 4.803975 0.558026 -1.267178
v 4.817060 0.367020 -1.286336
v 4.817242 0.335760 -1.294054
v 4.805199 0.150698 -1.372518
v 4.919286 0.267988 -0.849239
v 4.918797 0.477417 -0.757707
v 4.819988 0.757796 -1.090974
v 4.903685 0.561158 -0.797114
v 4.899283 0.561907 -0.821817
v 4.884493 0.612634 -0.871639
v 4.878675 0.614097 -0.903969
v 4.868277 0.202481 -1.119580
v 4.840365 0.194347 -1.237212
v 4.865926 0.197714 -1.130175
v 4.921831 0.325605 -0.815152
v 4.852232 0.643639 -1.017145
v 4.843716 0.678483 -1.035197
v 4.719174 1.112767 -1.220106
v 4.745338 0.866650 -1.313159
v 4.757854 0.867499 -1.266822
v 4.765331 0.861414 -1.243699
v 4.775539 0.669224 -1.318677
v 4.782149 0.645793 -1.306438
v 4.820469 0.438401 -1.251955
v 4.824488 0.412507 -1.245766
v 4.803329 0.223056 -1.368964
v 4.801858 0.197787 -1.378102
v 4.822797 0.171281 -1.305505
v 4.732703 1.080764 -1.195921
v 4.806527 0.818096 -1.105733
v 4.799156 0.837267 -1.122773
v 4.784623 0.829427 -1.188896
v 4.834977 0.722223 -1.047023
v 4.880115 0.191266 -1.069336
v 4.890417 0.202901 -1.017338
v 4.899037 0.197193 -0.976815
v 4.744048 1.003017 -1.219425
v 4.732045 1.001519 -1.264432
v 4.743793 0.944670 -1.264327
v 4.780430 0.779207 -1.240273
v 4.772656 0.764516 -1.277064
v 4.774635 0.728789 -1.290190
v 4.811171 0.542310 -1.247536
v 4.819611 0.475023 -1.242800
vn 0.9452 0.2181 -0.2427
vn 0.9473 0.2257 -0.2274
vn 0.9490 0.2176 -0.2279
vn 0.9514 0.1874 -0.2443
vn 0.9481 0.1950 -0.2510
vn 0.9557 0.1839 -0.2295
vn 0.9592 0.1641 -0.2303
vn 0.9581 0.1706 -0.2300
vn 0.9615 0.1487 -0.2308
vn 0.9636 0.1487 -0.2221
vn 0.9662 0.1409 -0.2159
vn 0.9609 0.1253 -0.2467
vn 0.9682 0.1253 -0.2164
vn 0.9627 0.1097 -0.2472
vn 0.9700 0.1097 -0.2168
vn 0.9643 0.0941 -0.2476
vn 0.9716 0.0941 -0.2172
vn 0.9729 0.0784 -0.2174
vn 0.9656 0.0784 -0.2479
vn 0.9740 0.0627 -0.2177
vn 0.9666 0.0627 -0.2482
vn 0.9675 0.0471 -0.2484
vn 0.9748 0.0471 -0.2179
vn 0.9683 0.1487 -0.2005
vn 0.9696 0.1394 -0.2008
vn 0.9705 0.1331 -0.2010
vn 0.9705 0.1330 -0.2010
vn 0.9724 0.1175 -0.2014
vn 0.9766 0.1175 -0.1798
vn 0.9763 0.1097 -0.1862
vn 0.9779 0.0941 -0.1865
vn 0.9792 0.0784 -0.1868
vn 0.9803 0.0627 -0.1870
vn 0.9812 0.0471 -0.1872
vn 0.9783 0.1175 -0.1707
vn 0.9783 0.1176 -0.1707
vn 0.9794 0.1074 -0.1709
vn 0.9807 0.1019 -0.1665
vn 0.9846 0.0784 -0.1559
vn 0.9826 0.0706 -0.1715
vn 0.9830 0.0654 -0.1715
vn 0.9836 0.0549 -0.1716
vn 0.9833 0.0941 -0.1557
vn 0.9849 0.1019 -0.1401
vn 0.9858 0.0923 -0.1403
vn 0.9863 0.0863 -0.1404
vn 0.9628 0.0596 -0.2634
vn 0.9875 0.0706 -0.1405
vn 0.9846 0.0706 -0.1596
vn 0.9564 0.1805 -0.2296
vn 0.9565 0.1796 -0.2296
vn 0.9565 0.1797 -0.2296
vn 0.9840 0.0461 -0.1717
vn 0.9815 0.0392 -0.1874
vn 0.9429 0.2105 -0.2579
vn 0.9446 0.2023 -0.2584
vn 0.9533 0.1524 -0.2608
vn 0.9573 0.1641 -0.2378
vn 0.9566 0.1564 -0.2456
vn 0.9579 0.1175 -0.2620
vn 0.9621 0.0706 -0.2632
vn 0.9639 0.0378 -0.2636
vn 0.9643 0.0234 -0.2638
vn 0.9640 0.0320 -0.2637
vn 0.9716 0.0392 -0.2333
vn 0.9396 0.2257 -0.2571
vn 0.9419 0.2155 -0.2577
vn 0.9489 0.1797 -0.2596
vn 0.9479 0.1848 -0.2593
vn 0.9589 0.1409 -0.2462
vn 0.9560 0.1331 -0.2615
vn 0.9609 0.0863 -0.2629
vn 0.9670 0.0392 -0.2515
vn 0.9638 0.0392 -0.2636
vn 0.9506 0.2105 -0.2282
vn 0.9785 0.0392 -0.2026
vn 0.9460 0.1950 -0.2588
vn 0.9538 0.1487 -0.2609
vn 0.9595 0.1019 -0.2625
vn 0.9595 0.1018 -0.2625
vn 0.9431 0.2257 -0.2442
vn 0.9606 0.1550 -0.2306
vn 0.9575 0.1740 -0.2299
vn 0.9716 0.1242 -0.2012
vn 0.9870 0.0782 -0.1404
vn 0.9635 0.0466 -0.2636
vn 0.9631 0.0549 -0.2635
vn 0.9631 0.0550 -0.2635
vn 0.9875 0.0705 -0.1404
vn 0.9523 0.1797 -0.2467
vn 0.9843 0.0392 -0.1718
vn 0.9447 0.2020 -0.2584
vn 0.9449 0.2105 -0.2507
vn 0.9582 0.1143 -0.2621
vn 0.9567 0.1276 -0.2617
vn 0.9619 0.0747 -0.2631
vn 0.9756 0.0392 -0.2159
vn 0.9552 0.1388 -0.2613
vn 0.9604 0.0930 -0.2627
vn 0.9460 0.1949 -0.2588
usemtl None
s 1
f 1//1 68//2 41//3
f 2//4 38//5 33//6
f 110//7 48//8 109//7
f 85//9 62//10 11//11
f 5//12 11//11 12//13
f 6//14 12//13 13//15
f 7//16 13//15 14//17
f 7//16 15//18 8//19
f 8//19 16//20 9//21
f 10//22 16//20 17//23
f 11//11 111//24 32//25
f 95//26 94//27 12//13
f 74//28 39//29 18//30
f 14//17 18//30 19//31
f 14//17 20//32 15//18
f 15//18 21//33 16//20
f 17//23 21//33 22//34
f 87//35 86//36 54//37
f 50//38 19//31 54//37
f 19//31 24//39 20//32
f 93//40 53//41 20//32
f 21//33 53//41 83//42
f 23//43 84//44 61//45
f 23//43 61//45 73//46
f 44//47 9//21 10//22
f 65//48 25//49 24//39
f 70//50 69//51 71//52
f 58//53 40//54 22//34
f 77//55 76//55 57//56
f 26//57 52//58 3//59
f 79//60 5//12 6//14
f 9//21 80//61 8//19
f 28//62 82//63 29//64
f 10//22 17//23 92//65
f 96//66 1//1 43//67
f 98//68 34//69 2//4
f 4//70 5//12 101//71
f 7//16 8//19 103//72
f 35//73 106//74 10//22
f 107//75 1//1 41//3
f 17//23 22//34 113//76
f 38//5 2//4 117//77
f 3//59 4//70 118//78
f 122//79 121//80 6//14
f 1//1 59//81 68//2
f 60//82 3//59 110//7
f 3//59 52//58 110//7
f 110//7 49//83 48//8
f 109//7 108//7 110//7
f 108//7 60//82 110//7
f 11//11 4//70 85//9
f 4//70 3//59 85//9
f 3//59 60//82 85//9
f 5//12 4//70 11//11
f 6//14 5//12 12//13
f 7//16 6//14 13//15
f 7//16 14//17 15//18
f 8//19 15//18 16//20
f 10//22 9//21 16//20
f 11//11 62//10 111//24
f 47//84 12//13 94//27
f 12//13 11//11 95//26
f 11//11 32//25 95//26
f 18//30 13//15 74//28
f 13//15 12//13 75//28
f 74//28 13//15 75//28
f 12//13 47//84 75//28
f 14//17 13//15 18//30
f 14//17 19//31 20//32
f 15//18 20//32 21//33
f 17//23 16//20 21//33
f 54//37 18//30 87//35
f 18//30 39//29 89//36
f 87//35 18//30 88//35
f 89//36 88//35 18//30
f 23//43 19//31 50//38
f 19//31 18//30 54//37
f 19//31 23//43 24//39
f 53//41 21//33 20//32
f 20//32 24//39 93//40
f 24//39 25//49 93//40
f 58//53 22//34 83//42
f 22//34 21//33 83//42
f 23//43 50//38 84//44
f 37//85 24//39 73//46
f 24//39 23//43 73//46
f 10//22 51//86 63//87
f 51//86 64//88 63//87
f 63//87 44//47 10//22
f 24//39 37//85 66//48
f 37//85 67//89 66//48
f 66//48 65//48 24//39
f 48//8 49//83 69//51
f 49//83 71//52 69//51
f 71//52 45//90 2//4
f 2//4 33//6 71//52
f 33//6 70//50 71//52
f 58//53 72//91 40//54
f 56//92 57//56 76//55
f 57//56 78//55 77//55
f 78//55 43//67 30//93
f 43//67 1//1 30//93
f 78//55 30//93 77//55
f 6//14 31//94 79//60
f 79//60 55//95 5//12
f 9//21 44//47 81//61
f 81//61 80//61 9//21
f 80//61 27//96 8//19
f 17//23 36//97 90//65
f 90//65 92//65 17//23
f 92//65 91//65 10//22
f 91//65 35//73 10//22
f 96//66 59//81 1//1
f 2//4 45//90 99//68
f 98//68 97//68 34//69
f 2//4 99//68 98//68
f 5//12 55//95 101//71
f 101//71 100//71 42//98
f 42//98 4//70 101//71
f 8//19 27//96 103//72
f 103//72 102//72 7//16
f 102//72 46//99 7//16
f 28//62 29//64 105//74
f 104//74 51//86 106//74
f 51//86 10//22 106//74
f 28//62 105//74 106//74
f 105//74 104//74 106//74
f 107//75 30//93 1//1
f 22//34 40//54 114//76
f 113//76 112//76 17//23
f 112//76 36//97 17//23
f 22//34 114//76 113//76
f 2//4 34//69 117//77
f 117//77 116//77 38//5
f 116//77 57//56 56//92
f 115//100 116//77 56//92
f 115//100 38//5 116//77
f 4//70 42//98 120//78
f 120//78 119//78 4//70
f 119//78 118//78 4//70
f 118//78 26//57 3//59
f 7//16 46//99 122//79
f 121//80 31//94 6//14
f 7//16 122//79 6//14
