# Blender v2.81 (sub 16) OBJ File: ''
# www.blender.org
mtllib Central African Republic.mtl
o 0_Central_African_Republic_sphere.001
v 4.435262 0.470539 -2.259872
v 4.488462 0.626664 -2.112104
v 4.496815 0.548669 -2.116035
v 4.504057 0.470539 -2.119442
v 4.520444 0.859643 -1.956166
v 4.532278 0.782170 -1.961285
v 4.542996 0.704504 -1.965925
v 4.552590 0.626664 -1.970076
v 4.561062 0.548669 -1.973743
v 4.568408 0.470539 -1.976920
v 4.579659 0.859643 -1.813210
v 4.591647 0.782170 -1.817955
v 4.602506 0.704504 -1.822256
v 4.612225 0.626664 -1.826104
v 4.620809 0.548669 -1.829502
v 4.628250 0.470539 -1.832448
v 4.634553 0.392293 -1.834944
v 4.646484 0.782170 -1.672831
v 4.657474 0.704504 -1.676788
v 4.667308 0.626664 -1.680329
v 4.675994 0.548669 -1.683456
v 4.683525 0.470539 -1.686167
v 4.717786 0.626664 -1.532896
v 4.726566 0.548669 -1.535749
v 4.734177 0.470539 -1.538221
v 4.740625 0.392293 -1.540317
v 4.745899 0.313950 -1.542030
v 4.763608 0.626664 -1.383950
v 4.772473 0.548669 -1.386526
v 4.780158 0.470539 -1.388758
v 4.786669 0.392293 -1.390650
v 4.791993 0.313950 -1.392197
v 4.796136 0.235530 -1.393400
v 4.433167 0.493484 -2.258805
v 4.746155 0.309059 -1.542114
v 4.476592 0.626664 -2.136334
v 4.599969 0.392293 -1.918438
v 4.803196 0.235530 -1.367593
v 4.718867 0.392293 -1.603868
v 4.515306 0.890297 -1.953942
v 4.787161 0.626664 -1.297851
v 4.423452 0.470539 -2.282177
v 4.437077 0.447026 -2.260797
v 4.709796 0.689222 -1.530300
v 4.506495 0.439441 -2.120589
v 4.758830 0.663708 -1.382563
v 4.573552 0.405844 -1.979147
v 4.495276 0.704504 -2.071614
v 4.528616 0.806139 -1.959701
v 4.529119 0.802850 -1.959919
v 4.732776 0.313950 -1.580360
v 4.672548 0.782170 -1.596704
v 4.552878 0.936904 -1.840990
v 4.522092 0.936904 -1.915314
v 4.796465 0.226794 -1.393496
v 4.821364 0.392293 -1.263822
v 4.771780 0.313950 -1.457903
v 4.754910 0.313950 -1.512740
v 4.514933 0.859643 -1.968372
v 4.808333 0.548669 -1.255441
v 4.794691 0.235530 -1.398097
v 4.664669 0.392293 -1.755246
v 4.702459 0.704504 -1.545394
v 4.589341 0.859643 -1.787587
v 4.454159 0.548669 -2.203107
v 4.485923 0.647556 -2.110910
v 4.814630 0.313950 -1.309450
v 4.572650 0.900909 -1.810435
v 4.687107 0.426594 -1.687457
v 4.646084 0.784725 -1.672687
v 4.530514 0.782170 -1.965191
v 4.819779 0.470539 -1.243923
v 4.636086 0.368997 -1.835551
v 4.467754 0.607479 -2.159535
v 4.455854 0.569970 -2.193917
v 4.762444 0.652344 -1.375137
v 4.782176 0.645791 -1.306340
v 4.824501 0.412497 -1.245723
v 4.820482 0.438396 -1.251910
v 4.801875 0.197790 -1.378041
v 4.803350 0.223050 -1.368885
v 4.817263 0.335758 -1.293979
v 4.817086 0.367017 -1.286241
v 4.528967 0.804990 -1.959356
v 4.610433 0.351236 -1.900771
v 4.634170 0.368281 -1.840310
v 4.733562 0.305559 -1.579487
v 4.638408 0.783231 -1.693703
v 4.603542 0.823088 -1.767213
v 4.530725 0.778217 -1.966168
v 4.521839 0.753332 -1.994941
v 4.499950 0.715597 -2.057208
v 4.656254 0.376794 -1.780617
v 4.665200 0.788553 -1.614886
v 4.459738 0.448813 -2.214187
v 4.487799 0.457974 -2.155104
v 4.502602 0.450560 -2.126347
v 4.727077 0.366271 -1.585575
v 4.819621 0.475020 -1.242763
v 4.811182 0.542306 -1.247501
v 4.802460 0.262801 -1.364598
v 4.811496 0.290814 -1.325728
v 4.750955 0.310456 -1.526248
v 4.785220 0.278892 -1.420772
v 4.565868 0.916895 -1.819178
v 4.522589 0.929517 -1.917641
v 4.577287 0.401812 -1.971044
v 4.591756 0.410496 -1.934145
v 4.596870 0.403787 -1.923318
v 4.421130 0.456056 -2.289245
v 4.435279 0.446871 -2.264220
v 4.517751 0.840793 -1.969753
v 4.673462 0.408902 -1.727903
v 4.767361 0.325036 -1.469597
v 4.695501 0.438455 -1.659767
v 4.712869 0.410437 -1.616534
v 4.451296 0.517942 -2.216105
v 4.803997 0.558025 -1.267098
v 4.509813 0.429425 -2.115349
v 4.521603 0.426779 -2.089795
v 4.534261 0.445150 -2.057892
v 4.543134 0.951564 -1.856898
v 4.519694 0.966166 -1.905900
v 4.425372 0.483611 -2.275689
v 4.512257 0.875878 -1.967094
v 4.484913 0.680718 -2.102326
v 4.488009 0.652609 -2.104642
v 4.755134 0.674593 -1.389607
v 4.751146 0.672884 -1.403350
v 4.747315 0.653275 -1.424758
v 4.711051 0.686414 -1.527502
v 4.694720 0.720108 -1.560754
v 4.675850 0.750258 -1.601872
v 4.674294 0.780627 -1.592321
vn 0.8933 0.1019 -0.4376
vn 0.8993 0.1097 -0.4232
vn 0.9008 0.0941 -0.4239
vn 0.9033 0.1331 -0.4078
vn 0.9029 0.1363 -0.4077
vn 0.9105 0.1253 -0.3940
vn 0.8977 0.1253 -0.4224
vn 0.9122 0.1097 -0.3947
vn 0.9137 0.0941 -0.3954
vn 0.9083 0.1830 -0.3762
vn 0.9088 0.1797 -0.3764
vn 0.9159 0.1719 -0.3626
vn 0.9183 0.1564 -0.3636
vn 0.9113 0.1641 -0.3776
vn 0.9064 0.1564 -0.3923
vn 0.9205 0.1409 -0.3644
vn 0.9086 0.1409 -0.3932
vn 0.9224 0.1253 -0.3652
vn 0.9242 0.1097 -0.3659
vn 0.9256 0.0941 -0.3665
vn 0.9110 0.1796 -0.3712
vn 0.9220 0.1691 -0.3484
vn 0.9227 0.1642 -0.3487
vn 0.9293 0.1564 -0.3345
vn 0.9315 0.1409 -0.3353
vn 0.9334 0.1253 -0.3360
vn 0.9352 0.1097 -0.3367
vn 0.9367 0.0941 -0.3372
vn 0.9319 0.0863 -0.3521
vn 0.9322 0.0837 -0.3522
vn 0.9332 0.1641 -0.3195
vn 0.9353 0.1502 -0.3202
vn 0.9355 0.1487 -0.3203
vn 0.9372 0.1368 -0.3208
vn 0.9403 0.1331 -0.3133
vn 0.9435 0.1253 -0.3066
vn 0.9453 0.1097 -0.3071
vn 0.9468 0.0941 -0.3076
vn 0.9527 0.1253 -0.2768
vn 0.9473 0.1331 -0.2914
vn 0.9545 0.1097 -0.2773
vn 0.9560 0.0941 -0.2777
vn 0.9573 0.0784 -0.2781
vn 0.9481 0.0784 -0.3081
vn 0.9534 0.0706 -0.2933
vn 0.9535 0.0694 -0.2933
vn 0.9560 0.1331 -0.2615
vn 0.9572 0.1230 -0.2618
vn 0.9579 0.1176 -0.2620
vn 0.9592 0.1051 -0.2624
vn 0.9595 0.1019 -0.2625
vn 0.9609 0.0863 -0.2629
vn 0.9613 0.0821 -0.2629
vn 0.9621 0.0706 -0.2632
vn 0.9625 0.0658 -0.2633
vn 0.9584 0.0627 -0.2784
vn 0.9631 0.0549 -0.2635
vn 0.8914 0.1208 -0.4367
vn 0.9638 0.0392 -0.2636
vn 0.9638 0.0393 -0.2636
vn 0.9624 0.0392 -0.2686
vn 0.9216 0.0706 -0.3817
vn 0.9209 0.0807 -0.3814
vn 0.9269 0.0784 -0.3670
vn 0.9446 0.0550 -0.3234
vn 0.9492 0.0627 -0.3084
vn 0.9493 0.0548 -0.3093
vn 0.9013 0.1487 -0.4069
vn 0.9012 0.1487 -0.4069
vn 0.9331 0.0705 -0.3526
vn 0.9546 0.0495 -0.2936
vn 0.9592 0.0470 -0.2787
vn 0.8871 0.0941 -0.4519
vn 0.8947 0.0862 -0.4383
vn 0.9437 0.0706 -0.3231
vn 0.8995 0.1331 -0.4161
vn 0.9543 0.0549 -0.2936
vn 0.9543 0.0548 -0.2936
vn 0.9204 0.0863 -0.3812
vn 0.8805 0.0863 -0.4662
vn 0.8800 0.0918 -0.4659
vn 0.9003 0.1553 -0.4065
vn 0.9101 0.1643 -0.3803
vn 0.8990 0.1641 -0.4059
vn 0.9041 0.1719 -0.3912
vn 0.9097 0.1641 -0.3813
vn 0.9425 0.0863 -0.3227
vn 0.9080 0.0863 -0.4100
vn 0.9077 0.1861 -0.3760
vn 0.9061 0.1950 -0.3753
vn 0.8791 0.1019 -0.4655
vn 0.8966 0.1796 -0.4048
vn 0.8978 0.1719 -0.4054
vn 0.8885 0.1019 -0.4472
vn 0.8928 0.1077 -0.4374
vn 0.9060 0.1797 -0.3831
vn 0.9227 0.1641 -0.3487
vn 0.9283 0.1642 -0.3335
vn 0.9360 0.0863 -0.3411
vn 0.9356 0.1487 -0.3203
vn 0.9491 0.1331 -0.2856
vn 0.9473 0.1330 -0.2914
vn 0.9536 0.0670 -0.2934
vn 0.9602 0.0952 -0.2626
vn 0.9595 0.1019 -0.2626
vn 0.9610 0.0863 -0.2629
vn 0.9634 0.0475 -0.2636
vn 0.8918 0.1175 -0.4369
vn 0.9269 0.0706 -0.3684
vn 0.9442 0.0634 -0.3233
vn 0.9057 0.0863 -0.4150
vn 0.8947 0.0863 -0.4383
vn 0.8875 0.0863 -0.4526
vn 0.9429 0.0817 -0.3228
vn 0.9160 0.0863 -0.3918
usemtl None
s 1
f 117//1 3//2 4//3
f 127//4 48//5 8//6
f 2//7 9//8 3//2
f 4//3 9//8 10//9
f 53//10 105//11 11//12
f 11//12 12//13 84//14
f 6//15 13//16 7//17
f 8//6 13//16 14//18
f 8//6 15//19 9//8
f 10//9 15//19 16//20
f 11//12 68//21 64//22
f 12//13 88//23 18//24
f 12//13 19//25 13//16
f 14//18 19//25 20//26
f 14//18 21//27 15//19
f 16//20 21//27 22//28
f 113//29 62//30 16//20
f 18//24 94//31 52//32
f 133//33 132//33 19//25
f 63//34 44//35 23//36
f 20//26 24//37 21//27
f 22//28 24//37 25//38
f 28//39 23//36 130//40
f 23//36 29//41 24//37
f 25//38 29//41 30//42
f 25//38 31//43 26//44
f 114//45 58//46 26//44
f 77//47 41//48 28//39
f 118//49 29//41 41//48
f 60//50 99//51 30//42
f 30//42 79//52 56//53
f 82//54 67//55 31//43
f 32//56 102//57 101//57
f 36//58 2//7 3//2
f 81//59 80//60 55//61
f 86//62 37//63 17//64
f 87//65 27//66 35//67
f 7//17 91//68 90//69
f 93//70 17//64 62//30
f 55//61 61//71 33//72
f 1//73 4//3 96//74
f 98//75 26//44 27//66
f 36//58 66//76 2//7
f 104//77 32//56 33//72
f 103//78 27//66 58//46
f 10//9 16//20 108//79
f 111//80 42//81 1//73
f 71//82 50//83 6//15
f 112//84 5//85 49//86
f 22//28 25//38 115//87
f 4//3 10//9 121//88
f 54//89 122//90 53//10
f 124//91 1//73 42//81
f 125//92 5//85 59//93
f 4//3 1//73 117//1
f 1//73 34//94 117//1
f 117//1 65//95 3//2
f 8//6 2//7 127//4
f 2//7 66//76 127//4
f 127//4 126//4 48//5
f 48//5 7//17 8//6
f 2//7 8//6 9//8
f 4//3 3//2 9//8
f 11//12 5//85 106//11
f 5//85 40//96 106//11
f 106//11 54//89 53//10
f 105//11 68//21 11//12
f 106//11 53//10 11//12
f 12//13 6//15 84//14
f 6//15 50//83 84//14
f 84//14 49//86 5//85
f 5//85 11//12 84//14
f 6//15 12//13 13//16
f 8//6 7//17 13//16
f 8//6 14//18 15//19
f 10//9 9//8 15//19
f 12//13 11//12 89//97
f 11//12 64//22 89//97
f 88//23 70//98 18//24
f 12//13 89//97 88//23
f 12//13 18//24 19//25
f 14//18 13//16 19//25
f 14//18 20//26 21//27
f 16//20 15//19 21//27
f 62//30 17//64 16//20
f 16//20 22//28 113//29
f 22//28 69//99 113//29
f 18//24 70//98 94//31
f 63//34 19//25 132//33
f 19//25 18//24 133//33
f 18//24 52//32 133//33
f 52//32 134//100 133//33
f 23//36 20//26 63//34
f 20//26 19//25 63//34
f 20//26 23//36 24//37
f 22//28 21//27 24//37
f 23//36 44//35 131//40
f 130//40 129//40 46//101
f 129//40 128//102 46//101
f 23//36 131//40 130//40
f 46//101 28//39 130//40
f 23//36 28//39 29//41
f 25//38 24//37 29//41
f 25//38 30//42 31//43
f 58//46 27//66 26//44
f 26//44 31//43 114//45
f 31//43 32//56 57//103
f 114//45 31//43 57//103
f 28//39 46//101 76//47
f 76//47 77//47 28//39
f 60//50 29//41 118//49
f 29//41 28//39 41//48
f 72//104 30//42 99//51
f 30//42 29//41 60//50
f 60//50 100//105 99//51
f 56//53 31//43 30//42
f 30//42 72//104 79//52
f 79//52 78//106 56//53
f 67//55 32//56 31//43
f 31//43 56//53 83//54
f 83//54 82//54 31//43
f 38//107 33//72 101//57
f 33//72 32//56 101//57
f 32//56 67//55 102//57
f 3//2 65//95 75//108
f 75//108 74//108 3//2
f 74//108 36//58 3//2
f 33//72 38//107 55//61
f 38//107 81//59 55//61
f 17//64 73//109 86//62
f 86//62 85//62 37//63
f 87//65 51//110 27//66
f 7//17 48//5 92//69
f 7//17 92//69 91//68
f 71//82 6//15 90//69
f 6//15 7//17 90//69
f 93//70 73//109 17//64
f 4//3 45//111 97//112
f 96//74 95//112 1//73
f 95//112 43//113 1//73
f 4//3 97//112 96//74
f 27//66 51//110 98//75
f 98//75 39//114 26//44
f 33//72 61//71 104//77
f 104//77 57//103 32//56
f 103//78 35//67 27//66
f 17//64 37//63 109//79
f 108//79 107//79 10//9
f 107//79 47//115 10//9
f 17//64 109//79 16//20
f 109//79 108//79 16//20
f 1//73 43//113 111//80
f 111//80 110//80 42//81
f 112//84 59//93 5//85
f 26//44 39//114 25//38
f 39//114 116//87 25//38
f 115//87 69//99 22//28
f 116//87 115//87 25//38
f 10//9 47//115 121//88
f 121//88 120//88 4//3
f 120//88 119//88 45//111
f 4//3 120//88 45//111
f 54//89 123//90 122//90
f 124//91 34//94 1//73
f 125//92 40//96 5//85
