# Blender v2.81 (sub 16) OBJ File: ''
# www.blender.org
mtllib Chile.mtl
o 0_Chile_sphere.001
v 1.058366 -4.090751 2.673135
v 1.016925 -3.998425 2.824623
v 0.995524 -4.045087 2.765182
v 0.973879 -4.090751 2.705060
v 0.908176 -4.045087 2.795087
v 0.837559 -3.998425 2.882903
v 0.838210 -3.996643 2.885145
v 0.841102 -3.998425 2.881813
v 0.828793 -4.021630 2.852733
v 0.919209 -4.090751 2.723778
v 1.021592 -3.987911 2.837587
v 1.059133 -4.089262 2.675073
v 1.039982 -4.125268 2.626701
v 0.810053 -3.998425 2.890427
v 0.849342 -4.045087 2.813187
v 1.009640 -3.998425 2.827117
v 1.093689 -3.998425 2.795616
v 1.070677 -4.045087 2.736784
v 1.124931 -4.090751 2.645563
v 0.938429 -4.045087 2.784729
v 0.955389 -4.045087 2.778923
v 0.967422 -4.103926 2.687124
v 0.911751 -4.036543 2.806089
v 0.894685 -4.076286 2.753566
v 1.048244 -4.089121 2.679397
v 1.029367 -4.124405 2.632046
v 1.004147 -4.120303 2.647921
v 0.977937 -4.105474 2.680758
v 0.846089 -4.042733 2.817522
v 0.892969 -4.030203 2.820848
v 0.884564 -4.070135 2.765684
v 1.098749 -4.110501 2.625482
v 1.051055 -4.125972 2.621011
v 1.017539 -3.989459 2.836830
v 1.098107 -4.089060 2.659235
v 1.125283 -4.090455 2.645865
v 0.949842 -4.048670 2.775523
v 0.932111 -4.098222 2.707936
v 0.985529 -4.025037 2.797294
v 0.798831 -3.984343 2.912626
v 0.836652 -3.995623 2.886958
v 1.073127 -3.967434 2.846793
v 1.105445 -3.973784 2.825687
vn 0.2055 -0.8136 0.5438
vn 0.1991 -0.8090 0.5531
vn 0.1948 -0.8181 0.5411
vn 0.2034 -0.7996 0.5649
vn 0.1965 -0.7949 0.5739
vn 0.1941 -0.8005 0.5670
vn 0.1924 -0.8043 0.5621
vn 0.1896 -0.8107 0.5538
vn 0.1833 -0.8136 0.5517
vn 0.1875 -0.8154 0.5476
vn 0.1883 -0.8136 0.5501
vn 0.1747 -0.8043 0.5679
vn 0.1738 -0.8065 0.5651
vn 0.1601 -0.7949 0.5852
vn 0.1591 -0.7978 0.5816
vn 0.2117 -0.8181 0.5346
vn 0.2010 -0.8226 0.5319
vn 0.1755 -0.8023 0.5705
vn 0.1653 -0.7949 0.5838
vn 0.1675 -0.7996 0.5766
vn 0.1709 -0.8136 0.5557
vn 0.1816 -0.8090 0.5590
vn 0.2176 -0.8226 0.5253
vn 0.2209 -0.8170 0.5325
vn 0.2225 -0.8136 0.5372
vn 0.2140 -0.8137 0.5405
vn 0.1842 -0.8226 0.5379
vn 0.1889 -0.8123 0.5517
vn 0.1811 -0.8043 0.5658
vn 0.1711 -0.8043 0.5690
vn 0.2091 -0.7949 0.5695
vn 0.2123 -0.7996 0.5617
vn 0.2145 -0.7949 0.5676
vn 0.2078 -0.8090 0.5499
vn 0.1938 -0.8226 0.5345
vn 0.2099 -0.8226 0.5284
vn 0.2228 -0.8138 0.5367
usemtl None
s 1
f 25//1 3//2 4//3
f 2//4 34//5 16//6
f 39//7 21//8 3//2
f 24//9 10//10 37//11
f 29//12 15//13 30//12
f 41//14 40//14 14//15
f 1//16 4//3 28//17
f 8//18 7//19 6//20
f 31//21 5//22 15//13
f 32//23 19//24 1//16
f 35//25 12//26 1//16
f 38//27 4//3 10//10
f 20//28 23//29 5//22
f 14//15 9//30 6//20
f 11//31 17//32 42//33
f 17//32 3//2 18//34
f 4//3 1//16 25//1
f 1//16 12//26 25//1
f 25//1 18//34 3//2
f 2//4 11//31 34//5
f 3//2 2//4 39//7
f 2//4 16//6 39//7
f 10//10 4//3 37//11
f 4//3 3//2 37//11
f 3//2 21//8 37//11
f 37//11 20//28 24//9
f 20//28 5//22 24//9
f 15//13 5//22 30//12
f 5//22 23//29 30//12
f 30//12 8//18 9//30
f 8//18 6//20 9//30
f 9//30 29//12 30//12
f 14//15 6//20 41//14
f 6//20 7//19 41//14
f 4//3 22//35 28//17
f 28//17 27//17 1//16
f 27//17 26//17 1//16
f 26//17 13//36 1//16
f 31//21 24//9 5//22
f 1//16 13//36 33//23
f 33//23 32//23 1//16
f 1//16 19//24 35//25
f 19//24 36//37 35//25
f 38//27 22//35 4//3
f 2//4 17//32 11//31
f 17//32 43//33 42//33
f 17//32 2//4 3//2
o 1_Chile_sphere.001
v 1.711362 -1.840626 4.322415
v 1.700509 -1.913420 4.295003
v 1.689237 -1.985743 4.266531
v 1.677545 -2.057575 4.237003
v 1.652926 -2.199698 4.174820
v 1.602369 -1.619590 4.450760
v 1.564761 -1.913420 4.346298
v 1.554389 -1.985743 4.317486
v 1.543630 -2.057575 4.287605
v 1.532492 -2.128899 4.256667
v 1.520976 -2.199698 4.224679
v 1.509084 -2.269955 4.191649
v 1.496819 -2.339652 4.157585
v 1.484189 -2.408771 4.122500
v 1.471189 -2.477296 4.086391
v 1.457826 -2.545210 4.049275
v 1.415593 -2.745117 3.931973
v 1.400814 -2.810420 3.890919
v 1.038073 -3.950777 2.883367
v 1.264109 -2.875029 3.890534
v 1.249997 -2.938929 3.847106
v 1.235579 -3.002104 3.802729
v 1.220855 -3.064538 3.757414
v 1.205830 -3.126216 3.711170
v 1.190507 -3.187123 3.664010
v 1.174890 -3.247243 3.615950
v 1.158984 -3.306562 3.566993
v 1.126318 -3.422738 3.466457
v 1.109565 -3.479567 3.414898
v 1.092539 -3.535537 3.362496
v 1.075243 -3.590634 3.309266
v 1.057682 -3.644846 3.255219
v 0.946992 -3.950777 2.914551
v 0.927699 -3.998425 2.855172
v 1.046370 -3.306562 3.601638
v 1.031751 -3.365065 3.551318
v 1.016878 -3.422738 3.500125
v 0.986381 -3.535537 3.395154
v 0.970766 -3.590634 3.341408
v 0.954912 -3.644846 3.286835
v 0.938822 -3.698158 3.231451
v 0.922499 -3.750558 3.175271
v 0.905950 -3.802032 3.118307
v 0.889176 -3.852569 3.060571
v 0.872185 -3.902154 3.002085
v 0.854977 -3.950777 2.942858
v 1.128838 -3.422738 3.465594
v 1.119314 -3.064538 3.788652
v 0.953536 -3.934086 2.934687
v 1.375735 -2.875029 3.852316
v 0.949043 -3.902154 2.978440
v 0.861286 -3.698158 3.252663
v 1.312957 -2.745117 3.967113
v 0.998685 -3.490736 3.437506
v 1.513501 -2.408771 4.111424
v 1.054325 -3.365065 3.544373
v 1.085917 -3.365065 3.534654
v 1.134163 -3.365065 3.519812
v 1.479352 -2.199698 4.238931
v 1.185010 -3.247243 3.612485
v 1.277370 -2.812930 3.931350
v 1.735226 -1.913420 4.280622
v 1.651390 -2.208047 4.170941
v 1.643412 -2.251419 4.150791
v 1.640115 -2.269341 4.142465
v 1.568304 -1.887590 4.356141
v 1.238550 -2.875029 3.898397
v 0.794262 -3.950777 2.959468
v 1.696512 -1.619590 4.415187
v 0.993695 -3.750558 3.153368
v 0.942724 -3.535537 3.407098
v 1.361688 -2.545210 4.082191
v 1.441879 -2.745117 3.922040
v 1.596330 -1.670365 4.433984
v 1.112721 -3.535537 3.355586
v 1.097513 -3.187123 3.692619
v 1.541393 -1.985743 4.321935
v 1.282907 -3.064538 3.736169
v 1.716917 -1.801630 4.336444
v 1.454627 -2.560899 4.040388
v 1.016043 -3.698158 3.207695
v 1.040755 -3.479567 3.436067
v 1.090705 -3.950777 2.863479
v 0.864134 -3.998425 2.874727
v 0.810506 -3.802032 3.144417
v 1.466579 -2.545210 4.045968
v 1.011366 -3.365065 3.556895
v 1.436288 -2.339652 4.178309
v 1.711584 -2.057575 4.222904
v 1.163459 -3.002104 3.824916
v 1.040202 -3.945822 2.889281
v 1.053308 -3.657932 3.241755
v 0.915465 -3.852569 3.052484
v 0.894462 -3.644846 3.303373
v 1.343539 -2.679137 4.001672
v 1.425766 -2.679137 3.973519
v 0.821382 -3.753783 3.199081
v 0.819338 -3.760917 3.191117
v 1.564178 -2.339652 4.132133
v 1.063710 -3.644846 3.253155
v 1.499180 -2.128899 4.268072
v 1.580840 -1.840626 4.371735
v 1.214790 -3.187123 3.655696
v 1.674713 -2.074265 4.229849
v 1.389873 -2.857160 3.860527
v 1.727136 -1.840626 4.315881
v 0.854224 -3.633241 3.326991
v 0.853450 -3.636211 3.323975
v 0.803715 -3.902154 3.020816
v 1.144946 -3.357281 3.523788
v 1.640990 -1.545088 4.462736
v 1.681818 -1.545088 4.447309
v 1.595237 -1.619590 4.453202
v 0.968411 -3.479567 3.457186
v 1.384535 -2.477296 4.116059
v 1.665086 -2.128899 4.206563
v 1.126732 -3.479567 3.409020
v 1.115834 -3.126216 3.738857
v 0.914802 -4.029252 2.815478
v 1.561361 -1.913420 4.347462
v 1.293626 -3.002104 3.782856
v 1.653831 -2.199698 4.174445
v 1.025430 -3.422738 3.497494
v 1.070365 -3.422738 3.483670
v 1.359211 -2.938929 3.809713
v 0.823707 -3.750558 3.202298
v 1.278923 -2.810420 3.932652
v 1.486710 -2.477296 4.080526
v 1.037300 -3.306562 3.604119
v 1.461645 -2.269955 4.207891
v 1.027674 -3.974206 2.854482
v 1.169045 -3.306562 3.563548
v 1.200200 -2.938929 3.862425
v 1.783780 -1.985743 4.227370
v 1.014454 -3.431846 3.491781
v 1.706453 -1.767377 4.354564
v 1.590265 -1.767377 4.398468
v 1.661849 -2.149223 4.197356
v 1.596468 -1.693693 4.425176
v 1.718722 -1.693693 4.378981
v 0.927602 -3.802032 3.111645
v 0.909870 -3.590634 3.358067
v 1.346956 -2.612495 4.044423
v 1.423056 -2.612495 4.018368
v 1.426327 -2.810420 3.881279
v 0.983240 -3.998425 2.836156
v 1.639347 -2.269955 4.142427
v 1.095687 -3.590634 3.302267
v 1.062170 -3.247243 3.650627
v 1.520571 -2.057575 4.295499
v 1.266324 -3.126216 3.690459
v 1.426379 -2.695812 3.961929
v 1.130064 -3.409622 3.477988
v 0.843517 -3.982126 2.903412
v 1.608333 -1.566822 4.467326
v 1.058748 -3.255433 3.644244
v 0.799961 -3.852569 3.084977
v 0.984545 -3.422738 3.508970
v 1.392934 -2.408771 4.153744
v 0.983856 -3.424170 3.507742
v 1.673326 -2.074872 4.230073
v 1.381792 -2.506865 4.098846
v 1.029042 -3.501487 3.417096
v 0.799415 -3.851335 3.086649
v 1.371822 -2.879889 3.849985
v 1.220174 -2.903862 3.882495
v 1.014029 -3.700282 3.205834
v 1.010549 -3.729772 3.172462
v 1.074623 -3.947551 2.873931
v 1.134423 -3.362082 3.522527
v 1.060169 -3.353085 3.553800
v 1.662045 -1.509756 4.466722
v 1.162798 -3.348816 3.525690
v 1.026290 -3.332150 3.583372
v 0.850991 -3.635665 3.325154
v 1.097083 -3.370218 3.526237
v 0.860308 -3.698747 3.252249
v 1.489277 -2.451895 4.094762
v 1.077327 -3.209942 3.678763
v 1.652728 -2.206326 4.171318
v 1.648991 -2.262028 4.142743
v 1.207168 -3.200913 3.646055
v 0.847572 -3.984403 2.899043
v 1.585246 -1.823705 4.377069
v 1.588833 -2.310031 4.139263
v 1.114246 -3.097507 3.763022
v 0.989564 -3.987681 2.848871
v 1.343469 -2.680313 4.000893
v 0.794721 -3.953971 2.955005
v 1.594048 -1.573696 4.469792
v 1.426804 -2.809768 3.881563
v 1.284866 -3.115951 3.692662
v 0.926270 -3.871250 3.025156
v 0.962715 -3.867768 3.018418
v 1.698163 -1.740311 4.368368
v 1.119767 -3.486162 3.404542
v 1.143326 -3.498528 3.383611
v 1.142213 -3.521956 3.359618
v 1.112970 -3.533794 3.357315
v 0.820647 -3.754772 3.198085
v 1.422584 -2.602229 4.025062
v 1.348945 -2.568985 4.071426
v 0.814779 -3.887906 3.035931
v 1.738413 -1.943080 4.265712
v 1.793814 -1.932098 4.247796
v 1.799496 -1.952234 4.236215
v 1.359144 -2.939215 3.809513
v 1.297668 -2.984879 3.794917
v 0.980588 -3.766372 3.138336
v 0.930215 -3.791563 3.123463
v 1.117039 -3.956002 2.846210
v 1.072860 -3.955532 2.863562
v 1.042935 -3.968625 2.856533
v 1.636474 -1.552522 4.461792
v 1.693684 -1.566230 4.435286
v 1.390082 -2.413236 4.152077
v 1.020071 -3.433184 3.488718
v 1.726148 -1.831900 4.319944
v 1.481579 -2.525172 4.052741
v 1.174286 -3.269113 3.596099
v 0.890702 -4.020727 2.834966
v 1.448849 -2.319249 4.185210
v 1.060676 -3.649866 3.248455
v 0.933659 -3.652997 3.283508
v 1.528062 -2.382323 4.121173
v 1.117722 -3.163840 3.706232
v 0.960255 -4.036326 2.789793
v 0.939103 -4.037560 2.795269
v 1.291755 -2.789237 3.943216
v 1.239866 -3.140640 3.687106
v 0.946267 -3.908893 2.970353
v 1.487016 -2.168402 4.252189
v 1.107693 -3.569757 3.320570
v 0.920769 -3.582144 3.364025
v 1.632899 -2.231321 4.165498
v 1.125837 -3.019780 3.822378
v 1.154373 -3.017399 3.815500
v 0.955359 -3.940459 2.925519
v 0.789617 -3.919886 3.001357
v 1.760123 -2.035313 4.213450
v 1.427554 -2.729757 3.938055
v 1.442348 -2.743040 3.923296
v 1.282224 -3.048844 3.749060
v 0.914704 -3.851276 3.054326
v 1.596739 -1.690085 4.426428
v 1.696822 -1.625979 4.412672
v 1.732782 -1.661101 4.385901
v 1.536244 -2.003861 4.315232
v 1.127507 -3.435895 3.452785
v 1.147369 -3.459696 3.421988
vn 0.3304 -0.3554 0.8744
vn 0.3307 -0.3532 0.8751
vn 0.3297 -0.3608 0.8724
vn 0.3423 -0.3681 0.8645
vn 0.3286 -0.3687 0.8695
vn 0.3265 -0.3753 0.8675
vn 0.3401 -0.3826 0.8590
vn 0.3109 -0.3971 0.8635
vn 0.3378 -0.3971 0.8533
vn 0.3355 -0.4115 0.8474
vn 0.3087 -0.4115 0.8575
vn 0.3188 -0.4328 0.8432
vn 0.3065 -0.4257 0.8513
vn 0.3042 -0.4399 0.8449
vn 0.2005 -0.7853 0.5858
vn 0.1845 -0.7853 0.5910
vn 0.1894 -0.7901 0.5829
vn 0.3204 -0.3239 0.8902
vn 0.3072 -0.3164 0.8975
vn 0.3065 -0.3233 0.8953
vn 0.3129 -0.3826 0.8693
vn 0.2991 -0.3832 0.8739
vn 0.2972 -0.3977 0.8680
vn 0.2962 -0.4043 0.8653
vn 0.2951 -0.4121 0.8620
vn 0.2930 -0.4264 0.8557
vn 0.2920 -0.4328 0.8529
vn 0.3018 -0.4540 0.8383
vn 0.2908 -0.4403 0.8495
vn 0.2885 -0.4543 0.8428
vn 0.2874 -0.4609 0.8396
vn 0.2968 -0.4817 0.8245
vn 0.2860 -0.4696 0.8353
vn 0.2835 -0.4835 0.8282
vn 0.2826 -0.4886 0.8254
vn 0.2814 -0.4950 0.8220
vn 0.2942 -0.4954 0.8173
vn 0.2801 -0.5022 0.8181
vn 0.2733 -0.5367 0.7983
vn 0.2736 -0.5352 0.7992
vn 0.2721 -0.5424 0.7948
vn 0.2693 -0.5555 0.7867
vn 0.2802 -0.5620 0.7782
vn 0.2705 -0.5499 0.7902
vn 0.1820 -0.7852 0.5918
vn 0.1744 -0.7804 0.6005
vn 0.1710 -0.7901 0.5886
vn 0.1784 -0.7949 0.5799
vn 0.1775 -0.7973 0.5769
vn 0.2528 -0.5749 0.7781
vn 0.2638 -0.5685 0.7792
vn 0.2403 -0.5763 0.7811
vn 0.2392 -0.5813 0.7777
vn 0.2471 -0.6004 0.7606
vn 0.2376 -0.5889 0.7725
vn 0.2349 -0.6016 0.7635
vn 0.2337 -0.6066 0.7598
vn 0.2324 -0.6126 0.7554
vn 0.2442 -0.6128 0.7515
vn 0.2309 -0.6190 0.7506
vn 0.2412 -0.6252 0.7422
vn 0.2297 -0.6243 0.7466
vn 0.2280 -0.6313 0.7412
vn 0.2251 -0.6434 0.7317
vn 0.2350 -0.6494 0.7232
vn 0.2261 -0.6392 0.7350
vn 0.2235 -0.6499 0.7264
vn 0.2211 -0.6554 0.7222
vn 0.2170 -0.6787 0.7016
vn 0.2174 -0.6735 0.7065
vn 0.2159 -0.6787 0.7019
vn 0.2219 -0.6959 0.6830
vn 0.2141 -0.6851 0.6962
vn 0.2110 -0.6965 0.6858
vn 0.2095 -0.7015 0.6811
vn 0.1960 -0.7015 0.6851
vn 0.1973 -0.7071 0.6790
vn 0.2151 -0.7181 0.6619
vn 0.1942 -0.7181 0.6683
vn 0.2115 -0.7289 0.6511
vn 0.1910 -0.7289 0.6574
vn 0.2093 -0.6613 0.7203
vn 0.1978 -0.6618 0.7230
vn 0.1965 -0.6671 0.7185
vn 0.2034 -0.6845 0.7000
vn 0.1950 -0.6736 0.7129
vn 0.1922 -0.6851 0.7026
vn 0.1864 -0.7076 0.6816
vn 0.1851 -0.7126 0.6767
vn 0.1778 -0.7235 0.6670
vn 0.1735 -0.7235 0.6681
vn 0.1819 -0.7244 0.6649
vn 0.1791 -0.7343 0.6548
vn 0.1877 -0.7396 0.6463
vn 0.1768 -0.7421 0.6465
vn 0.1760 -0.7448 0.6436
vn 0.1742 -0.7510 0.6369
vn 0.1709 -0.7553 0.6327
vn 0.1726 -0.7552 0.6323
vn 0.1812 -0.7604 0.6237
vn 0.1714 -0.7602 0.6267
vn 0.1698 -0.7654 0.6207
vn 0.1778 -0.7705 0.6121
vn 0.1686 -0.7689 0.6166
vn 0.1666 -0.7754 0.6090
vn 0.1647 -0.7813 0.6020
vn 0.1634 -0.7852 0.5972
vn 0.1909 -0.6902 0.6979
vn 0.3208 -0.4186 0.8496
vn 0.3556 -0.3693 0.8586
vn 0.3533 -0.3838 0.8531
vn 0.2814 -0.5157 0.8092
vn 0.3047 -0.5070 0.8063
vn 0.2916 -0.5090 0.8099
vn 0.2636 -0.5814 0.7697
vn 0.2500 -0.5877 0.7694
vn 0.1962 -0.7448 0.6377
vn 0.2188 -0.7853 0.5791
vn 0.2076 -0.7901 0.5767
vn 0.2148 -0.7941 0.5686
vn 0.2185 -0.6689 0.7104
vn 0.2190 -0.6671 0.7120
vn 0.2318 -0.6613 0.7134
vn 0.3358 -0.3118 0.8888
vn 0.3370 -0.3014 0.8919
vn 0.3359 -0.3111 0.8890
vn 0.2413 -0.6671 0.7048
vn 0.2259 -0.6672 0.7098
vn 0.1611 -0.7236 0.6712
vn 0.2145 -0.6839 0.6973
vn 0.2063 -0.6730 0.7103
vn 0.3084 -0.4886 0.8162
vn 0.2676 -0.5634 0.7816
vn 0.3223 -0.4472 0.8343
vn 0.3424 -0.4469 0.8264
vn 0.3213 -0.4469 0.8349
vn 0.3422 -0.4469 0.8265
vn 0.3302 -0.4399 0.8351
vn 0.3206 -0.4469 0.8351
vn 0.2480 -0.6434 0.7242
vn 0.2381 -0.6374 0.7328
vn 0.2220 -0.7283 0.6483
vn 0.3137 -0.4609 0.8301
vn 0.3154 -0.4505 0.8352
vn 0.1856 -0.7996 0.5711
vn 0.1965 -0.7949 0.5740
vn 0.1601 -0.7949 0.5852
vn 0.1621 -0.7892 0.5924
vn 0.3301 -0.4187 0.8460
vn 0.3497 -0.4064 0.8441
vn 0.2939 -0.5554 0.7779
vn 0.2831 -0.5490 0.7864
vn 0.2537 -0.6216 0.7411
vn 0.2557 -0.6138 0.7469
vn 0.1856 -0.7754 0.6035
vn 0.3316 -0.3460 0.8777
vn 0.3326 -0.3384 0.8802
vn 0.2185 -0.7071 0.6725
vn 0.2308 -0.7015 0.6742
vn 0.1524 -0.7552 0.6376
vn 0.2775 -0.5157 0.8105
vn 0.2763 -0.5218 0.8070
vn 0.3524 -0.3898 0.8508
vn 0.2606 -0.5940 0.7610
vn 0.1845 -0.7501 0.6351
vn 0.1927 -0.7552 0.6265
vn 0.2145 -0.7949 0.5675
vn 0.3353 -0.3164 0.8874
vn 0.2359 -0.6851 0.6892
vn 0.2253 -0.6845 0.6933
vn 0.2039 -0.6902 0.6942
vn 0.3569 -0.3608 0.8616
vn 0.3056 -0.5022 0.8089
vn 0.2022 -0.7343 0.6480
vn 0.2446 -0.6554 0.7146
vn 0.1747 -0.8043 0.5679
vn 0.2199 -0.7343 0.6422
vn 0.3111 -0.4747 0.8233
vn 0.2994 -0.4678 0.8315
vn 0.1924 -0.8043 0.5621
vn 0.1946 -0.7993 0.5685
vn 0.3429 -0.4401 0.8299
vn 0.3323 -0.3313 0.8831
vn 0.2700 -0.5685 0.7771
vn 0.2927 -0.5600 0.7750
vn 0.2512 -0.6313 0.7337
vn 0.2272 -0.7126 0.6637
vn 0.3162 -0.4469 0.8368
vn 0.2760 -0.5233 0.8061
vn 0.3500 -0.4043 0.8450
vn 0.3514 -0.3957 0.8484
vn 0.2969 -0.5425 0.7858
vn 0.2969 -0.5424 0.7859
vn 0.2575 -0.6066 0.7521
vn 0.1892 -0.7655 0.6149
vn 0.3335 -0.3312 0.8826
vn 0.3335 -0.3313 0.8826
vn 0.2344 -0.6902 0.6846
vn 0.3333 -0.3608 0.8710
vn 0.3198 -0.4258 0.8464
vn 0.2092 -0.7853 0.5827
vn 0.3256 -0.3165 0.8910
vn 0.2785 -0.5103 0.8136
vn 0.2739 -0.5424 0.7942
vn 0.1839 -0.7803 0.5977
vn 0.1730 -0.7949 0.5815
vn 0.1880 -0.7015 0.6874
vn 0.1830 -0.7203 0.6691
vn 0.2619 -0.5877 0.7655
vn 0.2655 -0.5730 0.7753
vn 0.1948 -0.7490 0.6333
vn 0.1983 -0.7382 0.6447
vn 0.2177 -0.6723 0.7075
vn 0.2429 -0.6617 0.7093
vn 0.3070 -0.4958 0.8123
vn 0.3100 -0.4802 0.8205
vn 0.2465 -0.6488 0.7199
vn 0.2498 -0.6365 0.7297
vn 0.2257 -0.7174 0.6590
vn 0.3128 -0.4654 0.8279
vn 0.2022 -0.7949 0.5720
vn 0.2954 -0.5490 0.7818
vn 0.2544 -0.6190 0.7430
vn 0.1868 -0.7723 0.6072
vn 0.3327 -0.3373 0.8806
vn 0.2289 -0.7075 0.6686
vn 0.2332 -0.6941 0.6811
vn 0.2590 -0.6004 0.7566
vn 0.2598 -0.5938 0.7615
vn 0.1909 -0.7606 0.6205
vn 0.2145 -0.7949 0.5676
vn 0.2144 -0.7949 0.5676
vn 0.3343 -0.3247 0.8847
vn 0.2127 -0.6902 0.6916
vn 0.1861 -0.8044 0.5642
usemtl None
s 1
f 179//38 180//39 227//40
f 44//41 145//42 109//43
f 45//44 51//45 46//46
f 47//47 51//45 52//48
f 181//49 53//50 54//51
f 281//52 92//53 76//54
f 49//55 233//56 156//57
f 50//58 109//43 163//59
f 51//45 163//59 120//60
f 51//45 120//60 291//61
f 53//50 193//62 144//63
f 53//50 144//63 275//64
f 55//65 102//66 173//67
f 55//65 173//67 265//68
f 57//69 131//70 202//71
f 57//69 259//72 158//73
f 58//74 158//73 205//75
f 139//76 138//77 231//78
f 272//79 61//80 96//81
f 274//82 88//83 89//84
f 226//85 127//86 76//54
f 63//87 104//88 110//89
f 63//87 110//89 209//90
f 65//91 176//92 133//93
f 280//94 279//94 91//95
f 66//96 91//95 229//97
f 67//98 161//99 269//100
f 222//101 69//102 119//103
f 69//102 192//104 199//105
f 196//106 101//107 219//108
f 72//109 167//110 125//111
f 206//112 97//113 81//114
f 74//115 81//114 82//116
f 75//117 82//116 83//118
f 78//119 199//105 172//120
f 78//119 172//120 217//121
f 80//122 130//123 201//124
f 97//113 114//125 81//114
f 81//114 114//125 277//126
f 150//127 151//128 137//129
f 83//118 137//129 267//130
f 84//131 95//132 220//133
f 169//134 140//135 141//136
f 86//137 128//138 207//139
f 87//140 200//141 246//142
f 88//83 152//143 282//144
f 203//145 80//122 201//124
f 52//48 53//50 204//146
f 149//147 45//44 105//148
f 123//149 129//150 59//151
f 208//152 63//87 64//153
f 211//154 210//154 84//131
f 212//155 62//156 126//157
f 100//158 213//159 70//160
f 155//161 215//162 154//163
f 216//164 70//160 153//165
f 150//127 218//166 151//128
f 166//167 79//168 80//122
f 221//169 57//69 58//74
f 61//80 170//170 104//88
f 108//171 224//172 107//173
f 223//174 48//175 106//176
f 225//177 68//178 69//102
f 143//179 74//115 75//117
f 228//180 190//181 55//65
f 76//54 77//182 230//183
f 232//184 89//84 111//185
f 147//186 132//187 47//47
f 234//188 60//189 61//80
f 66//96 194//190 121//191
f 236//192 87//140 88//83
f 238//193 182//194 180//39
f 73//195 242//196 239//196
f 140//135 243//197 141//136
f 245//198 186//199 244//198
f 247//200 45//44 46//46
f 64//153 65//91 251//201
f 85//202 86//137 253//203
f 255//204 126//157 62//156
f 258//205 257//205 49//55
f 90//206 196//106 71//207
f 178//208 166//167 80//122
f 261//209 44//41 149//147
f 262//210 58//74 59//151
f 135//211 75//117 83//118
f 263//212 69//102 70//160
f 264//213 77//182 127//86
f 266//214 75//117 135//211
f 268//215 56//216 57//69
f 271//217 270//217 189//218
f 165//219 181//49 48//175
f 156//57 117//220 49//55
f 148//221 188//222 61//80
f 273//223 67//98 68//178
f 276//224 73//195 74//115
f 54//51 55//65 278//225
f 187//226 138//77 139//76
f 283//227 177//228 46//46
f 285//229 284//230 60//189
f 286//231 65//91 66//96
f 287//232 86//137 87//140
f 117//220 288//233 289//234
f 292//235 71//207 72//109
f 145//42 44//41 227//40
f 44//41 122//236 227//40
f 122//236 179//38 227//40
f 50//58 45//44 109//43
f 45//44 44//41 109//43
f 45//44 50//58 51//45
f 47//47 46//46 51//45
f 54//51 48//175 181//49
f 181//49 159//237 53//50
f 76//54 62//156 281//52
f 62//156 134//238 281//52
f 49//55 198//239 233//56
f 51//45 50//58 163//59
f 193//62 52//48 291//61
f 52//48 51//45 291//61
f 53//50 52//48 193//62
f 102//66 54//51 275//64
f 54//51 53//50 275//64
f 55//65 54//51 102//66
f 131//70 56//216 265//68
f 56//216 55//65 265//68
f 57//69 56//216 131//70
f 158//73 58//74 57//69
f 57//69 202//71 259//72
f 115//240 59//151 205//75
f 59//151 58//74 205//75
f 96//81 60//189 231//78
f 60//189 195//241 231//78
f 195//241 139//76 231//78
f 170//170 61//80 272//79
f 61//80 60//189 96//81
f 89//84 76//54 92//53
f 274//82 94//242 88//83
f 89//84 92//53 274//82
f 127//86 77//182 76//54
f 76//54 89//84 226//85
f 89//84 197//243 226//85
f 176//92 64//153 209//90
f 64//153 63//87 209//90
f 65//91 64//153 176//92
f 91//95 66//96 280//94
f 66//96 65//91 280//94
f 65//91 133//93 280//94
f 161//99 67//98 229//97
f 67//98 66//96 229//97
f 119//103 68//178 269//100
f 68//178 67//98 269//100
f 192//104 69//102 222//101
f 69//102 68//178 119//103
f 78//119 70//160 199//105
f 70//160 69//102 199//105
f 167//110 71//207 196//106
f 101//107 100//158 219//108
f 219//108 167//110 196//106
f 72//109 71//207 167//110
f 81//114 73//195 206//112
f 73//195 72//109 206//112
f 72//109 125//111 206//112
f 74//115 73//195 81//114
f 75//117 74//115 82//116
f 130//123 79//168 217//121
f 79//168 78//119 217//121
f 80//122 79//168 130//123
f 97//113 157//244 114//125
f 185//245 82//116 277//126
f 82//116 81//114 277//126
f 137//129 83//118 185//245
f 83//118 82//116 185//245
f 185//245 150//127 137//129
f 95//132 84//131 267//130
f 84//131 83//118 267//130
f 169//134 85//202 220//133
f 85//202 84//131 220//133
f 128//138 86//137 141//136
f 86//137 85//202 141//136
f 85//202 169//134 141//136
f 200//141 87//140 207//139
f 87//140 86//137 207//139
f 152//143 88//83 246//142
f 88//83 87//140 246//142
f 111//185 89//84 282//144
f 89//84 88//83 282//144
f 203//145 178//208 80//122
f 53//50 159//237 204//146
f 204//146 147//186 47//47
f 47//47 52//48 204//146
f 149//147 44//41 45//44
f 64//153 168//246 208//152
f 208//152 93//247 63//87
f 85//202 113//248 211//154
f 210//154 124//249 84//131
f 85//202 211//154 84//131
f 212//155 134//238 62//156
f 100//158 101//107 213//159
f 213//159 153//165 70//160
f 70//160 78//119 214//159
f 78//119 79//168 214//159
f 79//168 99//250 214//159
f 214//159 100//158 70//160
f 216//164 175//251 70//160
f 166//167 99//250 79//168
f 58//74 171//252 221//169
f 221//169 98//253 57//69
f 63//87 93//247 104//88
f 93//247 148//221 104//88
f 148//221 61//80 104//88
f 223//174 165//219 48//175
f 69//102 103//254 225//177
f 225//177 146//255 68//178
f 143//179 191//256 74//115
f 56//216 142//257 55//65
f 142//257 228//180 55//65
f 77//182 189//218 230//183
f 230//183 174//258 62//156
f 62//156 76//54 230//183
f 232//184 197//243 89//84
f 61//80 188//222 234//188
f 234//188 116//259 60//189
f 67//98 194//190 66//96
f 194//190 235//260 121//191
f 88//83 94//242 236//192
f 94//242 237//192 236//192
f 236//192 136//261 87//140
f 180//39 179//38 238//193
f 238//193 183//262 182//194
f 73//195 118//263 242//196
f 242//196 241//196 240//196
f 239//196 160//264 72//109
f 242//196 240//196 239//196
f 72//109 73//195 239//196
f 186//199 187//226 244//198
f 244//198 123//149 115//240
f 123//149 59//151 115//240
f 115//240 245//198 244//198
f 46//46 177//228 247//200
f 177//228 249//200 247//200
f 249//200 248//200 247//200
f 247//200 105//148 45//44
f 65//91 164//265 251//201
f 251//201 250//266 168//246
f 168//246 64//153 251//201
f 86//137 184//267 253//203
f 253//203 252//203 85//202
f 252//203 113//248 85//202
f 62//156 174//258 256//268
f 255//204 254//269 126//157
f 62//156 256//268 255//204
f 49//55 112//270 258//205
f 258//205 155//161 257//205
f 155//161 154//163 257//205
f 257//205 198//239 49//55
f 178//208 260//271 166//167
f 261//209 122//236 44//41
f 59//151 129//150 262//210
f 262//210 171//252 58//74
f 84//131 124//249 83//118
f 124//249 135//211 83//118
f 70//160 175//251 263//212
f 263//212 103//254 69//102
f 264//213 162//272 77//182
f 266//214 143//179 75//117
f 57//69 98//253 268//215
f 268//215 142//257 56//216
f 77//182 162//272 189//218
f 162//272 271//217 189//218
f 68//178 146//255 273//223
f 273//223 194//190 67//98
f 74//115 191//256 276//224
f 276//224 118//263 73//195
f 55//65 190//181 278//225
f 190//181 108//171 107//173
f 278//225 190//181 107//173
f 278//225 106//176 48//175
f 48//175 54//51 278//225
f 187//226 186//199 138//77
f 47//47 132//187 46//46
f 132//187 283//227 46//46
f 60//189 116//259 285//229
f 284//230 195//241 60//189
f 66//96 121//191 286//231
f 286//231 164//265 65//91
f 87//140 136//261 287//232
f 287//232 184//267 86//137
f 182//194 183//262 288//233
f 183//262 290//234 289//234
f 289//234 112//270 49//55
f 183//262 289//234 288//233
f 49//55 117//220 289//234
f 72//109 160//264 293//235
f 292//235 90//206 71//207
f 72//109 293//235 292//235
