# Blender v2.81 (sub 16) OBJ File: ''
# www.blender.org
mtllib Denmark.mtl
o 0_Denmark_sphere.001
v 2.758700 4.135403 -0.535988
v 2.743034 4.135403 -0.611637
v 2.812886 4.090748 -0.592894
v 2.810220 4.090748 -0.605771
v 2.746025 4.133074 -0.613804
v 2.764405 4.120058 -0.617912
v 2.788992 4.113729 -0.544331
v 2.761055 4.134383 -0.531895
v 2.723018 4.150450 -0.597256
v 2.818103 4.085541 -0.603640
v 2.755061 4.125940 -0.620380
vn 0.5568 0.8226 -0.1153
vn 0.5563 0.8226 -0.1176
vn 0.5553 0.8237 -0.1149
vn 0.5519 0.8260 -0.1143
vn 0.5441 0.8314 -0.1126
vn 0.5598 0.8204 -0.1159
vn 0.5694 0.8136 -0.1179
vn 0.5615 0.8192 -0.1163
vn 0.5529 0.8226 -0.1327
vn 0.5568 0.8226 -0.1152
usemtl None
s 1
f 7//1 6//2 1//3
f 2//4 9//5 1//3
f 3//6 10//7 4//8
f 6//2 11//9 5//2
f 3//6 4//8 6//2
f 6//2 5//2 2//4
f 2//4 1//3 6//2
f 1//3 8//10 7//1
f 7//1 3//6 6//2
o 1_Denmark_sphere.001
v 2.711321 4.179036 -0.429425
v 2.775821 4.135403 -0.439641
v 2.839634 4.090748 -0.449748
v 2.716786 4.179036 -0.391022
v 2.767561 4.135403 -0.486968
v 2.700359 4.179036 -0.492233
v 2.781957 4.135403 -0.396524
v 2.636397 4.221639 -0.475002
v 2.633521 4.221639 -0.491485
v 2.834605 4.090748 -0.478563
v 2.711444 4.168867 -0.517230
v 2.725953 4.158998 -0.519998
v 2.679242 4.200008 -0.424344
v 2.840448 4.090748 -0.444028
v 2.841009 4.089753 -0.449966
v 2.793930 4.118863 -0.475054
v 2.826068 4.094687 -0.494330
v 2.838718 4.093730 -0.425572
v 2.802191 4.121236 -0.399817
v 2.712666 4.167290 -0.522969
v 2.624080 4.227584 -0.490137
v 2.741754 4.149003 -0.516463
v 2.736629 4.154179 -0.500775
v 2.706633 4.174555 -0.495292
v 2.729198 4.171117 -0.387926
v 2.842200 4.087129 -0.464498
v 2.673866 4.201265 -0.443823
v 2.651139 4.214287 -0.456757
v 2.661517 4.203384 -0.495496
v 2.687510 4.187905 -0.485980
v 2.708591 4.184093 -0.393034
v 2.684853 4.198332 -0.403331
vn 0.5371 0.8401 -0.0764
vn 0.5423 0.8357 -0.0859
vn 0.5449 0.8349 -0.0775
vn 0.5500 0.8314 -0.0783
vn 0.5629 0.8226 -0.0801
vn 0.5641 0.8218 -0.0802
vn 0.5552 0.8270 -0.0879
vn 0.5601 0.8226 -0.0978
vn 0.5679 0.8181 -0.0899
vn 0.5470 0.8314 -0.0974
vn 0.5440 0.8314 -0.1127
vn 0.5462 0.8315 -0.1015
vn 0.5278 0.8444 -0.0921
vn 0.5213 0.8485 -0.0910
vn 0.5320 0.8416 -0.0928
vn 0.5473 0.8314 -0.0955
vn 0.5728 0.8135 -0.0999
vn 0.5739 0.8136 -0.0926
vn 0.5344 0.8401 -0.0933
vn 0.5356 0.8401 -0.0855
vn 0.5564 0.8271 -0.0792
vn 0.5617 0.8215 -0.0980
vn 0.5601 0.8226 -0.0977
vn 0.5517 0.8285 -0.0963
vn 0.5419 0.8351 -0.0945
usemtl None
s 1
f 42//11 12//12 43//11
f 12//12 15//13 36//14
f 29//15 25//16 13//17
f 27//18 13//17 14//19
f 23//20 31//21 22//22
f 20//23 32//24 19//25
f 34//26 35//26 12//12
f 37//27 14//19 26//28
f 25//16 26//28 14//19
f 12//12 41//29 38//29
f 15//13 12//12 42//11
f 12//12 24//30 43//11
f 18//31 13//17 36//14
f 13//17 12//12 36//14
f 25//16 14//19 13//17
f 13//17 18//31 30//15
f 30//15 29//15 13//17
f 14//19 21//32 27//18
f 21//32 28//33 27//18
f 27//18 16//34 13//17
f 13//17 16//34 34//26
f 34//26 33//26 23//20
f 23//20 22//22 34//26
f 22//22 35//26 34//26
f 35//26 17//35 12//12
f 12//12 13//17 34//26
f 37//27 21//32 14//19
f 12//12 17//35 41//29
f 41//29 40//29 38//29
f 40//29 20//23 19//25
f 38//29 40//29 39//29
f 19//25 39//29 40//29
f 38//29 24//30 12//12
