# Blender v2.81 (sub 16) OBJ File: ''
# www.blender.org
mtllib Dominican Republic.mtl
o 0_Dominican_Republic_sphere.001
v 1.602369 1.619585 4.450762
v 1.608585 1.564587 4.468028
v 1.717868 1.619585 4.407119
v 1.595275 1.679235 4.431054
v 1.486903 1.619585 4.490295
v 1.492977 1.545083 4.514486
v 1.535030 1.545083 4.500088
v 1.743678 1.600879 4.404038
v 1.745216 1.588360 4.407921
v 1.481032 1.693688 4.464804
v 1.560580 1.693688 4.437569
v 1.614218 1.681103 4.423194
v 1.631719 1.651853 4.427560
v 1.673691 1.653432 4.411108
v 1.674252 1.628924 4.420095
v 1.708970 1.625993 4.408077
v 1.485001 1.700519 4.460782
v 1.545644 1.700116 4.440176
v 1.584206 1.560246 4.477905
v 1.570052 1.580288 4.475684
v 1.545436 1.568380 4.488311
v 1.491985 1.548708 4.513547
v 1.491242 1.571190 4.505875
v 1.468489 1.596151 4.504863
v 1.486116 1.609995 4.493947
v 1.726018 1.561971 4.424587
v 1.687041 1.579897 4.432922
v 1.651883 1.576466 4.447431
v 1.625943 1.580453 4.455810
v 1.613669 1.565434 4.465805
v 1.594160 1.679134 4.431473
v 1.488620 1.641687 4.481504
v 1.476882 1.686543 4.468876
v 1.750591 1.595741 4.403029
v 1.519943 1.511523 4.516469
v 1.498358 1.524822 4.519416
vn 0.3051 0.3358 0.8911
vn 0.3056 0.3313 0.8926
vn 0.3204 0.3239 0.8901
vn 0.3335 0.3312 0.8826
vn 0.3335 0.3313 0.8826
vn 0.3039 0.3460 0.8876
vn 0.3054 0.3333 0.8920
vn 0.3073 0.3164 0.8975
vn 0.3198 0.3165 0.8930
vn 0.3353 0.3164 0.8874
vn 0.3349 0.3196 0.8864
vn 0.3416 0.3165 0.8849
vn 0.3630 0.3164 0.8764
vn 0.3432 0.3165 0.8843
vn 0.3088 0.3015 0.9020
vn 0.3078 0.3114 0.8990
vn 0.3080 0.3098 0.8995
vn 0.3066 0.3230 0.8954
vn 0.3201 0.3313 0.8875
vn 0.3053 0.3313 0.8927
vn 0.3039 0.3461 0.8876
vn 0.3073 0.3164 0.8974
vn 0.3072 0.3164 0.8975
vn 0.3354 0.3164 0.8873
vn 0.3088 0.3014 0.9020
usemtl None
s 1
f 10//1 33//2 32//2
f 1//3 15//4 13//5
f 18//6 10//1 11//7
f 20//8 2//9 1//3
f 27//10 26//10 3//11
f 9//12 34//13 8//14
f 36//15 7//16 6//17
f 5//18 1//3 32//2
f 1//3 4//19 31//20
f 31//20 11//7 1//3
f 11//7 10//1 32//2
f 32//2 1//3 11//7
f 1//3 3//11 15//4
f 3//11 16//4 15//4
f 15//4 14//5 13//5
f 12//5 4//19 13//5
f 4//19 1//3 13//5
f 18//6 17//21 10//1
f 6//17 7//16 22//22
f 7//16 21//23 23//8
f 20//8 19//22 2//9
f 7//16 23//8 22//22
f 21//23 20//8 5//18
f 23//8 21//23 25//22
f 25//22 24//8 23//8
f 1//3 5//18 20//8
f 5//18 25//22 21//23
f 1//3 2//9 29//10
f 2//9 30//24 29//10
f 29//10 28//10 1//3
f 28//10 27//10 1//3
f 8//14 3//11 9//12
f 3//11 1//3 27//10
f 26//10 9//12 3//11
f 36//15 35//25 7//16
