# Blender v2.81 (sub 16) OBJ File: ''
# www.blender.org
mtllib East Timor.mtl
o 0_East_Timor_sphere.001
v -2.902725 -0.782175 -3.995259
v -2.915040 -0.782175 -3.986012
v -2.833955 -0.782175 -4.043591
v -2.902093 -0.788638 -3.994389
v -2.907081 -0.732953 -4.001252
v -2.951819 -0.730163 -3.968188
v -2.974372 -0.719380 -3.953284
v -2.999573 -0.730094 -3.932346
v -2.972041 -0.753458 -3.948620
v -2.896602 -0.791286 -3.997709
v -2.835222 -0.815926 -4.035839
v -2.836385 -0.789828 -4.040327
v -2.840827 -0.752471 -4.044226
v -2.903309 -0.733164 -4.003864
v -2.830818 -0.772827 -4.047515
vn -0.5686 -0.1488 -0.8090
vn -0.5681 -0.1542 -0.8083
vn -0.5937 -0.1488 -0.7908
vn -0.5672 -0.1641 -0.8071
vn -0.5765 -0.1641 -0.8004
vn -0.5805 -0.1564 -0.7990
vn -0.5935 -0.1508 -0.7905
vn -0.5816 -0.1488 -0.7997
vn -0.5672 -0.1641 -0.8070
usemtl None
s 1
f 13//1 15//1 3//2
f 9//3 7//3 6//3
f 10//4 4//5 1//6
f 4//5 2//7 1//6
f 3//2 1//6 13//1
f 1//6 5//8 14//1
f 13//1 1//6 14//1
f 1//6 2//7 5//8
f 2//7 9//3 6//3
f 9//3 8//3 7//3
f 6//3 5//8 2//7
f 1//6 3//2 10//4
f 3//2 12//9 10//4
f 12//9 11//9 10//4
