# Blender v2.81 (sub 16) OBJ File: ''
# www.blender.org
mtllib Ecuador.mtl
o 0_Ecuador_sphere.001
v 1.243292 -0.078539 4.842310
v 1.090712 -0.000003 4.879579
v 1.090578 -0.078539 4.878973
v 1.090174 -0.157056 4.877165
v 1.089501 -0.235535 4.874159
v 0.936788 0.078534 4.910822
v 0.936903 -0.000003 4.911431
v 0.936788 -0.078539 4.910822
v 0.936441 -0.157056 4.909002
v 0.935863 -0.235535 4.905976
v 0.935054 -0.313955 4.901738
v 0.934015 -0.392298 4.896294
v 1.130691 -0.235535 4.864271
v 1.243440 -0.002323 4.842894
v 0.848117 -0.000003 4.926927
v 0.818047 -0.078539 4.931545
v 1.273973 -0.078539 4.833917
v 1.090654 0.034179 4.879315
v 1.242926 -0.140875 4.840886
v 0.799358 -0.157056 4.932926
v 0.900860 -0.392298 4.902081
v 1.239367 -0.000003 4.843890
v 0.936679 0.103087 4.910253
v 1.015368 -0.313955 4.885106
v 0.884270 -0.235535 4.914980
v 0.982886 -0.392298 4.886173
v 1.038250 0.078534 4.889810
v 0.933373 -0.431890 4.892922
v 1.226453 -0.157056 4.844448
v 0.845226 -0.313955 4.917415
v 0.889070 0.078534 4.919150
v 1.089334 -0.249437 4.873413
v 0.833757 -0.024739 4.929235
v 0.886905 -0.231812 4.914669
v 0.868594 -0.193730 4.919382
v 0.835497 -0.234222 4.923545
v 0.784312 -0.196029 4.934000
v 0.801900 -0.171440 4.931910
v 0.981668 -0.396439 4.886059
v 0.998633 -0.337714 4.886855
v 1.154405 -0.227554 4.858900
v 0.932918 -0.432222 4.892972
v 0.866281 0.031467 4.923504
v 0.860243 0.067075 4.924273
v 0.787724 -0.092273 4.936509
v 0.817875 -0.079106 4.931562
v 1.051728 0.070690 4.887082
v 1.067639 0.072079 4.883776
v 1.088531 0.034534 4.879752
v 1.262535 -0.013259 4.837580
v 1.051828 -0.261929 4.880478
v 0.840602 -0.296936 4.919172
v 1.160582 0.022444 4.862623
v 1.184664 0.036328 4.856728
v 1.226351 0.007407 4.846955
v 0.907284 0.085785 4.915798
v 1.274145 -0.079522 4.833846
v 1.247598 -0.136256 4.839720
v 0.966049 0.120511 4.903750
v 0.897635 -0.388299 4.902930
v 0.863127 -0.378885 4.909629
v 0.827620 -0.385818 4.915329
v 0.825681 -0.353926 4.917956
v 0.850393 -0.333192 4.915132
vn 0.2334 -0.0053 0.9724
vn 0.2181 0.0000 0.9759
vn 0.2181 -0.0157 0.9758
vn 0.2028 0.0079 0.9792
vn 0.2028 0.0105 0.9792
vn 0.1874 0.0000 0.9823
vn 0.1874 -0.0157 0.9821
vn 0.1873 -0.0314 0.9818
vn 0.2180 -0.0314 0.9754
vn 0.2179 -0.0471 0.9748
vn 0.1871 -0.0471 0.9812
vn 0.1874 0.0157 0.9821
vn 0.1718 0.0236 0.9848
vn 0.1719 0.0097 0.9850
vn 0.1719 0.0079 0.9850
vn 0.1719 0.0079 0.9851
vn 0.1719 -0.0079 0.9851
vn 0.1719 -0.0027 0.9851
vn 0.1718 -0.0234 0.9848
vn 0.1718 -0.0236 0.9848
vn 0.1718 -0.0305 0.9846
vn 0.1718 -0.0392 0.9843
vn 0.1717 -0.0549 0.9836
vn 0.1870 -0.0627 0.9803
vn 0.1717 -0.0502 0.9839
vn 0.1715 -0.0705 0.9826
vn 0.2020 -0.0864 0.9756
vn 0.1868 -0.0784 0.9792
vn 0.1804 -0.0864 0.9798
vn 0.2022 -0.0705 0.9768
vn 0.2333 -0.0392 0.9716
vn 0.2333 -0.0274 0.9720
vn 0.1711 -0.0863 0.9814
vn 0.1714 -0.0749 0.9823
vn 0.2639 -0.0079 0.9645
vn 0.2486 -0.0157 0.9684
vn 0.2638 -0.0167 0.9644
vn 0.2025 -0.0549 0.9777
vn 0.2334 0.0079 0.9723
vn 0.2147 -0.0549 0.9751
vn 0.2332 -0.0408 0.9716
vn 0.2638 -0.0236 0.9643
vn 0.2027 0.0236 0.9789
vn 0.2438 -0.0079 0.9698
vn 0.2166 0.0079 0.9762
vn 0.2027 0.0079 0.9792
vn 0.1924 0.0236 0.9810
vn 0.1719 -0.0168 0.9850
vn 0.1716 -0.0613 0.9832
vn 0.2022 -0.0771 0.9763
vn 0.2024 -0.0597 0.9774
vn 0.2412 -0.0236 0.9702
vn 0.2637 -0.0236 0.9643
usemtl None
s 1
f 22//1 2//2 3//3
f 47//4 27//5 7//6
f 2//2 8//7 3//3
f 3//3 9//8 4//9
f 5//10 9//8 10//11
f 6//12 56//13 31//14
f 31//14 44//15 43//16
f 33//17 8//7 15//18
f 46//19 45//20 20//21
f 34//22 10//11 9//8
f 52//23 11//24 25//25
f 11//24 64//26 60//26
f 39//27 12//28 28//29
f 40//30 11//24 12//28
f 41//31 29//32 4//9
f 42//33 12//28 21//34
f 50//35 1//36 17//37
f 5//10 10//11 51//38
f 55//39 53//39 2//2
f 3//3 29//32 1//36
f 32//40 13//41 5//10
f 57//42 17//37 1//36
f 59//43 6//12 27//5
f 3//3 1//36 22//1
f 1//36 14//44 22//1
f 7//6 2//2 47//4
f 2//2 18//45 49//4
f 49//4 48//46 47//4
f 2//2 49//4 47//4
f 27//5 6//12 7//6
f 2//2 7//6 8//7
f 3//3 8//7 9//8
f 5//10 4//9 9//8
f 6//12 23//47 56//13
f 15//18 7//6 43//16
f 7//6 6//12 31//14
f 43//16 7//6 31//14
f 16//48 8//7 33//17
f 8//7 7//6 15//18
f 20//21 9//8 46//19
f 9//8 8//7 46//19
f 8//7 16//48 46//19
f 9//8 20//21 35//22
f 20//21 38//22 35//22
f 38//22 37//22 36//22
f 38//22 36//22 35//22
f 34//22 25//25 10//11
f 35//22 34//22 9//8
f 30//49 11//24 52//23
f 11//24 10//11 25//25
f 21//34 12//28 60//26
f 12//28 11//24 60//26
f 11//24 30//49 64//26
f 64//26 63//26 61//26
f 63//26 62//26 61//26
f 64//26 61//26 60//26
f 39//27 26//50 12//28
f 12//28 26//50 40//30
f 40//30 24//51 11//24
f 5//10 13//41 4//9
f 13//41 41//31 4//9
f 42//33 28//29 12//28
f 50//35 14//44 1//36
f 11//24 24//51 10//11
f 24//51 51//38 10//11
f 51//38 32//40 5//10
f 2//2 22//1 55//39
f 55//39 54//39 53//39
f 53//39 18//45 2//2
f 4//9 29//32 3//3
f 29//32 19//52 1//36
f 1//36 19//52 58//53
f 58//53 57//42 1//36
f 59//43 23//47 6//12
