# Blender v2.81 (sub 16) OBJ File: ''
# www.blender.org
mtllib Egypt.mtl
o 0_Egypt_sphere.001
v 3.737174 1.913415 -2.715209
v 3.559518 2.545206 -2.419039
v 3.592144 2.477292 -2.441212
v 3.623884 2.408767 -2.462783
v 3.741828 2.128895 -2.542937
v 3.769022 2.057570 -2.561419
v 3.795287 1.985738 -2.579269
v 3.820617 1.913415 -2.596482
v 3.633746 2.545206 -2.306038
v 3.699454 2.408767 -2.347739
v 3.730943 2.339648 -2.367722
v 3.761510 2.269951 -2.387121
v 3.791152 2.199694 -2.405932
v 3.819857 2.128895 -2.424148
v 3.847619 2.057570 -2.441767
v 3.874431 1.985738 -2.458784
v 3.900289 1.913415 -2.475192
v 3.669520 2.612492 -2.170141
v 3.704387 2.545206 -2.190762
v 3.738341 2.477292 -2.210842
v 3.771373 2.408767 -2.230378
v 3.803474 2.339648 -2.249362
v 3.834636 2.269951 -2.267791
v 3.864854 2.199694 -2.285662
v 3.894117 2.128895 -2.302968
v 3.922418 2.057570 -2.319706
v 3.949752 1.985738 -2.335872
v 3.976112 1.913415 -2.351460
v 3.771373 2.545206 -2.073323
v 3.805940 2.477292 -2.092327
v 3.839570 2.408767 -2.110816
v 3.872252 2.339648 -2.128782
v 3.903977 2.269951 -2.146223
v 3.934741 2.199694 -2.163136
v 3.964533 2.128895 -2.179514
v 3.993346 2.057570 -2.195355
v 4.021174 1.985738 -2.210654
v 4.048011 1.913415 -2.225407
v 3.834637 2.545206 -1.953838
v 3.869784 2.477292 -1.971747
v 3.903978 2.408767 -1.989170
v 3.937208 2.339648 -2.006101
v 3.969465 2.269951 -2.022537
v 4.000746 2.199694 -2.038475
v 4.031037 2.128895 -2.053909
v 4.060334 2.057570 -2.068837
v 4.088629 1.985738 -2.083255
v 4.115916 1.913415 -2.097157
v 3.857463 2.612492 -1.815178
v 3.894116 2.545206 -1.832425
v 3.929809 2.477292 -1.849221
v 3.964533 2.408767 -1.865562
v 3.998278 2.339648 -1.881440
v 4.031035 2.269951 -1.896855
v 4.062801 2.199694 -1.911803
v 4.093562 2.128895 -1.926278
v 4.123314 2.057570 -1.940278
v 4.152048 1.985738 -1.953800
v 4.179758 1.913415 -1.966838
v 4.158536 1.985738 -1.939431
v 4.194488 1.873223 -1.973770
v 3.716570 2.199694 -2.519473
v 3.608203 2.408767 -2.485096
v 4.004542 2.339648 -1.867567
v 3.730561 1.932718 -2.710405
v 3.537694 2.589036 -2.404207
v 3.677472 2.612492 -2.156199
v 3.668656 2.614101 -2.169631
v 4.100018 2.128895 -1.911980
v 3.750143 1.873837 -2.724632
v 3.695969 2.339648 -2.420965
v 3.677585 2.339648 -2.448952
v 3.654954 2.339648 -2.483404
v 3.833796 1.874073 -2.605439
v 3.941405 2.477292 -1.823540
v 3.669238 2.477292 -2.323607
v 3.546371 2.545206 -2.437746
v 3.989809 1.874128 -2.359560
v 3.913929 1.873530 -2.483849
v 3.610937 2.590076 -2.291564
v 3.734890 1.985738 -2.665206
v 4.186339 1.913415 -1.952262
v 4.037342 2.269951 -1.882887
v 3.662910 2.477292 -2.333480
v 3.716735 2.192076 -2.525884
v 3.860131 2.612492 -1.809269
v 3.722210 1.913415 -2.735139
v 3.662214 2.487155 -2.324106
v 3.643086 2.612492 -2.213277
v 3.719125 2.128895 -2.575239
v 4.129751 2.057570 -1.926021
v 3.706429 2.269951 -2.470974
v 3.563936 2.477292 -2.481348
v 3.970787 2.408767 -1.851712
v 3.804849 2.612492 -1.922576
v 3.759185 2.568308 -2.066623
v 3.854538 2.617676 -1.813801
v 3.672069 2.466682 -2.330359
v 4.062268 1.873248 -2.233245
v 4.130056 1.874231 -2.104363
v 3.686947 2.408767 -2.366779
v 3.676450 2.408767 -2.382759
v 4.069213 2.199694 -1.897602
v 3.902390 2.545206 -1.814101
v 3.654368 2.340458 -2.483500
v 3.800610 2.608639 -1.936501
v 3.714584 2.057570 -2.638877
v 3.716446 2.202959 -2.516690
v 3.711531 1.889316 -2.765617
v 3.708382 1.872734 -2.780996
v 3.630026 2.607024 -2.240888
v 3.638313 2.570024 -2.269992
v 3.616748 2.594522 -2.276960
v 3.931791 2.503122 -1.808377
v 4.201273 1.872884 -1.959075
v 3.756518 2.565367 -2.074873
v 3.715660 2.588890 -2.117924
v 3.689242 2.610349 -2.138167
v 3.533638 2.591509 -2.407389
v 3.629511 2.373670 -2.487708
v 3.716990 2.160145 -2.552183
v 3.742497 1.961647 -2.672121
v 3.660474 2.488705 -2.325116
v 3.659190 2.333718 -2.482564
v 3.674944 2.320086 -2.471477
v 3.697576 2.323930 -2.433388
v 4.053593 1.872866 -2.248766
v 3.891944 1.872798 -2.517857
v 3.652725 2.616504 -2.192759
v 4.083578 2.166784 -1.904185
v 3.811617 2.618685 -1.899982
v 3.899146 2.549731 -1.814665
v 3.886474 2.581675 -1.796003
v 3.594005 2.431421 -2.483236
v 3.567648 2.461974 -2.490984
v 3.711498 2.027636 -2.666280
v 3.725624 2.013682 -2.656908
v 3.789829 2.598992 -1.969273
v 3.766870 2.576918 -2.041031
v 3.593315 2.576744 -2.333008
v 3.563398 2.572549 -2.383152
v 3.667963 2.481828 -2.320647
v 3.953937 2.442079 -1.843700
v 3.678232 2.344951 -2.442755
v 3.681851 2.379214 -2.403578
v 3.688732 2.401379 -2.371322
v 3.855640 2.617615 -1.811452
v 3.719847 2.115515 -2.584938
vn 0.7534 0.3899 -0.5295
vn 0.7591 0.3971 -0.5159
vn 0.7641 0.3826 -0.5193
vn 0.7119 0.5090 -0.4838
vn 0.7161 0.5157 -0.4704
vn 0.7268 0.5090 -0.4612
vn 0.7228 0.5022 -0.4747
vn 0.7184 0.4954 -0.4882
vn 0.7316 0.4835 -0.4806
vn 0.7248 0.4817 -0.4925
vn 0.7516 0.4374 -0.4937
vn 0.7582 0.4399 -0.4812
vn 0.7640 0.4257 -0.4848
vn 0.7484 0.4257 -0.5086
vn 0.7695 0.4115 -0.4884
vn 0.7538 0.4115 -0.5123
vn 0.7749 0.3971 -0.4917
vn 0.7801 0.3826 -0.4950
vn 0.7305 0.5157 -0.4476
vn 0.7300 0.5166 -0.4473
vn 0.7409 0.5090 -0.4382
vn 0.7424 0.4886 -0.4583
vn 0.7477 0.4954 -0.4422
vn 0.7543 0.4817 -0.4461
vn 0.7462 0.4679 -0.4736
vn 0.7607 0.4679 -0.4499
vn 0.7669 0.4539 -0.4536
vn 0.7523 0.4540 -0.4774
vn 0.7730 0.4399 -0.4571
vn 0.7788 0.4257 -0.4606
vn 0.7845 0.4115 -0.4639
vn 0.7899 0.3971 -0.4672
vn 0.7952 0.3826 -0.4703
vn 0.7987 0.4115 -0.4391
vn 0.8042 0.3971 -0.4421
vn 0.8096 0.3826 -0.4451
vn 0.7339 0.5224 -0.4340
vn 0.7299 0.5292 -0.4326
vn 0.7439 0.5162 -0.4243
vn 0.7442 0.5157 -0.4245
vn 0.7523 0.5158 -0.4099
vn 0.7543 0.5090 -0.4147
vn 0.7612 0.4954 -0.4185
vn 0.7679 0.4817 -0.4222
vn 0.7745 0.4679 -0.4258
vn 0.7808 0.4539 -0.4292
vn 0.7870 0.4399 -0.4326
vn 0.7929 0.4257 -0.4359
vn 0.7572 0.5157 -0.4009
vn 0.7645 0.5158 -0.3865
vn 0.7669 0.5090 -0.3908
vn 0.7739 0.4954 -0.3943
vn 0.7808 0.4817 -0.3978
vn 0.7874 0.4679 -0.4012
vn 0.7939 0.4539 -0.4045
vn 0.8001 0.4399 -0.4077
vn 0.8062 0.4257 -0.4108
vn 0.8121 0.4115 -0.4138
vn 0.8177 0.3971 -0.4166
vn 0.8232 0.3826 -0.4194
vn 0.7687 0.5170 -0.3765
vn 0.7715 0.5224 -0.3630
vn 0.7788 0.5090 -0.3665
vn 0.7860 0.4954 -0.3698
vn 0.7929 0.4817 -0.3731
vn 0.7996 0.4679 -0.3763
vn 0.8062 0.4539 -0.3793
vn 0.8126 0.4399 -0.3823
vn 0.8187 0.4257 -0.3852
vn 0.8247 0.4115 -0.3880
vn 0.8304 0.3971 -0.3908
vn 0.8360 0.3826 -0.3934
vn 0.7733 0.5291 -0.3492
vn 0.7784 0.5200 -0.3515
vn 0.7808 0.5157 -0.3525
vn 0.7853 0.5075 -0.3546
vn 0.7881 0.5022 -0.3558
vn 0.7909 0.4968 -0.3571
vn 0.7952 0.4886 -0.3591
vn 0.8055 0.4679 -0.3637
vn 0.8121 0.4540 -0.3666
vn 0.8185 0.4399 -0.3695
vn 0.8216 0.4328 -0.3710
vn 0.8307 0.4115 -0.3750
vn 0.8365 0.3971 -0.3777
vn 0.8420 0.3826 -0.3802
vn 0.7331 0.4803 -0.4816
vn 0.7399 0.4817 -0.4696
vn 0.7455 0.4521 -0.4897
vn 0.7401 0.3786 -0.5557
vn 0.7498 0.3754 -0.5448
vn 0.7412 0.3753 -0.5565
vn 0.8387 0.3754 -0.3945
vn 0.7049 0.5076 -0.4954
vn 0.7060 0.5158 -0.4853
vn 0.7200 0.4748 -0.5060
vn 0.7335 0.4747 -0.4864
vn 0.7375 0.4328 -0.5183
vn 0.7411 0.4236 -0.5209
vn 0.7417 0.4609 -0.4872
vn 0.7372 0.4712 -0.4842
vn 0.7378 0.4696 -0.4848
vn 0.8051 0.3753 -0.4592
vn 0.7747 0.3753 -0.5089
vn 0.7235 0.5291 -0.4434
vn 0.7620 0.5291 -0.3733
vn 0.7487 0.3899 -0.5361
vn 0.7474 0.3826 -0.5430
vn 0.7138 0.4886 -0.5017
vn 0.7483 0.4043 -0.5259
vn 0.8258 0.3754 -0.4208
vn 0.7978 0.3754 -0.4718
vn 0.7373 0.5022 -0.4518
vn 0.7356 0.4748 -0.4832
vn 0.7113 0.4940 -0.4999
vn 0.7430 0.4186 -0.5222
vn 0.7666 0.3754 -0.5209
vn 0.7509 0.3969 -0.5278
vn 0.7248 0.5158 -0.4566
vn 0.7252 0.4971 -0.4764
vn 0.7337 0.5022 -0.4575
vn 0.7507 0.4329 -0.4991
vn 0.7305 0.5157 -0.4477
vn 0.7414 0.4939 -0.4543
vn 0.7677 0.5292 -0.3614
vn 0.7987 0.4817 -0.3606
vn 0.8246 0.4257 -0.3723
vn 0.7477 0.4469 -0.4911
vn 0.8448 0.3753 -0.3814
vn 0.7009 0.5157 -0.4926
vn 0.7165 0.4828 -0.5036
vn 0.7396 0.4657 -0.4858
vn 0.8121 0.3754 -0.4466
vn 0.7825 0.3754 -0.4967
vn 0.7467 0.4086 -0.5248
usemtl None
s 1
f 122//1 7//2 8//3
f 2//4 140//5 9//6
f 2//4 9//6 123//7
f 3//8 102//9 4//10
f 62//11 13//12 14//13
f 5//14 15//15 6//16
f 6//16 16//17 7//2
f 8//3 16//17 17//18
f 112//19 89//20 19//21
f 98//22 20//23 21//24
f 11//25 21//24 22//26
f 11//25 23//27 12//28
f 13//12 23//27 24//29
f 14//13 24//29 25//30
f 14//13 26//31 15//15
f 15//15 27//32 16//17
f 17//18 27//32 28//33
f 25//30 36//34 26//31
f 26//31 37//35 27//32
f 28//33 37//35 38//36
f 18//37 68//38 67//39
f 116//40 96//41 29//42
f 19//21 30//43 20//23
f 20//23 31//44 21//24
f 22//26 31//44 32//45
f 22//26 33//46 23//27
f 24//29 33//46 34//47
f 24//29 35//48 25//30
f 138//49 106//50 39//51
f 29//42 40//52 30//43
f 30//43 41//53 31//44
f 32//45 41//53 42//54
f 32//45 43//55 33//46
f 34//47 43//55 44//56
f 34//47 45//57 35//48
f 35//48 46//58 36//34
f 36//34 47//59 37//35
f 38//36 47//59 48//60
f 95//61 49//62 50//63
f 39//51 51//64 40//52
f 40//52 52//65 41//53
f 42//54 52//65 53//66
f 42//54 54//67 43//55
f 44//56 54//67 55//68
f 44//56 56//69 45//57
f 45//57 57//70 46//58
f 46//58 58//71 47//59
f 48//60 58//71 59//72
f 49//62 147//73 86//74
f 132//75 104//76 50//63
f 50//63 104//76 114//77
f 51//64 75//78 143//79
f 52//65 64//80 53//66
f 53//66 83//81 54//67
f 54//67 103//82 55//68
f 55//68 103//82 130//83
f 56//69 91//84 57//70
f 57//70 60//85 58//71
f 58//71 82//86 59//72
f 101//87 98//22 10//88
f 92//89 12//28 13//12
f 87//90 70//91 109//92
f 82//86 61//93 59//72
f 77//94 66//95 2//4
f 120//96 4//10 105//97
f 121//98 5//14 90//99
f 126//100 11//25 12//28
f 72//101 124//100 73//102
f 127//103 28//33 38//36
f 128//104 8//3 17//18
f 129//105 18//37 89//20
f 131//106 49//62 95//61
f 87//90 65//107 1//108
f 3//8 4//10 134//109
f 6//16 7//2 137//110
f 100//111 38//36 48//60
f 78//112 17//18 28//33
f 100//111 59//72 61//93
f 19//21 20//23 142//113
f 144//114 72//101 105//97
f 146//114 10//88 11//25
f 77//94 3//8 93//115
f 148//116 5//14 6//16
f 74//117 1//108 8//3
f 8//3 1//108 122//1
f 1//108 65//107 122//1
f 122//1 81//118 7//2
f 2//4 66//95 141//5
f 140//5 80//119 9//6
f 2//4 141//5 140//5
f 84//120 3//8 123//7
f 3//8 2//4 123//7
f 9//6 88//121 123//7
f 3//8 84//120 102//9
f 14//13 5//14 62//11
f 5//14 85//122 62//11
f 5//14 14//13 15//15
f 6//16 15//15 16//17
f 8//3 7//2 16//17
f 9//6 80//119 112//19
f 80//119 113//123 112//19
f 112//19 111//19 89//20
f 18//37 19//21 89//20
f 19//21 9//6 112//19
f 21//24 10//88 98//22
f 98//22 76//124 20//23
f 11//25 10//88 21//24
f 11//25 22//26 23//27
f 13//12 12//28 23//27
f 14//13 13//12 24//29
f 14//13 25//30 26//31
f 15//15 26//31 27//32
f 17//18 16//17 27//32
f 25//30 35//48 36//34
f 26//31 36//34 37//35
f 28//33 27//32 37//35
f 29//42 19//21 117//40
f 19//21 18//37 67//39
f 29//42 117//40 116//40
f 67//39 118//40 19//21
f 118//40 117//40 19//21
f 19//21 29//42 30//43
f 20//23 30//43 31//44
f 22//26 21//24 31//44
f 22//26 32//45 33//46
f 24//29 23//27 33//46
f 24//29 34//47 35//48
f 39//51 29//42 139//49
f 29//42 96//41 139//49
f 139//49 138//49 39//51
f 29//42 39//51 40//52
f 30//43 40//52 41//53
f 32//45 31//44 41//53
f 32//45 42//54 43//55
f 34//47 33//46 43//55
f 34//47 44//56 45//57
f 35//48 45//57 46//58
f 36//34 46//58 47//59
f 38//36 37//35 47//59
f 50//63 39//51 95//61
f 39//51 106//50 95//61
f 39//51 50//63 51//64
f 40//52 51//64 52//65
f 42//54 41//53 52//65
f 42//54 53//66 54//67
f 44//56 43//55 54//67
f 44//56 55//68 56//69
f 45//57 56//69 57//70
f 46//58 57//70 58//71
f 48//60 47//59 58//71
f 49//62 97//125 147//73
f 50//63 49//62 133//75
f 49//62 86//74 133//75
f 133//75 132//75 50//63
f 75//78 51//64 114//77
f 51//64 50//63 114//77
f 94//126 52//65 143//79
f 52//65 51//64 143//79
f 52//65 94//126 64//80
f 53//66 64//80 83//81
f 54//67 83//81 103//82
f 69//127 56//69 130//83
f 56//69 55//68 130//83
f 56//69 69//127 91//84
f 57//70 91//84 60//85
f 58//71 60//85 82//86
f 13//12 62//11 108//128
f 108//128 92//89 13//12
f 1//108 70//91 87//90
f 70//91 110//92 109//92
f 82//86 115//129 61//93
f 77//94 119//130 66//95
f 120//96 63//131 4//10
f 121//98 85//122 5//14
f 12//28 92//89 126//100
f 126//100 71//132 11//25
f 72//101 125//100 124//100
f 38//36 99//133 127//103
f 127//103 78//112 28//33
f 17//18 79//134 128//104
f 128//104 74//117 8//3
f 129//105 68//38 18//37
f 131//106 97//125 49//62
f 4//10 63//131 134//109
f 134//109 135//109 3//8
f 135//109 93//115 3//8
f 7//2 81//118 137//110
f 137//110 136//110 107//135
f 107//135 6//16 137//110
f 100//111 99//133 38//36
f 78//112 79//134 17//18
f 100//111 48//60 59//72
f 20//23 76//124 142//113
f 142//113 88//121 9//6
f 9//6 19//21 142//113
f 72//101 73//102 105//97
f 105//97 4//10 144//114
f 4//10 102//9 145//114
f 144//114 4//10 145//114
f 11//25 71//132 146//114
f 146//114 101//87 10//88
f 77//94 2//4 3//8
f 6//16 107//135 148//116
f 148//116 90//99 5//14
f 74//117 70//91 1//108
