# Blender v2.81 (sub 16) OBJ File: ''
# www.blender.org
mtllib El Salvador.mtl
o 0_El_Salvador_sphere.001
v 0.152712 1.167225 4.859443
v 0.152925 1.138051 4.866200
v 0.047331 1.243447 4.842161
v 0.061349 1.243447 4.841941
v -0.000002 1.203619 4.852800
v -0.000002 1.181028 4.858413
v 0.152429 1.203489 4.850438
v 0.188926 1.167225 4.857736
v 0.030937 1.167225 4.861356
v 0.015914 1.168928 4.861169
v 0.023521 1.220871 4.848144
v 0.039386 1.230201 4.845577
v 0.034876 1.240180 4.843169
v 0.079585 1.238233 4.842950
v 0.097883 1.221349 4.846858
v 0.123506 1.207807 4.849819
v 0.126733 1.196410 4.852601
v 0.054641 1.245358 4.841540
v 0.128855 1.138586 4.866455
v 0.098236 1.146676 4.865061
v 0.063068 1.163559 4.861701
v -0.008106 1.187124 4.856771
v -0.005484 1.199561 4.853722
v 0.163803 1.206539 4.849143
v 0.181276 1.200457 4.849832
v 0.192878 1.191265 4.851571
v 0.178055 1.137304 4.865189
v 0.187301 1.157305 4.860113
vn 0.0152 0.2424 0.9700
vn 0.0153 0.2423 0.9701
vn 0.0152 0.2411 0.9704
vn 0.0151 0.2562 0.9665
vn 0.0153 0.2257 0.9741
vn 0.0308 0.2257 0.9737
vn 0.0305 0.2334 0.9719
vn -0.0151 0.2411 0.9704
vn 0.0064 0.2411 0.9705
vn 0.0063 0.2411 0.9705
vn 0.0457 0.2411 0.9694
vn 0.0331 0.2411 0.9699
vn 0.0459 0.2257 0.9731
vn 0.0458 0.2342 0.9711
vn 0.0152 0.2405 0.9705
vn 0.0153 0.2411 0.9704
vn 0.0152 0.2410 0.9704
vn -0.0153 0.2411 0.9704
vn 0.0456 0.2411 0.9694
usemtl None
s 1
f 4//1 3//2 12//3
f 4//1 18//4 3//2
f 19//5 2//6 1//7
f 23//8 6//9 5//10
f 24//11 7//12 1//7
f 28//13 8//14 1//7
f 9//15 1//7 17//3
f 1//7 7//12 17//3
f 17//3 16//16 15//3
f 6//9 10//3 5//10
f 10//3 9//15 11//3
f 5//10 10//3 11//3
f 3//2 13//17 12//3
f 12//3 11//3 9//15
f 9//15 17//3 15//3
f 15//3 14//3 12//3
f 14//3 4//1 12//3
f 9//15 15//3 12//3
f 1//7 9//15 21//5
f 21//5 20//5 1//7
f 20//5 19//5 1//7
f 23//8 22//18 6//9
f 1//7 8//14 25//11
f 8//14 26//19 25//11
f 25//11 24//11 1//7
f 1//7 2//6 27//13
f 27//13 28//13 1//7
