# Blender v2.81 (sub 16) OBJ File: ''
# www.blender.org
mtllib Estonia.mtl
o 0_Estonia_sphere.001
v 2.267800 4.303710 -1.155496
v 2.327751 4.263200 -1.186043
v 2.387130 4.221639 -1.216298
v 2.302976 4.303710 -1.083693
v 2.363857 4.263200 -1.112341
v 2.317247 4.263200 -1.205882
v 2.400018 4.238276 -1.129357
v 2.264598 4.305797 -1.153865
v 2.319207 4.303710 -1.047745
v 2.349548 4.294743 -1.016735
v 2.377664 4.276299 -1.028902
v 2.293694 4.309668 -1.079325
v 2.395247 4.215756 -1.220434
v 2.246099 4.303710 -1.196481
v 2.404146 4.221639 -1.181563
v 2.393361 4.263200 -1.046997
v 2.377070 4.221639 -1.235297
v 2.309515 4.306489 -1.057585
v 2.389117 4.215612 -1.232490
v 2.389403 4.268270 -1.035302
v 2.275853 4.312839 -1.103337
v 2.265731 4.305706 -1.151910
v 2.406460 4.215655 -1.197900
v 2.359076 4.230355 -1.239420
v 2.351537 4.294114 -1.014665
v 2.242591 4.306874 -1.191466
v 2.386399 4.257667 -1.083975
v 2.401836 4.251854 -1.072432
v 2.400061 4.238713 -1.127563
v 2.428390 4.230424 -1.097116
v 2.399496 4.232960 -1.149797
v 2.250988 4.299123 -1.203529
v 2.304036 4.273201 -1.195338
vn 0.4536 0.8607 -0.2311
vn 0.4511 0.8647 -0.2210
vn 0.4606 0.8607 -0.2167
vn 0.4728 0.8526 -0.2225
vn 0.4656 0.8526 -0.2372
vn 0.4752 0.8485 -0.2328
vn 0.4778 0.8467 -0.2341
vn 0.4578 0.8647 -0.2067
vn 0.4686 0.8577 -0.2116
vn 0.4703 0.8567 -0.2119
vn 0.4794 0.8401 -0.2539
vn 0.4775 0.8443 -0.2433
vn 0.4833 0.8401 -0.2463
vn 0.4872 0.8401 -0.2387
vn 0.4677 0.8485 -0.2476
vn 0.4725 0.8567 -0.2068
vn 0.4765 0.8567 -0.1974
vn 0.4439 0.8647 -0.2351
vn 0.4515 0.8596 -0.2391
vn 0.4823 0.8485 -0.2178
vn 0.4823 0.8484 -0.2180
vn 0.4559 0.8567 -0.2413
vn 0.4475 0.8647 -0.2282
vn 0.4511 0.8647 -0.2209
vn 0.4540 0.8647 -0.2149
vn 0.4777 0.8485 -0.2277
vn 0.4733 0.8545 -0.2137
vn 0.4701 0.8567 -0.2123
vn 0.4712 0.8460 -0.2495
vn 0.4624 0.8522 -0.2448
vn 0.4823 0.8485 -0.2177
usemtl None
s 1
f 1//1 21//2 4//3
f 1//1 5//4 2//5
f 31//6 15//7 2//5
f 4//3 18//8 9//9
f 9//9 11//10 5//4
f 19//11 3//12 13//13
f 23//14 3//12 15//7
f 24//15 2//5 3//12
f 10//16 25//17 11//10
f 26//18 1//1 14//19
f 27//20 29//21 5//4
f 1//1 2//5 33//22
f 1//1 8//23 22//24
f 22//24 21//2 1//1
f 21//2 12//25 4//3
f 1//1 4//3 5//4
f 15//7 3//12 2//5
f 2//5 5//4 31//6
f 5//4 7//26 31//6
f 4//3 12//25 18//8
f 16//27 5//4 11//10
f 5//4 4//3 9//9
f 9//9 10//16 11//10
f 16//27 11//10 20//28
f 19//11 17//29 3//12
f 23//14 13//13 3//12
f 3//12 17//29 24//15
f 24//15 6//30 2//5
f 26//18 8//23 1//1
f 16//27 28//20 27//20
f 27//20 30//31 29//21
f 29//21 7//26 5//4
f 5//4 16//27 27//20
f 2//5 6//30 33//22
f 33//22 32//22 1//1
f 32//22 14//19 1//1
