# Blender v2.81 (sub 16) OBJ File: ''
# www.blender.org
mtllib Falkland Islands.mtl
o 0_Falkland_Islands_sphere.001
v 1.559975 -3.950777 2.637779
v 1.558017 -3.902154 2.709891
v 1.571301 -3.902154 2.702314
v 1.586926 -3.909039 2.683350
v 1.616839 -3.902154 2.675259
v 1.647551 -3.902154 2.656439
v 1.494471 -3.950777 2.675141
v 1.508198 -3.950777 2.667312
v 1.487888 -3.931897 2.706464
v 1.551178 -3.931740 2.670593
v 1.638089 -3.890955 2.678368
v 1.596035 -3.912883 2.672050
v 1.659027 -3.915614 2.629385
v 1.632509 -3.934448 2.617620
v 1.564732 -3.899229 2.710196
v 1.496275 -3.955955 2.666303
vn 0.3081 -0.7831 0.5401
vn 0.3067 -0.7852 0.5378
vn 0.3067 -0.7853 0.5378
vn 0.3250 -0.7830 0.5304
vn 0.3299 -0.7754 0.5383
vn 0.3252 -0.7827 0.5307
vn 0.3235 -0.7852 0.5279
vn 0.3076 -0.7839 0.5393
vn 0.3128 -0.7754 0.5484
vn 0.3049 -0.7882 0.5345
vn 0.3006 -0.7949 0.5270
vn 0.3054 -0.7875 0.5354
vn 0.3176 -0.7853 0.5314
vn 0.3128 -0.7853 0.5343
usemtl None
s 1
f 2//1 9//2 10//3
f 6//4 11//5 5//6
f 5//6 12//7 14//7
f 3//8 15//9 2//1
f 7//10 16//11 8//12
f 7//10 8//12 9//2
f 8//12 10//3 9//2
f 10//3 1//13 4//14
f 4//14 3//8 10//3
f 3//8 2//1 10//3
f 4//14 1//13 12//7
f 1//13 14//7 12//7
f 14//7 13//7 6//4
f 6//4 5//6 14//7
