# Blender v2.81 (sub 16) OBJ File: ''
# www.blender.org
mtllib French Southern and Antarctic Lands.mtl
o 0_French_Southern_and_Antarctic_Lands_sphere.001
v 1.099964 -3.802032 -3.055262
v 1.177771 -3.802032 -3.025861
v 1.110610 -3.774759 -3.084833
v 1.088757 -3.802032 -3.059099
v 1.095123 -3.814046 -3.041815
v 1.092140 -3.777042 -3.088377
v 1.086087 -3.787895 -3.077230
v 1.170504 -3.817349 -3.009130
v 1.145775 -3.769830 -3.077618
v 1.184638 -3.787163 -3.041581
v 1.186597 -3.763542 -3.069938
v 1.187819 -3.751807 -3.083931
v 1.090936 -3.813787 -3.043574
vn 0.2317 -0.7552 -0.6131
vn 0.2296 -0.7602 -0.6077
vn 0.2123 -0.7552 -0.6201
vn 0.2232 -0.7553 -0.6162
vn 0.2200 -0.7604 -0.6111
vn 0.2184 -0.7655 -0.6052
vn 0.2084 -0.7654 -0.6088
vn 0.2108 -0.7591 -0.6158
vn 0.2275 -0.7654 -0.6019
usemtl None
s 1
f 10//1 2//2 9//1
f 7//3 3//4 1//5
f 2//2 5//6 1//5
f 13//7 1//5 5//6
f 2//2 1//5 9//1
f 1//5 3//4 9//1
f 9//1 12//1 11//1
f 11//1 10//1 9//1
f 1//5 4//8 7//3
f 7//3 6//3 3//4
f 2//2 8//9 5//6
f 13//7 4//8 1//5
