# Blender v2.81 (sub 16) OBJ File: ''
# www.blender.org
mtllib Gabon.mtl
o 0_Gabon_sphere.001
v 4.877172 0.157051 -1.090172
v 4.878979 0.078534 -1.090576
v 4.879582 -0.000003 -1.090710
v 4.878979 -0.078539 -1.090576
v 4.877172 -0.157056 -1.090172
v 4.910828 0.078534 -0.936786
v 4.911434 -0.000003 -0.936900
v 4.910828 -0.078539 -0.936786
v 4.909009 -0.157056 -0.936439
v 4.905981 -0.235535 -0.935861
v 4.901742 -0.313955 -0.935052
v 4.937829 -0.078539 -0.782070
v 4.841815 -0.100467 -1.243162
v 4.841185 -0.128043 -1.243000
v 4.936701 -0.126959 -0.781892
v 4.935413 -0.000003 -0.799501
v 4.901196 -0.321817 -0.934948
v 4.910502 0.092589 -0.936723
v 4.868618 0.157051 -1.125801
v 4.892417 -0.235535 -1.001357
v 4.847098 0.078534 -1.223371
v 4.900524 0.157051 -0.977407
v 4.876602 -0.171940 -1.090045
v 4.932960 -0.157056 -0.799201
v 4.853621 -0.000003 -1.198843
v 4.920216 -0.235535 -0.854297
v 4.887326 -0.313955 -1.004665
v 4.875684 0.195877 -1.089839
v 4.843031 -0.078539 -1.240311
v 4.903119 -0.313955 -0.927160
v 4.841810 -0.157056 -1.237468
v 4.938080 -0.046264 -0.782110
v 4.930889 0.078534 -0.821839
v 4.940065 -0.078539 -0.766364
v 4.901926 0.092298 -0.978169
v 4.877112 -0.170006 -1.087956
v 4.877038 -0.208651 -1.080826
v 4.888556 -0.219325 -1.023140
v 4.894263 -0.346935 -0.959661
v 4.930216 0.088151 -0.824375
v 4.925038 0.093192 -0.853353
v 4.937403 -0.040084 -0.786272
v 4.928764 -0.187078 -0.816386
v 4.868273 0.202549 -1.119585
v 4.865920 0.197796 -1.130186
v 4.868856 0.159753 -1.124355
v 4.854225 0.003387 -1.196215
v 4.840865 -0.116350 -1.245216
v 4.899034 0.197269 -0.976818
v 4.890409 0.203000 -1.017354
v 4.880112 0.191316 -1.069340
v 4.893690 -0.241246 -0.993664
v 4.883921 -0.298866 -1.025201
v 4.933888 0.023449 -0.807171
v 4.915709 -0.259013 -0.872606
v 4.864240 0.114681 -1.148322
v 4.848925 0.121789 -1.211393
v 4.844242 0.104447 -1.232653
v 4.844245 -0.048222 -1.236277
v 4.841913 -0.174345 -1.234129
v 4.846589 -0.215546 -1.207721
v 4.864695 -0.211879 -1.132922
v 4.940002 -0.067983 -0.767395
v 4.939887 -0.096970 -0.764527
vn 0.9785 0.0392 -0.2026
vn 0.9787 0.0314 -0.2027
vn 0.9758 0.0157 -0.2181
vn 0.9789 0.0236 -0.2027
vn 0.9821 0.0157 -0.1874
vn 0.9759 0.0000 -0.2181
vn 0.9823 0.0000 -0.1874
vn 0.9821 -0.0157 -0.1874
vn 0.9758 -0.0157 -0.2181
vn 0.9754 -0.0314 -0.2180
vn 0.9818 -0.0314 -0.1873
vn 0.9848 0.0236 -0.1718
vn 0.9850 0.0144 -0.1719
vn 0.9851 0.0079 -0.1719
vn 0.9851 -0.0078 -0.1719
vn 0.9861 -0.0078 -0.1660
vn 0.9875 -0.0157 -0.1564
vn 0.9857 -0.0236 -0.1666
vn 0.9847 -0.0287 -0.1718
vn 0.9843 -0.0392 -0.1718
vn 0.9842 -0.0437 -0.1718
vn 0.9812 -0.0471 -0.1872
vn 0.9836 -0.0549 -0.1717
vn 0.9834 -0.0588 -0.1716
vn 0.9900 -0.0079 -0.1409
vn 0.9899 -0.0162 -0.1409
vn 0.9785 -0.0392 -0.2026
vn 0.9768 -0.0706 -0.2023
vn 0.9803 -0.0628 -0.1870
vn 0.9783 -0.0707 -0.1945
vn 0.9747 0.0392 -0.2200
vn 0.9754 0.0314 -0.2180
vn 0.9716 0.0392 -0.2333
vn 0.9723 0.0079 -0.2334
vn 0.9716 -0.0236 -0.2352
vn 0.9643 -0.0236 -0.2636
vn 0.9718 -0.0236 -0.2347
vn 0.9777 -0.0550 -0.2025
vn 0.9721 0.0236 -0.2334
vn 0.9724 -0.0033 -0.2334
vn 0.9719 -0.0305 -0.2333
vn 0.9716 -0.0392 -0.2333
vn 0.9897 -0.0236 -0.1408
vn 0.9820 0.0236 -0.1872
vn 0.9851 -0.0016 -0.1719
vn 0.9783 -0.0424 -0.2026
vn 0.9735 -0.0392 -0.2251
vn 0.9776 -0.0580 -0.2024
vn 0.9720 0.0289 -0.2333
vn 0.9722 0.0175 -0.2334
vn 0.9722 -0.0164 -0.2334
vn 0.9777 -0.0549 -0.2025
vn 0.9721 0.0236 -0.2333
vn 0.9723 -0.0078 -0.2334
usemtl None
s 1
f 50//1 49//1 22//2
f 2//3 35//4 6//5
f 3//6 6//5 7//7
f 3//6 8//8 4//9
f 5//10 8//8 9//11
f 41//12 40//12 33//13
f 54//14 7//7 33//13
f 42//15 32//16 12//17
f 12//17 15//18 24//19
f 9//11 43//20 26//21
f 10//22 55//23 30//24
f 12//17 63//25 34//26
f 38//27 36//27 5//10
f 39//28 11//29 17//30
f 28//31 1//32 46//33
f 47//34 2//3 3//6
f 4//9 5//10 14//35
f 30//24 17//30 11//29
f 14//35 48//36 13//37
f 52//38 10//22 11//29
f 56//39 1//32 2//3
f 25//40 3//6 4//9
f 31//41 5//10 62//42
f 64//43 12//17 34//26
f 22//2 1//32 51//1
f 1//32 28//31 51//1
f 51//1 50//1 22//2
f 2//3 1//32 35//4
f 1//32 22//2 35//4
f 35//4 18//44 6//5
f 3//6 2//3 6//5
f 3//6 7//7 8//8
f 5//10 4//9 8//8
f 33//13 6//5 41//12
f 6//5 18//44 41//12
f 16//45 7//7 54//14
f 7//7 6//5 33//13
f 12//17 8//8 42//15
f 8//8 7//7 16//45
f 42//15 8//8 16//45
f 24//19 9//11 8//8
f 8//8 12//17 24//19
f 26//21 10//22 9//11
f 9//11 24//19 43//20
f 30//24 11//29 10//22
f 10//22 26//21 55//23
f 12//17 32//16 63//25
f 10//22 20//46 9//11
f 20//46 38//27 9//11
f 38//27 37//27 36//27
f 36//27 23//47 5//10
f 5//10 9//11 38//27
f 39//28 27//48 11//29
f 1//32 19//49 46//33
f 46//33 45//33 44//33
f 44//33 28//31 46//33
f 3//6 25//40 47//34
f 47//34 21//50 2//3
f 5//10 31//41 14//35
f 14//35 13//37 4//9
f 13//37 29//51 4//9
f 11//29 27//48 52//38
f 27//48 53//52 52//38
f 52//38 20//46 10//22
f 2//3 21//50 56//39
f 21//50 58//53 57//39
f 56//39 21//50 57//39
f 56//39 19//49 1//32
f 4//9 29//51 59//54
f 59//54 25//40 4//9
f 5//10 23//47 62//42
f 62//42 61//42 60//42
f 60//42 31//41 62//42
f 64//43 15//18 12//17
