# Blender v2.81 (sub 16) OBJ File: ''
# www.blender.org
mtllib Guatemala.mtl
o 0_Guatemala_sphere.001
v -0.000002 1.470200 4.778955
v -0.000001 1.394954 4.801462
v -0.000001 1.319363 4.822778
v -0.000002 1.243447 4.842905
v -0.151488 1.319363 4.820398
v -0.152121 1.243447 4.840515
v -0.185119 1.319363 4.818812
v 0.104668 1.319363 4.821134
v -0.107224 1.470200 4.777271
v -0.000002 1.203589 4.852808
v -0.173019 1.243447 4.839529
v -0.150983 1.376365 4.804332
v 0.047416 1.243447 4.842160
v 0.070898 1.470200 4.777842
v -0.038090 1.394954 4.800864
v -0.000002 1.529982 4.760051
v -0.152246 1.227420 4.844495
v 0.066420 1.394954 4.800419
v -0.051552 1.201773 4.852449
v -0.104377 1.203317 4.851235
v -0.142977 1.220198 4.846435
v -0.005478 1.199549 4.853725
v -0.008099 1.187131 4.856769
v -0.188133 1.255061 4.835734
v -0.185816 1.279608 4.829329
v -0.175844 1.299423 4.824541
v -0.187638 1.315149 4.819812
v 0.071197 1.528993 4.759246
v 0.070862 1.462979 4.780002
v 0.064703 1.368526 4.807899
v 0.089754 1.368536 4.807502
v 0.117217 1.353386 4.811342
v 0.124366 1.365914 4.807698
v 0.149074 1.355278 4.810309
v 0.111020 1.323118 4.819975
v 0.071221 1.299508 4.826923
v 0.065347 1.283286 4.831316
v 0.072132 1.266746 4.835595
v 0.054654 1.245333 4.841546
v 0.034887 1.240169 4.843171
v 0.039399 1.230165 4.845586
v 0.023534 1.220836 4.848153
v -0.121156 1.482767 4.773078
v -0.083523 1.482901 4.773627
v -0.083200 1.529771 4.758811
v -0.005643 1.530033 4.759947
v -0.036734 1.412396 4.795668
v -0.050279 1.417473 4.793937
v -0.059498 1.435557 4.788383
v -0.090300 1.454882 4.782118
v -0.146557 1.383733 4.802324
v -0.038947 1.383860 4.803978
vn 0.0000 0.2940 0.9558
vn -0.0150 0.3015 0.9533
vn -0.0150 0.2979 0.9545
vn -0.0150 0.2865 0.9579
vn -0.0151 0.2713 0.9623
vn -0.0201 0.2714 0.9622
vn -0.0303 0.2638 0.9641
vn 0.0000 0.2487 0.9686
vn -0.0304 0.2487 0.9681
vn -0.0455 0.2613 0.9642
vn -0.0455 0.2562 0.9655
vn -0.0456 0.2530 0.9664
vn -0.0152 0.2411 0.9704
vn -0.0240 0.2411 0.9702
vn 0.0150 0.3015 0.9533
vn 0.0150 0.2940 0.9557
vn 0.0150 0.2865 0.9579
vn 0.0000 0.2790 0.9603
vn 0.0151 0.2714 0.9623
vn 0.0151 0.2793 0.9601
vn 0.0152 0.2562 0.9665
vn 0.0000 0.2638 0.9646
vn 0.0152 0.2411 0.9704
vn -0.0000 0.3015 0.9535
vn -0.0149 0.3015 0.9533
vn -0.0150 0.3014 0.9533
vn -0.0151 0.2786 0.9603
vn -0.0150 0.2866 0.9579
vn -0.0456 0.2562 0.9655
vn -0.0152 0.2410 0.9704
vn -0.0063 0.2411 0.9705
vn 0.0151 0.2687 0.9631
vn 0.0151 0.2713 0.9623
vn 0.0151 0.2550 0.9668
vn 0.0151 0.2562 0.9665
usemtl None
s 1
f 1//1 44//2 9//3
f 1//1 49//4 47//4
f 52//5 12//6 5//7
f 4//8 5//7 6//9
f 5//7 12//6 7//10
f 25//11 24//11 11//12
f 19//13 22//13 4//8
f 11//12 17//14 6//9
f 28//15 1//1 14//16
f 29//17 1//1 2//18
f 30//19 18//20 2//18
f 37//21 3//22 4//8
f 42//23 40//23 4//8
f 1//1 16//24 46//25
f 46//25 45//2 44//2
f 44//2 43//26 9//3
f 1//1 46//25 44//2
f 15//27 2//18 47//4
f 2//18 1//1 47//4
f 1//1 9//3 50//4
f 49//4 48//28 47//4
f 1//1 50//4 49//4
f 5//7 3//22 52//5
f 3//22 2//18 52//5
f 2//18 15//27 52//5
f 52//5 51//5 12//6
f 4//8 3//22 5//7
f 11//12 6//9 25//11
f 6//9 5//7 26//11
f 5//7 7//10 26//11
f 7//10 27//29 26//11
f 26//11 25//11 6//9
f 6//9 17//14 21//13
f 21//13 20//13 6//9
f 20//13 19//13 4//8
f 6//9 20//13 4//8
f 19//13 23//30 22//13
f 22//13 10//31 4//8
f 28//15 16//24 1//1
f 2//18 18//20 29//17
f 29//17 14//16 1//1
f 3//22 8//32 30//19
f 8//32 35//19 32//33
f 30//19 8//32 31//19
f 35//19 34//33 32//33
f 34//33 33//33 32//33
f 32//33 31//19 8//32
f 2//18 3//22 30//19
f 4//8 13//34 37//21
f 13//34 39//35 37//21
f 39//35 38//21 37//21
f 36//21 8//32 3//22
f 37//21 36//21 3//22
f 4//8 10//31 42//23
f 42//23 41//23 40//23
f 40//23 13//34 4//8
