# Blender v2.81 (sub 16) OBJ File: ''
# www.blender.org
mtllib Guinea Bissau.mtl
o 0_Guinea_Bissau_sphere.001
v 4.726275 1.090714 1.213507
v 4.742290 1.013934 1.217619
v 4.701704 1.013934 1.365977
v 4.745417 0.997704 1.218422
v 4.687030 1.084890 1.361714
v 4.699026 1.090714 1.313115
v 4.752787 1.013934 1.173899
v 4.728903 1.090714 1.202563
v 4.726206 1.091021 1.213489
v 4.702262 1.011013 1.366139
v 4.701003 1.013934 1.368256
v 4.740457 1.089420 1.155630
v 4.746147 1.060502 1.158605
v 4.745824 1.051600 1.168159
v 4.753438 1.023316 1.162530
v 4.699958 1.092996 1.307701
v 4.717766 0.993157 1.322921
v 4.707169 0.998894 1.357335
v 4.738696 0.999143 1.241902
v 4.736685 0.957362 1.280739
v 4.752627 1.012009 1.176206
v 4.748242 1.011913 1.194551
v 4.745797 0.997599 1.216929
v 4.687928 1.086243 1.357328
v 4.695952 1.083431 1.330292
v 4.696948 1.022995 1.374802
v 4.694412 1.035980 1.373534
v 4.683029 1.054030 1.397319
v 4.677674 1.072268 1.401369
vn 0.9452 0.2181 0.2427
vn 0.9396 0.2259 0.2570
vn 0.9425 0.2125 0.2578
vn 0.9429 0.2105 0.2579
vn 0.9396 0.2105 0.2698
vn 0.9403 0.2028 0.2732
vn 0.9344 0.2105 0.2874
vn 0.9344 0.2105 0.2875
vn 0.9506 0.2105 0.2282
vn 0.9505 0.2106 0.2282
vn 0.9485 0.2028 0.2435
vn 0.9460 0.1950 0.2588
vn 0.9435 0.2257 0.2426
vn 0.9352 0.2062 0.2877
vn 0.9442 0.1952 0.2652
vn 0.9536 0.1952 0.2289
vn 0.9513 0.2071 0.2284
vn 0.9501 0.1950 0.2433
vn 0.9537 0.1950 0.2290
vn 0.9536 0.1955 0.2289
usemtl None
s 1
f 1//1 16//2 6//3
f 24//4 5//5 3//6
f 5//5 28//7 27//8
f 14//9 8//10 2//11
f 19//12 2//11 17//12
f 8//10 9//13 1//1
f 11//14 10//15 3//6
f 22//16 7//17 2//11
f 1//1 9//13 16//2
f 3//6 2//11 6//3
f 2//11 1//1 6//3
f 3//6 6//3 25//4
f 25//4 24//4 3//6
f 11//14 3//6 26//7
f 3//6 5//5 27//8
f 5//5 29//7 28//7
f 27//8 26//7 3//6
f 2//11 7//17 14//9
f 7//17 15//9 14//9
f 14//9 13//9 8//10
f 13//9 12//9 8//10
f 8//10 1//1 2//11
f 3//6 10//15 18//12
f 17//12 20//12 19//12
f 3//6 18//12 17//12
f 4//18 2//11 19//12
f 2//11 3//6 17//12
f 2//11 4//18 23//19
f 22//16 21//20 7//17
f 2//11 23//19 22//16
