# Blender v2.81 (sub 16) OBJ File: ''
# www.blender.org
mtllib Guyana.mtl
o 0_Guyana_sphere.001
v 2.662949 0.548669 4.196144
v 2.667236 0.470539 4.202900
v 2.676153 0.235530 4.216950
v 2.677804 0.157051 4.219550
v 2.519812 0.704504 4.260775
v 2.525132 0.626664 4.269773
v 2.529831 0.548669 4.277719
v 2.533904 0.470539 4.284606
v 2.537357 0.392293 4.290442
v 2.540178 0.313950 4.295215
v 2.542375 0.235530 4.298929
v 2.543943 0.157051 4.301579
v 2.683849 0.157051 4.215579
v 2.419823 0.470539 4.349676
v 2.465941 0.704504 4.291502
v 2.669062 0.431222 4.205777
v 2.649572 0.392293 4.221677
v 2.528554 0.704504 4.255417
v 2.692728 0.470539 4.186155
v 2.496412 0.392293 4.313797
v 2.544154 0.139548 4.301935
v 2.674522 0.290827 4.214381
v 2.661736 0.313950 4.220724
v 2.446949 0.626664 4.314367
v 2.508657 0.313950 4.313195
v 2.593437 0.626664 4.227915
v 2.500997 0.235530 4.322531
v 2.398602 0.548669 4.352570
v 2.677878 0.151140 4.219668
v 2.662541 0.555094 4.195502
v 2.519372 0.710248 4.260031
v 2.712488 0.235530 4.193082
v 2.668902 0.548669 4.192234
v 2.394761 0.537620 4.356063
v 2.396685 0.498630 4.359562
v 2.525160 0.157051 4.312293
v 2.596869 0.594795 4.230235
v 2.624867 0.592756 4.213361
v 2.697764 0.290695 4.199123
v 2.708780 0.241494 4.195126
v 2.379535 0.519052 4.366277
v 2.395341 0.582992 4.349754
v 2.440852 0.596864 4.321905
v 2.458589 0.613094 4.309576
v 2.646355 0.419445 4.220889
v 2.651303 0.398950 4.219940
v 2.483358 0.398768 4.320597
v 2.491519 0.436944 4.312133
v 2.473110 0.456969 4.320636
v 2.433977 0.453137 4.343339
v 2.508717 0.314483 4.313117
v 2.528627 0.345165 4.299261
v 2.509835 0.385598 4.306686
v 2.519050 0.196224 4.314009
v 2.491172 0.727525 4.273124
v 2.430822 0.645221 4.320697
v 2.435304 0.676757 4.313266
v 2.399075 0.542963 4.352973
v 2.542413 0.695761 4.248302
v 2.591949 0.639399 4.226822
v 2.697352 0.520261 4.177025
v 2.689838 0.442134 4.190999
v 2.667053 0.550508 4.193188
v 2.754963 0.165679 4.168461
v 2.737308 0.162554 4.180205
v 2.696821 0.169973 4.206451
v 2.639342 0.354031 4.231122
v 2.673437 0.146799 4.222509
v 2.639956 0.131462 4.243451
v 2.616519 0.127674 4.257917
v 2.608487 0.110595 4.263312
v 2.571935 0.114932 4.285592
v 2.498760 0.240294 4.323504
v 2.525324 0.155883 4.312232
vn 0.5050 0.1253 0.8539
vn 0.5060 0.1097 0.8555
vn 0.5189 0.1175 0.8467
vn 0.5325 0.1097 0.8392
vn 0.5068 0.0941 0.8569
vn 0.5334 0.0941 0.8406
vn 0.5215 0.0600 0.8511
vn 0.5080 0.0627 0.8590
vn 0.5085 0.0471 0.8598
vn 0.5352 0.0471 0.8434
vn 0.5088 0.0314 0.8603
vn 0.5355 0.0314 0.8439
vn 0.5040 0.1409 0.8521
vn 0.4899 0.1487 0.8589
vn 0.4908 0.1363 0.8605
vn 0.4910 0.1331 0.8609
vn 0.4911 0.1331 0.8609
vn 0.4913 0.1289 0.8614
vn 0.4920 0.1175 0.8626
vn 0.4924 0.1099 0.8633
vn 0.4931 0.0977 0.8645
vn 0.4929 0.1019 0.8641
vn 0.4936 0.0863 0.8654
vn 0.5075 0.0785 0.8581
vn 0.4942 0.0706 0.8664
vn 0.4947 0.0549 0.8673
vn 0.4945 0.0619 0.8669
vn 0.4948 0.0494 0.8675
vn 0.4951 0.0392 0.8679
vn 0.5176 0.1357 0.8448
vn 0.4990 0.1487 0.8537
vn 0.5482 0.0549 0.8345
vn 0.5317 0.0549 0.8451
vn 0.5298 0.0236 0.8477
vn 0.5487 0.0358 0.8353
vn 0.4862 0.1018 0.8679
vn 0.4655 0.1019 0.8791
vn 0.4866 0.1019 0.8677
vn 0.5205 0.0863 0.8495
vn 0.5178 0.1331 0.8451
vn 0.5462 0.1018 0.8314
vn 0.5470 0.0863 0.8327
vn 0.5304 0.0863 0.8433
vn 0.5451 0.1175 0.8300
vn 0.5459 0.1055 0.8312
vn 0.5486 0.0392 0.8351
vn 0.5212 0.0706 0.8505
vn 0.5224 0.0236 0.8524
vn 0.5223 0.0236 0.8524
vn 0.4953 0.0238 0.8684
vn 0.4952 0.0323 0.8682
vn 0.5259 0.1176 0.8423
vn 0.5184 0.1250 0.8459
vn 0.4937 0.0842 0.8655
vn 0.4942 0.0705 0.8665
vn 0.4942 0.0707 0.8665
vn 0.5485 0.0440 0.8350
vn 0.5208 0.0802 0.8499
vn 0.5206 0.0863 0.8494
vn 0.5178 0.1331 0.8450
vn 0.5465 0.0950 0.8320
vn 0.5486 0.0392 0.8352
vn 0.5145 0.0236 0.8572
vn 0.5224 0.0235 0.8524
usemtl None
s 1
f 6//1 7//2 37//3
f 1//4 8//5 2//6
f 23//7 10//8 11//9
f 3//10 12//11 4//12
f 5//13 55//14 15//15
f 57//16 56//17 24//18
f 43//19 42//19 28//20
f 14//21 7//2 58//22
f 8//5 49//23 48//23
f 10//8 9//24 52//25
f 73//26 11//9 25//27
f 11//9 27//28 54//29
f 18//30 31//31 5//13
f 39//32 22//33 3//10
f 29//34 13//35 4//12
f 34//36 41//37 35//38
f 8//5 9//24 45//39
f 6//1 59//40 5//13
f 61//41 1//4 2//6
f 62//42 2//6 16//43
f 63//44 1//4 33//45
f 3//10 4//12 66//46
f 67//47 9//24 10//8
f 12//11 72//48 70//49
f 74//50 12//11 36//51
f 7//2 1//4 37//3
f 1//4 30//52 38//3
f 37//3 1//4 38//3
f 37//3 26//53 6//1
f 1//4 7//2 8//5
f 11//9 3//10 23//7
f 3//10 22//33 23//7
f 3//10 11//9 12//11
f 5//13 31//31 55//14
f 24//18 6//1 15//15
f 6//1 5//13 15//15
f 15//15 57//16 24//18
f 28//20 7//2 43//19
f 7//2 6//1 44//19
f 43//19 7//2 44//19
f 6//1 24//18 44//19
f 14//21 8//5 7//2
f 7//2 28//20 58//22
f 58//22 34//36 35//38
f 35//38 14//21 58//22
f 20//54 9//24 48//23
f 9//24 8//5 48//23
f 8//5 14//21 49//23
f 14//21 50//23 49//23
f 47//23 20//54 48//23
f 9//24 20//54 53//55
f 52//25 51//56 10//8
f 51//56 25//27 10//8
f 9//24 53//55 52//25
f 27//28 11//9 73//26
f 11//9 10//8 25//27
f 36//51 12//11 54//29
f 12//11 11//9 54//29
f 3//10 32//57 40//32
f 40//32 39//32 3//10
f 9//24 17//58 45//39
f 17//58 46//59 45//39
f 45//39 16//43 2//6
f 2//6 8//5 45//39
f 6//1 26//53 60//60
f 60//60 59//40 6//1
f 59//40 18//30 5//13
f 2//6 19//61 61//41
f 61//41 33//45 1//4
f 62//42 19//61 2//6
f 63//44 30//52 1//4
f 4//12 13//35 66//46
f 66//46 65//62 32//57
f 65//62 64//62 32//57
f 32//57 3//10 66//46
f 10//8 23//7 67//47
f 67//47 17//58 9//24
f 12//11 21//63 72//48
f 72//48 71//48 70//49
f 70//49 69//49 4//12
f 69//49 68//64 4//12
f 68//64 29//34 4//12
f 4//12 12//11 70//49
f 74//50 21//63 12//11
