# Blender v2.81 (sub 16) OBJ File: ''
# www.blender.org
mtllib Haiti.mtl
o 0_Haiti_sphere.001
v 1.461777 1.619585 4.498898
v 1.415965 1.619585 4.512991
v 1.486899 1.619585 4.490296
v 1.468433 1.555032 4.519382
v 1.353064 1.693688 4.505120
v 1.439156 1.693688 4.478635
v 1.454028 1.691000 4.475047
v 1.322211 1.593065 4.551090
v 1.326060 1.551715 4.564339
v 1.476904 1.686554 4.468865
v 1.488660 1.641694 4.481488
v 1.407644 1.699399 4.486125
v 1.359393 1.703005 4.499578
v 1.316653 1.547607 4.568333
v 1.271486 1.573282 4.571809
v 1.276128 1.599990 4.561302
v 1.438143 1.562773 4.525999
v 1.401332 1.556962 4.539351
v 1.352394 1.563015 4.552293
v 1.350363 1.588518 4.544016
v 1.410703 1.581816 4.527793
v 1.437327 1.600314 4.513146
v 1.486131 1.610003 4.493938
v 1.468512 1.596140 4.504859
v 1.491266 1.571209 4.505860
v 1.492025 1.548723 4.513529
v 1.397620 1.636014 4.512600
v 1.394956 1.667487 4.501857
v 1.344049 1.680366 4.512787
vn 0.2773 0.3321 0.9015
vn 0.2774 0.3313 0.9018
vn 0.2778 0.3276 0.9030
vn 0.3056 0.3313 0.8926
vn 0.2898 0.3313 0.8979
vn 0.2923 0.3239 0.8998
vn 0.2759 0.3460 0.8968
vn 0.2770 0.3356 0.9004
vn 0.2503 0.3164 0.9150
vn 0.2632 0.3165 0.9113
vn 0.2789 0.3164 0.9066
vn 0.2955 0.3165 0.9014
vn 0.3073 0.3164 0.8974
vn 0.2774 0.3312 0.9018
vn 0.3063 0.3247 0.8948
vn 0.2759 0.3460 0.8967
vn 0.2610 0.3165 0.9120
vn 0.3073 0.3164 0.8975
usemtl None
s 1
f 6//1 28//2 2//3
f 11//4 7//5 1//6
f 12//7 5//8 6//1
f 14//9 8//10 15//9
f 17//11 22//11 21//11
f 4//12 24//13 1//6
f 2//3 1//6 6//1
f 1//6 7//5 6//1
f 6//1 5//8 28//2
f 5//8 29//14 28//2
f 28//2 27//2 2//3
f 1//6 3//15 11//4
f 11//4 10//4 7//5
f 12//7 13//16 5//8
f 9//17 8//10 14//9
f 8//10 16//9 15//9
f 8//10 9//17 19//11
f 19//11 18//11 20//11
f 18//11 17//11 21//11
f 20//11 18//11 21//11
f 17//11 4//12 22//11
f 4//12 1//6 22//11
f 1//6 2//3 22//11
f 8//10 19//11 20//11
f 4//12 26//13 25//18
f 24//13 23//18 1//6
f 23//18 3//15 1//6
f 4//12 25//18 24//13
