# Blender v2.81 (sub 16) OBJ File: ''
# www.blender.org
mtllib Honduras.mtl
o 0_Honduras_sphere.001
v 0.453862 1.319363 4.801375
v 0.302823 1.319363 4.813262
v 0.304086 1.243447 4.833349
v 0.151486 1.319363 4.820398
v 0.152117 1.243447 4.840515
v 0.151175 1.354500 4.810495
v 0.547315 1.319363 4.791058
v 0.304913 1.190453 4.846489
v 0.455218 1.265003 4.815723
v 0.104615 1.319363 4.821135
v 0.152429 1.203487 4.850439
v 0.452570 1.368032 4.787711
v 0.061253 1.243447 4.841942
v 0.188910 1.167225 4.857736
v 0.276108 1.167225 4.853624
v 0.408447 1.243447 4.825136
v 0.302084 1.361104 4.801514
v 0.110990 1.323124 4.819974
v 0.149062 1.355276 4.810309
v 0.192855 1.191249 4.851575
v 0.181256 1.200412 4.849844
v 0.163790 1.206537 4.849144
v 0.294691 1.190777 4.846891
v 0.274876 1.188702 4.848341
v 0.451032 1.265942 4.815803
v 0.436382 1.278776 4.813543
v 0.427656 1.276285 4.814892
v 0.417326 1.256111 4.821070
v 0.409231 1.256834 4.821515
v 0.126716 1.196396 4.852604
v 0.123487 1.207787 4.849825
v 0.097855 1.221339 4.846860
v 0.079561 1.238215 4.842955
v 0.325440 1.369118 4.797410
v 0.335068 1.378507 4.793996
v 0.361808 1.374121 4.793132
v 0.381956 1.368412 4.793161
v 0.403795 1.370386 4.790884
v 0.420238 1.377711 4.787519
v 0.408215 1.239445 4.826151
v 0.379252 1.216118 4.834243
v 0.363890 1.206026 4.837967
v 0.355419 1.195560 4.841242
v 0.330206 1.212726 4.838949
v 0.312345 1.190159 4.845977
v 0.054621 1.245341 4.841545
v 0.072085 1.266729 4.835600
v 0.065303 1.283308 4.831311
v 0.071176 1.299510 4.826923
v 0.213108 1.149863 4.860622
v 0.187280 1.157295 4.860116
v 0.277247 1.146996 4.858263
v 0.264805 1.146209 4.859032
v 0.254419 1.126781 4.864029
v 0.228050 1.123261 4.866089
v 0.458723 1.366143 4.787568
v 0.472026 1.364233 4.786641
v 0.497963 1.348494 4.788242
v 0.522682 1.329625 4.790866
v 0.157811 1.351992 4.810890
v 0.176063 1.366692 4.805880
v 0.200034 1.367844 4.804424
v 0.207894 1.360982 4.805990
v 0.220855 1.365152 4.804202
v 0.259930 1.357605 4.804490
v 0.298672 1.359906 4.802013
v 0.553494 1.316773 4.791067
v 0.576247 1.293607 4.794733
v 0.547489 1.295289 4.797459
v 0.536214 1.283771 4.801776
v 0.507419 1.272795 4.807882
v 0.486222 1.272748 4.810235
v 0.467951 1.262094 4.815093
vn 0.0755 0.2714 0.9595
vn 0.0755 0.2713 0.9595
vn 0.0605 0.2638 0.9626
vn 0.0303 0.2638 0.9641
vn 0.0453 0.2714 0.9614
vn 0.0608 0.2487 0.9667
vn 0.0304 0.2487 0.9681
vn 0.0147 0.2714 0.9623
vn 0.0151 0.2714 0.9623
vn 0.0152 0.2562 0.9665
vn 0.0153 0.2562 0.9665
vn 0.0152 0.2548 0.9669
vn 0.0457 0.2411 0.9694
vn 0.0758 0.2562 0.9636
vn 0.0908 0.2638 0.9603
vn 0.0278 0.2411 0.9701
vn 0.0152 0.2411 0.9704
vn 0.0761 0.2411 0.9675
vn 0.0459 0.2257 0.9731
vn 0.0458 0.2332 0.9713
vn 0.1056 0.2714 0.9566
vn 0.1061 0.2562 0.9608
vn 0.1060 0.2582 0.9602
vn 0.0876 0.2714 0.9584
vn 0.0637 0.2714 0.9603
vn 0.0453 0.2713 0.9614
vn 0.0454 0.2714 0.9614
vn 0.0262 0.2714 0.9621
vn 0.0152 0.2589 0.9658
vn 0.0151 0.2562 0.9665
vn 0.0458 0.2326 0.9715
vn 0.0613 0.2411 0.9685
vn 0.0760 0.2490 0.9655
vn 0.0759 0.2562 0.9636
vn 0.0758 0.2564 0.9636
vn 0.0931 0.2563 0.9621
vn 0.0762 0.2411 0.9675
vn 0.1060 0.2563 0.9608
vn 0.1060 0.2562 0.9608
usemtl None
s 1
f 36//1 34//2 2//3
f 4//4 2//3 63//5
f 3//6 4//4 5//7
f 4//4 19//8 18//9
f 47//10 46//11 13//12
f 3//6 5//7 21//13
f 2//3 27//14 1//15
f 11//16 5//7 31//17
f 3//6 44//18 41//18
f 50//19 53//19 15//20
f 57//21 56//21 1//15
f 70//22 69//22 7//23
f 2//3 1//15 37//1
f 1//15 12//24 39//2
f 37//1 1//15 38//1
f 39//2 38//1 1//15
f 37//1 36//1 2//3
f 36//1 35//2 34//2
f 17//25 2//3 34//2
f 2//3 17//25 66//5
f 65//5 64//26 63//5
f 2//3 66//5 65//5
f 60//27 6//28 4//4
f 62//26 61//5 63//5
f 61//5 60//27 63//5
f 2//3 65//5 63//5
f 60//27 4//4 63//5
f 3//6 2//3 4//4
f 4//4 6//28 19//8
f 18//9 10//29 4//4
f 13//12 5//7 47//10
f 5//7 4//4 10//29
f 47//10 5//7 10//29
f 10//29 49//10 47//10
f 49//10 48//30 47//10
f 14//31 15//20 20//13
f 15//20 24//13 20//13
f 23//13 8//32 3//6
f 24//13 23//13 3//6
f 5//7 11//16 22//13
f 21//13 20//13 3//6
f 20//13 24//13 3//6
f 5//7 22//13 21//13
f 3//6 16//33 29//14
f 29//14 28//34 27//14
f 26//34 25//35 9//36
f 3//6 29//14 2//3
f 29//14 27//14 2//3
f 26//34 9//36 1//15
f 27//14 26//34 1//15
f 5//7 13//12 33//17
f 33//17 32//17 5//7
f 32//17 31//17 5//7
f 31//17 30//17 11//16
f 3//6 8//32 44//18
f 8//32 45//37 44//18
f 44//18 43//18 42//18
f 40//37 16//33 41//18
f 16//33 3//6 41//18
f 42//18 41//18 44//18
f 15//20 14//31 50//19
f 14//31 51//19 50//19
f 50//19 55//19 54//19
f 53//19 52//19 15//20
f 50//19 54//19 53//19
f 1//15 7//23 59//21
f 59//21 58//21 1//15
f 58//21 57//21 1//15
f 56//21 12//24 1//15
f 1//15 9//36 72//22
f 9//36 73//38 72//22
f 72//22 71//22 1//15
f 71//22 70//22 7//23
f 67//39 7//23 69//22
f 7//23 1//15 71//22
f 69//22 68//22 67//39
