# Blender v2.81 (sub 16) OBJ File: ''
# www.blender.org
mtllib Italy.mtl
o 0_Italy_sphere.001
v 3.826657 3.064534 -0.982512
v 3.855631 3.064534 -0.861829
v 3.838541 3.086747 -0.858009
v 3.870391 3.002100 -1.003200
v 3.857795 3.002100 -1.049244
v 3.857280 3.064534 -0.853863
v 3.809851 3.064534 -1.043947
v 3.869475 3.006610 -0.993506
v 3.868421 3.047361 -0.864688
v 3.810625 3.085531 -0.978396
v 3.838853 3.086869 -0.856028
v 3.874096 2.982213 -1.045314
v 3.825113 3.080402 -0.935365
v 3.867734 3.051466 -0.852559
v 3.802233 3.087952 -1.001840
v 3.783986 3.093872 -1.050856
v 3.868937 3.008764 -0.988710
v 3.871815 3.016049 -0.952906
v 3.831191 3.039597 -1.038055
v 3.844269 3.018109 -1.052394
vn 0.7636 0.6190 -0.1833
vn 0.7665 0.6191 -0.1706
vn 0.7711 0.6128 -0.1724
vn 0.7690 0.6191 -0.1592
vn 0.7744 0.6120 -0.1604
vn 0.7684 0.6044 -0.2102
vn 0.7759 0.5940 -0.2123
vn 0.7704 0.6016 -0.2108
vn 0.7785 0.6066 -0.1612
vn 0.7575 0.6190 -0.2072
vn 0.7604 0.6191 -0.1963
vn 0.7653 0.6128 -0.1965
vn 0.7730 0.6066 -0.1856
vn 0.7689 0.6067 -0.2019
vn 0.7668 0.6066 -0.2098
vn 0.7750 0.6067 -0.1767
vn 0.7611 0.6142 -0.2082
usemtl None
s 1
f 13//1 3//2 2//3
f 2//3 11//4 6//5
f 4//6 12//7 5//8
f 14//9 2//3 6//5
f 15//10 10//11 1//12
f 18//13 17//13 1//12
f 8//14 4//6 19//15
f 2//3 1//12 13//1
f 1//12 10//11 13//1
f 2//3 3//2 11//4
f 14//9 9//16 2//3
f 1//12 7//17 15//10
f 7//17 16//10 15//10
f 2//3 9//16 18//13
f 17//13 8//14 1//12
f 2//3 18//13 1//12
f 4//6 5//8 20//15
f 19//15 7//17 1//12
f 4//6 20//15 19//15
f 1//12 8//14 19//15
o 1_Italy_sphere.001
v 3.755224 3.247239 -0.594763
v 3.805137 3.187119 -0.602668
v 3.810686 3.187119 -0.563681
v 3.761405 3.247239 -0.551329
v 3.746014 3.247239 -0.647535
v 3.722407 3.285529 -0.589565
v 3.796880 3.187119 -0.649978
v 3.834232 3.150936 -0.607276
v 3.820521 3.158302 -0.650962
v 3.822268 3.162710 -0.620084
v 3.844783 3.140113 -0.595672
v 3.834040 3.157952 -0.568095
v 3.767868 3.238911 -0.555597
v 3.737802 3.276670 -0.535945
v 3.735414 3.273497 -0.572264
v 3.746167 3.247016 -0.647747
v 3.712825 3.293942 -0.602007
vn 0.7478 0.6553 -0.1064
vn 0.7519 0.6505 -0.1070
vn 0.7511 0.6494 -0.1189
vn 0.7579 0.6434 -0.1079
vn 0.7640 0.6313 -0.1333
vn 0.7588 0.6377 -0.1324
vn 0.7610 0.6374 -0.1205
vn 0.7678 0.6313 -0.1093
vn 0.7669 0.6313 -0.1151
vn 0.7542 0.6433 -0.1315
vn 0.7510 0.6471 -0.1310
vn 0.7451 0.6554 -0.1233
vn 0.7627 0.6375 -0.1086
vn 0.7440 0.6554 -0.1298
usemtl None
s 1
f 35//18 34//18 24//19
f 21//20 24//19 33//21
f 30//22 27//23 22//24
f 32//25 28//26 22//24
f 36//27 25//28 21//20
f 25//28 26//29 21//20
f 24//19 21//20 35//18
f 21//20 26//29 35//18
f 23//30 22//24 33//21
f 22//24 21//20 33//21
f 22//24 28//26 30//22
f 30//22 29//22 27//23
f 22//24 23//30 32//25
f 32//25 31//25 28//26
f 22//24 27//23 21//20
f 27//23 36//27 21//20
f 25//28 37//31 26//29
o 2_Italy_sphere.001
v 3.615949 3.247239 -1.174887
v 3.601638 3.306558 -1.046366
v 3.651069 3.247239 -1.060727
v 3.699598 3.187119 -1.074826
v 3.747215 3.126212 -1.088660
v 3.581974 3.365062 -0.919688
v 3.632728 3.306558 -0.932720
v 3.395768 3.590631 -0.759038
v 3.557067 3.422734 -0.795093
v 3.609095 3.365062 -0.806722
v 3.362113 3.644842 -0.641351
v 3.417935 3.590631 -0.652000
v 3.472915 3.535533 -0.662488
v 3.527036 3.479563 -0.672812
v 3.580286 3.422734 -0.682970
v 3.436728 3.590631 -0.544318
v 3.492010 3.535533 -0.553074
v 3.507660 3.535533 -0.443115
v 3.446270 3.590631 -0.477274
v 3.454595 3.590631 -0.413776
v 3.453297 3.590631 -0.425526
v 3.676047 3.247239 -0.969421
v 3.504370 3.479563 -0.782264
v 3.740283 3.126212 -1.111196
v 3.639527 3.217745 -1.182548
v 3.612943 3.247239 -1.183665
v 3.344727 3.640523 -0.747629
v 3.659060 3.307900 -0.817891
v 3.424257 3.602676 -0.542343
v 3.708766 3.187119 -1.041312
v 3.584363 3.422734 -0.659614
v 3.672013 3.259818 -0.942806
v 3.419960 3.566229 -0.764445
v 3.457470 3.585332 -0.436774
v 3.753085 3.126212 -1.067204
v 3.659691 3.306558 -0.820412
v 3.775947 3.088259 -1.097008
v 3.379290 3.590631 -0.827676
v 3.570715 3.377636 -0.916798
v 3.533002 3.493373 -0.559566
v 3.510650 3.535533 -0.416032
v 3.555650 3.486396 -0.449176
v 3.577393 3.365062 -0.936435
v 3.453257 3.535533 -0.757413
v 3.687242 3.187119 -1.114989
v 3.600681 3.307671 -1.046088
v 3.505014 3.478647 -0.783457
v 3.539801 3.422734 -0.867009
v 3.365968 3.644842 -0.619262
v 3.559297 3.479563 -0.471276
v 3.552894 3.479563 -0.516265
v 3.626543 3.365062 -0.722468
v 3.611259 3.252921 -1.173363
v 3.540612 3.479563 -0.595024
v 3.361607 3.644842 -0.643793
v 3.358732 3.644842 -0.657679
v 3.343279 3.644842 -0.732298
v 3.600842 3.306558 -1.048954
v 3.610013 3.389996 -0.688641
v 3.361487 3.645431 -0.641232
v 3.401230 3.623091 -0.549820
v 3.401513 3.615408 -0.595036
v 3.386409 3.625630 -0.619264
v 3.544373 3.467983 -0.637718
v 3.542838 3.475332 -0.605738
v 3.615671 3.237421 -1.201171
v 3.623414 3.224910 -1.211021
v 3.646497 3.201047 -1.205520
v 3.750169 3.129505 -1.067706
v 3.734891 3.144050 -1.078681
v 3.711272 3.183114 -1.044505
v 3.689844 3.174959 -1.140197
v 3.719657 3.139664 -1.140996
v 3.731074 3.135727 -1.114788
v 3.509116 3.537112 -0.415307
v 3.487826 3.555903 -0.434213
v 3.466770 3.578745 -0.413506
v 3.689499 3.216797 -1.017213
v 3.690013 3.225175 -0.988646
v 3.459139 3.583049 -0.441504
v 3.452218 3.585818 -0.470171
v 3.430716 3.558783 -0.749802
v 3.624454 3.368449 -0.717118
v 3.360020 3.650259 -0.619262
v 3.561218 3.394428 -0.889875
v 3.395637 3.571530 -0.842692
v 3.398167 3.580440 -0.793384
v 3.671632 3.253963 -0.963452
v 3.576656 3.458316 -0.493133
v 3.584614 3.453804 -0.467771
v 3.633040 3.232258 -1.162152
v 3.641291 3.243145 -1.104213
v 3.684276 3.200022 -1.087749
v 3.448928 3.595991 -0.413902
v 3.588914 3.342400 -0.971231
v 3.575076 3.342888 -1.020159
v 3.583151 3.328650 -1.038963
v 3.599244 3.315564 -1.024552
v 3.426327 3.606300 -0.500837
v 3.434709 3.596791 -0.512683
v 3.428508 3.598848 -0.540946
v 3.362231 3.641802 -0.656496
v 3.345119 3.642787 -0.734034
v 3.504829 3.478992 -0.782731
v 3.341510 3.627133 -0.821147
v 3.373245 3.597460 -0.822188
v 3.520819 3.446979 -0.847020
v 3.672093 3.265949 -0.919685
v 3.656510 3.292345 -0.886488
v 3.664160 3.296710 -0.838401
v 3.599222 3.405369 -0.667831
v 3.531363 3.496064 -0.552284
v 3.543737 3.487513 -0.525074
v 3.557697 3.481142 -0.471495
v 3.602628 3.291803 -1.086686
v 3.604936 3.271876 -1.137984
v 3.554341 3.489088 -0.436876
v 3.786121 3.077189 -1.092885
v 3.797799 3.071769 -1.066388
v 3.781842 3.092705 -1.062178
v 3.348949 3.653083 -0.660960
v 3.326107 3.663390 -0.716281
v 3.460041 3.528309 -0.759717
v 3.478666 3.510542 -0.756017
v 3.649638 3.326138 -0.782846
vn 0.7203 0.6572 -0.2216
vn 0.7203 0.6613 -0.2093
vn 0.7302 0.6494 -0.2121
vn 0.7185 0.6671 -0.1966
vn 0.7185 0.6671 -0.1965
vn 0.7266 0.6613 -0.1865
vn 0.7309 0.6554 -0.1904
vn 0.7285 0.6554 -0.1993
vn 0.7320 0.6512 -0.2002
vn 0.7384 0.6434 -0.2020
vn 0.7494 0.6252 -0.2177
vn 0.7400 0.6374 -0.2150
vn 0.7480 0.6313 -0.2046
vn 0.7141 0.6787 -0.1714
vn 0.7114 0.6845 -0.1590
vn 0.7218 0.6730 -0.1614
vn 0.7259 0.6672 -0.1672
vn 0.7265 0.6646 -0.1744
vn 0.6725 0.7288 -0.1283
vn 0.6836 0.7181 -0.1304
vn 0.6760 0.7235 -0.1400
vn 0.7086 0.6902 -0.1466
vn 0.7054 0.6959 -0.1346
vn 0.7161 0.6845 -0.1366
vn 0.7191 0.6787 -0.1489
vn 0.7216 0.6759 -0.1494
vn 0.6673 0.7342 -0.1250
vn 0.6748 0.7285 -0.1178
vn 0.6800 0.7235 -0.1187
vn 0.6984 0.7071 -0.1106
vn 0.6946 0.7071 -0.1325
vn 0.7033 0.7015 -0.1150
vn 0.7038 0.6996 -0.1228
vn 0.7128 0.6902 -0.1244
vn 0.6874 0.7181 -0.1089
vn 0.6834 0.7235 -0.0972
vn 0.6920 0.7151 -0.0985
vn 0.6945 0.7126 -0.0988
vn 0.6946 0.7126 -0.0988
vn 0.7016 0.7071 -0.0886
vn 0.6973 0.7126 -0.0770
vn 0.7020 0.7079 -0.0775
vn 0.7242 0.6434 -0.2480
vn 0.7221 0.6460 -0.2472
vn 0.7260 0.6434 -0.2426
vn 0.7161 0.6674 -0.2042
vn 0.7412 0.6313 -0.2280
vn 0.6870 0.7126 -0.1422
vn 0.7199 0.6554 -0.2286
vn 0.7232 0.6494 -0.2350
vn 0.6822 0.7126 -0.1638
vn 0.6780 0.7168 -0.1628
vn 0.6792 0.7181 -0.1518
vn 0.7116 0.6952 -0.1013
vn 0.7164 0.6902 -0.1020
vn 0.7085 0.6985 -0.1008
vn 0.7317 0.6434 -0.2251
vn 0.6952 0.7147 -0.0767
vn 0.6861 0.7236 -0.0757
vn 0.6921 0.7178 -0.0764
vn 0.6712 0.7235 -0.1611
vn 0.6740 0.7236 -0.1489
vn 0.7036 0.6902 -0.1689
vn 0.7103 0.6829 -0.1705
vn 0.7344 0.6554 -0.1763
vn 0.7234 0.6787 -0.1262
vn 0.7174 0.6853 -0.1252
vn 0.7160 0.6700 -0.1959
vn 0.7126 0.6788 -0.1771
vn 0.7164 0.6730 -0.1839
vn 0.7056 0.7015 -0.1004
vn 0.7566 0.6191 -0.2106
vn 0.7446 0.6270 -0.2290
vn 0.7084 0.7015 -0.0782
vn 0.7575 0.6190 -0.2072
vn 0.6719 0.7274 -0.1391
vn 0.6647 0.7343 -0.1376
vn 0.6718 0.7275 -0.1391
vn 0.6746 0.7248 -0.1397
vn 0.6979 0.7015 -0.1445
vn 0.7295 0.6671 -0.1510
vn 0.7219 0.6553 -0.2221
vn 0.7219 0.6554 -0.2221
vn 0.7419 0.6390 -0.2029
vn 0.7537 0.6241 -0.2062
vn 0.7072 0.6902 -0.1533
vn 0.7047 0.6943 -0.1458
vn 0.7201 0.6788 -0.1437
vn 0.6687 0.7343 -0.1167
vn 0.6804 0.7235 -0.1163
vn 0.6834 0.7235 -0.0973
vn 0.6965 0.7126 -0.0836
vn 0.7242 0.6434 -0.2479
vn 0.7412 0.6313 -0.2281
vn 0.7395 0.6336 -0.2275
vn 0.6927 0.7067 -0.1435
vn 0.6854 0.7126 -0.1492
vn 0.7345 0.6553 -0.1763
vn 0.7055 0.7015 -0.1004
vn 0.7067 0.7015 -0.0915
vn 0.6978 0.7015 -0.1447
usemtl None
s 1
f 95//32 39//33 40//34
f 135//35 132//36 44//37
f 44//37 69//38 125//39
f 59//40 116//41 115//41
f 42//42 41//43 107//44
f 122//45 46//46 47//47
f 47//47 65//48 73//49
f 48//50 49//51 139//52
f 141//53 51//54 52//55
f 120//56 89//57 46//46
f 97//58 86//59 48//50
f 49//51 100//60 99//60
f 49//51 54//61 50//62
f 54//61 77//63 91//64
f 51//54 102//65 101//65
f 53//66 137//67 56//68
f 118//69 117//70 55//71
f 112//72 78//73 55//71
f 103//74 63//75 62//76
f 95//32 83//77 39//33
f 41//43 42//42 111//78
f 49//51 50//62 119//79
f 63//75 90//80 38//81
f 124//82 75//83 45//84
f 87//85 126//86 88//87
f 129//88 38//81 40//34
f 58//89 131//90 57//91
f 143//92 64//93 45//84
f 144//94 46//46 85//95
f 145//96 69//38 44//37
f 148//97 52//55 68//98
f 80//99 76//100 43//101
f 55//71 150//102 54//61
f 74//103 61//104 42//42
f 154//105 55//71 78//73
f 155//106 74//103 157//106
f 94//107 158//108 93//109
f 92//110 97//58 48//50
f 50//62 51//54 161//111
f 162//112 47//47 89//57
f 40//34 38//81 153//113
f 38//81 90//80 153//113
f 153//113 152//114 40//34
f 152//114 95//32 40//34
f 44//37 39//33 135//35
f 39//33 83//77 135//35
f 135//35 134//35 133//36
f 80//99 43//101 132//36
f 43//101 44//37 132//36
f 135//35 133//36 132//36
f 59//40 40//34 125//39
f 40//34 39//33 125//39
f 39//33 44//37 125//39
f 67//115 41//43 115//41
f 41//43 40//34 115//41
f 40//34 59//40 115//41
f 41//43 67//115 108//44
f 107//44 106//44 42//42
f 106//44 72//116 42//42
f 41//43 108//44 107//44
f 47//47 43//101 122//45
f 43//101 76//100 122//45
f 122//45 85//95 46//46
f 73//49 44//37 43//101
f 43//101 47//47 73//49
f 49//51 45//84 139//52
f 45//84 64//93 140//52
f 140//52 94//107 139//52
f 94//107 93//109 139//52
f 45//84 140//52 139//52
f 92//110 48//50 139//52
f 52//55 46//46 141//53
f 46//46 84//117 141//53
f 141//53 60//118 51//54
f 89//57 47//47 46//46
f 46//46 52//55 120//56
f 52//55 96//119 120//56
f 97//58 121//120 86//59
f 49//51 48//50 100//60
f 48//50 86//59 100//60
f 66//121 53//66 99//60
f 53//66 49//51 99//60
f 99//60 98//60 66//121
f 49//51 53//66 54//61
f 91//64 51//54 50//62
f 50//62 54//61 91//64
f 68//98 52//55 101//65
f 52//55 51//54 101//65
f 51//54 91//64 102//65
f 53//66 66//121 138//67
f 137//67 136//122 56//68
f 53//66 138//67 137//67
f 55//71 54//61 118//69
f 54//61 53//66 56//68
f 118//69 54//61 56//68
f 117//70 71//123 55//71
f 55//71 71//123 113//72
f 71//123 58//89 114//72
f 113//72 71//123 114//72
f 58//89 57//91 114//72
f 113//72 112//72 55//71
f 38//81 62//76 63//75
f 62//76 105//124 104//124
f 103//74 62//76 104//124
f 42//42 61//104 111//78
f 111//78 110//125 109//78
f 109//78 82//126 111//78
f 82//126 41//43 111//78
f 50//62 81//127 119//79
f 119//79 70//128 45//84
f 45//84 49//51 119//79
f 45//84 70//128 124//82
f 124//82 123//82 75//83
f 87//85 127//86 126//86
f 41//43 82//126 130//88
f 41//43 130//88 40//34
f 130//88 129//88 40//34
f 128//88 62//76 38//81
f 129//88 128//88 38//81
f 45//84 75//83 143//92
f 143//92 142//92 64//93
f 144//94 84//117 46//46
f 44//37 73//49 146//96
f 73//49 147//129 146//96
f 146//96 145//96 44//37
f 148//97 96//119 52//55
f 87//85 88//87 151//130
f 88//87 150//102 151//130
f 149//102 77//63 54//61
f 150//102 149//102 54//61
f 151//130 150//102 55//71
f 55//71 79//131 151//130
f 154//105 79//131 55//71
f 42//42 72//116 74//103
f 72//116 157//106 74//103
f 157//106 156//106 155//106
f 94//107 159//108 158//108
f 51//54 60//118 161//111
f 161//111 160//132 81//127
f 81//127 50//62 161//111
f 162//112 65//48 47//47
