# Blender v2.81 (sub 16) OBJ File: ''
# www.blender.org
mtllib Jamaica.mtl
o 0_Jamaica_sphere.001
v 1.037329 1.545083 4.640755
v 0.989746 1.545083 4.650609
v 1.128576 1.545083 4.618849
v 1.038724 1.524852 4.646999
v 1.034508 1.583842 4.628135
v 1.008353 1.533453 4.650511
v 0.959856 1.563604 4.650489
v 0.968310 1.582539 4.642288
v 1.001971 1.588355 4.633335
v 1.020625 1.585624 4.630403
v 1.134912 1.535521 4.620437
v 1.078268 1.533977 4.634538
v 1.054703 1.520141 4.644694
v 1.075455 1.578134 4.620263
v 1.119795 1.558224 4.616448
vn 0.1924 0.3164 0.9289
vn 0.1925 0.3136 0.9298
vn 0.1933 0.3015 0.9337
vn 0.2074 0.3090 0.9282
vn 0.2226 0.3014 0.9271
vn 0.2222 0.3065 0.9256
vn 0.2214 0.3164 0.9224
vn 0.2056 0.3165 0.9260
vn 0.2107 0.3015 0.9299
vn 0.2226 0.3015 0.9271
usemtl None
s 1
f 8//1 7//1 2//2
f 6//3 1//4 2//2
f 12//5 3//6 1//4
f 14//7 5//8 1//4
f 2//2 1//4 10//1
f 1//4 5//8 10//1
f 10//1 9//1 2//2
f 9//1 8//1 2//2
f 6//3 4//9 1//4
f 1//4 4//9 13//10
f 12//5 11//10 3//6
f 1//4 13//10 12//5
f 1//4 3//6 15//7
f 15//7 14//7 1//4
