# Blender v2.81 (sub 16) OBJ File: ''
# www.blender.org
mtllib Kenya.mtl
o 0_Kenya_sphere.001
v 3.743157 0.313950 -3.300031
v 3.848292 0.235530 -3.183576
v 3.850667 0.157051 -3.185542
v 3.852093 0.078534 -3.186723
v 3.852568 -0.000003 -3.187115
v 3.852093 -0.078539 -3.186723
v 3.850667 -0.157056 -3.185542
v 3.848291 -0.235535 -3.183576
v 3.844966 -0.313955 -3.180827
v 3.942982 0.313950 -3.058484
v 3.946391 0.235530 -3.061127
v 3.948827 0.157051 -3.063018
v 3.950289 0.078534 -3.064153
v 3.950777 -0.000003 -3.064530
v 3.950289 -0.078539 -3.064153
v 3.948827 -0.157056 -3.063018
v 3.946391 -0.235535 -3.061127
v 3.942981 -0.313955 -3.058484
v 4.032618 0.392293 -2.929863
v 4.037106 0.313950 -2.933123
v 4.040596 0.235530 -2.935658
v 4.043090 0.157051 -2.937470
v 4.044587 0.078534 -2.938559
v 4.045086 -0.000003 -2.938921
v 4.044587 -0.078539 -2.938559
v 4.043090 -0.157056 -2.937470
v 4.135404 -0.000003 -2.810411
v 4.134893 -0.078539 -2.810066
v 3.925587 0.313950 -3.080197
v 3.902914 0.313950 -3.108497
v 3.893855 0.313950 -3.119804
v 4.149124 -0.078539 -2.788402
v 4.119526 0.392293 -2.806205
v 3.770065 0.235530 -3.275167
v 3.812170 -0.235535 -3.225868
v 3.772308 0.157051 -3.277288
v 4.042144 -0.186820 -2.936783
v 3.988612 -0.235535 -3.004894
v 3.841400 -0.379325 -3.177877
v 4.114766 0.313950 -2.822622
v 3.942494 -0.322665 -3.058106
v 3.773551 0.078534 -3.278683
v 3.945188 -0.313955 -3.055545
v 4.073578 -0.157056 -2.894090
v 4.104183 0.235530 -2.845183
v 3.741682 0.341732 -3.298730
v 3.773803 -0.000003 -3.279337
v 3.941938 0.332605 -3.057675
v 4.135097 0.047292 -2.810203
v 3.730877 0.313950 -3.313526
v 4.032001 0.401102 -2.929415
v 4.027137 0.392293 -2.937163
v 3.749285 -0.124345 -3.305433
v 3.748724 -0.156085 -3.304938
v 4.094100 0.157051 -2.864890
v 3.744133 0.290297 -3.300891
v 3.876122 -0.392298 -3.133069
v 3.850567 -0.392298 -3.164967
v 3.845414 0.303405 -3.181197
v 3.771448 -0.078539 -3.281145
v 4.067640 0.470539 -2.868244
v 4.045823 0.470539 -2.899288
v 3.840100 0.313950 -3.186525
v 4.122967 0.386994 -2.801961
v 4.125385 0.345714 -2.803603
v 4.121542 0.078534 -2.829063
v 4.150041 -0.000003 -2.788129
v 3.829968 -0.313955 -3.198386
v 3.749803 -0.157056 -3.303639
v 4.134501 -0.098696 -2.809798
v 4.150035 0.009574 -2.788000
v 4.136057 0.044940 -2.808774
v 3.773138 -0.074908 -3.279210
v 4.109558 0.266350 -2.834586
v 4.113422 0.310079 -2.824905
v 3.925498 0.313824 -3.080318
v 3.908309 0.312940 -3.101851
v 3.883850 0.305294 -3.133054
v 3.847799 0.298451 -3.178656
v 3.833248 -0.321027 -3.193776
v 3.841120 -0.378944 -3.178247
v 3.895449 0.315339 -3.117657
v 3.944324 -0.320669 -3.055904
v 3.714973 0.341710 -3.328084
v 3.737978 -0.146876 -3.317070
v 3.861259 -0.407682 -3.149490
v 3.816644 -0.285888 -3.216365
v 3.950169 -0.270137 -3.052925
v 4.099503 0.422475 -2.830149
v 4.036626 0.465170 -2.913182
v 4.040039 0.416379 -2.915675
v 4.133245 0.370526 -2.788437
v 4.140716 -0.092486 -2.800602
v 4.149006 -0.082908 -2.788394
v 3.769772 0.242889 -3.274887
v 3.777108 -0.181710 -3.270176
v 3.790025 -0.218093 -3.252852
v 3.811054 -0.224482 -3.227844
v 4.110766 0.102688 -2.843406
v 3.829375 0.334739 -3.196817
v 3.775765 0.371140 -3.255618
v 3.754553 0.341731 -3.283659
v 4.024568 0.387755 -2.941120
v 3.988226 0.387748 -2.989523
v 4.061424 0.479735 -2.875450
v 4.091124 0.166271 -2.868496
vn 0.7486 0.0627 -0.6600
vn 0.7585 0.0706 -0.6478
vn 0.7893 0.0471 -0.6122
vn 0.7792 0.0549 -0.6243
vn 0.7696 0.0471 -0.6367
vn 0.7898 0.0314 -0.6126
vn 0.7701 0.0314 -0.6371
vn 0.7900 0.0157 -0.6128
vn 0.7704 0.0157 -0.6373
vn 0.7705 0.0000 -0.6374
vn 0.7902 0.0000 -0.6129
vn 0.7900 -0.0157 -0.6128
vn 0.7704 -0.0157 -0.6373
vn 0.7701 -0.0314 -0.6371
vn 0.7898 -0.0314 -0.6126
vn 0.7696 -0.0471 -0.6367
vn 0.7893 -0.0471 -0.6122
vn 0.7886 -0.0627 -0.6117
vn 0.7690 -0.0627 -0.6362
vn 0.8065 0.0784 -0.5860
vn 0.8074 0.0627 -0.5866
vn 0.7977 0.0706 -0.5989
vn 0.8081 0.0471 -0.5871
vn 0.8086 0.0314 -0.5875
vn 0.8089 0.0157 -0.5877
vn 0.8090 0.0000 -0.5878
vn 0.8089 -0.0157 -0.5877
vn 0.8086 -0.0314 -0.5875
vn 0.8054 -0.0392 -0.5914
vn 0.7990 -0.0418 -0.5999
vn 0.7985 -0.0549 -0.5995
vn 0.8148 0.0901 -0.5726
vn 0.8151 0.0863 -0.5728
vn 0.8164 0.0657 -0.5737
vn 0.8159 0.0745 -0.5734
vn 0.8195 0.0706 -0.5687
vn 0.8169 0.0549 -0.5741
vn 0.8172 0.0489 -0.5743
vn 0.8175 0.0392 -0.5745
vn 0.8179 0.0235 -0.5748
vn 0.8178 0.0291 -0.5748
vn 0.8181 0.0125 -0.5749
vn 0.8217 0.0078 -0.5698
vn 0.8271 0.0000 -0.5621
vn 0.8270 -0.0157 -0.5620
vn 0.8240 -0.0236 -0.5661
vn 0.8179 -0.0261 -0.5748
vn 0.8358 0.0078 -0.5490
vn 0.8357 0.0078 -0.5490
vn 0.8357 -0.0156 -0.5489
vn 0.7602 -0.0188 -0.6493
vn 0.7604 -0.0078 -0.6494
vn 0.7974 0.0743 -0.5987
vn 0.8104 0.0863 -0.5794
vn 0.7586 -0.0706 -0.6477
vn 0.7585 -0.0706 -0.6478
vn 0.7603 0.0157 -0.6493
vn 0.7604 0.0000 -0.6494
vn 0.7791 0.0573 -0.6242
vn 0.7785 0.0705 -0.6237
vn 0.7792 0.0555 -0.6243
vn 0.7791 0.0583 -0.6242
vn 0.7918 0.0706 -0.6067
vn 0.7886 0.0627 -0.6117
vn 0.7600 0.0314 -0.6491
vn 0.7977 -0.0706 -0.5989
vn 0.7982 -0.0622 -0.5992
vn 0.7550 0.0549 -0.6534
vn 0.7380 0.0660 -0.6715
vn 0.7482 0.0706 -0.6596
vn 0.7534 -0.0236 -0.6571
vn 0.7394 -0.0236 -0.6728
vn 0.7561 -0.0236 -0.6540
vn 0.7783 -0.0736 -0.6235
vn 0.7775 -0.0863 -0.6229
vn 0.7783 -0.0740 -0.6235
vn 0.7595 0.0471 -0.6487
vn 0.7592 -0.0549 -0.6485
vn 0.8207 0.0706 -0.5670
vn 0.8337 0.0706 -0.5476
vn 0.8356 -0.0236 -0.5488
vn 0.7632 0.0549 -0.6438
vn 0.7592 0.0549 -0.6485
vn 0.7598 -0.0392 -0.6489
vn 0.7844 -0.0706 -0.6161
vn 0.8150 0.0878 -0.5728
vn 0.8139 0.1019 -0.5720
vn 0.7590 0.0597 -0.6483
vn 0.7793 0.0549 -0.6243
vn 0.7792 0.0550 -0.6243
vn 0.8358 0.0001 -0.5490
vn 0.7602 -0.0262 -0.6492
vn 0.7730 -0.0706 -0.6305
vn 0.7591 -0.0594 -0.6483
vn 0.7378 0.0706 -0.6713
vn 0.7596 -0.0461 -0.6487
vn 0.8356 -0.0233 -0.5488
usemtl None
s 1
f 1//1 102//2 100//2
f 11//3 78//4 77//4
f 2//5 12//6 3//7
f 3//7 13//8 4//9
f 5//10 13//8 14//11
f 5//10 15//12 6//13
f 7//14 15//12 16//15
f 8//16 16//15 17//17
f 8//16 18//18 9//19
f 19//20 20//21 103//22
f 11//3 20//21 21//23
f 11//3 22//24 12//6
f 12//6 23//25 13//8
f 14//11 23//25 24//26
f 14//11 25//27 15//12
f 16//15 25//27 26//28
f 26//28 37//29 38//30
f 17//17 38//30 88//31
f 61//32 89//33 91//33
f 40//34 33//35 65//36
f 75//37 74//37 20//21
f 21//23 45//38 106//39
f 99//40 23//25 55//41
f 66//42 49//43 27//44
f 24//26 28//45 25//27
f 28//45 70//46 44//47
f 71//48 27//44 72//49
f 27//44 32//50 28//45
f 60//51 6//13 7//14
f 73//52 5//10 6//13
f 44//47 37//29 26//28
f 52//53 51//54 19//20
f 81//55 80//56 9//19
f 42//57 5//10 47//58
f 31//59 82//60 30//61
f 29//62 48//63 10//64
f 36//65 4//9 42//57
f 83//66 18//18 43//67
f 56//68 50//69 1//1
f 50//69 46//70 1//1
f 54//71 85//72 53//73
f 57//74 86//75 58//76
f 34//77 3//7 36//65
f 87//78 8//16 9//19
f 64//79 92//80 65//36
f 93//81 70//46 28//45
f 59//82 2//5 95//83
f 98//84 96//84 7//14
f 18//18 41//85 57//74
f 62//86 105//87 61//32
f 63//88 1//1 100//2
f 1//1 46//70 102//2
f 102//2 101//2 100//2
f 2//5 59//82 79//89
f 78//4 31//59 30//61
f 2//5 79//89 78//4
f 10//64 11//3 76//90
f 11//3 2//5 78//4
f 76//90 29//62 10//64
f 78//4 30//61 77//4
f 77//4 76//90 11//3
f 2//5 11//3 12//6
f 3//7 12//6 13//8
f 5//10 4//9 13//8
f 5//10 14//11 15//12
f 7//14 6//13 15//12
f 8//16 7//14 16//15
f 8//16 17//17 18//18
f 20//21 10//64 104//22
f 10//64 48//63 104//22
f 104//22 103//22 20//21
f 103//22 52//53 19//20
f 11//3 10//64 20//21
f 11//3 21//23 22//24
f 12//6 22//24 23//25
f 14//11 13//8 23//25
f 14//11 24//26 25//27
f 16//15 15//12 25//27
f 38//30 17//17 16//15
f 16//15 26//28 38//30
f 43//67 18//18 88//31
f 18//18 17//17 88//31
f 33//35 19//20 89//33
f 19//20 51//54 91//33
f 91//33 90//33 62//86
f 19//20 91//33 89//33
f 62//86 61//32 91//33
f 40//34 20//21 19//20
f 19//20 33//35 40//34
f 33//35 64//79 65//36
f 45//38 21//23 74//37
f 21//23 20//21 74//37
f 20//21 40//34 75//37
f 55//41 22//24 106//39
f 22//24 21//23 106//39
f 66//42 23//25 99//40
f 23//25 22//24 55//41
f 27//44 24//26 66//42
f 24//26 23//25 66//42
f 24//26 27//44 28//45
f 44//47 26//28 25//27
f 25//27 28//45 44//47
f 67//91 27//44 71//48
f 27//44 49//43 72//49
f 27//44 67//91 32//50
f 7//14 69//92 60//51
f 69//92 54//71 53//73
f 60//51 69//92 53//73
f 6//13 60//51 73//52
f 73//52 47//58 5//10
f 9//19 39//93 81//55
f 80//56 68//94 9//19
f 42//57 4//9 5//10
f 36//65 3//7 4//9
f 83//66 41//85 18//18
f 50//69 84//95 46//70
f 34//77 2//5 3//7
f 9//19 68//94 87//78
f 87//78 35//96 8//16
f 28//45 32//50 93//81
f 32//50 94//97 93//81
f 2//5 34//77 95//83
f 95//83 56//68 1//1
f 1//1 63//88 95//83
f 63//88 59//82 95//83
f 8//16 35//96 98//84
f 98//84 97//84 96//84
f 96//84 69//92 7//14
f 7//14 8//16 98//84
f 57//74 58//76 39//93
f 39//93 9//19 57//74
f 9//19 18//18 57//74
