# Blender v2.81 (sub 16) OBJ File: ''
# www.blender.org
mtllib Kyrgyzstan.mtl
o 0_Kyrgyzstan_sphere.001
v 0.692966 3.365062 -3.632651
v 0.806729 3.365062 -3.609092
v 0.818160 3.306558 -3.660230
v 0.919695 3.365062 -3.581971
v 0.932727 3.306558 -3.632725
v 1.031754 3.365062 -3.551315
v 1.046373 3.306558 -3.601635
v 1.060734 3.247239 -3.651065
v 1.074833 3.187119 -3.699595
v 1.142794 3.365062 -3.517154
v 1.158987 3.306558 -3.566990
v 1.190510 3.187119 -3.664008
v 1.305012 3.187119 -3.624805
v 1.017744 3.419388 -3.503091
v 1.195652 3.166678 -3.679834
v 1.204988 3.365062 -3.495861
v 0.698299 3.333289 -3.660605
v 1.284732 3.187119 -3.631748
v 1.282331 3.187119 -3.632571
v 1.350454 3.187119 -3.607634
v 1.297293 3.214228 -3.603364
v 0.944883 3.250226 -3.680071
v 0.798117 3.407768 -3.570565
v 1.133387 3.397995 -3.488201
v 1.305388 3.185756 -3.625849
v 0.627378 3.365062 -3.644098
v 1.242482 3.306558 -3.538404
v 0.923091 3.247239 -3.687968
v 0.882866 3.247239 -3.697626
v 0.967514 3.247239 -3.676567
v 1.007943 3.422734 -3.502565
v 0.971409 3.422734 -3.512560
v 0.821732 3.287688 -3.676211
v 1.075897 3.182436 -3.703255
v 0.911020 3.402800 -3.548182
v 1.160122 3.302328 -3.570482
v 0.755135 3.306558 -3.673282
v 1.149330 3.247239 -3.623809
v 1.178814 3.232145 -3.628011
v 1.069221 3.187119 -3.701130
v 0.687252 3.398054 -3.602693
v 0.782027 3.407286 -3.574352
v 0.690389 3.400646 -3.599598
v 0.989961 3.428770 -3.501516
v 0.662655 3.377485 -3.626285
v 0.625061 3.368034 -3.641714
v 0.636257 3.353375 -3.653172
v 0.770221 3.292151 -3.682923
v 0.953100 3.251239 -3.676912
v 1.000214 3.238050 -3.675629
v 1.068777 3.206690 -3.684198
v 1.063519 3.191039 -3.699274
v 1.047529 3.377799 -3.534144
v 1.028102 3.415684 -3.503485
v 0.742740 3.318187 -3.665213
v 1.352734 3.181895 -3.611318
v 1.085459 3.175620 -3.706120
v 1.101902 3.271121 -3.616721
v 1.184823 3.390752 -3.477667
v 1.142229 3.399943 -3.483271
v 1.254518 3.314259 -3.526993
v 1.190557 3.356233 -3.509159
v 1.206869 3.362622 -3.497526
v 1.167161 3.305990 -3.564713
v 1.215944 3.289409 -3.563216
v 1.282753 3.187253 -3.632307
v 1.270307 3.209359 -3.616930
v 1.241518 3.229897 -3.608540
v 1.195265 3.223459 -3.630096
v 1.209754 3.165310 -3.676184
v 1.335489 3.220488 -3.583307
v 0.908866 3.402064 -3.549399
v 0.884727 3.408977 -3.548624
v 0.854020 3.284378 -3.671412
v 0.886718 3.242183 -3.701071
vn 0.1489 0.6787 -0.7191
vn 0.1604 0.6788 -0.7166
vn 0.1614 0.6730 -0.7219
vn 0.1713 0.6788 -0.7141
vn 0.1853 0.6788 -0.7105
vn 0.1839 0.6730 -0.7164
vn 0.1865 0.6612 -0.7266
vn 0.1636 0.6612 -0.7321
vn 0.1934 0.6804 -0.7068
vn 0.2016 0.6788 -0.7061
vn 0.2063 0.6730 -0.7103
vn 0.2093 0.6612 -0.7204
vn 0.2159 0.6787 -0.7019
vn 0.2286 0.6730 -0.7035
vn 0.2318 0.6612 -0.7134
vn 0.2221 0.6553 -0.7219
vn 0.2245 0.6458 -0.7297
vn 0.2121 0.6494 -0.7302
vn 0.2318 0.6434 -0.7295
vn 0.2381 0.6374 -0.7328
vn 0.2379 0.6787 -0.6948
vn 0.2413 0.6671 -0.7048
vn 0.2420 0.6649 -0.7067
vn 0.2480 0.6434 -0.7242
vn 0.2607 0.6435 -0.7197
vn 0.2725 0.6369 -0.7211
vn 0.2610 0.6374 -0.7249
vn 0.1934 0.6801 -0.7071
vn 0.1909 0.6902 -0.6979
vn 0.1262 0.6787 -0.7234
vn 0.1431 0.6788 -0.7202
vn 0.1386 0.6730 -0.7266
vn 0.1281 0.6671 -0.7338
vn 0.1427 0.6672 -0.7311
vn 0.1531 0.6553 -0.7396
vn 0.1657 0.6554 -0.7369
vn 0.2224 0.6313 -0.7429
vn 0.2026 0.6403 -0.7409
vn 0.2150 0.6374 -0.7399
vn 0.1996 0.6540 -0.7297
vn 0.2021 0.6434 -0.7384
vn 0.2020 0.6434 -0.7384
vn 0.1510 0.6671 -0.7295
vn 0.2633 0.6314 -0.7293
vn 0.2280 0.6313 -0.7412
vn 0.2446 0.6553 -0.7146
vn 0.2481 0.6431 -0.7245
vn 0.2512 0.6313 -0.7337
vn 0.2483 0.6420 -0.7253
vn 0.1763 0.6553 -0.7344
vn 0.1764 0.6547 -0.7350
vn 0.1787 0.6434 -0.7443
vn 0.1772 0.6510 -0.7381
vn 0.1714 0.6787 -0.7141
vn 0.2288 0.6788 -0.6977
vn 0.2296 0.6554 -0.7196
vn 0.2400 0.6716 -0.7009
vn 0.2412 0.6671 -0.7048
vn 0.2479 0.6434 -0.7242
vn 0.2480 0.6433 -0.7243
vn 0.2706 0.6434 -0.7161
vn 0.1269 0.6745 -0.7273
vn 0.1263 0.6787 -0.7235
vn 0.1517 0.6635 -0.7326
vn 0.1993 0.6553 -0.7285
vn 0.1867 0.6554 -0.7318
vn 0.2741 0.6314 -0.7254
vn 0.2405 0.6313 -0.7373
vn 0.2447 0.6553 -0.7146
usemtl None
s 1
f 42//1 23//2 2//3
f 72//4 35//5 4//6
f 2//3 5//7 3//8
f 31//9 14//10 6//11
f 4//6 7//12 5//7
f 6//11 53//13 10//14
f 6//11 11//15 7//12
f 58//16 38//17 8//18
f 38//17 39//19 12//20
f 59//21 10//14 60//21
f 62//22 61//22 27//23
f 12//20 69//24 67//24
f 21//25 20//26 13//27
f 32//28 44//29 31//9
f 45//30 41//31 1//32
f 47//33 1//32 17//34
f 48//35 3//8 33//36
f 34//37 40//38 9//39
f 5//7 7//12 30//40
f 51//41 50//42 8//18
f 2//3 3//8 55//43
f 20//26 25//44 13//27
f 57//45 9//39 12//20
f 27//23 64//46 11//15
f 25//44 18//47 13//27
f 70//48 12//20 19//49
f 74//50 5//7 28//51
f 28//51 75//52 29//53
f 2//3 1//32 42//1
f 1//32 41//31 43//1
f 42//1 1//32 43//1
f 4//6 2//3 73//54
f 2//3 23//2 73//54
f 73//54 72//4 4//6
f 2//3 4//6 5//7
f 6//11 4//6 32//28
f 4//6 35//5 32//28
f 32//28 31//9 6//11
f 4//6 6//11 7//12
f 6//11 14//10 53//13
f 14//10 54//13 53//13
f 53//13 24//55 10//14
f 6//11 10//14 11//15
f 8//18 7//12 58//16
f 7//12 11//15 58//16
f 11//15 36//56 58//16
f 12//20 9//39 38//17
f 9//39 8//18 38//17
f 16//57 10//14 59//21
f 10//14 24//55 60//21
f 27//23 11//15 62//22
f 11//15 10//14 62//22
f 10//14 16//57 62//22
f 16//57 63//58 62//22
f 12//20 39//19 69//24
f 69//24 68//59 67//24
f 67//24 21//25 18//47
f 21//25 13//27 18//47
f 18//47 66//60 67//24
f 66//60 19//49 67//24
f 19//49 12//20 67//24
f 21//25 71//61 20//26
f 1//32 26//62 45//30
f 26//62 46//63 45//30
f 47//33 26//62 1//32
f 48//35 37//64 3//8
f 8//18 30//40 7//12
f 30//40 49//65 5//7
f 49//65 22//66 5//7
f 9//39 40//38 52//42
f 9//39 52//42 51//41
f 50//42 30//40 8//18
f 8//18 9//39 51//41
f 3//8 37//64 55//43
f 55//43 17//34 1//32
f 1//32 2//3 55//43
f 20//26 56//67 25//44
f 12//20 15//68 57//45
f 57//45 34//37 9//39
f 27//23 65//69 64//46
f 64//46 36//56 11//15
f 70//48 15//68 12//20
f 28//51 29//53 74//50
f 74//50 33//36 3//8
f 3//8 5//7 74//50
f 5//7 22//66 28//51
