# Blender v2.81 (sub 16) OBJ File: ''
# www.blender.org
mtllib Laos.mtl
o 0_Laos_sphere.001
v -1.333277 1.470200 -4.589182
v -1.339560 1.394954 -4.610798
v -1.345505 1.319363 -4.631263
v -1.351119 1.243447 -4.650591
v -1.163170 1.767372 -4.530257
v -1.169931 1.693688 -4.556581
v -1.176399 1.619585 -4.581782
v -1.182581 1.545083 -4.605862
v -1.014114 1.840621 -4.536895
v -1.020297 1.767372 -4.564558
v -1.026228 1.693688 -4.591082
v -1.031901 1.619585 -4.616473
v -1.037324 1.545083 -4.640735
v -0.876417 1.767372 -4.594354
v -0.881512 1.693688 -4.621051
v -0.883161 1.668602 -4.629703
v -0.946320 1.840621 -4.550934
v -0.914730 1.619585 -4.640738
v -1.242847 1.394954 -4.637255
v -1.352768 1.219654 -4.656270
v -1.167997 1.767372 -4.528937
v -1.366049 1.243447 -4.645998
v -1.407966 1.243447 -4.633102
v -1.449615 1.243447 -4.620290
v -0.834607 1.767372 -4.601651
v -1.403199 1.394954 -4.591220
v -1.071386 1.545083 -4.632557
v -1.165024 1.545083 -4.610077
v -1.275776 1.545083 -4.580367
v -1.184096 1.525819 -4.611762
v -1.333255 1.470451 -4.589106
v -1.037657 1.540256 -4.642224
v -1.012075 1.863705 -4.527771
v -0.911086 1.545083 -4.666877
v -0.982325 1.545083 -4.652124
v -1.012678 1.545083 -4.645839
v -1.294762 1.319363 -4.645144
v -1.186788 1.693688 -4.551970
v -1.162707 1.772188 -4.528452
v -0.863579 1.693688 -4.624180
v -0.873779 1.803760 -4.580522
v -1.452469 1.319363 -4.598356
v -1.215648 1.470200 -4.621362
v -1.029261 1.840621 -4.533258
v -1.278741 1.243447 -4.670392
v -1.333451 1.470200 -4.589129
v -1.194614 1.619585 -4.576799
v -1.170552 1.686569 -4.559002
v -1.175572 1.629056 -4.578562
v -1.455996 1.310964 -4.599601
v -1.374010 1.257711 -4.639593
v -1.223218 1.415047 -4.636395
v -1.022515 1.539419 -4.645630
v -0.914583 1.504426 -4.679281
v -1.341439 1.199429 -4.664579
v -1.271865 1.232498 -4.675093
v -1.067764 1.772633 -4.551069
v -1.145200 1.564893 -4.608039
v -1.083825 1.570549 -4.620833
v -0.838049 1.774229 -4.598357
v -1.430797 1.370273 -4.590009
v -1.202753 1.700652 -4.544940
v -1.211793 1.497451 -4.613484
v -1.308466 1.502148 -4.585497
v -1.295762 1.270590 -4.658275
v -0.902296 1.827206 -4.565352
v -0.910903 1.808073 -4.571130
v -0.953548 1.805818 -4.563190
v -0.997168 1.553964 -4.646024
v -0.908052 1.578829 -4.656007
v -1.025799 1.846646 -4.531580
v -1.153895 1.679180 -4.565669
v -1.133467 1.649498 -4.581290
v -0.867388 1.669598 -4.632101
v -1.365239 1.428624 -4.592361
v -1.447967 1.226538 -4.625193
v -1.165484 1.772138 -4.527713
v -0.934050 1.898530 -4.529528
v -0.974020 1.910439 -4.516326
v -1.294219 1.341888 -4.638710
v -1.233428 1.600125 -4.572912
v -0.922169 1.665758 -4.622644
v -1.069752 1.541765 -4.634028
v -0.859476 1.718904 -4.615457
v -0.822890 1.744111 -4.612404
vn -0.2516 0.3015 -0.9197
vn -0.2522 0.2943 -0.9218
vn -0.2528 0.2865 -0.9241
vn -0.2531 0.2825 -0.9253
vn -0.2679 0.2789 -0.9221
vn -0.2539 0.2713 -0.9284
vn -0.2691 0.2638 -0.9263
vn -0.2545 0.2635 -0.9304
vn -0.2550 0.2562 -0.9323
vn -0.2172 0.3661 -0.9048
vn -0.2028 0.3681 -0.9074
vn -0.2040 0.3534 -0.9129
vn -0.2326 0.3534 -0.9060
vn -0.2052 0.3386 -0.9182
vn -0.2340 0.3386 -0.9113
vn -0.2203 0.3312 -0.9175
vn -0.2308 0.3312 -0.9149
vn -0.2214 0.3165 -0.9224
vn -0.2353 0.3239 -0.9163
vn -0.1880 0.3753 -0.9076
vn -0.1879 0.3753 -0.9076
vn -0.1885 0.3687 -0.9102
vn -0.1891 0.3609 -0.9132
vn -0.1810 0.3609 -0.9149
vn -0.1763 0.3386 -0.9242
vn -0.1774 0.3313 -0.9267
vn -0.1913 0.3312 -0.9239
vn -0.1924 0.3165 -0.9289
vn -0.1928 0.3091 -0.9313
vn -0.1925 0.3139 -0.9297
vn -0.1753 0.3534 -0.9189
vn -0.1603 0.3609 -0.9187
vn -0.1610 0.3511 -0.9224
vn -0.1612 0.3460 -0.9243
vn -0.1613 0.3460 -0.9243
vn -0.2833 0.2910 -0.9138
vn -0.2547 0.3016 -0.9188
vn -0.2671 0.2940 -0.9177
vn -0.2842 0.2562 -0.9239
vn -0.2844 0.2543 -0.9243
vn -0.2501 0.3188 -0.9142
vn -0.2302 0.3312 -0.9150
vn -0.2477 0.3441 -0.9056
vn -0.1933 0.3015 -0.9337
vn -0.1934 0.3014 -0.9337
vn -0.2075 0.3090 -0.9281
vn -0.2614 0.2412 -0.9346
vn -0.2558 0.2458 -0.9350
vn -0.2561 0.2412 -0.9361
vn -0.2827 0.2750 -0.9189
vn -0.2470 0.3516 -0.9030
vn -0.2164 0.3753 -0.9012
vn -0.1622 0.3312 -0.9295
vn -0.1617 0.3391 -0.9267
vn -0.2817 0.2866 -0.9157
vn -0.2846 0.2514 -0.9251
vn -0.2702 0.2487 -0.9301
vn -0.2853 0.2412 -0.9276
vn -0.2847 0.2495 -0.9255
vn -0.2461 0.3608 -0.8995
vn -0.2365 0.3090 -0.9212
vn -0.2225 0.3015 -0.9271
vn -0.2075 0.3015 -0.9306
vn -0.2217 0.3125 -0.9236
vn -0.2449 0.3015 -0.9214
vn -0.2512 0.3062 -0.9182
vn -0.2177 0.3608 -0.9069
vn -0.2319 0.3609 -0.9033
vn -0.2064 0.3239 -0.9233
vn -0.2203 0.3312 -0.9174
vn -0.2218 0.3114 -0.9240
vn -0.1934 0.3753 -0.9065
vn -0.1919 0.3228 -0.9268
vn -0.2838 0.2622 -0.9223
vn -0.2561 0.2411 -0.9361
vn -0.2830 0.2713 -0.9199
vn -0.2475 0.3460 -0.9050
vn -0.2503 0.3165 -0.9149
usemtl None
s 1
f 63//1 43//2 64//1
f 43//2 52//3 19//4
f 2//5 19//4 80//6
f 3//7 37//8 65//9
f 44//10 9//11 10//12
f 5//13 11//14 6//15
f 72//16 48//17 6//15
f 59//18 58//18 7//19
f 79//20 78//21 17//22
f 67//23 66//23 41//24
f 10//12 15//25 11//14
f 15//25 16//26 82//27
f 70//28 34//29 35//30
f 14//31 60//32 25//33
f 25//33 85//34 84//35
f 46//36 31//37 1//38
f 51//39 23//40 50//39
f 47//41 49//42 7//19
f 48//17 38//43 6//15
f 34//29 54//44 35//30
f 53//45 13//46 36//30
f 20//47 45//48 55//49
f 26//50 2//5 3//7
f 6//15 21//51 5//13
f 71//52 9//11 44//10
f 74//53 15//25 40//54
f 75//55 1//38 2//5
f 20//47 22//56 4//57
f 23//40 76//58 24//59
f 77//60 5//13 21//51
f 47//41 7//19 8//61
f 83//62 13//46 32//63
f 28//64 30//65 8//61
f 43//2 1//38 64//1
f 1//38 31//37 64//1
f 64//1 29//66 63//1
f 29//66 8//61 63//1
f 8//61 30//65 63//1
f 19//4 2//5 1//38
f 1//38 43//2 19//4
f 37//8 3//7 80//6
f 3//7 2//5 80//6
f 45//48 4//57 65//9
f 4//57 3//7 65//9
f 10//12 5//13 57//67
f 5//13 39//68 57//67
f 57//67 44//10 10//12
f 5//13 10//12 11//14
f 12//69 7//19 73//70
f 7//19 49//42 73//70
f 6//15 11//14 72//16
f 11//14 12//69 73//70
f 72//16 11//14 73//70
f 28//64 8//61 58//18
f 8//61 7//19 58//18
f 12//69 13//46 59//18
f 13//46 27//71 59//18
f 12//69 59//18 7//19
f 17//22 9//11 33//72
f 33//72 79//20 17//22
f 10//12 9//11 68//23
f 9//11 17//22 68//23
f 41//24 14//31 67//23
f 14//31 10//12 68//23
f 67//23 14//31 68//23
f 10//12 14//31 15//25
f 18//73 12//69 82//27
f 12//69 11//14 82//27
f 11//14 15//25 82//27
f 36//30 13//46 69//28
f 13//46 12//69 69//28
f 12//69 18//73 69//28
f 18//73 70//28 35//30
f 69//28 18//73 35//30
f 14//31 41//24 60//32
f 40//54 15//25 84//35
f 15//25 14//31 84//35
f 14//31 25//33 84//35
f 23//40 24//59 50//39
f 50//39 42//74 51//39
f 42//74 3//7 51//39
f 3//7 4//57 51//39
f 4//57 22//56 51//39
f 53//45 32//63 13//46
f 4//57 45//48 20//47
f 45//48 56//75 55//49
f 3//7 42//74 61//76
f 61//76 26//50 3//7
f 6//15 38//43 21//51
f 38//43 62//77 21//51
f 71//52 33//72 9//11
f 74//53 16//26 15//25
f 2//5 26//50 75//55
f 75//55 46//36 1//38
f 77//60 39//68 5//13
f 8//61 29//66 81//78
f 81//78 47//41 8//61
f 83//62 27//71 13//46
