# Blender v2.81 (sub 16) OBJ File: ''
# www.blender.org
mtllib Lebanon.mtl
o 0_Lebanon_sphere.001
v 3.345614 2.810416 -2.430725
v 3.327742 2.842381 -2.417740
v 3.413706 2.745113 -2.409715
v 3.387982 2.745113 -2.446316
v 3.358478 2.810416 -2.412422
v 3.319102 2.810416 -2.466036
v 3.366099 2.772521 -2.445608
v 3.310546 2.838547 -2.445055
v 3.329986 2.839868 -2.417567
v 3.401134 2.742337 -2.430720
v 3.411775 2.729458 -2.430040
v 3.425791 2.729558 -2.409986
v 3.389335 2.743388 -2.446327
v 3.378823 2.788870 -2.408508
v 3.357442 2.783195 -2.445261
vn 0.6691 0.5620 -0.4862
vn 0.6731 0.5685 -0.4731
vn 0.6779 0.5599 -0.4764
vn 0.6579 0.5685 -0.4939
vn 0.6604 0.5639 -0.4959
vn 0.6846 0.5475 -0.4812
vn 0.6873 0.5424 -0.4830
vn 0.6830 0.5505 -0.4800
vn 0.6803 0.5555 -0.4781
vn 0.6785 0.5555 -0.4805
vn 0.6649 0.5555 -0.4993
vn 0.6615 0.5685 -0.4890
vn 0.6873 0.5426 -0.4829
usemtl None
s 1
f 1//1 9//2 5//3
f 8//4 1//1 6//5
f 3//6 10//7 4//8
f 5//3 14//9 7//10
f 15//11 1//1 7//10
f 1//1 2//12 9//2
f 8//4 2//12 1//1
f 3//6 12//7 11//7
f 10//7 13//13 4//8
f 3//6 11//7 10//7
f 3//6 4//8 14//9
f 4//8 7//10 14//9
f 7//10 1//1 5//3
f 15//11 6//5 1//1
