# Blender v2.81 (sub 16) OBJ File: ''
# www.blender.org
mtllib Lesotho.mtl
o 0_Lesotho_sphere.001
v 3.805939 -2.477296 -2.092326
v 3.791196 -2.506260 -2.084222
v 3.864544 -2.477296 -1.981640
v 3.862887 -2.490619 -1.968233
v 3.838441 -2.411068 -2.110195
v 3.809747 -2.545210 -2.000842
v 3.802961 -2.545210 -2.013659
v 3.861525 -2.408771 -2.069345
v 3.841087 -2.408771 -2.107947
v 3.796725 -2.477296 -2.108480
v 3.868269 -2.442291 -2.016495
v 3.863703 -2.412461 -2.060816
v 3.806609 -2.548354 -2.002724
v 3.802757 -2.443398 -2.136217
v 3.827052 -2.420537 -2.119460
v 3.854415 -2.396932 -2.096423
v 3.803762 -2.516827 -2.047373
v 3.797943 -2.540883 -2.028507
v 3.796116 -2.480479 -2.105817
v 3.789921 -2.505183 -2.087720
vn 0.7721 -0.4866 -0.4088
vn 0.7711 -0.4886 -0.4082
vn 0.7612 -0.4954 -0.4185
vn 0.7623 -0.5059 -0.4036
vn 0.7571 -0.5157 -0.4010
vn 0.7635 -0.5036 -0.4042
vn 0.7579 -0.4886 -0.4323
vn 0.7674 -0.4886 -0.4151
vn 0.7726 -0.4855 -0.4090
vn 0.7778 -0.4748 -0.4118
vn 0.7642 -0.5022 -0.4046
vn 0.7663 -0.4981 -0.4057
vn 0.7511 -0.5022 -0.4284
vn 0.7556 -0.4933 -0.4310
vn 0.7591 -0.5022 -0.4141
usemtl None
s 1
f 8//1 12//2 1//3
f 6//4 13//5 7//6
f 15//7 5//8 1//3
f 9//9 16//10 8//1
f 17//11 3//12 6//4
f 20//13 19//13 1//3
f 3//12 1//3 11//2
f 1//3 5//8 8//1
f 11//2 1//3 12//2
f 5//8 9//9 8//1
f 1//3 10//14 14//7
f 14//7 15//7 1//3
f 6//4 7//6 17//11
f 7//6 18//11 17//11
f 17//11 2//15 1//3
f 3//12 4//11 6//4
f 17//11 1//3 3//12
f 1//3 2//15 20//13
f 19//13 10//14 1//3
