# Blender v2.81 (sub 16) OBJ File: ''
# www.blender.org
mtllib Liberia.mtl
o 0_Liberia_sphere.001
v 4.899498 0.626664 0.776010
v 4.908615 0.548669 0.777454
v 4.916518 0.470539 0.778706
v 4.872705 0.626664 0.929524
v 4.881772 0.548669 0.931253
v 4.865987 0.626664 0.961967
v 4.865698 0.679776 0.928187
v 4.934313 0.470539 0.653679
v 4.920757 0.421006 0.779377
v 4.906320 0.470539 0.837142
v 4.879457 0.548669 0.942432
v 4.866367 0.704504 0.905039
v 4.882418 0.704504 0.813069
v 4.931955 0.392293 0.718351
v 4.939157 0.392293 0.667753
v 4.906266 0.626664 0.728457
v 4.882872 0.537734 0.931463
v 4.898231 0.636214 0.775809
v 4.915636 0.548669 0.728125
v 4.935047 0.462963 0.653179
v 4.934811 0.452074 0.661536
v 4.936677 0.379666 0.691514
v 4.939834 0.380445 0.668950
v 4.864379 0.643639 0.958486
v 4.865654 0.590718 0.984544
v 4.866637 0.618461 0.963615
v 4.866998 0.730873 0.878358
v 4.869883 0.732792 0.860149
v 4.872319 0.742507 0.837690
v 4.865822 0.690610 0.919015
v 4.886133 0.689639 0.803394
v 4.889753 0.654897 0.809793
v 4.895087 0.636494 0.793606
v 4.901187 0.487272 0.856581
v 4.883680 0.534838 0.928559
v 4.920671 0.421196 0.779780
v 4.899150 0.636089 0.769469
v 4.897018 0.670890 0.751279
v 4.900761 0.668649 0.727118
v 4.903540 0.643503 0.731561
v 4.909927 0.601632 0.723753
v 4.911777 0.563145 0.743079
v 4.917979 0.539324 0.718448
v 4.922454 0.533512 0.691233
v 4.931321 0.497180 0.655339
vn 0.9763 0.1331 0.1704
vn 0.9745 0.1253 0.1859
vn 0.9817 0.1097 0.1555
vn 0.9763 0.1097 0.1862
vn 0.9800 0.1019 0.1710
vn 0.9803 0.0984 0.1711
vn 0.9705 0.1331 0.2010
vn 0.9716 0.1244 0.2012
vn 0.9724 0.1175 0.2014
vn 0.9729 0.1137 0.2015
vn 0.9863 0.0863 0.1404
vn 0.9833 0.0941 0.1557
vn 0.9865 0.0841 0.1404
vn 0.9875 0.0706 0.1405
vn 0.9869 0.0789 0.1404
vn 0.9786 0.1018 0.1789
vn 0.9742 0.1487 0.1700
vn 0.9758 0.1371 0.1703
vn 0.9815 0.0863 0.1708
vn 0.9812 0.1331 0.1396
vn 0.9812 0.1331 0.1397
vn 0.9799 0.1253 0.1552
vn 0.9832 0.1175 0.1399
vn 0.9849 0.1018 0.1402
vn 0.9789 0.1331 0.1552
vn 0.9751 0.1331 0.1771
vn 0.9757 0.1379 0.1703
vn 0.9863 0.0863 0.1403
vn 0.9857 0.0937 0.1403
vn 0.9847 0.0863 0.1513
vn 0.9875 0.0706 0.1406
vn 0.9823 0.1243 0.1398
vn 0.9845 0.1055 0.1401
vn 0.9849 0.1019 0.1402
vn 0.9849 0.1018 0.1401
usemtl None
s 1
f 30//1 4//2 32//1
f 2//3 4//2 5//4
f 34//5 10//6 2//3
f 4//2 24//7 6//8
f 4//2 26//9 11//10
f 21//11 3//12 14//13
f 22//14 15//15 14//13
f 11//10 17//16 5//4
f 28//17 27//17 12//18
f 36//19 3//12 10//6
f 40//20 38//20 37//21
f 1//22 2//3 42//23
f 2//3 3//12 43//24
f 4//2 1//22 33//1
f 1//22 18//25 33//1
f 30//1 7//26 4//2
f 13//27 12//18 32//1
f 12//18 30//1 32//1
f 32//1 31//1 13//27
f 4//2 33//1 32//1
f 2//3 1//22 4//2
f 10//6 3//12 2//3
f 2//3 5//4 34//5
f 5//4 17//16 35//5
f 34//5 5//4 35//5
f 4//2 7//26 24//7
f 11//10 5//4 4//2
f 4//2 6//8 26//9
f 26//9 25//9 11//10
f 14//13 15//15 21//11
f 21//11 20//28 8//29
f 8//29 3//12 21//11
f 3//12 9//30 14//13
f 22//14 23//31 15//15
f 12//18 13//27 28//17
f 13//27 29//17 28//17
f 36//19 9//30 3//12
f 1//22 16//32 37//21
f 16//32 40//20 37//21
f 40//20 39//20 38//20
f 37//21 18//25 1//22
f 2//3 19//33 42//23
f 42//23 41//23 1//22
f 41//23 16//32 1//22
f 3//12 8//29 44//34
f 8//29 45//35 44//34
f 44//34 43//24 3//12
f 43//24 19//33 2//3
