# Blender v2.81 (sub 16) OBJ File: ''
# www.blender.org
mtllib Lithuania.mtl
o 0_Lithuania_sphere.001
v 2.542946 4.135403 -1.196614
v 2.601405 4.090748 -1.224123
v 2.579278 4.135403 -1.116148
v 2.638572 4.090748 -1.141807
v 2.613064 4.135403 -1.034580
v 2.653390 4.090748 -1.106032
v 2.696882 4.045084 -1.167927
v 2.669246 4.045084 -1.229134
v 2.657348 4.102484 -1.052113
v 2.587529 4.153753 -1.024470
v 2.585709 4.090748 -1.256163
v 2.695871 4.046133 -1.166602
v 2.621481 4.135403 -1.012306
v 2.546375 4.159358 -1.101909
v 2.648461 4.053585 -1.246266
v 2.520564 4.151930 -1.186082
v 2.522966 4.135403 -1.237397
v 2.607081 4.146448 -1.003651
v 2.651978 4.096292 -1.088482
v 2.592454 4.087894 -1.251472
v 2.633690 4.059299 -1.258245
v 2.681289 4.040015 -1.219139
v 2.701137 4.040501 -1.173583
v 2.527077 4.126087 -1.259637
v 2.553745 4.103893 -1.278182
v 2.565887 4.161313 -1.047158
v 2.538407 4.158221 -1.123688
v 2.512271 4.163041 -1.164046
v 2.523082 4.153008 -1.176583
v 2.659706 4.105072 -1.035284
v 2.673973 4.074472 -1.115853
v 2.653995 4.088357 -1.113315
v 2.685978 4.056211 -1.153640
v 2.689151 4.061512 -1.126594
v 2.516262 4.149846 -1.201952
vn 0.5064 0.8314 -0.2286
vn 0.5100 0.8314 -0.2203
vn 0.5159 0.8270 -0.2232
vn 0.5086 0.8270 -0.2393
vn 0.5278 0.8181 -0.2284
vn 0.5203 0.8181 -0.2448
vn 0.5133 0.8314 -0.2126
vn 0.5156 0.8314 -0.2069
vn 0.5227 0.8270 -0.2069
vn 0.5253 0.8226 -0.2176
vn 0.5275 0.8210 -0.2185
vn 0.5197 0.8314 -0.1964
vn 0.5253 0.8274 -0.1985
vn 0.5221 0.8136 -0.2558
vn 0.5221 0.8136 -0.2557
vn 0.5342 0.8102 -0.2412
vn 0.5415 0.8043 -0.2445
vn 0.5319 0.8120 -0.2402
vn 0.5079 0.8247 -0.2488
vn 0.5128 0.8209 -0.2512
vn 0.5319 0.8226 -0.2010
vn 0.5372 0.8136 -0.2225
vn 0.5309 0.8136 -0.2370
vn 0.4989 0.8314 -0.2444
vn 0.5032 0.8314 -0.2355
vn 0.5280 0.8226 -0.2108
vn 0.5274 0.8136 -0.2447
vn 0.5106 0.8226 -0.2502
usemtl None
s 1
f 27//1 14//2 3//3
f 1//4 4//5 2//6
f 26//7 10//8 5//9
f 19//10 6//11 3//3
f 5//9 18//12 13//13
f 21//14 20//15 2//6
f 7//16 22//17 8//18
f 17//19 1//4 11//20
f 30//21 5//9 13//13
f 31//22 33//22 4//5
f 4//5 12//23 8//18
f 35//24 1//4 17//19
f 3//3 1//4 27//1
f 1//4 16//25 29//1
f 29//1 28//1 27//1
f 1//4 29//1 27//1
f 1//4 3//3 4//5
f 5//9 3//3 26//7
f 3//3 14//2 26//7
f 6//11 4//5 3//3
f 3//3 5//9 19//10
f 5//9 9//26 19//10
f 5//9 10//8 18//12
f 2//6 15//27 21//14
f 20//15 11//20 2//6
f 7//16 23//17 22//17
f 2//6 11//20 1//4
f 11//20 25//28 24//28
f 17//19 11//20 24//28
f 30//21 9//26 5//9
f 4//5 6//11 32//22
f 32//22 31//22 4//5
f 31//22 34//22 33//22
f 33//22 12//23 4//5
f 7//16 8//18 12//23
f 8//18 15//27 2//6
f 4//5 8//18 2//6
f 35//24 16//25 1//4
