# Blender v2.81 (sub 16) OBJ File: ''
# www.blender.org
mtllib Luxembourg.mtl
o 0_Luxembourg_sphere.001
v 3.230686 3.802029 -0.325024
v 3.227910 3.802029 -0.350165
v 3.230537 3.799763 -0.350162
v 3.233669 3.798597 -0.334035
v 3.201117 3.824418 -0.350165
v 3.229295 3.803577 -0.320839
v 3.191382 3.835043 -0.323171
v 3.187326 3.837117 -0.337421
vn 0.6514 0.7552 -0.0719
vn 0.6453 0.7606 -0.0712
vn 0.6417 0.7637 -0.0708
vn 0.6396 0.7654 -0.0706
vn 0.6516 0.7552 -0.0719
vn 0.6395 0.7655 -0.0706
usemtl None
s 1
f 4//1 2//2 1//3
f 6//4 1//3 5//4
f 4//1 3//5 2//2
f 1//3 2//2 5//4
f 5//4 8//6 7//4
f 7//4 6//4 5//4
