# Blender v2.81 (sub 16) OBJ File: ''
# www.blender.org
mtllib Macedonia.mtl
o 0_Macedonia_sphere.001
v 3.487182 3.306558 -1.380667
v 3.512629 3.306558 -1.313322
v 3.430882 3.365062 -1.379675
v 3.418533 3.365062 -1.409487
v 3.512639 3.275005 -1.390746
v 3.441215 3.361755 -1.362467
v 3.453480 3.306558 -1.462031
v 3.530532 3.269609 -1.356639
v 3.527190 3.285647 -1.326115
v 3.423085 3.345334 -1.444663
v 3.483445 3.335399 -1.317482
v 3.471288 3.348695 -1.315967
v 3.449257 3.358878 -1.348471
v 3.441962 3.361497 -1.361141
v 3.507384 3.313840 -1.308753
v 3.485942 3.335916 -1.309565
v 3.430545 3.365163 -1.380243
v 3.418264 3.366138 -1.407537
v 3.456729 3.302284 -1.463876
v 3.463274 3.300066 -1.453103
v 3.476629 3.288552 -1.446967
v 3.489164 3.289905 -1.413639
v 3.510281 3.275619 -1.395048
vn 0.6968 0.6671 -0.2633
vn 0.7009 0.6622 -0.2649
vn 0.7065 0.6553 -0.2670
vn 0.7027 0.6554 -0.2768
vn 0.6974 0.6613 -0.2761
vn 0.6875 0.6680 -0.2848
vn 0.6919 0.6672 -0.2757
vn 0.6860 0.6697 -0.2842
vn 0.6771 0.6802 -0.2807
vn 0.6978 0.6554 -0.2890
vn 0.6978 0.6553 -0.2890
vn 0.6968 0.6672 -0.2633
vn 0.7065 0.6554 -0.2670
vn 0.6933 0.6609 -0.2872
vn 0.6882 0.6671 -0.2850
vn 0.6785 0.6786 -0.2811
vn 0.6978 0.6554 -0.2891
vn 0.6978 0.6553 -0.2891
usemtl None
s 1
f 15//1 2//2 11//1
f 8//3 5//4 1//5
f 3//6 6//7 1//5
f 4//8 17//9 3//6
f 1//5 22//10 20//11
f 2//2 1//5 11//1
f 1//5 6//7 14//12
f 11//1 1//5 13//1
f 14//12 13//1 1//5
f 13//1 12//1 11//1
f 11//1 16//1 15//1
f 1//5 2//2 9//13
f 9//13 8//3 1//5
f 1//5 7//14 10//15
f 10//15 4//8 1//5
f 4//8 3//6 1//5
f 4//8 18//16 17//9
f 1//5 5//4 23//11
f 22//10 21//17 20//11
f 1//5 23//11 22//10
f 19//18 7//14 20//11
f 7//14 1//5 20//11
