# Blender v2.81 (sub 16) OBJ File: ''
# www.blender.org
mtllib Madagascar.mtl
o 0_Madagascar_sphere.001
v 3.074162 -1.319368 -3.716017
v 3.215201 -1.167230 -3.646923
v 3.202679 -1.243452 -3.632720
v 3.189368 -1.319368 -3.617622
v 3.175270 -1.394959 -3.601631
v 3.160387 -1.470205 -3.584749
v 3.144727 -1.545088 -3.566986
v 3.128288 -1.619590 -3.548340
v 3.111079 -1.693693 -3.528821
v 3.301426 -1.319368 -3.515656
v 3.286833 -1.394959 -3.500117
v 3.271428 -1.470205 -3.483709
v 3.255217 -1.545088 -3.466448
v 3.238201 -1.619590 -3.448327
v 3.220387 -1.693693 -3.429358
v 3.201779 -1.767377 -3.409542
v 3.182380 -1.840626 -3.388884
v 3.162197 -1.913420 -3.367391
v 3.141232 -1.985743 -3.345068
v 3.119494 -2.057575 -3.321917
v 3.395153 -1.394959 -3.395148
v 3.379240 -1.470205 -3.379232
v 3.362494 -1.545088 -3.362488
v 3.344918 -1.619590 -3.344911
v 3.326517 -1.693693 -3.326511
v 3.307295 -1.767377 -3.307289
v 3.287258 -1.840626 -3.287251
v 3.266409 -1.913420 -3.266402
v 3.244753 -1.985743 -3.244748
v 3.222298 -2.057575 -3.222292
v 3.199048 -2.128899 -3.199042
v 3.100170 -1.767377 -3.501999
v 3.069673 -1.344336 -3.710592
v 3.070101 -1.319368 -3.719271
v 3.092999 -1.545088 -3.611165
v 3.122499 -1.167230 -3.726097
v 3.216517 -1.158639 -3.648417
v 3.395836 -1.391535 -3.395830
v 3.291370 -2.057575 -3.151015
v 3.090670 -1.985743 -3.391075
v 3.360075 -1.693693 -3.291882
v 3.098849 -1.394959 -3.666901
v 3.251422 -1.243452 -3.588368
v 3.361205 -1.913420 -3.168580
v 3.098949 -1.840626 -3.464801
v 3.095891 -1.619590 -3.576010
v 3.077184 -1.301482 -3.719671
v 3.101800 -1.243452 -3.718879
v 3.100006 -1.739082 -3.516260
v 3.225882 -2.128899 -3.171352
v 3.210060 -1.090719 -3.674632
v 3.160447 -1.090719 -3.717006
v 3.087343 -2.057575 -3.351172
v 3.365395 -1.767377 -3.247335
v 3.301873 -1.319368 -3.515223
v 3.103083 -1.470205 -3.633691
v 3.101281 -2.115288 -3.302522
v 3.301539 -1.318747 -3.515776
v 3.415642 -1.394959 -3.374004
v 3.129044 -2.128899 -3.266881
v 3.321595 -1.985743 -3.165454
v 3.096544 -1.913420 -3.427131
v 3.098652 -1.693693 -3.539435
v 3.390068 -1.619590 -3.298320
v 3.428277 -1.470205 -3.328630
v 3.193174 -2.146199 -3.193168
v 3.419429 -1.545088 -3.303735
v 3.220264 -1.167230 -3.642316
v 3.379413 -1.840626 -3.192154
v 3.070174 -1.313119 -3.721334
v 3.144898 -1.115643 -3.722690
v 3.204698 -1.132194 -3.666571
v 3.069479 -1.353446 -3.707380
v 3.076321 -1.378112 -3.692389
v 3.106959 -1.328809 -3.684505
v 3.114443 -1.353644 -3.668903
v 3.433630 -1.495824 -3.311465
v 3.356457 -1.715833 -3.283880
v 3.352399 -1.935627 -3.164156
v 3.204307 -2.140342 -3.185721
v 3.368695 -1.375829 -3.428298
v 3.349359 -1.360639 -3.453001
v 3.323109 -1.359527 -3.478875
v 3.244222 -1.217123 -3.603760
v 3.258783 -1.180924 -3.602667
v 3.230467 -1.191158 -3.624996
v 3.097173 -1.904478 -3.431455
v 3.086181 -2.108325 -3.320601
v 3.211221 -1.081055 -3.676378
v 3.195119 -1.042810 -3.700957
v 3.167392 -1.079412 -3.714276
v 3.093590 -1.273636 -3.715368
v 3.103325 -1.470518 -3.633354
v 3.092797 -1.541002 -3.613037
v 3.364704 -1.663530 -3.302324
v 3.387800 -1.624524 -3.298171
v 3.374941 -1.877599 -3.175252
v 3.257427 -2.111972 -3.150012
v 3.286541 -2.070173 -3.147654
v 3.165228 -2.160379 -3.210768
v 3.423681 -1.449169 -3.342412
v 3.427192 -1.396156 -3.361571
v 3.087880 -2.016068 -3.375490
v 3.120477 -1.171821 -3.726325
v 3.090757 -1.415797 -3.665617
v 3.089520 -1.451216 -3.652743
v 3.096410 -1.637454 -3.567318
v 3.411249 -1.572334 -3.299116
v 3.381754 -1.819104 -3.201701
v 3.359691 -1.804934 -3.232345
v 3.367114 -1.777829 -3.239752
v 3.312953 -1.999519 -3.165621
v 3.297679 -1.311739 -3.521801
v 3.255731 -1.259648 -3.578642
v 3.100298 -1.750730 -3.510185
v 3.126912 -2.127058 -3.270129
v 3.398717 -1.393211 -3.392178
vn 0.6277 -0.2562 -0.7350
vn 0.6405 -0.2487 -0.7265
vn 0.6379 -0.2638 -0.7235
vn 0.6430 -0.2334 -0.7294
vn 0.6375 -0.2257 -0.7366
vn 0.6539 -0.2366 -0.7186
vn 0.6532 -0.2410 -0.7178
vn 0.6505 -0.2562 -0.7149
vn 0.6560 -0.2566 -0.7098
vn 0.6603 -0.2638 -0.7031
vn 0.6574 -0.2790 -0.7000
vn 0.6350 -0.2790 -0.7203
vn 0.6321 -0.2940 -0.7169
vn 0.6543 -0.2940 -0.6967
vn 0.6510 -0.3090 -0.6933
vn 0.6289 -0.3090 -0.7134
vn 0.6257 -0.3239 -0.7096
vn 0.6476 -0.3239 -0.6897
vn 0.6441 -0.3387 -0.6859
vn 0.6222 -0.3387 -0.7058
vn 0.6706 -0.2674 -0.6919
vn 0.6790 -0.2790 -0.6790
vn 0.6698 -0.2714 -0.6912
vn 0.6758 -0.2940 -0.6758
vn 0.6725 -0.3090 -0.6725
vn 0.6690 -0.3239 -0.6690
vn 0.6653 -0.3387 -0.6653
vn 0.6615 -0.3534 -0.6615
vn 0.6403 -0.3534 -0.6819
vn 0.6365 -0.3681 -0.6778
vn 0.6574 -0.3681 -0.6574
vn 0.6533 -0.3826 -0.6533
vn 0.6324 -0.3826 -0.6735
vn 0.6489 -0.3971 -0.6489
vn 0.6282 -0.3971 -0.6690
vn 0.6239 -0.4115 -0.6644
vn 0.6445 -0.4115 -0.6445
vn 0.6912 -0.2713 -0.6698
vn 0.6881 -0.2861 -0.6668
vn 0.6880 -0.2865 -0.6667
vn 0.6847 -0.3015 -0.6635
vn 0.6858 -0.2966 -0.6646
vn 0.6831 -0.3086 -0.6619
vn 0.6812 -0.3164 -0.6601
vn 0.6775 -0.3313 -0.6566
vn 0.6776 -0.3313 -0.6566
vn 0.6755 -0.3393 -0.6546
vn 0.6737 -0.3460 -0.6529
vn 0.6698 -0.3608 -0.6490
vn 0.6698 -0.3607 -0.6490
vn 0.6674 -0.3691 -0.6467
vn 0.6656 -0.3753 -0.6450
vn 0.6613 -0.3899 -0.6408
vn 0.6596 -0.3953 -0.6392
vn 0.6568 -0.4043 -0.6365
vn 0.6522 -0.4186 -0.6320
vn 0.6514 -0.4207 -0.6313
vn 0.6180 -0.3959 -0.6792
vn 0.6043 -0.2563 -0.7544
vn 0.6148 -0.2638 -0.7432
vn 0.6033 -0.2629 -0.7530
vn 0.6326 -0.2258 -0.7407
vn 0.6250 -0.2714 -0.7319
vn 0.6147 -0.3224 -0.7198
vn 0.6474 -0.4328 -0.6273
vn 0.6398 -0.4257 -0.6398
vn 0.6238 -0.3753 -0.6855
vn 0.6112 -0.4186 -0.6717
vn 0.6237 -0.4187 -0.6601
vn 0.6349 -0.2105 -0.7434
vn 0.6349 -0.2104 -0.7434
vn 0.6338 -0.2182 -0.7421
vn 0.6192 -0.3015 -0.7250
vn 0.6195 -0.3013 -0.7248
vn 0.6291 -0.3461 -0.6959
vn 0.6114 -0.3372 -0.7159
vn 0.6261 -0.3667 -0.6881
vn 0.6273 -0.4328 -0.6474
vn 0.6345 -0.4328 -0.6403
vn 0.6155 -0.4043 -0.6765
vn 0.6236 -0.2714 -0.7331
vn 0.6303 -0.2410 -0.7380
vn 0.6222 -0.2865 -0.7285
vn 0.6234 -0.2801 -0.7299
vn 0.6128 -0.3313 -0.7175
vn 0.6314 -0.3460 -0.6939
vn 0.6320 -0.4186 -0.6522
vn 0.6241 -0.2563 -0.7381
vn 0.6289 -0.2492 -0.7364
vn 0.6514 -0.2512 -0.7159
vn 0.6505 -0.2563 -0.7149
vn 0.6780 -0.2715 -0.6831
vn 0.6797 -0.3226 -0.6587
vn 0.6711 -0.3559 -0.6503
vn 0.6697 -0.3608 -0.6490
vn 0.6636 -0.3821 -0.6431
vn 0.6546 -0.4111 -0.6344
vn 0.6221 -0.3815 -0.6837
vn 0.6312 -0.2351 -0.7391
vn 0.6326 -0.2257 -0.7407
vn 0.6334 -0.2208 -0.7416
vn 0.6251 -0.2714 -0.7318
vn 0.6250 -0.2714 -0.7318
vn 0.6179 -0.3075 -0.7236
vn 0.6138 -0.4099 -0.6746
vn 0.6217 -0.2897 -0.7277
vn 0.6299 -0.3520 -0.6923
vn 0.6313 -0.4208 -0.6514
usemtl None
s 1
f 92//1 3//2 4//3
f 2//4 37//5 68//6
f 86//7 85//7 84//7
f 113//8 58//9 10//10
f 4//3 11//11 5//12
f 6//13 11//11 12//14
f 6//13 13//15 7//16
f 8//17 13//15 14//18
f 8//17 15//19 9//20
f 10//10 58//9 55//21
f 21//22 11//11 81//23
f 12//14 21//22 22//24
f 12//14 23//25 13//15
f 14//18 23//25 24//26
f 14//18 25//27 15//19
f 15//19 26//28 16//29
f 17//30 26//28 27//31
f 17//30 28//32 18//33
f 18//33 29//34 19//35
f 20//36 29//34 30//37
f 21//22 117//38 59//39
f 59//39 102//40 101//40
f 77//41 23//25 65//42
f 23//25 67//43 108//44
f 24//26 96//45 95//46
f 25//27 41//47 78//48
f 110//49 109//50 69//51
f 27//31 69//51 97//52
f 28//32 79//53 61//54
f 29//34 61//54 112//55
f 98//56 50//57 30//37
f 40//58 18//33 19//35
f 70//59 1//60 34//61
f 72//62 37//5 2//4
f 75//63 1//60 4//3
f 46//64 7//16 8//17
f 80//65 31//66 50//57
f 87//67 17//30 18//33
f 88//68 20//36 57//69
f 91//70 89//71 51//72
f 94//73 93//74 6//13
f 49//75 63//76 9//20
f 45//77 16//29 17//30
f 100//78 31//66 66//79
f 103//80 19//35 20//36
f 33//81 34//61 1//60
f 104//82 2//4 3//2
f 105//83 42//84 5//12
f 107//85 8//17 9//20
f 15//19 16//29 115//86
f 20//36 30//37 116//87
f 4//3 1//60 92//1
f 1//60 47//88 92//1
f 92//1 48//89 3//2
f 43//90 3//2 84//7
f 3//2 2//4 86//7
f 84//7 3//2 86//7
f 2//4 68//6 86//7
f 10//10 4//3 113//8
f 4//3 3//2 114//91
f 113//8 4//3 114//91
f 3//2 43//90 114//91
f 4//3 10//10 11//11
f 6//13 5//12 11//11
f 6//13 12//14 13//15
f 8//17 7//16 13//15
f 8//17 14//18 15//19
f 11//11 10//10 55//21
f 83//23 82//23 11//11
f 82//23 81//23 11//11
f 11//11 55//21 83//23
f 38//92 21//22 81//23
f 12//14 11//11 21//22
f 12//14 22//24 23//25
f 14//18 13//15 23//25
f 14//18 24//26 25//27
f 15//19 25//27 26//28
f 17//30 16//29 26//28
f 17//30 27//31 28//32
f 18//33 28//32 29//34
f 20//36 19//35 29//34
f 21//22 38//92 117//38
f 65//42 22//24 101//40
f 22//24 21//22 59//39
f 101//40 22//24 59//39
f 67//43 23//25 77//41
f 23//25 22//24 65//42
f 64//93 24//26 108//44
f 24//26 23//25 108//44
f 41//47 25//27 95//46
f 25//27 24//26 95//46
f 24//26 64//93 96//45
f 54//94 26//28 78//48
f 26//28 25//27 78//48
f 69//51 27//31 110//49
f 27//31 26//28 110//49
f 26//28 54//94 110//49
f 54//94 111//95 110//49
f 44//96 28//32 97//52
f 28//32 27//31 97//52
f 61//54 29//34 28//32
f 28//32 44//96 79//53
f 39//97 30//37 112//55
f 30//37 29//34 112//55
f 50//57 31//66 30//37
f 30//37 39//97 99//56
f 99//56 98//56 30//37
f 40//58 62//98 18//33
f 70//59 47//88 1//60
f 2//4 36//99 72//62
f 36//99 71//100 72//62
f 71//100 52//101 72//62
f 52//101 51//72 72//62
f 5//12 42//84 76//63
f 75//63 74//102 73//103
f 5//12 76//63 4//3
f 76//63 75//63 4//3
f 73//103 33//81 75//63
f 33//81 1//60 75//63
f 46//64 35//104 7//16
f 80//65 66//79 31//66
f 18//33 62//98 87//67
f 87//67 45//77 17//30
f 88//68 53//105 20//36
f 51//72 52//101 91//70
f 91//70 90//71 89//71
f 7//16 35//104 94//73
f 93//74 56//106 6//13
f 7//16 94//73 6//13
f 45//77 32//107 16//29
f 100//78 60//108 31//66
f 20//36 53//105 103//80
f 103//80 40//58 19//35
f 3//2 48//89 104//82
f 104//82 36//99 2//4
f 6//13 56//106 5//12
f 56//106 106//83 105//83
f 5//12 56//106 105//83
f 9//20 63//76 107//85
f 107//85 46//64 8//17
f 16//29 32//107 115//86
f 115//86 49//75 15//19
f 49//75 9//20 15//19
f 31//66 60//108 30//37
f 60//108 116//87 30//37
f 116//87 57//69 20//36
