# Blender v2.81 (sub 16) OBJ File: ''
# www.blender.org
mtllib Mauritania.mtl
o 0_Mauritania_sphere.001
v 4.504054 2.128895 0.425765
v 4.780157 1.394954 0.451863
v 4.454730 2.199694 0.562770
v 4.488458 2.128895 0.567030
v 4.521080 2.057570 0.571151
v 4.552587 1.985738 0.575131
v 4.582970 1.913415 0.578970
v 4.612220 1.840621 0.582664
v 4.640337 1.767372 0.586217
v 4.667304 1.693688 0.589623
v 4.693120 1.619585 0.592886
v 4.717782 1.545083 0.596000
v 4.741276 1.470200 0.598969
v 4.763605 1.394954 0.601788
v 4.468432 2.128895 0.707736
v 4.500909 2.057570 0.712880
v 4.532275 1.985738 0.717847
v 4.562522 1.913415 0.722639
v 4.591642 1.840621 0.727250
v 4.619633 1.767372 0.731685
v 4.646481 1.693688 0.735936
v 4.672182 1.619585 0.740008
v 4.696734 1.545083 0.743895
v 4.720122 1.470200 0.747600
v 4.742351 1.394954 0.751120
v 4.443997 2.128895 0.847744
v 4.476295 2.057570 0.853905
v 4.507491 1.985738 0.859855
v 4.537572 1.913415 0.865594
v 4.566533 1.840621 0.871118
v 4.594371 1.767372 0.876430
v 4.621071 1.693688 0.881522
v 4.646632 1.619585 0.886399
v 4.671050 1.545083 0.891056
v 4.694310 1.470200 0.895494
v 4.716417 1.394954 0.899710
v 4.737357 1.319363 0.903705
v 4.508144 1.913415 1.007696
v 4.536917 1.840621 1.014127
v 4.564574 1.767372 1.020310
v 4.591102 1.693688 1.026238
v 4.616496 1.619585 1.031916
v 4.640756 1.545083 1.037338
v 4.663865 1.470200 1.042504
v 4.685829 1.394954 1.047412
v 4.706633 1.319363 1.052063
v 4.530273 1.767372 1.163183
v 4.556601 1.693688 1.169942
v 4.581805 1.619585 1.176414
v 4.605882 1.545083 1.182595
v 4.628818 1.470200 1.188485
v 4.491501 1.767372 1.304908
v 4.517603 1.693688 1.312491
v 4.542592 1.619585 1.319752
v 4.589202 1.470200 1.333293
v 4.591998 1.913415 0.497195
v 4.504890 2.128895 0.415140
v 4.739716 1.310303 0.904155
v 4.702155 1.319363 1.070713
v 4.604066 1.394954 1.361507
v 4.606052 1.394954 1.355051
v 4.731651 1.545083 0.470383
v 4.514307 1.693688 1.323205
v 4.489017 1.985738 0.949062
v 4.722154 1.319363 0.977116
v 4.732715 1.319363 0.926118
v 4.550797 1.593978 1.322135
v 4.512398 2.110714 0.426553
v 4.459487 2.199694 0.519681
v 4.403628 2.269951 0.672698
v 4.410509 2.269951 0.624349
v 4.622203 1.840621 0.492240
v 4.780712 1.394954 0.444816
v 4.499051 1.913415 1.045569
v 4.442743 2.183061 0.703668
v 4.786391 1.372749 0.452452
v 4.472212 1.819289 1.299304
v 4.756139 1.470200 0.464342
v 4.541747 1.619585 1.322498
v 4.606453 1.410141 1.338304
v 4.440909 2.227573 0.561023
v 4.438313 2.199694 0.678116
v 4.651288 1.767372 0.487021
v 4.530008 1.840621 1.042905
v 4.711772 1.299498 1.053212
v 4.528234 2.057570 0.506357
v 4.500684 2.135945 0.425446
v 4.746496 1.319363 0.851340
v 4.750076 1.319363 0.830830
v 4.753644 1.319363 0.810385
v 4.510787 1.819371 1.158179
v 4.679218 1.693688 0.481714
v 4.425423 2.128895 0.937434
v 4.643603 1.419164 1.192280
v 4.417229 2.185646 0.842638
v 4.779913 1.336662 0.603849
v 4.573983 1.520318 1.328871
v 4.778602 1.400177 0.451716
v 4.567321 1.545083 1.323546
v 4.586549 1.470200 1.341919
v 4.661535 1.394954 1.148605
v 4.560671 1.985738 0.501904
v 4.706006 1.619585 0.476172
v 4.479514 1.767372 1.343871
v 4.457768 2.057570 0.943371
v 4.481193 1.978634 1.001671
v 4.758876 1.335624 0.753738
v 4.776246 1.405369 0.458906
v 4.590869 1.434450 1.364234
v 4.446526 2.182392 0.679369
v 4.564772 1.554033 1.321551
v 4.585794 1.475737 1.338416
v 4.398244 2.186448 0.932414
v 4.539098 1.818311 1.042013
v 4.387946 2.300522 0.670193
v 4.503833 2.109462 0.509400
v 4.515263 2.110934 0.388876
v 4.702041 1.319592 1.070912
v 4.673237 1.381262 1.116400
v 4.535759 1.635758 1.322647
v 4.519054 1.676642 1.328129
v 4.730722 1.276913 0.991233
v 4.728936 1.261588 1.019892
v 4.754116 1.316157 0.812627
v 4.743214 1.305188 0.891999
v 4.653184 1.762376 0.486637
v 4.653994 1.403579 1.168963
v 4.507252 1.717617 1.316121
v 4.487278 1.756463 1.332318
v 4.489450 1.935073 1.046281
v 4.476982 1.976407 1.023253
v 4.725451 1.328537 0.948437
v 4.720584 1.326576 0.974665
v 4.751139 1.334865 0.799315
v 4.747022 1.321746 0.844419
v 4.780673 1.395100 0.444752
v 4.461804 1.791605 1.369557
v 4.456984 1.818748 1.349514
v 4.489939 1.983530 0.949219
v 4.637079 1.428176 1.205913
v 4.625046 1.427157 1.251053
v 4.619526 1.408943 1.291875
v 4.606439 1.416293 1.331381
v 4.795374 1.336245 0.464889
v 4.605827 1.389413 1.361097
vn 0.8947 0.4356 0.0988
vn 0.8910 0.4399 0.1126
vn 0.8977 0.4257 0.1134
vn 0.9502 0.2935 0.1049
vn 0.9482 0.2940 0.1198
vn 0.9527 0.2790 0.1203
vn 0.8842 0.4497 0.1258
vn 0.8821 0.4539 0.1256
vn 0.8891 0.4398 0.1265
vn 0.8925 0.4328 0.1270
vn 0.8903 0.4328 0.1412
vn 0.8937 0.4257 0.1415
vn 0.9002 0.4115 0.1426
vn 0.9042 0.4115 0.1142
vn 0.9065 0.3971 0.1436
vn 0.9105 0.3971 0.1150
vn 0.9166 0.3826 0.1158
vn 0.9125 0.3826 0.1445
vn 0.9183 0.3681 0.1455
vn 0.9225 0.3681 0.1165
vn 0.9281 0.3534 0.1172
vn 0.9239 0.3534 0.1463
vn 0.9293 0.3387 0.1472
vn 0.9335 0.3387 0.1179
vn 0.9386 0.3239 0.1186
vn 0.9344 0.3239 0.1480
vn 0.9393 0.3090 0.1488
vn 0.9435 0.3090 0.1192
vn 0.9440 0.2940 0.1495
vn 0.9485 0.2790 0.1502
vn 0.8888 0.4257 0.1695
vn 0.8953 0.4115 0.1708
vn 0.9015 0.3971 0.1720
vn 0.9075 0.3826 0.1731
vn 0.9133 0.3681 0.1742
vn 0.9189 0.3534 0.1753
vn 0.9242 0.3387 0.1763
vn 0.9293 0.3239 0.1773
vn 0.9342 0.3090 0.1782
vn 0.9388 0.2940 0.1791
vn 0.9433 0.2790 0.1799
vn 0.8855 0.4328 0.1690
vn 0.8860 0.4258 0.1835
vn 0.8925 0.4115 0.1848
vn 0.8987 0.3970 0.1861
vn 0.9018 0.3898 0.1867
vn 0.8989 0.3899 0.1999
vn 0.9016 0.3826 0.2015
vn 0.9074 0.3681 0.2028
vn 0.9129 0.3534 0.2040
vn 0.9182 0.3387 0.2052
vn 0.9233 0.3239 0.2064
vn 0.9282 0.3090 0.2075
vn 0.9328 0.2940 0.2085
vn 0.9372 0.2790 0.2095
vn 0.9425 0.2714 0.1952
vn 0.8954 0.3898 0.2150
vn 0.8954 0.3899 0.2149
vn 0.9039 0.3686 0.2170
vn 0.9069 0.3608 0.2177
vn 0.9060 0.3534 0.2326
vn 0.9113 0.3387 0.2340
vn 0.9163 0.3239 0.2353
vn 0.9212 0.3090 0.2365
vn 0.9257 0.2940 0.2377
vn 0.9321 0.2846 0.2238
vn 0.9316 0.2865 0.2236
vn 0.9359 0.2714 0.2247
vn 0.9357 0.2721 0.2247
vn 0.8956 0.3608 0.2601
vn 0.8983 0.3534 0.2610
vn 0.9035 0.3387 0.2625
vn 0.9085 0.3239 0.2639
vn 0.9147 0.3164 0.2513
vn 0.9175 0.3084 0.2510
vn 0.9193 0.3015 0.2527
vn 0.8914 0.3608 0.2742
vn 0.8926 0.3574 0.2746
vn 0.8967 0.3460 0.2759
vn 0.9018 0.3313 0.2774
vn 0.9178 0.2940 0.2666
vn 0.9113 0.3015 0.2803
vn 0.9142 0.2916 0.2812
vn 0.9124 0.3966 0.1007
vn 0.9185 0.3821 0.1014
vn 0.9157 0.2865 0.2817
vn 0.9176 0.2797 0.2823
vn 0.9179 0.2865 0.2744
vn 0.9455 0.3085 0.1044
vn 0.9061 0.4110 0.1000
vn 0.9405 0.3234 0.1038
vn 0.9364 0.2694 0.2250
vn 0.9450 0.2562 0.2031
vn 0.9413 0.2638 0.2104
vn 0.9041 0.3244 0.2781
vn 0.8786 0.4609 0.1250
vn 0.9027 0.4186 0.0996
vn 0.9008 0.4257 0.0851
vn 0.9041 0.4187 0.0855
vn 0.9040 0.4215 0.0711
vn 0.9354 0.3382 0.1032
vn 0.9549 0.2714 0.1206
vn 0.9506 0.2714 0.1507
vn 0.9465 0.2562 0.1960
vn 0.9442 0.2651 0.1955
vn 0.9430 0.2695 0.1953
vn 0.9502 0.2562 0.1774
vn 0.9475 0.2638 0.1807
vn 0.9522 0.2562 0.1662
vn 0.9483 0.2706 0.1655
vn 0.9495 0.2665 0.1657
vn 0.8969 0.4329 0.0905
vn 0.9325 0.3461 0.1029
vn 0.8867 0.4470 0.1176
vn 0.9569 0.2714 0.1028
vn 0.9563 0.2824 0.0752
vn 0.9560 0.2789 0.0904
vn 0.9481 0.2714 0.1655
vn 0.9243 0.3676 0.1020
vn 0.9300 0.3530 0.1027
vn 0.9545 0.2885 0.0750
vn 0.9241 0.2865 0.2528
vn 0.9199 0.2713 0.2830
vn 0.9168 0.2828 0.2820
vn 0.9523 0.2865 0.1051
vn 0.9532 0.2864 0.0963
vn 0.8827 0.4328 0.1828
vn 0.8981 0.3832 0.2156
vn 0.9033 0.3608 0.2320
vn 0.9293 0.2865 0.2329
vn 0.9150 0.3164 0.2503
vn 0.8996 0.3378 0.2767
vn 0.9054 0.4186 0.0713
vn 0.9486 0.2697 0.1656
vn 0.9566 0.2714 0.1056
usemtl None
s 1
f 69//1 3//2 4//3
f 78//4 13//5 14//6
f 71//7 70//8 82//9
f 110//10 75//11 15//12
f 4//3 16//13 5//14
f 5//14 17//15 6//16
f 7//17 17//15 18//18
f 7//17 19//19 8//20
f 9//21 19//19 20//22
f 9//21 21//23 10//24
f 11//25 21//23 22//26
f 11//25 23//27 12//28
f 13//5 23//27 24//29
f 13//5 25//30 14//6
f 75//11 26//31 15//12
f 15//12 27//32 16//13
f 16//13 28//33 17//15
f 18//18 28//33 29//34
f 18//18 30//35 19//19
f 20//22 30//35 31//36
f 20//22 32//37 21//23
f 22//26 32//37 33//38
f 22//26 34//39 23//27
f 24//29 34//39 35//40
f 24//29 36//41 25//30
f 95//42 93//43 26//31
f 26//31 105//44 27//32
f 27//32 64//45 28//33
f 139//46 106//47 38//48
f 29//34 39//49 30//35
f 31//36 39//49 40//50
f 31//36 41//51 32//37
f 33//38 41//51 42//52
f 33//38 43//53 34//39
f 35//40 43//53 44//54
f 35//40 45//55 36//41
f 36//41 133//56 132//56
f 130//57 38//48 131//58
f 38//48 84//59 39//49
f 40//50 114//60 47//61
f 40//50 48//62 41//51
f 42//52 48//62 49//63
f 42//52 50//64 43//53
f 44//54 50//64 51//65
f 101//66 51//65 127//67
f 119//68 118//69 45//55
f 47//61 77//70 52//71
f 47//61 53//72 48//62
f 49//63 53//72 54//73
f 49//63 54//73 67//74
f 50//64 99//75 97//76
f 138//77 137//77 104//78
f 53//72 52//71 128//79
f 53//72 121//80 120//80
f 55//81 112//82 100//83
f 102//84 7//17 56//85
f 109//86 60//87 80//88
f 62//89 13//5 78//4
f 86//90 6//16 102//84
f 103//91 12//28 62//89
f 59//92 85//93 46//94
f 79//95 67//74 54//73
f 71//7 115//96 70//8
f 116//97 1//98 4//3
f 68//99 57//100 1//98
f 92//101 11//25 103//91
f 96//102 25//30 107//103
f 122//104 65//105 85//93
f 66//106 58//107 37//108
f 125//109 37//108 58//107
f 89//110 124//109 90//111
f 57//100 87//112 1//98
f 126//113 9//21 10//24
f 69//1 81//114 3//2
f 76//115 73//116 2//117
f 135//118 89//110 134//118
f 72//119 9//21 83//120
f 136//121 2//117 73//116
f 141//122 51//65 55//81
f 76//115 2//117 14//6
f 56//85 8//20 72//119
f 60//87 145//123 61//124
f 4//3 1//98 87//112
f 87//112 69//1 4//3
f 14//6 2//117 108//125
f 2//117 98//126 108//125
f 108//125 78//4 14//6
f 82//9 3//2 81//114
f 81//114 71//7 82//9
f 15//12 4//3 110//10
f 4//3 3//2 110//10
f 3//2 82//9 110//10
f 4//3 15//12 16//13
f 5//14 16//13 17//15
f 7//17 6//16 17//15
f 7//17 18//18 19//19
f 9//21 8//20 19//19
f 9//21 20//22 21//23
f 11//25 10//24 21//23
f 11//25 22//26 23//27
f 13//5 12//28 23//27
f 13//5 24//29 25//30
f 75//11 95//42 26//31
f 15//12 26//31 27//32
f 16//13 27//32 28//33
f 18//18 17//15 28//33
f 18//18 29//34 30//35
f 20//22 19//19 30//35
f 20//22 31//36 32//37
f 22//26 21//23 32//37
f 22//26 33//38 34//39
f 24//29 23//27 34//39
f 24//29 35//40 36//41
f 95//42 113//127 93//43
f 26//31 93//43 105//44
f 27//32 105//44 64//45
f 38//48 29//34 139//46
f 29//34 28//33 139//46
f 28//33 64//45 139//46
f 29//34 38//48 39//49
f 31//36 30//35 39//49
f 31//36 40//50 41//51
f 33//38 32//37 41//51
f 33//38 42//52 43//53
f 35//40 34//39 43//53
f 35//40 44//54 45//55
f 66//106 37//108 36//41
f 36//41 45//55 133//56
f 45//55 46//94 133//56
f 46//94 65//105 133//56
f 132//56 66//106 36//41
f 74//128 38//48 130//57
f 38//48 106//47 131//58
f 38//48 74//128 84//59
f 40//50 39//49 114//60
f 39//49 84//59 114//60
f 114//60 91//129 47//61
f 40//50 47//61 48//62
f 42//52 41//51 48//62
f 42//52 49//63 50//64
f 44//54 43//53 50//64
f 101//66 45//55 44//54
f 44//54 51//65 101//66
f 51//65 94//130 127//67
f 59//92 46//94 118//69
f 46//94 45//55 118//69
f 45//55 101//66 119//68
f 47//61 91//129 77//70
f 47//61 52//71 53//72
f 49//63 48//62 53//72
f 99//75 50//64 111//131
f 50//64 49//63 67//74
f 111//131 50//64 67//74
f 55//81 51//65 97//76
f 51//65 50//64 97//76
f 104//78 52//71 77//70
f 77//70 138//77 104//78
f 52//71 104//78 129//79
f 128//79 63//132 53//72
f 52//71 129//79 128//79
f 79//95 54//73 120//80
f 54//73 53//72 120//80
f 53//72 63//132 121//80
f 55//81 97//76 112//82
f 102//84 6//16 7//17
f 60//87 61//124 80//88
f 80//88 55//81 109//86
f 55//81 100//83 109//86
f 62//89 12//28 13//5
f 86//90 5//14 6//16
f 103//91 11//25 12//28
f 5//14 86//90 116//97
f 116//97 68//99 1//98
f 4//3 5//14 116//97
f 68//99 117//133 57//100
f 92//101 10//24 11//25
f 96//102 14//6 25//30
f 46//94 85//93 65//105
f 85//93 123//104 122//104
f 125//109 88//134 37//108
f 10//24 92//101 126//113
f 126//113 83//120 9//21
f 89//110 90//111 134//118
f 134//118 107//103 25//30
f 25//30 36//41 134//118
f 36//41 37//108 88//134
f 134//118 36//41 135//118
f 88//134 135//118 36//41
f 72//119 8//20 9//21
f 136//121 98//126 2//117
f 55//81 80//88 143//122
f 143//122 142//122 55//81
f 142//122 141//122 55//81
f 140//122 94//130 51//65
f 141//122 140//122 51//65
f 14//6 96//102 144//135
f 144//135 76//115 14//6
f 56//85 7//17 8//20
