# Blender v2.81 (sub 16) OBJ File: ''
# www.blender.org
mtllib Moldova.mtl
o 0_Moldova_sphere.001
v 2.948830 3.698155 -1.621127
v 2.999369 3.644842 -1.648911
v 2.940346 3.698155 -1.636002
v 3.037919 3.602877 -1.670104
v 2.989285 3.698155 -1.544721
v 2.971786 3.644842 -1.697269
v 3.018145 3.644842 -1.613451
v 2.929353 3.718062 -1.610420
v 2.958349 3.738311 -1.507349
v 2.977981 3.718576 -1.517351
v 3.069901 3.590631 -1.637132
v 3.053712 3.590631 -1.667707
v 2.939876 3.742652 -1.531883
v 2.937772 3.724506 -1.579145
v 2.928577 3.722454 -1.601408
v 2.984649 3.705424 -1.536135
v 2.931089 3.706715 -1.632943
v 2.963284 3.736997 -1.500610
v 2.975746 3.722766 -1.511280
v 2.978013 3.728333 -1.492530
v 3.051004 3.592963 -1.667596
v 3.068077 3.593097 -1.635051
v 3.041286 3.618834 -1.628001
v 2.973605 3.637067 -1.710529
v 2.983878 3.628074 -1.711544
v 2.983851 3.621996 -1.724447
v 2.995809 3.617525 -1.712943
v 3.011723 3.619351 -1.681181
v 3.006997 3.627721 -1.671758
v 3.017571 3.622985 -1.663238
v 3.025384 3.612179 -1.672401
v 3.017770 3.645242 -1.613234
v 3.000091 3.680492 -1.565139
v 2.952245 3.686813 -1.639900
v 2.950847 3.677020 -1.663730
v 2.969908 3.652254 -1.684383
v 3.074815 3.571921 -1.668464
v 3.087989 3.565239 -1.658089
vn 0.5896 0.7448 -0.3122
vn 0.5933 0.7411 -0.3141
vn 0.5897 0.7448 -0.3122
vn 0.5898 0.7396 -0.3242
vn 0.5999 0.7343 -0.3176
vn 0.6000 0.7342 -0.3176
vn 0.5796 0.7448 -0.3306
vn 0.5842 0.7401 -0.3332
vn 0.5992 0.7448 -0.2935
vn 0.6100 0.7235 -0.3230
vn 0.5996 0.7235 -0.3420
vn 0.5970 0.7263 -0.3405
vn 0.5999 0.7289 -0.3298
vn 0.5896 0.7343 -0.3363
vn 0.6142 0.7190 -0.3252
vn 0.6200 0.7126 -0.3283
vn 0.6140 0.7193 -0.3251
vn 0.5870 0.7448 -0.3172
vn 0.5938 0.7449 -0.3042
vn 0.5915 0.7449 -0.3086
vn 0.6049 0.7290 -0.3202
vn 0.6083 0.7235 -0.3262
usemtl None
s 1
f 16//1 5//2 14//3
f 1//4 33//5 32//6
f 17//7 1//4 3//8
f 18//9 20//9 19//9
f 23//10 22//10 21//10
f 25//11 6//12 29//11
f 1//4 2//13 34//14
f 11//15 37//16 12//17
f 5//2 1//4 14//3
f 1//4 8//18 15//1
f 14//3 1//4 15//1
f 14//3 13//3 16//1
f 13//3 9//19 10//20
f 16//1 13//3 10//20
f 7//21 2//13 32//6
f 2//13 1//4 32//6
f 1//4 5//2 33//5
f 17//7 8//18 1//4
f 10//20 9//19 19//9
f 9//19 18//9 19//9
f 11//15 12//17 22//10
f 12//17 21//10 22//10
f 21//10 4//22 23//10
f 4//22 2//13 23//10
f 2//13 7//21 23//10
f 4//22 31//11 30//11
f 29//11 28//11 25//11
f 28//11 27//11 25//11
f 2//13 4//22 30//11
f 27//11 26//11 25//11
f 2//13 30//11 29//11
f 24//11 6//12 25//11
f 6//12 2//13 29//11
f 2//13 6//12 36//14
f 36//14 35//14 2//13
f 35//14 34//14 2//13
f 34//14 3//8 1//4
f 11//15 38//16 37//16
