# Blender v2.81 (sub 16) OBJ File: ''
# www.blender.org
mtllib Mongolia.mtl
o 0_Mongolia_sphere.001
v 0.000000 3.802029 -3.247241
v 0.000000 3.750555 -3.306560
v 0.103862 3.750555 -3.304929
v -1.621124 3.698155 -2.948812
v -1.648907 3.644842 -2.999352
v -1.527699 3.698155 -2.998278
v -1.553882 3.644842 -3.049665
v -1.382601 3.802029 -2.938176
v -1.407858 3.750555 -2.991850
v -1.432767 3.698155 -3.044785
v -1.457322 3.644842 -3.096969
v -1.481520 3.590631 -3.148390
v -1.289629 3.802029 -2.980155
v -1.313187 3.750555 -3.034596
v -1.336421 3.698155 -3.088287
v -1.359325 3.644842 -3.141217
v -1.381895 3.590631 -3.193372
v -1.404124 3.535533 -3.244740
v -1.217220 3.750555 -3.074347
v -1.238756 3.698155 -3.128741
v -1.259986 3.644842 -3.182364
v -1.280907 3.590631 -3.235203
v -1.301511 3.535533 -3.287244
v -1.321795 3.479563 -3.338471
v -1.120052 3.750555 -3.111063
v -1.139868 3.698155 -3.166107
v -1.159404 3.644842 -3.220370
v -1.178654 3.590631 -3.273841
v -1.197614 3.535533 -3.326503
v -1.216279 3.479563 -3.378342
v -1.234642 3.422734 -3.429350
v -1.003448 3.802029 -3.088293
v -1.021778 3.750555 -3.144710
v -1.039856 3.698155 -3.200348
v -1.057677 3.644842 -3.255199
v -1.075239 3.590631 -3.309248
v -1.092535 3.535533 -3.362479
v -1.109562 3.479563 -3.414879
v -1.126314 3.422734 -3.466439
v -0.905947 3.802029 -3.118288
v -0.922496 3.750555 -3.175253
v -0.938817 3.698155 -3.231432
v -0.954907 3.644842 -3.286815
v -0.970762 3.590631 -3.341389
v -0.986377 3.535533 -3.395138
v -1.001750 3.479563 -3.448046
v -1.016875 3.422734 -3.500107
v -1.031746 3.365062 -3.551296
v -0.807552 3.802029 -3.145206
v -0.822304 3.750555 -3.202662
v -0.836852 3.698155 -3.259326
v -0.851194 3.644842 -3.315187
v -0.865327 3.590631 -3.370233
v -0.879247 3.535533 -3.424445
v -0.892950 3.479563 -3.477810
v -0.906432 3.422734 -3.530320
v -0.919688 3.365062 -3.581952
v -0.695244 3.852566 -3.110342
v -0.708360 3.802029 -3.169019
v -0.721300 3.750555 -3.226911
v -0.734061 3.698155 -3.284004
v -0.746641 3.644842 -3.340288
v -0.759039 3.590631 -3.395750
v -0.771248 3.535533 -3.450373
v -0.783269 3.479563 -3.504143
v -0.795094 3.422734 -3.557050
v -0.806722 3.365062 -3.609072
v -0.585791 3.902151 -3.070824
v -0.597202 3.852566 -3.130646
v -0.608469 3.802029 -3.189706
v -0.619584 3.750555 -3.247975
v -0.630545 3.698155 -3.305441
v -0.641352 3.644842 -3.362092
v -0.652001 3.590631 -3.417916
v -0.662489 3.535533 -3.472896
v -0.672814 3.479563 -3.527016
v -0.682972 3.422734 -3.580269
v -0.489045 3.902151 -3.087709
v -0.498571 3.852566 -3.147859
v -0.507977 3.802029 -3.207244
v -0.517256 3.750555 -3.265834
v -0.526408 3.698155 -3.323616
v -0.535429 3.644842 -3.380579
v -0.544319 3.590631 -3.436710
v -0.553075 3.535533 -3.491991
v -0.561696 3.479563 -3.546410
v -0.570176 3.422734 -3.599955
v -0.406984 3.802029 -3.221617
v -0.414419 3.750555 -3.280470
v -0.421751 3.698155 -3.338511
v -0.428978 3.644842 -3.395729
v -0.436101 3.590631 -3.452111
v -0.443116 3.535533 -3.507641
v -0.450023 3.479563 -3.562303
v -0.456817 3.422734 -3.616088
v -0.305590 3.802029 -3.232811
v -0.311172 3.750555 -3.291868
v -0.316677 3.698155 -3.350111
v -0.322104 3.644842 -3.407527
v -0.327452 3.590631 -3.464106
v -0.332720 3.535533 -3.519828
v -0.337906 3.479563 -3.574681
v -0.200118 3.852566 -3.180809
v -0.203894 3.802029 -3.240815
v -0.207618 3.750555 -3.300018
v -0.211291 3.698155 -3.358404
v -0.214912 3.644842 -3.415963
v -0.218480 3.590631 -3.472682
v -0.221995 3.535533 -3.528543
v -0.100108 3.852566 -3.185525
v -0.101997 3.802029 -3.245620
v -0.103860 3.750555 -3.304911
v -0.105697 3.698155 -3.363384
v -0.107508 3.644842 -3.421028
v -0.109293 3.590631 -3.477831
v -0.338158 3.476758 -3.577345
v -0.199426 3.535533 -3.529607
v -1.306730 3.521134 -3.300423
v -1.320555 3.482984 -3.335339
v -0.110729 3.545633 -3.523519
v -1.439595 3.750555 -2.976303
v -1.368694 3.829484 -2.908620
v -1.139320 3.377200 -3.506466
v -0.643037 3.902151 -3.058969
v -1.491293 3.568036 -3.169159
v -0.925349 3.339648 -3.604000
v -1.562398 3.626947 -3.066380
v -0.052188 3.852566 -3.186289
v 0.114653 3.750555 -3.304420
v -0.460197 3.393554 -3.642846
v -0.889807 3.850652 -3.062736
v -0.405001 3.815329 -3.205919
v -0.999654 3.812348 -3.076617
v 0.000000 3.831050 -3.212716
v -0.441104 3.902151 -3.094532
v -1.245951 3.802029 -2.998247
v -0.582846 3.914538 -3.055390
v -0.791635 3.365062 -3.612197
v -0.236663 3.852566 -3.177933
v -0.099532 3.867492 -3.167201
v -1.312370 3.535533 -3.282746
v -1.351559 3.535533 -3.266513
v -1.105696 3.787330 -3.071188
v -0.688972 3.388090 -3.611723
v -0.014784 3.698155 -3.364829
v 0.063765 3.802029 -3.246239
v -1.618799 3.702477 -2.944583
v -0.695085 3.853158 -3.109632
v -0.454763 3.852566 -3.154094
v -1.427946 3.535533 -3.233984
v 0.000000 3.702216 -3.360529
v -1.541685 3.698155 -2.990873
v -1.543550 3.698155 -2.989886
v 0.102262 3.794741 -3.254033
v -0.199739 3.857492 -3.174770
v -0.481567 3.939830 -3.040503
v -1.408440 3.524495 -3.254713
v -0.807936 3.358850 -3.614502
v -1.015083 3.802029 -3.084310
v -1.324428 3.479563 -3.337380
v -1.332133 3.450124 -3.364582
v -0.795373 3.843190 -3.097774
v -0.870237 3.852566 -3.065730
v -0.874141 3.852566 -3.064662
v -0.302487 3.829738 -3.199991
v -1.244899 3.389975 -3.457839
v -1.034178 3.355329 -3.559668
v 0.104099 3.743793 -3.312474
v -1.627651 3.698155 -2.945089
v -0.575878 3.383298 -3.635957
v -1.534908 3.590631 -3.122236
v -0.373264 3.422734 -3.625313
v -0.697210 3.852566 -3.109870
v -0.222320 3.530271 -3.533712
v -0.056253 3.644842 -3.421843
v -1.075027 3.365062 -3.537982
v -1.297444 3.422734 -3.405619
v -0.039148 3.590631 -3.478944
v -1.526361 3.700795 -2.995652
v -0.336509 3.479563 -3.574790
v -1.281936 3.818310 -2.962378
v -1.654506 3.644842 -2.996159
v -1.695511 3.644842 -2.972770
v -1.445101 3.802029 -2.907558
v -1.198276 3.795211 -3.026498
v -0.214723 3.533951 -3.530444
v 0.127990 3.790287 -3.257958
v -0.123157 3.874579 -3.157374
v -0.172203 3.857655 -3.175868
v -0.587766 3.913851 -3.055262
v -1.571890 3.719313 -2.948154
v -0.269681 3.830695 -3.201432
v -1.349014 3.536023 -3.267029
v -1.314788 3.541655 -3.275014
v -0.408421 3.814691 -3.206199
v -0.057839 3.649853 -3.416396
v -0.016460 3.697676 -3.365320
v -1.455140 3.556112 -3.198771
v -0.928302 3.845322 -3.057528
v -0.990311 3.818458 -3.071887
v -1.030031 3.354228 -3.561825
v -0.965479 3.319142 -3.612061
v -0.933038 3.339528 -3.602008
v -0.131331 3.542448 -3.525787
v -0.406119 3.392071 -3.650196
v -0.230067 3.856840 -3.173186
v -0.331267 3.488290 -3.566586
v -0.292191 3.495024 -3.563013
v -0.456062 3.853599 -3.152627
v -0.428274 3.886059 -3.116318
v -1.435725 3.723390 -3.011966
v -1.460771 3.699531 -3.029355
v -1.486976 3.706901 -3.007355
v -0.856739 3.339276 -3.620814
v -0.537858 3.920028 -3.056173
v -0.325660 3.828711 -3.198662
v -0.365190 3.430124 -3.619112
v -0.806602 3.845499 -3.091854
v -0.473671 3.942469 -3.038246
v -1.277959 3.401431 -3.434028
v -1.697224 3.638148 -2.979871
v -1.154364 3.780664 -3.061010
v -1.197364 3.795044 -3.027048
v -0.609115 3.379237 -3.633965
v -1.443852 3.780943 -2.935225
v -1.033534 3.789442 -3.093323
v -1.083245 3.790044 -3.075570
v -0.039698 3.848567 -3.191246
v -1.388463 3.819045 -2.912763
v -1.446301 3.823737 -2.878214
v -1.309363 3.435596 -3.388001
v -1.691671 3.659317 -2.956935
v -1.652625 3.645142 -2.996859
v -0.755678 3.378586 -3.606879
v -0.691810 3.388340 -3.610899
v -0.872280 3.852784 -3.064893
v -0.758407 3.834983 -3.116689
v 0.066885 3.719459 -3.340227
v -1.299147 3.501681 -3.323756
v -1.623069 3.700855 -2.944232
v -1.214525 3.378888 -3.479069
v -1.579957 3.637023 -3.045134
v -1.318860 3.843850 -2.912370
v -1.352329 3.837904 -2.905019
v -1.326330 3.477828 -3.338383
v -1.343149 3.456913 -3.353010
v -1.529191 3.579840 -3.137241
v -1.262297 3.804341 -2.988499
v -0.057974 3.552821 -3.517054
v -0.035620 3.579378 -3.490431
v 0.067779 3.800174 -3.248315
v 0.114623 3.750463 -3.304523
v -0.653989 3.899784 -3.059670
v -0.674931 3.858535 -3.107062
v -1.543184 3.697899 -2.990392
v -1.412412 3.523624 -3.253859
v -0.476129 3.393688 -3.640454
v -1.550541 3.619921 -3.080390
v -1.123810 3.376552 -3.511863
vn -0.0000 0.7604 -0.6495
vn -0.0040 0.7655 -0.6434
vn 0.0102 0.7573 -0.6530
vn 0.0103 0.7552 -0.6554
vn 0.0190 0.7553 -0.6551
vn 0.0208 0.7501 -0.6610
vn 0.0311 0.7519 -0.6585
vn -0.3242 0.7396 -0.5898
vn -0.3122 0.7448 -0.5896
vn -0.3164 0.7364 -0.5980
vn -0.3171 0.7343 -0.6001
vn -0.3056 0.7396 -0.5997
vn -0.3108 0.7289 -0.6099
vn -0.2936 0.7448 -0.5992
vn -0.2935 0.7448 -0.5992
vn -0.2866 0.7396 -0.6090
vn -0.2915 0.7289 -0.6194
vn -0.2648 0.7655 -0.5864
vn -0.2593 0.7655 -0.5889
vn -0.2765 0.7604 -0.5877
vn -0.2816 0.7501 -0.5984
vn -0.2579 0.7604 -0.5961
vn -0.2626 0.7501 -0.6070
vn -0.2673 0.7396 -0.6177
vn -0.2719 0.7289 -0.6283
vn -0.2764 0.7181 -0.6387
vn -0.2963 0.7181 -0.6297
vn -0.2462 0.7654 -0.5945
vn -0.2505 0.7559 -0.6049
vn -0.2425 0.7553 -0.6088
vn -0.2434 0.7501 -0.6149
vn -0.2477 0.7396 -0.6258
vn -0.2520 0.7289 -0.6365
vn -0.2562 0.7181 -0.6471
vn -0.2685 0.7126 -0.6482
vn -0.2684 0.7126 -0.6482
vn -0.2317 0.7552 -0.6131
vn -0.2208 0.7553 -0.6171
vn -0.2240 0.7501 -0.6222
vn -0.2280 0.7396 -0.6333
vn -0.2319 0.7289 -0.6441
vn -0.2357 0.7181 -0.6548
vn -0.2395 0.7071 -0.6653
vn -0.2603 0.7071 -0.6575
vn -0.2433 0.6959 -0.6757
vn -0.2519 0.7015 -0.6667
vn -0.2123 0.7552 -0.6201
vn -0.2007 0.7604 -0.6177
vn -0.2044 0.7501 -0.6290
vn -0.2080 0.7396 -0.6401
vn -0.2115 0.7289 -0.6511
vn -0.2150 0.7181 -0.6619
vn -0.2185 0.7071 -0.6725
vn -0.2219 0.6959 -0.6830
vn -0.2469 0.6845 -0.6859
vn -0.2253 0.6845 -0.6933
vn -0.1892 0.7655 -0.6150
vn -0.1783 0.7655 -0.6182
vn -0.1812 0.7604 -0.6237
vn -0.1845 0.7501 -0.6351
vn -0.1877 0.7396 -0.6463
vn -0.1910 0.7289 -0.6574
vn -0.1942 0.7181 -0.6683
vn -0.1973 0.7071 -0.6791
vn -0.2004 0.6959 -0.6896
vn -0.2034 0.6845 -0.7001
vn -0.1698 0.7655 -0.6207
vn -0.1618 0.7655 -0.6227
vn -0.1615 0.7604 -0.6290
vn -0.1645 0.7501 -0.6406
vn -0.1674 0.7396 -0.6519
vn -0.1702 0.7289 -0.6630
vn -0.1731 0.7181 -0.6741
vn -0.1758 0.7071 -0.6849
vn -0.1786 0.6959 -0.6956
vn -0.1813 0.6845 -0.7061
vn -0.2064 0.6729 -0.7103
vn -0.1839 0.6730 -0.7164
vn -0.1498 0.7668 -0.6241
vn -0.1390 0.7704 -0.6222
vn -0.1417 0.7604 -0.6338
vn -0.1443 0.7501 -0.6454
vn -0.1468 0.7396 -0.6568
vn -0.1493 0.7289 -0.6681
vn -0.1518 0.7181 -0.6792
vn -0.1542 0.7071 -0.6901
vn -0.1567 0.6959 -0.7009
vn -0.1590 0.6845 -0.7114
vn -0.1613 0.6729 -0.7219
vn -0.1280 0.7754 -0.6183
vn -0.1278 0.7765 -0.6170
vn -0.1194 0.7705 -0.6262
vn -0.1217 0.7604 -0.6380
vn -0.1239 0.7501 -0.6496
vn -0.1261 0.7396 -0.6611
vn -0.1283 0.7289 -0.6724
vn -0.1304 0.7181 -0.6836
vn -0.1325 0.7071 -0.6946
vn -0.1346 0.6959 -0.7054
vn -0.1366 0.6845 -0.7161
vn -0.1489 0.6787 -0.7191
vn -0.1492 0.6769 -0.7208
vn -0.1016 0.7604 -0.6415
vn -0.1035 0.7501 -0.6532
vn -0.1053 0.7396 -0.6648
vn -0.1071 0.7289 -0.6761
vn -0.1089 0.7181 -0.6874
vn -0.1106 0.7071 -0.6984
vn -0.1123 0.6959 -0.7093
vn -0.1140 0.6845 -0.7200
vn -0.1064 0.7853 -0.6099
vn -0.0936 0.7853 -0.6120
vn -0.0978 0.7804 -0.6176
vn -0.0997 0.7705 -0.6296
vn -0.0873 0.7853 -0.6130
vn -0.0884 0.7786 -0.6212
vn -0.0889 0.7753 -0.6253
vn -0.0902 0.7680 -0.6340
vn -0.0906 0.7655 -0.6370
vn -0.0789 0.7655 -0.6386
vn -0.0814 0.7604 -0.6443
vn -0.0829 0.7501 -0.6561
vn -0.0844 0.7396 -0.6677
vn -0.0858 0.7289 -0.6792
vn -0.0872 0.7181 -0.6905
vn -0.0886 0.7071 -0.7016
vn -0.0900 0.6959 -0.7125
vn -0.0913 0.6845 -0.7233
vn -0.0706 0.7655 -0.6396
vn -0.0602 0.7655 -0.6406
vn -0.0611 0.7604 -0.6466
vn -0.0622 0.7501 -0.6584
vn -0.0633 0.7396 -0.6701
vn -0.0644 0.7289 -0.6815
vn -0.0655 0.7181 -0.6928
vn -0.0665 0.7071 -0.7040
vn -0.0675 0.6959 -0.7150
vn -0.0769 0.6902 -0.7195
vn -0.0794 0.6902 -0.7192
vn -0.0502 0.7681 -0.6383
vn -0.0400 0.7705 -0.6362
vn -0.0408 0.7604 -0.6482
vn -0.0415 0.7501 -0.6600
vn -0.0422 0.7396 -0.6717
vn -0.0430 0.7289 -0.6832
vn -0.0437 0.7181 -0.6945
vn -0.0444 0.7071 -0.7057
vn -0.0559 0.7015 -0.7105
vn -0.0297 0.7754 -0.6307
vn -0.0227 0.7754 -0.6310
vn -0.0201 0.7705 -0.6371
vn -0.0204 0.7604 -0.6491
vn -0.0208 0.7501 -0.6610
vn -0.0212 0.7396 -0.6727
vn -0.0215 0.7289 -0.6842
vn -0.0219 0.7181 -0.6956
vn -0.0330 0.7126 -0.7008
vn -0.0331 0.7121 -0.7013
vn -0.0102 0.7669 -0.6416
vn -0.0103 0.7654 -0.6434
vn -0.0000 0.7501 -0.6613
vn -0.0026 0.7449 -0.6672
vn -0.0106 0.7435 -0.6686
vn -0.0108 0.7345 -0.6785
vn -0.0108 0.7342 -0.6788
vn -0.0109 0.7281 -0.6853
vn -0.0110 0.7173 -0.6967
vn -0.0336 0.7013 -0.7120
vn -0.1256 0.7853 -0.6063
vn -0.1172 0.7804 -0.6142
vn -0.3171 0.7346 -0.5998
vn -0.3015 0.7449 -0.5951
vn -0.0562 0.6971 -0.7147
vn -0.2887 0.7126 -0.6394
vn -0.1965 0.6671 -0.7185
vn -0.1966 0.6671 -0.7185
vn -0.0806 0.6787 -0.7300
vn -0.0797 0.6868 -0.7225
vn -0.0495 0.7754 -0.6295
vn -0.1739 0.6671 -0.7243
vn -0.2596 0.6787 -0.6870
vn -0.2460 0.6788 -0.6919
vn -0.3368 0.7335 -0.5903
vn -0.3420 0.7235 -0.5996
vn -0.3388 0.7296 -0.5940
vn -0.1661 0.6672 -0.7261
vn -0.1263 0.6787 -0.7234
vn -0.2883 0.7552 -0.5886
vn -0.2831 0.7655 -0.5778
vn -0.2694 0.7655 -0.5843
vn -0.2644 0.6958 -0.6677
vn -0.2558 0.6902 -0.6769
vn -0.3364 0.7342 -0.5896
vn -0.3348 0.7371 -0.5869
vn -0.1696 0.7660 -0.6200
vn -0.1666 0.7752 -0.6093
vn -0.1696 0.7659 -0.6201
vn 0.0105 0.7448 -0.6671
vn -0.2112 0.7583 -0.6167
vn -0.1932 0.7655 -0.6137
vn -0.3306 0.7448 -0.5795
vn -0.2379 0.6787 -0.6948
vn -0.3230 0.7235 -0.6100
vn -0.3101 0.7236 -0.6167
vn -0.1351 0.7754 -0.6169
vn -0.2770 0.6902 -0.6685
vn -0.2755 0.6939 -0.6653
vn -0.3086 0.7126 -0.6300
vn -0.2965 0.7126 -0.6358
vn -0.0111 0.7126 -0.7015
vn -0.0235 0.7126 -0.7011
vn -0.2057 0.6672 -0.7159
vn -0.2162 0.6777 -0.7028
vn 0.0315 0.7465 -0.6646
vn -0.2933 0.7015 -0.6495
vn -0.2808 0.7071 -0.6490
vn -0.2849 0.7015 -0.6532
vn -0.1035 0.6787 -0.7271
vn -0.2554 0.7015 -0.6653
vn -0.2699 0.7089 -0.6515
vn -0.2687 0.7117 -0.6490
vn -0.3037 0.7235 -0.6199
vn -0.2159 0.6787 -0.7019
vn 0.0309 0.7552 -0.6547
vn -0.3182 0.7449 -0.5864
vn -0.3265 0.7338 -0.5957
vn -0.2902 0.7515 -0.5924
vn -0.2316 0.7553 -0.6131
vn -0.1502 0.7655 -0.6257
vn -0.1366 0.6787 -0.7215
vn -0.1147 0.7853 -0.6084
vn -0.0890 0.7754 -0.6251
vn -0.0505 0.7655 -0.6415
vn -0.0492 0.7015 -0.7109
vn -0.0395 0.7755 -0.6301
vn -0.2896 0.7103 -0.6415
vn -0.1853 0.6672 -0.7215
vn -0.0919 0.6787 -0.7286
vn -0.2568 0.6873 -0.6795
vn -0.1160 0.6787 -0.7251
vn -0.2850 0.7617 -0.5819
vn -0.2624 0.6902 -0.6743
vn -0.3363 0.7343 -0.5896
vn 0.0159 0.7448 -0.6670
vn -0.2266 0.6787 -0.6985
vn -0.2769 0.6902 -0.6685
vn -0.3051 0.7204 -0.6229
usemtl None
s 1
f 1//1 134//2 146//3
f 251//4 154//5 3//6
f 154//5 129//7 3//6
f 4//8 191//9 153//10
f 255//11 6//12 7//13
f 212//14 211//15 10//16
f 7//13 10//16 11//17
f 243//18 181//19 8//20
f 9//21 13//22 14//23
f 10//16 14//23 15//24
f 11//17 15//24 16//25
f 11//17 17//26 12//27
f 13//22 248//28 136//29
f 136//29 185//30 19//31
f 15//24 19//31 20//32
f 16//25 20//32 21//33
f 16//25 22//34 17//26
f 22//34 194//35 193//36
f 222//37 143//38 25//39
f 20//32 25//39 26//40
f 21//33 26//40 27//41
f 21//33 28//42 22//34
f 22//34 29//43 23//44
f 29//43 30//45 239//46
f 226//47 32//48 33//49
f 26//40 33//49 34//50
f 27//41 34//50 35//51
f 28//42 35//51 36//52
f 28//42 37//53 29//43
f 29//43 38//54 30//45
f 31//55 38//54 39//56
f 199//57 131//58 40//59
f 33//49 40//59 41//60
f 34//50 41//60 42//61
f 35//51 42//61 43//62
f 35//51 44//63 36//52
f 36//52 45//64 37//53
f 37//53 46//65 38//54
f 39//56 46//65 47//66
f 218//67 162//68 49//69
f 41//60 49//69 50//70
f 42//61 50//70 51//71
f 43//62 51//71 52//72
f 43//62 53//73 44//63
f 44//63 54//74 45//64
f 45//64 55//75 46//65
f 47//66 55//75 56//76
f 48//77 56//76 57//78
f 173//79 58//80 59//81
f 49//69 60//82 50//70
f 51//71 60//82 61//83
f 52//72 61//83 62//84
f 52//72 63//85 53//73
f 53//73 64//86 54//74
f 54//74 65//87 55//75
f 56//76 65//87 66//88
f 57//78 66//88 67//89
f 254//90 124//91 69//92
f 58//80 70//93 59//81
f 60//82 70//93 71//94
f 61//83 71//94 72//95
f 62//84 72//95 73//96
f 62//84 74//97 63//85
f 63//85 75//98 64//86
f 64//86 76//99 65//87
f 66//88 76//99 77//100
f 234//101 138//102 66//88
f 69//92 80//103 70//93
f 71//94 80//103 81//104
f 72//95 81//104 82//105
f 73//96 82//105 83//106
f 74//97 83//106 84//107
f 74//97 85//108 75//98
f 75//98 86//109 76//99
f 77//100 86//109 87//110
f 215//111 156//112 78//113
f 69//92 78//113 79//114
f 78//113 219//115 135//116
f 209//117 149//118 79//114
f 195//119 132//120 88//121
f 81//104 88//121 89//122
f 82//105 89//122 90//123
f 83//106 90//123 91//124
f 83//106 92//125 84//107
f 84//107 93//126 85//108
f 85//108 94//127 86//109
f 87//110 94//127 95//128
f 216//129 165//130 96//131
f 89//122 96//131 97//132
f 90//123 97//132 98//133
f 91//124 98//133 99//134
f 92//125 99//134 100//135
f 92//125 101//136 93//126
f 93//126 102//137 94//127
f 116//138 217//139 94//127
f 139//140 103//141 104//142
f 97//132 104//142 105//143
f 98//133 105//143 106//144
f 99//134 106//144 107//145
f 99//134 108//146 100//135
f 100//135 109//147 101//136
f 208//148 207//148 101//136
f 188//149 140//150 110//151
f 104//142 110//151 111//152
f 105//143 111//152 112//153
f 106//144 112//153 113//154
f 107//145 113//154 114//155
f 107//145 115//156 108//146
f 204//157 117//158 108//146
f 110//151 140//150 128//159
f 228//160 134//2 1//1
f 112//153 1//1 2//161
f 2//161 151//162 145//163
f 113//154 197//164 196//165
f 115//156 175//166 178//167
f 186//168 109//147 117//158
f 190//169 68//170 124//91
f 152//171 179//172 6//12
f 180//173 116//138 102//137
f 12//27 17//26 198//174
f 57//78 203//175 201//176
f 205//177 95//128 172//178
f 206//179 103//141 139//140
f 214//180 57//78 67//89
f 220//181 31//55 166//182
f 182//183 221//184 183//185
f 138//102 158//186 67//89
f 224//187 77//100 87//110
f 225//188 8//20 9//21
f 229//189 122//190 8//20
f 24//191 30//45 231//192
f 233//193 182//183 169//194
f 164//195 236//196 163//197
f 238//198 2//161 3//6
f 159//199 133//200 32//48
f 240//201 4//8 169//194
f 241//202 31//55 39//56
f 242//203 7//13 127//204
f 173//79 148//205 58//80
f 245//206 160//207 24//191
f 247//208 12//27 125//209
f 249//210 120//211 115//156
f 167//212 176//213 48//77
f 252//214 3//6 129//7
f 256//215 18//216 157//217
f 257//218 87//110 95//128
f 160//207 119//219 24//191
f 118//219 141//220 23//44
f 142//221 157//217 18//216
f 7//13 11//17 258//222
f 39//56 47//66 259//223
f 3//6 2//161 251//4
f 2//161 1//1 146//3
f 251//4 2//161 146//3
f 154//5 187//224 129//7
f 4//8 147//225 191//9
f 7//13 5//226 153//10
f 5//226 4//8 153//10
f 7//13 153//10 255//11
f 255//11 152//171 6//12
f 10//16 6//12 212//14
f 6//12 179//172 213//15
f 212//14 6//12 213//15
f 211//15 121//227 9//21
f 211//15 9//21 10//16
f 7//13 6//12 10//16
f 13//22 8//20 181//19
f 8//20 122//190 244//18
f 243//18 8//20 244//18
f 9//21 8//20 13//22
f 10//16 9//21 14//23
f 11//17 10//16 15//24
f 11//17 16//25 17//26
f 13//22 181//19 248//28
f 19//31 14//23 136//29
f 14//23 13//22 136//29
f 15//24 14//23 19//31
f 16//25 15//24 20//32
f 16//25 21//33 22//34
f 142//221 18//216 17//26
f 17//26 22//34 193//36
f 22//34 23//44 194//35
f 23//44 141//220 194//35
f 193//36 142//221 17//26
f 25//39 19//31 222//37
f 19//31 185//30 223//228
f 222//37 19//31 223//228
f 20//32 19//31 25//39
f 21//33 20//32 26//40
f 21//33 27//41 28//42
f 22//34 28//42 29//43
f 30//45 24//191 239//46
f 24//191 119//219 239//46
f 239//46 118//219 23//44
f 23//44 29//43 239//46
f 33//49 25//39 226//47
f 25//39 143//38 227//47
f 226//47 25//39 227//47
f 226//47 159//199 32//48
f 26//40 25//39 33//49
f 27//41 26//40 34//50
f 28//42 27//41 35//51
f 28//42 36//52 37//53
f 29//43 37//53 38//54
f 31//55 30//45 38//54
f 40//59 32//48 200//57
f 32//48 133//200 200//57
f 200//57 199//57 40//59
f 33//49 32//48 40//59
f 34//50 33//49 41//60
f 35//51 34//50 42//61
f 35//51 43//62 44//63
f 36//52 44//63 45//64
f 37//53 45//64 46//65
f 39//56 38//54 46//65
f 49//69 40//59 218//67
f 40//59 131//58 164//195
f 163//197 40//59 164//195
f 163//197 218//67 40//59
f 41//60 40//59 49//69
f 42//61 41//60 50//70
f 43//62 42//61 51//71
f 43//62 52//72 53//73
f 44//63 53//73 54//74
f 45//64 54//74 55//75
f 47//66 46//65 55//75
f 48//77 47//66 56//76
f 59//81 49//69 237//229
f 49//69 162//68 237//229
f 237//229 173//79 59//81
f 49//69 59//81 60//82
f 51//71 50//70 60//82
f 52//72 51//71 61//83
f 52//72 62//84 63//85
f 53//73 63//85 64//86
f 54//74 64//86 65//87
f 56//76 55//75 65//87
f 57//78 56//76 66//88
f 69//92 58//80 254//90
f 58//80 148//205 254//90
f 254//90 253//90 124//91
f 124//91 68//170 69//92
f 58//80 69//92 70//93
f 60//82 59//81 70//93
f 61//83 60//82 71//94
f 62//84 61//83 72//95
f 62//84 73//96 74//97
f 63//85 74//97 75//98
f 64//86 75//98 76//99
f 66//88 65//87 76//99
f 138//102 67//89 66//88
f 66//88 77//100 234//101
f 77//100 144//230 235//101
f 77//100 235//101 234//101
f 69//92 79//114 80//103
f 71//94 70//93 80//103
f 72//95 71//94 81//104
f 73//96 72//95 82//105
f 74//97 73//96 83//106
f 74//97 84//107 85//108
f 75//98 85//108 86//109
f 77//100 76//99 86//109
f 78//113 68//170 215//111
f 68//170 137//231 215//111
f 69//92 68//170 78//113
f 78//113 156//112 219//115
f 79//114 78//113 209//117
f 78//113 135//116 210//232
f 209//117 78//113 210//232
f 88//121 80//103 195//119
f 80//103 79//114 149//118
f 195//119 80//103 149//118
f 81//104 80//103 88//121
f 82//105 81//104 89//122
f 83//106 82//105 90//123
f 83//106 91//124 92//125
f 84//107 92//125 93//126
f 85//108 93//126 94//127
f 87//110 86//109 94//127
f 96//131 88//121 216//129
f 88//121 132//120 216//129
f 89//122 88//121 96//131
f 90//123 89//122 97//132
f 91//124 90//123 98//133
f 92//125 91//124 99//134
f 92//125 100//135 101//136
f 93//126 101//136 102//137
f 172//178 95//128 217//139
f 95//128 94//127 217//139
f 94//127 102//137 116//138
f 104//142 96//131 192//233
f 96//131 165//130 192//233
f 192//233 139//140 104//142
f 97//132 96//131 104//142
f 98//133 97//132 105//143
f 99//134 98//133 106//144
f 99//134 107//145 108//146
f 100//135 108//146 109//147
f 180//173 102//137 207//148
f 102//137 101//136 207//148
f 101//136 109//147 208//148
f 109//147 174//234 208//148
f 110//151 103//141 189//149
f 103//141 155//235 189//149
f 189//149 188//149 110//151
f 104//142 103//141 110//151
f 105//143 104//142 111//152
f 106//144 105//143 112//153
f 107//145 106//144 113//154
f 107//145 114//155 115//156
f 117//158 109//147 108//146
f 108//146 115//156 204//157
f 115//156 120//211 204//157
f 1//1 111//152 228//160
f 111//152 110//151 128//159
f 228//160 111//152 128//159
f 112//153 111//152 1//1
f 145//163 113//154 112//153
f 112//153 2//161 145//163
f 175//166 114//155 196//165
f 114//155 113//154 196//165
f 113//154 145//163 197//164
f 115//156 114//155 175//166
f 186//168 174//234 109//147
f 190//169 137//231 68//170
f 18//216 150//236 17//26
f 150//236 198//174 17//26
f 198//174 125//209 12//27
f 57//78 126//237 203//175
f 203//175 202//175 201//176
f 201//176 167//212 48//77
f 48//77 57//78 201//176
f 205//177 130//238 95//128
f 206//179 155//235 103//141
f 67//89 158//186 214//180
f 214//180 126//237 57//78
f 220//181 177//239 31//55
f 87//110 170//240 224//187
f 224//187 144//230 77//100
f 9//21 121//227 225//188
f 225//188 184//241 8//20
f 8//20 184//241 229//189
f 184//241 230//189 229//189
f 31//55 177//239 30//45
f 177//239 231//192 30//45
f 231//192 161//242 24//191
f 182//183 183//185 232//243
f 232//243 169//194 182//183
f 169//194 4//8 233//193
f 4//8 5//226 233//193
f 3//6 168//244 238//198
f 238//198 151//162 2//161
f 240//201 147//225 4//8
f 39//56 123//245 241//202
f 241//202 166//182 31//55
f 242//203 5//226 7//13
f 24//191 161//242 245//206
f 161//242 246//246 245//206
f 247//208 171//247 12//27
f 115//156 178//167 250//210
f 250//210 249//210 115//156
f 252//214 168//244 3//6
f 256//215 150//236 18//216
f 95//128 130//238 257//218
f 257//218 170//240 87//110
f 12//27 171//247 11//17
f 171//247 258//222 11//17
f 258//222 127//204 7//13
f 48//77 176//213 47//66
f 176//213 259//223 47//66
f 259//223 123//245 39//56
