# Blender v2.81 (sub 16) OBJ File: ''
# www.blender.org
mtllib Morocco.mtl
o 0_Morocco_sphere.001
v 4.133362 2.810416 0.129903
v 4.176974 2.745113 0.131273
v 4.219558 2.679133 0.132611
v 4.082678 2.875025 0.256866
v 4.127242 2.810416 0.259671
v 4.170789 2.745113 0.262410
v 4.213310 2.679133 0.265085
v 4.072595 2.875025 0.384980
v 4.117049 2.810416 0.389182
v 4.160489 2.745113 0.393288
v 4.202905 2.679133 0.397298
v 4.244279 2.612492 0.401209
v 4.284608 2.545206 0.405021
v 4.146082 2.745113 0.523778
v 4.188352 2.679133 0.529118
v 4.229583 2.612492 0.534327
v 4.269772 2.545206 0.539404
v 4.308908 2.477292 0.544348
v 4.169665 2.679133 0.660416
v 4.210712 2.612492 0.666918
v 4.250722 2.545206 0.673254
v 4.289683 2.477292 0.679425
v 4.327590 2.408767 0.685429
v 4.364421 2.339648 0.691263
v 4.303925 2.408767 0.821023
v 4.340554 2.339648 0.828012
v 4.376117 2.269951 0.834795
v 4.312403 2.339648 0.963943
v 4.347736 2.269951 0.971840
v 4.381998 2.199694 0.979499
v 4.415175 2.128895 0.986915
v 4.349069 2.199694 1.116658
v 4.381997 2.128895 1.125112
v 4.413846 2.057570 1.133289
v 4.444605 1.985738 1.141186
v 4.474267 1.913415 1.148803
v 4.435975 1.913415 1.288776
v 4.464286 1.840621 1.297001
v 4.393030 2.269951 0.737894
v 4.445138 1.840621 1.359244
v 4.313023 2.496069 0.407707
v 4.407829 1.985738 1.275615
v 4.114766 2.792353 0.519822
v 4.301800 2.408767 0.831284
v 4.316703 2.463264 0.545333
v 4.116481 2.834853 0.129372
v 4.105533 2.810416 0.493490
v 4.241705 2.545206 0.724917
v 4.478489 1.913415 1.131218
v 4.300329 2.415303 0.820338
v 4.316785 2.477292 0.473002
v 4.308826 2.339648 0.978842
v 4.306730 2.350424 0.962675
v 4.147144 2.714443 0.656850
v 4.279297 2.477292 0.738933
v 4.330730 2.269951 1.042675
v 4.346386 2.199694 1.126464
v 4.248121 2.623202 0.267276
v 4.039412 2.921666 0.381843
v 4.496028 1.840621 1.180974
v 4.133407 2.810416 0.127063
v 4.410565 1.975905 1.281393
v 4.132495 2.745113 0.619244
v 4.373238 2.128895 1.157130
v 4.254464 2.612492 0.271809
v 4.433215 2.088799 0.990947
v 4.331108 2.408767 0.660712
v 4.165331 2.679133 0.685247
v 4.437821 2.057570 1.033422
v 4.396011 2.199694 0.911833
v 4.177283 2.745113 0.111586
v 4.431849 1.913415 1.302185
v 4.468712 1.828710 1.298287
v 4.065763 2.875025 0.446864
v 4.391268 2.057570 1.215819
v 4.087623 2.875025 0.152030
v 4.289548 2.545206 0.342260
v 4.342424 2.213423 1.114951
v 4.368038 2.339648 0.665847
v 4.202118 2.612492 0.716158
v 4.452818 1.985738 1.106976
v 4.395807 2.278474 0.696233
v 4.486511 1.882205 1.151946
v 4.228760 2.664371 0.132900
v 4.419321 2.128895 0.966896
v 4.377672 2.266784 0.835091
v 4.220205 2.679133 0.091452
v 4.067915 2.895724 0.255938
v 4.371343 2.260619 0.880838
v 4.306486 2.350249 0.964095
v 4.117114 2.833950 0.128857
v 4.395814 2.258858 0.754177
v 4.389740 2.258851 0.788999
v 4.379859 2.269109 0.815804
v 4.158239 2.691089 0.680981
v 4.436985 1.863440 1.354317
v 4.437541 1.885574 1.322027
v 4.489667 1.861573 1.172072
v 4.391244 2.276616 0.727988
v 4.065606 2.891207 0.326421
v 4.067283 2.896302 0.258725
v 4.040711 2.921454 0.367274
v 4.428679 1.927750 1.291850
v 4.416104 1.954929 1.293591
v 4.133994 2.740591 0.629433
v 4.316689 2.358505 0.893088
v 4.292218 2.537565 0.364887
v 4.311753 2.499886 0.395581
v 4.377828 2.320621 0.667193
v 4.376135 2.320689 0.678845
v 4.397694 2.279177 0.680388
v 4.122439 2.773774 0.554002
v 4.400234 2.011431 1.260336
v 4.301048 2.411156 0.828314
v 4.082166 2.880438 0.185625
v 4.084121 2.879744 0.154711
v 4.109455 2.803808 0.498192
v 4.296754 2.431344 0.788568
v 4.483700 1.897954 1.136332
v 4.281374 2.567364 0.276123
v 4.390334 2.062005 1.211486
v 4.391717 2.074765 1.184139
v 4.376638 2.121051 1.158402
v 4.226561 2.668816 0.096431
v 4.272345 2.494718 0.719905
v 4.248194 2.622642 0.270797
v 4.329443 2.411768 0.660484
v 4.063813 2.878080 0.444629
v 4.035260 2.921720 0.419108
v 4.357790 2.163034 1.151482
v 4.432119 2.094770 0.982666
v 4.340972 2.239973 1.064174
v 4.198174 2.713003 0.101655
v 4.208565 2.697376 0.082537
v 4.315229 2.468030 0.534358
v 4.214711 2.588182 0.729119
v 4.444239 2.008749 1.099139
v 4.317127 2.479476 0.458341
v 4.393702 2.194032 0.936389
v 4.230958 2.656286 0.193291
v 4.246413 2.628935 0.227618
v 4.312960 2.319320 1.006851
v 4.312755 2.320381 1.005344
v 4.147036 2.790055 0.125477
v 4.342429 2.211713 1.118170
v 4.180737 2.652180 0.694730
v 4.450610 1.825759 1.361011
v 4.450147 1.825884 1.362350
v 4.498401 1.832343 1.184435
vn 0.8186 0.5730 0.0386
vn 0.8166 0.5749 0.0514
vn 0.8255 0.5620 0.0519
vn 0.8267 0.5620 0.0260
vn 0.8342 0.5490 0.0525
vn 0.8354 0.5490 0.0262
vn 0.8427 0.5358 0.0530
vn 0.8439 0.5358 0.0265
vn 0.8111 0.5813 0.0638
vn 0.8100 0.5814 0.0766
vn 0.8145 0.5749 0.0770
vn 0.8234 0.5620 0.0778
vn 0.8321 0.5490 0.0786
vn 0.8406 0.5358 0.0794
vn 0.8087 0.5813 0.0893
vn 0.8147 0.5729 0.0899
vn 0.8235 0.5600 0.0909
vn 0.8265 0.5555 0.0912
vn 0.8255 0.5556 0.0993
vn 0.8292 0.5490 0.1047
vn 0.8377 0.5358 0.1058
vn 0.8489 0.5224 0.0802
vn 0.8459 0.5224 0.1068
vn 0.8540 0.5090 0.1079
vn 0.8569 0.5090 0.0810
vn 0.8232 0.5555 0.1172
vn 0.8304 0.5445 0.1182
vn 0.8317 0.5424 0.1184
vn 0.8309 0.5425 0.1240
vn 0.8339 0.5358 0.1321
vn 0.8422 0.5224 0.1334
vn 0.8502 0.5090 0.1346
vn 0.8618 0.4954 0.1089
vn 0.8579 0.4954 0.1359
vn 0.8276 0.5424 0.1444
vn 0.8323 0.5349 0.1453
vn 0.8359 0.5291 0.1459
vn 0.8409 0.5209 0.1467
vn 0.8440 0.5157 0.1473
vn 0.8518 0.5022 0.1487
vn 0.8574 0.4923 0.1496
vn 0.8595 0.4886 0.1500
vn 0.8579 0.4887 0.1588
vn 0.8608 0.4817 0.1642
vn 0.8729 0.4678 0.1382
vn 0.8681 0.4678 0.1656
vn 0.8543 0.4888 0.1769
vn 0.8600 0.4783 0.1780
vn 0.8618 0.4747 0.1785
vn 0.8625 0.4678 0.1928
vn 0.8695 0.4540 0.1943
vn 0.8752 0.4540 0.1669
vn 0.8764 0.4399 0.1959
vn 0.8764 0.4257 0.2250
vn 0.8830 0.4257 0.1974
vn 0.8557 0.4748 0.2056
vn 0.8613 0.4641 0.2068
vn 0.8629 0.4610 0.2070
vn 0.8698 0.4469 0.2088
vn 0.8676 0.4470 0.2177
vn 0.8698 0.4399 0.2233
vn 0.8628 0.4469 0.2361
vn 0.8672 0.4377 0.2372
vn 0.8695 0.4328 0.2379
vn 0.8828 0.4115 0.2266
vn 0.8760 0.4186 0.2396
vn 0.8822 0.4043 0.2413
vn 0.8889 0.3971 0.2282
vn 0.8805 0.4083 0.2409
vn 0.8860 0.3952 0.2424
vn 0.8872 0.3899 0.2467
vn 0.8802 0.3899 0.2707
vn 0.8840 0.3802 0.2720
vn 0.8872 0.3826 0.2577
vn 0.8859 0.3753 0.2725
vn 0.8928 0.3681 0.2594
vn 0.8760 0.4469 0.1814
vn 0.8226 0.5685 0.0131
vn 0.8272 0.5617 0.0130
vn 0.8757 0.4579 0.1528
vn 0.8814 0.4466 0.1538
vn 0.8940 0.3753 0.2446
vn 0.8742 0.4609 0.1526
vn 0.8621 0.5022 0.0678
vn 0.8786 0.4609 0.1250
vn 0.8750 0.4678 0.1245
vn 0.8127 0.5814 0.0383
vn 0.8119 0.5814 0.0531
vn 0.9012 0.3753 0.2164
vn 0.8949 0.3826 0.2297
vn 0.8957 0.3753 0.2383
vn 0.8551 0.5141 0.0673
vn 0.8499 0.5226 0.0669
vn 0.8655 0.4817 0.1371
vn 0.8484 0.5291 0.0133
vn 0.8480 0.5292 0.0279
vn 0.8979 0.3836 0.2156
vn 0.8459 0.5291 0.0666
vn 0.8638 0.4885 0.1229
vn 0.8893 0.4186 0.1841
vn 0.8849 0.4187 0.2043
vn 0.8400 0.5424 0.0132
vn 0.8672 0.4885 0.0957
vn 0.8650 0.4887 0.1134
vn 0.8893 0.4043 0.2135
vn 0.8595 0.5022 0.0949
vn 0.8828 0.4327 0.1828
vn 0.8768 0.4453 0.1816
vn 0.8476 0.5291 0.0399
vn 0.8314 0.5555 0.0130
vn 0.8845 0.4154 0.2123
vn 0.8954 0.3609 0.2605
vn 0.8889 0.3676 0.2734
vn 0.8914 0.3608 0.2744
vn 0.8996 0.3608 0.2461
vn 0.8219 0.5685 0.0350
vn 0.8475 0.5097 0.1479
vn 0.8591 0.4748 0.1909
vn 0.8675 0.4517 0.2083
vn 0.8729 0.4255 0.2388
vn 0.8760 0.4185 0.2396
vn 0.8801 0.3899 0.2708
vn 0.8784 0.4471 0.1688
vn 0.8812 0.4469 0.1538
vn 0.8813 0.4469 0.1538
vn 0.8963 0.3694 0.2452
vn 0.8764 0.4610 0.1393
vn 0.8606 0.5022 0.0844
vn 0.8786 0.4609 0.1251
vn 0.8128 0.5813 0.0383
vn 0.8541 0.5157 0.0672
vn 0.8676 0.4816 0.1234
vn 0.8432 0.5374 0.0132
vn 0.8920 0.3981 0.2141
vn 0.8467 0.5292 0.0548
vn 0.8853 0.4272 0.1833
vn 0.8364 0.5479 0.0131
vn 0.8599 0.5015 0.0949
vn 0.8913 0.3608 0.2745
usemtl None
s 1
f 76//1 4//2 5//3
f 1//4 6//5 2//6
f 2//6 7//7 3//8
f 102//9 59//10 8//11
f 5//3 8//11 9//12
f 5//3 10//13 6//5
f 6//5 11//14 7//7
f 128//15 8//11 129//15
f 9//12 74//16 47//17
f 117//18 43//19 14//20
f 10//13 15//21 11//14
f 12//22 15//21 16//23
f 12//22 17//24 13//25
f 14//20 112//26 63//27
f 105//28 54//29 19//30
f 16//23 19//30 20//31
f 16//23 21//32 17//24
f 18//33 21//32 22//34
f 19//30 95//35 68//36
f 19//30 68//36 146//37
f 20//31 80//38 136//39
f 125//40 55//41 22//34
f 118//42 50//43 25//44
f 24//45 25//44 26//46
f 25//44 114//47 44//48
f 26//46 106//49 28//50
f 26//46 29//51 27//52
f 30//53 33//54 31//55
f 28//50 90//56 52//57
f 143//58 142//58 29//51
f 132//59 78//60 32//61
f 32//61 145//62 57//63
f 32//61 57//63 130//64
f 34//65 123//66 122//66
f 113//67 35//68 75//69
f 35//68 42//70 62//71
f 103//72 72//73 37//74
f 97//75 96//75 38//76
f 89//77 27//52 29//51
f 91//78 1//4 61//79
f 39//80 27//52 94//81
f 37//74 38//76 98//82
f 24//45 26//46 99//83
f 108//84 107//84 13//25
f 110//85 79//86 24//45
f 115//87 88//88 4//2
f 119//89 36//90 83//91
f 12//22 77//92 65//93
f 79//86 23//94 24//45
f 124//95 3//8 84//96
f 49//97 35//68 36//90
f 11//14 12//22 126//98
f 22//34 23//94 127//99
f 131//100 31//55 66//101
f 133//102 2//6 3//8
f 135//103 18//33 45//104
f 137//105 34//65 35//68
f 13//25 17//24 138//106
f 139//107 70//108 30//53
f 140//109 3//8 7//7
f 144//110 1//4 2//6
f 33//54 69//111 31//55
f 73//112 40//113 147//114
f 149//115 38//76 73//112
f 5//3 1//4 46//116
f 46//116 76//1 5//3
f 1//4 5//3 6//5
f 2//6 6//5 7//7
f 8//11 4//2 100//9
f 4//2 88//88 101//9
f 100//9 4//2 101//9
f 100//9 102//9 8//11
f 5//3 4//2 8//11
f 5//3 9//12 10//13
f 6//5 10//13 11//14
f 74//16 8//11 128//15
f 8//11 59//10 129//15
f 9//12 8//11 74//16
f 14//20 10//13 117//18
f 10//13 9//12 117//18
f 9//12 47//17 117//18
f 10//13 14//20 15//21
f 12//22 11//14 15//21
f 12//22 16//23 17//24
f 14//20 43//19 112//26
f 19//30 15//21 63//27
f 15//21 14//20 63//27
f 19//30 63//27 105//28
f 16//23 15//21 19//30
f 16//23 20//31 21//32
f 18//33 17//24 21//32
f 19//30 54//29 95//35
f 80//38 20//31 146//37
f 20//31 19//30 146//37
f 48//117 21//32 136//39
f 21//32 20//31 136//39
f 22//34 21//32 125//40
f 21//32 48//117 125//40
f 25//44 23//94 118//42
f 23//94 22//34 55//41
f 118//42 23//94 55//41
f 24//45 23//94 25//44
f 25//44 50//43 114//47
f 26//46 25//44 44//48
f 106//49 53//118 28//50
f 26//46 44//48 106//49
f 26//46 28//50 29//51
f 30//53 32//61 33//54
f 28//50 53//118 90//56
f 56//119 29//51 142//58
f 29//51 28//50 143//58
f 28//50 52//57 143//58
f 32//61 30//53 132//59
f 30//53 29//51 56//119
f 132//59 30//53 56//119
f 32//61 78//60 145//62
f 64//120 33//54 130//64
f 33//54 32//61 130//64
f 34//65 33//54 123//66
f 33//54 64//120 123//66
f 121//121 75//69 122//66
f 75//69 34//65 122//66
f 42//70 35//68 113//67
f 35//68 34//65 75//69
f 37//74 36//90 62//71
f 36//90 35//68 62//71
f 37//74 62//71 103//72
f 62//71 104//122 103//72
f 40//113 38//76 96//75
f 38//76 37//74 97//75
f 37//74 72//73 97//75
f 30//53 70//108 29//51
f 70//108 89//77 29//51
f 89//77 86//123 27//52
f 91//78 46//116 1//4
f 27//52 86//123 94//81
f 94//81 93//124 39//80
f 93//124 92//125 39//80
f 38//76 60//126 98//82
f 98//82 83//91 36//90
f 36//90 37//74 98//82
f 27//52 39//80 26//46
f 39//80 99//83 26//46
f 99//83 82//127 24//45
f 13//25 41//128 108//84
f 107//84 77//92 13//25
f 24//45 82//127 110//85
f 82//127 111//129 110//85
f 110//85 109//85 79//86
f 4//2 76//1 115//87
f 76//1 116//130 115//87
f 119//89 49//97 36//90
f 13//25 77//92 12//22
f 77//92 120//131 65//93
f 79//86 67//132 23//94
f 124//95 87//133 3//8
f 49//97 81//134 35//68
f 12//22 65//93 126//98
f 126//98 58//135 7//7
f 7//7 11//14 126//98
f 23//94 67//132 127//99
f 127//99 45//104 22//34
f 45//104 18//33 22//34
f 131//100 85//136 31//55
f 3//8 87//133 133//102
f 87//133 134//102 133//102
f 133//102 71//137 2//6
f 135//103 51//138 18//33
f 35//68 81//134 137//105
f 137//105 69//111 34//65
f 18//33 51//138 17//24
f 51//138 138//106 17//24
f 138//106 41//128 13//25
f 31//55 85//136 30//53
f 85//136 139//107 30//53
f 7//7 58//135 141//109
f 140//109 84//96 3//8
f 7//7 141//109 140//109
f 2//6 71//137 144//110
f 144//110 61//79 1//4
f 34//65 69//111 33//54
f 69//111 66//101 31//55
f 38//76 40//113 73//112
f 40//113 148//139 147//114
f 149//115 60//126 38//76
