# Blender v2.81 (sub 16) OBJ File: ''
# www.blender.org
mtllib Mozambique.mtl
o 0_Mozambique_sphere.001
v 3.772523 -1.013939 -3.120896
v 3.759785 -1.090719 -3.110359
v 3.746122 -1.167230 -3.099055
v 3.731532 -1.243452 -3.086985
v 3.716023 -1.319368 -3.074155
v 3.699597 -1.394959 -3.060567
v 3.868692 -1.013939 -3.000858
v 3.855629 -1.090719 -2.990726
v 3.841617 -1.167230 -2.979857
v 3.826656 -1.243452 -2.968252
v 3.810751 -1.319368 -2.955915
v 3.793906 -1.394959 -2.942850
v 3.776124 -1.470205 -2.929055
v 3.961042 -1.013939 -2.877858
v 3.947668 -1.090719 -2.868142
v 3.933321 -1.167230 -2.857718
v 3.918003 -1.243452 -2.846589
v 3.901718 -1.319368 -2.834758
v 3.884472 -1.394959 -2.822228
v 3.866264 -1.470205 -2.808999
v 3.847106 -1.545088 -2.795080
v 3.988835 -1.319368 -2.710803
v 3.971204 -1.394959 -2.698821
v 3.952590 -1.470205 -2.686170
v 3.933003 -1.545088 -2.672860
v 3.912445 -1.619590 -2.658888
v 3.890922 -1.693693 -2.644261
v 3.868439 -1.767377 -2.628982
v 3.845001 -1.840626 -2.613053
v 3.820615 -1.913420 -2.596481
v 3.795286 -1.985743 -2.579268
v 3.769021 -2.057575 -2.561417
v 4.089010 -1.243452 -2.594958
v 4.072015 -1.319368 -2.584173
v 4.054016 -1.394959 -2.572751
v 3.949109 -1.767377 -2.506174
v 3.925182 -1.840626 -2.490989
v 3.900287 -1.913420 -2.475191
v 3.874430 -1.985743 -2.458782
v 3.847617 -2.057575 -2.441766
v 3.819855 -2.128899 -2.424147
v 3.791150 -2.199698 -2.405931
v 4.151177 -1.319368 -2.454993
v 3.780379 -2.199698 -2.422328
v 3.994823 -1.545088 -2.578748
v 3.947624 -1.913420 -2.397944
v 4.049026 -1.414718 -2.569584
v 3.838864 -1.767377 -2.671064
v 3.753197 -2.099076 -2.550663
v 3.798473 -1.545088 -2.859853
v 3.725884 -1.013939 -3.175504
v 4.165919 -1.319368 -2.429146
v 4.027322 -1.243452 -2.688869
v 4.017481 -1.243452 -2.703851
v 4.008814 -1.243452 -2.717045
v 3.721087 -2.057575 -2.629620
v 4.092595 -1.226359 -2.597233
v 3.678560 -1.394959 -3.085199
v 4.004391 -1.167230 -2.756596
v 4.121893 -1.243452 -2.541296
v 4.163018 -1.267480 -2.461996
v 3.983064 -1.619590 -2.551380
v 3.908653 -1.985743 -2.402936
v 3.939117 -1.243452 -2.816546
v 3.706866 -1.090719 -3.172319
v 3.874178 -0.979030 -3.005114
v 3.834616 -1.619590 -2.769627
v 3.829387 -1.610732 -2.782206
v 4.004627 -1.247352 -2.721535
v 3.949266 -1.766872 -2.506274
v 3.962403 -1.005482 -2.878847
v 3.868159 -2.057575 -2.408245
v 4.082507 -1.394959 -2.526258
v 3.956015 -1.693693 -2.545167
v 3.794018 -1.840626 -2.685596
v 3.938951 -1.013939 -2.907280
v 3.932647 -1.013939 -2.915677
v 3.692323 -1.426524 -3.054549
v 3.691980 -1.167230 -3.162446
v 4.035055 -1.013939 -2.772548
v 3.949206 -1.767377 -2.506016
v 3.769477 -1.496804 -2.923899
v 3.863340 -1.693693 -2.683507
v 3.961561 -1.394959 -2.712541
v 3.918322 -1.394959 -2.774064
v 3.844722 -2.128899 -2.383568
v 3.757998 -1.913420 -2.685576
v 3.770148 -2.249479 -2.392602
v 3.672686 -1.243452 -3.155885
v 3.778175 -2.128899 -2.487599
v 4.014485 -1.470205 -2.591943
v 3.950739 -1.840626 -2.449285
v 4.028520 -1.090719 -2.753100
v 4.139464 -1.367620 -2.448066
v 3.781338 -0.936910 -3.134163
v 3.735449 -0.936910 -3.187893
v 3.783814 -0.940264 -3.130237
v 3.979741 -1.319368 -2.723743
v 3.914678 -1.319368 -2.816318
v 3.810679 -2.199698 -2.374061
v 3.739165 -1.985743 -2.659121
v 3.737575 -1.470205 -2.977171
v 3.665644 -1.319368 -3.133142
v 3.849973 -1.750600 -2.666019
v 3.918766 -1.445020 -2.747394
v 4.053112 -1.410974 -2.565061
v 4.075527 -1.404767 -2.532034
v 4.178502 -1.276695 -2.429920
v 3.750190 -0.895218 -3.182356
v 3.735829 -0.933707 -3.188347
v 4.023612 -1.247651 -2.692489
v 3.980160 -1.334298 -2.715825
v 3.962803 -1.393469 -2.711504
v 3.918153 -1.386994 -2.778210
v 3.901306 -1.369391 -2.810813
v 3.958220 -1.893157 -2.396358
v 3.725312 -2.071526 -2.612426
v 3.752695 -2.098491 -2.551846
v 4.090091 -1.383990 -2.519801
v 4.114681 -1.366281 -2.489231
v 3.778404 -2.203388 -2.421976
v 3.765218 -2.208600 -2.437307
v 3.751643 -2.249716 -2.420558
v 3.666157 -1.328077 -3.128760
v 3.674778 -1.386461 -3.093316
v 3.952014 -1.742378 -2.518548
v 3.947590 -1.734864 -2.530331
v 4.058814 -1.206966 -2.657434
v 4.012468 -1.239991 -2.713048
v 3.872999 -0.976972 -3.007240
v 3.840706 -0.978231 -3.047148
v 3.787318 -0.945129 -3.124316
v 3.988957 -1.261287 -2.737407
v 3.978777 -1.295064 -2.736320
v 3.929419 -1.261103 -2.822207
v 3.944654 -1.801197 -2.488405
v 3.697278 -1.438422 -3.042673
v 3.737489 -1.996370 -2.653335
v 3.721721 -2.010087 -2.665225
v 3.716602 -2.043264 -2.647004
v 3.788363 -2.141133 -2.461391
v 3.795531 -2.170329 -2.424946
v 3.662055 -1.267865 -3.158368
v 3.957356 -1.686601 -2.547660
v 3.971790 -1.662259 -2.541255
v 3.962432 -1.199843 -2.802209
v 3.985547 -1.172587 -2.781094
v 4.002219 -1.173856 -2.756824
v 3.783715 -2.249074 -2.370850
v 3.801812 -2.214542 -2.374338
v 4.150231 -1.368026 -2.428958
v 4.160562 -1.336671 -2.428692
v 3.679816 -1.226481 -3.154027
v 3.987817 -1.600610 -2.555677
v 3.818435 -1.599586 -2.802987
v 3.849685 -1.673152 -2.715479
v 3.863661 -1.692199 -2.683963
v 3.934385 -1.015552 -2.912785
v 3.822461 -2.179363 -2.373521
v 3.837522 -2.151100 -2.374917
v 3.783856 -1.859949 -2.686444
v 3.775311 -1.884155 -2.681555
v 3.768435 -1.880117 -2.694181
v 3.706048 -1.093835 -3.172166
v 3.995028 -1.543190 -2.579529
v 3.743013 -1.959158 -2.673220
v 3.785453 -1.510514 -2.895401
v 3.833213 -1.614751 -2.774432
v 3.922742 -1.004698 -2.931931
v 3.887348 -1.002545 -2.979784
v 4.036741 -1.063358 -2.751647
v 3.865040 -2.062929 -2.408611
v 3.808418 -1.812318 -2.684150
v 3.725183 -1.018971 -3.174656
v 4.022676 -1.437720 -2.597168
v 3.998468 -0.991402 -2.832402
v 4.034340 -0.998374 -2.778949
v 3.897254 -2.006239 -2.404196
vn 0.7737 -0.2028 -0.6001
vn 0.7545 -0.2028 -0.6242
vn 0.7654 -0.1950 -0.6132
vn 0.7711 -0.2181 -0.5981
vn 0.7519 -0.2181 -0.6221
vn 0.7492 -0.2334 -0.6198
vn 0.7683 -0.2334 -0.5960
vn 0.7653 -0.2487 -0.5936
vn 0.7463 -0.2487 -0.6174
vn 0.7621 -0.2638 -0.5912
vn 0.7432 -0.2638 -0.6148
vn 0.7588 -0.2790 -0.5885
vn 0.7399 -0.2790 -0.6121
vn 0.7843 -0.1950 -0.5889
vn 0.7822 -0.2082 -0.5872
vn 0.7820 -0.2093 -0.5871
vn 0.7922 -0.2027 -0.5755
vn 0.7895 -0.2181 -0.5736
vn 0.7866 -0.2334 -0.5715
vn 0.7836 -0.2487 -0.5693
vn 0.7803 -0.2638 -0.5669
vn 0.7769 -0.2790 -0.5644
vn 0.7552 -0.2940 -0.5858
vn 0.7732 -0.2940 -0.5618
vn 0.8024 -0.1950 -0.5640
vn 0.8009 -0.2044 -0.5629
vn 0.7986 -0.2171 -0.5613
vn 0.7998 -0.2105 -0.5621
vn 0.7957 -0.2324 -0.5593
vn 0.7940 -0.2410 -0.5580
vn 0.7930 -0.2462 -0.5573
vn 0.7908 -0.2562 -0.5558
vn 0.7874 -0.2713 -0.5534
vn 0.7852 -0.2809 -0.5518
vn 0.7838 -0.2865 -0.5509
vn 0.7905 -0.2940 -0.5372
vn 0.7866 -0.3090 -0.5346
vn 0.7694 -0.3090 -0.5590
vn 0.8026 -0.2563 -0.5386
vn 0.8083 -0.2546 -0.5309
vn 0.8079 -0.2562 -0.5307
vn 0.7978 -0.2638 -0.5422
vn 0.8108 -0.2790 -0.5145
vn 0.7942 -0.2790 -0.5398
vn 0.8059 -0.2865 -0.5180
vn 0.8007 -0.2865 -0.5260
vn 0.7989 -0.2940 -0.5247
vn 0.7969 -0.3015 -0.5234
vn 0.7928 -0.3164 -0.5208
vn 0.7825 -0.3239 -0.5318
vn 0.7945 -0.3103 -0.5219
vn 0.7886 -0.3313 -0.5180
vn 0.7854 -0.3466 -0.5129
vn 0.7898 -0.3531 -0.5016
vn 0.7841 -0.3460 -0.5151
vn 0.7690 -0.3681 -0.5226
vn 0.7850 -0.3681 -0.4982
vn 0.7801 -0.3826 -0.4950
vn 0.7641 -0.3826 -0.5193
vn 0.7749 -0.3971 -0.4917
vn 0.7591 -0.3971 -0.5159
vn 0.7538 -0.4115 -0.5123
vn 0.7695 -0.4115 -0.4884
vn 0.8178 -0.2487 -0.5190
vn 0.8180 -0.2411 -0.5223
vn 0.8245 -0.2549 -0.5052
vn 0.8307 -0.2563 -0.4942
vn 0.8302 -0.2638 -0.4910
vn 0.8144 -0.2638 -0.5168
vn 0.8206 -0.2714 -0.5029
vn 0.7971 -0.3541 -0.4892
vn 0.7952 -0.3608 -0.4873
vn 0.7917 -0.3714 -0.4851
vn 0.7903 -0.3753 -0.4843
vn 0.7882 -0.3812 -0.4830
vn 0.7830 -0.3957 -0.4798
vn 0.7798 -0.4043 -0.4779
vn 0.7777 -0.4100 -0.4765
vn 0.7743 -0.4186 -0.4745
vn 0.7686 -0.4328 -0.4710
vn 0.7640 -0.4257 -0.4848
vn 0.8396 -0.2562 -0.4789
vn 0.8380 -0.2632 -0.4780
vn 0.7676 -0.3460 -0.5394
vn 0.7782 -0.3387 -0.5289
vn 0.7737 -0.3534 -0.5258
vn 0.7463 -0.1919 -0.6373
vn 0.7517 -0.1950 -0.6299
vn 0.8169 -0.2865 -0.5006
vn 0.7430 -0.2865 -0.6048
vn 0.7310 -0.2752 -0.6243
vn 0.7480 -0.1796 -0.6389
vn 0.7469 -0.1871 -0.6380
vn 0.7874 -0.2714 -0.5534
vn 0.7558 -0.3015 -0.5812
vn 0.7472 -0.2885 -0.5986
vn 0.7430 -0.4186 -0.5222
vn 0.7470 -0.4077 -0.5250
vn 0.7477 -0.4469 -0.4911
vn 0.7502 -0.4407 -0.4928
vn 0.7582 -0.4399 -0.4812
vn 0.7319 -0.2714 -0.6250
vn 0.8085 -0.2534 -0.5311
vn 0.8112 -0.2410 -0.5328
vn 0.8086 -0.2528 -0.5312
vn 0.7477 -0.2865 -0.5990
vn 0.7483 -0.4043 -0.5259
vn 0.7514 -0.3956 -0.5281
vn 0.7534 -0.4328 -0.4949
vn 0.7350 -0.2563 -0.6277
vn 0.7362 -0.2503 -0.6287
vn 0.7627 -0.4469 -0.4674
vn 0.7552 -0.4470 -0.4794
vn 0.8360 -0.2714 -0.4769
vn 0.8285 -0.2714 -0.4897
vn 0.7582 -0.4207 -0.4981
vn 0.7380 -0.2410 -0.6303
vn 0.7586 -0.3164 -0.5695
vn 0.7700 -0.3165 -0.5540
vn 0.7719 -0.3312 -0.5425
vn 0.7583 -0.3753 -0.5329
vn 0.7407 -0.2257 -0.6327
vn 0.7534 -0.3899 -0.5295
vn 0.7625 -0.3015 -0.5725
vn 0.7761 -0.3164 -0.5454
vn 0.7948 -0.1950 -0.5746
vn 0.7645 -0.3559 -0.5373
vn 0.7433 -0.2105 -0.6349
vn 0.7706 -0.1951 -0.6066
vn 0.7818 -0.2105 -0.5869
vn 0.7940 -0.2411 -0.5581
vn 0.7892 -0.2635 -0.5547
vn 0.7848 -0.2827 -0.5515
vn 0.7907 -0.3241 -0.5194
vn 0.7861 -0.3395 -0.5164
vn 0.7842 -0.3460 -0.5151
vn 0.8196 -0.2756 -0.5022
vn 0.7712 -0.4264 -0.4726
vn 0.7662 -0.4386 -0.4695
vn 0.7700 -0.3381 -0.5411
vn 0.7446 -0.2026 -0.6360
vn 0.7875 -0.2712 -0.5535
vn 0.7896 -0.2618 -0.5549
vn 0.7535 -0.4186 -0.5069
vn 0.7431 -0.4186 -0.5220
vn 0.7318 -0.2714 -0.6250
vn 0.7338 -0.2620 -0.6268
vn 0.7394 -0.2335 -0.6315
vn 0.7615 -0.3052 -0.5718
vn 0.7719 -0.3313 -0.5425
vn 0.7750 -0.3203 -0.5447
vn 0.7559 -0.3825 -0.5313
vn 0.7583 -0.3754 -0.5329
vn 0.7602 -0.3695 -0.5343
vn 0.7420 -0.2187 -0.6337
vn 0.7630 -0.3608 -0.5363
usemtl None
s 1
f 7//1 1//2 131//3
f 1//2 8//4 2//5
f 3//6 8//4 9//7
f 3//6 10//8 4//9
f 4//9 11//10 5//11
f 5//11 12//12 6//13
f 7//1 170//14 77//15
f 76//16 14//17 15//18
f 9//7 15//18 16//19
f 9//7 17//20 10//8
f 10//8 18//21 11//10
f 11//10 19//22 12//12
f 13//23 19//22 20//24
f 176//25 177//25 80//26
f 93//27 80//26 171//28
f 15//18 59//29 16//19
f 16//19 147//30 146//30
f 17//20 64//31 135//32
f 114//33 85//34 19//22
f 20//24 105//35 24//36
f 20//24 25//37 21//38
f 69//39 54//40 111//41
f 22//42 35//43 23//44
f 35//43 47//45 175//46
f 24//36 91//47 165//48
f 154//49 26//50 45//51
f 26//50 145//52 144//52
f 70//53 36//54 127//55
f 29//56 36//54 37//57
f 29//56 38//58 30//59
f 30//59 39//60 31//61
f 32//62 39//60 40//63
f 33//64 57//65 60//66
f 60//66 61//67 43//68
f 34//69 120//70 119//70
f 36//54 70//53 81//71
f 136//72 92//73 37//57
f 92//73 116//74 46//75
f 38//58 63//76 39//60
f 39//60 63//76 178//77
f 40//63 72//78 172//79
f 160//80 159//80 41//81
f 43//68 108//82 52//83
f 104//84 27//85 28//86
f 1//2 95//87 97//88
f 107//89 106//89 35//43
f 78//90 58//91 6//13
f 110//92 95//87 96//93
f 112//94 22//42 23//44
f 82//95 102//96 13//23
f 117//97 56//98 32//62
f 121//99 44//100 42//101
f 5//11 6//13 125//102
f 55//103 129//104 54//40
f 128//104 33//64 53//105
f 134//32 69//39 22//42
f 6//13 12//12 137//106
f 138//107 101//108 31//61
f 142//109 141//109 41//81
f 143//110 89//111 4//9
f 150//112 88//113 42//101
f 152//114 94//115 43//68
f 40//63 90//116 32//62
f 153//117 3//6 4//9
f 155//118 21//38 68//119
f 26//50 27//85 157//120
f 29//56 30//59 162//121
f 164//122 2//5 3//6
f 166//123 30//59 31//61
f 13//23 20//24 167//124
f 168//125 68//119 21//38
f 76//16 71//126 14//17
f 48//127 28//86 29//56
f 174//128 1//2 2//5
f 1//2 97//88 132//3
f 131//3 130//3 7//1
f 130//3 66//129 7//1
f 1//2 132//3 131//3
f 1//2 7//1 8//4
f 3//6 2//5 8//4
f 3//6 9//7 10//8
f 4//9 10//8 11//10
f 5//11 11//10 12//12
f 7//1 66//129 170//14
f 170//14 169//14 77//15
f 15//18 8//4 158//130
f 8//4 7//1 77//15
f 158//130 8//4 77//15
f 158//130 76//16 15//18
f 9//7 8//4 15//18
f 9//7 16//19 17//20
f 10//8 17//20 18//21
f 11//10 18//21 19//22
f 13//23 12//12 19//22
f 80//26 14//17 176//25
f 14//17 71//126 176//25
f 93//27 15//18 80//26
f 15//18 14//17 80//26
f 15//18 93//27 59//29
f 64//31 17//20 16//19
f 16//19 59//29 147//30
f 59//29 148//131 147//30
f 146//30 64//31 16//19
f 99//132 18//21 135//32
f 18//21 17//20 135//32
f 19//22 18//21 115//94
f 18//21 99//132 115//94
f 115//94 114//33 19//22
f 20//24 19//22 85//34
f 105//35 84//133 24//36
f 84//133 23//44 24//36
f 20//24 85//34 105//35
f 20//24 24//36 25//37
f 34//69 22//42 111//41
f 22//42 69//39 111//41
f 69//39 55//103 54//40
f 111//41 53//105 34//69
f 53//105 33//64 34//69
f 22//42 34//69 35//43
f 91//47 24//36 175//46
f 24//36 23//44 175//46
f 23//44 35//43 175//46
f 45//51 25//37 165//48
f 25//37 24//36 165//48
f 62//134 26//50 154//49
f 26//50 25//37 45//51
f 74//135 27//85 144//52
f 27//85 26//50 144//52
f 26//50 62//134 145//52
f 36//54 28//86 127//55
f 28//86 27//85 127//55
f 27//85 74//135 127//55
f 127//55 126//136 70//53
f 29//56 28//86 36//54
f 29//56 37//57 38//58
f 30//59 38//58 39//60
f 32//62 31//61 39//60
f 43//68 34//69 60//66
f 34//69 33//64 60//66
f 73//137 35//43 119//70
f 35//43 34//69 119//70
f 34//69 43//68 120//70
f 43//68 94//115 120//70
f 37//57 36//54 136//72
f 36//54 81//71 136//72
f 46//75 38//58 92//73
f 38//58 37//57 92//73
f 38//58 46//75 63//76
f 72//78 40//63 178//77
f 40//63 39//60 178//77
f 86//138 41//81 172//79
f 41//81 40//63 172//79
f 100//139 42//101 159//80
f 42//101 41//81 159//80
f 41//81 86//138 160//80
f 43//68 61//67 108//82
f 28//86 48//127 104//84
f 104//84 83//140 27//85
f 1//2 51//141 95//87
f 51//141 96//93 95//87
f 35//43 73//137 107//89
f 106//89 47//45 35//43
f 110//92 109//92 95//87
f 23//44 84//133 113//142
f 112//94 98//143 22//42
f 23//44 113//142 112//94
f 32//62 49//144 118//145
f 118//145 117//97 32//62
f 42//101 88//113 121//99
f 88//113 123//99 121//99
f 123//99 122//99 121//99
f 6//13 58//91 125//102
f 125//102 124//146 5//11
f 124//146 103//147 5//11
f 128//104 57//65 33//64
f 22//42 98//143 134//32
f 134//32 133//32 69//39
f 13//23 102//96 12//12
f 102//96 137//106 12//12
f 137//106 78//90 6//13
f 32//62 56//98 31//61
f 56//98 140//107 138//107
f 31//61 56//98 138//107
f 140//107 139//107 138//107
f 42//101 44//100 142//109
f 141//109 90//116 41//81
f 41//81 42//101 142//109
f 5//11 103//147 4//9
f 103//147 143//110 4//9
f 42//101 100//139 150//112
f 150//112 149//112 88//113
f 43//68 52//83 152//114
f 152//114 151//114 94//115
f 41//81 90//116 40//63
f 90//116 49//144 32//62
f 4//9 89//111 153//117
f 153//117 79//148 3//6
f 155//118 50//149 21//38
f 27//85 83//140 157//120
f 157//120 156//150 26//50
f 156//150 67//151 26//50
f 30//59 87//152 162//121
f 87//152 163//121 162//121
f 162//121 161//153 29//56
f 161//153 75//154 29//56
f 3//6 79//148 164//122
f 164//122 65//155 2//5
f 31//61 101//108 166//123
f 166//123 87//152 30//59
f 21//38 50//149 20//24
f 50//149 167//124 20//24
f 167//124 82//95 13//23
f 26//50 67//151 25//37
f 67//151 168//125 21//38
f 25//37 67//151 21//38
f 29//56 75//154 173//156
f 173//156 48//127 29//56
f 2//5 65//155 174//128
f 174//128 51//141 1//2
