# Blender v2.81 (sub 16) OBJ File: ''
# www.blender.org
mtllib Myanmar.mtl
o 0_Myanmar_sphere.001
v -0.871106 1.840621 -4.566510
v -0.722627 1.913415 -4.562501
v -0.727239 1.840621 -4.591619
v -0.731672 1.767372 -4.619615
v -0.735926 1.693688 -4.646460
v -0.760554 1.167225 -4.801970
v -0.763330 1.090714 -4.819480
v -0.765915 1.013934 -4.835814
v -0.558357 2.269951 -4.419873
v -0.562759 2.199694 -4.454708
v -0.567020 2.128895 -4.488437
v -0.571140 2.057570 -4.521056
v -0.575123 1.985738 -4.552573
v -0.578958 1.913415 -4.582948
v -0.582653 1.840621 -4.612195
v -0.586206 1.767372 -4.640318
v -0.589614 1.693688 -4.667283
v -0.592872 1.619585 -4.693095
v -0.595988 1.545083 -4.717759
v -0.598955 1.470200 -4.741252
v -0.422555 2.199694 -4.470187
v -0.425755 2.128895 -4.504033
v -0.428849 2.057570 -4.536765
v -0.431839 1.985738 -4.568391
v -0.434719 1.913415 -4.598872
v -0.437493 1.840621 -4.628221
v -0.440160 1.767372 -4.656441
v -0.442720 1.693688 -4.683500
v -0.445166 1.619585 -4.709402
v -0.447505 1.545083 -4.734152
v -0.449733 1.470200 -4.757726
v -0.451854 1.394954 -4.780135
v -0.288129 1.985738 -4.579701
v -0.290050 1.913415 -4.610257
v -0.291901 1.840621 -4.639679
v -0.293681 1.767372 -4.667969
v -0.295389 1.693688 -4.695095
v -0.694373 1.167225 -4.811388
v -0.805867 1.013934 -4.828841
v -0.737795 1.693688 -4.646133
v -0.768097 0.943758 -4.849595
v -0.873778 1.803779 -4.580515
v -0.900379 1.840621 -4.560448
v -0.686877 1.470200 -4.728739
v -0.365073 2.128895 -4.508808
v -0.193037 1.767372 -4.672715
v -0.719371 1.962592 -4.541939
v -0.373595 1.470200 -4.763718
v -0.618451 2.128895 -4.481117
v -0.718703 1.090714 -4.825831
v -0.759091 1.204857 -4.792732
v -0.513903 1.394954 -4.773285
v -0.630372 1.394954 -4.759514
v -0.741931 1.394954 -4.743638
v -0.606212 2.057570 -4.516065
v -0.272892 1.693688 -4.696156
v -0.752402 1.913415 -4.557304
v -0.354449 1.394954 -4.787801
v -0.733506 1.013934 -4.840426
v -0.569008 2.339648 -4.381793
v -0.627017 2.339648 -4.373537
v -0.264092 1.985738 -4.580835
v -0.870421 1.849654 -4.562917
v -0.554441 2.330092 -4.388879
v -0.647083 1.319363 -4.778659
v -0.714867 1.319363 -4.769012
v -0.704535 1.985738 -4.534155
v -0.459725 2.269951 -4.430762
v -0.420271 2.248241 -4.446033
v -0.774327 1.167225 -4.799566
v -0.832428 1.840621 -4.573260
v -0.848952 1.840621 -4.570376
v -0.345595 2.057570 -4.543317
v -0.736003 1.692275 -4.646949
v -0.726558 0.936904 -4.856883
v -0.765104 0.936904 -4.851397
v -0.651173 1.619585 -4.684798
v -0.673996 2.269951 -4.403416
v -0.250603 1.913415 -4.612117
v -0.318334 1.619585 -4.719383
v -0.665271 1.243447 -4.796398
v -0.725516 1.243447 -4.787824
v -0.787152 1.090714 -4.815322
v -0.834643 1.767372 -4.601644
v -0.286801 2.033542 -4.558602
v -0.599705 1.450220 -4.747181
v -0.452893 1.355783 -4.791130
v -0.403009 2.199694 -4.471725
v -0.215699 1.840621 -4.643272
v -0.295495 1.688846 -4.696791
v -0.295858 1.672364 -4.702567
v -0.296331 1.650891 -4.710091
v -0.677643 2.199694 -4.438357
v -0.362446 1.545083 -4.740846
v -0.630581 1.545083 -4.712836
v -0.676286 2.249849 -4.413236
v -0.186924 1.830327 -4.648617
v -0.215451 1.817957 -4.652063
v -0.561618 2.367386 -4.367733
v -0.605714 2.372977 -4.358412
v -0.771108 0.950598 -4.847689
v -0.403754 2.191841 -4.475449
v -0.687698 1.304280 -4.776917
v -0.709255 1.261973 -4.785178
v -0.654013 1.280123 -4.788180
v -0.216026 1.876126 -4.628864
v -0.255477 1.895351 -4.619210
v -0.814795 1.030168 -4.823734
v -0.399393 2.236568 -4.453526
v -0.596554 1.455850 -4.745835
v -0.543313 1.413749 -4.764382
v -0.377292 1.484739 -4.758816
v -0.327421 2.021566 -4.560717
v -0.743180 1.393043 -4.744004
v -0.715877 1.319911 -4.768712
v -0.635041 1.386459 -4.761269
v -0.246181 1.929571 -4.605480
v -0.263701 1.956987 -4.593037
v -0.779019 1.147508 -4.803384
v -0.779171 1.108018 -4.812646
v -0.732460 0.862315 -4.869802
v -0.722549 0.925974 -4.859469
v -0.358081 1.562567 -4.735338
v -0.711173 1.965014 -4.542070
v -0.706771 1.448082 -4.732590
v -0.264729 2.039794 -4.556876
v -0.902341 1.827180 -4.565353
v -0.767650 1.194893 -4.793752
v -0.822955 1.744093 -4.612399
v -0.777969 1.725155 -4.627341
v -0.746679 0.991654 -4.843026
v -0.300696 1.687652 -4.696803
v -0.604905 2.025312 -4.530659
v -0.687392 2.038556 -4.513004
v -0.651716 1.508954 -4.721366
v -0.897376 1.860708 -4.552763
v -0.840723 1.837133 -4.573184
v -0.838097 1.774228 -4.598349
v -0.716678 1.042132 -4.836688
v -0.642771 1.596794 -4.693675
v -0.608865 1.581882 -4.703525
v -0.291305 1.657956 -4.707845
v -0.608611 2.119527 -4.486879
v -0.743789 1.882458 -4.571533
v -0.805074 1.851993 -4.573360
v -0.720477 1.134923 -4.815233
v -0.732865 1.689786 -4.648279
v -0.675662 1.685933 -4.657786
v -0.252482 1.698038 -4.695512
v -0.193273 1.764822 -4.673646
v -0.677996 2.185315 -4.445281
v -0.569383 2.338208 -4.382495
v -0.634604 2.327659 -4.378747
v -0.669418 2.309262 -4.383444
v -0.360557 2.087147 -4.528465
v -0.363134 2.125742 -4.510418
v -0.762383 1.949327 -4.540132
v -0.496845 2.290272 -4.416046
v -0.552840 2.276415 -4.417105
v -0.543469 2.324045 -4.393250
v -0.450362 1.354129 -4.791796
v -0.403199 1.361468 -4.793433
v -0.350928 1.381153 -4.791980
v -0.684858 1.178884 -4.809816
vn -0.1742 0.3681 -0.9133
vn -0.1773 0.3753 -0.9097
vn -0.1602 0.3627 -0.9180
vn -0.1297 0.3898 -0.9117
vn -0.1150 0.3971 -0.9105
vn -0.1158 0.3826 -0.9166
vn -0.1445 0.3826 -0.9125
vn -0.1165 0.3681 -0.9224
vn -0.1454 0.3681 -0.9183
vn -0.1463 0.3535 -0.9239
vn -0.1172 0.3535 -0.9281
vn -0.1179 0.3386 -0.9335
vn -0.1471 0.3386 -0.9293
vn -0.1433 0.2412 -0.9598
vn -0.1367 0.2412 -0.9608
vn -0.1369 0.2366 -0.9619
vn -0.1521 0.2334 -0.9604
vn -0.1372 0.2257 -0.9644
vn -0.1527 0.2181 -0.9639
vn -0.1375 0.2178 -0.9662
vn -0.1377 0.2105 -0.9678
vn -0.0974 0.4609 -0.8820
vn -0.0980 0.4494 -0.8879
vn -0.1117 0.4540 -0.8840
vn -0.0890 0.4470 -0.8901
vn -0.0845 0.4399 -0.8940
vn -0.1134 0.4257 -0.8977
vn -0.0851 0.4257 -0.9008
vn -0.1142 0.4115 -0.9042
vn -0.0858 0.4115 -0.9073
vn -0.0864 0.3971 -0.9137
vn -0.0869 0.3826 -0.9198
vn -0.0875 0.3681 -0.9256
vn -0.0880 0.3535 -0.9313
vn -0.0885 0.3386 -0.9367
vn -0.1186 0.3239 -0.9386
vn -0.0890 0.3239 -0.9419
vn -0.0895 0.3090 -0.9468
vn -0.1192 0.3090 -0.9435
vn -0.1198 0.2940 -0.9482
vn -0.0899 0.2940 -0.9515
vn -0.0717 0.4044 -0.9117
vn -0.0546 0.4044 -0.9129
vn -0.0576 0.3971 -0.9159
vn -0.0580 0.3826 -0.9221
vn -0.0584 0.3681 -0.9279
vn -0.0587 0.3535 -0.9336
vn -0.0591 0.3387 -0.9390
vn -0.0741 0.3265 -0.9423
vn -0.0740 0.3312 -0.9406
vn -0.0744 0.3165 -0.9456
vn -0.0746 0.3100 -0.9478
vn -0.0748 0.3014 -0.9505
vn -0.0904 0.2789 -0.9560
vn -0.0750 0.2928 -0.9532
vn -0.0754 0.2777 -0.9577
vn -0.0701 0.4470 -0.8918
vn -0.0704 0.4401 -0.8951
vn -0.0707 0.4328 -0.8987
vn -0.0712 0.4186 -0.9054
vn -0.0432 0.3970 -0.9168
vn -0.0434 0.3898 -0.9199
vn -0.0436 0.3753 -0.9258
vn -0.0438 0.3680 -0.9288
vn -0.0439 0.3609 -0.9316
vn -0.0440 0.3538 -0.9343
vn -0.0442 0.3460 -0.9372
vn -0.0442 0.3450 -0.9376
vn -0.1260 0.4470 -0.8856
vn -0.1126 0.4399 -0.8909
vn -0.1240 0.4747 -0.8714
vn -0.1245 0.4686 -0.8746
vn -0.1247 0.4658 -0.8761
vn -0.1685 0.1950 -0.9662
vn -0.1532 0.2028 -0.9672
vn -0.1424 0.1950 -0.9704
vn -0.0851 0.2713 -0.9587
vn -0.1052 0.2838 -0.9531
vn -0.1359 0.2644 -0.9548
vn -0.1362 0.2562 -0.9569
vn -0.1679 0.2162 -0.9618
vn -0.1051 0.2865 -0.9523
vn -0.1358 0.2713 -0.9528
vn -0.1354 0.2763 -0.9514
vn -0.1356 0.2713 -0.9529
vn -0.1675 0.2257 -0.9597
vn -0.1412 0.3312 -0.9329
vn -0.1614 0.3429 -0.9254
vn -0.1386 0.1796 -0.9739
vn -0.1383 0.1894 -0.9721
vn -0.1384 0.1855 -0.9728
vn -0.1352 0.2812 -0.9501
vn -0.1348 0.2907 -0.9472
vn -0.1306 0.2866 -0.9491
vn -0.1891 0.3609 -0.9132
vn -0.1685 0.3609 -0.9173
vn -0.1669 0.2412 -0.9560
vn -0.1672 0.2325 -0.9581
vn -0.1613 0.3460 -0.9243
vn -0.1606 0.3558 -0.9207
vn -0.1382 0.1950 -0.9710
vn -0.1288 0.4044 -0.9054
vn -0.1343 0.3015 -0.9439
vn -0.1885 0.3678 -0.9106
vn -0.1603 0.3609 -0.9187
vn -0.1336 0.3165 -0.9391
vn -0.0614 0.3313 -0.9415
vn -0.0711 0.3312 -0.9409
vn -0.0446 0.3312 -0.9425
vn -0.0686 0.3312 -0.9410
vn -0.1279 0.4186 -0.8991
vn -0.1593 0.3753 -0.9131
vn -0.1329 0.3312 -0.9341
vn -0.1270 0.4328 -0.8925
vn -0.1265 0.4401 -0.8890
vn -0.1250 0.4609 -0.8786
vn -0.1250 0.4610 -0.8786
vn -0.1583 0.3898 -0.9072
vn -0.1587 0.3840 -0.9095
vn -0.0756 0.2713 -0.9595
vn -0.1411 0.3898 -0.9100
vn -0.1294 0.3960 -0.9091
vn -0.1366 0.2454 -0.9597
vn -0.1364 0.2499 -0.9586
vn -0.1379 0.2053 -0.9689
vn -0.1159 0.4610 -0.8798
vn -0.0974 0.4609 -0.8821
vn -0.0716 0.4094 -0.9095
vn -0.0710 0.4233 -0.9032
vn -0.0431 0.4044 -0.9135
vn -0.0435 0.3836 -0.9225
vn -0.1255 0.4538 -0.8822
vn -0.1240 0.4747 -0.8713
vn -0.1682 0.2054 -0.9641
vn -0.1362 0.2562 -0.9570
vn -0.1359 0.2689 -0.9535
vn -0.1681 0.2105 -0.9630
vn -0.1350 0.2865 -0.9485
vn -0.1613 0.3460 -0.9242
vn -0.1284 0.4119 -0.9021
vn -0.1341 0.3067 -0.9423
vn -0.1880 0.3753 -0.9076
vn -0.1602 0.3628 -0.9180
vn -0.1332 0.3256 -0.9360
vn -0.1272 0.4293 -0.8941
vn -0.0755 0.2713 -0.9595
usemtl None
s 1
f 1//1 63//2 72//3
f 124//4 13//5 14//6
f 2//7 15//8 3//9
f 4//10 15//8 16//11
f 4//10 17//12 5//13
f 51//14 164//15 38//16
f 6//17 38//16 146//18
f 7//19 50//20 139//21
f 158//22 68//23 9//24
f 68//23 69//25 21//26
f 11//27 21//26 22//28
f 12//29 22//28 23//30
f 12//29 24//31 13//5
f 14//6 24//31 25//32
f 14//6 26//33 15//8
f 16//11 26//33 27//34
f 16//11 28//35 17//12
f 18//36 28//35 29//37
f 18//36 30//38 19//39
f 20//40 30//38 31//41
f 113//42 85//43 33//44
f 25//32 33//44 34//45
f 25//32 35//46 26//33
f 27//34 35//46 36//47
f 27//34 37//48 28//35
f 80//49 28//35 132//50
f 29//37 80//49 123//51
f 30//38 94//52 112//53
f 32//54 48//55 58//56
f 21//26 109//57 88//58
f 21//26 88//58 102//59
f 22//28 156//60 155//60
f 85//43 62//61 33//44
f 118//62 117//62 34//45
f 107//63 106//63 89//64
f 98//65 97//65 46//66
f 149//67 56//68 36//47
f 96//69 9//24 10//70
f 100//71 60//72 61//73
f 101//74 8//75 41//76
f 87//77 52//78 32//54
f 65//79 105//80 103//80
f 83//81 7//19 8//75
f 31//41 111//82 20//40
f 115//83 54//84 116//85
f 6//17 7//19 120//86
f 74//87 40//88 5//13
f 122//89 76//90 75//91
f 53//92 44//93 86//94
f 127//95 1//1 42//96
f 128//97 6//17 70//98
f 129//99 84//100 4//10
f 41//76 8//75 131//101
f 133//102 12//29 13//5
f 135//103 19//39 20//40
f 43//104 63//2 1//1
f 3//9 4//10 138//105
f 18//36 19//39 141//106
f 56//68 90//107 37//48
f 91//108 142//109 92//110
f 143//111 11//27 12//29
f 144//112 2//7 3//9
f 5//13 17//12 148//113
f 151//114 93//115 10//70
f 153//116 152//117 9//24
f 157//118 2//7 57//119
f 161//120 87//77 32//54
f 14//6 2//7 124//4
f 2//7 47//121 124//4
f 124//4 67//122 13//5
f 2//7 14//6 15//8
f 4//10 3//9 15//8
f 4//10 16//11 17//12
f 38//16 6//17 51//14
f 51//14 82//123 164//15
f 82//123 81//124 164//15
f 50//20 7//19 146//18
f 7//19 6//17 146//18
f 59//125 8//75 139//21
f 8//75 7//19 139//21
f 9//24 64//126 159//127
f 64//126 160//22 159//127
f 159//127 158//22 9//24
f 21//26 10//70 68//23
f 10//70 9//24 68//23
f 11//27 10//70 21//26
f 12//29 11//27 22//28
f 12//29 23//30 24//31
f 14//6 13//5 24//31
f 14//6 25//32 26//33
f 16//11 15//8 26//33
f 16//11 27//34 28//35
f 18//36 17//12 28//35
f 18//36 29//37 30//38
f 20//40 19//39 30//38
f 33//44 24//31 113//42
f 24//31 23//30 73//128
f 113//42 24//31 73//128
f 25//32 24//31 33//44
f 25//32 34//45 35//46
f 27//34 26//33 35//46
f 27//34 36//47 37//48
f 80//49 29//37 28//35
f 28//35 37//48 132//50
f 37//48 90//107 132//50
f 132//50 91//108 80//49
f 91//108 92//110 80//49
f 94//52 30//38 123//51
f 30//38 29//37 123//51
f 48//55 31//41 112//53
f 31//41 30//38 112//53
f 32//54 31//41 48//55
f 21//26 69//25 109//57
f 45//129 22//28 102//59
f 22//28 21//26 102//59
f 73//128 23//30 155//60
f 23//30 22//28 155//60
f 22//28 45//129 156//60
f 85//43 126//130 62//61
f 79//131 34//45 117//62
f 34//45 33//44 118//62
f 33//44 62//61 118//62
f 89//64 35//46 107//63
f 35//46 34//45 107//63
f 34//45 79//131 107//63
f 46//66 36//47 98//65
f 36//47 35//46 98//65
f 35//46 89//64 98//65
f 56//68 37//48 36//47
f 36//47 46//66 150//67
f 150//67 149//67 36//47
f 10//70 93//115 96//69
f 96//69 78//132 9//24
f 100//71 99//133 60//72
f 101//74 39//134 8//75
f 81//124 82//123 104//135
f 103//80 66//136 65//79
f 81//124 104//135 105//80
f 104//135 103//80 105//80
f 8//75 39//134 108//137
f 108//137 83//81 8//75
f 32//54 52//78 31//41
f 52//78 111//82 31//41
f 110//82 86//94 20//40
f 111//82 110//82 20//40
f 65//79 66//136 116//85
f 66//136 115//83 116//85
f 115//83 114//83 54//84
f 54//84 53//92 116//85
f 7//19 83//81 120//86
f 120//86 119//86 6//17
f 119//86 70//98 6//17
f 122//89 121//89 76//90
f 53//92 54//84 125//138
f 125//138 44//93 53//92
f 44//93 20//40 86//94
f 127//95 43//104 1//1
f 128//97 51//14 6//17
f 5//13 40//88 4//10
f 40//88 130//139 4//10
f 130//139 129//99 4//10
f 75//91 76//90 41//76
f 8//75 59//125 131//101
f 131//101 75//91 41//76
f 13//5 67//122 133//102
f 67//122 134//102 133//102
f 133//102 55//140 12//29
f 20//40 44//93 135//103
f 135//103 95//141 19//39
f 43//104 136//142 63//2
f 4//10 84//100 138//105
f 138//105 42//96 137//105
f 42//96 1//1 72//3
f 137//105 42//96 72//3
f 137//105 71//143 138//105
f 71//143 3//9 138//105
f 19//39 95//141 141//106
f 141//106 140//106 18//36
f 140//106 77//144 18//36
f 12//29 55//140 143//111
f 143//111 49//145 11//27
f 3//9 71//143 145//112
f 144//112 57//119 2//7
f 3//9 145//112 144//112
f 18//36 77//144 17//12
f 77//144 148//113 17//12
f 148//113 147//113 5//13
f 147//113 74//87 5//13
f 11//27 49//145 10//70
f 49//145 151//114 10//70
f 9//24 78//132 153//116
f 78//132 154//116 153//116
f 153//116 61//73 152//117
f 61//73 60//72 152//117
f 152//117 64//126 9//24
f 157//118 47//121 2//7
f 32//54 58//56 162//146
f 58//56 163//146 162//146
f 162//146 161//120 32//54
