# Blender v2.81 (sub 16) OBJ File: ''
# www.blender.org
mtllib Nepal.mtl
o 0_Nepal_sphere.001
v 0.277461 2.339648 -4.410109
v 0.279734 2.269951 -4.446242
v 0.415849 2.339648 -4.399218
v 0.544343 2.477292 -4.308910
v 0.549152 2.408767 -4.346984
v 0.553827 2.339648 -4.383985
v 0.679420 2.477292 -4.289686
v 0.685424 2.408767 -4.327590
v 0.144930 2.269951 -4.452600
v 0.531362 2.477292 -4.310343
v 0.280814 2.235542 -4.463401
v 0.610832 2.339648 -4.375872
v 0.687768 2.380995 -4.342390
v 0.543726 2.485761 -4.304030
v 0.412543 2.404747 -4.364248
v 0.418339 2.288722 -4.425554
v 0.392882 2.269951 -4.437337
v 0.428452 2.408767 -4.360310
v 0.719373 2.477292 -4.282713
v 0.555423 2.315128 -4.396621
v 0.276972 2.354085 -4.402334
v 0.676648 2.507806 -4.272180
v 0.753862 2.408767 -4.315646
v 0.167473 2.339648 -4.415296
v 0.234561 2.345163 -4.409153
v 0.151491 2.304398 -4.434379
v 0.144952 2.337796 -4.417321
v 0.142113 2.255139 -4.460141
v 0.151548 2.224183 -4.475179
v 0.216577 2.222712 -4.472847
v 0.718317 2.479359 -4.281678
v 0.754181 2.408120 -4.315944
v 0.505058 2.459113 -4.323489
v 0.463285 2.448183 -4.334259
v 0.439951 2.411645 -4.357419
v 0.517696 2.297988 -4.409743
v 0.667811 2.513725 -4.269965
v 0.635326 2.531657 -4.264070
v 0.577398 2.508471 -4.285915
v 0.614800 2.341386 -4.374360
v 0.683568 2.379247 -4.343941
v 0.381523 2.396531 -4.371136
v 0.320875 2.362769 -4.394180
v 0.412563 2.288103 -4.426332
v 0.309841 2.240974 -4.458395
v 0.369619 2.248348 -4.449995
vn 0.0690 0.4748 -0.8773
vn 0.0853 0.4748 -0.8759
vn 0.0832 0.4679 -0.8798
vn 0.0697 0.4609 -0.8847
vn 0.0698 0.4574 -0.8865
vn 0.0965 0.4760 -0.8741
vn 0.1098 0.4817 -0.8694
vn 0.1108 0.4679 -0.8768
vn 0.1218 0.5022 -0.8561
vn 0.1293 0.5022 -0.8550
vn 0.1359 0.4954 -0.8579
vn 0.1089 0.4954 -0.8618
vn 0.1371 0.4817 -0.8655
vn 0.1241 0.4748 -0.8713
vn 0.1242 0.4729 -0.8723
vn 0.1486 0.5022 -0.8518
vn 0.1494 0.4939 -0.8565
vn 0.1508 0.4802 -0.8641
vn 0.0414 0.4748 -0.8791
vn 0.0555 0.4679 -0.8820
vn 0.0418 0.4613 -0.8862
vn 0.0418 0.4609 -0.8864
vn 0.0559 0.4539 -0.8892
vn 0.0420 0.4531 -0.8904
vn 0.0421 0.4469 -0.8936
vn 0.1513 0.4748 -0.8669
vn 0.0956 0.4914 -0.8657
vn 0.1138 0.5022 -0.8572
vn 0.0957 0.4886 -0.8672
vn 0.0974 0.4609 -0.8820
vn 0.1072 0.4610 -0.8809
vn 0.0702 0.4469 -0.8918
vn 0.0572 0.4748 -0.8782
vn 0.0825 0.4610 -0.8835
vn 0.1341 0.4748 -0.8698
vn 0.1240 0.4748 -0.8713
vn 0.0543 0.4470 -0.8929
usemtl None
s 1
f 42//1 15//2 3//3
f 44//4 17//5 3//3
f 18//6 5//7 6//8
f 37//9 22//10 7//11
f 4//12 8//13 5//7
f 40//14 12//15 5//7
f 7//11 31//16 19//17
f 8//13 19//17 23//18
f 25//19 1//20 24//21
f 26//22 24//21 2//23
f 9//24 2//23 30//25
f 32//26 8//13 23//18
f 10//27 14//28 4//12
f 4//12 5//7 33//29
f 36//30 3//3 6//8
f 12//15 20//31 6//8
f 46//32 45//32 2//23
f 3//3 1//20 43//1
f 1//20 21//33 43//1
f 43//1 42//1 3//3
f 17//5 2//23 1//20
f 1//20 3//3 17//5
f 3//3 16//34 44//4
f 6//8 3//3 18//6
f 3//3 15//2 18//6
f 7//11 4//12 39//9
f 4//12 14//28 39//9
f 39//9 38//9 7//11
f 7//11 38//9 37//9
f 4//12 7//11 8//13
f 12//15 6//8 5//7
f 5//7 8//13 40//14
f 8//13 13//35 41//36
f 41//36 40//14 8//13
f 7//11 22//10 31//16
f 8//13 7//11 19//17
f 25//19 21//33 1//20
f 2//23 9//24 26//22
f 26//22 27//22 24//21
f 24//21 1//20 2//23
f 2//23 11//37 30//25
f 30//25 29//25 28//25
f 28//25 9//24 30//25
f 32//26 13//35 8//13
f 5//7 18//6 35//29
f 35//29 34//29 5//7
f 34//29 33//29 5//7
f 33//29 10//27 4//12
f 6//8 20//31 36//30
f 36//30 16//34 3//3
f 2//23 17//5 46//32
f 45//32 11//37 2//23
