# Blender v2.81 (sub 16) OBJ File: ''
# www.blender.org
mtllib New Zealand.mtl
o 0_New_Zealand_sphere.001
v -3.772041 -3.247243 -0.476516
v -3.720971 -3.306562 -0.470064
v -3.668984 -3.365065 -0.463495
v -3.616096 -3.422738 -0.456815
v -3.599962 -3.422738 -0.570174
v -3.546417 -3.479567 -0.561693
v -3.491996 -3.535537 -0.553074
v -3.527023 -3.479567 -0.672812
v -3.472900 -3.535537 -0.662487
v -3.417923 -3.590634 -0.651999
v -3.450377 -3.535537 -0.771247
v -3.395756 -3.590634 -0.759037
v -3.553230 -3.479567 -0.513819
v -3.731370 -3.306562 -0.375869
v -3.772390 -3.246824 -0.476560
v -3.713394 -3.306562 -0.523302
v -3.633781 -3.385694 -0.575530
v -3.373055 -3.612824 -0.753963
v -3.493107 -3.535537 -0.545268
v -3.676173 -3.365065 -0.398378
v -3.544526 -3.460889 -0.676150
v -3.477793 -3.549692 -0.550824
v -3.447332 -3.535537 -0.783928
v -3.654907 -3.365065 -0.562401
v -3.609902 -3.429282 -0.456033
v -3.598813 -3.440998 -0.454632
v -3.576743 -3.464317 -0.451844
v -3.617008 -3.422738 -0.448553
v -3.771940 -3.247243 -0.477224
v -3.383446 -3.590634 -0.810316
v -3.432755 -3.590634 -0.567021
v -3.591722 -3.422738 -0.617387
v -3.372099 -3.635135 -0.643258
v -3.516533 -3.479567 -0.723465
v -3.460031 -3.525488 -0.773405
v -3.533620 -3.469115 -0.690115
v -3.604738 -3.411798 -0.601617
v -3.564498 -3.445001 -0.649859
v -3.728195 -3.301907 -0.441437
v -3.756385 -3.275163 -0.397554
v -3.734389 -3.303064 -0.376182
v -3.749927 -3.274781 -0.459076
v -3.710084 -3.330456 -0.373666
v -3.680660 -3.360514 -0.394869
v -3.632720 -3.407842 -0.431700
v -3.579074 -3.463898 -0.434372
v -3.386175 -3.587542 -0.812400
v -3.438692 -3.542192 -0.790963
v -3.366030 -3.609720 -0.797159
v -3.739830 -3.277076 -0.519123
v -3.688633 -3.330256 -0.546678
v -3.706728 -3.313769 -0.524328
v -3.641361 -3.378633 -0.568588
v -3.605002 -3.433620 -0.461091
v -3.572115 -3.464604 -0.482419
v -3.541949 -3.488264 -0.532322
v -3.499915 -3.529051 -0.542742
v -3.363873 -3.633810 -0.689825
v -3.376261 -3.614033 -0.732232
v -3.514395 -3.480848 -0.727571
v -3.432279 -3.591054 -0.567184
v -3.396345 -3.617937 -0.609187
v -3.373366 -3.635227 -0.635436
vn -0.7529 -0.6497 -0.1047
vn -0.7584 -0.6427 -0.1083
vn -0.7500 -0.6527 -0.1068
vn -0.7478 -0.6554 -0.1064
vn -0.7442 -0.6613 -0.0940
vn -0.7375 -0.6671 -0.1050
vn -0.7338 -0.6729 -0.0927
vn -0.7270 -0.6787 -0.1035
vn -0.7263 -0.6787 -0.1086
vn -0.7200 -0.6845 -0.1140
vn -0.7234 -0.6787 -0.1263
vn -0.7152 -0.6877 -0.1248
vn -0.7128 -0.6902 -0.1244
vn -0.7116 -0.6902 -0.1311
vn -0.7054 -0.6959 -0.1346
vn -0.6984 -0.7071 -0.1106
vn -0.6946 -0.7071 -0.1325
vn -0.7085 -0.6902 -0.1467
vn -0.6991 -0.7002 -0.1448
vn -0.6978 -0.7015 -0.1445
vn -0.6967 -0.7015 -0.1497
vn -0.6792 -0.7181 -0.1518
vn -0.6836 -0.7181 -0.1304
vn -0.6901 -0.7071 -0.1542
vn -0.6850 -0.7097 -0.1645
vn -0.6822 -0.7126 -0.1638
vn -0.7507 -0.6554 -0.0829
vn -0.7404 -0.6671 -0.0817
vn -0.7299 -0.6787 -0.0806
vn -0.7233 -0.6845 -0.0913
vn -0.7178 -0.6903 -0.0908
vn -0.7192 -0.6902 -0.0793
vn -0.7168 -0.6902 -0.0983
vn -0.7171 -0.6902 -0.0966
vn -0.7271 -0.6818 -0.0802
vn -0.6712 -0.7235 -0.1611
vn -0.6778 -0.7170 -0.1627
vn -0.7164 -0.6902 -0.1019
vn -0.7056 -0.7015 -0.1004
vn -0.7093 -0.6959 -0.1123
vn -0.6915 -0.7126 -0.1180
vn -0.7013 -0.7057 -0.0998
vn -0.6759 -0.7235 -0.1400
vn -0.6800 -0.7235 -0.1187
vn -0.7420 -0.6620 -0.1056
vn -0.7309 -0.6745 -0.1040
vn -0.7456 -0.6612 -0.0823
vn -0.7508 -0.6553 -0.0829
vn -0.7371 -0.6708 -0.0814
vn -0.6737 -0.7236 -0.1499
vn -0.7145 -0.6922 -0.1017
vn -0.6780 -0.7236 -0.1291
vn -0.6870 -0.7166 -0.1199
vn -0.6802 -0.7233 -0.1187
usemtl None
s 1
f 1//1 15//2 29//3
f 50//4 2//5 29//3
f 52//6 51//6 3//7
f 53//8 17//9 5//10
f 5//10 37//11 32//12
f 38//13 21//14 8//15
f 7//16 8//15 9//17
f 8//15 36//18 34//19
f 60//20 35//21 9//17
f 9//17 12//22 10//23
f 11//24 35//21 23//25
f 48//26 47//26 12//22
f 39//27 42//27 2//5
f 2//5 3//7 44//28
f 45//29 3//7 4//30
f 27//31 46//32 26//33
f 25//34 28//35 4//30
f 49//36 12//22 30//37
f 55//38 54//38 5//10
f 57//39 56//39 6//40
f 22//41 19//42 7//16
f 10//23 12//22 59//43
f 22//41 7//16 9//17
f 10//23 63//44 62//44
f 16//45 2//5 50//4
f 2//5 1//1 29//3
f 24//46 3//7 51//6
f 3//7 2//5 52//6
f 2//5 16//45 52//6
f 5//10 4//30 53//8
f 4//30 3//7 53//8
f 3//7 24//46 53//8
f 5//10 17//9 37//11
f 8//15 6//40 38//13
f 6//40 5//10 32//12
f 38//13 6//40 32//12
f 7//16 6//40 8//15
f 8//15 21//14 36//18
f 11//24 9//17 35//21
f 9//17 8//15 34//19
f 60//20 9//17 34//19
f 9//17 11//24 12//22
f 30//37 12//22 47//26
f 12//22 11//24 48//26
f 11//24 23//25 48//26
f 2//5 14//47 39//27
f 14//47 41//27 39//27
f 41//27 40//48 39//27
f 42//27 1//1 2//5
f 3//7 20//49 44//28
f 44//28 43//28 2//5
f 43//28 14//47 2//5
f 4//30 28//35 45//29
f 45//29 20//49 3//7
f 49//36 18//50 12//22
f 6//40 13//51 5//10
f 13//51 55//38 5//10
f 55//38 27//31 26//33
f 54//38 25//34 4//30
f 55//38 26//33 54//38
f 54//38 4//30 5//10
f 7//16 19//42 57//39
f 56//39 13//51 6//40
f 7//16 57//39 6//40
f 12//22 18//50 59//43
f 59//43 58//43 10//23
f 58//43 33//52 10//23
f 10//23 31//53 9//17
f 31//53 22//41 9//17
f 10//23 33//52 63//44
f 62//44 61//54 10//23
f 61//54 31//53 10//23
o 1_New_Zealand_sphere.001
v -3.948814 -3.064538 -0.124093
v -3.900217 -3.126216 -0.122564
v -3.942967 -3.064538 -0.248067
v -3.894442 -3.126216 -0.245012
v -3.844952 -3.187123 -0.241899
v -3.794519 -3.247243 -0.238727
v -3.980667 -3.002104 -0.376280
v -3.884824 -3.126216 -0.367219
v -3.835456 -3.187123 -0.362553
v -4.020996 -2.947258 -0.380092
v -3.831570 -3.187123 -0.397756
v -3.979183 -3.002104 -0.389723
v -3.963710 -3.024421 -0.374677
v -3.900232 -3.126216 -0.121613
v -3.943499 -3.064538 -0.236803
v -3.947116 -3.064538 -0.160101
v -3.933917 -3.064538 -0.363063
v -3.795084 -3.247243 -0.226729
v -3.788257 -3.247243 -0.318284
v -3.958178 -3.052262 -0.124387
v -3.779969 -3.264043 -0.237811
v -4.059839 -2.875029 -0.500406
v -4.066634 -2.875029 -0.438859
v -3.735951 -3.306562 -0.326895
v -3.740034 -3.306562 -0.275014
v -3.885731 -3.125060 -0.367305
v -3.824369 -3.200372 -0.361505
v -3.898744 -3.128026 -0.122518
v -3.946404 -3.060025 -0.248283
v -4.020412 -2.938929 -0.441436
v -4.026827 -2.938929 -0.383330
v -3.884797 -3.126216 -0.367464
v -3.949126 -3.064538 -0.104211
v -3.983534 -3.002104 -0.339859
v -3.984752 -3.002104 -0.324378
v -3.987398 -3.002104 -0.290758
v -3.846767 -3.187123 -0.203412
v -4.088282 -2.831564 -0.516466
v -4.072835 -2.854094 -0.514515
v -4.084983 -2.833949 -0.527948
v -4.053649 -2.884647 -0.493845
v -4.062211 -2.886632 -0.403365
v -4.092159 -2.828291 -0.501956
v -4.069156 -2.868051 -0.459947
v -3.959918 -3.049171 -0.137559
v -3.939870 -3.069973 -0.222808
v -3.937833 -3.075345 -0.176128
v -3.873902 -3.157654 -0.137267
v -3.872694 -3.156147 -0.188919
v -3.855089 -3.176757 -0.206080
v -4.004309 -2.975621 -0.325161
v -3.992676 -2.994786 -0.292577
v -4.019135 -2.949880 -0.379065
v -3.968586 -3.023291 -0.323722
v -3.953649 -3.047368 -0.279343
v -3.955883 -3.035417 -0.367185
v -3.921797 -3.080091 -0.360817
v -3.831422 -3.205632 -0.198575
v -3.820508 -3.218084 -0.207851
v -3.788926 -3.254090 -0.231206
v -3.954804 -3.057137 -0.102365
v -3.906650 -3.118153 -0.117669
v -3.747578 -3.299141 -0.261235
v -3.740902 -3.298760 -0.350262
v -3.720627 -3.325114 -0.309845
v -3.734957 -3.308070 -0.322308
v -3.988158 -2.988700 -0.398636
v -3.997453 -2.976334 -0.397663
v -4.015126 -2.947254 -0.433289
v -3.834895 -3.180740 -0.414986
v -3.854950 -3.156219 -0.415235
v -3.879297 -3.132802 -0.368423
v -3.790865 -3.244317 -0.316488
v -3.819875 -3.207626 -0.340905
vn -0.7898 -0.6128 -0.0248
vn -0.7941 -0.6066 -0.0374
vn -0.7866 -0.6163 -0.0371
vn -0.7845 -0.6190 -0.0370
vn -0.7789 -0.6252 -0.0490
vn -0.7880 -0.6126 -0.0620
vn -0.7925 -0.6066 -0.0623
vn -0.7829 -0.6190 -0.0616
vn -0.7829 -0.6189 -0.0630
vn -0.7690 -0.6374 -0.0484
vn -0.7770 -0.6252 -0.0737
vn -0.7671 -0.6374 -0.0725
vn -0.7632 -0.6434 -0.0601
vn -0.7631 -0.6434 -0.0601
vn -0.7996 -0.5940 -0.0883
vn -0.7996 -0.5940 -0.0882
vn -0.7961 -0.6004 -0.0753
vn -0.7750 -0.6260 -0.0860
vn -0.7708 -0.6313 -0.0851
vn -0.7694 -0.6330 -0.0849
vn -0.7624 -0.6434 -0.0686
vn -0.8164 -0.5685 -0.1010
vn -0.8145 -0.5685 -0.1159
vn -0.8173 -0.5685 -0.0939
vn -0.8060 -0.5852 -0.0890
vn -0.8098 -0.5798 -0.0894
vn -0.8087 -0.5814 -0.0893
vn -0.8146 -0.5730 -0.0899
vn -0.8177 -0.5684 -0.0903
vn -0.7859 -0.6172 -0.0370
vn -0.7931 -0.6066 -0.0537
vn -0.7886 -0.6128 -0.0496
vn -0.7800 -0.6253 -0.0245
vn -0.7747 -0.6313 -0.0365
vn -0.8019 -0.5941 -0.0631
vn -0.7972 -0.6005 -0.0627
vn -0.7968 -0.6010 -0.0627
vn -0.8019 -0.5940 -0.0632
vn -0.7957 -0.6024 -0.0626
vn -0.7589 -0.6494 -0.0477
vn -0.7647 -0.6434 -0.0360
vn -0.7544 -0.6554 -0.0356
vn -0.7532 -0.6554 -0.0555
vn -0.7949 -0.6066 -0.0125
vn -0.7907 -0.6120 -0.0124
vn -0.7852 -0.6190 -0.0123
vn -0.7747 -0.6314 -0.0335
vn -0.7814 -0.6239 -0.0124
vn -0.7565 -0.6512 -0.0595
vn -0.7530 -0.6554 -0.0592
vn -0.7516 -0.6569 -0.0591
vn -0.7426 -0.6672 -0.0584
vn -0.7510 -0.6576 -0.0591
vn -0.7962 -0.5986 -0.0879
vn -0.7922 -0.6066 -0.0659
vn -0.7945 -0.6067 -0.0272
vn -0.7998 -0.5941 -0.0862
vn -0.8034 -0.5887 -0.0887
vn -0.7995 -0.5941 -0.0883
vn -0.8087 -0.5813 -0.0893
vn -0.8177 -0.5685 -0.0903
vn -0.7692 -0.6380 -0.0363
vn -0.8019 -0.5940 -0.0631
vn -0.7612 -0.6475 -0.0359
vn -0.7426 -0.6671 -0.0584
usemtl None
s 1
f 64//55 108//56 79//57
f 110//58 109//58 67//59
f 80//60 118//61 117//61
f 120//62 89//63 67//59
f 68//64 71//65 72//66
f 68//64 137//67 136//68
f 131//69 130//70 70//71
f 71//65 89//63 95//72
f 72//66 134//73 74//74
f 74//74 90//75 72//66
f 101//76 103//77 102//78
f 93//79 86//80 104//81
f 102//78 85//82 107//83
f 78//84 92//85 66//86
f 65//87 67//59 112//88
f 115//89 98//90 99//91
f 116//92 70//71 97//93
f 68//64 69//94 122//95
f 123//96 69//94 84//97
f 124//98 64//55 96//99
f 125//100 64//55 65//87
f 91//101 77//102 65//87
f 82//103 127//104 87//105
f 129//106 88//107 87//105
f 75//108 76//109 70//71
f 64//55 83//110 108//56
f 67//59 65//87 110//58
f 65//87 64//55 110//58
f 64//55 79//57 110//58
f 109//58 78//84 66//86
f 109//58 66//86 67//59
f 80//60 66//86 118//61
f 66//86 92//85 118//61
f 118//61 99//91 117//61
f 99//91 98//90 117//61
f 70//71 76//109 97//93
f 76//109 119//61 117//61
f 97//93 76//109 117//61
f 119//61 80//60 117//61
f 71//65 67//59 89//63
f 67//59 66//86 120//62
f 66//86 80//60 120//62
f 68//64 67//59 71//65
f 82//103 69//94 136//68
f 69//94 68//64 136//68
f 68//64 72//66 137//67
f 72//66 90//75 137//67
f 75//108 70//71 130//70
f 70//71 73//111 131//69
f 73//111 94//112 132//113
f 94//112 93//79 132//113
f 132//113 131//69 73//111
f 72//66 71//65 135//73
f 71//65 95//72 135//73
f 135//73 134//73 72//66
f 134//73 133//73 74//74
f 93//79 94//112 105//114
f 105//114 86//80 93//79
f 86//80 85//82 104//81
f 85//82 86//80 107//83
f 107//83 106//115 102//78
f 106//115 101//76 102//78
f 68//64 100//116 113//88
f 112//88 111//88 91//101
f 68//64 113//88 67//59
f 113//88 112//88 67//59
f 91//101 65//87 112//88
f 115//89 114//117 98//90
f 116//92 73//111 70//71
f 69//94 81//118 122//95
f 122//95 121//95 68//64
f 121//95 100//116 68//64
f 123//96 81//118 69//94
f 124//98 83//110 64//55
f 65//87 77//102 125//100
f 125//100 96//99 64//55
f 87//105 88//107 82//103
f 88//107 126//104 82//103
f 126//104 84//97 82//103
f 84//97 69//94 82//103
f 129//106 128//119 88//107
