# Blender v2.81 (sub 16) OBJ File: ''
# www.blender.org
mtllib New Caledonia.mtl
o 0_New_Caledonia_sphere.001
v -4.502809 -1.840626 -1.156123
v -4.497756 -1.853506 -1.154825
v -4.504596 -1.767377 -1.256983
v -4.524480 -1.767377 -1.184299
v -4.519292 -1.840626 -1.087465
v -4.523464 -1.785513 -1.161426
v -4.498059 -1.840626 -1.173483
v -4.500078 -1.803775 -1.220136
v -4.524223 -1.775445 -1.173413
v -4.522119 -1.798233 -1.145948
v -4.506875 -1.746344 -1.278054
v -4.513721 -1.718620 -1.291778
v -4.522638 -1.719708 -1.257665
v -4.524831 -1.747548 -1.210735
v -4.497617 -1.846998 -1.165319
v -4.518644 -1.848513 -1.076481
v -4.513761 -1.885814 -1.032114
v -4.498968 -1.905150 -1.060185
v -4.497198 -1.883290 -1.105483
vn -0.8996 -0.3608 -0.2461
vn -0.8983 -0.3642 -0.2457
vn -0.9015 -0.3609 -0.2387
vn -0.9069 -0.3608 -0.2177
vn -0.9005 -0.3681 -0.2312
vn -0.9025 -0.3722 -0.2167
vn -0.9035 -0.3500 -0.2472
vn -0.9049 -0.3460 -0.2476
vn -0.8940 -0.3753 -0.2446
vn -0.9013 -0.3753 -0.2163
vn -0.9012 -0.3753 -0.2163
vn -0.9008 -0.3576 -0.2464
vn -0.8991 -0.3754 -0.2251
vn -0.9013 -0.3753 -0.2164
usemtl None
s 1
f 8//1 7//2 6//3
f 10//4 1//5 5//6
f 3//7 13//8 11//8
f 15//9 1//5 7//2
f 16//10 5//6 19//11
f 7//2 1//5 6//3
f 6//3 9//1 8//1
f 9//1 4//12 8//1
f 4//12 3//7 8//1
f 10//4 6//3 1//5
f 3//7 4//12 14//8
f 14//8 13//8 3//7
f 13//8 12//8 11//8
f 15//9 2//13 1//5
f 1//5 2//13 5//6
f 2//13 19//11 5//6
f 19//11 18//10 16//10
f 18//10 17//14 16//10
