# Blender v2.81 (sub 16) OBJ File: ''
# www.blender.org
mtllib Niger.mtl
o 0_Niger_sphere.001
v 4.474271 1.913415 -1.148792
v 4.502829 1.840621 -1.156125
v 4.530278 1.767372 -1.163171
v 4.556605 1.693688 -1.169932
v 4.581811 1.619585 -1.176402
v 4.605886 1.545083 -1.182585
v 4.628824 1.470200 -1.188474
v 4.650621 1.394954 -1.194072
v 4.508148 1.913415 -1.007684
v 4.536922 1.840621 -1.014117
v 4.564579 1.767372 -1.020298
v 4.591105 1.693688 -1.026228
v 4.616501 1.619585 -1.031903
v 4.640759 1.545083 -1.037327
v 4.663871 1.470200 -1.042493
v 4.685833 1.394954 -1.047403
v 4.706638 1.319363 -1.052052
v 4.726280 1.243447 -1.056443
v 4.744759 1.167225 -1.060573
v 4.537575 1.913415 -0.865583
v 4.566537 1.840621 -0.871108
v 4.594374 1.767372 -0.876417
v 4.621074 1.693688 -0.881512
v 4.646636 1.619585 -0.886386
v 4.671052 1.545083 -0.891045
v 4.694315 1.470200 -0.895482
v 4.716421 1.394954 -0.899700
v 4.737361 1.319363 -0.903694
v 4.757131 1.243447 -0.907466
v 4.775731 1.167225 -0.911013
v 4.591646 1.840621 -0.727240
v 4.619636 1.767372 -0.731672
v 4.646483 1.693688 -0.735925
v 4.672185 1.619585 -0.739995
v 4.696736 1.545083 -0.743884
v 4.720126 1.470200 -0.747588
v 4.742353 1.394954 -0.751110
v 4.763409 1.319363 -0.754444
v 4.783288 1.243447 -0.757593
v 4.801990 1.167225 -0.760554
v 4.667306 1.693688 -0.589613
v 4.693123 1.619585 -0.592873
v 4.717784 1.545083 -0.595989
v 4.741279 1.470200 -0.598957
v 4.763606 1.394954 -0.601778
v 4.784756 1.319363 -0.604450
v 4.804724 1.243447 -0.606972
v 4.823510 1.167225 -0.609345
v 4.709430 1.619585 -0.445165
v 4.734177 1.545083 -0.447506
v 4.757753 1.470200 -0.449734
v 4.780158 1.394954 -0.451853
v 4.801381 1.319363 -0.453858
v 4.821419 1.243447 -0.455753
v 4.813267 1.319363 -0.302819
v 4.833355 1.243447 -0.304083
v 4.852252 1.167225 -0.305272
v 4.869951 1.090714 -0.306386
v 4.886452 1.013934 -0.307424
v 4.820404 1.319363 -0.151482
v 4.840521 1.243447 -0.152114
v 4.859447 1.167225 -0.152708
v 4.779694 1.149821 -0.911769
v 4.860713 1.167225 -0.072079
v 4.609735 1.470200 -1.258251
v 4.869187 1.090714 -0.316094
v 4.642020 1.762777 -0.586417
v 4.712199 1.153438 -1.209881
v 4.721702 1.111107 -1.212322
v 4.463439 1.913415 -1.188386
v 4.791093 1.394954 -0.312897
v 4.490105 1.985738 -0.943809
v 4.483742 1.985738 -0.974535
v 4.529383 1.693688 -1.269441
v 4.527008 1.938821 -0.863567
v 4.832702 1.197826 -0.456819
v 4.886354 1.013934 -0.308662
v 4.545432 1.913415 -0.820567
v 4.830757 1.167225 -0.543704
v 4.584887 1.857517 -0.726169
v 4.655151 1.378370 -1.195234
v 4.488883 1.840621 -1.207099
v 4.470101 1.923581 -1.147721
v 4.585846 1.545083 -1.255840
v 4.814961 1.110563 -0.762609
v 4.682147 1.319363 -1.154066
v 4.875663 1.090714 -0.185249
v 4.707488 1.243447 -1.134717
v 4.716762 1.619585 -0.351991
v 4.807085 1.341330 -0.302431
v 4.479265 1.913415 -1.127990
v 4.478745 1.913415 -1.130156
v 4.749548 1.146053 -1.061644
v 4.639379 1.767372 -0.592950
v 4.820983 1.319363 -0.114614
v 4.506087 1.767372 -1.251599
v 4.691738 1.670191 -0.443494
v 4.644692 1.394954 -1.215747
v 4.737811 1.167225 -1.089517
v 4.729835 1.167225 -1.122738
v 4.717906 1.167225 -1.172424
v 4.741539 1.545083 -0.353967
v 4.886982 1.011263 -0.307457
v 4.678411 1.693688 -0.489030
v 4.875201 1.099221 -0.153204
v 4.842502 1.243447 -0.026031
v 4.558195 1.619585 -1.262729
v 4.481255 1.978492 -1.001674
v 4.848921 1.167225 -0.347606
v 4.886619 1.013934 -0.303888
v 4.831277 1.133446 -0.610327
v 4.736026 1.090714 -1.172902
v 4.730386 1.090714 -1.196396
v 4.765147 1.470200 -0.355777
v 4.595818 1.840621 -0.697922
v 4.819206 1.323612 -0.151444
v 4.496793 1.816779 -1.213140
v 4.496657 1.795610 -1.244672
v 4.505969 1.769716 -1.248595
v 4.471840 1.956718 -1.080379
v 4.860525 1.120880 -0.337054
v 4.709448 1.640488 -0.351385
v 4.841550 1.247102 -0.024932
v 4.830615 1.287958 -0.031542
v 4.828903 1.291215 -0.085531
v 4.879682 1.059491 -0.242741
v 4.881173 1.059257 -0.212200
v 4.887886 1.034320 -0.183836
v 4.588019 1.538950 -1.255249
v 4.841985 1.188040 -0.369835
v 4.848249 1.169743 -0.348170
v 4.820425 1.321235 -0.116542
v 4.758802 1.127808 -1.037805
v 4.766531 1.152544 -0.972215
v 4.774658 1.157583 -0.927215
v 4.732706 1.080718 -1.195953
v 4.736803 1.078790 -1.180665
v 4.782075 1.145690 -0.903688
v 4.790071 1.148157 -0.854549
v 4.806965 1.111938 -0.806575
v 4.814870 1.109995 -0.763895
v 4.875191 1.092741 -0.185294
v 4.452754 1.942489 -1.180795
v 4.720744 1.154647 -1.173090
v 4.726128 1.107849 -1.197123
v 4.806678 1.341879 -0.305619
v 4.791561 1.393600 -0.311813
v 4.708414 1.240526 -1.133967
v 4.707761 1.209166 -1.170055
v 4.729388 1.171859 -1.119667
v 4.733219 1.175251 -1.100102
v 4.621583 1.430548 -1.259880
v 4.771361 1.449366 -0.356224
v 4.819370 1.153769 -0.660566
v 4.829812 1.133003 -0.621356
v 4.814084 1.328438 -0.231180
v 4.834599 1.134397 -0.578233
v 4.830712 1.166465 -0.545715
v 4.686763 1.677260 -0.465935
v 4.873285 1.111972 -0.087032
v 4.863794 1.153110 -0.084215
v 4.887054 1.010519 -0.308429
v 4.707954 1.152754 -1.226001
v 4.719177 1.112741 -1.220119
v 4.597634 1.837729 -0.693104
v 4.670857 1.351536 -1.162227
v 4.506982 1.741720 -1.284184
v 4.524198 1.706448 -1.270558
v 4.479385 1.912647 -1.128825
v 4.870282 1.086670 -0.313282
v 4.851020 1.208503 -0.036323
v 4.832207 1.198205 -0.460443
v 4.485578 1.991352 -0.953435
vn 0.8949 0.3826 -0.2297
vn 0.8907 0.3899 -0.2336
vn 0.9002 0.3781 -0.2161
vn 0.8997 0.3794 -0.2158
vn 0.9016 0.3826 -0.2015
vn 0.9074 0.3681 -0.2028
vn 0.9061 0.3534 -0.2326
vn 0.9129 0.3534 -0.2040
vn 0.9182 0.3387 -0.2052
vn 0.9113 0.3387 -0.2340
vn 0.9163 0.3239 -0.2353
vn 0.9233 0.3239 -0.2064
vn 0.9281 0.3090 -0.2075
vn 0.9212 0.3090 -0.2365
vn 0.9257 0.2940 -0.2377
vn 0.9328 0.2940 -0.2085
vn 0.9372 0.2789 -0.2095
vn 0.9301 0.2790 -0.2388
vn 0.9007 0.3923 -0.1865
vn 0.9036 0.3899 -0.1774
vn 0.9075 0.3826 -0.1731
vn 0.9133 0.3681 -0.1742
vn 0.9189 0.3534 -0.1753
vn 0.9242 0.3387 -0.1763
vn 0.9293 0.3239 -0.1773
vn 0.9342 0.3090 -0.1782
vn 0.9388 0.2940 -0.1791
vn 0.9433 0.2790 -0.1799
vn 0.9413 0.2638 -0.2104
vn 0.9475 0.2638 -0.1807
vn 0.9514 0.2487 -0.1815
vn 0.9452 0.2487 -0.2113
vn 0.9489 0.2334 -0.2121
vn 0.9551 0.2334 -0.1822
vn 0.9120 0.3779 -0.1592
vn 0.9146 0.3754 -0.1500
vn 0.9183 0.3681 -0.1454
vn 0.9239 0.3534 -0.1463
vn 0.9293 0.3387 -0.1472
vn 0.9344 0.3239 -0.1480
vn 0.9393 0.3090 -0.1487
vn 0.9440 0.2940 -0.1495
vn 0.9485 0.2790 -0.1502
vn 0.9527 0.2638 -0.1509
vn 0.9566 0.2487 -0.1515
vn 0.9604 0.2334 -0.1521
vn 0.9223 0.3635 -0.1312
vn 0.9233 0.3608 -0.1314
vn 0.9278 0.3490 -0.1320
vn 0.9300 0.3461 -0.1234
vn 0.9335 0.3387 -0.1179
vn 0.9386 0.3239 -0.1186
vn 0.9435 0.3090 -0.1192
vn 0.9482 0.2940 -0.1198
vn 0.9527 0.2790 -0.1203
vn 0.9569 0.2638 -0.1209
vn 0.9609 0.2487 -0.1214
vn 0.9647 0.2334 -0.1219
vn 0.9368 0.3342 -0.1034
vn 0.9378 0.3313 -0.1035
vn 0.9390 0.3313 -0.0918
vn 0.9419 0.3239 -0.0890
vn 0.9468 0.3090 -0.0895
vn 0.9515 0.2940 -0.0899
vn 0.9560 0.2790 -0.0904
vn 0.9603 0.2638 -0.0908
vn 0.9643 0.2487 -0.0911
vn 0.9646 0.2411 -0.1065
vn 0.9650 0.2394 -0.1065
vn 0.9406 0.3312 -0.0740
vn 0.9432 0.3239 -0.0742
vn 0.9481 0.3090 -0.0746
vn 0.9528 0.2940 -0.0750
vn 0.9551 0.2865 -0.0752
vn 0.9595 0.2714 -0.0755
vn 0.9604 0.2714 -0.0621
vn 0.9626 0.2638 -0.0605
vn 0.9667 0.2487 -0.0608
vn 0.9614 0.2713 -0.0453
vn 0.9640 0.2639 -0.0303
vn 0.9681 0.2487 -0.0304
vn 0.9704 0.2334 -0.0610
vn 0.9719 0.2334 -0.0305
vn 0.9736 0.2258 -0.0325
vn 0.9731 0.2256 -0.0459
vn 0.9740 0.2181 -0.0613
vn 0.9749 0.2177 -0.0460
vn 0.9765 0.2105 -0.0460
vn 0.9623 0.2715 -0.0151
vn 0.9655 0.2600 -0.0151
vn 0.9665 0.2563 -0.0152
vn 0.9681 0.2500 -0.0152
vn 0.9665 0.2562 -0.0152
vn 0.9704 0.2410 -0.0152
vn 0.9714 0.2368 -0.0152
vn 0.8996 0.3608 -0.2461
vn 0.8954 0.3899 -0.2150
vn 0.9712 0.2257 -0.0764
vn 0.9196 0.3016 -0.2516
vn 0.8914 0.3820 -0.2438
vn 0.9006 0.3681 -0.2312
vn 0.8971 0.3674 -0.2454
vn 0.9675 0.2410 -0.0761
vn 0.9539 0.2257 -0.1975
vn 0.9506 0.2105 -0.2282
vn 0.9489 0.2186 -0.2278
vn 0.9484 0.2207 -0.2277
vn 0.9597 0.2258 -0.1675
vn 0.9123 0.3247 -0.2495
vn 0.9473 0.2257 -0.2274
vn 0.9520 0.2258 -0.2065
vn 0.9444 0.2380 -0.2267
vn 0.9437 0.2410 -0.2265
vn 0.9437 0.2411 -0.2265
vn 0.9437 0.2412 -0.2265
vn 0.9241 0.2865 -0.2528
vn 0.9218 0.2942 -0.2522
vn 0.9644 0.2258 -0.1372
vn 0.9414 0.2502 -0.2260
vn 0.9683 0.2257 -0.1069
vn 0.9664 0.2258 -0.1224
vn 0.9741 0.2257 -0.0153
vn 0.9784 0.1952 -0.0680
vn 0.9761 0.2031 -0.0767
vn 0.9773 0.2028 -0.0614
vn 0.9171 0.3099 -0.2509
vn 0.9396 0.2257 -0.2570
vn 0.9437 0.2258 -0.2419
vn 0.9441 0.2258 -0.2403
vn 0.9359 0.2714 -0.2247
vn 0.9049 0.3460 -0.2476
vn 0.9037 0.3494 -0.2472
vn 0.9746 0.2105 -0.0767
vn 0.9012 0.3912 -0.1866
vn 0.8956 0.4042 -0.1855
vn 0.9772 0.2073 -0.0461
vn 0.9337 0.2714 -0.2332
vn 0.9250 0.2834 -0.2530
vn 0.9012 0.3755 -0.2163
vn 0.8992 0.3899 -0.1983
vn 0.9663 0.2411 -0.0902
vn 0.9583 0.2757 -0.0754
vn 0.9595 0.2714 -0.0752
vn 0.9619 0.2715 -0.0309
vn 0.9765 0.2105 -0.0461
vn 0.9723 0.2210 -0.0765
vn 0.9691 0.2347 -0.0763
vn 0.9675 0.2411 -0.0761
vn 0.9577 0.2258 -0.1781
vn 0.9539 0.2258 -0.1975
vn 0.9506 0.2106 -0.2282
vn 0.9615 0.2258 -0.1563
vn 0.9597 0.2257 -0.1674
vn 0.9597 0.2257 -0.1675
vn 0.9073 0.3395 -0.2482
vn 0.8882 0.3899 -0.2430
vn 0.9455 0.2334 -0.2270
vn 0.9449 0.2362 -0.2268
vn 0.9644 0.2257 -0.1372
vn 0.9375 0.2653 -0.2251
vn 0.9680 0.2268 -0.1068
vn 0.9740 0.2258 -0.0153
vn 0.9777 0.1952 -0.0769
vn 0.9049 0.3460 -0.2475
usemtl None
s 1
f 1//1 83//2 92//3
f 91//4 9//5 10//6
f 3//7 10//6 11//8
f 3//7 12//9 4//10
f 5//11 12//9 13//12
f 5//11 14//13 6//14
f 7//15 14//13 15//16
f 7//15 16//17 8//18
f 72//19 75//20 20//21
f 9//5 21//22 10//6
f 11//8 21//22 22//23
f 11//8 23//24 12//9
f 13//12 23//24 24//25
f 13//12 25//26 14//13
f 15//16 25//26 26//27
f 15//16 27//28 16//17
f 17//29 27//28 28//30
f 17//29 29//31 18//32
f 19//33 29//31 30//34
f 20//21 75//20 78//35
f 80//36 21//22 78//35
f 22//23 31//37 32//38
f 22//23 33//39 23//24
f 24//25 33//39 34//40
f 24//25 35//41 25//26
f 26//27 35//41 36//42
f 26//27 37//43 27//28
f 28//30 37//43 38//44
f 28//30 39//45 29//31
f 30//34 39//45 40//46
f 31//37 80//36 115//47
f 31//37 115//47 165//48
f 94//49 67//50 41//51
f 34//40 41//51 42//52
f 34//40 43//53 35//41
f 36//42 43//53 44//54
f 36//42 45//55 37//43
f 38//44 45//55 46//56
f 38//44 47//57 39//45
f 40//46 47//57 48//58
f 41//51 67//50 104//59
f 159//60 97//61 49//62
f 42//52 50//63 43//53
f 44//54 50//63 51//64
f 44//54 52//65 45//55
f 46//56 52//65 53//66
f 46//56 54//67 47//57
f 172//68 79//69 54//67
f 49//62 122//70 89//71
f 49//62 102//72 50//63
f 50//63 114//73 51//64
f 51//64 114//73 153//74
f 146//75 90//76 55//77
f 53//66 56//78 54//67
f 55//77 156//79 60//80
f 55//77 61//81 56//78
f 57//82 61//81 62//83
f 62//83 105//84 142//85
f 58//86 87//87 126//88
f 60//80 132//89 95//90
f 123//91 106//92 125//93
f 61//81 171//94 64//95
f 3//7 119//96 117//96
f 120//97 9//5 91//4
f 121//98 57//82 58//86
f 129//99 6//14 7//15
f 70//100 2//101 82//102
f 54//67 56//78 130//103
f 19//33 30//34 134//104
f 137//105 113//106 112//107
f 30//34 40//46 139//108
f 107//109 4//10 5//11
f 70//100 83//2 1//1
f 112//107 145//110 144//110
f 93//111 99//112 19//33
f 151//113 150//114 148//115
f 152//116 65//117 7//15
f 154//118 40//46 48//58
f 88//119 17//29 18//32
f 157//120 111//121 48//58
f 160//122 105//84 62//83
f 103//123 77//124 59//125
f 84//126 5//11 6//14
f 164//127 68//128 69//129
f 16//17 17//29 166//130
f 168//131 96//132 4//10
f 170//133 58//86 59//125
f 73//134 173//135 72//19
f 110//136 103//123 59//125
f 81//137 98//138 8//18
f 10//6 2//101 169//139
f 2//101 1//1 169//139
f 1//1 92//3 169//139
f 169//139 91//4 10//6
f 3//7 2//101 10//6
f 3//7 11//8 12//9
f 5//11 4//10 12//9
f 5//11 13//12 14//13
f 7//15 6//14 14//13
f 7//15 15//16 16//17
f 20//21 9//5 72//19
f 9//5 108//140 73//134
f 72//19 9//5 73//134
f 9//5 20//21 21//22
f 11//8 10//6 21//22
f 11//8 22//23 23//24
f 13//12 12//9 23//24
f 13//12 24//25 25//26
f 15//16 14//13 25//26
f 15//16 26//27 27//28
f 17//29 16//17 27//28
f 17//29 28//30 29//31
f 19//33 18//32 29//31
f 31//37 21//22 80//36
f 21//22 20//21 78//35
f 22//23 21//22 31//37
f 22//23 32//38 33//39
f 24//25 23//24 33//39
f 24//25 34//40 35//41
f 26//27 25//26 35//41
f 26//27 36//42 37//43
f 28//30 27//28 37//43
f 28//30 38//44 39//45
f 30//34 29//31 39//45
f 94//49 32//38 165//48
f 32//38 31//37 165//48
f 41//51 33//39 94//49
f 33//39 32//38 94//49
f 34//40 33//39 41//51
f 34//40 42//52 43//53
f 36//42 35//41 43//53
f 36//42 44//54 45//55
f 38//44 37//43 45//55
f 38//44 46//56 47//57
f 40//46 39//45 47//57
f 49//62 42//52 159//60
f 42//52 41//51 104//59
f 159//60 42//52 104//59
f 42//52 49//62 50//63
f 44//54 43//53 50//63
f 44//54 51//64 52//65
f 46//56 45//55 52//65
f 46//56 53//66 54//67
f 79//69 48//58 47//57
f 47//57 54//67 79//69
f 54//67 76//141 172//68
f 49//62 97//61 122//70
f 49//62 89//71 102//72
f 50//63 102//72 114//73
f 71//142 52//65 153//74
f 52//65 51//64 153//74
f 55//77 53//66 146//75
f 53//66 52//65 146//75
f 52//65 71//142 146//75
f 71//142 147//143 146//75
f 53//66 55//77 56//78
f 55//77 90//76 156//79
f 156//79 116//144 60//80
f 55//77 60//80 61//81
f 57//82 56//78 61//81
f 87//87 58//86 142//85
f 58//86 57//82 142//85
f 57//82 62//83 142//85
f 110//136 59//125 58//86
f 87//87 128//88 127//145
f 126//88 110//136 58//86
f 87//87 127//145 126//88
f 60//80 116//144 132//89
f 106//92 61//81 125//93
f 61//81 60//80 95//90
f 125//93 61//81 95//90
f 125//93 124//93 123//91
f 64//95 62//83 61//81
f 61//81 106//92 171//94
f 3//7 96//132 119//96
f 119//96 118//96 117//96
f 117//96 82//102 2//101
f 2//101 3//7 117//96
f 120//97 108//140 9//5
f 58//86 66//146 121//98
f 121//98 109//147 57//82
f 7//15 65//117 129//99
f 129//99 84//126 6//14
f 70//100 1//1 2//101
f 57//82 109//147 131//148
f 130//103 76//141 54//67
f 57//82 131//148 56//78
f 131//148 130//103 56//78
f 30//34 63//149 135//104
f 134//104 133//150 19//33
f 133//150 93//111 19//33
f 30//34 135//104 134//104
f 137//105 136//151 113//106
f 40//46 85//152 141//153
f 141//153 140//154 40//46
f 140//154 139//108 40//46
f 139//108 138//108 30//34
f 138//108 63//149 30//34
f 107//109 74//155 4//10
f 70//100 143//156 83//2
f 112//107 113//106 145//110
f 145//110 69//129 68//128
f 144//110 101//157 100//158
f 145//110 68//128 144//110
f 100//158 112//107 144//110
f 100//158 101//157 150//114
f 101//157 149//114 150//114
f 148//115 88//119 18//32
f 149//114 148//115 150//114
f 148//115 18//32 151//113
f 18//32 19//33 151//113
f 19//33 99//112 151//113
f 8//18 98//138 7//15
f 98//138 152//116 7//15
f 48//58 111//121 155//159
f 154//118 85//152 40//46
f 48//58 155//159 154//118
f 88//119 86//160 17//29
f 48//58 79//69 158//161
f 158//161 157//120 48//58
f 62//83 64//95 161//162
f 161//162 160//122 62//83
f 103//123 162//163 77//124
f 84//126 107//109 5//11
f 164//127 163//127 68//128
f 17//29 86//160 166//130
f 166//130 81//137 8//18
f 8//18 16//17 166//130
f 4//10 74//155 168//131
f 168//131 167//164 96//132
f 96//132 3//7 4//10
f 59//125 77//124 170//133
f 170//133 66//146 58//86
