# Blender v2.81 (sub 16) OBJ File: ''
# www.blender.org
mtllib Nigeria.mtl
o 0_Nigeria_sphere.001
v 4.742294 1.013934 -1.217608
v 4.762065 1.090714 -1.064442
v 4.778200 1.013934 -1.068048
v 4.793151 0.936904 -1.071390
v 4.806923 0.859643 -1.074470
v 4.819505 0.782170 -1.077281
v 4.793150 1.090714 -0.914337
v 4.809391 1.013934 -0.917434
v 4.824439 0.936904 -0.920305
v 4.838301 0.859643 -0.922950
v 4.850965 0.782170 -0.925365
v 4.862439 0.704504 -0.927555
v 4.872707 0.626664 -0.929513
v 4.819505 1.090714 -0.763329
v 4.835835 1.013934 -0.765915
v 4.850965 0.936904 -0.768312
v 4.864904 0.859643 -0.770520
v 4.877638 0.782170 -0.772536
v 4.889175 0.704504 -0.774364
v 4.899499 0.626664 -0.775999
v 4.908618 0.548669 -0.777443
v 4.841103 1.090714 -0.611568
v 4.857506 1.013934 -0.613640
v 4.872705 0.936904 -0.615560
v 4.886706 0.859643 -0.617329
v 4.899497 0.782170 -0.618944
v 4.911086 0.704504 -0.620409
v 4.921457 0.626664 -0.621719
v 4.930616 0.548669 -0.622876
v 4.938555 0.470539 -0.623879
v 4.945282 0.392293 -0.624729
v 4.840270 1.167225 -0.457534
v 4.857924 1.090714 -0.459204
v 4.874384 1.013934 -0.460759
v 4.889636 0.936904 -0.462201
v 4.903686 0.859643 -0.463530
v 4.916521 0.782170 -0.464742
v 4.928150 0.704504 -0.465842
v 4.938557 0.626664 -0.466826
v 4.947748 0.548669 -0.467694
v 4.955715 0.470539 -0.468447
v 4.915825 0.859643 -0.309272
v 4.928692 0.782170 -0.310081
v 4.940350 0.704504 -0.310815
v 4.950783 0.626664 -0.311472
v 4.959997 0.548669 -0.312051
v 4.963705 0.548669 -0.233433
v 4.943852 0.704504 -0.236546
v 4.855229 0.626664 -1.013911
v 4.869187 1.090714 -0.316089
v 4.794102 0.859643 -1.127874
v 4.741488 1.013934 -1.220558
v 4.957557 0.470539 -0.445036
v 4.824578 0.747606 -1.078415
v 4.915916 0.859643 -0.307345
v 4.749554 1.146027 -1.061645
v 4.779696 1.149810 -0.911770
v 4.906202 0.548669 -0.791285
v 4.814964 1.110551 -0.762610
v 4.945597 0.387804 -0.624769
v 4.831278 1.133441 -0.610327
v 4.954351 0.626664 -0.235808
v 4.732260 1.062045 -1.215032
v 4.888744 1.002384 -0.307568
v 4.894014 0.975836 -0.307899
v 4.886356 1.013934 -0.308636
v 4.737815 1.167225 -1.089496
v 4.729831 1.167225 -1.122752
v 4.959652 0.392293 -0.494559
v 4.960363 0.545086 -0.312074
v 4.909066 0.896721 -0.308847
v 4.915376 0.862107 -0.309244
v 4.744630 1.001806 -1.218208
v 4.931652 0.782170 -0.247311
v 4.876394 0.594953 -0.930217
v 4.830747 1.167225 -0.543795
v 4.848923 1.167225 -0.347584
v 4.838675 0.704504 -1.042304
v 4.773612 0.936904 -1.152774
v 4.959881 0.422236 -0.468841
v 4.919841 0.470539 -0.755372
v 4.832701 1.197828 -0.456819
v 4.938937 0.392293 -0.669311
v 4.814768 0.782170 -1.097012
v 4.900583 0.936904 -0.323102
v 4.911498 0.520200 -0.777899
v 4.736025 1.090714 -1.172908
v 4.959811 0.426000 -0.465583
v 4.834976 0.722195 -1.047051
v 4.814875 1.109980 -0.763886
v 4.806952 1.111989 -0.806574
v 4.790063 1.148199 -0.854539
v 4.782075 1.145693 -0.903688
v 4.946621 0.389191 -0.614596
v 4.951669 0.369621 -0.581493
v 4.959173 0.371520 -0.512290
v 4.946490 0.684570 -0.237440
v 4.773710 0.936675 -1.152547
v 4.788731 0.881896 -1.132839
v 4.848239 1.169789 -0.348153
v 4.841971 1.188096 -0.369829
v 4.887054 1.010520 -0.308419
v 4.956346 0.488858 -0.436518
v 4.955333 0.546017 -0.374778
v 4.830703 1.166508 -0.545701
v 4.834587 1.134452 -0.578224
v 4.858302 0.607616 -1.010195
v 4.873758 0.578461 -0.952575
v 4.744048 1.003011 -1.219429
v 4.942609 0.384583 -0.647379
v 4.731442 1.046775 -1.230481
v 4.737109 1.031396 -1.222315
v 4.927325 0.415842 -0.736420
v 4.892884 0.982094 -0.305439
v 4.938662 0.739500 -0.234881
v 4.960474 0.545036 -0.309837
v 4.964087 0.544994 -0.233318
v 4.819984 0.757778 -1.090998
v 4.870282 1.086671 -0.313278
v 4.918794 0.477402 -0.757740
v 4.774653 1.157605 -0.927211
v 4.766522 1.152596 -0.972198
v 4.758797 1.127833 -1.037806
v 4.832203 1.198221 -0.460439
v 4.843708 0.678450 -1.035257
v 4.852227 0.643596 -1.017199
v 4.733210 1.175291 -1.100097
v 4.729377 1.171911 -1.119656
v 4.878675 0.614067 -0.903991
v 4.884490 0.612589 -0.871688
v 4.899278 0.561883 -0.821862
v 4.903683 0.561141 -0.797134
v 4.829806 1.133036 -0.621339
v 4.819355 1.153835 -0.660564
v 4.929534 0.793919 -0.250717
v 4.923895 0.820338 -0.276992
v 4.736794 1.078840 -1.180653
v 4.732702 1.080745 -1.195944
v 4.799149 0.837230 -1.122828
v 4.806521 0.818070 -1.105775
v 4.860514 1.120927 -0.337051
v 4.912565 0.873634 -0.318130
v 4.901444 0.931266 -0.325288
vn 0.9495 0.2155 -0.2279
vn 0.9524 0.2181 -0.2129
vn 0.9556 0.2028 -0.2136
vn 0.9586 0.2181 -0.1828
vn 0.9539 0.2257 -0.1975
vn 0.9619 0.2028 -0.1835
vn 0.9586 0.1874 -0.2143
vn 0.9649 0.1874 -0.1841
vn 0.9677 0.1719 -0.1846
vn 0.9614 0.1719 -0.2149
vn 0.9639 0.1564 -0.2154
vn 0.9702 0.1564 -0.1851
vn 0.9597 0.2257 -0.1675
vn 0.9639 0.2181 -0.1527
vn 0.9672 0.2028 -0.1532
vn 0.9702 0.1874 -0.1537
vn 0.9730 0.1719 -0.1541
vn 0.9755 0.1564 -0.1545
vn 0.9778 0.1409 -0.1549
vn 0.9725 0.1409 -0.1855
vn 0.9799 0.1253 -0.1552
vn 0.9745 0.1253 -0.1859
vn 0.9644 0.2257 -0.1372
vn 0.9665 0.2258 -0.1217
vn 0.9682 0.2181 -0.1223
vn 0.9715 0.2028 -0.1227
vn 0.9745 0.1874 -0.1231
vn 0.9773 0.1719 -0.1234
vn 0.9799 0.1564 -0.1238
vn 0.9822 0.1409 -0.1241
vn 0.9843 0.1253 -0.1243
vn 0.9817 0.1097 -0.1555
vn 0.9861 0.1097 -0.1245
vn 0.9683 0.2257 -0.1069
vn 0.9679 0.2274 -0.1068
vn 0.9716 0.2181 -0.0918
vn 0.9749 0.2028 -0.0921
vn 0.9779 0.1874 -0.0924
vn 0.9807 0.1719 -0.0927
vn 0.9833 0.1564 -0.0929
vn 0.9856 0.1409 -0.0931
vn 0.9877 0.1253 -0.0934
vn 0.9895 0.1097 -0.0935
vn 0.9877 0.0941 -0.1248
vn 0.9911 0.0941 -0.0937
vn 0.9910 0.0863 -0.1023
vn 0.9906 0.0819 -0.1093
vn 0.9675 0.2411 -0.0761
vn 0.9675 0.2410 -0.0761
vn 0.9696 0.2322 -0.0763
vn 0.9680 0.2334 -0.0915
vn 0.9712 0.2257 -0.0764
vn 0.9763 0.2024 -0.0768
vn 0.9735 0.2152 -0.0766
vn 0.9746 0.2105 -0.0767
vn 0.9780 0.1950 -0.0734
vn 0.9789 0.1891 -0.0770
vn 0.9807 0.1797 -0.0772
vn 0.9812 0.1793 -0.0707
vn 0.9832 0.1717 -0.0619
vn 0.9857 0.1564 -0.0620
vn 0.9881 0.1409 -0.0621
vn 0.9901 0.1253 -0.0623
vn 0.9920 0.1097 -0.0624
vn 0.9917 0.1016 -0.0780
vn 0.9917 0.1019 -0.0780
vn 0.9846 0.1682 -0.0465
vn 0.9853 0.1641 -0.0464
vn 0.9868 0.1550 -0.0465
vn 0.9878 0.1487 -0.0466
vn 0.9889 0.1411 -0.0466
vn 0.9900 0.1331 -0.0467
vn 0.9910 0.1251 -0.0467
vn 0.9929 0.1094 -0.0468
vn 0.9932 0.0863 -0.0782
vn 0.9923 0.0962 -0.0781
vn 0.9683 0.1487 -0.2005
vn 0.9915 0.0705 -0.1094
vn 0.9894 0.0706 -0.1263
vn 0.9890 0.0785 -0.1249
vn 0.9466 0.2288 -0.2272
vn 0.9493 0.2257 -0.2185
vn 0.9565 0.1797 -0.2296
vn 0.9561 0.1819 -0.2296
vn 0.9724 0.1175 -0.2014
vn 0.9713 0.1264 -0.2011
vn 0.9460 0.1950 -0.2587
vn 0.9485 0.2028 -0.2435
vn 0.9518 0.1950 -0.2368
vn 0.9842 0.1019 -0.1446
vn 0.9789 0.1119 -0.1708
vn 0.9875 0.0706 -0.1405
vn 0.9429 0.2105 -0.2580
vn 0.9488 0.2105 -0.2355
vn 0.9863 0.0863 -0.1404
vn 0.9854 0.0958 -0.1402
vn 0.9778 0.1950 -0.0758
vn 0.9797 0.1950 -0.0461
vn 0.9937 0.1019 -0.0468
vn 0.9928 0.1018 -0.0623
vn 0.9543 0.1921 -0.2291
vn 0.9615 0.1487 -0.2308
vn 0.9665 0.1487 -0.2093
vn 0.9849 0.1019 -0.1401
vn 0.9646 0.2411 -0.1065
vn 0.9705 0.1331 -0.2010
vn 0.9461 0.2308 -0.2271
vn 0.9437 0.2410 -0.2265
vn 0.9783 0.1175 -0.1707
vn 0.9592 0.1641 -0.2303
vn 0.9506 0.2105 -0.2282
vn 0.9561 0.2258 -0.1870
vn 0.9628 0.2257 -0.1484
vn 0.9685 0.2248 -0.1070
vn 0.9661 0.2411 -0.0925
vn 0.9778 0.1950 -0.0769
vn 0.9807 0.1796 -0.0772
vn 0.9692 0.1424 -0.2007
vn 0.9915 0.0706 -0.1094
vn 0.9577 0.1732 -0.2299
vn 0.9743 0.1175 -0.1922
vn 0.9444 0.2035 -0.2583
vn 0.9864 0.0846 -0.1404
vn 0.9429 0.2105 -0.2579
vn 0.9937 0.1017 -0.0468
vn 0.9602 0.1578 -0.2305
vn 0.9437 0.2411 -0.2265
usemtl None
s 1
f 87//1 2//2 3//3
f 7//4 2//2 123//5
f 3//3 7//4 8//6
f 4//7 8//6 9//8
f 4//7 10//9 5//10
f 6//11 10//9 11//12
f 7//4 91//13 14//14
f 8//6 14//14 15//15
f 8//6 16//16 9//8
f 9//8 17//17 10//9
f 11//12 17//17 18//18
f 11//12 19//19 12//20
f 12//20 20//21 13//22
f 133//23 61//24 22//25
f 15//15 22//25 23//26
f 15//15 24//27 16//16
f 16//16 25//28 17//17
f 18//18 25//28 26//29
f 18//18 27//30 19//19
f 20//21 27//30 28//31
f 21//32 28//31 29//33
f 106//34 76//35 33//36
f 23//26 33//36 34//37
f 23//26 35//38 24//27
f 24//27 36//39 25//28
f 26//29 36//39 37//40
f 26//29 38//41 27//30
f 28//31 38//41 39//42
f 29//33 39//42 40//43
f 30//44 40//43 41//45
f 41//45 80//46 69//47
f 101//48 100//49 77//50
f 32//51 77//50 141//52
f 66//53 50//54 119//55
f 65//56 85//57 34//37
f 142//58 72//59 42//60
f 37//40 42//60 43//61
f 37//40 44//62 38//41
f 39//42 44//62 45//63
f 40//43 45//63 46//64
f 40//43 104//65 103//66
f 42//60 72//59 55//67
f 136//68 135//68 43//61
f 43//61 74//69 115//70
f 44//62 48//71 97//72
f 46//64 62//73 47//74
f 88//75 41//45 53//76
f 11//12 12//20 89//77
f 94//78 60//79 31//80
f 67//81 56//82 2//2
f 99//83 98//84 4//7
f 107//85 49//86 13//22
f 109//87 1//88 73//89
f 86//90 58//91 21//32
f 110//92 31//80 60//79
f 112//93 63//94 1//88
f 113//95 81//96 30//44
f 64//97 114//98 65//56
f 116//99 70//100 46//64
f 3//3 79//101 1//88
f 118//102 6//11 54//103
f 29//33 30//44 120//104
f 124//105 32//51 76//35
f 12//20 13//22 126//106
f 68//107 127//108 67//81
f 130//109 13//22 20//21
f 5//10 6//11 140//110
f 3//3 1//88 137//111
f 1//88 63//94 137//111
f 63//94 138//111 137//111
f 137//111 87//1 3//3
f 2//2 56//82 123//5
f 123//5 122//5 7//4
f 122//5 121//5 7//4
f 121//5 57//112 7//4
f 3//3 2//2 7//4
f 4//7 3//3 8//6
f 4//7 9//8 10//9
f 6//11 5//10 10//9
f 7//4 57//112 93//13
f 93//13 92//13 7//4
f 92//13 91//13 7//4
f 90//13 59//113 14//14
f 91//13 90//13 14//14
f 8//6 7//4 14//14
f 8//6 15//15 16//16
f 9//8 16//16 17//17
f 11//12 10//9 17//17
f 11//12 18//18 19//19
f 12//20 19//19 20//21
f 22//25 14//14 134//23
f 14//14 59//113 134//23
f 134//23 133//23 22//25
f 15//15 14//14 22//25
f 15//15 23//26 24//27
f 16//16 24//27 25//28
f 18//18 17//17 25//28
f 18//18 26//29 27//30
f 20//21 19//19 27//30
f 21//32 20//21 28//31
f 33//36 22//25 106//34
f 22//25 61//24 106//34
f 106//34 105//114 76//35
f 76//35 32//51 33//36
f 23//26 22//25 33//36
f 23//26 34//37 35//38
f 24//27 35//38 36//39
f 26//29 25//28 36//39
f 26//29 37//40 38//41
f 28//31 27//30 38//41
f 29//33 28//31 39//42
f 30//44 29//33 40//43
f 69//47 31//80 30//44
f 30//44 41//45 69//47
f 77//50 32//51 101//48
f 32//51 82//115 101//48
f 50//54 33//36 141//52
f 33//36 32//51 141//52
f 66//53 34//37 50//54
f 34//37 33//36 50//54
f 85//57 35//38 34//37
f 34//37 66//53 102//116
f 102//116 64//97 34//37
f 64//97 65//56 34//37
f 42//60 36//39 142//58
f 36//39 35//38 143//58
f 142//58 36//39 143//58
f 35//38 85//57 143//58
f 143//58 71//117 142//58
f 37//40 36//39 42//60
f 37//40 43//61 44//62
f 39//42 38//41 44//62
f 40//43 39//42 45//63
f 53//76 41//45 103//66
f 41//45 40//43 103//66
f 40//43 46//64 104//65
f 46//64 70//100 104//65
f 74//69 43//61 135//68
f 43//61 42//60 136//68
f 42//60 55//67 136//68
f 48//71 44//62 115//70
f 44//62 43//61 115//70
f 62//73 45//63 97//72
f 45//63 44//62 97//72
f 46//64 45//63 62//73
f 88//75 80//46 41//45
f 12//20 78//118 89//77
f 89//77 54//103 6//11
f 6//11 11//12 89//77
f 31//80 69//47 94//78
f 69//47 96//78 95//119
f 94//78 69//47 95//119
f 2//2 87//1 68//107
f 68//107 67//81 2//2
f 5//10 51//120 99//83
f 98//84 79//101 4//7
f 5//10 99//83 4//7
f 13//22 75//121 108//85
f 108//85 107//85 13//22
f 109//87 52//122 1//88
f 110//92 83//123 31//80
f 1//88 52//122 112//93
f 112//93 111//124 63//94
f 31//80 83//123 30//44
f 83//123 113//95 30//44
f 46//64 47//74 116//99
f 47//74 117//125 116//99
f 4//7 79//101 3//3
f 79//101 73//89 1//88
f 118//102 84//126 6//11
f 30//44 81//96 120//104
f 120//104 86//90 29//33
f 86//90 21//32 29//33
f 124//105 82//115 32//51
f 13//22 49//86 126//106
f 126//106 125//106 12//20
f 125//106 78//118 12//20
f 68//107 128//127 127//108
f 21//32 58//91 132//109
f 132//109 131//109 20//21
f 131//109 130//109 20//21
f 129//109 75//121 13//22
f 21//32 132//109 20//21
f 130//109 129//109 13//22
f 6//11 84//126 140//110
f 140//110 139//110 5//10
f 139//110 51//120 5//10
