# Blender v2.81 (sub 16) OBJ File: ''
# www.blender.org
mtllib North Korea.mtl
o 0_North_Korea_sphere.001
v -2.357283 3.365062 -2.849464
v -2.390685 3.306558 -2.889841
v -2.298733 3.306558 -2.963508
v -2.330283 3.247239 -3.004181
v -2.391646 3.126212 -3.083291
v -2.234770 3.247239 -3.075895
v -2.264472 3.187119 -3.116776
v -2.293617 3.126212 -3.156892
v -2.350174 3.208628 -3.029824
v -2.249233 3.126212 -3.188086
v -2.394562 3.306558 -2.886529
v -2.393886 3.247239 -2.953226
v -2.228899 3.306558 -3.015940
v -2.380248 3.149056 -3.068595
v -2.217306 3.281475 -3.051860
v -2.352394 3.373360 -2.843554
v -2.404655 3.099289 -3.100060
v -2.279883 3.064534 -3.225967
v -2.299651 3.064534 -3.212074
v -2.180194 3.247239 -3.114251
v -2.324729 3.064534 -3.194327
v -2.333780 3.064534 -3.187531
v -2.359885 3.064534 -3.167931
v -2.334528 3.365062 -2.867694
v -2.411171 3.269523 -2.914603
v -2.414719 3.126212 -3.064806
v -2.346348 3.187119 -3.055301
v -2.321623 3.065772 -3.195438
v -2.411957 3.365062 -2.802768
v -2.295714 3.312057 -2.959616
v -2.211897 3.187119 -3.153726
v -2.182626 3.251611 -3.107906
v -2.193174 3.190949 -3.162950
v -2.158672 3.209023 -3.168633
v -2.240692 3.136026 -3.184325
v -2.237584 3.172537 -3.150182
v -2.228768 3.183613 -3.145356
v -2.300307 3.073981 -3.202511
v -2.277637 3.068214 -3.224000
v -2.260210 3.074494 -3.230198
v -2.240138 3.085438 -3.233760
v -2.241916 3.115588 -3.203464
v -2.251405 3.123628 -3.189049
v -2.299385 3.061018 -3.215541
v -2.285396 3.055226 -3.230774
v -2.235562 3.333413 -2.980861
v -2.271300 3.313085 -2.976795
v -2.223965 3.287169 -3.040682
v -2.341621 3.197467 -3.047975
v -2.354559 3.168303 -3.068290
v -2.351965 3.160781 -3.077894
v -2.378898 3.149929 -3.068720
v -2.403637 3.099103 -3.101007
v -2.366633 3.095554 -3.132290
v -2.334037 3.067191 -3.184720
v -2.333436 3.060948 -3.191212
v -2.350641 3.408822 -2.801952
v -2.404794 3.370956 -2.801723
v -2.418366 3.359658 -2.803658
v -2.397421 3.363541 -2.816974
v -2.388736 3.341600 -2.850233
v -2.386588 3.319599 -2.877980
v -2.414838 3.272425 -2.908159
v -2.396414 3.257742 -2.939523
v -2.393573 3.246063 -2.954743
v -2.384412 3.226300 -2.983365
v -2.355367 3.215476 -3.018289
v -2.423895 3.120011 -3.063717
v -2.424299 3.103462 -3.080108
v -2.352398 3.373063 -2.843903
v -2.317267 3.310760 -2.943837
v -2.290349 3.345081 -2.926016
vn -0.4715 0.6730 -0.5699
vn -0.4588 0.6790 -0.5730
vn -0.4650 0.6685 -0.5804
vn -0.4781 0.6613 -0.5780
vn -0.4657 0.6671 -0.5814
vn -0.4597 0.6613 -0.5927
vn -0.4472 0.6671 -0.5957
vn -0.4516 0.6589 -0.6015
vn -0.4535 0.6554 -0.6040
vn -0.4474 0.6554 -0.6085
vn -0.4470 0.6494 -0.6152
vn -0.4529 0.6373 -0.6234
vn -0.4587 0.6252 -0.6314
vn -0.4656 0.6313 -0.6202
vn -0.4343 0.6554 -0.6179
vn -0.4387 0.6464 -0.6242
vn -0.4406 0.6424 -0.6269
vn -0.4402 0.6434 -0.6263
vn -0.4459 0.6313 -0.6345
vn -0.4516 0.6190 -0.6425
vn -0.4541 0.6135 -0.6461
vn -0.4571 0.6066 -0.6504
vn -0.4535 0.6147 -0.6453
vn -0.4596 0.6434 -0.6122
vn -0.4715 0.6190 -0.6280
vn -0.4724 0.6172 -0.6292
vn -0.4773 0.6066 -0.6357
vn -0.4735 0.6149 -0.6307
vn -0.4769 0.6787 -0.5584
vn -0.4741 0.6788 -0.5607
vn -0.4838 0.6671 -0.5664
vn -0.4837 0.6672 -0.5664
vn -0.4905 0.6554 -0.5744
vn -0.4784 0.6554 -0.5844
vn -0.4722 0.6554 -0.5895
vn -0.4786 0.6433 -0.5975
vn -0.4741 0.6519 -0.5918
vn -0.4661 0.6494 -0.6008
vn -0.4895 0.6221 -0.6110
vn -0.4706 0.6313 -0.6164
vn -0.4783 0.6252 -0.6167
vn -0.4910 0.6190 -0.6129
vn -0.4657 0.6671 -0.5813
vn -0.4562 0.6672 -0.5888
vn -0.4657 0.6313 -0.6202
vn -0.4656 0.6313 -0.6201
vn -0.4626 0.6375 -0.6161
vn -0.4481 0.6266 -0.6376
vn -0.4645 0.6191 -0.6332
vn -0.4651 0.6434 -0.6080
vn -0.4714 0.6191 -0.6280
vn -0.4801 0.6191 -0.6214
vn -0.4815 0.6709 -0.5638
vn -0.4872 0.6612 -0.5705
vn -0.4838 0.6671 -0.5665
vn -0.4837 0.6671 -0.5665
vn -0.4787 0.6434 -0.5975
vn -0.4787 0.6434 -0.5974
usemtl None
s 1
f 1//1 70//2 24//3
f 2//4 71//5 3//6
f 47//7 46//7 13//8
f 48//9 15//10 6//11
f 7//12 8//13 51//14
f 6//11 32//15 20//16
f 31//17 20//16 33//18
f 7//12 37//19 36//19
f 42//20 39//20 38//20
f 18//21 44//22 19//23
f 6//11 7//12 49//24
f 55//25 54//25 8//13
f 21//26 56//27 22//28
f 58//29 16//30 1//1
f 61//31 60//32 1//1
f 63//33 2//4 25//34
f 2//4 3//6 64//35
f 65//36 12//37 4//38
f 26//39 14//40 5//41
f 69//42 26//39 5//41
f 1//1 16//30 70//2
f 2//4 1//1 24//3
f 24//3 72//43 71//5
f 71//5 30//44 3//6
f 2//4 24//3 71//5
f 13//8 3//6 47//7
f 3//6 30//44 47//7
f 6//11 4//38 48//9
f 4//38 3//6 13//8
f 48//9 4//38 13//8
f 8//13 5//41 51//14
f 5//41 14//40 52//45
f 51//14 5//41 52//45
f 51//14 50//46 27//47
f 27//47 7//12 51//14
f 6//11 15//10 32//15
f 31//17 7//12 6//11
f 6//11 20//16 31//17
f 20//16 34//18 33//18
f 10//48 8//13 35//19
f 8//13 7//12 36//19
f 7//12 31//17 37//19
f 36//19 35//19 8//13
f 18//21 19//23 39//20
f 19//23 38//20 39//20
f 38//20 28//49 8//13
f 8//13 10//48 43//20
f 43//20 42//20 38//20
f 42//20 41//20 40//20
f 39//20 42//20 40//20
f 38//20 8//13 43//20
f 18//21 45//22 44//22
f 7//12 27//47 49//24
f 49//24 9//50 4//38
f 4//38 6//11 49//24
f 55//25 23//25 54//25
f 54//25 53//51 5//41
f 53//51 17//52 5//41
f 5//41 8//13 54//25
f 8//13 28//49 55//25
f 28//49 21//26 55//25
f 21//26 22//28 55//25
f 1//1 29//53 58//29
f 58//29 57//29 16//30
f 2//4 11//54 62//55
f 1//1 2//4 62//55
f 60//32 59//56 29//53
f 1//1 62//55 61//31
f 60//32 29//53 1//1
f 63//33 11//54 2//4
f 4//38 12//37 3//6
f 12//37 64//35 3//6
f 64//35 25//34 2//4
f 4//38 9//50 67//57
f 67//57 66//58 4//38
f 66//58 65//36 4//38
f 5//41 17//52 69//42
f 69//42 68//42 26//39
