# Blender v2.81 (sub 16) OBJ File: ''
# www.blender.org
mtllib Northern Cyprus.mtl
o 0_Northern_Cyprus_sphere.001
v 3.435609 2.875025 -2.219831
v 3.431750 2.875025 -2.225705
v 3.412629 2.875025 -2.254815
v 3.392927 2.875025 -2.284809
v 3.364519 2.906941 -2.286519
v 3.369296 2.898859 -2.289765
v 3.394011 2.871972 -2.287001
v 3.396772 2.874456 -2.279672
v 3.407443 2.868932 -2.270379
v 3.412479 2.870430 -2.260827
v 3.416023 2.867661 -2.258917
v 3.412610 2.874918 -2.254978
v 3.434178 2.873974 -2.223332
v 3.344138 2.915457 -2.304935
v 3.436304 2.878117 -2.214750
v 3.420392 2.895206 -2.216732
v 3.392837 2.894252 -2.259923
v 3.389030 2.885283 -2.277391
v 3.412851 2.879254 -2.248973
v 3.419966 2.879995 -2.237177
v 3.439295 2.877750 -2.210674
vn 0.6809 0.5799 -0.4472
vn 0.6876 0.5686 -0.4516
vn 0.6809 0.5799 -0.4473
vn 0.6877 0.5685 -0.4515
vn 0.6876 0.5684 -0.4517
vn 0.6846 0.5736 -0.4497
vn 0.6759 0.5814 -0.4529
vn 0.6656 0.5814 -0.4678
vn 0.6711 0.5814 -0.4599
vn 0.6800 0.5814 -0.4467
vn 0.6800 0.5814 -0.4466
vn 0.6819 0.5780 -0.4482
vn 0.6878 0.5675 -0.4526
vn 0.6875 0.5686 -0.4516
vn 0.6876 0.5685 -0.4516
vn 0.6800 0.5813 -0.4467
usemtl None
s 1
f 1//1 13//2 2//3
f 8//4 7//5 4//6
f 6//7 14//8 5//9
f 15//10 21//11 1//1
f 4//6 3//12 8//4
f 3//12 12//13 8//4
f 12//13 11//14 10//15
f 10//15 9//15 12//13
f 9//15 8//4 12//13
f 3//12 4//6 18//16
f 18//16 6//7 17//16
f 6//7 5//9 17//16
f 17//16 16//16 20//16
f 16//16 15//10 2//3
f 20//16 16//16 2//3
f 19//16 3//12 17//16
f 3//12 18//16 17//16
f 1//1 2//3 15//10
f 20//16 19//16 17//16
