# Blender v2.81 (sub 16) OBJ File: ''
# www.blender.org
mtllib Norway.mtl
o 0_Norway_sphere.001
v 1.484194 4.704403 -0.815938
v 1.548765 4.677220 -0.851436
v 1.509091 4.704403 -0.768915
v 1.532499 4.704403 -0.721134
v 1.599171 4.677220 -0.752508
v 1.554394 4.704403 -0.672641
v 1.622019 4.677220 -0.701906
v 1.574755 4.704403 -0.623485
v 1.643266 4.677220 -0.650610
v 1.662892 4.677220 -0.598673
v 1.680876 4.677220 -0.546145
v 1.767541 4.648882 -0.513513
v 1.837445 4.619398 -0.533822
v 1.853306 4.619398 -0.475843
v 1.923356 4.588773 -0.493829
v 1.992931 4.557016 -0.511693
v 2.008021 4.557016 -0.448841
v 2.077628 4.524135 -0.464400
v 2.350760 4.381533 -0.525452
v 2.160736 4.490138 -0.412177
v 2.229749 4.455032 -0.425342
v 2.298212 4.418828 -0.438402
v 2.366105 4.381533 -0.451353
v 2.433418 4.343157 -0.464194
v 2.500129 4.303710 -0.476919
v 2.242009 4.455032 -0.355094
v 2.310848 4.418828 -0.365997
v 2.379115 4.381533 -0.376809
v 2.446798 4.343157 -0.387529
v 2.513875 4.303710 -0.398153
v 2.252057 4.455032 -0.284496
v 2.321204 4.418828 -0.293231
v 2.389777 4.381533 -0.301894
v 2.457764 4.343157 -0.310482
v 2.525141 4.303710 -0.318994
v 2.591895 4.263200 -0.327427
v 2.329270 4.418828 -0.220176
v 2.398081 4.381533 -0.226680
v 2.466304 4.343157 -0.233129
v 2.533915 4.303710 -0.239520
v 2.341830 4.386471 -0.523456
v 1.613206 4.696702 -0.580785
v 1.523133 4.698589 -0.776070
v 1.737593 4.654148 -0.564574
v 2.288450 4.418828 -0.485537
v 1.630980 4.663620 -0.767476
v 1.558650 4.704403 -0.662366
v 2.252539 4.455032 -0.280130
v 1.571002 4.705821 -0.621999
v 1.650442 4.674234 -0.653451
v 2.351792 4.380941 -0.525682
v 1.427673 4.716709 -0.844318
v 1.449901 4.707640 -0.857464
v 2.466891 4.343157 -0.225669
v 1.853729 4.619398 -0.474079
v 2.598380 4.263200 -0.268690
v 2.188269 4.482219 -0.346583
v 2.147797 4.490138 -0.474659
v 1.563794 4.670585 -0.859698
v 2.566497 4.271633 -0.406488
v 1.538186 4.710605 -0.665628
v 1.913608 4.588773 -0.529461
v 2.620824 4.245016 -0.331081
v 2.002689 4.552372 -0.514199
v 2.098594 4.520515 -0.400323
v 1.549758 4.677220 -0.849561
v 1.446095 4.729233 -0.736817
v 1.932992 4.588773 -0.453692
v 1.751359 4.648882 -0.566113
v 2.582317 4.263200 -0.394731
v 1.762727 4.650821 -0.512115
v 2.419825 4.343157 -0.529831
v 1.653203 4.664074 -0.715400
v 1.977661 4.570770 -0.442055
v 1.850070 4.620751 -0.475012
v 1.510335 4.693398 -0.830309
v 1.540497 4.680701 -0.846890
v 1.730698 4.649339 -0.623085
v 2.220616 4.455032 -0.469443
v 2.170069 4.490138 -0.358700
v 1.836578 4.619398 -0.536639
v 2.249251 4.456446 -0.284141
v 2.011572 4.557016 -0.431693
v 1.844872 4.616122 -0.535980
v 1.579997 4.704403 -0.609611
v 2.494316 4.303710 -0.504986
v 1.991576 4.557016 -0.516647
v 2.133974 4.496410 -0.476995
v 2.504433 4.303710 -0.452258
v 2.502938 4.303710 -0.460823
v 2.329993 4.418828 -0.210986
v 2.350722 4.381533 -0.525613
v 1.482391 4.693878 -0.876678
v 1.511147 4.681553 -0.893685
v 1.768714 4.648882 -0.509223
v 2.524579 4.288724 -0.481584
v 2.316901 4.425282 -0.219006
v 1.465487 4.704403 -0.848736
v 2.069199 4.524135 -0.499508
v 1.530437 4.677220 -0.883569
v 2.090271 4.524135 -0.403351
v 1.471655 4.728018 -0.692503
v 1.648856 4.677220 -0.635817
v 1.645499 4.677220 -0.644702
v 1.437989 4.730427 -0.744861
v 1.422550 4.730427 -0.774020
v 1.590672 4.677220 -0.769857
v 1.423174 4.728858 -0.782391
v 2.399056 4.381533 -0.214290
v 2.117336 4.512215 -0.393469
v 1.668990 4.662722 -0.686419
v 1.995861 4.563317 -0.437288
v 1.547438 4.693021 -0.760761
v 2.209627 4.472657 -0.332323
v 2.538120 4.279150 -0.494605
v 1.459408 4.727088 -0.723523
v 1.421546 4.732735 -0.761135
v 2.498514 4.306664 -0.456593
v 2.433815 4.335101 -0.530667
v 2.491949 4.304990 -0.505545
v 1.783196 4.636082 -0.570085
v 1.792223 4.636166 -0.540035
v 2.343449 4.385407 -0.525157
v 1.549876 4.672654 -0.873308
v 1.495187 4.684968 -0.902016
v 1.668581 4.671054 -0.628700
v 1.678461 4.669796 -0.611752
v 1.730405 4.649093 -0.625660
v 2.514520 4.315212 -0.233610
v 2.287551 4.439418 -0.236897
v 1.737631 4.654156 -0.564377
v 1.752648 4.653990 -0.517026
v 1.467627 4.703937 -0.847534
v 1.512104 4.691292 -0.838731
v 1.429402 4.711683 -0.868879
v 1.641863 4.679307 -0.638320
v 1.853523 4.612665 -0.535296
v 2.311063 4.406294 -0.490884
v 1.629181 4.692792 -0.566831
v 1.653248 4.656691 -0.761672
v 1.649224 4.664320 -0.722673
v 1.825955 4.629522 -0.481104
v 1.572914 4.705971 -0.615732
v 2.340606 4.413396 -0.204434
v 2.623683 4.243701 -0.324391
v 2.134128 4.496411 -0.476240
v 1.568630 4.669787 -0.854971
v 2.070527 4.523548 -0.499218
v 2.093436 4.510651 -0.518833
v 2.126824 4.495666 -0.513422
v 2.598204 4.254436 -0.382821
v 2.593155 4.267083 -0.257256
v 2.211077 4.459930 -0.467169
v 1.948351 4.574359 -0.526006
v 1.607903 4.670618 -0.773467
v 1.501708 4.703258 -0.789495
v 1.478402 4.728360 -0.675195
vn 0.2915 0.9440 -0.1543
vn 0.2947 0.9435 -0.1514
vn 0.3019 0.9408 -0.1538
vn 0.3098 0.9354 -0.1703
vn 0.3010 0.9382 -0.1708
vn 0.3132 0.9351 -0.1658
vn 0.2976 0.9435 -0.1458
vn 0.2999 0.9435 -0.1408
vn 0.3066 0.9409 -0.1442
vn 0.3027 0.9435 -0.1347
vn 0.3020 0.9435 -0.1363
vn 0.3244 0.9354 -0.1404
vn 0.3199 0.9354 -0.1505
vn 0.3109 0.9409 -0.1346
vn 0.3161 0.9396 -0.1310
vn 0.3150 0.9409 -0.1247
vn 0.3287 0.9354 -0.1302
vn 0.3100 0.9435 -0.1171
vn 0.3215 0.9391 -0.1215
vn 0.3326 0.9354 -0.1197
vn 0.3277 0.9366 -0.1238
vn 0.3238 0.9382 -0.1223
vn 0.3275 0.9382 -0.1121
vn 0.3382 0.9342 -0.1132
vn 0.3536 0.9297 -0.1027
vn 0.3456 0.9326 -0.1037
vn 0.3582 0.9285 -0.0980
vn 0.3621 0.9268 -0.0990
vn 0.3626 0.9268 -0.0974
vn 0.3675 0.9238 -0.1068
vn 0.3707 0.9238 -0.0952
vn 0.3742 0.9230 -0.0898
vn 0.3847 0.9177 -0.0988
vn 0.3882 0.9168 -0.0932
vn 0.3936 0.9146 -0.0926
vn 0.4650 0.8800 -0.0963
vn 0.4597 0.8837 -0.0877
vn 0.4733 0.8762 -0.0903
vn 0.4017 0.9114 -0.0898
vn 0.3960 0.9146 -0.0819
vn 0.4053 0.9103 -0.0839
vn 0.4156 0.9048 -0.0929
vn 0.4192 0.9037 -0.0868
vn 0.4322 0.8980 -0.0824
vn 0.4264 0.9014 -0.0745
vn 0.4365 0.8964 -0.0762
vn 0.4408 0.8945 -0.0738
vn 0.4484 0.8910 -0.0710
vn 0.4622 0.8837 -0.0732
vn 0.4759 0.8762 -0.0754
vn 0.4894 0.8686 -0.0775
vn 0.4867 0.8686 -0.0928
vn 0.5028 0.8607 -0.0796
vn 0.4984 0.8625 -0.0870
vn 0.4948 0.8647 -0.0863
vn 0.4431 0.8945 -0.0587
vn 0.4505 0.8910 -0.0569
vn 0.4643 0.8837 -0.0587
vn 0.4780 0.8762 -0.0604
vn 0.4916 0.8686 -0.0621
vn 0.5051 0.8607 -0.0638
vn 0.4555 0.8888 -0.0503
vn 0.4582 0.8874 -0.0506
vn 0.4585 0.8874 -0.0479
vn 0.4659 0.8837 -0.0440
vn 0.4797 0.8762 -0.0453
vn 0.4933 0.8686 -0.0466
vn 0.5054 0.8611 -0.0549
vn 0.5127 0.8567 -0.0566
vn 0.5153 0.8551 -0.0569
vn 0.4690 0.8824 -0.0369
vn 0.4734 0.8800 -0.0373
vn 0.4936 0.8688 -0.0388
vn 0.3334 0.9326 -0.1381
vn 0.3312 0.9326 -0.1429
vn 0.3108 0.9382 -0.1523
vn 0.5101 0.8567 -0.0763
vn 0.4993 0.8620 -0.0871
vn 0.5056 0.8567 -0.1020
vn 0.5001 0.8607 -0.0954
vn 0.3757 0.9208 -0.1046
vn 0.3642 0.9245 -0.1120
vn 0.4968 0.8617 -0.1029
vn 0.4783 0.8725 -0.0998
vn 0.4678 0.8765 -0.1134
vn 0.4702 0.8762 -0.1056
vn 0.2904 0.9445 -0.1538
vn 0.2797 0.9486 -0.1481
vn 0.4918 0.8647 -0.1018
vn 0.3588 0.9268 -0.1104
vn 0.3511 0.9301 -0.1080
vn 0.4618 0.8801 -0.1102
vn 0.3134 0.9326 -0.1788
vn 0.3167 0.9326 -0.1727
vn 0.2989 0.9382 -0.1744
vn 0.2951 0.9382 -0.1809
vn 0.2997 0.9382 -0.1731
vn 0.3375 0.9326 -0.1275
vn 0.3278 0.9366 -0.1238
vn 0.3342 0.9326 -0.1359
vn 0.5007 0.8647 -0.0394
vn 0.3448 0.9326 -0.1067
vn 0.3449 0.9326 -0.1061
vn 0.3429 0.9326 -0.1128
vn 0.3007 0.9382 -0.1715
vn 0.3031 0.9371 -0.1729
vn 0.3081 0.9435 -0.1216
vn 0.2861 0.9435 -0.1671
vn 0.2825 0.9435 -0.1732
vn 0.2863 0.9435 -0.1668
vn 0.3761 0.9208 -0.1029
vn 0.3289 0.9326 -0.1485
vn 0.2913 0.9435 -0.1578
vn 0.2969 0.9408 -0.1632
vn 0.5260 0.8485 -0.0580
vn 0.5184 0.8526 -0.0655
vn 0.4447 0.8909 -0.0921
vn 0.4584 0.8837 -0.0949
vn 0.4067 0.9081 -0.0995
vn 0.3950 0.9123 -0.1081
vn 0.3986 0.9114 -0.1023
vn 0.4239 0.9014 -0.0875
vn 0.4243 0.9014 -0.0857
vn 0.4209 0.9015 -0.1010
vn 0.4122 0.9057 -0.0989
vn 0.5239 0.8485 -0.0746
vn 0.5252 0.8485 -0.0646
vn 0.4377 0.8945 -0.0906
vn 0.4460 0.8910 -0.0851
vn 0.3900 0.9146 -0.1067
vn 0.3240 0.9326 -0.1587
vn 0.3279 0.9326 -0.1506
vn 0.3059 0.9382 -0.1619
vn 0.3250 0.9382 -0.1190
vn 0.4645 0.8800 -0.0986
vn 0.4425 0.8945 -0.0630
vn 0.4800 0.8765 -0.0378
vn 0.3165 0.9358 -0.1550
vn 0.3093 0.9382 -0.1554
vn 0.5051 0.8567 -0.1046
vn 0.4919 0.8647 -0.1018
vn 0.4847 0.8689 -0.1003
vn 0.3392 0.9326 -0.1231
vn 0.3375 0.9326 -0.1276
vn 0.3376 0.9326 -0.1276
vn 0.3006 0.9382 -0.1715
vn 0.2901 0.9425 -0.1655
vn 0.3020 0.9382 -0.1690
vn 0.3816 0.9184 -0.1044
vn 0.5144 0.8544 -0.0732
vn 0.4295 0.8986 -0.0889
vn 0.4225 0.9015 -0.0941
vn 0.3189 0.9326 -0.1687
vn 0.4209 0.9014 -0.1010
usemtl None
s 1
f 105//1 67//2 3//3
f 2//4 77//5 66//6
f 116//7 102//8 4//9
f 61//10 4//9 157//11
f 4//9 7//12 5//13
f 6//14 61//10 47//15
f 47//15 8//16 9//17
f 8//16 143//18 85//19
f 10//20 103//21 136//22
f 10//20 139//23 11//24
f 12//25 71//26 95//27
f 142//28 75//29 13//30
f 14//31 75//29 55//32
f 15//33 55//32 68//34
f 15//33 68//34 74//35
f 138//36 22//37 23//38
f 17//39 112//40 83//41
f 18//42 83//41 101//43
f 20//44 110//45 80//46
f 20//44 80//46 57//47
f 22//37 26//48 27//49
f 23//38 27//49 28//50
f 23//38 29//51 24//52
f 30//53 89//54 118//55
f 82//56 31//57 26//48
f 27//49 31//57 32//58
f 28//50 32//58 33//59
f 29//51 33//59 34//60
f 30//53 34//60 35//61
f 31//57 82//56 48//62
f 130//63 97//64 32//58
f 33//59 37//65 38//66
f 33//59 39//67 34//60
f 35//61 39//67 40//68
f 35//61 152//69 56//70
f 37//65 97//64 91//71
f 37//65 91//71 144//72
f 38//66 54//73 39//67
f 111//74 73//75 7//12
f 113//76 3//3 4//9
f 60//77 89//54 30//53
f 90//78 96//79 25//80
f 84//81 81//82 13//30
f 96//79 86//83 25//80
f 51//84 92//85 19//86
f 106//87 117//88 105//1
f 24//52 25//80 120//89
f 122//90 69//91 12//25
f 123//92 19//86 92//85
f 124//93 2//4 59//94
f 94//95 125//96 93//97
f 126//98 103//21 10//20
f 104//99 50//100 9//17
f 129//101 39//67 54//73
f 51//84 19//86 23//38
f 131//102 11//24 132//103
f 44//104 10//20 11//24
f 134//105 77//5 100//106
f 49//107 8//16 47//15
f 53//108 135//109 52//110
f 13//30 14//31 137//111
f 60//77 30//53 35//61
f 5//13 7//12 141//112
f 52//110 108//113 1//114
f 145//115 36//116 56//70
f 79//117 22//37 45//118
f 64//119 87//120 16//121
f 146//122 18//42 65//123
f 66//6 59//94 2//4
f 148//124 99//125 18//42
f 151//126 36//116 63//127
f 153//128 20//44 21//129
f 154//130 15//33 16//121
f 155//131 5//13 46//132
f 156//133 1//114 3//3
f 64//119 16//121 17//39
f 3//3 1//114 105//1
f 1//114 108//113 105//1
f 108//113 106//87 105//1
f 4//9 3//3 116//7
f 3//3 67//2 116//7
f 6//14 4//9 61//10
f 4//9 102//8 157//11
f 4//9 6//14 7//12
f 9//17 7//12 47//15
f 7//12 6//14 47//15
f 8//16 49//107 143//18
f 104//99 9//17 136//22
f 9//17 8//16 136//22
f 8//16 85//19 136//22
f 85//19 42//134 136//22
f 42//134 10//20 136//22
f 10//20 42//134 139//23
f 14//31 13//30 75//29
f 13//30 12//25 95//27
f 142//28 13//30 95//27
f 15//33 14//31 55//32
f 17//39 16//121 74//35
f 16//121 15//33 74//35
f 23//38 19//86 41//135
f 138//36 45//118 22//37
f 23//38 41//135 138//36
f 17//39 74//35 112//40
f 18//42 17//39 83//41
f 20//44 65//123 110//45
f 26//48 21//129 57//47
f 21//129 20//44 57//47
f 22//37 21//129 26//48
f 23//38 22//37 27//49
f 23//38 28//50 29//51
f 90//78 25//80 118//55
f 25//80 24//52 118//55
f 24//52 29//51 118//55
f 29//51 30//53 118//55
f 26//48 57//47 114//136
f 114//136 82//56 26//48
f 27//49 26//48 31//57
f 28//50 27//49 32//58
f 29//51 28//50 33//59
f 30//53 29//51 34//60
f 37//65 32//58 97//64
f 32//58 31//57 48//62
f 130//63 32//58 48//62
f 33//59 32//58 37//65
f 33//59 38//66 39//67
f 35//61 34//60 39//67
f 56//70 36//116 35//61
f 35//61 40//68 152//69
f 109//137 38//66 144//72
f 38//66 37//65 144//72
f 38//66 109//137 54//73
f 9//17 50//100 7//12
f 50//100 111//74 7//12
f 5//13 107//138 113//76
f 113//76 43//139 3//3
f 4//9 5//13 113//76
f 96//79 115//140 86//83
f 25//80 86//83 120//89
f 120//89 119//141 24//52
f 119//141 72//142 24//52
f 13//30 81//82 122//90
f 122//90 121//90 69//91
f 12//25 13//30 122//90
f 123//92 41//135 19//86
f 124//93 100//106 2//4
f 10//20 78//143 127//144
f 78//143 128//145 127//144
f 127//144 126//98 10//20
f 129//101 40//68 39//67
f 24//52 72//142 23//38
f 72//142 51//84 23//38
f 12//25 69//91 132//103
f 69//91 131//102 132//103
f 131//102 44//104 11//24
f 132//103 71//26 12//25
f 44//104 78//143 10//20
f 2//4 100//106 77//5
f 100//106 94//95 134//105
f 94//95 93//97 134//105
f 93//97 133//146 134//105
f 133//146 98//147 1//114
f 1//114 76//148 133//146
f 76//148 134//105 133//146
f 15//33 62//149 14//31
f 62//149 137//111 14//31
f 137//111 84//81 13//30
f 36//116 70//150 35//61
f 70//150 60//77 35//61
f 7//12 73//75 141//112
f 141//112 140//112 46//132
f 46//132 5//13 141//112
f 1//114 98//147 52//110
f 98//147 53//108 52//110
f 145//115 63//127 36//116
f 79//117 21//129 22//37
f 20//44 58//151 146//122
f 146//122 88//152 18//42
f 18//42 101//43 65//123
f 65//123 20//44 146//122
f 66//6 147//153 59//94
f 18//42 88//152 149//154
f 88//152 150//154 149//154
f 149//154 148//124 18//42
f 151//126 70//150 36//116
f 21//129 79//117 153//128
f 153//128 58//151 20//44
f 16//121 87//120 154//130
f 154//130 62//149 15//33
f 155//131 107//138 5//13
f 3//3 43//139 156//133
f 156//133 76//148 1//114
f 18//42 99//125 17//39
f 99//125 64//119 17//39
o 1_Norway_sphere.001
v 0.942739 4.896114 -0.373251
v 0.949211 4.891736 -0.410755
v 0.984043 4.883565 -0.425828
v 0.944797 4.896114 -0.367804
v 0.932914 4.896114 -0.396970
v 1.001077 4.882606 -0.396349
v 0.940083 4.896682 -0.372200
v 0.955560 4.887899 -0.439999
v 1.004214 4.880382 -0.415763
v 0.948648 4.892059 -0.408192
v 0.921906 4.898734 -0.389132
v 0.998021 4.884645 -0.377638
v 0.972912 4.889401 -0.381599
v 0.951388 4.895256 -0.361628
vn 0.1886 0.9792 -0.0747
vn 0.1811 0.9808 -0.0726
vn 0.1948 0.9781 -0.0736
vn 0.1937 0.9776 -0.0822
vn 0.1918 0.9776 -0.0866
vn 0.1945 0.9776 -0.0805
vn 0.1884 0.9790 -0.0780
vn 0.1969 0.9776 -0.0746
vn 0.1953 0.9776 -0.0786
vn 0.1802 0.9808 -0.0746
vn 0.1969 0.9776 -0.0744
usemtl None
s 1
f 158//155 164//156 161//157
f 160//158 165//159 159//158
f 167//160 162//161 158//155
f 162//161 164//156 158//155
f 170//162 163//163 158//155
f 158//155 163//163 167//160
f 163//163 166//160 160//158
f 167//160 163//163 160//158
f 160//158 159//158 167//160
f 162//161 168//164 164//156
f 158//155 161//157 170//162
f 161//157 171//165 170//162
f 170//162 169//165 163//163
o 2_Norway_sphere.001
v 0.881522 4.911436 -0.317362
v 0.891055 4.911436 -0.289516
v 0.964315 4.896114 -0.313320
v 0.899710 4.911436 -0.261385
v 0.973681 4.896114 -0.282875
v 1.047412 4.879584 -0.304296
v 0.907476 4.911436 -0.232995
v 0.982086 4.896114 -0.252151
v 1.056453 4.879584 -0.271246
v 0.914347 4.911436 -0.204375
v 0.989522 4.896114 -0.221179
v 0.867929 4.914074 -0.312468
v 0.852405 4.923028 -0.190530
v 0.868562 4.918774 -0.223003
v 0.989630 4.896114 -0.220659
v 0.877315 4.911436 -0.328496
v 1.098006 4.867372 -0.318995
v 0.990623 4.895871 -0.221425
v 0.877991 4.919305 -0.167480
v 0.911119 4.913146 -0.173800
v 1.024269 4.886737 -0.262982
v 1.037243 4.883854 -0.266313
v 1.040403 4.879584 -0.327077
v 1.072319 4.875787 -0.275319
v 0.844190 4.920436 -0.274289
v 1.010865 4.885576 -0.328444
v 0.831035 4.924497 -0.241433
v 0.959602 4.896114 -0.327086
v 0.922703 4.902730 -0.332188
v 1.059055 4.879584 -0.260409
v 0.919958 4.911436 -0.177283
v 0.890862 4.907282 -0.351710
v 1.061018 4.879170 -0.259875
v 1.010098 4.891042 -0.236368
v 0.826143 4.924760 -0.252437
v 0.946739 4.905793 -0.187840
v 0.865064 4.918855 -0.234106
v 0.835212 4.924217 -0.231980
v 1.027444 4.885738 -0.268961
v 1.100384 4.867163 -0.313727
v 0.883184 4.918518 -0.162801
v 1.020336 4.883936 -0.323558
v 1.090369 4.867917 -0.335821
v 0.844513 4.924127 -0.197622
v 0.871766 4.918639 -0.212812
v 0.848856 4.919295 -0.279943
v 0.937274 4.900565 -0.323232
v 0.999992 4.887401 -0.334044
vn 0.1696 0.9837 -0.0594
vn 0.1700 0.9837 -0.0583
vn 0.1783 0.9823 -0.0579
vn 0.1714 0.9837 -0.0538
vn 0.1725 0.9837 -0.0503
vn 0.1800 0.9823 -0.0523
vn 0.1929 0.9792 -0.0627
vn 0.1948 0.9792 -0.0566
vn 0.1733 0.9837 -0.0474
vn 0.1740 0.9837 -0.0447
vn 0.1816 0.9823 -0.0466
vn 0.1965 0.9792 -0.0504
vn 0.2035 0.9776 -0.0538
vn 0.2030 0.9776 -0.0555
vn 0.2113 0.9759 -0.0542
vn 0.2033 0.9776 -0.0545
vn 0.2144 0.9754 -0.0514
vn 0.1747 0.9837 -0.0419
vn 0.1751 0.9837 -0.0403
vn 0.1829 0.9823 -0.0409
vn 0.1979 0.9792 -0.0442
vn 0.1760 0.9837 -0.0361
vn 0.1762 0.9837 -0.0349
vn 0.1827 0.9824 -0.0378
vn 0.1910 0.9808 -0.0395
vn 0.1784 0.9816 -0.0674
vn 0.1764 0.9823 -0.0635
vn 0.1825 0.9808 -0.0689
vn 0.1840 0.9808 -0.0648
vn 0.2195 0.9742 -0.0526
vn 0.2047 0.9776 -0.0491
vn 0.1964 0.9796 -0.0406
vn 0.2048 0.9776 -0.0482
vn 0.2178 0.9742 -0.0596
vn 0.2169 0.9742 -0.0627
vn 0.2095 0.9759 -0.0609
vn 0.1770 0.9837 -0.0310
vn 0.2012 0.9776 -0.0619
vn 0.2158 0.9742 -0.0664
vn 0.1846 0.9808 -0.0632
vn 0.1991 0.9776 -0.0682
vn 0.2007 0.9776 -0.0634
vn 0.1717 0.9837 -0.0528
vn 0.1733 0.9837 -0.0473
vn 0.2182 0.9742 -0.0581
vn 0.2079 0.9760 -0.0639
vn 0.1911 0.9794 -0.0654
usemtl None
s 1
f 183//166 217//167 173//168
f 196//169 198//170 175//171
f 174//172 175//171 176//173
f 208//174 185//175 178//176
f 176//173 178//176 179//177
f 176//173 192//178 210//179
f 180//180 193//181 201//182
f 216//183 184//184 181//185
f 179//177 181//185 182//186
f 191//187 181//185 190//188
f 181//185 202//189 207//190
f 187//191 183//166 172//192
f 203//193 172//192 200//194
f 204//195 180//180 201//182
f 205//196 192//178 179//177
f 186//197 189//198 182//186
f 211//199 188//200 177//201
f 190//188 212//202 191//187
f 176//173 177//201 213//203
f 214//204 177//201 188//200
f 173//168 174//172 218//205
f 219//206 174//172 197//207
f 173//168 172//192 183//166
f 217//167 196//169 173//168
f 175//171 173//168 196//169
f 196//169 206//208 198//170
f 174//172 173//168 175//171
f 178//176 175//171 208//174
f 175//171 198//170 208//174
f 198//170 209//209 208//174
f 176//173 175//171 178//176
f 180//180 177//201 193//181
f 177//201 176//173 210//179
f 176//173 179//177 192//178
f 210//179 193//181 177//201
f 181//185 178//176 216//183
f 178//176 185//175 216//183
f 216//183 215//183 184//184
f 179//177 178//176 181//185
f 202//189 181//185 191//187
f 181//185 184//184 190//188
f 186//197 182//186 207//190
f 182//186 181//185 207//190
f 203//193 187//191 172//192
f 204//195 195//210 180//180
f 182//186 189//198 179//177
f 189//198 205//196 179//177
f 180//180 195//210 177//201
f 195//210 211//199 177//201
f 177//201 194//211 213//203
f 213//203 197//207 176//173
f 197//207 174//172 176//173
f 214//204 194//211 177//201
f 174//172 199//212 218//205
f 218//205 200//194 173//168
f 200//194 172//192 173//168
f 219//206 199//212 174//172
o 3_Norway_sphere.001
v 0.765954 4.925547 -0.390268
v 0.777835 4.925547 -0.366016
v 0.788948 4.925547 -0.341403
v 0.799283 4.925547 -0.316453
v 0.808828 4.925547 -0.291191
v 0.817576 4.925547 -0.265641
v 0.842766 4.914837 -0.364692
v 0.829516 4.921531 -0.298639
v 0.763471 4.926011 -0.389003
v 0.780156 4.922636 -0.397504
v 0.794675 4.929554 -0.258200
v 0.820883 4.924911 -0.266716
v 0.751881 4.930321 -0.353803
v 0.774451 4.929992 -0.306621
v 0.818003 4.925547 -0.264253
v 0.825137 4.915999 -0.388275
v 0.848394 4.915900 -0.335897
v 0.748489 4.932884 -0.323895
v 0.764736 4.925547 -0.392567
v 0.772991 4.931886 -0.278289
v 0.765247 4.932671 -0.285447
v 0.850398 4.917179 -0.310785
v 0.829125 4.921504 -0.300093
v 0.766472 4.924851 -0.397428
v 0.776975 4.929231 -0.312468
v 0.747601 4.933518 -0.316090
v 0.846469 4.914559 -0.359728
v 0.802461 4.928669 -0.250980
v 0.834948 4.921768 -0.278761
v 0.752348 4.929943 -0.358008
v 0.818081 4.916401 -0.397676
vn 0.1475 0.9864 -0.0722
vn 0.1489 0.9864 -0.0690
vn 0.1556 0.9851 -0.0732
vn 0.1578 0.9851 -0.0683
vn 0.1517 0.9864 -0.0628
vn 0.1531 0.9864 -0.0592
vn 0.1599 0.9851 -0.0633
vn 0.1542 0.9864 -0.0563
vn 0.1618 0.9851 -0.0582
vn 0.1559 0.9864 -0.0515
vn 0.1636 0.9851 -0.0531
vn 0.1569 0.9864 -0.0482
vn 0.1624 0.9854 -0.0499
vn 0.1681 0.9837 -0.0637
vn 0.1627 0.9837 -0.0761
vn 0.1650 0.9837 -0.0710
vn 0.1551 0.9845 -0.0821
vn 0.1469 0.9864 -0.0732
vn 0.1533 0.9851 -0.0780
vn 0.1588 0.9837 -0.0841
vn 0.1610 0.9837 -0.0798
vn 0.1668 0.9837 -0.0666
vn 0.1702 0.9837 -0.0575
vn 0.1700 0.9837 -0.0582
vn 0.1690 0.9837 -0.0613
vn 0.1510 0.9864 -0.0644
vn 0.1517 0.9864 -0.0627
vn 0.1536 0.9864 -0.0580
vn 0.1681 0.9837 -0.0635
vn 0.1660 0.9837 -0.0688
vn 0.1614 0.9837 -0.0790
usemtl None
s 1
f 249//213 232//214 221//215
f 232//214 222//216 221//215
f 244//217 233//218 223//219
f 233//218 239//220 224//221
f 224//221 230//222 225//223
f 225//223 247//224 234//225
f 223//219 224//221 242//226
f 235//227 222//216 226//228
f 238//229 228//230 220//231
f 243//232 220//231 229//233
f 222//216 236//234 226//228
f 234//225 231//235 225//223
f 248//236 227//237 224//221
f 229//233 220//231 221//215
f 221//215 220//231 228//230
f 228//230 249//213 221//215
f 232//214 237//238 222//216
f 223//219 222//216 244//217
f 222//216 237//238 244//217
f 237//238 245//239 244//217
f 224//221 223//219 233//218
f 233//218 240//240 239//220
f 224//221 239//220 230//222
f 225//223 230//222 247//224
f 224//221 227//237 242//226
f 242//226 241//241 236//234
f 236//234 223//219 242//226
f 235//227 221//215 222//216
f 243//232 238//229 220//231
f 223//219 236//234 222//216
f 236//234 246//242 226//228
f 225//223 231//235 224//221
f 231//235 248//236 224//221
f 221//215 235//227 250//243
f 250//243 229//233 221//215
