# Blender v2.81 (sub 16) OBJ File: ''
# www.blender.org
mtllib Oman.mtl
o 0_Oman_sphere.001
v 2.351467 1.913415 -3.976108
v 2.458789 1.985738 -3.874428
v 2.475199 1.913415 -3.900285
v 2.490998 1.840621 -3.925179
v 2.506182 1.767372 -3.949106
v 2.520747 1.693688 -3.972057
v 2.579275 1.985738 -3.795284
v 2.596489 1.913415 -3.820612
v 2.613061 1.840621 -3.844997
v 2.628990 1.767372 -3.868436
v 2.644269 1.693688 -3.890918
v 2.658896 1.619585 -3.912441
v 2.672868 1.545083 -3.933000
v 2.780477 1.619585 -3.826992
v 2.795088 1.545083 -3.847102
v 2.809007 1.470200 -3.866260
v 2.899314 1.619585 -3.737767
v 2.811583 1.455549 -3.869805
v 2.629873 1.545083 -3.961242
v 2.626693 1.913415 -3.799384
v 2.533987 1.623330 -3.992918
v 2.434033 1.767372 -3.993319
v 2.514714 1.693688 -3.975754
v 2.896240 1.545083 -3.771155
v 2.739061 1.693688 -3.824298
v 2.450389 2.021200 -3.861191
v 2.896327 1.633461 -3.733917
v 2.566336 2.037808 -3.776244
v 2.560921 2.057570 -3.769349
v 2.494577 2.057570 -3.812929
v 2.767324 1.683306 -3.808889
v 2.737042 1.470200 -3.916838
v 2.347615 1.931286 -3.969595
v 2.368059 1.840621 -4.000515
v 2.630844 1.840621 -3.832500
v 2.904689 1.593299 -3.744697
v 2.674603 1.535320 -3.935554
v 2.565262 1.619585 -3.973948
v 2.365800 1.843897 -4.000344
v 2.602974 1.985738 -3.778627
v 2.372805 1.985738 -3.927119
v 2.882504 1.470200 -3.811077
v 2.909145 1.619585 -3.729891
v 2.666923 1.767372 -3.841776
v 2.322901 1.913415 -3.992402
v 2.517169 1.688395 -3.976429
v 2.518856 1.633319 -3.998077
v 2.527381 1.623219 -3.997012
v 2.886328 1.490809 -3.800057
v 2.614581 1.872943 -3.827930
v 2.757247 1.457526 -3.907271
v 2.793534 1.465498 -3.878854
v 2.641180 1.534619 -3.957774
v 2.357999 1.952922 -3.952488
v 2.448668 1.745001 -3.994028
v 2.479473 1.749338 -3.973275
v 2.497789 1.729887 -3.970465
v 2.910446 1.627746 -3.725176
v 2.345195 1.926282 -3.973414
v 2.322361 1.915986 -3.991457
v 2.631531 1.930006 -3.787398
v 2.622025 1.962359 -3.777337
v 2.694616 1.709892 -3.848228
v 2.684037 1.535376 -3.928902
v 2.714433 1.514301 -3.915684
v 2.720172 1.480701 -3.924637
v 2.552756 2.043994 -3.781893
v 2.561800 2.055131 -3.770062
v 2.493126 2.052741 -3.816436
v 2.462897 2.023887 -3.851553
v 2.608049 1.592411 -3.956687
v 2.622223 1.552100 -3.963467
v 2.415694 2.013363 -3.886515
v 2.378676 1.998794 -3.916752
v 2.377281 1.827058 -4.001018
v 2.411715 1.800937 -3.991767
v 2.843526 1.437261 -3.852661
v 2.875281 1.432462 -3.830613
v 2.594799 1.995629 -3.779029
v 2.586441 2.028266 -3.767269
v 2.542973 2.106761 -3.754010
v 2.509204 2.106941 -3.776092
v 2.559184 1.623414 -3.976331
v 2.326169 1.897963 -3.997742
v 2.361607 1.849879 -3.999946
vn 0.4802 0.3942 -0.7836
vn 0.4917 0.3971 -0.7749
vn 0.4950 0.3826 -0.7801
vn 0.5022 0.4043 -0.7644
vn 0.5021 0.4043 -0.7644
vn 0.5159 0.3971 -0.7591
vn 0.5193 0.3826 -0.7641
vn 0.5226 0.3681 -0.7690
vn 0.4982 0.3681 -0.7850
vn 0.5258 0.3534 -0.7737
vn 0.5012 0.3534 -0.7898
vn 0.5041 0.3387 -0.7944
vn 0.5289 0.3387 -0.7782
vn 0.5259 0.4043 -0.7483
vn 0.5284 0.3945 -0.7518
vn 0.5295 0.3899 -0.7534
vn 0.5329 0.3753 -0.7583
vn 0.5349 0.3667 -0.7611
vn 0.5382 0.3520 -0.7658
vn 0.5394 0.3460 -0.7676
vn 0.5422 0.3328 -0.7715
vn 0.5520 0.3313 -0.7652
vn 0.5561 0.3239 -0.7654
vn 0.5318 0.3239 -0.7825
vn 0.5590 0.3090 -0.7694
vn 0.5346 0.3090 -0.7866
vn 0.5757 0.3313 -0.7475
vn 0.5799 0.3239 -0.7476
vn 0.5728 0.3164 -0.7561
vn 0.5706 0.3110 -0.7600
vn 0.5725 0.3015 -0.7625
vn 0.5911 0.3259 -0.7378
vn 0.4930 0.3312 -0.8045
vn 0.4913 0.3401 -0.8018
vn 0.4804 0.3754 -0.7926
vn 0.4703 0.3826 -0.7952
vn 0.5509 0.2865 -0.7838
vn 0.5487 0.2989 -0.7807
vn 0.5618 0.2940 -0.7732
vn 0.5235 0.3015 -0.7969
vn 0.5358 0.3015 -0.7886
vn 0.4902 0.3460 -0.8000
vn 0.4562 0.3899 -0.7999
vn 0.4562 0.3898 -0.7999
vn 0.5482 0.3015 -0.7801
vn 0.5208 0.3164 -0.7928
vn 0.4779 0.4043 -0.7798
vn 0.4915 0.4043 -0.7713
vn 0.4853 0.3703 -0.7920
vn 0.4873 0.3608 -0.7952
vn 0.5752 0.2865 -0.7661
vn 0.5669 0.2865 -0.7723
vn 0.4986 0.4186 -0.7590
vn 0.5005 0.4109 -0.7620
vn 0.5010 0.4090 -0.7627
vn 0.5179 0.3313 -0.7886
vn 0.5055 0.3313 -0.7967
vn 0.4592 0.3753 -0.8051
vn 0.4577 0.3826 -0.8025
vn 0.4811 0.3899 -0.7851
vn 0.4761 0.3899 -0.7882
vn 0.5107 0.4043 -0.7587
vn 0.5022 0.4042 -0.7644
vn 0.5306 0.3851 -0.7550
vn 0.5735 0.2960 -0.7638
vn 0.5899 0.3313 -0.7364
vn 0.4930 0.3313 -0.8045
vn 0.5215 0.3128 -0.7938
vn 0.4883 0.3556 -0.7969
vn 0.5185 0.3286 -0.7894
vn 0.4874 0.3608 -0.7952
vn 0.4593 0.3753 -0.8051
usemtl None
s 1
f 41//1 2//2 3//3
f 69//4 67//5 7//6
f 3//3 7//6 8//7
f 3//3 9//8 4//9
f 4//9 10//10 5//11
f 6//12 10//10 11//13
f 79//14 40//15 7//6
f 62//16 61//16 8//7
f 9//8 8//7 50//17
f 10//10 35//18 44//19
f 11//13 44//19 63//20
f 25//21 31//22 14//23
f 12//24 15//25 13//26
f 14//23 27//27 17//28
f 14//23 36//29 24//30
f 15//25 24//30 49//31
f 27//27 43//32 17//28
f 46//33 23//34 6//12
f 43//32 36//29 17//28
f 39//35 1//36 3//3
f 52//37 32//38 16//39
f 53//40 13//26 37//41
f 57//42 56//42 5//11
f 60//43 59//44 1//36
f 64//45 37//41 13//26
f 71//46 12//24 13//26
f 73//47 26//48 2//2
f 34//49 4//9 76//50
f 77//51 18//52 16//39
f 82//53 29//54 30//55
f 83//56 21//57 6//12
f 84//58 45//59 1//36
f 3//3 1//36 54//60
f 1//36 33//61 54//60
f 54//60 41//1 3//3
f 7//6 2//2 70//4
f 2//2 26//48 70//4
f 67//5 28//62 7//6
f 29//54 68//63 67//5
f 69//4 30//55 67//5
f 30//55 29//54 67//5
f 7//6 70//4 69//4
f 3//3 2//2 7//6
f 3//3 8//7 9//8
f 4//9 9//8 10//10
f 6//12 5//11 10//10
f 7//6 28//62 79//14
f 28//62 80//14 79//14
f 20//64 8//7 61//16
f 8//7 7//6 62//16
f 7//6 40//15 62//16
f 8//7 20//64 50//17
f 50//17 35//18 9//8
f 10//10 9//8 35//18
f 11//13 10//10 44//19
f 63//20 25//21 11//13
f 14//23 12//24 25//21
f 12//24 11//13 25//21
f 12//24 14//23 15//25
f 14//23 31//22 27//27
f 24//30 15//25 14//23
f 14//23 17//28 36//29
f 42//65 16//39 49//31
f 16//39 15//25 49//31
f 27//27 58//66 43//32
f 6//12 21//57 46//33
f 21//57 48//67 47//67
f 46//33 21//57 47//67
f 4//9 34//49 3//3
f 34//49 39//35 3//3
f 16//39 18//52 52//37
f 52//37 51//37 32//38
f 53//40 19//68 13//26
f 6//12 23//34 57//42
f 56//42 55//42 22//69
f 5//11 6//12 57//42
f 56//42 22//69 5//11
f 1//36 45//59 60//43
f 59//44 33//61 1//36
f 16//39 32//38 15//25
f 32//38 66//45 65//45
f 32//38 65//45 15//25
f 13//26 15//25 64//45
f 64//45 15//25 65//45
f 13//26 19//68 72//46
f 71//46 38//70 12//24
f 13//26 72//46 71//46
f 2//2 41//1 73//47
f 41//1 74//47 73//47
f 5//11 22//69 4//9
f 22//69 76//50 4//9
f 76//50 75//71 34//49
f 16//39 42//65 77//51
f 42//65 78//51 77//51
f 82//53 81//53 29//54
f 12//24 38//70 11//13
f 38//70 83//56 6//12
f 11//13 38//70 6//12
f 1//36 39//35 85//72
f 85//72 84//58 1//36
o 1_Oman_sphere.001
v 2.503513 2.199694 -3.727053
v 2.482016 2.199694 -3.741174
v 2.480675 2.222589 -3.728369
v 2.474475 2.215794 -3.736503
v 2.501771 2.169205 -3.745712
v 2.507072 2.196067 -3.726799
v 2.489416 2.183444 -3.745648
vn 0.4928 0.4408 -0.7502
vn 0.4911 0.4469 -0.7477
vn 0.4938 0.4369 -0.7518
vn 0.4949 0.4328 -0.7534
usemtl None
s 1
f 87//73 88//74 86//75
f 91//76 90//76 92//76
f 87//73 89//74 88//74
f 87//73 86//75 92//76
f 86//75 91//76 92//76
