# Blender v2.81 (sub 16) OBJ File: ''
# www.blender.org
mtllib Palestine.mtl
o 0_Palestine_sphere.001
v 3.451688 2.679133 -2.429756
v 3.435569 2.679133 -2.452691
v 3.493854 2.612492 -2.442030
v 3.474484 2.612492 -2.469590
v 3.475288 2.611444 -2.469543
v 3.500413 2.601302 -2.444411
v 3.457946 2.633220 -2.470643
v 3.488763 2.620894 -2.440161
v 3.472652 2.631081 -2.452039
v 3.479141 2.639380 -2.433806
v 3.434952 2.678498 -2.454259
v 3.444948 2.688618 -2.428697
vn 0.6979 0.5218 -0.4905
vn 0.7011 0.5154 -0.4927
vn 0.6968 0.5240 -0.4897
vn 0.6942 0.5291 -0.4879
vn 0.6934 0.5309 -0.4872
vn 0.6873 0.5424 -0.4830
vn 0.6914 0.5347 -0.4859
vn 0.7009 0.5157 -0.4926
vn 0.6944 0.5291 -0.4877
usemtl None
s 1
f 3//1 5//2 4//3
f 7//4 2//5 9//4
f 2//5 12//6 1//7
f 3//1 6//8 5//2
f 3//1 4//3 8//4
f 4//3 7//4 9//4
f 7//4 11//9 2//5
f 2//5 1//7 9//4
f 1//7 10//4 9//4
f 9//4 8//4 4//3
