# Blender v2.81 (sub 16) OBJ File: ''
# www.blender.org
mtllib Paraguay.mtl
o 0_Paraguay_sphere.001
v 2.596480 -1.913420 3.820612
v 2.579269 -1.985743 3.795284
v 2.561417 -2.057575 3.769017
v 2.542936 -2.128899 3.741822
v 2.523826 -2.199698 3.713703
v 2.504093 -2.269955 3.684668
v 2.475191 -1.913420 3.900284
v 2.458784 -1.985743 3.874428
v 2.441766 -2.057575 3.847614
v 2.424148 -2.128899 3.819851
v 2.405931 -2.199698 3.791146
v 2.387119 -2.269955 3.761506
v 2.394730 -1.693693 4.049274
v 2.380894 -1.767377 4.025878
v 2.366466 -1.840626 4.001483
v 2.351459 -1.913420 3.976107
v 2.335872 -1.985743 3.949748
v 2.319704 -2.057575 3.922413
v 2.266358 -1.693693 4.122496
v 2.253264 -1.767377 4.098677
v 2.239609 -1.840626 4.073842
v 2.225406 -1.913420 4.048006
v 2.210655 -1.985743 4.021171
v 2.486194 -1.767377 3.961350
v 2.401308 -1.656895 4.060396
v 2.217168 -1.693693 4.148541
v 2.207741 -1.999421 4.015872
v 2.317559 -2.066716 3.918785
v 2.596633 -1.985743 3.783080
v 2.306650 -2.057575 3.929859
v 2.139606 -1.913420 4.093435
v 2.594861 -2.199698 3.663780
v 2.382339 -2.199698 3.805603
v 2.469330 -1.840626 3.938449
v 2.175690 -1.767377 4.139750
v 2.599130 -1.901781 3.824511
v 2.481293 -1.885301 3.909899
v 2.659462 -2.057575 3.700110
v 2.471437 -1.693693 4.002268
v 2.494836 -2.301658 3.671048
v 2.378560 -2.300707 3.748018
v 2.539921 -2.269955 3.659488
v 2.324898 -2.269955 3.799634
v 2.602559 -1.913420 3.816340
v 2.148443 -1.840626 4.122111
v 2.630648 -2.128899 3.680177
v 2.413058 -2.128899 3.826647
v 2.270005 -1.672133 4.129130
v 2.196950 -1.985743 4.028427
v 2.123344 -1.893002 4.111401
v 2.412972 -2.125844 3.828351
v 2.351025 -2.094767 3.883113
v 2.377923 -2.300612 3.748466
v 2.317087 -2.279337 3.798706
v 2.459166 -1.880150 3.925905
v 2.226103 -1.679830 4.149317
v 2.599259 -1.901842 3.824389
v 2.653715 -2.078939 3.692113
v 2.632366 -2.125741 3.680748
v 2.501961 -2.299956 3.667121
v 2.527586 -1.895599 3.874501
v 2.558656 -1.879774 3.861759
v 2.169387 -1.795777 4.130655
v 2.447348 -2.312245 3.695662
v 2.486830 -1.769928 3.959804
v 2.594373 -1.999375 3.777303
v 2.594329 -2.030052 3.760758
v 2.617774 -2.033515 3.742409
v 2.645539 -2.020648 3.729848
v 2.665282 -2.035202 3.708109
v 2.577004 -2.240247 3.651568
v 2.355458 -1.655848 4.086972
v 2.178999 -1.751908 4.144454
v 2.413738 -2.160648 3.808352
v 2.478841 -1.699105 3.995390
v 2.475129 -1.724325 3.986755
v 2.606008 -1.925844 3.807487
v 2.607098 -2.171156 3.671929
v 2.280990 -2.036069 3.955440
v 2.226995 -2.023987 3.992387
v 2.421281 -1.657072 4.048084
vn 0.5089 -0.3753 0.7747
vn 0.4951 -0.3754 0.7835
vn 0.4950 -0.3826 0.7801
vn 0.5193 -0.3826 0.7641
vn 0.4917 -0.3971 0.7749
vn 0.5159 -0.3971 0.7591
vn 0.5123 -0.4115 0.7538
vn 0.4884 -0.4115 0.7695
vn 0.4848 -0.4257 0.7640
vn 0.5086 -0.4257 0.7484
vn 0.4812 -0.4399 0.7582
vn 0.5047 -0.4399 0.7427
vn 0.5008 -0.4540 0.7369
vn 0.4774 -0.4539 0.7523
vn 0.4843 -0.3753 0.7903
vn 0.4733 -0.3681 0.8003
vn 0.4703 -0.3826 0.7952
vn 0.4672 -0.3971 0.7899
vn 0.4639 -0.4115 0.7845
vn 0.4745 -0.4186 0.7743
vn 0.4710 -0.4328 0.7686
vn 0.4686 -0.4422 0.7647
vn 0.4649 -0.4563 0.7587
vn 0.4675 -0.3313 0.8196
vn 0.4560 -0.3313 0.8260
vn 0.4533 -0.3387 0.8245
vn 0.4790 -0.3387 0.8099
vn 0.4506 -0.3534 0.8197
vn 0.4762 -0.3534 0.8052
vn 0.4479 -0.3681 0.8148
vn 0.4451 -0.3826 0.8096
vn 0.4421 -0.3971 0.8042
vn 0.4531 -0.4043 0.7945
vn 0.4526 -0.4070 0.7934
vn 0.4415 -0.3312 0.8339
vn 0.4399 -0.3409 0.8308
vn 0.4390 -0.3460 0.8292
vn 0.4377 -0.3536 0.8267
vn 0.4364 -0.3608 0.8242
vn 0.4348 -0.3694 0.8212
vn 0.4337 -0.3753 0.8191
vn 0.4330 -0.3789 0.8178
vn 0.4302 -0.3934 0.8125
vn 0.4635 -0.4610 0.7567
vn 0.4764 -0.4610 0.7486
vn 0.5325 -0.3761 0.7583
vn 0.5307 -0.3850 0.7550
vn 0.5222 -0.4186 0.7430
vn 0.5103 -0.4609 0.7260
vn 0.4971 -0.4610 0.7351
vn 0.4467 -0.4043 0.7981
vn 0.4872 -0.4609 0.7417
vn 0.4873 -0.3608 0.7952
vn 0.4883 -0.3555 0.7969
vn 0.5259 -0.4043 0.7483
vn 0.5144 -0.4469 0.7319
vn 0.5166 -0.4391 0.7350
vn 0.4668 -0.4186 0.7790
vn 0.4902 -0.3460 0.8000
vn 0.5295 -0.3898 0.7534
vn 0.5183 -0.4328 0.7375
vn 0.4930 -0.3312 0.8045
vn 0.4907 -0.3435 0.8007
vn 0.5178 -0.3758 0.7685
vn 0.4859 -0.3678 0.7928
vn 0.4731 -0.4245 0.7720
vn 0.4802 -0.3313 0.8122
vn 0.4637 -0.4609 0.7566
vn 0.5206 -0.4244 0.7408
vn 0.5241 -0.4115 0.7457
vn 0.5134 -0.4503 0.7305
vn 0.5276 -0.3975 0.7507
vn 0.4902 -0.3460 0.7999
usemtl None
s 1
f 61//1 37//2 7//3
f 1//4 8//5 2//6
f 3//7 8//5 9//8
f 3//7 10//9 4//10
f 4//10 11//11 5//12
f 6//13 11//11 12//14
f 55//15 15//16 16//17
f 7//3 17//18 8//5
f 9//8 17//18 18//19
f 52//20 51//20 9//8
f 11//11 10//9 74//21
f 12//14 33//22 43//23
f 72//24 48//25 19//26
f 13//27 20//28 14//29
f 15//16 20//28 21//30
f 15//16 22//31 16//17
f 16//17 23//32 17//18
f 79//33 30//34 17//18
f 19//26 56//35 26//36
f 73//37 20//28 26//36
f 20//28 35//38 63//39
f 45//40 50//41 31//42
f 22//31 49//43 23//32
f 12//14 53//44 41//45
f 57//46 1//4 44//47
f 59//48 3//7 4//10
f 60//49 6//13 40//50
f 49//43 27//51 23//32
f 64//52 6//13 12//14
f 65//53 24//54 14//29
f 67//55 66//55 3//7
f 71//56 32//57 5//12
f 30//34 28//58 18//19
f 13//27 14//29 76//59
f 77//60 1//4 2//6
f 78//61 4//10 5//12
f 81//62 13//27 39//63
f 7//3 1//4 61//1
f 1//4 36//64 62//1
f 61//1 1//4 62//1
f 1//4 7//3 8//5
f 3//7 2//6 8//5
f 3//7 9//8 10//9
f 4//10 10//9 11//11
f 6//13 5//12 11//11
f 16//17 7//3 55//15
f 7//3 37//2 55//15
f 55//15 34//65 15//16
f 7//3 16//17 17//18
f 9//8 8//5 17//18
f 47//66 10//9 51//20
f 10//9 9//8 51//20
f 9//8 18//19 52//20
f 18//19 28//58 52//20
f 10//9 47//66 74//21
f 74//21 33//22 11//11
f 12//14 11//11 33//22
f 19//26 13//27 72//24
f 13//27 25//67 72//24
f 13//27 19//26 20//28
f 15//16 14//29 20//28
f 15//16 21//30 22//31
f 16//17 22//31 23//32
f 30//34 18//19 17//18
f 17//18 23//32 80//33
f 23//32 27//51 80//33
f 80//33 79//33 17//18
f 19//26 48//25 56//35
f 35//38 20//28 73//37
f 20//28 19//26 26//36
f 45//40 21//30 63//39
f 21//30 20//28 63//39
f 31//42 22//31 21//30
f 21//30 45//40 31//42
f 22//31 31//42 49//43
f 12//14 43//23 53//44
f 43//23 54//68 53//44
f 57//46 36//64 1//4
f 4//10 46//69 59//48
f 59//48 58//48 3//7
f 58//48 38//70 3//7
f 60//49 42//71 6//13
f 12//14 41//45 64//52
f 64//52 40//50 6//13
f 15//16 34//65 14//29
f 34//65 65//53 14//29
f 3//7 38//70 68//55
f 38//70 70//55 69//55
f 68//55 38//70 69//55
f 29//72 2//6 66//55
f 2//6 3//7 66//55
f 3//7 68//55 67//55
f 6//13 42//71 5//12
f 42//71 71//56 5//12
f 14//29 24//54 76//59
f 76//59 75//73 39//63
f 39//63 13//27 76//59
f 2//6 29//72 77//60
f 77//60 44//47 1//4
f 5//12 32//57 78//61
f 78//61 46//69 4//10
f 81//62 25//67 13//27
