# Blender v2.81 (sub 16) OBJ File: ''
# www.blender.org
mtllib Poland.mtl
o 0_Poland_sphere.001
v 2.697217 4.045084 -1.167185
v 2.755196 3.998423 -1.192274
v 2.869100 3.902151 -1.241565
v 2.924996 3.852566 -1.265754
v 2.732549 4.045084 -1.081887
v 2.791287 3.998423 -1.105143
v 2.849337 3.950774 -1.128127
v 2.906683 3.902151 -1.150831
v 2.963311 3.852566 -1.173252
v 3.019210 3.802029 -1.195385
v 2.765183 4.045084 -0.995522
v 2.824623 3.998423 -1.016921
v 2.883366 3.950774 -1.038070
v 2.941398 3.902151 -1.058962
v 2.998702 3.852566 -1.079594
v 3.055269 3.802029 -1.099959
v 2.795089 4.045084 -0.908174
v 2.855172 3.998423 -0.927696
v 2.914550 3.950774 -0.946989
v 2.973209 3.902151 -0.966048
v 3.031133 3.852566 -0.984869
v 2.822237 4.045084 -0.819930
v 2.882903 3.998423 -0.837555
v 2.942858 3.950774 -0.854974
v 3.002086 3.902151 -0.872181
v 2.907789 3.998423 -0.746588
v 2.789885 3.969577 -1.207285
v 3.021163 3.800207 -1.196158
v 3.071730 3.786847 -1.105885
v 2.746657 3.998423 -1.211187
v 2.813318 3.950068 -1.217426
v 2.854886 4.038765 -0.733004
v 2.910240 3.998423 -0.736378
v 2.915200 3.852566 -1.287451
v 3.072784 3.802029 -1.048800
v 3.067854 3.802029 -1.063200
v 3.062255 3.802029 -1.079552
v 2.937242 3.975216 -0.754150
v 2.932096 3.846063 -1.268826
v 2.695891 4.046118 -1.166610
v 2.964961 3.950774 -0.774179
v 2.812677 3.950774 -1.216633
v 2.696881 4.045084 -1.167930
v 3.020914 3.902151 -0.803359
v 3.040956 3.869197 -0.883474
v 3.052311 3.859570 -0.886773
v 3.059734 3.853277 -0.888929
v 2.998670 3.802029 -1.244974
v 3.060004 3.852566 -0.891024
v 3.050308 3.852566 -0.922540
v 3.042508 3.852566 -0.947897
v 2.842700 4.045084 -0.745130
v 2.711352 4.061376 -1.073495
v 3.055235 3.831264 -0.992701
v 2.862630 3.902151 -1.255895
v 2.741845 4.085091 -0.890874
v 2.737567 4.066060 -0.985579
v 2.790482 4.068715 -0.810704
v 2.821247 3.941201 -1.227193
v 2.848810 3.917140 -1.240305
v 3.059464 3.853799 -0.887490
v 3.046112 3.873578 -0.844238
v 3.031950 3.891334 -0.813362
v 3.059735 3.805886 -1.072751
v 3.050315 3.829300 -1.014281
v 2.919894 3.992031 -0.732035
v 2.784877 4.071074 -0.817696
v 2.743302 4.088183 -0.871428
v 2.724856 4.060783 -1.040102
v 3.044238 3.792027 -1.161755
v 3.047370 3.797917 -1.134265
v 3.072315 3.785837 -1.107629
v 2.747264 3.997749 -1.211987
v 2.772686 3.976645 -1.222874
v 2.929992 3.847427 -1.269542
v 2.689095 4.061548 -1.126598
v 2.685946 4.056228 -1.153654
v 3.000915 3.800498 -1.244164
v 3.022625 3.774795 -1.269144
v 3.023894 3.778098 -1.256136
v 3.020878 3.800310 -1.196535
v 2.898292 4.006098 -0.741635
v 2.866627 4.032388 -0.721083
v 3.059366 3.832720 -0.973384
v 3.040994 3.850292 -0.962013
v 3.064055 3.842051 -0.920390
v 2.837820 4.047544 -0.749927
v 2.995588 3.926131 -0.780674
v 2.971661 3.944726 -0.778756
v 2.701113 4.040515 -1.173588
v 2.728674 4.017566 -1.188039
v 2.891897 3.869208 -1.289391
v 2.911687 3.853754 -1.291683
v 2.739038 4.079576 -0.922899
v 2.754239 4.067176 -0.932061
v 2.739055 4.066666 -0.978612
v 3.075863 3.798129 -1.053679
v 3.073123 3.801596 -1.049351
v 2.798404 3.965879 -1.199378
v 3.045068 3.856452 -0.923341
v 3.040615 3.868955 -0.885592
v 2.939191 3.973264 -0.756714
vn 0.5372 0.8136 -0.2225
vn 0.5405 0.8136 -0.2141
vn 0.5466 0.8090 -0.2164
vn 0.5395 0.8089 -0.2335
vn 0.5583 0.7996 -0.2210
vn 0.5511 0.7996 -0.2385
vn 0.5710 0.7853 -0.2391
vn 0.5699 0.7901 -0.2256
vn 0.5814 0.7804 -0.2302
vn 0.5738 0.7804 -0.2483
vn 0.5927 0.7705 -0.2347
vn 0.5850 0.7705 -0.2532
vn 0.5439 0.8136 -0.2055
vn 0.5473 0.8136 -0.1961
vn 0.5531 0.8090 -0.1991
vn 0.5650 0.7996 -0.2034
vn 0.5767 0.7901 -0.2076
vn 0.5883 0.7804 -0.2118
vn 0.5998 0.7705 -0.2159
vn 0.6111 0.7604 -0.2200
vn 0.6039 0.7604 -0.2391
vn 0.5501 0.8136 -0.1883
vn 0.5535 0.8136 -0.1781
vn 0.5590 0.8090 -0.1816
vn 0.5711 0.7996 -0.1856
vn 0.5829 0.7901 -0.1894
vn 0.5947 0.7804 -0.1932
vn 0.6063 0.7705 -0.1970
vn 0.6088 0.7654 -0.2084
vn 0.5557 0.8136 -0.1710
vn 0.5575 0.8136 -0.1648
vn 0.5645 0.8090 -0.1640
vn 0.5766 0.7996 -0.1675
vn 0.5886 0.7901 -0.1710
vn 0.6005 0.7804 -0.1744
vn 0.6080 0.7716 -0.1870
vn 0.6035 0.7754 -0.1856
vn 0.6037 0.7754 -0.1848
vn 0.5608 0.8136 -0.1534
vn 0.5707 0.8062 -0.1561
vn 0.5745 0.8043 -0.1514
vn 0.5816 0.7996 -0.1493
vn 0.5860 0.7949 -0.1569
vn 0.5852 0.7949 -0.1601
vn 0.5972 0.7853 -0.1634
vn 0.5778 0.8043 -0.1386
vn 0.5374 0.8077 -0.2425
vn 0.5364 0.8134 -0.2250
vn 0.5643 0.7853 -0.2547
vn 0.6090 0.7754 -0.1666
vn 0.6060 0.7755 -0.1771
vn 0.6090 0.7754 -0.1669
vn 0.6052 0.7755 -0.1797
vn 0.5900 0.7949 -0.1416
vn 0.5860 0.7980 -0.1407
vn 0.6131 0.7552 -0.2317
vn 0.5530 0.7949 -0.2496
vn 0.5488 0.7984 -0.2477
vn 0.5865 0.7654 -0.2647
vn 0.5929 0.7655 -0.2499
vn 0.6055 0.7551 -0.2511
vn 0.6055 0.7552 -0.2508
vn 0.6055 0.7737 -0.1863
vn 0.6150 0.7654 -0.1892
vn 0.6117 0.7655 -0.1996
vn 0.5415 0.8043 -0.2445
vn 0.5755 0.7754 -0.2598
vn 0.6201 0.7552 -0.2123
vn 0.6105 0.7639 -0.2090
vn 0.6125 0.7621 -0.2097
vn 0.6117 0.7628 -0.2094
vn 0.6148 0.7553 -0.2272
vn 0.5605 0.7949 -0.2322
vn 0.5677 0.7890 -0.2350
vn 0.6044 0.7747 -0.1859
vn 0.5902 0.7909 -0.1614
vn 0.6017 0.7815 -0.1646
vn 0.5777 0.8043 -0.1387
vn 0.5711 0.7793 -0.2579
vn 0.5643 0.7853 -0.2548
vn 0.6101 0.7552 -0.2395
vn 0.5580 0.7949 -0.2381
vn 0.5530 0.7949 -0.2497
vn 0.5766 0.7743 -0.2604
vn 0.5979 0.7623 -0.2477
vn 0.5415 0.8043 -0.2446
vn 0.5755 0.7754 -0.2599
usemtl None
s 1
f 76//1 53//2 5//3
f 1//4 6//5 2//6
f 31//7 7//8 8//9
f 3//10 9//11 4//12
f 69//13 57//14 11//15
f 5//3 12//16 6//5
f 7//8 12//16 13//17
f 8//9 13//17 14//18
f 8//9 15//19 9//11
f 9//11 16//20 10//21
f 95//22 56//23 17//24
f 12//16 17//24 18//25
f 13//17 18//25 19//26
f 14//18 19//26 20//27
f 14//18 21//28 15//19
f 15//19 65//29 64//29
f 67//30 58//31 22//32
f 18//25 22//32 23//33
f 18//25 24//34 19//26
f 20//27 24//34 25//35
f 50//36 100//37 46//38
f 22//32 87//39 52//40
f 52//40 32//41 26//42
f 26//42 38//43 102//44
f 89//45 88//45 24//34
f 26//42 32//41 82//46
f 43//47 40//48 1//4
f 60//49 31//7 3//10
f 62//50 45//51 25//35
f 46//38 61//52 47//53
f 66//54 26//42 33//55
f 10//21 16//20 71//56
f 73//57 30//58 2//6
f 75//59 4//12 39//60
f 81//61 78//62 10//21
f 49//63 86//64 50//36
f 84//64 54//65 21//28
f 1//4 2//6 91//66
f 4//12 92//67 3//10
f 98//68 36//69 35//70
f 37//71 29//72 16//20
f 39//60 4//12 9//11
f 6//5 7//8 99//73
f 5//3 1//4 76//1
f 1//4 40//48 77//1
f 76//1 1//4 77//1
f 1//4 5//3 6//5
f 8//9 3//10 31//7
f 31//7 42//74 7//8
f 3//10 8//9 9//11
f 11//15 5//3 69//13
f 5//3 53//2 69//13
f 5//3 11//15 12//16
f 7//8 6//5 12//16
f 8//9 7//8 13//17
f 8//9 14//18 15//19
f 9//11 15//19 16//20
f 17//24 11//15 95//22
f 11//15 57//14 96//22
f 95//22 11//15 96//22
f 95//22 94//22 56//23
f 12//16 11//15 17//24
f 13//17 12//16 18//25
f 14//18 13//17 19//26
f 14//18 20//27 21//28
f 37//71 16//20 64//29
f 16//20 15//19 64//29
f 15//19 21//28 65//29
f 21//28 54//65 65//29
f 65//29 35//70 64//29
f 35//70 36//69 64//29
f 22//32 17//24 67//30
f 17//24 56//23 68//30
f 67//30 17//24 68//30
f 18//25 17//24 22//32
f 18//25 23//33 24//34
f 20//27 19//26 24//34
f 51//75 21//28 20//27
f 20//27 25//35 100//37
f 25//35 45//51 101//37
f 101//37 46//38 100//37
f 46//38 47//53 49//63
f 25//35 101//37 100//37
f 100//37 51//75 20//27
f 49//63 50//36 46//38
f 22//32 58//31 87//39
f 26//42 23//33 52//40
f 23//33 22//32 52//40
f 41//76 24//34 102//44
f 24//34 23//33 102//44
f 23//33 26//42 102//44
f 44//77 25//35 88//45
f 25//35 24//34 88//45
f 24//34 41//76 89//45
f 32//41 83//78 82//46
f 82//46 33//55 26//42
f 3//10 55//79 60//49
f 60//49 59//80 31//7
f 25//35 44//77 63//50
f 63//50 62//50 25//35
f 66//54 38//43 26//42
f 16//20 29//72 72//56
f 71//56 70//56 10//21
f 70//56 28//81 10//21
f 16//20 72//56 71//56
f 2//6 27//82 74//83
f 74//83 73//57 2//6
f 75//59 34//84 4//12
f 10//21 28//81 81//61
f 81//61 80//62 78//62
f 80//62 79//62 78//62
f 78//62 48//85 10//21
f 21//28 51//75 85//64
f 85//64 84//64 21//28
f 2//6 30//58 91//66
f 91//66 90//86 1//4
f 90//86 43//47 1//4
f 4//12 34//84 92//67
f 34//84 93//87 92//67
f 92//67 55//79 3//10
f 98//68 97//68 36//69
f 10//21 48//85 9//11
f 48//85 39//60 9//11
f 7//8 42//74 99//73
f 99//73 27//82 2//6
f 2//6 6//5 99//73
