# Blender v2.81 (sub 16) OBJ File: ''
# www.blender.org
mtllib Portugal.mtl
o 0_Portugal_sphere.001
v 3.720984 3.306558 0.470076
v 3.772053 3.247239 0.476527
v 3.919625 3.064534 0.495170
v 3.805137 3.187119 0.602681
v 3.854112 3.126212 0.610438
v 3.950255 3.002100 0.618077
v 3.951699 3.002100 0.607934
v 3.958061 3.002100 0.563227
v 3.961432 3.002100 0.539549
v 3.819537 3.187119 0.501501
v 3.817368 3.192900 0.482252
v 3.802619 3.187119 0.617104
v 3.875475 3.098775 0.613821
v 3.844936 3.158957 0.485735
v 3.866547 3.132201 0.488465
v 3.871028 3.126212 0.491582
v 3.705205 3.306558 0.580936
v 3.896932 3.093548 0.492303
v 3.848203 3.126212 0.644292
v 3.726725 3.306558 0.418073
v 3.921211 3.062439 0.495371
v 3.904384 3.064534 0.602256
v 3.756541 3.247239 0.585519
v 3.691210 3.340064 0.466315
v 3.675346 3.339381 0.582124
v 3.692033 3.320517 0.584767
v 3.919852 3.064534 0.493112
v 3.774520 3.247239 0.454175
v 3.781264 3.215873 0.598900
v 3.665237 3.354191 0.559024
v 3.660632 3.363585 0.531671
v 3.691118 3.331779 0.519624
v 3.696385 3.331946 0.481552
v 3.690589 3.340237 0.469585
v 3.696217 3.315885 0.584816
v 3.742729 3.264332 0.577312
v 3.718556 3.292279 0.575061
v 3.817828 3.188959 0.502533
v 3.774318 3.224497 0.596267
v 3.887287 3.103736 0.503081
v 3.878846 3.096431 0.603257
v 3.728015 3.305160 0.417441
v 3.740012 3.287381 0.449347
v 3.784054 3.235791 0.455506
v 3.790962 3.226088 0.467244
v 3.816978 3.194546 0.473172
v 3.854135 3.148508 0.479923
v 3.906191 3.083357 0.481644
v 3.919692 3.064774 0.492844
v 3.676363 3.337792 0.584574
v 3.795981 3.197476 0.604508
v 3.846069 3.128551 0.645453
v 3.811396 3.172888 0.634193
v 3.696982 3.337834 0.432238
v 3.935925 3.038658 0.520770
v 3.954097 3.015719 0.517324
v 3.951308 3.007345 0.582270
v 3.912466 3.054112 0.601912
v 3.963782 2.997548 0.546891
v 3.951826 2.999863 0.618762
v 3.869059 3.102672 0.632719
vn 0.7442 0.6612 0.0940
vn 0.7375 0.6671 0.1050
vn 0.7478 0.6554 0.1064
vn 0.7775 0.6190 0.1106
vn 0.7708 0.6252 0.1221
vn 0.7775 0.6190 0.1107
vn 0.7610 0.6374 0.1205
vn 0.7541 0.6434 0.1316
vn 0.7613 0.6347 0.1328
vn 0.7640 0.6313 0.1333
vn 0.7577 0.6434 0.1089
vn 0.7579 0.6434 0.1079
vn 0.7644 0.6355 0.1088
vn 0.7508 0.6554 0.0829
vn 0.7469 0.6598 0.0825
vn 0.7609 0.6434 0.0840
vn 0.7558 0.6495 0.0834
vn 0.7544 0.6494 0.0953
vn 0.7681 0.6313 0.1068
vn 0.7708 0.6313 0.0850
vn 0.7683 0.6313 0.1056
vn 0.7806 0.6190 0.0861
vn 0.7783 0.6191 0.1049
vn 0.7839 0.6129 0.0990
vn 0.7877 0.6067 0.1067
vn 0.7834 0.6155 0.0866
vn 0.7366 0.6672 0.1110
vn 0.7338 0.6672 0.1280
vn 0.7374 0.6671 0.1057
vn 0.7404 0.6671 0.0817
vn 0.7870 0.6066 0.1120
vn 0.7922 0.5997 0.1127
vn 0.7964 0.5940 0.1133
vn 0.7878 0.6056 0.1121
vn 0.7880 0.6054 0.1122
vn 0.7891 0.6039 0.1123
vn 0.7736 0.6190 0.1350
vn 0.7674 0.6270 0.1339
vn 0.7389 0.6672 0.0939
vn 0.7375 0.6671 0.1048
vn 0.7374 0.6671 0.1050
vn 0.7414 0.6627 0.1055
vn 0.7537 0.6484 0.1072
vn 0.7819 0.6133 0.1113
vn 0.7717 0.6264 0.1098
vn 0.7759 0.6191 0.1209
vn 0.7592 0.6434 0.0978
vn 0.7507 0.6554 0.0829
vn 0.7805 0.6191 0.0862
usemtl None
s 1
f 1//1 33//2 32//2
f 1//1 37//3 36//3
f 40//4 5//5 41//6
f 4//7 51//8 12//9
f 53//10 52//10 5//5
f 29//11 4//7 38//12
f 10//13 4//7 5//5
f 43//14 20//15 1//1
f 44//16 28//17 2//18
f 15//19 47//20 14//21
f 48//22 18//23 3//24
f 21//25 27//26 3//24
f 25//27 50//28 26//29
f 54//30 1//1 20//15
f 55//31 58//31 57//31
f 6//32 60//33 7//34
f 8//35 59//33 9//36
f 61//37 5//5 19//38
f 1//1 24//39 33//2
f 24//39 34//40 33//2
f 35//41 17//42 26//29
f 17//42 1//1 32//2
f 25//27 26//29 32//2
f 32//2 26//29 17//42
f 31//2 30//2 32//2
f 30//2 25//27 32//2
f 23//43 2//18 36//3
f 2//18 1//1 36//3
f 1//1 17//42 37//3
f 22//44 3//24 40//4
f 3//24 18//23 40//4
f 40//4 16//45 5//5
f 5//5 13//46 41//6
f 41//6 22//44 40//4
f 4//7 29//11 51//8
f 19//38 5//5 52//10
f 5//5 4//7 53//10
f 4//7 12//9 53//10
f 4//7 10//13 38//12
f 38//12 11//47 2//18
f 2//18 23//43 38//12
f 23//43 39//12 38//12
f 39//12 29//11 38//12
f 5//5 16//45 15//19
f 15//19 14//21 5//5
f 14//21 10//13 5//5
f 2//18 28//17 43//14
f 43//14 42//48 20//15
f 1//1 2//18 43//14
f 2//18 11//47 45//16
f 11//47 46//16 45//16
f 45//16 44//16 2//18
f 3//24 27//26 49//49
f 49//49 48//22 3//24
f 54//30 24//39 1//1
f 8//35 9//36 55//31
f 9//36 56//31 55//31
f 55//31 21//25 3//24
f 6//32 7//34 58//31
f 7//34 57//31 58//31
f 57//31 8//35 55//31
f 55//31 3//24 22//44
f 55//31 22//44 58//31
f 61//37 13//46 5//5
