# Blender v2.81 (sub 16) OBJ File: ''
# www.blender.org
mtllib Puerto Rico.mtl
o 0_Puerto_Rico_sphere.001
v 1.888545 1.545083 4.364180
v 1.947489 1.545083 4.337566
v 1.843162 1.545083 4.382978
v 1.888737 1.543555 4.364623
v 1.882868 1.587928 4.351060
v 1.844313 1.540479 4.384077
v 1.946430 1.580223 4.325181
v 1.962296 1.563777 4.324038
v 1.906866 1.587590 4.340349
v 1.835299 1.575924 4.375098
v 1.844576 1.588042 4.366880
v 1.945765 1.542895 4.339103
vn 0.3638 0.3096 0.8785
vn 0.3630 0.3164 0.8764
vn 0.3648 0.3014 0.8809
vn 0.3777 0.3090 0.8728
vn 0.3904 0.3164 0.8646
vn 0.3766 0.3165 0.8706
vn 0.3924 0.3013 0.8690
vn 0.3785 0.3016 0.8751
vn 0.3909 0.3126 0.8657
vn 0.3903 0.3164 0.8646
usemtl None
s 1
f 3//1 11//2 10//2
f 6//3 1//4 3//1
f 9//5 5//6 1//4
f 12//7 1//4 4//8
f 3//1 1//4 11//2
f 1//4 5//6 11//2
f 6//3 4//8 1//4
f 1//4 2//9 9//5
f 2//9 8//10 7//10
f 9//5 2//9 7//10
f 12//7 2//9 1//4
