# Blender v2.81 (sub 16) OBJ File: ''
# www.blender.org
mtllib Republic of Congo.mtl
o 0_Republic_of_Congo_sphere.001
v 4.750002 0.235530 -1.543363
v 4.799096 0.157051 -1.394261
v 4.800874 0.078534 -1.394778
v 4.801467 -0.000003 -1.394949
v 4.800874 -0.078539 -1.394778
v 4.799096 -0.157056 -1.394261
v 4.840522 0.157051 -1.242830
v 4.842316 0.078534 -1.243291
v 4.842914 -0.000003 -1.243443
v 4.842316 -0.078539 -1.243291
v 4.840522 -0.157056 -1.242830
v 4.837537 -0.235535 -1.242063
v 4.833357 -0.313955 -1.240990
v 4.827988 -0.392298 -1.239611
v 4.874164 -0.235535 -1.089499
v 4.869953 -0.313955 -1.088558
v 4.864845 -0.387911 -1.087416
v 4.746155 0.309049 -1.542114
v 4.794690 0.235530 -1.398101
v 4.813657 -0.392298 -1.291995
v 4.843029 -0.078539 -1.240319
v 4.825188 -0.425659 -1.238892
v 4.868622 0.157051 -1.125786
v 4.755055 0.157051 -1.537419
v 4.797765 -0.192323 -1.393875
v 4.742047 0.235530 -1.566598
v 4.796465 0.226800 -1.393496
v 4.752071 0.180125 -1.544036
v 4.847096 0.078534 -1.223379
v 4.760317 0.078534 -1.526612
v 4.841817 -0.100383 -1.243162
v 4.841184 -0.128083 -1.243000
v 4.892421 -0.235535 -1.001340
v 4.862743 -0.392298 -1.094842
v 4.844231 -0.392298 -1.171952
v 4.844191 -0.392298 -1.172119
v 4.853620 -0.000003 -1.198851
v 4.763212 -0.000003 -1.519301
v 4.839170 0.192607 -1.242482
v 4.876602 -0.171940 -1.090045
v 4.887330 -0.313955 -1.004647
v 4.801232 -0.235535 -1.374771
v 4.810641 0.157051 -1.352060
v 4.804834 0.157051 -1.373285
v 4.772380 -0.078539 -1.487401
v 4.771786 0.313950 -1.457882
v 4.754858 0.313950 -1.512909
v 4.883986 -0.392298 -0.993462
v 4.866141 -0.392298 -1.079631
v 4.797620 -0.313955 -1.371625
v 4.841810 -0.157056 -1.237468
v 4.794456 -0.157056 -1.409345
v 4.748420 0.206395 -1.551515
v 4.805198 0.150752 -1.372516
v 4.822800 0.171372 -1.305483
v 4.801858 0.197844 -1.378090
v 4.864702 -0.211873 -1.132890
v 4.846592 -0.215541 -1.207708
v 4.841916 -0.174342 -1.234117
v 4.760503 0.074673 -1.526110
v 4.759533 0.025222 -1.530583
v 4.801302 -0.236606 -1.374292
v 4.796742 -0.308298 -1.376015
v 4.868726 -0.401528 -1.063201
v 4.872668 -0.439067 -1.028129
v 4.733530 0.305635 -1.579571
v 4.737953 0.253012 -1.575586
v 4.755634 0.151985 -1.535942
v 4.894266 -0.346930 -0.959646
v 4.844250 -0.048220 -1.236255
v 4.829726 -0.417782 -1.222911
v 4.833094 -0.393161 -1.218022
v 4.848372 -0.425589 -1.142348
v 4.854446 -0.416735 -1.120331
v 4.840863 -0.116346 -1.245224
v 4.883923 -0.298860 -1.025195
v 4.893695 -0.241241 -0.993639
v 4.854230 0.003394 -1.196194
v 4.820363 -0.433184 -1.254060
v 4.785198 0.278966 -1.420828
v 4.750936 0.310491 -1.526303
v 4.888562 -0.219317 -1.023116
v 4.877038 -0.208648 -1.080831
v 4.877112 -0.170005 -1.087953
v 4.844245 0.104450 -1.232637
v 4.848931 0.121794 -1.211368
v 4.864248 0.114688 -1.148286
v 4.864492 -0.386903 -1.089191
v 4.767334 0.325131 -1.469665
v 4.783154 -0.106951 -1.450099
v 4.793895 -0.151895 -1.411582
v 4.868859 0.159757 -1.124341
v 4.865927 0.197802 -1.130155
v 4.840367 0.194374 -1.237200
v 4.800735 -0.336161 -1.354284
v 4.811213 -0.378667 -1.304587
v 4.763871 -0.005061 -1.517022
v 4.764268 -0.037063 -1.514877
v 4.767004 -0.064898 -1.505241
vn 0.9541 0.0585 -0.2935
vn 0.9543 0.0549 -0.2936
vn 0.9500 0.0471 -0.3087
vn 0.9598 0.0314 -0.2788
vn 0.9638 0.0392 -0.2636
vn 0.9641 0.0307 -0.2637
vn 0.9642 0.0250 -0.2638
vn 0.9681 0.0314 -0.2485
vn 0.9684 0.0157 -0.2486
vn 0.9603 0.0000 -0.2790
vn 0.9686 0.0000 -0.2487
vn 0.9684 -0.0157 -0.2487
vn 0.9602 -0.0157 -0.2789
vn 0.9646 -0.0236 -0.2624
vn 0.9643 -0.0235 -0.2638
vn 0.9716 0.0392 -0.2333
vn 0.9716 0.0392 -0.2332
vn 0.9718 0.0339 -0.2333
vn 0.9721 0.0236 -0.2333
vn 0.9723 0.0078 -0.2334
vn 0.9723 0.0139 -0.2334
vn 0.9724 0.0034 -0.2334
vn 0.9723 -0.0078 -0.2334
vn 0.9681 -0.0314 -0.2486
vn 0.9648 -0.0236 -0.2620
vn 0.9718 -0.0323 -0.2333
vn 0.9675 -0.0471 -0.2484
vn 0.9716 -0.0392 -0.2333
vn 0.9748 -0.0471 -0.2179
vn 0.9740 -0.0627 -0.2177
vn 0.9667 -0.0627 -0.2482
vn 0.9697 -0.0739 -0.2326
vn 0.9785 -0.0393 -0.2026
vn 0.9779 -0.0518 -0.2025
vn 0.9777 -0.0549 -0.2025
vn 0.9770 -0.0674 -0.2023
vn 0.9453 0.0392 -0.3236
vn 0.9542 0.0392 -0.2967
vn 0.9638 0.0393 -0.2636
vn 0.9557 0.0078 -0.2940
vn 0.9557 0.0164 -0.2940
vn 0.9602 0.0157 -0.2789
vn 0.9628 -0.0594 -0.2634
vn 0.9631 -0.0549 -0.2635
vn 0.9764 -0.0751 -0.2022
vn 0.9756 -0.0863 -0.2020
vn 0.9766 -0.0731 -0.2022
vn 0.9446 0.0549 -0.3234
vn 0.9499 0.0549 -0.3077
vn 0.9722 -0.0150 -0.2334
vn 0.9555 0.0236 -0.2940
vn 0.9553 0.0329 -0.2939
vn 0.9627 -0.0392 -0.2677
vn 0.9598 -0.0314 -0.2788
vn 0.9768 -0.0706 -0.2022
vn 0.9687 -0.0863 -0.2326
vn 0.9697 -0.0743 -0.2328
vn 0.9638 -0.0863 -0.2520
vn 0.9656 -0.0784 -0.2479
vn 0.9548 0.0445 -0.2937
vn 0.9565 0.0392 -0.2889
vn 0.9609 -0.0863 -0.2629
vn 0.9554 -0.0294 -0.2939
vn 0.9543 0.0561 -0.2936
vn 0.9534 0.0705 -0.2933
vn 0.9555 -0.0236 -0.2939
vn 0.9555 -0.0235 -0.2940
vn 0.9621 -0.0706 -0.2632
vn 0.9557 -0.0078 -0.2940
vn 0.9558 0.0022 -0.2940
vn 0.9643 0.0236 -0.2638
vn 0.9686 0.0392 -0.2454
vn 0.9721 0.0236 -0.2334
vn 0.9767 -0.0392 -0.2108
vn 0.9701 -0.0707 -0.2323
vn 0.9745 -0.0706 -0.2127
vn 0.9699 -0.0706 -0.2329
vn 0.9785 -0.0392 -0.2026
vn 0.9449 0.0496 -0.3235
vn 0.9631 -0.0549 -0.2634
vn 0.9636 -0.0450 -0.2636
vn 0.9687 -0.0862 -0.2326
vn 0.9619 -0.0746 -0.2631
vn 0.9557 -0.0110 -0.2940
vn 0.9557 -0.0079 -0.2940
usemtl None
s 1
f 46//1 80//2 1//3
f 2//4 56//5 44//6
f 43//7 7//8 8//9
f 4//10 8//9 9//11
f 4//10 10//12 5//13
f 5//13 31//14 75//15
f 93//16 92//17 23//18
f 8//9 7//8 85//19
f 78//20 9//11 29//21
f 9//11 37//22 70//23
f 11//24 32//25 51//26
f 12//27 58//28 15//29
f 12//27 16//30 13//31
f 13//31 16//30 35//32
f 82//33 33//34 15//29
f 76//35 41//36 16//30
f 53//37 1//3 28//38
f 55//39 7//8 43//7
f 60//40 30//41 3//42
f 50//43 62//44 12//27
f 48//45 64//46 49//47
f 67//48 18//49 1//3
f 21//50 31//14 10//12
f 68//51 24//52 2//4
f 25//53 6//54 11//24
f 41//36 69//55 48//45
f 74//56 35//32 34//57
f 71//56 22//58 14//59
f 19//60 27//61 2//4
f 79//62 14//59 22//58
f 25//53 52//63 6//54
f 47//64 89//65 46//1
f 91//66 90//67 5//13
f 13//31 14//59 96//68
f 97//69 38//70 4//10
f 19//60 1//3 80//2
f 1//3 18//49 81//2
f 81//2 47//64 1//3
f 47//64 46//1 1//3
f 2//4 27//61 56//5
f 8//9 3//42 43//7
f 3//42 2//4 54//71
f 2//4 44//6 54//71
f 54//71 43//7 3//42
f 4//10 3//42 8//9
f 4//10 9//11 10//12
f 11//24 6//54 32//25
f 6//54 5//13 75//15
f 5//13 10//12 31//14
f 75//15 32//25 6//54
f 23//18 7//8 94//16
f 7//8 39//72 94//16
f 94//16 93//16 23//18
f 7//8 23//18 86//73
f 23//18 87//73 86//73
f 85//19 29//21 8//9
f 7//8 86//73 85//19
f 37//22 9//11 78//20
f 9//11 8//9 29//21
f 21//50 10//12 70//23
f 10//12 9//11 70//23
f 12//27 11//24 59//28
f 11//24 51//26 59//28
f 57//28 40//74 15//29
f 12//27 59//28 58//28
f 58//28 57//28 15//29
f 12//27 15//29 16//30
f 36//75 14//59 13//31
f 16//30 17//76 88//77
f 88//77 34//57 16//30
f 34//57 35//32 16//30
f 35//32 36//75 13//31
f 15//29 40//74 83//78
f 40//74 84//78 83//78
f 83//78 82//33 15//29
f 16//30 15//29 76//35
f 15//29 33//34 76//35
f 33//34 77//35 76//35
f 53//37 26//79 1//3
f 55//39 39//72 7//8
f 4//10 38//70 3//42
f 38//70 61//40 60//40
f 3//42 38//70 60//40
f 13//31 50//43 12//27
f 50//43 63//80 62//44
f 62//44 42//81 12//27
f 48//45 65//46 64//46
f 1//3 26//79 67//48
f 67//48 66//48 18//49
f 3//42 30//41 2//4
f 30//41 68//51 2//4
f 12//27 42//81 11//24
f 42//81 25//53 11//24
f 48//45 49//47 41//36
f 49//47 17//76 16//30
f 41//36 49//47 16//30
f 74//56 73//82 35//32
f 14//59 36//75 72//82
f 72//82 71//56 14//59
f 2//4 24//52 19//60
f 24//52 28//38 19//60
f 28//38 1//3 19//60
f 79//62 20//83 14//59
f 6//54 52//63 91//66
f 90//67 45//84 5//13
f 6//54 91//66 5//13
f 14//59 20//83 96//68
f 96//68 95//68 13//31
f 95//68 50//43 13//31
f 5//13 45//84 4//10
f 45//84 99//85 98//69
f 4//10 45//84 98//69
f 98//69 97//69 4//10
