# Blender v2.81 (sub 16) OBJ File: ''
# www.blender.org
mtllib Republic of Serbia.mtl
o 0_Republic_of_Serbia_sphere.001
v 3.338489 3.479563 -1.321795
v 3.388893 3.422734 -1.341752
v 3.438461 3.365062 -1.361377
v 3.273858 3.590631 -1.178655
v 3.326521 3.535533 -1.197615
v 3.378361 3.479563 -1.216278
v 3.429366 3.422734 -1.234642
v 3.301457 3.520023 -1.307133
v 3.410701 3.422734 -1.284037
v 3.404987 3.422734 -1.299160
v 3.258157 3.590631 -1.220207
v 3.384013 3.479563 -1.199769
v 3.355406 3.422734 -1.422597
v 3.258526 3.606176 -1.173135
v 3.415917 3.391292 -1.352451
v 3.434237 3.369976 -1.359704
v 3.439544 3.365062 -1.358511
v 3.289043 3.535533 -1.296796
v 3.432039 3.422734 -1.226836
v 3.430866 3.365062 -1.379713
v 3.441197 3.361776 -1.362460
v 3.292866 3.590631 -1.123137
v 3.431678 3.420076 -1.235474
v 3.339486 3.535533 -1.159746
v 3.316569 3.479563 -1.374716
v 3.301260 3.521137 -1.304552
v 3.402685 3.427073 -1.293545
v 3.409850 3.423557 -1.284071
v 3.438648 3.366332 -1.357560
v 3.411178 3.401042 -1.339498
v 3.412370 3.403974 -1.328677
v 3.406568 3.414137 -1.317458
v 3.407369 3.418082 -1.305022
v 3.431376 3.402315 -1.282718
v 3.440750 3.397740 -1.269872
v 3.434138 3.403215 -1.273052
v 3.431085 3.416647 -1.246009
v 3.441978 3.361479 -1.361147
v 3.292614 3.590959 -1.122811
v 3.261786 3.606918 -1.161214
v 3.320981 3.549855 -1.168885
v 3.310604 3.567256 -1.144627
v 3.373726 3.499436 -1.169427
v 3.343221 3.526850 -1.175222
v 3.350675 3.526634 -1.154107
v 3.432160 3.423518 -1.224174
v 3.427349 3.432222 -1.212599
v 3.423122 3.442972 -1.193289
v 3.415705 3.445847 -1.206486
v 3.385990 3.475588 -1.205698
v 3.304126 3.502910 -1.344706
v 3.283990 3.516819 -1.357544
v 3.285146 3.509092 -1.374628
v 3.300226 3.498575 -1.365270
v 3.305696 3.487749 -1.379911
v 3.324368 3.473531 -1.370920
v 3.342538 3.450468 -1.384537
v 3.354668 3.423279 -1.423019
v 3.381095 3.403196 -1.407767
v 3.402652 3.382785 -1.405021
v 3.406499 3.375151 -1.414173
v 3.418278 3.366117 -1.407554
v 3.430549 3.365153 -1.380259
v 3.429264 3.373949 -1.362117
v 3.413173 3.389479 -1.363454
v 3.416896 3.389208 -1.355121
v 3.251501 3.604183 -1.197637
v 3.279371 3.546566 -1.290689
v 3.263001 3.580310 -1.237045
v 3.279099 3.560809 -1.250479
vn 0.6667 0.7015 -0.2519
vn 0.6653 0.7071 -0.2395
vn 0.6757 0.6959 -0.2433
vn 0.6859 0.6845 -0.2469
vn 0.6811 0.6855 -0.2574
vn 0.6769 0.6901 -0.2558
vn 0.6877 0.6730 -0.2723
vn 0.6869 0.6787 -0.2596
vn 0.6909 0.6741 -0.2611
vn 0.6531 0.7235 -0.2236
vn 0.6531 0.7238 -0.2227
vn 0.6570 0.7197 -0.2245
vn 0.6637 0.7126 -0.2272
vn 0.6711 0.7049 -0.2297
vn 0.6742 0.7015 -0.2308
vn 0.6847 0.6901 -0.2344
vn 0.6846 0.6902 -0.2344
vn 0.6803 0.6787 -0.2766
vn 0.6778 0.6845 -0.2683
vn 0.6968 0.6671 -0.2633
vn 0.6858 0.6889 -0.2348
vn 0.6899 0.6788 -0.2517
vn 0.6584 0.7015 -0.2727
vn 0.6685 0.6902 -0.2769
vn 0.6677 0.6959 -0.2644
vn 0.6785 0.6787 -0.2810
vn 0.6932 0.6672 -0.2725
vn 0.6790 0.6781 -0.2812
vn 0.6457 0.7235 -0.2440
vn 0.6548 0.7181 -0.2357
vn 0.6536 0.7154 -0.2470
vn 0.6563 0.7126 -0.2480
vn 0.6642 0.7015 -0.2582
vn 0.6620 0.7065 -0.2501
vn 0.6800 0.6868 -0.2569
vn 0.6769 0.6902 -0.2558
vn 0.6802 0.6788 -0.2767
vn 0.6497 0.7236 -0.2332
vn 0.6770 0.6985 -0.2318
vn 0.6870 0.6786 -0.2596
vn 0.6614 0.6982 -0.2739
vn 0.6711 0.6872 -0.2781
vn 0.6684 0.6903 -0.2770
vn 0.6784 0.6788 -0.2810
vn 0.6785 0.6786 -0.2811
usemtl None
s 1
f 26//1 5//2 6//3
f 7//4 9//5 28//6
f 3//7 29//8 17//9
f 40//10 39//11 22//12
f 41//13 24//14 5//2
f 44//15 43//15 6//3
f 46//16 7//4 47//17
f 34//8 9//5 36//8
f 30//8 15//18 2//19
f 38//20 3//7 17//9
f 19//21 23//22 7//4
f 54//23 52//23 51//23
f 57//24 56//24 1//25
f 59//26 2//19 65//26
f 21//27 20//28 3//7
f 67//29 4//30 11//31
f 4//30 5//2 70//32
f 6//3 1//25 26//1
f 1//25 8//33 26//1
f 26//1 18//34 5//2
f 10//35 2//19 27//36
f 2//19 1//25 27//36
f 1//25 6//3 27//36
f 6//3 7//4 28//6
f 27//36 6//3 28//6
f 3//7 16//37 29//8
f 22//12 4//30 40//10
f 4//30 14//38 40//10
f 5//2 4//30 41//13
f 4//30 22//12 42//13
f 41//13 4//30 42//13
f 12//39 6//3 43//15
f 6//3 5//2 44//15
f 5//2 24//14 44//15
f 24//14 45//15 44//15
f 19//21 7//4 46//16
f 7//4 6//3 49//17
f 6//3 12//39 50//17
f 49//17 48//17 47//17
f 6//3 50//17 49//17
f 7//4 49//17 47//17
f 7//4 23//22 37//8
f 36//8 35//8 34//8
f 7//4 37//8 9//5
f 37//8 36//8 9//5
f 2//19 10//35 32//8
f 10//35 33//40 32//8
f 32//8 31//8 2//19
f 31//8 30//8 2//19
f 38//20 21//27 3//7
f 1//25 25//41 51//23
f 25//41 55//23 54//23
f 54//23 53//23 52//23
f 25//41 54//23 51//23
f 51//23 8//33 1//25
f 2//19 13//42 57//24
f 13//42 58//43 57//24
f 56//24 25//41 1//25
f 2//19 57//24 1//25
f 3//7 20//28 16//37
f 20//28 63//44 64//26
f 16//37 20//28 64//26
f 63//44 62//26 60//26
f 62//26 61//26 60//26
f 63//44 60//26 65//26
f 60//26 59//26 65//26
f 59//26 13//42 2//19
f 2//19 15//18 65//26
f 15//18 66//45 65//26
f 65//26 64//26 63//44
f 67//29 14//38 4//30
f 5//2 18//34 70//32
f 18//34 68//32 70//32
f 70//32 69//32 4//30
f 69//32 11//31 4//30
