# Blender v2.81 (sub 16) OBJ File: ''
# www.blender.org
mtllib Rwanda.mtl
o 0_Rwanda_sphere.001
v 4.301586 -0.157056 -2.543945
v 4.302310 -0.121414 -2.544373
v 4.358603 -0.157056 -2.443984
v 4.292180 -0.157056 -2.559295
v 4.299945 -0.205600 -2.542974
v 4.365925 -0.235535 -2.424925
v 4.335669 -0.235535 -2.477970
v 4.305412 -0.210575 -2.532996
v 4.328546 -0.204859 -2.492891
v 4.364176 -0.199959 -2.430811
v 4.358479 -0.193233 -2.441332
v 4.292932 -0.199535 -2.554875
v 4.339823 -0.254492 -2.468582
v 4.366369 -0.247658 -2.422801
v 4.358445 -0.141337 -2.445010
v 4.346510 -0.117012 -2.467091
v 4.335862 -0.125911 -2.485336
v 4.310570 -0.098999 -2.530958
v 4.291911 -0.148223 -2.560133
vn 0.8684 -0.0236 -0.4953
vn 0.8682 -0.0317 -0.4952
vn 0.8679 -0.0392 -0.4951
vn 0.8520 -0.0392 -0.5221
vn 0.8603 -0.0314 -0.5088
vn 0.8621 -0.0392 -0.5051
vn 0.8676 -0.0479 -0.4949
vn 0.8673 -0.0549 -0.4947
vn 0.8678 -0.0446 -0.4949
vn 0.8524 -0.0236 -0.5224
vn 0.8522 -0.0309 -0.5222
vn 0.8653 -0.0236 -0.5006
vn 0.8679 -0.0392 -0.4950
usemtl None
s 1
f 15//1 3//2 17//1
f 3//2 11//3 9//3
f 12//4 1//5 5//6
f 6//7 13//8 7//9
f 19//10 1//5 4//11
f 3//2 1//5 17//1
f 1//5 2//12 17//1
f 2//12 18//1 17//1
f 17//1 16//1 15//1
f 6//7 7//9 11//3
f 7//9 9//3 11//3
f 9//3 8//3 1//5
f 8//3 5//6 1//5
f 1//5 3//2 9//3
f 11//3 10//13 6//7
f 12//4 4//11 1//5
f 6//7 14//8 13//8
f 19//10 2//12 1//5
