# Blender v2.81 (sub 16) OBJ File: ''
# www.blender.org
mtllib Sierra Leone.mtl
o 0_Sierra_Leone_sphere.001
v 4.850961 0.782170 0.925376
v 4.862435 0.704504 0.927565
v 4.819500 0.782170 1.077292
v 4.830900 0.704504 1.079840
v 4.842341 0.834905 0.923732
v 4.815668 0.859643 1.032236
v 4.834738 0.859643 0.940148
v 4.866372 0.704504 0.905011
v 4.820940 0.704504 1.121326
v 4.846089 0.626664 1.058048
v 4.865988 0.626664 0.961960
v 4.810941 0.834878 1.075378
v 4.865700 0.679760 0.928187
v 4.838382 0.647427 1.081512
v 4.853152 0.782170 0.912819
v 4.808877 0.782170 1.121542
v 4.810888 0.835567 1.075066
v 4.810858 0.854088 1.060018
v 4.815350 0.856011 1.036750
v 4.840598 0.841413 0.926811
v 4.827281 0.678383 1.109945
v 4.865823 0.690605 0.919009
v 4.843413 0.632084 1.067379
v 4.864388 0.643614 0.958465
v 4.853412 0.780170 0.913079
v 4.859131 0.757584 0.900070
v 4.863643 0.725946 0.901890
v 4.867007 0.730850 0.878324
v 4.816584 0.872176 1.016523
v 4.830532 0.872114 0.949228
v 4.819533 0.709955 1.123675
v 4.807725 0.773727 1.131779
v 4.849831 0.805199 0.909565
v 4.860185 0.597119 1.007219
v 4.866643 0.618438 0.963598
v 4.865664 0.590700 0.984511
v 4.812463 0.811658 1.085587
vn 0.9651 0.1646 0.2038
vn 0.9639 0.1564 0.2154
vn 0.9659 0.1641 0.2000
vn 0.9702 0.1564 0.1851
vn 0.9662 0.1409 0.2159
vn 0.9725 0.1409 0.1855
vn 0.9592 0.1641 0.2303
vn 0.9610 0.1521 0.2307
vn 0.9615 0.1487 0.2308
vn 0.9637 0.1331 0.2313
vn 0.9623 0.1431 0.2310
vn 0.9763 0.1331 0.1704
vn 0.9719 0.1331 0.1943
vn 0.9708 0.1305 0.2011
vn 0.9705 0.1331 0.2010
vn 0.9742 0.1487 0.1700
vn 0.9652 0.1686 0.1999
vn 0.9633 0.1796 0.1995
vn 0.9654 0.1675 0.1999
vn 0.9717 0.1641 0.1696
vn 0.9729 0.1568 0.1698
vn 0.9724 0.1175 0.2014
vn 0.9714 0.1262 0.2011
vn 0.9669 0.1641 0.1956
vn 0.9655 0.1661 0.2003
vn 0.9689 0.1331 0.2084
vn 0.9747 0.1448 0.1701
vn 0.9741 0.1487 0.1700
vn 0.9633 0.1797 0.1995
usemtl None
s 1
f 12//1 3//2 19//3
f 1//4 4//5 2//6
f 3//2 37//7 16//8
f 16//8 32//9 31//9
f 21//10 4//5 9//11
f 22//12 2//6 13//13
f 10//14 24//15 4//5
f 1//4 2//6 26//16
f 7//17 29//18 6//19
f 33//20 1//4 15//21
f 34//22 35//22 11//23
f 3//2 1//4 19//3
f 1//4 5//24 20//3
f 19//3 1//4 6//19
f 20//3 7//17 6//19
f 20//3 6//19 1//4
f 19//3 18//3 17//25
f 17//25 12//1 19//3
f 1//4 3//2 4//5
f 3//2 12//1 37//7
f 9//11 4//5 31//9
f 4//5 3//2 31//9
f 3//2 16//8 31//9
f 21//10 14//26 4//5
f 22//12 8//27 2//6
f 10//14 11//23 24//15
f 24//15 13//13 2//6
f 2//6 4//5 24//15
f 4//5 14//26 23//15
f 10//14 4//5 23//15
f 2//6 8//27 27//16
f 8//27 28//28 27//16
f 27//16 26//16 2//6
f 26//16 25//16 1//4
f 15//21 1//4 25//16
f 7//17 30//29 29//18
f 33//20 5//24 1//4
f 11//23 10//14 34//22
f 34//22 36//22 35//22
