# Blender v2.81 (sub 16) OBJ File: ''
# www.blender.org
mtllib Slovenia.mtl
o 0_Slovenia_sphere.001
v 3.286835 3.644842 -0.954908
v 3.370250 3.590631 -0.865327
v 3.336320 3.624049 -0.856615
v 3.283704 3.647856 -0.953998
v 3.349610 3.590631 -0.940775
v 3.287727 3.644842 -0.951647
v 3.379286 3.590631 -0.827692
v 3.283423 3.644842 -0.965997
v 3.312099 3.619745 -0.962247
v 3.396342 3.564113 -0.872026
v 3.404322 3.565942 -0.830828
v 3.395638 3.571527 -0.842699
v 3.298507 3.626843 -0.981124
v 3.354021 3.586390 -0.940973
v 3.365745 3.580111 -0.922290
v 3.382488 3.562963 -0.927098
v 3.387604 3.564207 -0.903606
v 3.383181 3.574295 -0.880943
v 3.396219 3.564041 -0.872756
v 3.283573 3.647941 -0.954110
v 3.281386 3.647204 -0.963928
v 3.334147 3.622553 -0.870501
v 3.312427 3.636104 -0.896067
v 3.296972 3.637726 -0.946117
v 3.327947 3.610821 -0.939764
v 3.373253 3.597454 -0.822188
v 3.341491 3.627150 -0.821151
vn 0.6574 0.7289 -0.1910
vn 0.6497 0.7343 -0.1965
vn 0.6626 0.7267 -0.1812
vn 0.6688 0.7236 -0.1707
vn 0.6712 0.7235 -0.1611
vn 0.6821 0.7126 -0.1638
vn 0.6792 0.7127 -0.1752
vn 0.6741 0.7181 -0.1731
vn 0.6598 0.7235 -0.2029
vn 0.6637 0.7236 -0.1896
vn 0.6767 0.7126 -0.1851
vn 0.6486 0.7343 -0.2002
vn 0.6658 0.7235 -0.1821
vn 0.6754 0.7194 -0.1621
vn 0.6556 0.7276 -0.2017
vn 0.6765 0.7127 -0.1853
vn 0.6767 0.7126 -0.1850
vn 0.6707 0.7186 -0.1834
vn 0.6488 0.7343 -0.1996
usemtl None
s 1
f 1//1 4//2 6//3
f 3//4 27//5 26//5
f 12//6 10//7 2//8
f 13//9 1//1 9//10
f 18//11 15//11 2//8
f 20//12 4//2 1//1
f 22//13 3//4 2//8
f 7//14 2//8 26//5
f 2//8 3//4 26//5
f 2//8 7//14 12//6
f 12//6 11//6 10//7
f 13//9 8//15 1//1
f 2//8 10//7 18//11
f 10//7 19//16 18//11
f 18//11 17//11 15//11
f 17//11 16//11 15//11
f 14//17 5//18 15//11
f 5//18 2//8 15//11
f 1//1 8//15 21//19
f 21//19 20//12 1//1
f 2//8 5//18 22//13
f 5//18 25//13 22//13
f 25//13 9//10 24//13
f 9//10 1//1 24//13
f 1//1 6//3 24//13
f 24//13 23//13 25//13
f 23//13 22//13 25//13
