# Blender v2.81 (sub 16) OBJ File: ''
# www.blender.org
mtllib Somaliland.mtl
o 0_Somaliland_sphere.001
v 3.247993 0.936904 -3.684119
v 3.257325 0.859643 -3.694705
v 3.265852 0.782170 -3.704375
v 3.362111 0.936904 -3.580279
v 3.371771 0.859643 -3.590566
v 3.380599 0.782170 -3.599964
v 3.388592 0.704504 -3.608479
v 3.482890 0.859643 -3.482885
v 3.492008 0.782170 -3.492001
v 3.580285 0.936904 -3.362105
v 3.590571 0.859643 -3.371766
v 3.475713 0.915212 -3.475708
v 3.600888 0.859643 -3.360428
v 3.388976 0.700332 -3.608888
v 3.572449 0.990946 -3.354747
v 3.494675 0.757082 -3.494669
v 3.241358 0.987348 -3.676593
v 3.320153 0.704504 -3.670753
v 3.225891 0.936904 -3.702996
v 3.361279 0.943017 -3.579393
v 3.592998 0.839646 -3.374044
v 3.265921 0.781484 -3.704453
v 3.265466 0.782170 -3.704705
v 3.396773 0.704504 -3.600551
v 3.380746 0.936904 -3.562221
v 3.609189 0.936904 -3.330339
v 3.540627 0.782170 -3.441830
v 3.235174 0.859643 -3.713623
v 3.548356 0.936904 -3.395053
v 3.371418 0.938295 -3.570875
v 3.439744 0.928069 -3.507295
v 3.234432 0.865898 -3.712755
v 3.239417 0.820997 -3.718457
v 3.312339 0.964814 -3.618064
v 3.280163 0.970469 -3.645822
v 3.255477 0.986123 -3.664075
v 3.603140 0.947706 -3.333796
v 3.575207 0.993560 -3.350944
v 3.604913 0.870063 -3.353177
v 3.619931 0.917287 -3.323857
v 3.326124 0.696023 -3.666860
v 3.379923 0.695558 -3.617992
v 3.558261 0.977746 -3.373161
v 3.551677 0.942327 -3.390076
v 3.274466 0.768136 -3.699391
v 3.218459 0.989117 -3.695688
v 3.219036 0.987705 -3.695564
v 3.223867 0.952457 -3.700657
v 3.529555 0.906376 -3.422466
v 3.499933 0.906124 -3.453099
v 3.569365 0.797900 -3.408413
v 3.588505 0.828688 -3.381300
vn 0.6496 0.1874 -0.7368
vn 0.6601 0.1950 -0.7254
vn 0.6743 0.1719 -0.7181
vn 0.6514 0.1719 -0.7389
vn 0.6533 0.1563 -0.7407
vn 0.6761 0.1564 -0.7200
vn 0.6724 0.1874 -0.7161
vn 0.6825 0.1951 -0.7043
vn 0.6845 0.1802 -0.7064
vn 0.6846 0.1796 -0.7064
vn 0.6937 0.1797 -0.6975
vn 0.6966 0.1719 -0.6966
vn 0.6984 0.1564 -0.6984
vn 0.6968 0.1487 -0.7017
vn 0.6883 0.1469 -0.7103
vn 0.7064 0.1796 -0.6846
vn 0.7059 0.1834 -0.6841
vn 0.7181 0.1719 -0.6743
vn 0.7084 0.1641 -0.6865
vn 0.7086 0.1624 -0.6867
vn 0.7185 0.1950 -0.6676
vn 0.7254 0.1950 -0.6600
vn 0.7254 0.1950 -0.6601
vn 0.7276 0.1796 -0.6620
vn 0.7276 0.1797 -0.6620
vn 0.7161 0.1874 -0.6724
vn 0.6389 0.1796 -0.7480
vn 0.6759 0.1331 -0.7249
vn 0.6777 0.1409 -0.7217
vn 0.6406 0.1641 -0.7501
vn 0.6609 0.1490 -0.7355
vn 0.6417 0.1591 -0.7503
vn 0.7282 0.1751 -0.6626
vn 0.7127 0.1642 -0.6819
vn 0.6670 0.1331 -0.7330
vn 0.6659 0.1443 -0.7319
vn 0.7043 0.1950 -0.6825
vn 0.6655 0.1487 -0.7314
vn 0.6370 0.1950 -0.7458
vn 0.6369 0.1952 -0.7458
vn 0.6481 0.1950 -0.7361
vn 0.6689 0.1950 -0.7173
vn 0.7084 0.1641 -0.6864
vn 0.7269 0.1847 -0.6614
vn 0.6398 0.1719 -0.7491
vn 0.6379 0.1874 -0.7469
vn 0.6369 0.1954 -0.7458
usemtl None
s 1
f 1//1 36//2 35//2
f 1//1 5//3 2//4
f 3//5 5//3 6//6
f 4//7 30//8 25//9
f 31//10 12//11 8//12
f 6//6 8//12 9//13
f 6//6 16//14 24//15
f 49//16 29//17 11//18
f 51//19 27//20 8//12
f 15//21 38//22 37//23
f 40//24 39//25 10//26
f 27//20 16//14 9//13
f 32//27 1//1 2//4
f 24//15 14//28 7//29
f 33//30 2//4 3//5
f 22//31 23//32 3//5
f 13//33 21//34 11//18
f 42//35 18//36 7//29
f 43//37 15//21 10//26
f 3//5 6//6 45//38
f 48//39 47//40 17//41
f 1//1 17//41 36//2
f 35//2 34//2 1//1
f 34//2 20//42 4//7
f 1//1 34//2 4//7
f 1//1 4//7 5//3
f 3//5 2//4 5//3
f 4//7 20//42 30//8
f 8//12 5//3 31//10
f 5//3 4//7 25//9
f 31//10 5//3 25//9
f 6//6 5//3 8//12
f 24//15 7//29 6//6
f 6//6 9//13 16//14
f 11//18 8//12 49//16
f 8//12 12//11 50//16
f 8//12 50//16 49//16
f 29//17 10//26 11//18
f 27//20 9//13 8//12
f 8//12 11//18 51//19
f 11//18 21//34 52//43
f 51//19 11//18 52//43
f 26//44 10//26 37//23
f 10//26 15//21 37//23
f 13//33 11//18 39//25
f 11//18 10//26 39//25
f 10//26 26//44 40//24
f 2//4 28//45 32//27
f 32//27 19//46 1//1
f 3//5 23//32 33//30
f 33//30 28//45 2//4
f 7//29 14//28 42//35
f 42//35 41//35 18//36
f 10//26 29//17 44//37
f 44//37 43//37 10//26
f 7//29 18//36 6//6
f 18//36 45//38 6//6
f 45//38 22//31 3//5
f 1//1 19//46 48//39
f 47//40 46//47 17//41
f 1//1 48//39 17//41
