# Blender v2.81 (sub 16) OBJ File: ''
# www.blender.org
mtllib South Africa.mtl
o 0_South_Africa_sphere.001
v 3.761509 -2.269954 -2.387120
v 3.783686 -2.249017 -2.370952
v 3.779814 -2.269954 -2.357250
v 3.797134 -2.291853 -2.307217
v 3.834635 -2.269954 -2.267791
v 3.803472 -2.339652 -2.249361
v 4.048009 -1.913420 -2.225405
v 3.976110 -1.913420 -2.351459
v 3.993652 -1.894812 -2.335916
v 4.021173 -1.985743 -2.210653
v 3.949751 -1.985743 -2.335870
v 3.922416 -2.057575 -2.319704
v 3.993345 -2.057575 -2.195353
v 3.964531 -2.128899 -2.179513
v 3.894114 -2.128899 -2.302967
v 3.934738 -2.199698 -2.163136
v 3.864851 -2.199697 -2.285661
v 3.903975 -2.269955 -2.146223
v 3.872250 -2.339652 -2.128780
v 3.839568 -2.408771 -2.110815
v 3.771371 -2.408771 -2.230376
v 3.738339 -2.477296 -2.210841
v 4.050214 -1.907209 -2.226617
v 4.053648 -1.913420 -2.214756
v 4.067787 -1.939476 -2.164476
v 4.076314 -1.985743 -2.106509
v 4.078692 -1.999573 -2.088953
v 4.075600 -2.018815 -2.076616
v 4.031034 -2.128899 -2.053909
v 4.000742 -2.199698 -2.038475
v 3.969464 -2.269955 -2.022537
v 3.937206 -2.339652 -2.006100
v 3.903976 -2.408771 -1.989169
v 3.869783 -2.477296 -1.971746
v 3.834635 -2.545210 -1.953838
v 3.771371 -2.545210 -2.073323
v 3.798541 -2.612495 -1.935447
v 3.735873 -2.612495 -2.053807
v 4.060332 -2.057575 -2.068836
v 4.069710 -2.052722 -2.054568
v 4.069491 -2.057575 -2.050139
v 4.068052 -2.082426 -2.027038
v 4.084432 -2.088736 -1.986991
v 4.074814 -2.126677 -1.966870
v 4.067714 -2.151278 -1.954611
v 4.077957 -2.164809 -1.918935
v 4.062798 -2.199698 -1.911802
v 4.031034 -2.269955 -1.896855
v 3.998276 -2.339652 -1.881439
v 3.964531 -2.408771 -1.865560
v 3.929807 -2.477296 -1.849221
v 3.894114 -2.545210 -1.832425
v 3.857460 -2.612495 -1.815177
v 3.761510 -2.679137 -1.916579
v 3.819855 -2.679137 -1.797481
v 3.723549 -2.745117 -1.897236
v 3.781306 -2.745117 -1.779341
v 4.109593 -2.165635 -1.847907
v 4.120844 -2.199698 -1.783243
v 4.088627 -2.269955 -1.769301
v 4.055400 -2.339652 -1.754922
v 4.021173 -2.408771 -1.740111
v 3.985954 -2.477296 -1.724870
v 3.949750 -2.545210 -1.709203
v 3.912573 -2.612495 -1.693115
v 3.874430 -2.679137 -1.676610
v 3.835330 -2.745117 -1.659689
v 4.149764 -2.189962 -1.725641
v 4.151265 -2.199698 -1.709800
v 4.153230 -2.213560 -1.686961
v 4.151927 -2.248585 -1.644378
v 4.142184 -2.269955 -1.640001
v 4.108522 -2.339652 -1.626673
v 4.073848 -2.408771 -1.612944
v 4.038167 -2.477296 -1.598817
v 4.001489 -2.545210 -1.584295
v 3.963825 -2.612495 -1.569384
v 3.925182 -2.679137 -1.554083
v 3.885570 -2.745117 -1.538399
v 4.188957 -2.269955 -1.516219
v 4.168071 -2.256337 -1.590741
v 4.187030 -2.228910 -1.579333
v 4.154962 -2.339652 -1.503773
v 4.133168 -2.382692 -1.495759
v 4.133567 -2.386974 -1.488169
v 4.122501 -2.408771 -1.484185
v 4.086394 -2.477296 -1.471186
v 4.049278 -2.545210 -1.457824
v 4.011165 -2.612495 -1.444103
v 3.972061 -2.679137 -1.430025
v 3.931975 -2.745117 -1.415591
v 3.890921 -2.810420 -1.400811
v 3.845001 -2.810420 -1.522337
v 4.134858 -2.408771 -1.448096
v 4.135437 -2.421679 -1.424088
v 4.145741 -2.427286 -1.384299
v 4.130589 -2.477296 -1.342103
v 4.093071 -2.545210 -1.329913
v 4.061100 -2.601048 -1.319525
v 4.051934 -2.612495 -1.325025
v 4.042156 -2.624384 -1.330697
v 4.007854 -2.681167 -1.321434
v 3.998532 -2.705984 -1.299196
v 3.969503 -2.743631 -1.308944
v 3.932461 -2.795615 -1.310018
v 3.918476 -2.810420 -1.320331
v 4.178276 -2.408771 -1.317591
v 4.201530 -2.408771 -1.242000
v 4.153634 -2.477296 -1.267192
v 4.144097 -2.490550 -1.272015
v 4.104270 -2.545210 -1.293511
v 3.897225 -2.006156 -2.404313
v 3.710137 -2.531884 -2.196186
v 3.718533 -2.493011 -2.225695
v 3.737875 -2.306269 -2.388746
v 3.730941 -2.339652 -2.367722
v 4.202363 -2.374427 -1.302307
v 4.213210 -2.391560 -1.235614
v 3.947602 -1.913420 -2.397981
v 3.908615 -1.985743 -2.402998
v 3.720527 -2.454380 -2.264468
v 3.718022 -2.443352 -2.280374
v 3.746906 -2.269954 -2.409352
v 3.770139 -2.249501 -2.392597
v 3.858298 -2.825806 -1.457067
v 3.983407 -1.885172 -2.361447
v 3.985332 -1.886971 -2.356912
v 3.866327 -2.854798 -1.377967
v 3.862448 -2.854206 -1.390561
v 3.843282 -2.813094 -1.521657
v 3.842319 -2.810420 -1.528813
v 3.713071 -2.378878 -2.356380
v 3.719187 -2.752444 -1.895013
v 3.714442 -2.745117 -1.914438
v 4.007396 -2.691550 -1.302076
v 4.007140 -2.694594 -1.296224
v 3.704094 -2.662189 -2.046978
v 3.704306 -2.670255 -2.036453
v 3.833243 -2.785851 -1.593614
v 3.766812 -2.794803 -1.730776
v 3.704010 -2.706237 -1.987785
v 3.704336 -2.679137 -2.024562
v 3.703650 -2.585426 -2.143188
v 3.708705 -2.545210 -2.183187
v 3.851720 -2.222907 -2.284898
v 4.241529 -2.128899 -1.572563
v 4.253962 -2.128899 -1.539659
v 4.221966 -2.199698 -1.528165
v 3.728580 -2.767805 -1.852513
v 4.097341 -2.554444 -1.297129
v 3.858633 -2.170512 -2.322627
v 3.849074 -2.164850 -2.343430
v 4.256216 -2.106367 -1.563077
v 3.865017 -2.062863 -2.408705
v 3.868113 -2.057575 -2.408319
v 3.714282 -2.370412 -2.362856
v 3.777091 -2.283531 -2.348197
v 3.819616 -2.269954 -2.292299
v 4.017869 -1.880977 -2.304768
v 4.034475 -1.880113 -2.276360
v 4.074197 -2.128899 -1.965802
v 4.081481 -2.169691 -1.905436
v 4.134696 -2.143700 -1.817901
v 4.148798 -2.136269 -1.795339
v 4.159081 -2.152306 -1.750392
v 4.152337 -2.134244 -1.789336
v 4.152065 -2.248688 -1.643913
v 4.199117 -2.199698 -1.588634
v 4.162778 -2.416861 -1.352562
v 4.009127 -2.679137 -1.321761
v 3.968594 -2.745117 -1.308637
v 3.942649 -2.786209 -1.299662
v 3.927186 -2.805670 -1.304686
v 4.168520 -2.412990 -1.341266
v 4.144241 -2.490346 -1.271950
v 3.709934 -2.534110 -2.194043
v 3.719485 -2.477296 -2.241610
v 3.725879 -2.339652 -2.375427
v 4.181624 -2.407293 -1.309417
v 4.222123 -2.353420 -1.276617
v 3.709902 -2.408771 -2.330685
v 3.751626 -2.249655 -2.420640
v 3.856331 -2.853049 -1.409012
v 3.843752 -2.814622 -1.517426
v 3.958217 -1.893057 -2.396442
v 3.892917 -2.829105 -1.355119
v 3.901676 -2.827759 -1.332410
v 3.708983 -2.405030 -2.336046
v 3.704057 -2.612495 -2.109586
v 3.819398 -2.789701 -1.620317
v 3.811576 -2.783854 -1.649410
v 3.807578 -2.780922 -1.663023
v 3.760313 -2.781160 -1.767319
v 3.759206 -2.781670 -1.768942
v 3.710829 -2.739600 -1.928872
v 3.839737 -2.249895 -2.278646
v 3.852866 -2.199697 -2.305219
v 4.206438 -2.181201 -1.594386
v 3.742619 -2.771566 -1.818144
v 3.734636 -2.791703 -1.803859
v 3.853083 -2.193449 -2.310607
v 3.837496 -2.151022 -2.375030
v 3.844680 -2.128899 -2.383636
v 3.822456 -2.179271 -2.373615
v 4.268868 -2.094583 -1.544960
v 3.799123 -2.463784 -2.119546
v 3.839987 -2.409721 -2.108885
v 3.865571 -2.467743 -1.991133
v 3.794988 -2.484944 -2.102559
v 3.827106 -2.527392 -1.990172
v 3.838443 -2.411063 -2.110196
v 3.791199 -2.506255 -2.084223
v 3.862947 -2.490505 -1.968263
v 3.841081 -2.408771 -2.107958
v 3.861537 -2.408771 -2.069322
v 3.796721 -2.477296 -2.108487
v 3.864550 -2.477296 -1.981630
v 3.809767 -2.545210 -2.000806
v 3.802928 -2.545210 -2.013721
v 3.796097 -2.480501 -2.105824
v 3.806607 -2.548378 -2.002697
v 3.789920 -2.505194 -2.087709
v 3.802748 -2.443389 -2.136242
v 3.827041 -2.420529 -2.119488
v 3.797920 -2.540913 -2.028513
v 3.803766 -2.516830 -2.047362
v 3.863717 -2.412445 -2.060809
v 3.868292 -2.442271 -2.016476
v 3.854416 -2.396927 -2.096427
vn 0.7523 -0.4540 -0.4774
vn 0.7627 -0.4470 -0.4674
vn 0.7590 -0.4557 -0.4651
vn 0.7567 -0.4609 -0.4637
vn 0.7669 -0.4540 -0.4536
vn 0.7607 -0.4679 -0.4499
vn 0.8096 -0.3827 -0.4451
vn 0.7952 -0.3827 -0.4703
vn 0.8051 -0.3754 -0.4592
vn 0.8042 -0.3971 -0.4421
vn 0.7900 -0.3971 -0.4672
vn 0.7845 -0.4115 -0.4639
vn 0.7987 -0.4115 -0.4391
vn 0.7929 -0.4258 -0.4359
vn 0.7788 -0.4257 -0.4606
vn 0.7870 -0.4399 -0.4326
vn 0.7730 -0.4399 -0.4571
vn 0.7808 -0.4540 -0.4293
vn 0.7745 -0.4679 -0.4258
vn 0.7679 -0.4817 -0.4222
vn 0.7543 -0.4817 -0.4461
vn 0.7579 -0.4886 -0.4323
vn 0.7477 -0.4954 -0.4422
vn 0.8099 -0.3755 -0.4507
vn 0.8147 -0.3876 -0.4314
vn 0.8138 -0.3899 -0.4309
vn 0.8096 -0.4009 -0.4287
vn 0.8084 -0.4042 -0.4279
vn 0.8101 -0.4043 -0.4245
vn 0.8062 -0.4258 -0.4108
vn 0.8002 -0.4399 -0.4077
vn 0.7939 -0.4540 -0.4045
vn 0.7875 -0.4679 -0.4012
vn 0.7778 -0.4748 -0.4118
vn 0.7711 -0.4886 -0.4083
vn 0.7617 -0.4886 -0.4255
vn 0.7543 -0.5090 -0.4147
vn 0.7597 -0.5225 -0.3871
vn 0.7472 -0.5225 -0.4108
vn 0.8121 -0.4115 -0.4138
vn 0.8214 -0.4043 -0.4024
vn 0.8173 -0.4143 -0.4004
vn 0.8156 -0.4186 -0.3995
vn 0.8155 -0.4186 -0.3995
vn 0.8155 -0.4187 -0.3995
vn 0.8095 -0.4328 -0.3966
vn 0.8142 -0.4329 -0.3869
vn 0.8126 -0.4399 -0.3824
vn 0.8062 -0.4540 -0.3794
vn 0.7997 -0.4679 -0.3763
vn 0.7929 -0.4817 -0.3731
vn 0.7808 -0.4817 -0.3978
vn 0.7740 -0.4954 -0.3944
vn 0.7860 -0.4954 -0.3699
vn 0.7788 -0.5090 -0.3665
vn 0.7730 -0.5023 -0.3877
vn 0.7669 -0.5090 -0.3908
vn 0.7715 -0.5225 -0.3630
vn 0.7523 -0.5358 -0.3833
vn 0.7640 -0.5358 -0.3595
vn 0.7447 -0.5490 -0.3794
vn 0.7563 -0.5490 -0.3559
vn 0.8216 -0.4328 -0.3710
vn 0.8242 -0.4399 -0.3567
vn 0.8177 -0.4540 -0.3539
vn 0.8111 -0.4679 -0.3510
vn 0.8043 -0.4817 -0.3480
vn 0.7972 -0.4954 -0.3450
vn 0.7900 -0.5090 -0.3418
vn 0.7825 -0.5225 -0.3386
vn 0.7749 -0.5358 -0.3353
vn 0.7671 -0.5490 -0.3319
vn 0.8328 -0.4329 -0.3450
vn 0.8277 -0.4442 -0.3429
vn 0.8265 -0.4469 -0.3423
vn 0.8265 -0.4468 -0.3425
vn 0.8285 -0.4540 -0.3280
vn 0.8217 -0.4679 -0.3253
vn 0.8148 -0.4817 -0.3226
vn 0.8077 -0.4954 -0.3198
vn 0.8003 -0.5090 -0.3169
vn 0.7928 -0.5225 -0.3139
vn 0.7851 -0.5358 -0.3108
vn 0.7771 -0.5490 -0.3077
vn 0.8335 -0.4539 -0.3150
vn 0.8368 -0.4469 -0.3162
vn 0.8267 -0.4679 -0.3124
vn 0.8233 -0.4748 -0.3111
vn 0.8263 -0.4749 -0.3029
vn 0.8245 -0.4817 -0.2969
vn 0.8173 -0.4954 -0.2942
vn 0.8099 -0.5090 -0.2916
vn 0.8023 -0.5225 -0.2888
vn 0.7944 -0.5358 -0.2860
vn 0.7864 -0.5490 -0.2831
vn 0.7782 -0.5620 -0.2802
vn 0.7690 -0.5621 -0.3045
vn 0.8268 -0.4861 -0.2831
vn 0.8255 -0.4886 -0.2826
vn 0.8261 -0.4954 -0.2684
vn 0.8186 -0.5090 -0.2660
vn 0.8120 -0.5158 -0.2731
vn 0.8080 -0.5201 -0.2767
vn 0.8028 -0.5291 -0.2749
vn 0.7949 -0.5424 -0.2721
vn 0.7959 -0.5424 -0.2691
vn 0.7949 -0.5423 -0.2721
vn 0.7867 -0.5555 -0.2693
vn 0.7843 -0.5592 -0.2685
vn 0.8344 -0.4877 -0.2567
vn 0.8386 -0.4797 -0.2580
vn 0.8313 -0.4935 -0.2557
vn 0.8253 -0.5043 -0.2541
vn 0.8239 -0.5070 -0.2535
vn 0.7798 -0.4043 -0.4779
vn 0.7371 -0.5023 -0.4520
vn 0.7373 -0.5022 -0.4518
vn 0.7417 -0.4609 -0.4872
vn 0.7462 -0.4679 -0.4736
vn 0.8412 -0.4748 -0.2588
vn 0.7873 -0.3840 -0.4824
vn 0.7820 -0.3985 -0.4792
vn 0.7439 -0.4886 -0.4559
vn 0.7453 -0.4527 -0.4896
vn 0.7553 -0.4470 -0.4792
vn 0.7696 -0.5685 -0.2908
vn 0.7903 -0.3754 -0.4843
vn 0.7960 -0.3754 -0.4748
vn 0.7783 -0.5685 -0.2665
vn 0.7742 -0.5686 -0.2782
vn 0.7659 -0.5689 -0.2996
vn 0.7671 -0.5573 -0.3177
vn 0.7482 -0.4748 -0.4633
vn 0.7425 -0.5555 -0.3744
vn 0.7414 -0.5442 -0.3926
vn 0.7974 -0.5424 -0.2643
vn 0.8030 -0.5424 -0.2470
vn 0.7371 -0.5291 -0.4204
vn 0.7467 -0.5292 -0.4029
vn 0.7682 -0.5555 -0.3182
vn 0.7578 -0.5555 -0.3422
vn 0.7425 -0.5424 -0.3931
vn 0.7481 -0.5325 -0.3961
vn 0.7442 -0.5157 -0.4245
vn 0.7490 -0.5064 -0.4272
vn 0.7628 -0.4469 -0.4674
vn 0.8454 -0.4281 -0.3194
vn 0.8465 -0.4257 -0.3198
vn 0.8401 -0.4399 -0.3174
vn 0.7467 -0.5555 -0.3658
vn 0.8189 -0.5157 -0.2519
vn 0.7686 -0.4328 -0.4710
vn 0.8495 -0.4186 -0.3210
vn 0.7743 -0.4187 -0.4745
vn 0.7765 -0.4130 -0.4758
vn 0.7356 -0.4748 -0.4832
vn 0.7582 -0.4574 -0.4647
vn 0.8051 -0.3753 -0.4592
vn 0.7764 -0.4777 -0.4111
vn 0.7571 -0.5158 -0.4009
vn 0.8120 -0.4271 -0.3978
vn 0.8284 -0.4329 -0.3554
vn 0.8328 -0.4328 -0.3450
vn 0.8311 -0.4470 -0.3307
vn 0.8404 -0.4393 -0.3175
vn 0.8307 -0.4886 -0.2668
vn 0.7990 -0.5356 -0.2735
vn 0.7908 -0.5489 -0.2708
vn 0.7867 -0.5555 -0.2694
vn 0.8340 -0.4886 -0.2566
vn 0.8257 -0.5036 -0.2542
vn 0.7486 -0.5022 -0.4329
vn 0.7420 -0.4927 -0.4547
vn 0.7389 -0.4673 -0.4854
vn 0.8414 -0.4744 -0.2588
vn 0.7490 -0.4779 -0.4590
vn 0.7477 -0.4469 -0.4911
vn 0.7695 -0.5686 -0.2908
vn 0.7503 -0.4748 -0.4600
vn 0.7423 -0.5193 -0.4234
vn 0.7639 -0.5556 -0.3284
vn 0.7578 -0.5555 -0.3423
vn 0.7513 -0.5556 -0.3563
vn 0.7668 -0.4373 -0.4699
vn 0.8433 -0.4328 -0.3186
vn 0.7511 -0.5022 -0.4284
vn 0.7718 -0.4251 -0.4729
vn 0.7535 -0.4976 -0.4298
vn 0.7691 -0.4927 -0.4072
vn 0.7642 -0.5022 -0.4046
vn 0.7591 -0.5121 -0.4019
vn 0.7768 -0.4768 -0.4113
vn 0.7579 -0.5144 -0.4013
vn 0.7564 -0.5023 -0.4190
vn 0.7509 -0.5037 -0.4271
usemtl None
s 1
f 1//1 2//2 3//3
f 4//4 5//5 6//6
f 7//7 8//8 9//9
f 8//8 10//10 11//11
f 12//12 10//10 13//13
f 12//12 14//14 15//15
f 15//15 16//16 17//17
f 5//5 16//16 18//18
f 6//6 18//18 19//19
f 6//6 20//20 21//21
f 206//22 22//23 21//21
f 7//7 23//24 24//25
f 25//26 10//10 24//25
f 26//27 27//28 28//29
f 13//13 29//30 14//14
f 14//14 30//31 16//16
f 18//18 30//31 31//32
f 19//19 31//32 32//33
f 19//19 229//34 20//20
f 20//20 207//35 211//36
f 36//37 37//38 38//39
f 39//40 40//41 41//42
f 42//43 43//44 44//45
f 45//46 46//47 47//48
f 31//32 47//48 48//49
f 32//33 48//49 49//50
f 32//33 50//51 33//52
f 34//53 50//51 51//54
f 52//55 213//56 34//53
f 35//57 53//58 37//38
f 54//59 53//58 55//60
f 56//61 55//60 57//62
f 47//48 58//63 59//64
f 48//49 59//64 60//65
f 49//50 60//65 61//66
f 49//50 62//67 50//51
f 51//54 62//67 63//68
f 51//54 64//69 52//55
f 52//55 65//70 53//58
f 55//60 65//70 66//71
f 57//62 66//71 67//72
f 68//73 69//74 59//64
f 70//75 71//76 72//77
f 61//66 72//77 73//78
f 61//66 74//79 62//67
f 63//68 74//79 75//80
f 63//68 76//81 64//69
f 65//70 76//81 77//82
f 65//70 78//83 66//71
f 67//72 78//83 79//84
f 80//85 81//86 82//86
f 73//78 80//85 83//87
f 84//88 85//89 86//90
f 75//80 86//90 87//91
f 75//80 88//92 76//81
f 77//82 88//92 89//93
f 78//83 89//93 90//94
f 79//84 90//94 91//95
f 79//84 92//96 93//97
f 86//90 85//89 94//98
f 95//99 96//99 97//100
f 87//91 98//101 88//92
f 88//92 99//102 100//103
f 89//93 100//103 101//104
f 102//105 103//106 104//107
f 105//108 106//109 91//95
f 107//110 108//111 109//112
f 110//113 111//114 97//100
f 112//115 11//11 12//12
f 113//116 114//117 22//23
f 115//118 1//1 116//119
f 108//111 117//120 118//120
f 119//121 11//11 120//122
f 121//123 122//123 21//21
f 123//124 124//125 1//1
f 93//97 92//96 125//126
f 126//127 127//128 8//8
f 128//129 129//130 92//96
f 130//131 131//132 93//97
f 132//133 116//119 6//6
f 133//134 134//135 56//61
f 135//136 136//137 103//106
f 137//138 38//39 138//139
f 67//72 79//84 139//140
f 57//62 67//72 140//141
f 141//142 142//143 54//59
f 143//144 144//145 36//37
f 145//146 17//17 5//5
f 146//147 147//148 148//149
f 37//38 142//143 38//39
f 57//62 149//150 56//61
f 150//151 98//101 111//114
f 151//152 152//152 15//15
f 153//153 147//148 146//147
f 154//154 155//155 12//12
f 156//156 116//119 132//133
f 1//1 124//125 2//2
f 6//6 116//119 4//4
f 116//119 1//1 157//4
f 1//1 3//3 157//4
f 4//4 158//157 5//5
f 116//119 157//4 4//4
f 8//8 127//128 9//9
f 9//9 159//9 7//7
f 159//9 160//158 7//7
f 160//158 23//24 7//7
f 8//8 7//7 10//10
f 12//12 11//11 10//10
f 12//12 13//13 14//14
f 15//15 14//14 16//16
f 5//5 17//17 16//16
f 6//6 5//5 18//18
f 6//6 19//19 20//20
f 21//21 224//22 223//22
f 26//27 10//10 25//26
f 10//10 7//7 24//25
f 39//40 13//13 26//27
f 13//13 10//10 26//27
f 39//40 26//27 28//29
f 13//13 39//40 29//30
f 14//14 29//30 30//31
f 18//18 16//16 30//31
f 19//19 18//18 31//32
f 19//19 32//33 33//52
f 20//20 214//159 207//35
f 221//160 35//57 37//38
f 39//40 28//29 40//41
f 161//161 29//30 44//45
f 29//30 39//40 42//43
f 44//45 29//30 42//43
f 39//40 41//42 42//43
f 47//48 30//31 45//46
f 30//31 29//30 45//46
f 29//30 161//161 45//46
f 31//32 30//31 47//48
f 32//33 31//32 48//49
f 32//33 49//50 50//51
f 34//53 33//52 50//51
f 34//53 51//54 52//55
f 35//57 52//55 53//58
f 54//59 37//38 53//58
f 56//61 54//59 55//60
f 47//48 46//47 162//63
f 58//63 163//63 59//64
f 163//63 164//162 59//64
f 47//48 162//63 58//63
f 48//49 47//48 59//64
f 49//50 48//49 60//65
f 49//50 61//66 62//67
f 51//54 50//51 62//67
f 51//54 63//68 64//69
f 52//55 64//69 65//70
f 55//60 53//58 65//70
f 57//62 55//60 66//71
f 59//64 164//162 165//163
f 164//162 166//73 165//163
f 165//163 68//73 59//64
f 72//77 60//65 70//75
f 60//65 59//64 69//74
f 70//75 60//65 69//74
f 71//76 167//164 72//77
f 61//66 60//65 72//77
f 61//66 73//78 74//79
f 63//68 62//67 74//79
f 63//68 75//80 76//81
f 65//70 64//69 76//81
f 65//70 77//82 78//83
f 67//72 66//71 78//83
f 80//85 72//77 81//86
f 72//77 167//164 81//86
f 168//165 148//149 82//86
f 148//149 80//85 82//86
f 73//78 72//77 80//85
f 86//90 74//79 84//88
f 74//79 73//78 84//88
f 73//78 83//87 84//88
f 75//80 74//79 86//90
f 75//80 87//91 88//92
f 77//82 76//81 88//92
f 78//83 77//82 89//93
f 79//84 78//83 90//94
f 79//84 91//95 92//96
f 97//100 87//91 95//99
f 87//91 86//90 94//98
f 95//99 87//91 94//98
f 96//99 169//166 97//100
f 87//91 97//100 98//101
f 100//103 89//93 88//92
f 88//92 98//101 99//102
f 170//167 90//94 101//104
f 90//94 89//93 101//104
f 171//168 91//95 104//107
f 91//95 90//94 102//105
f 104//107 91//95 102//105
f 90//94 170//167 102//105
f 102//105 135//136 103//106
f 106//109 92//96 91//95
f 91//95 171//168 105//108
f 171//168 172//108 105//108
f 172//108 173//169 105//108
f 109//112 97//100 107//110
f 97//100 169//166 174//170
f 107//110 97//100 174//170
f 111//114 98//101 97//100
f 97//100 109//112 175//171
f 175//171 110//113 97//100
f 12//12 155//155 112//115
f 112//115 120//122 11//11
f 22//23 176//172 113//116
f 114//117 177//173 22//23
f 116//119 178//174 115//118
f 115//118 123//124 1//1
f 108//111 107//110 179//175
f 179//175 117//120 108//111
f 117//120 180//120 118//120
f 119//121 8//8 11//11
f 22//23 177//173 121//123
f 122//123 181//176 21//21
f 22//23 121//123 21//21
f 123//124 182//177 124//125
f 92//96 129//130 183//126
f 125//126 184//178 93//97
f 184//178 130//131 93//97
f 92//96 183//126 125//126
f 8//8 119//121 185//127
f 185//127 126//127 8//8
f 92//96 106//109 186//129
f 106//109 187//129 186//129
f 186//129 128//129 92//96
f 21//21 181//176 6//6
f 181//176 188//179 132//133
f 6//6 181//176 132//133
f 137//138 189//180 38//39
f 93//97 131//132 79//84
f 131//132 139//140 79//84
f 139//140 190//140 67//72
f 190//140 191//181 67//72
f 67//72 191//181 192//141
f 192//141 140//141 67//72
f 140//141 193//182 57//62
f 193//182 194//183 57//62
f 56//61 134//135 54//59
f 134//135 195//142 54//59
f 195//142 141//142 54//59
f 38//39 189//180 36//37
f 189//180 143//144 36//37
f 5//5 158//157 196//2
f 145//146 197//184 17//17
f 5//5 196//2 145//146
f 148//149 168//165 198//185
f 198//185 146//147 148//149
f 54//59 142//143 37//38
f 142//143 138//139 38//39
f 57//62 194//183 199//150
f 194//183 200//150 199//150
f 199//150 149//150 57//62
f 149//150 133//134 56//61
f 150//151 99//102 98//101
f 144//145 209//186 222//186
f 144//145 176//172 22//23
f 17//17 197//184 201//152
f 17//17 201//152 151//152
f 202//152 203//187 152//152
f 203//187 15//15 152//152
f 152//152 204//152 202//152
f 15//15 17//17 151//152
f 153//153 205//153 147//148
f 15//15 203//187 12//12
f 203//187 154//154 12//12
f 156//156 178//174 116//119
f 144//145 216//188 209//186
f 217//189 208//35 34//53
f 226//190 225//190 36//37
f 218//191 210//190 35//57
f 228//35 227//35 33//52
f 210//190 213//56 35//57
f 213//56 217//189 34//53
f 206//22 216//188 22//23
f 19//19 33//52 215//192
f 229//34 214//159 20//20
f 19//19 215//192 229//34
f 52//55 35//57 213//56
f 21//21 20//20 224//22
f 20//20 211//36 224//22
f 223//22 206//22 21//21
f 37//38 36//37 219//193
f 221//160 218//191 35//57
f 37//38 219//193 221//160
f 212//194 36//37 222//186
f 36//37 144//145 222//186
f 22//23 216//188 144//145
f 216//188 220//195 209//186
f 36//37 212//194 226//190
f 225//190 219//193 36//37
f 34//53 208//35 33//52
f 208//35 228//35 33//52
f 227//35 215//192 33//52
