# Blender v2.81 (sub 16) OBJ File: ''
# www.blender.org
mtllib South Sudan.mtl
o 0_South_Sudan_sphere.001
v 4.110431 0.548669 -2.793441
v 4.117052 0.470539 -2.797938
v 4.122657 0.392293 -2.801750
v 4.133929 1.013934 -2.623465
v 4.146863 0.936904 -2.631674
v 4.158779 0.859643 -2.639236
v 4.169666 0.782170 -2.646143
v 4.179526 0.704504 -2.652402
v 4.188353 0.626664 -2.658003
v 4.196147 0.548669 -2.662951
v 4.202905 0.470539 -2.667238
v 4.208628 0.392293 -2.670871
v 4.250726 0.782170 -2.513865
v 4.260777 0.704504 -2.519811
v 4.269776 0.626664 -2.525132
v 4.277722 0.548669 -2.529832
v 4.284611 0.470539 -2.533905
v 4.290445 0.392293 -2.537357
v 4.327590 0.782170 -2.379106
v 4.337824 0.704504 -2.384734
v 4.346985 0.626664 -2.389770
v 4.355075 0.548669 -2.394217
v 4.362089 0.470539 -2.398072
v 4.368029 0.392293 -2.401339
v 4.400184 0.782170 -2.241999
v 4.410590 0.704504 -2.247303
v 4.419905 0.626664 -2.252048
v 4.428130 0.548669 -2.256240
v 4.456769 0.859643 -2.097192
v 4.468436 0.782170 -2.102680
v 4.479003 0.704504 -2.107654
v 4.433169 0.493469 -2.258806
v 4.099701 1.013934 -2.675572
v 4.109494 0.936904 -2.688564
v 4.451110 0.893882 -2.094528
v 4.129253 1.039654 -2.620497
v 4.423466 0.470539 -2.282151
v 4.420085 0.859643 -2.172074
v 4.077137 0.548669 -2.840815
v 4.469199 0.859643 -2.069662
v 4.104987 0.604290 -2.789740
v 4.392716 0.832531 -2.238195
v 4.322587 0.816473 -2.376356
v 4.142832 0.960914 -2.629115
v 4.202985 0.859643 -2.567098
v 4.476601 0.626664 -2.136317
v 4.144256 0.704504 -2.706095
v 4.368350 0.387115 -2.401515
v 4.090817 0.859643 -2.742697
v 4.284174 0.859643 -2.429204
v 4.241296 0.859643 -2.504377
v 4.138412 1.013934 -2.616149
v 4.404169 0.392293 -2.333082
v 4.067569 0.470539 -2.868345
v 4.108181 0.626664 -2.780053
v 4.485923 0.647555 -2.110910
v 4.454201 0.548669 -2.203023
v 4.239963 0.857300 -2.507502
v 4.290047 0.313950 -2.548620
v 4.278292 0.313950 -2.567803
v 4.242385 0.313950 -2.626399
v 4.230267 0.313950 -2.646173
v 4.122967 0.387005 -2.801960
v 4.339892 0.392293 -2.450668
v 4.326136 0.392293 -2.474785
v 4.212743 0.323450 -2.673482
v 4.294763 0.321439 -2.539910
v 4.159418 0.936904 -2.611187
v 4.491093 0.782170 -2.052499
v 4.119514 0.392293 -2.806222
v 4.095335 0.782170 -2.759302
v 4.495303 0.704504 -2.071555
v 4.144221 1.037216 -2.597076
v 4.231300 0.843018 -2.526186
v 4.206897 0.851841 -2.563199
v 4.264867 0.329703 -2.587576
v 4.315471 0.816425 -2.388849
v 4.311440 0.834155 -2.389962
v 4.287138 0.850361 -2.427125
v 4.320044 0.363805 -2.489535
v 4.353142 0.382595 -2.428825
v 4.387503 0.837124 -2.246409
v 4.358929 0.834108 -2.301448
v 4.356007 0.816372 -2.313274
v 4.488004 0.652608 -2.104653
v 4.484915 0.680719 -2.102323
v 4.372471 0.388377 -2.393540
v 4.384285 0.373704 -2.373449
v 4.401916 0.384233 -2.338557
v 4.456083 0.891716 -2.084475
v 4.451338 0.517912 -2.216026
v 4.099442 0.422406 -2.830245
v 4.115998 1.041615 -2.639908
v 4.109330 1.060646 -2.642595
v 4.088682 1.054755 -2.676339
v 4.096455 0.823789 -2.744983
v 4.090143 0.822108 -2.755101
v 4.133216 0.370480 -2.788488
v 4.164962 0.330401 -2.745327
v 4.198596 0.330639 -2.694093
v 4.175024 0.913784 -2.593802
v 4.412936 0.829687 -2.197997
v 4.403624 0.822326 -2.219789
v 4.455899 0.569956 -2.193829
v 4.467794 0.607464 -2.159459
v 4.278887 0.875449 -2.432647
v 4.260017 0.893131 -2.459211
v 4.327887 0.400971 -2.470198
v 4.499989 0.715584 -2.057127
v 4.519541 0.749285 -2.001509
v 4.507359 0.758680 -2.025058
v 4.492932 0.774979 -2.051053
v 4.421152 0.456047 -2.289203
v 4.061395 0.479661 -2.875505
v 4.109906 0.929970 -2.690244
v 4.090819 0.896095 -2.730568
v 4.089619 0.866623 -2.742200
v 4.156288 0.677183 -2.694462
v 4.127832 0.670996 -2.739294
v 4.108476 0.628889 -2.779062
v 4.137997 1.012350 -2.617429
v 4.427244 0.903454 -2.139273
v 4.424626 0.879873 -2.154406
v 4.472277 0.851872 -2.065988
v 4.425395 0.483608 -2.275647
v 4.103426 0.594262 -2.794024
v 4.082617 0.574101 -2.827782
v 4.237060 0.310233 -2.635479
v 4.284939 0.305994 -2.557794
v 4.105382 0.991710 -2.674972
v 4.098506 0.754920 -2.761938
v 4.108883 0.728541 -2.753364
v 4.134288 0.726401 -2.715274
vn 0.8294 0.1231 -0.5448
vn 0.8377 0.1253 -0.5316
vn 0.8392 0.1097 -0.5326
vn 0.8234 0.0941 -0.5596
vn 0.8406 0.0941 -0.5334
vn 0.8417 0.0784 -0.5342
vn 0.8245 0.0785 -0.5603
vn 0.8249 0.2105 -0.5245
vn 0.8343 0.2059 -0.5113
vn 0.8268 0.2027 -0.5247
vn 0.8294 0.1874 -0.5263
vn 0.8235 0.1950 -0.5326
vn 0.8381 0.1835 -0.5136
vn 0.8387 0.1796 -0.5140
vn 0.8411 0.1641 -0.5154
vn 0.8501 0.1564 -0.5028
vn 0.8339 0.1564 -0.5292
vn 0.8521 0.1409 -0.5040
vn 0.8359 0.1409 -0.5305
vn 0.8539 0.1253 -0.5050
vn 0.8555 0.1097 -0.5060
vn 0.8569 0.0941 -0.5068
vn 0.8581 0.0785 -0.5075
vn 0.8568 0.1641 -0.4887
vn 0.8644 0.1641 -0.4752
vn 0.8655 0.1564 -0.4758
vn 0.8675 0.1409 -0.4769
vn 0.8694 0.1253 -0.4780
vn 0.8710 0.1097 -0.4788
vn 0.8724 0.0941 -0.4796
vn 0.8654 0.0863 -0.4936
vn 0.8655 0.0845 -0.4937
vn 0.8718 0.1641 -0.4616
vn 0.8769 0.1642 -0.4517
vn 0.8800 0.1564 -0.4484
vn 0.8821 0.1409 -0.4494
vn 0.8840 0.1253 -0.4504
vn 0.8856 0.1097 -0.4512
vn 0.8791 0.1019 -0.4655
vn 0.8796 0.0964 -0.4657
vn 0.8805 0.0863 -0.4662
vn 0.8808 0.0816 -0.4664
vn 0.8937 0.1564 -0.4205
vn 0.8858 0.1641 -0.4339
vn 0.8958 0.1409 -0.4215
vn 0.8939 0.1331 -0.4279
vn 0.8904 0.1298 -0.4362
vn 0.8918 0.1175 -0.4369
vn 0.8914 0.1719 -0.4194
vn 0.8966 0.1796 -0.4048
vn 0.8982 0.1693 -0.4056
vn 0.8990 0.1641 -0.4059
vn 0.9012 0.1487 -0.4069
vn 0.9017 0.1455 -0.4071
vn 0.8505 0.0706 -0.5212
vn 0.8506 0.0689 -0.5212
vn 0.8665 0.0707 -0.4942
vn 0.8736 0.0785 -0.4802
vn 0.8734 0.0707 -0.4818
vn 0.8665 0.0706 -0.4942
vn 0.8658 0.0809 -0.4938
vn 0.9033 0.1331 -0.4078
vn 0.8816 0.0705 -0.4668
vn 0.8933 0.1019 -0.4376
vn 0.8924 0.1117 -0.4372
vn 0.8151 0.0863 -0.5728
vn 0.8171 0.2105 -0.5367
vn 0.8245 0.1641 -0.5416
vn 0.8318 0.1719 -0.5278
vn 0.8337 0.0706 -0.5476
vn 0.8545 0.1796 -0.4874
vn 0.8559 0.1703 -0.4882
vn 0.8564 0.1671 -0.4884
vn 0.8134 0.1072 -0.5717
vn 0.8221 0.1097 -0.5587
vn 0.8222 0.1797 -0.5401
vn 0.8284 0.1331 -0.5441
vn 0.8363 0.1947 -0.5125
vn 0.8834 0.1796 -0.4328
vn 0.8893 0.1797 -0.4205
vn 0.8125 0.1175 -0.5710
vn 0.8293 0.0707 -0.5542
vn 0.8153 0.0825 -0.5731
vn 0.8507 0.0673 -0.5213
vn 0.8513 0.0550 -0.5217
vn 0.8507 0.0677 -0.5213
vn 0.8513 0.0548 -0.5217
vn 0.8506 0.0692 -0.5212
vn 0.8197 0.1950 -0.5385
vn 0.8265 0.1487 -0.5429
vn 0.8278 0.1175 -0.5486
vn 0.8335 0.2105 -0.5108
vn 0.8404 0.1690 -0.5150
vn 0.8521 0.1642 -0.4969
vn 0.8841 0.1019 -0.4559
vn 0.8858 0.1641 -0.4340
vn 0.8852 0.1684 -0.4336
vn 0.9004 0.1551 -0.4065
vn 0.8437 0.0706 -0.5321
vn 0.8553 0.0706 -0.5133
vn 0.9033 0.1331 -0.4079
vn 0.8815 0.0706 -0.4668
vn 0.8142 0.0980 -0.5722
vn 0.8183 0.2035 -0.5375
vn 0.8255 0.1563 -0.5423
vn 0.8233 0.1721 -0.5408
vn 0.8139 0.1019 -0.5720
vn 0.8222 0.1796 -0.5401
vn 0.8223 0.1795 -0.5400
vn 0.8211 0.1866 -0.5394
vn 0.8284 0.1328 -0.5441
vn 0.8271 0.1435 -0.5433
vn 0.8834 0.1797 -0.4328
usemtl None
s 1
f 55//1 9//2 10//3
f 2//4 10//3 11//5
f 2//4 12//6 3//7
f 36//8 52//9 4//10
f 5//11 44//12 68//13
f 5//11 68//13 101//14
f 75//15 74//15 13//16
f 7//17 14//18 8//19
f 9//2 14//18 15//20
f 9//2 16//21 10//3
f 11//5 16//21 17//22
f 11//5 18//23 12//6
f 77//24 43//25 19//26
f 13//16 20//27 14//18
f 15//20 20//27 21//28
f 15//20 22//29 16//21
f 17//22 22//29 23//30
f 108//31 23//30 64//32
f 82//33 42//34 25//35
f 19//26 26//36 20//27
f 21//28 26//36 27//37
f 21//28 28//38 22//29
f 125//39 37//40 22//29
f 23//30 113//41 53//42
f 30//43 25//35 102//44
f 25//35 31//45 26//36
f 31//45 56//46 46//47
f 27//37 105//48 104//48
f 29//49 90//50 40//51
f 29//49 40//51 124//52
f 109//53 72//54 30//43
f 76//55 61//56 12//6
f 81//57 24//58 48//59
f 80//60 18//23 65//61
f 86//62 56//46 31//45
f 87//63 48//59 24//58
f 91//64 28//38 57//65
f 92//66 2//4 3//7
f 93//67 36//8 4//10
f 96//68 6//69 7//17
f 3//7 12//6 98//70
f 107//71 50//72 51//73
f 39//74 1//75 2//4
f 5//11 6//69 115//76
f 118//77 8//19 9//2
f 121//78 4//10 52//9
f 122//79 35//80 29//49
f 127//81 126//81 1//75
f 63//82 70//83 3//7
f 59//84 129//85 60//86
f 61//56 128//87 62//88
f 130//89 4//10 44//12
f 7//17 8//19 133//90
f 10//3 1//75 41//91
f 41//91 55//1 10//3
f 2//4 1//75 10//3
f 2//4 11//5 12//6
f 36//8 73//92 52//9
f 45//93 6//69 101//14
f 6//69 5//11 101//14
f 13//16 7//17 75//15
f 7//17 6//69 75//15
f 6//69 45//93 75//15
f 74//15 58//94 13//16
f 7//17 13//16 14//18
f 9//2 8//19 14//18
f 9//2 15//20 16//21
f 11//5 10//3 16//21
f 11//5 17//22 18//23
f 19//26 13//16 77//24
f 13//16 58//94 51//73
f 77//24 13//16 79//24
f 51//73 50//72 79//24
f 79//24 78//24 77//24
f 51//73 79//24 13//16
f 13//16 19//26 20//27
f 15//20 14//18 20//27
f 15//20 21//28 22//29
f 17//22 16//21 22//29
f 65//61 18//23 108//31
f 18//23 17//22 108//31
f 17//22 23//30 108//31
f 23//30 24//58 64//32
f 25//35 19//26 84//33
f 19//26 43//25 84//33
f 84//33 83//33 25//35
f 83//33 82//33 25//35
f 19//26 25//35 26//36
f 21//28 20//27 26//36
f 21//28 27//37 28//38
f 37//40 23//30 22//29
f 22//29 28//38 125//39
f 28//38 32//95 125//39
f 53//42 24//58 23//30
f 23//30 37//40 113//41
f 25//35 42//34 103//96
f 102//44 38//97 30//43
f 38//97 29//49 30//43
f 25//35 103//96 102//44
f 25//35 30//43 31//45
f 46//47 27//37 26//36
f 26//36 31//45 46//47
f 57//65 28//38 104//48
f 28//38 27//37 104//48
f 27//37 46//47 105//48
f 29//49 35//80 90//50
f 69//98 30//43 124//52
f 30//43 29//49 124//52
f 72//54 31//45 30//43
f 30//43 69//98 112//53
f 111//53 110//53 109//53
f 30//43 112//53 109//53
f 112//53 111//53 109//53
f 61//56 62//88 12//6
f 62//88 66//99 12//6
f 12//6 18//23 76//55
f 18//23 67//100 76//55
f 67//100 59//84 60//86
f 76//55 67//100 60//86
f 81//57 64//32 24//58
f 80//60 67//100 18//23
f 31//45 72//54 86//62
f 86//62 85//101 56//46
f 24//58 53//42 87//63
f 53//42 89//63 88//102
f 87//63 53//42 88//102
f 91//64 32//95 28//38
f 3//7 70//83 92//66
f 92//66 54//103 2//4
f 4//10 33//104 93//67
f 33//104 95//67 93//67
f 95//67 94//67 93//67
f 7//17 71//105 96//68
f 71//105 97//68 96//68
f 96//68 49//106 6//69
f 12//6 66//99 100//70
f 100//70 99//70 12//6
f 99//70 98//70 12//6
f 98//70 63//82 3//7
f 107//71 106//71 50//72
f 2//4 54//103 39//74
f 54//103 114//107 39//74
f 6//69 49//106 116//108
f 49//106 117//109 116//108
f 116//108 115//76 6//69
f 115//76 34//110 5//11
f 9//2 55//1 120//111
f 120//111 119//77 9//2
f 119//77 118//77 9//2
f 118//77 47//112 8//19
f 121//78 44//12 4//10
f 29//49 38//97 123//113
f 123//113 122//79 29//49
f 1//75 39//74 127//81
f 126//81 41//91 1//75
f 5//11 34//110 44//12
f 34//110 130//89 44//12
f 130//89 33//104 4//10
f 8//19 47//112 133//90
f 133//90 132//90 131//90
f 131//90 71//105 133//90
f 71//105 7//17 133//90
