# Blender v2.81 (sub 16) OBJ File: ''
# www.blender.org
mtllib Sudan.mtl
o 0_Sudan_sphere.001
v 3.757413 1.545083 -2.914542
v 3.761027 1.840621 -2.732540
v 3.783954 1.767372 -2.749196
v 3.805945 1.693688 -2.765175
v 3.826998 1.619585 -2.780469
v 3.847107 1.545083 -2.795081
v 3.866267 1.470200 -2.809000
v 3.884473 1.394954 -2.822229
v 3.901720 1.319363 -2.834759
v 3.918003 1.243447 -2.846589
v 3.933322 1.167225 -2.857718
v 3.845002 1.840621 -2.613055
v 3.868441 1.767372 -2.628983
v 3.890923 1.693688 -2.644263
v 3.912447 1.619585 -2.658888
v 3.933004 1.545083 -2.672861
v 3.952592 1.470200 -2.686172
v 3.971204 1.394954 -2.698822
v 3.988836 1.319363 -2.710804
v 4.005483 1.243447 -2.722117
v 4.021144 1.167225 -2.732759
v 4.035810 1.090714 -2.742728
v 4.049484 1.013934 -2.752020
v 4.062155 0.936904 -2.760631
v 3.925183 1.840621 -2.490991
v 3.949111 1.767372 -2.506175
v 3.972062 1.693688 -2.520741
v 3.994034 1.619585 -2.534683
v 4.015020 1.545083 -2.548003
v 4.035016 1.470200 -2.560692
v 4.054017 1.394954 -2.572752
v 4.072016 1.319363 -2.584174
v 4.089010 1.243447 -2.594958
v 4.104998 1.167225 -2.605104
v 4.119970 1.090714 -2.614606
v 4.001490 1.840621 -2.366469
v 4.025883 1.767372 -2.380893
v 4.049280 1.693688 -2.394732
v 4.071680 1.619585 -2.407977
v 4.093074 1.545083 -2.420631
v 4.113458 1.470200 -2.432686
v 4.132828 1.394954 -2.444142
v 4.151178 1.319363 -2.454993
v 4.168502 1.243447 -2.465239
v 4.184800 1.167225 -2.474877
v 4.200063 1.090714 -2.483905
v 4.214294 1.013934 -2.492320
v 4.227480 0.936904 -2.500119
v 4.239627 0.859643 -2.507303
v 4.073848 1.840621 -2.239611
v 4.098682 1.767372 -2.253263
v 4.122502 1.693688 -2.266359
v 4.145307 1.619585 -2.278894
v 4.167088 1.545083 -2.290870
v 4.187841 1.470200 -2.302278
v 4.207561 1.394954 -2.313121
v 4.226243 1.319363 -2.323390
v 4.243880 1.243447 -2.333086
v 4.260473 1.167225 -2.342208
v 4.276012 1.090714 -2.350752
v 4.290500 1.013934 -2.358716
v 4.303925 0.936904 -2.366096
v 4.316291 0.859643 -2.372896
v 4.142186 1.840621 -2.110543
v 4.167436 1.767372 -2.123408
v 4.191656 1.693688 -2.135750
v 4.214843 1.619585 -2.147562
v 4.236990 1.545083 -2.158848
v 4.258090 1.470200 -2.169599
v 4.278142 1.394954 -2.179817
v 4.297136 1.319363 -2.189494
v 4.315070 1.243447 -2.198632
v 4.331941 1.167225 -2.207228
v 4.347741 1.090714 -2.215279
v 4.362472 1.013934 -2.222784
v 4.376122 0.936904 -2.229739
v 4.388696 0.859643 -2.236147
v 4.206435 1.840621 -1.979393
v 4.232077 1.767372 -1.991458
v 4.256673 1.693688 -2.003033
v 4.280220 1.619585 -2.014111
v 4.302710 1.545083 -2.024696
v 4.324138 1.470200 -2.034778
v 4.344501 1.394954 -2.044361
v 4.363790 1.319363 -2.053437
v 4.382001 1.243447 -2.062007
v 4.399134 1.167225 -2.070069
v 4.415179 1.090714 -2.077620
v 4.430139 1.013934 -2.084659
v 4.444000 0.936904 -2.091182
v 4.426136 1.319363 -1.915354
v 4.444608 1.243447 -1.923348
v 4.461986 1.167225 -1.930867
v 4.478260 1.090714 -1.937910
v 4.493433 1.013934 -1.944476
v 4.507493 0.936904 -1.950560
v 4.369732 1.470200 -1.933797
v 4.099710 1.013934 -2.675558
v 3.725941 1.545083 -2.953825
v 4.445832 1.319363 -1.867803
v 3.896379 1.243447 -2.875391
v 4.142820 0.960984 -2.629107
v 4.238772 1.767372 -1.976630
v 4.007891 1.013934 -2.811201
v 4.159411 0.936904 -2.611197
v 4.522117 0.936904 -1.915255
v 3.748491 1.578927 -2.907621
v 3.990017 1.873530 -2.359683
v 4.515311 0.890268 -1.953944
v 4.389982 1.394954 -1.943630
v 4.066986 0.904926 -2.763915
v 4.109504 0.936904 -2.688549
v 4.420115 0.859643 -2.172011
v 4.479067 1.243447 -1.840155
v 3.920864 1.167225 -2.874311
v 3.712407 1.840621 -2.797296
v 3.833986 1.873507 -2.605568
v 4.302496 1.693688 -1.901545
v 4.045079 0.936904 -2.784928
v 4.202981 0.859643 -2.567104
v 4.130288 1.873589 -2.104481
v 3.816074 1.470200 -2.875850
v 4.129257 1.039632 -2.620500
v 4.090827 0.859643 -2.742683
v 4.080864 0.859643 -2.757849
v 4.498983 1.167225 -1.841546
v 4.322591 0.816451 -2.376358
v 3.735451 1.767372 -2.813795
v 4.418510 1.348826 -1.912055
v 4.326161 1.619585 -1.912362
v 3.847855 1.394954 -2.870999
v 4.525844 1.090714 -1.823032
v 4.523408 1.090714 -1.828911
v 4.513728 1.090714 -1.852282
v 4.239964 0.857292 -2.507502
v 3.914028 1.873240 -2.483912
v 3.750849 1.693688 -2.838556
v 3.769796 1.495530 -2.924147
v 4.451115 0.893856 -2.094530
v 4.348463 1.545083 -1.923365
v 4.514939 0.859643 -1.968360
v 4.469205 0.859643 -2.069649
v 4.284170 0.859643 -2.429210
v 4.241308 0.859643 -2.504356
v 4.528614 0.806159 -1.959700
v 4.529132 0.802762 -1.959924
v 4.194533 1.873100 -1.973791
v 3.878327 1.319363 -2.865915
v 3.750286 1.873400 -2.724736
v 4.213101 1.840621 -1.964629
v 3.953894 1.090714 -2.859284
v 4.138454 1.013934 -2.616079
v 4.522610 1.013934 -1.874037
v 4.392717 0.832522 -2.238196
v 4.062316 1.873111 -2.233271
v 3.757891 1.619585 -2.872512
v 3.942734 1.117028 -2.864557
v 4.530521 0.782170 -1.965174
v 4.491095 0.782170 -2.052494
v 4.403626 0.822282 -2.219801
v 4.412954 0.829616 -2.197987
v 3.918473 1.172517 -2.875306
v 3.750797 1.694216 -2.838300
v 4.519740 0.966094 -1.905825
v 4.515554 0.986817 -1.905163
v 4.522954 1.012031 -1.874193
v 4.424650 0.879801 -2.154386
v 4.427251 0.903389 -2.139284
v 3.893978 1.278999 -2.862891
v 3.895792 1.245218 -2.875389
v 3.717666 1.793229 -2.820824
v 3.732971 1.778443 -2.809966
v 4.356008 0.816298 -2.313299
v 4.358945 0.834033 -2.301443
v 4.387510 0.837098 -2.246404
v 4.287157 0.850294 -2.427114
v 4.311442 0.834116 -2.389971
v 4.315492 0.816392 -2.388824
v 4.513489 1.061592 -1.869243
v 4.526178 1.089616 -1.822843
v 4.206911 0.851776 -2.563196
v 4.231320 0.842968 -2.526170
v 3.708320 1.872870 -2.780987
v 4.096458 0.823741 -2.744993
v 4.088839 0.832323 -2.753990
v 4.090171 0.822051 -2.755075
v 4.260025 0.893074 -2.459219
v 4.278906 0.875378 -2.432639
v 3.891917 1.872895 -2.517827
v 4.175060 0.913703 -2.593771
v 4.513708 1.094501 -1.850037
v 4.516211 1.120830 -1.828051
v 4.500197 1.156234 -1.845271
v 4.308557 1.675526 -1.903621
v 3.826421 1.458069 -2.868111
v 3.844692 1.402499 -2.871454
v 4.089634 0.866583 -2.742189
v 4.090833 0.896023 -2.730572
v 4.109924 0.929905 -2.690238
v 4.495970 1.191360 -1.833157
v 4.479357 1.217325 -1.856410
v 4.481561 1.237110 -1.838249
v 4.138029 1.012320 -2.617389
v 4.296803 1.709981 -1.899549
v 4.257891 1.710273 -1.985470
v 3.804356 1.483662 -2.884367
v 4.105399 0.991643 -2.674972
v 4.460348 1.289224 -1.853638
v 4.144239 1.037157 -2.597070
v 4.492954 0.774914 -2.051028
v 4.507367 0.758602 -2.025067
v 4.519557 0.749228 -2.001497
v 4.521878 0.753269 -1.994877
v 4.530732 0.778202 -1.966158
v 4.053570 1.872932 -2.248752
v 4.061525 0.922294 -2.766169
v 3.725766 1.544823 -2.954176
v 3.763880 1.497423 -2.930574
v 3.759807 1.595848 -2.883148
v 4.088705 1.054685 -2.676332
v 4.109351 1.060598 -2.642582
v 4.116011 1.041566 -2.639907
v 4.528972 0.804977 -1.959350
v 4.429964 1.351257 -1.882611
v 4.023756 0.981193 -2.799951
v 4.034426 0.946222 -2.796863
v 4.472293 0.851813 -2.065976
v 4.517775 0.840750 -1.969718
v 4.402595 1.345364 -1.949675
v 3.746113 1.575521 -2.912408
v 4.201256 1.872943 -1.959056
v 4.522623 0.929460 -1.917587
v 3.954659 1.088818 -2.858906
v 3.991607 1.046465 -2.822191
v 4.456097 0.891677 -2.084465
v 4.512285 0.875840 -1.967050
vn 0.7586 0.3164 -0.5695
vn 0.7654 0.3239 -0.5561
vn 0.7694 0.3090 -0.5590
vn 0.7498 0.3754 -0.5448
vn 0.7690 0.3681 -0.5226
vn 0.7522 0.3681 -0.5465
vn 0.7568 0.3534 -0.5498
vn 0.7737 0.3534 -0.5258
vn 0.7782 0.3387 -0.5289
vn 0.7612 0.3387 -0.5530
vn 0.7825 0.3239 -0.5318
vn 0.7866 0.3090 -0.5346
vn 0.7732 0.2940 -0.5618
vn 0.7905 0.2940 -0.5372
vn 0.7942 0.2790 -0.5398
vn 0.7769 0.2790 -0.5644
vn 0.7803 0.2638 -0.5669
vn 0.7978 0.2638 -0.5422
vn 0.7836 0.2487 -0.5693
vn 0.8011 0.2487 -0.5444
vn 0.7866 0.2334 -0.5715
vn 0.8042 0.2334 -0.5465
vn 0.7747 0.3753 -0.5089
vn 0.7826 0.3754 -0.4966
vn 0.7850 0.3681 -0.4982
vn 0.7898 0.3534 -0.5012
vn 0.7944 0.3387 -0.5041
vn 0.7988 0.3239 -0.5069
vn 0.8030 0.3090 -0.5096
vn 0.8070 0.2940 -0.5121
vn 0.8108 0.2790 -0.5145
vn 0.8144 0.2638 -0.5168
vn 0.8178 0.2487 -0.5190
vn 0.8210 0.2334 -0.5210
vn 0.8240 0.2181 -0.5229
vn 0.8072 0.2181 -0.5485
vn 0.8171 0.2105 -0.5367
vn 0.8099 0.2028 -0.5504
vn 0.8186 0.2019 -0.5377
vn 0.8198 0.1950 -0.5385
vn 0.8003 0.3681 -0.4733
vn 0.8052 0.3534 -0.4762
vn 0.8098 0.3387 -0.4789
vn 0.8143 0.3239 -0.4816
vn 0.8186 0.3090 -0.4841
vn 0.8227 0.2940 -0.4865
vn 0.8266 0.2790 -0.4888
vn 0.8302 0.2638 -0.4910
vn 0.8337 0.2487 -0.4930
vn 0.8369 0.2334 -0.4949
vn 0.8400 0.2181 -0.4968
vn 0.8051 0.3753 -0.4592
vn 0.8122 0.3754 -0.4464
vn 0.8148 0.3681 -0.4479
vn 0.8197 0.3534 -0.4506
vn 0.8245 0.3387 -0.4533
vn 0.8291 0.3239 -0.4558
vn 0.8334 0.3090 -0.4582
vn 0.8375 0.2940 -0.4604
vn 0.8415 0.2790 -0.4626
vn 0.8452 0.2638 -0.4647
vn 0.8488 0.2487 -0.4666
vn 0.8521 0.2334 -0.4684
vn 0.8552 0.2181 -0.4701
vn 0.8429 0.2028 -0.4985
vn 0.8581 0.2028 -0.4717
vn 0.8608 0.1874 -0.4732
vn 0.8455 0.1874 -0.5000
vn 0.8545 0.1796 -0.4874
vn 0.8549 0.1766 -0.4877
vn 0.8777 0.1719 -0.4472
vn 0.8632 0.1719 -0.4746
vn 0.8284 0.3681 -0.4221
vn 0.8335 0.3534 -0.4247
vn 0.8383 0.3387 -0.4271
vn 0.8430 0.3239 -0.4295
vn 0.8474 0.3090 -0.4317
vn 0.8516 0.2940 -0.4339
vn 0.8556 0.2790 -0.4360
vn 0.8594 0.2638 -0.4379
vn 0.8630 0.2486 -0.4397
vn 0.8664 0.2334 -0.4414
vn 0.8695 0.2181 -0.4430
vn 0.8725 0.2028 -0.4445
vn 0.8752 0.1874 -0.4459
vn 0.8386 0.3754 -0.3947
vn 0.8413 0.3681 -0.3959
vn 0.8464 0.3534 -0.3983
vn 0.8513 0.3387 -0.4006
vn 0.8560 0.3239 -0.4028
vn 0.8605 0.3090 -0.4049
vn 0.8648 0.2940 -0.4069
vn 0.8689 0.2790 -0.4089
vn 0.8727 0.2638 -0.4107
vn 0.8764 0.2487 -0.4124
vn 0.8798 0.2334 -0.4140
vn 0.8830 0.2181 -0.4155
vn 0.8860 0.2028 -0.4169
vn 0.8888 0.1874 -0.4182
vn 0.8834 0.1797 -0.4328
vn 0.8841 0.1755 -0.4331
vn 0.8474 0.3681 -0.3826
vn 0.8526 0.3534 -0.3849
vn 0.8551 0.3461 -0.3861
vn 0.8576 0.3385 -0.3872
vn 0.8599 0.3313 -0.3883
vn 0.8668 0.3090 -0.3914
vn 0.8711 0.2940 -0.3933
vn 0.8752 0.2790 -0.3952
vn 0.8772 0.2714 -0.3960
vn 0.8836 0.2714 -0.3815
vn 0.8852 0.2638 -0.3831
vn 0.8889 0.2487 -0.3847
vn 0.8924 0.2334 -0.3862
vn 0.8956 0.2181 -0.3876
vn 0.8987 0.2028 -0.3889
vn 0.9015 0.1874 -0.3901
vn 0.8892 0.2714 -0.3683
vn 0.8918 0.2612 -0.3694
vn 0.8930 0.2562 -0.3699
vn 0.8966 0.2411 -0.3714
vn 0.8966 0.2410 -0.3714
vn 0.8981 0.2347 -0.3720
vn 0.9000 0.2257 -0.3728
vn 0.9002 0.2250 -0.3728
vn 0.9012 0.2204 -0.3732
vn 0.9032 0.2105 -0.3741
vn 0.9061 0.1950 -0.3753
vn 0.8858 0.1641 -0.4340
vn 0.8809 0.1641 -0.4439
vn 0.7761 0.2411 -0.5827
vn 0.7483 0.3528 -0.5618
vn 0.7949 0.2258 -0.5632
vn 0.7730 0.2562 -0.5804
vn 0.7458 0.3608 -0.5600
vn 0.8718 0.1641 -0.4616
vn 0.8568 0.1642 -0.4887
vn 0.8554 0.1736 -0.4879
vn 0.8460 0.1639 -0.5073
vn 0.8479 0.1719 -0.5014
vn 0.9018 0.2175 -0.3735
vn 0.9030 0.2116 -0.3740
vn 0.8411 0.1641 -0.5154
vn 0.8395 0.1748 -0.5144
vn 0.7711 0.2651 -0.5789
vn 0.7412 0.3753 -0.5565
vn 0.7439 0.3667 -0.5586
vn 0.8244 0.1641 -0.5416
vn 0.8245 0.1640 -0.5416
vn 0.8387 0.1796 -0.5140
vn 0.8369 0.1911 -0.5129
vn 0.7661 0.2865 -0.5752
vn 0.7662 0.2865 -0.5752
vn 0.8207 0.1796 -0.5423
vn 0.8222 0.1796 -0.5401
vn 0.8222 0.1797 -0.5401
vn 0.8355 0.1994 -0.5119
vn 0.7515 0.3090 -0.5829
vn 0.7624 0.3015 -0.5725
vn 0.8335 0.2105 -0.5108
vn 0.9012 0.1487 -0.4069
vn 0.9013 0.1487 -0.4069
vn 0.9000 0.1578 -0.4063
vn 0.8049 0.1797 -0.5656
vn 0.8124 0.1874 -0.5521
vn 0.7441 0.3015 -0.5961
vn 0.7434 0.3047 -0.5954
vn 0.9005 0.1641 -0.4027
vn 0.9112 0.1642 -0.3779
vn 0.8998 0.1640 -0.4041
vn 0.8024 0.1950 -0.5640
vn 0.8990 0.1641 -0.4059
vn 0.8978 0.1719 -0.4054
vn 0.7403 0.3164 -0.5931
vn 0.7772 0.2353 -0.5835
vn 0.7528 0.3374 -0.5651
vn 0.7569 0.3225 -0.5683
vn 0.9088 0.1797 -0.3764
vn 0.9073 0.1886 -0.3758
vn 0.7981 0.2199 -0.5609
vn 0.7998 0.2105 -0.5621
vn 0.8965 0.1797 -0.4048
vn 0.8965 0.1796 -0.4048
vn 0.7530 0.3164 -0.5769
vn 0.7666 0.3754 -0.5210
vn 0.8259 0.2105 -0.5231
vn 0.8209 0.1882 -0.5392
vn 0.7978 0.3754 -0.4718
vn 0.8258 0.3754 -0.4208
vn 0.8909 0.1797 -0.4171
vn 0.8447 0.3754 -0.3814
vn 0.8551 0.3460 -0.3861
vn 0.8622 0.3239 -0.3893
vn 0.8953 0.2468 -0.3708
vn 0.9000 0.2258 -0.3728
vn 0.9047 0.2028 -0.3747
vn 0.9062 0.1949 -0.3753
vn 0.8858 0.1641 -0.4339
vn 0.7743 0.2496 -0.5814
vn 0.7502 0.3463 -0.5632
vn 0.7729 0.2563 -0.5803
vn 0.8718 0.1642 -0.4616
vn 0.8644 0.1642 -0.4752
vn 0.8568 0.1641 -0.4887
vn 0.7676 0.2803 -0.5763
vn 0.8231 0.1732 -0.5407
vn 0.8234 0.1718 -0.5408
vn 0.7634 0.2977 -0.5732
vn 0.8362 0.1950 -0.5125
vn 0.8363 0.1950 -0.5123
vn 0.7547 0.3015 -0.5826
vn 0.9000 0.1574 -0.4064
vn 0.9012 0.1488 -0.4069
vn 0.8029 0.1924 -0.5642
vn 0.7442 0.3019 -0.5958
vn 0.8007 0.2052 -0.5628
vn 0.8974 0.1745 -0.4052
vn 0.8995 0.1797 -0.3982
vn 0.7997 0.2103 -0.5623
usemtl None
s 1
f 219//1 5//2 6//3
f 149//4 12//5 2//6
f 3//7 12//5 13//8
f 3//7 14//9 4//10
f 5//2 14//9 15//11
f 5//2 16//12 6//3
f 7//13 16//12 17//14
f 7//13 18//15 8//16
f 9//17 18//15 19//18
f 10//19 19//18 20//20
f 11//21 20//20 21//22
f 189//23 136//24 25//25
f 13//8 25//25 26//26
f 13//8 27//27 14//9
f 15//11 27//27 28//28
f 15//11 29//29 16//12
f 17//14 29//29 30//30
f 17//14 31//31 18//15
f 19//18 31//31 32//32
f 20//20 32//32 33//33
f 21//22 33//33 34//34
f 21//22 35//35 22//36
f 22//36 35//35 220//37
f 23//38 98//39 207//40
f 136//24 36//41 25//25
f 26//26 36//41 37//42
f 26//26 38//43 27//27
f 28//28 38//43 39//44
f 28//28 40//45 29//29
f 30//30 40//45 41//46
f 30//30 42//47 31//31
f 32//32 42//47 43//48
f 33//33 43//48 44//49
f 34//34 44//49 45//50
f 34//34 46//51 35//35
f 215//52 155//53 50//54
f 37//42 50//54 51//55
f 37//42 52//56 38//43
f 39//44 52//56 53//57
f 39//44 54//58 40//45
f 41//46 54//58 55//59
f 41//46 56//60 42//47
f 43//48 56//60 57//61
f 43//48 58//62 44//49
f 45//50 58//62 59//63
f 45//50 60//64 46//51
f 47//65 60//64 61//66
f 47//65 62//67 48//68
f 187//69 144//70 48//68
f 62//67 77//71 63//72
f 155//53 64//73 50//54
f 51//55 64//73 65//74
f 51//55 66//75 52//56
f 53//57 66//75 67//76
f 53//57 68//77 54//58
f 55//59 68//77 69//78
f 55//59 70//79 56//60
f 57//61 70//79 71//80
f 58//62 71//80 72//81
f 59//63 72//81 73//82
f 59//63 74//83 60//64
f 61//66 74//83 75//84
f 61//66 76//85 62//67
f 64//73 147//86 78//87
f 65//74 78//87 79//88
f 65//74 80//89 66//75
f 67//76 80//89 81//90
f 67//76 82//91 68//77
f 69//78 82//91 83//92
f 69//78 84//93 70//79
f 71//80 84//93 85//94
f 71//80 86//95 72//81
f 73//82 86//95 87//96
f 73//82 88//97 74//83
f 75//84 88//97 89//98
f 75//84 90//99 76//85
f 167//100 113//101 76//85
f 147//86 150//102 78//87
f 78//87 103//103 79//88
f 80//89 205//104 118//105
f 80//89 118//105 194//106
f 81//90 140//107 82//91
f 82//91 97//108 83//92
f 83//92 110//109 84//93
f 229//110 129//111 91//112
f 85//94 92//113 86//95
f 87//96 92//113 93//114
f 87//96 94//115 88//97
f 89//98 94//115 95//116
f 89//98 96//117 90//99
f 91//112 224//118 100//119
f 91//112 100//119 208//120
f 201//121 200//122 126//123
f 191//124 192//124 133//125
f 94//115 134//126 179//127
f 165//128 164//128 96//117
f 160//129 154//130 77//71
f 162//131 10//19 11//21
f 128//132 3//7 4//10
f 157//133 11//21 21//22
f 169//134 9//17 10//19
f 2//6 3//7 172//135
f 63//72 77//71 174//136
f 176//137 143//138 63//72
f 144//70 135//139 49//140
f 132//141 180//142 133//125
f 182//143 120//144 49//140
f 148//145 8//16 9//17
f 183//146 2//6 116//147
f 184//148 186//149 185//148
f 190//150 105//151 48//68
f 196//152 195//153 7//13
f 111//154 198//155 197//156
f 152//157 47//65 105//151
f 1//158 6//3 206//159
f 46//51 47//65 209//160
f 211//161 210//162 159//163
f 216//164 24//165 111//154
f 218//166 99//167 1//158
f 145//168 223//169 146//170
f 225//171 23//38 24//165
f 227//172 141//173 228//172
f 230//174 1//158 99//167
f 157//133 115//175 11//21
f 137//176 5//2 156//177
f 232//178 96//117 106//179
f 151//180 22//36 234//181
f 96//117 236//182 235//183
f 6//3 1//158 219//1
f 1//158 107//184 219//1
f 219//1 156//177 5//2
f 149//4 117//185 12//5
f 3//7 2//6 12//5
f 3//7 13//8 14//9
f 5//2 4//10 14//9
f 5//2 15//11 16//12
f 7//13 6//3 16//12
f 7//13 17//14 18//15
f 9//17 8//16 18//15
f 10//19 9//17 19//18
f 11//21 10//19 20//20
f 25//25 12//5 189//23
f 12//5 117//185 189//23
f 13//8 12//5 25//25
f 13//8 26//26 27//27
f 15//11 14//9 27//27
f 15//11 28//28 29//29
f 17//14 16//12 29//29
f 17//14 30//30 31//31
f 19//18 18//15 31//31
f 20//20 19//18 32//32
f 21//22 20//20 33//33
f 21//22 34//34 35//35
f 98//39 23//38 220//37
f 23//38 22//36 220//37
f 35//35 123//186 221//37
f 123//186 222//37 221//37
f 35//35 221//37 220//37
f 112//187 24//165 207//40
f 24//165 23//38 207//40
f 136//24 108//188 36//41
f 26//26 25//25 36//41
f 26//26 37//42 38//43
f 28//28 27//27 38//43
f 28//28 39//44 40//45
f 30//30 29//29 40//45
f 30//30 41//46 42//47
f 32//32 31//31 42//47
f 33//33 32//32 43//48
f 34//34 33//33 44//49
f 34//34 45//50 46//51
f 50//54 36//41 215//52
f 36//41 108//188 215//52
f 37//42 36//41 50//54
f 37//42 51//55 52//56
f 39//44 38//43 52//56
f 39//44 53//57 54//58
f 41//46 40//45 54//58
f 41//46 55//59 56//60
f 43//48 42//47 56//60
f 43//48 57//61 58//62
f 45//50 44//49 58//62
f 45//50 59//63 60//64
f 47//65 46//51 60//64
f 47//65 61//66 62//67
f 144//70 49//140 48//68
f 48//68 62//67 187//69
f 62//67 63//72 188//69
f 187//69 62//67 188//69
f 63//72 143//138 188//69
f 62//67 76//85 77//71
f 155//53 121//189 64//73
f 51//55 50//54 64//73
f 51//55 65//74 66//75
f 53//57 52//56 66//75
f 53//57 67//76 68//77
f 55//59 54//58 68//77
f 55//59 69//78 70//79
f 57//61 56//60 70//79
f 58//62 57//61 71//80
f 59//63 58//62 72//81
f 59//63 73//82 74//83
f 61//66 60//64 74//83
f 61//66 75//84 76//85
f 64//73 121//189 147//86
f 65//74 64//73 78//87
f 65//74 79//88 80//89
f 67//76 66//75 80//89
f 67//76 81//90 82//91
f 69//78 68//77 82//91
f 69//78 83//92 84//93
f 71//80 70//79 84//93
f 71//80 85//94 86//95
f 73//82 72//81 86//95
f 73//82 87//96 88//97
f 75//84 74//83 88//97
f 75//84 89//98 90//99
f 113//101 77//71 76//85
f 76//85 90//99 168//100
f 90//99 139//190 168//100
f 168//100 167//100 76//85
f 147//86 231//191 150//102
f 78//87 150//102 103//103
f 80//89 79//88 205//104
f 79//88 103//103 205//104
f 205//104 204//192 118//105
f 130//193 81//90 194//106
f 81//90 80//89 194//106
f 81//90 130//193 140//107
f 82//91 140//107 97//108
f 83//92 97//108 110//109
f 91//112 85//94 229//110
f 85//94 84//93 229//110
f 84//93 110//109 229//110
f 85//94 91//112 92//113
f 87//96 86//95 92//113
f 87//96 93//114 94//115
f 89//98 88//97 94//115
f 89//98 95//116 96//117
f 91//112 129//111 224//118
f 114//194 92//113 208//120
f 92//113 91//112 208//120
f 126//123 93//114 201//121
f 93//114 92//113 201//121
f 92//113 114//194 201//121
f 114//194 202//121 201//121
f 134//126 94//115 191//124
f 94//115 93//114 193//195
f 191//124 94//115 193//195
f 93//114 126//123 193//195
f 193//195 192//124 191//124
f 192//124 132//141 133//125
f 153//196 95//116 179//127
f 95//116 94//115 179//127
f 106//179 96//117 164//128
f 96//117 95//116 165//128
f 95//116 153//196 165//128
f 153//196 166//197 165//128
f 77//71 113//101 161//198
f 161//198 160//129 77//71
f 11//21 115//175 162//131
f 162//131 101//199 10//19
f 4//10 137//176 163//200
f 163//200 128//132 4//10
f 22//36 151//180 21//22
f 151//180 157//133 21//22
f 10//19 101//199 170//201
f 169//134 148//145 9//17
f 10//19 170//201 169//134
f 3//7 128//132 172//135
f 172//135 171//135 116//147
f 116//147 2//6 172//135
f 77//71 154//130 175//202
f 174//136 173//202 63//72
f 173//202 127//203 63//72
f 77//71 175//202 174//136
f 63//72 127//203 177//204
f 127//203 178//204 177//204
f 177//204 176//137 63//72
f 49//140 135//139 182//143
f 182//143 181//143 120//144
f 148//145 131//205 8//16
f 183//146 149//4 2//6
f 125//206 124//207 185//148
f 124//207 184//148 185//148
f 49//140 120//144 48//68
f 120//144 190//150 48//68
f 8//16 131//205 196//152
f 195//153 122//208 7//13
f 8//16 196//152 7//13
f 124//207 125//206 197//156
f 125//206 111//154 197//156
f 111//154 24//165 198//155
f 24//165 112//187 199//156
f 198//155 24//165 199//156
f 48//68 105//151 47//65
f 105//151 102//209 203//210
f 152//157 105//151 203//210
f 7//13 122//208 6//3
f 122//208 206//159 6//3
f 206//159 138//211 1//158
f 47//65 152//157 209//160
f 209//160 123//186 35//35
f 35//35 46//51 209//160
f 159//163 158//212 211//161
f 158//212 214//161 213//161
f 211//161 158//212 213//161
f 213//161 212//213 211//161
f 216//164 119//214 24//165
f 1//158 138//211 218//166
f 218//166 217//215 99//167
f 24//165 119//214 225//171
f 119//214 226//171 225//171
f 225//171 104//216 23//38
f 158//212 159//163 146//170
f 159//163 227//172 228//172
f 146//170 159//163 145//168
f 227//172 142//217 141//173
f 228//172 145//168 159//163
f 230//174 107//184 1//158
f 137//176 4//10 5//2
f 232//178 109//218 96//117
f 23//38 104//216 22//36
f 104//216 234//181 22//36
f 234//181 233//219 151//180
f 141//173 142//217 236//182
f 142//217 235//183 236//182
f 235//183 139//190 90//99
f 90//99 96//117 235//183
f 96//117 109//218 236//182
