# Blender v2.81 (sub 16) OBJ File: ''
# www.blender.org
mtllib Suriname.mtl
o 0_Suriname_sphere.001
v 2.797936 0.470539 4.117046
v 2.801749 0.392293 4.122654
v 2.804864 0.313950 4.127241
v 2.807290 0.235530 4.130809
v 2.670871 0.392293 4.208625
v 2.673841 0.313950 4.213307
v 2.649520 0.392293 4.221709
v 2.932061 0.313950 4.037845
v 2.915022 0.235530 4.055094
v 2.661697 0.313950 4.220748
v 2.712438 0.235530 4.193115
v 2.669062 0.431229 4.205776
v 2.923956 0.502421 4.024488
v 2.924376 0.495437 4.025067
v 2.807728 0.215669 4.131454
v 2.913511 0.470539 4.035819
v 2.692709 0.470539 4.186167
v 2.674522 0.290831 4.214381
v 2.899024 0.392293 4.054287
v 2.795153 0.518891 4.112951
v 2.785241 0.502903 4.121420
v 2.792167 0.518556 4.114953
v 2.697348 0.520273 4.177027
v 2.689821 0.442136 4.191010
v 2.795042 0.218980 4.139632
v 2.788294 0.193721 4.145250
v 2.800887 0.176398 4.137792
v 2.794722 0.158577 4.142678
v 2.754934 0.165689 4.168480
v 2.921314 0.278187 4.047804
v 2.916343 0.238328 4.053978
v 2.926939 0.501489 4.022368
v 2.639300 0.354040 4.231146
v 2.708760 0.241507 4.195138
v 2.697725 0.290701 4.199148
v 2.849308 0.524784 4.074152
v 2.894070 0.426755 4.054120
v 2.902463 0.367252 4.054037
v 2.932574 0.315696 4.037334
v 2.899022 0.201645 4.067965
v 2.857757 0.220119 4.096079
v 2.824247 0.211225 4.120058
v 2.651252 0.398948 4.219971
v 2.646297 0.419457 4.220922
vn 0.5596 0.0941 0.8234
vn 0.5461 0.1018 0.8315
vn 0.5466 0.0932 0.8321
vn 0.5470 0.0863 0.8327
vn 0.5372 0.0863 0.8390
vn 0.5342 0.0785 0.8417
vn 0.5610 0.0627 0.8254
vn 0.5347 0.0627 0.8426
vn 0.5481 0.0549 0.8346
vn 0.5483 0.0501 0.8348
vn 0.5205 0.0863 0.8495
vn 0.5209 0.0767 0.8501
vn 0.5212 0.0706 0.8505
vn 0.5486 0.0392 0.8351
vn 0.5634 0.0392 0.8252
vn 0.5614 0.0471 0.8261
vn 0.5741 0.0549 0.8169
vn 0.5763 0.1018 0.8108
vn 0.5972 0.1019 0.7956
vn 0.5827 0.1019 0.8063
vn 0.5213 0.0655 0.8508
vn 0.5414 0.0549 0.8390
vn 0.5720 0.1018 0.8139
vn 0.5599 0.1019 0.8223
vn 0.5728 0.0863 0.8151
vn 0.5603 0.0785 0.8245
vn 0.5736 0.0706 0.8161
vn 0.5745 0.0392 0.8175
vn 0.5742 0.0498 0.8171
vn 0.5461 0.1019 0.8315
vn 0.5462 0.1019 0.8314
vn 0.5482 0.0549 0.8345
vn 0.5486 0.0392 0.8352
vn 0.5738 0.0551 0.8171
vn 0.5738 0.0647 0.8164
vn 0.5723 0.0968 0.8143
vn 0.5733 0.0779 0.8156
vn 0.5736 0.0707 0.8161
usemtl None
s 1
f 1//1 21//2 17//3
f 24//4 12//5 5//6
f 3//7 5//6 6//8
f 34//9 11//10 3//7
f 12//5 44//11 43//11
f 5//6 7//12 33//13
f 25//14 15//15 4//16
f 30//17 3//7 4//16
f 14//18 32//19 13//20
f 10//21 18//22 6//8
f 36//23 20//24 1//1
f 37//25 1//1 2//26
f 38//27 2//26 3//7
f 41//28 9//29 4//16
f 1//1 20//24 21//2
f 20//24 22//30 21//2
f 21//2 23//31 17//3
f 5//6 2//26 24//4
f 2//26 1//1 24//4
f 1//1 17//3 24//4
f 3//7 2//26 5//6
f 11//10 4//16 3//7
f 3//7 6//8 35//32
f 6//8 18//22 35//32
f 35//32 34//9 3//7
f 7//12 5//6 43//11
f 5//6 12//5 43//11
f 10//21 6//8 33//13
f 6//8 5//6 33//13
f 4//16 11//10 25//14
f 11//10 29//14 26//14
f 25//14 11//10 26//14
f 29//14 28//14 26//14
f 28//14 27//33 26//14
f 4//16 9//29 30//17
f 9//29 31//34 30//17
f 30//17 8//35 3//7
f 1//1 16//36 36//23
f 16//36 14//18 13//20
f 36//23 16//36 13//20
f 2//26 19//37 37//25
f 37//25 16//36 1//1
f 3//7 8//35 38//27
f 8//35 39//38 38//27
f 38//27 19//37 2//26
f 4//16 15//15 42//28
f 41//28 40//28 9//29
f 4//16 42//28 41//28
