# Blender v2.81 (sub 16) OBJ File: ''
# www.blender.org
mtllib Switzerland.mtl
o 0_Switzerland_sphere.001
v 3.380599 3.644842 -0.535428
v 3.395750 3.644842 -0.428977
v 3.452130 3.590631 -0.436099
v 3.365963 3.644842 -0.619291
v 3.424248 3.602685 -0.542341
v 3.457427 3.585375 -0.436768
v 3.446269 3.590631 -0.477284
v 3.402718 3.644842 -0.365862
v 3.328589 3.698155 -0.491609
v 3.323740 3.698155 -0.525678
v 3.323843 3.697961 -0.526439
v 3.453292 3.590631 -0.425577
v 3.354097 3.683651 -0.423715
v 3.448926 3.595990 -0.413923
v 3.423772 3.622339 -0.390092
v 3.436753 3.612910 -0.362579
v 3.408240 3.640170 -0.360465
v 3.341480 3.693346 -0.437941
v 3.334963 3.692849 -0.487551
v 3.452220 3.585814 -0.470190
v 3.459123 3.583063 -0.441518
v 3.386399 3.625634 -0.619292
v 3.401495 3.615420 -0.595071
v 3.401220 3.623097 -0.549846
v 3.319341 3.705622 -0.497423
v 3.428481 3.598872 -0.540956
v 3.434705 3.596791 -0.512707
v 3.426309 3.606313 -0.500863
v 3.339706 3.677092 -0.566847
v 3.356706 3.662614 -0.560522
v 3.363610 3.651798 -0.589017
v 3.360022 3.650255 -0.619276
v 3.328873 3.687617 -0.562699
v 3.367700 3.673587 -0.399705
v 3.351733 3.688645 -0.395901
v 3.354481 3.683341 -0.423305
vn 0.6727 0.7343 -0.0906
vn 0.6792 0.7289 -0.0858
vn 0.6720 0.7343 -0.0956
vn 0.6747 0.7342 -0.0751
vn 0.6747 0.7343 -0.0745
vn 0.6861 0.7235 -0.0757
vn 0.6946 0.7126 -0.0988
vn 0.6860 0.7210 -0.0976
vn 0.6905 0.7181 -0.0872
vn 0.6761 0.7289 -0.1071
vn 0.6800 0.7235 -0.1187
vn 0.6739 0.7293 -0.1176
vn 0.6712 0.7351 -0.0954
vn 0.6605 0.7448 -0.0940
vn 0.6684 0.7377 -0.0951
vn 0.6884 0.7213 -0.0760
vn 0.6954 0.7126 -0.0922
vn 0.6834 0.7235 -0.0973
vn 0.6687 0.7342 -0.1167
vn 0.6687 0.7343 -0.1167
vn 0.6709 0.7342 -0.1035
vn 0.6831 0.7264 -0.0754
vn 0.6830 0.7235 -0.0997
vn 0.6833 0.7236 -0.0972
vn 0.6688 0.7342 -0.1167
usemtl None
s 1
f 13//1 2//2 19//3
f 2//2 36//4 34//5
f 15//6 14//6 2//2
f 20//7 7//8 3//9
f 1//10 23//11 4//12
f 10//13 25//14 9//15
f 12//16 6//17 3//9
f 1//10 2//2 28//18
f 1//10 31//19 30//20
f 2//2 1//10 19//3
f 1//10 11//21 19//3
f 11//21 10//13 19//3
f 10//13 9//15 19//3
f 19//3 18//3 13//1
f 2//2 13//1 36//4
f 36//4 35//5 34//5
f 34//5 8//22 2//2
f 12//16 3//9 14//6
f 3//9 2//2 14//6
f 2//2 8//22 15//6
f 8//22 17//6 15//6
f 17//6 16//6 15//6
f 3//9 6//17 21//7
f 21//7 20//7 3//9
f 1//10 5//23 24//11
f 24//11 23//11 1//10
f 23//11 22//11 4//12
f 3//9 7//8 2//2
f 7//8 28//18 2//2
f 28//18 27//18 5//23
f 27//18 26//24 5//23
f 5//23 1//10 28//18
f 1//10 4//12 31//19
f 4//12 32//25 31//19
f 33//25 11//21 29//20
f 11//21 1//10 30//20
f 30//20 29//20 11//21
