# Blender v2.81 (sub 16) OBJ File: ''
# www.blender.org
mtllib Tajikistan.mtl
o 0_Tajikistan_sphere.001
v 1.088667 3.126212 -3.747212
v 1.102233 3.064534 -3.793905
v 1.205833 3.126212 -3.711167
v 1.220858 3.064534 -3.757411
v 1.235582 3.002100 -3.802726
v 1.287893 3.247239 -3.577256
v 1.321808 3.126212 -3.671459
v 1.338279 3.064534 -3.717208
v 1.436480 3.126212 -3.628129
v 1.454379 3.064534 -3.673337
v 1.030422 3.064534 -3.813550
v 1.228016 3.002100 -3.805054
v 1.195643 3.166714 -3.679807
v 1.107578 3.039429 -3.812304
v 1.280505 3.272374 -3.556735
v 1.467210 3.018862 -3.705745
v 1.258882 3.002100 -3.794749
v 1.285008 3.187119 -3.631654
v 1.282290 3.187119 -3.632585
v 1.297287 3.214248 -3.603349
v 1.467607 3.064534 -3.667858
v 1.348898 3.247239 -3.554204
v 1.305374 3.185808 -3.625809
v 1.236664 2.997361 -3.806055
v 1.406027 3.187119 -3.586635
v 1.350471 3.187119 -3.607627
v 1.083668 3.126212 -3.748580
v 1.084373 3.145118 -3.732431
v 1.419406 3.183181 -3.585006
v 1.340643 3.055392 -3.723773
v 1.332578 3.064534 -3.719160
v 1.251511 3.064534 -3.746916
v 1.271561 3.247239 -3.582848
v 1.446882 3.126212 -3.623820
v 1.209753 3.165336 -3.676162
v 1.248987 3.071602 -3.741891
v 1.267874 3.074811 -3.732751
v 1.255513 3.095757 -3.719531
v 1.286552 3.111354 -3.695910
v 1.320675 3.087640 -3.703984
v 1.142495 3.043170 -3.798575
v 1.190828 3.012125 -3.808491
v 1.221947 3.005383 -3.804300
v 1.248477 2.990670 -3.807234
v 1.269242 3.013380 -3.782104
v 1.334852 3.059990 -3.722046
v 1.337406 3.262058 -3.544801
v 1.446488 3.139761 -3.612045
v 1.487534 3.155778 -3.580931
v 1.462106 3.185571 -3.565213
v 1.447787 3.089007 -3.655188
v 1.486590 3.010502 -3.704623
v 1.503870 3.018893 -3.690536
v 1.085479 3.175635 -3.706101
v 1.335497 3.220528 -3.583268
v 1.370046 3.219416 -3.571211
v 1.352745 3.181928 -3.611285
v 1.411013 3.182558 -3.588720
v 1.083124 3.112861 -3.759639
v 1.059999 3.119641 -3.760425
v 1.023272 3.103971 -3.783278
v 1.031059 3.077329 -3.802920
v 1.028989 3.037966 -3.834960
v 1.097895 3.038226 -3.815904
v 1.347477 3.049797 -3.725754
v 1.385828 3.051059 -3.710233
v 1.415297 3.019297 -3.725007
v 1.433509 3.032760 -3.707143
v 1.249931 3.277418 -3.562577
v 1.270330 3.209379 -3.616904
v 1.282772 3.187262 -3.632293
v 1.271787 3.246920 -3.583054
v 1.267976 3.228282 -3.600917
v 1.241515 3.229948 -3.608496
vn 0.2264 0.6313 -0.7417
vn 0.2388 0.6313 -0.7378
vn 0.2412 0.6252 -0.7422
vn 0.2177 0.6252 -0.7494
vn 0.2442 0.6128 -0.7515
vn 0.2204 0.6128 -0.7588
vn 0.2511 0.6316 -0.7335
vn 0.2620 0.6313 -0.7299
vn 0.2644 0.6252 -0.7343
vn 0.2544 0.6190 -0.7430
vn 0.2560 0.6125 -0.7478
vn 0.2575 0.6066 -0.7521
vn 0.2576 0.6494 -0.7155
vn 0.2670 0.6554 -0.7065
vn 0.2692 0.6480 -0.7124
vn 0.2741 0.6313 -0.7255
vn 0.2873 0.6252 -0.7256
vn 0.2676 0.6128 -0.7435
vn 0.2909 0.6128 -0.7347
vn 0.2968 0.6313 -0.7165
vn 0.2999 0.6192 -0.7257
vn 0.2471 0.6004 -0.7606
vn 0.2337 0.6066 -0.7598
vn 0.2605 0.5940 -0.7610
vn 0.2583 0.6034 -0.7544
vn 0.2758 0.6066 -0.7456
vn 0.3042 0.6066 -0.7345
vn 0.2964 0.6066 -0.7376
vn 0.2706 0.6434 -0.7161
vn 0.2072 0.6190 -0.7575
vn 0.2098 0.6066 -0.7668
vn 0.2087 0.6120 -0.7628
vn 0.2061 0.6244 -0.7534
vn 0.2534 0.5941 -0.7634
vn 0.2343 0.6041 -0.7617
vn 0.2810 0.6066 -0.7436
vn 0.2459 0.6507 -0.7183
vn 0.2542 0.6554 -0.7112
vn 0.2508 0.6324 -0.7329
vn 0.2475 0.6418 -0.7258
vn 0.2480 0.6434 -0.7242
vn 0.2479 0.6435 -0.7241
vn 0.2280 0.6313 -0.7412
vn 0.2512 0.6313 -0.7337
vn 0.2557 0.6137 -0.7470
vn 0.2722 0.6379 -0.7204
vn 0.2730 0.6351 -0.7226
vn 0.2860 0.6313 -0.7208
vn 0.2984 0.6261 -0.7204
vn 0.3029 0.6112 -0.7312
vn 0.2207 0.6066 -0.7637
vn 0.2579 0.6435 -0.7207
vn 0.2810 0.6066 -0.7437
vn 0.2447 0.6553 -0.7146
vn 0.2479 0.6434 -0.7242
usemtl None
s 1
f 28//1 13//2 3//3
f 1//4 4//5 2//6
f 18//7 23//8 7//9
f 3//3 39//10 38//10
f 4//5 32//11 45//12
f 6//13 47//14 22//15
f 57//16 58//16 9//17
f 8//18 9//17 10//19
f 50//20 49//20 48//20
f 10//19 9//17 51//21
f 4//5 5//22 43//23
f 44//24 5//22 17//25
f 46//12 8//18 30//26
f 53//27 52//27 16//28
f 22//15 56//29 55//29
f 62//30 59//30 2//6
f 64//31 11//32 2//6
f 27//33 28//1 1//4
f 24//34 12//35 5//22
f 10//19 68//36 66//36
f 33//37 15//38 6//13
f 19//39 71//40 18//7
f 73//41 72//42 6//13
f 3//3 1//4 28//1
f 28//1 54//43 13//2
f 1//4 3//3 4//5
f 7//9 3//3 35//44
f 3//3 13//2 35//44
f 35//44 19//39 7//9
f 19//39 18//7 7//9
f 32//11 4//5 36//10
f 4//5 3//3 38//10
f 36//10 4//5 38//10
f 7//9 8//18 40//10
f 8//18 31//45 40//10
f 38//10 37//10 36//10
f 7//9 40//10 39//10
f 3//3 7//9 39//10
f 17//25 5//22 45//12
f 5//22 4//5 45//12
f 6//13 15//38 47//14
f 9//17 7//9 57//16
f 7//9 23//8 57//16
f 57//16 26//46 25//47
f 58//16 29//48 9//17
f 57//16 25//47 58//16
f 8//18 7//9 9//17
f 34//49 9//17 48//20
f 9//17 29//48 48//20
f 29//48 50//20 48//20
f 9//17 34//49 51//21
f 51//21 21//50 10//19
f 5//22 12//35 43//23
f 43//23 42//23 4//5
f 42//23 41//23 4//5
f 41//23 14//51 2//6
f 2//6 4//5 41//23
f 44//24 24//34 5//22
f 46//12 31//45 8//18
f 10//19 21//50 16//28
f 21//50 53//27 16//28
f 25//47 26//46 56//29
f 26//46 55//29 56//29
f 55//29 20//52 6//13
f 6//13 22//15 55//29
f 2//6 11//32 62//30
f 62//30 61//30 60//30
f 59//30 27//33 1//4
f 62//30 60//30 59//30
f 59//30 1//4 2//6
f 2//6 14//51 64//31
f 64//31 63//31 11//32
f 10//19 16//28 68//36
f 68//36 67//36 66//36
f 66//36 65//53 8//18
f 65//53 30//26 8//18
f 8//18 10//19 66//36
f 33//37 69//54 15//38
f 6//13 20//52 73//41
f 20//52 70//41 73//41
f 70//41 74//55 73//41
f 72//42 33//37 6//13
