# Blender v2.81 (sub 16) OBJ File: ''
# www.blender.org
mtllib Togo.mtl
o 0_Togo_sphere.001
v 4.967351 0.548669 -0.156100
v 4.911432 0.936904 0.000006
v 4.911395 0.936904 0.002383
v 4.968675 0.548669 -0.071817
v 4.937865 0.782170 -0.036376
v 4.936187 0.782170 -0.143219
v 4.967093 0.550853 -0.156092
v 4.967315 0.548669 -0.156880
v 4.968909 0.533455 -0.156149
v 4.949222 0.704504 -0.057015
v 4.947886 0.704504 -0.142002
v 4.910285 0.936904 -0.073028
v 4.909430 0.946971 0.000006
v 4.959858 0.626664 -0.045414
v 4.958361 0.626664 -0.140766
v 4.925049 0.859643 -0.031537
v 4.923721 0.859643 -0.116068
v 4.913853 0.923647 0.000006
v 4.971668 0.516355 -0.092000
v 4.968851 0.546838 -0.072585
v 4.920493 0.884584 -0.031563
v 4.915567 0.908564 -0.066262
v 4.919784 0.883222 -0.092558
v 4.946408 0.722744 -0.061472
v 4.942012 0.754242 -0.039776
v 4.962737 0.601817 -0.049402
v 4.962147 0.594742 -0.140253
v 4.907679 0.955615 -0.002038
v 4.906880 0.953707 -0.077046
v 4.912827 0.928896 0.004271
v 4.931290 0.822140 -0.031488
v 4.924699 0.853157 -0.122517
v 4.931675 0.810910 -0.125962
v 4.934346 0.793214 -0.143389
v 4.968490 0.534943 -0.161806
v 4.957455 0.644907 -0.042475
vn 0.9929 0.1175 -0.0156
vn 0.9936 0.1116 -0.0156
vn 0.9823 0.1872 0.0000
vn 0.9807 0.1950 -0.0132
vn 0.9824 0.1860 0.0154
vn 0.9947 0.1019 -0.0156
vn 0.9944 0.1019 -0.0286
vn 0.9935 0.1096 -0.0312
vn 0.9837 0.1796 -0.0088
vn 0.9836 0.1796 -0.0154
vn 0.9836 0.1797 -0.0154
vn 0.9930 0.1079 -0.0468
vn 0.9929 0.1175 -0.0190
vn 0.9875 0.1565 -0.0155
vn 0.9887 0.1487 -0.0155
vn 0.9819 0.1885 -0.0154
vn 0.9807 0.1951 -0.0154
vn 0.9836 0.1797 0.0154
vn 0.9863 0.1641 -0.0155
vn 0.9856 0.1681 -0.0155
vn 0.9910 0.1331 -0.0156
vn 0.9920 0.1254 -0.0156
vn 0.9901 0.1397 -0.0155
vn 0.9919 0.1260 -0.0156
vn 0.9947 0.1018 -0.0156
vn 0.9850 0.1718 -0.0154
vn 0.9899 0.1410 -0.0155
vn 0.9875 0.1570 -0.0155
vn 0.9807 0.1950 -0.0154
vn 0.9863 0.1642 -0.0155
vn 0.9937 0.1019 -0.0468
usemtl None
s 1
f 26//1 4//2 27//1
f 2//3 13//4 3//5
f 19//6 9//7 1//8
f 18//9 21//10 22//11
f 8//12 7//13 1//8
f 6//14 25//15 24//15
f 13//4 12//16 28//17
f 30//18 2//3 3//5
f 33//19 17//20 31//19
f 9//7 8//12 1//8
f 36//21 15//22 10//23
f 4//2 1//8 7//13
f 27//1 15//22 26//1
f 15//22 14//24 26//1
f 4//2 7//13 27//1
f 1//8 4//2 20//25
f 20//25 19//6 1//8
f 16//26 17//20 23//11
f 22//11 12//16 2//3
f 16//26 23//11 21//10
f 23//11 22//11 21//10
f 2//3 18//9 22//11
f 10//23 11//27 24//15
f 11//27 6//14 24//15
f 6//14 5//28 25//15
f 2//3 12//16 13//4
f 12//16 29//29 28//17
f 30//18 18//9 2//3
f 5//28 6//14 33//19
f 6//14 34//30 33//19
f 33//19 32//19 17//20
f 16//26 31//19 17//20
f 31//19 5//28 33//19
f 9//7 35//31 8//12
f 14//24 15//22 36//21
f 15//22 11//27 10//23
