# Blender v2.81 (sub 16) OBJ File: ''
# www.blender.org
mtllib Trinidad and Tobago.mtl
o 0_Trinidad_and_Tobago_sphere.001
v 2.366095 0.936904 4.303920
v 2.388598 0.936904 4.291085
v 2.365534 0.942765 4.302899
v 2.343354 0.936904 4.315961
v 2.371572 0.874690 4.313879
v 2.328856 0.868130 4.337852
v 2.314527 0.875856 4.343841
v 2.334503 0.899478 4.328382
v 2.330046 0.933386 4.323734
v 2.391093 0.877619 4.302128
v 2.372436 0.944591 4.298544
v 2.388369 0.941558 4.290150
vn 0.4732 0.1873 0.8608
vn 0.4744 0.1950 0.8584
vn 0.4602 0.1808 0.8692
vn 0.4727 0.1797 0.8627
vn 0.4603 0.1797 0.8694
vn 0.4874 0.1797 0.8545
vn 0.4859 0.1950 0.8520
vn 0.4866 0.1876 0.8532
vn 0.4859 0.1951 0.8519
usemtl None
s 1
f 1//1 3//2 4//3
f 5//4 1//1 8//5
f 10//6 1//1 5//4
f 11//7 3//2 1//1
f 1//1 4//3 8//5
f 4//3 9//5 8//5
f 8//5 7//5 6//5
f 6//5 5//4 8//5
f 10//6 2//8 1//1
f 1//1 2//8 11//7
f 2//8 12//9 11//7
