# Blender v2.81 (sub 16) OBJ File: ''
# www.blender.org
mtllib Turkey.mtl
o 0_Turkey_sphere.001
v 2.771563 3.247239 -2.602666
v 2.808403 3.187119 -2.637260
v 2.844549 3.126212 -2.671204
v 2.879994 3.064534 -2.704489
v 2.813336 3.306558 -2.480283
v 2.851948 3.247239 -2.514324
v 2.889856 3.187119 -2.547745
v 2.927050 3.126212 -2.580537
v 2.963523 3.064534 -2.612691
v 2.929518 3.247239 -2.423502
v 2.968457 3.187119 -2.455715
v 3.006663 3.126212 -2.487322
v 3.044128 3.064534 -2.518316
v 3.080842 3.002100 -2.548687
v 3.004196 3.247239 -2.330288
v 3.044128 3.187119 -2.361262
v 3.083308 3.126212 -2.391653
v 3.121728 3.064534 -2.421454
v 3.159378 3.002100 -2.450658
v 3.034266 3.306558 -2.204517
v 3.075910 3.247239 -2.234774
v 3.116795 3.187119 -2.264478
v 3.156910 3.126212 -2.293624
v 3.196248 3.064534 -2.322204
v 3.234796 3.002100 -2.350211
v 3.102015 3.306558 -2.108121
v 3.144588 3.247239 -2.137054
v 3.186386 3.187119 -2.165460
v 3.227397 3.126212 -2.193331
v 3.267613 3.064534 -2.220661
v 3.307022 3.002100 -2.247444
v 3.166702 3.306558 -2.009644
v 3.210163 3.247239 -2.037226
v 3.252833 3.187119 -2.064304
v 3.294699 3.126212 -2.090874
v 3.335753 3.064534 -2.116927
v 3.375984 3.002100 -2.142458
v 3.272570 3.247239 -1.935387
v 3.316069 3.187119 -1.961112
v 3.358749 3.126212 -1.986353
v 3.400602 3.064534 -2.011104
v 3.441615 3.002100 -2.035359
v 3.376033 3.187119 -1.855984
v 3.419485 3.126212 -1.879872
v 3.462094 3.064534 -1.903296
v 3.503849 3.002100 -1.926251
v 3.432665 3.187119 -1.749024
v 3.476846 3.126212 -1.771536
v 3.520170 3.064534 -1.793610
v 2.819910 3.306558 -2.472587
v 3.488047 3.126212 -1.748671
v 3.272282 2.938925 -2.377990
v 3.256836 2.938925 -2.398561
v 3.524530 3.064534 -1.784710
v 3.525307 3.056980 -1.796227
v 2.743747 3.306558 -2.556761
v 3.330360 3.247239 -1.834071
v 2.897745 3.032627 -2.721158
v 2.792014 3.126212 -2.725417
v 2.991290 3.016031 -2.637171
v 2.810336 3.311024 -2.477638
v 3.546388 3.002100 -1.845908
v 3.515615 2.983921 -1.932719
v 3.004809 3.306558 -2.243751
v 2.738650 3.299271 -2.571758
v 2.748173 3.247239 -2.626803
v 3.087145 2.991024 -2.553902
v 3.163073 2.995768 -2.453525
v 3.333717 3.244565 -1.832720
v 2.903322 3.286418 -2.401831
v 3.452490 3.187119 -1.708556
v 3.071614 3.347595 -2.087461
v 3.019678 3.326690 -2.193918
v 3.403556 3.225984 -1.734192
v 2.825156 3.064534 -2.761078
v 3.149513 3.329288 -1.998735
v 3.143300 3.002100 -2.470727
v 3.246187 2.983037 -2.358487
v 3.251926 2.973432 -2.362657
v 3.272229 2.939456 -2.377407
v 3.189784 3.306558 -1.971979
v 3.329919 2.964619 -2.263004
v 3.407459 2.951630 -2.162433
v 3.453249 2.983800 -2.042240
v 3.241607 3.288694 -1.917075
v 2.746285 3.187119 -2.701361
v 3.058669 3.002100 -2.574648
v 2.977117 3.286734 -2.309282
v 2.800653 3.315308 -2.482580
v 2.751854 3.318283 -2.532249
v 3.151950 3.328402 -1.996277
v 3.412961 2.983912 -2.107826
v 3.450744 2.986493 -2.042520
v 3.521261 3.092288 -1.741655
v 3.000864 3.014098 -2.628232
v 3.024632 3.015124 -2.599197
v 2.828208 3.020736 -2.805954
v 2.857863 3.008910 -2.788319
v 2.865194 3.026576 -2.761384
v 2.760564 3.230594 -2.634119
v 2.736070 3.213987 -2.679452
v 2.729341 3.194571 -2.709846
v 3.525527 3.054330 -1.800131
v 3.035270 3.347968 -2.138592
v 3.091570 2.989157 -2.550583
v 3.127815 2.988714 -2.505867
v 3.269868 2.958130 -2.356782
v 3.267031 2.978423 -2.334754
v 3.290916 2.994588 -2.280008
v 3.477393 2.957273 -2.039451
v 3.506922 2.948824 -2.000275
v 3.468728 3.145452 -1.752507
v 3.464131 3.177647 -1.702320
v 2.873897 3.280896 -2.443660
v 2.729411 3.286117 -2.597692
v 2.736200 3.262877 -2.619661
v 2.802880 3.097294 -2.746959
v 2.824217 3.076056 -2.748997
v 3.333035 3.244578 -1.833896
v 3.383023 3.241777 -1.744605
v 3.273550 2.926170 -2.391479
v 3.096794 3.346603 -2.050747
v 3.281466 3.294539 -1.836958
v 3.342916 2.954281 -2.257124
v 3.406475 2.946415 -2.170945
v 3.001473 3.302074 -2.254674
v 2.915696 3.035581 -2.698081
v 2.941863 3.024725 -2.681633
v 3.225020 3.285789 -1.948966
v 2.772752 3.175252 -2.687930
v 2.961462 3.276618 -2.342860
v 2.906566 3.286917 -2.397090
v 3.516198 2.986403 -1.927702
v 3.552936 2.984930 -1.860640
v 3.201684 2.982409 -2.418531
v 3.207360 2.996078 -2.394159
v 3.232826 2.956914 -2.408414
v 3.253239 2.941593 -2.400070
v 3.238536 2.984501 -2.366877
vn 0.5572 0.6576 -0.5070
vn 0.5627 0.6612 -0.4960
vn 0.5704 0.6494 -0.5029
vn 0.5617 0.6374 -0.5275
vn 0.5780 0.6374 -0.5096
vn 0.5854 0.6252 -0.5161
vn 0.5689 0.6252 -0.5343
vn 0.5760 0.6128 -0.5409
vn 0.5927 0.6128 -0.5225
vn 0.5561 0.6672 -0.4956
vn 0.5730 0.6574 -0.4894
vn 0.5743 0.6554 -0.4905
vn 0.5825 0.6554 -0.4807
vn 0.5859 0.6494 -0.4847
vn 0.5937 0.6374 -0.4911
vn 0.6013 0.6252 -0.4975
vn 0.6088 0.6128 -0.5037
vn 0.5895 0.6554 -0.4722
vn 0.5984 0.6554 -0.4608
vn 0.6008 0.6494 -0.4660
vn 0.6088 0.6374 -0.4722
vn 0.6167 0.6252 -0.4783
vn 0.6243 0.6128 -0.4843
vn 0.6319 0.6004 -0.4901
vn 0.6218 0.6043 -0.4982
vn 0.6314 0.6252 -0.4587
vn 0.6392 0.6128 -0.4644
vn 0.6470 0.6004 -0.4700
vn 0.6027 0.6572 -0.4525
vn 0.6069 0.6613 -0.4409
vn 0.6152 0.6494 -0.4470
vn 0.6234 0.6374 -0.4529
vn 0.6095 0.6671 -0.4283
vn 0.6160 0.6672 -0.4188
vn 0.6204 0.6612 -0.4216
vn 0.6289 0.6494 -0.4274
vn 0.6373 0.6374 -0.4331
vn 0.6455 0.6252 -0.4387
vn 0.6535 0.6128 -0.4441
vn 0.6614 0.6004 -0.4495
vn 0.6226 0.6671 -0.4090
vn 0.6276 0.6672 -0.4012
vn 0.6334 0.6613 -0.4019
vn 0.6420 0.6494 -0.4075
vn 0.6506 0.6374 -0.4129
vn 0.6590 0.6252 -0.4182
vn 0.6672 0.6128 -0.4234
vn 0.6752 0.6004 -0.4285
vn 0.6351 0.6671 -0.3892
vn 0.6423 0.6577 -0.3936
vn 0.6440 0.6553 -0.3946
vn 0.6505 0.6554 -0.3838
vn 0.6545 0.6494 -0.3871
vn 0.6632 0.6374 -0.3922
vn 0.6718 0.6252 -0.3973
vn 0.6801 0.6128 -0.4022
vn 0.6883 0.6004 -0.4071
vn 0.6561 0.6554 -0.3742
vn 0.6617 0.6478 -0.3774
vn 0.6649 0.6433 -0.3794
vn 0.6707 0.6434 -0.3691
vn 0.6752 0.6374 -0.3712
vn 0.6839 0.6252 -0.3760
vn 0.6924 0.6128 -0.3807
vn 0.7008 0.6004 -0.3852
vn 0.6865 0.6374 -0.3498
vn 0.6765 0.6434 -0.3582
vn 0.6791 0.6434 -0.3532
vn 0.6954 0.6252 -0.3543
vn 0.7040 0.6129 -0.3587
vn 0.7026 0.6066 -0.3720
vn 0.7056 0.6021 -0.3736
vn 0.6940 0.6346 -0.3400
vn 0.6964 0.6313 -0.3412
vn 0.7053 0.6190 -0.3455
vn 0.7074 0.6160 -0.3465
vn 0.5510 0.6671 -0.5013
vn 0.6858 0.5941 -0.4203
vn 0.6045 0.6066 -0.5163
vn 0.5685 0.6109 -0.5510
vn 0.5709 0.6066 -0.5532
vn 0.5497 0.6434 -0.5327
vn 0.5543 0.6494 -0.5206
vn 0.6371 0.5941 -0.4910
vn 0.6278 0.5940 -0.5029
vn 0.6218 0.5941 -0.5103
vn 0.6162 0.6004 -0.5098
vn 0.6581 0.5940 -0.4625
vn 0.6465 0.5941 -0.4786
vn 0.6460 0.5942 -0.4792
vn 0.6987 0.5941 -0.3985
vn 0.5424 0.6553 -0.5256
vn 0.5537 0.6554 -0.5137
vn 0.5640 0.6190 -0.5465
vn 0.6455 0.5902 -0.4847
vn 0.6507 0.5813 -0.4885
vn 0.6451 0.5909 -0.4844
vn 0.7055 0.6066 -0.3664
vn 0.6723 0.5941 -0.4416
vn 0.5880 0.6066 -0.5350
vn 0.5569 0.6313 -0.5397
vn 0.6054 0.6051 -0.5170
vn 0.7109 0.5940 -0.3764
vn 0.6433 0.5940 -0.4830
vn 0.6048 0.6672 -0.4348
vn 0.5894 0.6554 -0.4722
vn 0.6040 0.6554 -0.4535
vn 0.7021 0.6234 -0.3439
vn 0.6970 0.5941 -0.4015
vn 0.6859 0.5940 -0.4203
vn 0.6762 0.5941 -0.4357
vn 0.5972 0.6066 -0.5246
vn 0.5787 0.6067 -0.5450
vn 0.5509 0.6415 -0.5338
vn 0.5457 0.6500 -0.5288
vn 0.6278 0.5941 -0.5029
vn 0.6689 0.5941 -0.4467
vn 0.6581 0.5941 -0.4625
vn 0.6515 0.5941 -0.4717
vn 0.7026 0.5941 -0.3917
vn 0.5424 0.6554 -0.5256
vn 0.5609 0.6243 -0.5436
vn 0.6723 0.5940 -0.4416
vn 0.6432 0.5941 -0.4830
vn 0.6433 0.5941 -0.4830
usemtl None
s 1
f 56//1 5//2 6//3
f 2//4 6//3 7//5
f 2//4 8//6 3//7
f 4//8 8//6 9//9
f 5//2 61//10 50//11
f 114//12 70//13 10//14
f 7//5 10//14 11//15
f 7//5 12//16 8//6
f 9//9 12//16 13//17
f 131//18 88//19 15//20
f 11//15 15//20 16//21
f 11//15 17//22 12//16
f 13//17 17//22 18//23
f 18//23 19//24 77//25
f 18//23 23//26 24//27
f 19//24 24//27 25//28
f 64//29 20//30 21//31
f 15//20 22//32 16//21
f 16//21 23//26 17//22
f 104//33 72//34 26//35
f 20//30 27//36 21//31
f 22//32 27//36 28//37
f 22//32 29//38 23//26
f 24//27 29//38 30//39
f 24//27 31//40 25//28
f 122//41 76//42 32//43
f 26//35 33//44 27//36
f 27//36 34//45 28//37
f 28//37 35//46 29//38
f 30//39 35//46 36//47
f 30//39 37//48 31//40
f 32//43 91//49 81//50
f 129//51 85//52 38//53
f 33//44 39//54 34//45
f 34//45 40//55 35//46
f 36//47 40//55 41//56
f 36//47 42//57 37//48
f 38//53 123//58 57//59
f 119//60 69//61 43//62
f 39//54 44//63 40//55
f 41//56 44//63 45//64
f 41//56 46//65 42//57
f 47//66 120//67 74//68
f 43//62 48//69 44//63
f 45//64 48//69 49//70
f 103//71 62//72 45//64
f 47//66 74//68 71//73
f 48//69 47//66 112//74
f 48//69 94//75 54//76
f 89//77 61//10 5//2
f 92//78 37//48 42//57
f 9//9 13//17 96//79
f 75//80 4//8 99//81
f 100//82 1//83 2//4
f 68//84 77//25 19//24
f 105//85 67//86 14//87
f 25//28 31//40 109//88
f 79//89 107//88 80//90
f 42//57 46//65 111//91
f 115//92 65//93 1//83
f 3//7 4//8 118//94
f 52//95 121//96 53//97
f 54//76 55//98 49//70
f 37//48 124//99 31//40
f 127//100 4//8 9//9
f 130//101 2//4 3//7
f 67//86 87//102 14//87
f 134//103 133//103 46//65
f 136//104 25//28 139//104
f 64//29 73//105 20//30
f 6//3 1//83 56//1
f 1//83 65//93 56//1
f 2//4 1//83 6//3
f 2//4 7//5 8//6
f 4//8 3//7 8//6
f 10//14 6//3 114//12
f 6//3 5//2 50//11
f 114//12 6//3 50//11
f 7//5 6//3 10//14
f 7//5 11//15 12//16
f 9//9 8//6 12//16
f 15//20 10//14 131//18
f 10//14 70//13 132//106
f 131//18 10//14 132//106
f 11//15 10//14 15//20
f 11//15 16//21 17//22
f 13//17 12//16 17//22
f 77//25 14//87 13//17
f 13//17 18//23 77//25
f 18//23 17//22 23//26
f 19//24 18//23 24//27
f 21//31 15//20 126//107
f 15//20 88//19 126//107
f 126//107 64//29 21//31
f 15//20 21//31 22//32
f 16//21 22//32 23//26
f 26//35 20//30 104//33
f 20//30 73//105 104//33
f 20//30 26//35 27//36
f 22//32 21//31 27//36
f 22//32 28//37 29//38
f 24//27 23//26 29//38
f 24//27 30//39 31//40
f 32//43 26//35 122//41
f 26//35 72//34 122//41
f 26//35 32//43 33//44
f 27//36 33//44 34//45
f 28//37 34//45 35//46
f 30//39 29//38 35//46
f 30//39 36//47 37//48
f 32//43 76//42 91//49
f 38//53 33//44 129//51
f 33//44 32//43 81//50
f 129//51 33//44 81//50
f 33//44 38//53 39//54
f 34//45 39//54 40//55
f 36//47 35//46 40//55
f 36//47 41//56 42//57
f 38//53 85//52 123//58
f 43//62 39//54 119//60
f 39//54 38//53 119//60
f 38//53 57//59 119//60
f 39//54 43//62 44//63
f 41//56 40//55 44//63
f 41//56 45//64 46//65
f 47//66 43//62 120//67
f 43//62 69//61 120//67
f 43//62 47//66 48//69
f 45//64 44//63 48//69
f 62//72 46//65 45//64
f 45//64 49//70 103//71
f 49//70 55//98 103//71
f 47//66 71//73 112//74
f 71//73 113//74 112//74
f 112//74 51//108 48//69
f 54//76 49//70 48//69
f 48//69 51//108 94//75
f 5//2 56//1 90//77
f 90//77 89//77 5//2
f 42//57 84//109 93//110
f 92//78 83//111 37//48
f 42//57 93//110 92//78
f 14//87 87//102 13//17
f 87//102 96//79 13//17
f 96//79 95//79 9//9
f 95//79 60//112 9//9
f 4//8 58//113 99//81
f 99//81 98//81 97//81
f 97//81 75//80 99//81
f 2//4 86//114 101//82
f 86//114 102//82 101//82
f 101//82 100//82 2//4
f 100//82 66//115 1//83
f 14//87 77//25 106//116
f 106//116 105//85 14//87
f 31//40 82//117 109//88
f 109//88 108//118 25//28
f 108//118 78//119 25//28
f 46//65 63//120 111//91
f 111//91 110//91 84//109
f 84//109 42//57 111//91
f 1//83 66//115 116//121
f 116//121 115//92 1//83
f 4//8 75//80 118//94
f 118//94 117//94 3//7
f 117//94 59//122 3//7
f 37//48 83//111 125//123
f 125//123 124//99 37//48
f 124//99 82//117 31//40
f 9//9 60//112 128//100
f 127//100 58//113 4//8
f 9//9 128//100 127//100
f 3//7 59//122 130//101
f 130//101 86//114 2//4
f 46//65 62//72 134//103
f 133//103 63//120 46//65
f 52//95 53//97 80//90
f 53//97 138//124 80//90
f 138//124 137//125 79//89
f 137//125 136//104 139//104
f 136//104 135//125 19//24
f 135//125 68//84 19//24
f 19//24 25//28 136//104
f 25//28 78//119 139//104
f 139//104 79//89 137//125
f 79//89 80//90 138//124
o 1_Turkey_sphere.001
v 3.341773 3.306558 -1.702712
v 3.413301 3.247239 -1.673694
v 3.390683 3.247239 -1.719862
v 3.288106 3.304631 -1.807645
v 3.303942 3.283805 -1.816351
v 3.289116 3.306558 -1.802164
v 3.355464 3.306558 -1.674763
v 3.384187 3.251702 -1.724323
v 3.305426 3.352102 -1.684193
v 3.299226 3.354707 -1.690915
v 3.280196 3.345813 -1.743881
v 3.296344 3.320819 -1.761218
v 3.344864 3.316938 -1.675272
v 3.345065 3.334082 -1.639963
v 3.424049 3.223770 -1.696590
v 3.343256 3.279958 -1.749234
v 3.372046 3.259705 -1.732411
v 3.409695 3.254760 -1.666222
v 3.398700 3.268361 -1.661841
v 3.386032 3.275771 -1.673085
v 3.285588 3.299877 -1.820384
v 3.303714 3.283821 -1.816723
vn 0.6623 0.6672 -0.3408
vn 0.6690 0.6671 -0.3277
vn 0.6583 0.6671 -0.3486
vn 0.6684 0.6612 -0.3406
vn 0.6815 0.6512 -0.3338
vn 0.6875 0.6434 -0.3368
vn 0.6803 0.6527 -0.3333
vn 0.6662 0.6570 -0.3527
vn 0.6675 0.6554 -0.3534
vn 0.6783 0.6553 -0.3323
vn 0.6783 0.6554 -0.3323
vn 0.6564 0.6551 -0.3741
vn 0.6635 0.6554 -0.3608
vn 0.6623 0.6552 -0.3634
vn 0.6747 0.6599 -0.3305
vn 0.6753 0.6554 -0.3381
vn 0.6675 0.6553 -0.3534
vn 0.6561 0.6554 -0.3742
usemtl None
s 1
f 148//126 153//127 152//127
f 149//128 148//126 140//129
f 141//130 154//131 142//132
f 145//133 140//129 155//134
f 157//135 141//130 159//136
f 161//137 143//138 144//139
f 146//140 140//129 152//127
f 140//129 148//126 152//127
f 140//129 145//133 151//128
f 151//128 150//128 140//129
f 150//128 149//128 140//129
f 140//129 147//141 156//142
f 155//134 144//139 145//133
f 144//139 143//138 145//133
f 140//129 156//142 155//134
f 141//130 142//132 159//136
f 142//132 147//141 159//136
f 147//141 140//129 159//136
f 140//129 146//140 159//136
f 159//136 158//135 157//135
f 161//137 160//143 143//138
