# Blender v2.81 (sub 16) OBJ File: ''
# www.blender.org
mtllib Turkmenistan.mtl
o 0_Turkmenistan_sphere.001
v 1.682160 3.064534 -3.574767
v 1.749030 3.187119 -3.432661
v 1.771542 3.126212 -3.476842
v 1.793617 3.064534 -3.520165
v 1.815248 3.002100 -3.562620
v 1.836432 2.938925 -3.604196
v 1.831644 3.247239 -3.331743
v 1.855990 3.187119 -3.376029
v 1.879878 3.126212 -3.419481
v 1.903303 3.064534 -3.462090
v 1.926257 3.002100 -3.503844
v 1.948737 2.938925 -3.544734
v 1.882516 3.365062 -3.183156
v 1.909190 3.306558 -3.228259
v 1.935392 3.247239 -3.272565
v 1.961118 3.187119 -3.316064
v 1.986359 3.126212 -3.358745
v 2.011111 3.064534 -3.400597
v 2.009650 3.306558 -3.166697
v 2.037231 3.247239 -3.210158
v 2.064311 3.187119 -3.252828
v 2.090880 3.126212 -3.294695
v 2.137060 3.247239 -3.144583
v 2.165466 3.187119 -3.186381
v 2.193337 3.126212 -3.227393
v 2.173723 3.365062 -2.991868
v 2.234779 3.247239 -3.075904
v 2.264484 3.187119 -3.116790
v 2.293630 3.126212 -3.156906
v 2.322210 3.064534 -3.196243
v 2.005130 3.002100 -3.458856
v 1.709131 3.002100 -3.614606
v 2.176492 3.365062 -2.989789
v 1.867969 3.306558 -3.251772
v 1.663773 3.119314 -3.535692
v 2.113828 3.071887 -3.330854
v 2.216048 3.074960 -3.260810
v 1.877923 3.374822 -3.175390
v 2.306540 3.187119 -3.085213
v 1.572910 3.064534 -3.624096
v 2.173378 3.365696 -2.991394
v 2.166536 3.365062 -2.996919
v 1.697402 3.017629 -3.607157
v 1.674777 3.126212 -3.524247
v 2.248356 3.064534 -3.248148
v 2.024933 3.028954 -3.423970
v 1.987922 3.351831 -3.132459
v 2.340377 3.024036 -3.221247
v 1.775539 2.938925 -3.634027
v 2.198751 3.317523 -3.026316
v 1.950278 2.938925 -3.543855
v 2.273271 3.306558 -2.982644
v 2.264628 3.306558 -2.989134
v 1.775222 3.247239 -3.361617
v 1.810903 3.296853 -3.294016
v 2.111565 3.299511 -3.107067
v 2.228605 3.259344 -3.067407
v 2.302027 3.126212 -3.150601
v 1.861265 3.365062 -3.195278
v 1.747019 3.192389 -3.428713
v 1.849399 2.898956 -3.629646
v 1.954666 2.921703 -3.555519
v 2.194212 3.306558 -3.041509
v 2.133314 3.306558 -3.084309
v 2.038619 3.306558 -3.147668
v 2.297568 3.247239 -3.028761
v 1.741221 3.187119 -3.436487
v 2.103299 3.064534 -3.344104
v 2.335258 3.064534 -3.186446
v 1.960917 3.365062 -3.135112
v 2.279470 3.271840 -3.015658
v 2.237913 3.255822 -3.064239
v 2.275841 3.288939 -2.999831
v 2.333481 3.071671 -3.180746
v 1.852501 3.359877 -3.205621
v 1.869700 3.307992 -3.249306
v 1.941151 2.973382 -3.519765
v 1.985718 2.975688 -3.492383
v 1.774447 3.217232 -3.390565
v 1.642397 3.105663 -3.557151
v 1.568661 3.076476 -3.615686
v 1.827454 2.928674 -3.616751
v 2.198892 3.316397 -3.027449
v 2.142560 3.348212 -3.032215
v 2.194227 3.353475 -2.989449
v 2.244931 3.336795 -2.970060
v 2.269414 3.331370 -2.957754
v 2.234772 3.352898 -2.959654
v 2.291962 3.143220 -3.140845
v 2.323184 3.165940 -3.094275
v 1.790429 3.297628 -3.304095
v 1.775932 3.285570 -3.323608
v 1.851095 2.896617 -3.630639
v 1.901738 2.886894 -3.611686
v 1.956611 2.914060 -3.560668
v 1.975351 3.356582 -3.135174
v 2.101872 3.300462 -3.112448
v 2.039706 3.301259 -3.152455
v 2.125848 3.080103 -3.315210
v 2.163998 3.086322 -3.284285
v 2.194755 3.073631 -3.276050
v 1.723595 3.170905 -3.459818
v 1.695391 3.139014 -3.502543
v 1.731452 2.960727 -3.637696
v 1.773982 2.939227 -3.634542
v 2.168700 3.366573 -2.993691
v 2.289623 3.036011 -3.245748
v 2.286549 3.211995 -3.074078
v 2.320045 3.215909 -3.044815
v 2.345293 3.022788 -3.218747
v 1.853722 3.294498 -3.271944
v 1.583368 3.034148 -3.644814
v 1.601762 3.036191 -3.634799
v 1.625786 3.054662 -3.608487
v 1.643440 3.029960 -3.621198
v 1.911087 3.393810 -3.134485
v 2.032763 3.334054 -3.122052
v 2.031323 3.037606 -3.412310
v 2.075573 3.045019 -3.378560
v 1.701031 3.016761 -3.606117
v 2.180014 3.276748 -3.083101
v 2.131214 3.297179 -3.095731
v 2.231973 3.075657 -3.248946
vn 0.3448 0.6211 -0.7038
vn 0.3543 0.6252 -0.6954
vn 0.3587 0.6128 -0.7040
vn 0.3582 0.6434 -0.6765
vn 0.3663 0.6494 -0.6664
vn 0.3712 0.6374 -0.6752
vn 0.3498 0.6374 -0.6865
vn 0.3760 0.6252 -0.6839
vn 0.3807 0.6128 -0.6924
vn 0.3852 0.6004 -0.7008
vn 0.3630 0.6004 -0.7125
vn 0.3897 0.5877 -0.7090
vn 0.3673 0.5877 -0.7208
vn 0.3732 0.6577 -0.6543
vn 0.3818 0.6612 -0.6457
vn 0.3871 0.6494 -0.6545
vn 0.3922 0.6374 -0.6632
vn 0.3973 0.6252 -0.6718
vn 0.4022 0.6128 -0.6801
vn 0.3994 0.6066 -0.6873
vn 0.3950 0.6035 -0.6926
vn 0.3985 0.5941 -0.6987
vn 0.3765 0.6730 -0.6366
vn 0.3837 0.6787 -0.6261
vn 0.3879 0.6699 -0.6330
vn 0.3892 0.6671 -0.6352
vn 0.3960 0.6672 -0.6309
vn 0.4019 0.6612 -0.6334
vn 0.4075 0.6494 -0.6420
vn 0.4129 0.6374 -0.6506
vn 0.4182 0.6252 -0.6590
vn 0.4173 0.6191 -0.6652
vn 0.4112 0.6169 -0.6710
vn 0.4090 0.6671 -0.6226
vn 0.4114 0.6622 -0.6263
vn 0.4147 0.6553 -0.6313
vn 0.4237 0.6554 -0.6252
vn 0.4274 0.6494 -0.6289
vn 0.4331 0.6374 -0.6373
vn 0.4387 0.6252 -0.6455
vn 0.4343 0.6553 -0.6180
vn 0.4412 0.6554 -0.6130
vn 0.4470 0.6494 -0.6152
vn 0.4529 0.6374 -0.6234
vn 0.4587 0.6252 -0.6314
vn 0.4348 0.6730 -0.5983
vn 0.4303 0.6790 -0.5948
vn 0.4468 0.6681 -0.5950
vn 0.4535 0.6554 -0.6040
vn 0.4570 0.6486 -0.6086
vn 0.4596 0.6434 -0.6122
vn 0.4657 0.6313 -0.6202
vn 0.4656 0.6313 -0.6202
vn 0.4688 0.6248 -0.6244
vn 0.4715 0.6190 -0.6280
vn 0.4497 0.6625 -0.5990
vn 0.4535 0.6553 -0.6040
vn 0.4502 0.6616 -0.5996
vn 0.3691 0.6671 -0.6471
vn 0.3403 0.6339 -0.6945
vn 0.3520 0.6435 -0.6797
vn 0.3232 0.6190 -0.7158
vn 0.3382 0.6191 -0.7088
vn 0.3364 0.6128 -0.7150
vn 0.3579 0.5813 -0.7306
vn 0.3781 0.5814 -0.7204
vn 0.4305 0.6671 -0.6080
vn 0.4282 0.6669 -0.6099
vn 0.4299 0.6640 -0.6117
vn 0.4472 0.6671 -0.5957
vn 0.3682 0.6689 -0.6456
vn 0.3769 0.6788 -0.6302
vn 0.3534 0.6553 -0.6675
vn 0.3635 0.6554 -0.6620
vn 0.3807 0.5813 -0.7190
vn 0.4312 0.6190 -0.6564
vn 0.3412 0.6313 -0.6964
vn 0.3539 0.5941 -0.7224
vn 0.3516 0.6011 -0.7176
vn 0.4222 0.6787 -0.6008
vn 0.4274 0.6690 -0.6081
vn 0.4571 0.6066 -0.6504
vn 0.4645 0.6128 -0.6392
vn 0.4690 0.6066 -0.6419
vn 0.4740 0.6137 -0.6313
vn 0.4006 0.5881 -0.7026
vn 0.3813 0.5814 -0.7187
vn 0.3271 0.6066 -0.7245
vn 0.3251 0.6129 -0.7201
vn 0.4154 0.6066 -0.6778
vn 0.3497 0.6066 -0.7139
vn 0.4516 0.6190 -0.6425
vn 0.3563 0.6481 -0.6730
vn 0.3742 0.6553 -0.6561
vn 0.4147 0.6554 -0.6313
vn 0.4324 0.6590 -0.6153
vn 0.4632 0.6363 -0.6169
vn 0.3691 0.6672 -0.6470
vn 0.3541 0.5931 -0.7230
vn 0.4283 0.6671 -0.6095
vn 0.3534 0.6554 -0.6675
vn 0.3807 0.5813 -0.7191
vn 0.3807 0.5815 -0.7190
vn 0.4411 0.6191 -0.6497
vn 0.3538 0.5940 -0.7224
vn 0.4530 0.6159 -0.6445
vn 0.4772 0.6066 -0.6358
vn 0.3405 0.6067 -0.7183
usemtl None
s 1
f 44//1 3//2 4//3
f 79//4 7//5 8//6
f 2//7 9//8 3//2
f 4//3 9//8 10//9
f 4//3 11//10 5//11
f 5//11 12//12 6//13
f 34//14 14//15 15//16
f 7//5 16//17 8//6
f 8//6 17//18 9//8
f 10//9 17//18 18//19
f 18//19 46//20 31//21
f 11//10 78//22 77//22
f 13//23 116//24 70//25
f 96//26 47//27 19//28
f 14//15 20//29 15//16
f 15//16 21//30 16//17
f 16//17 22//31 17//18
f 22//31 36//32 68//33
f 19//28 117//34 65//35
f 97//36 56//37 23//38
f 21//30 23//38 24//39
f 21//30 25//40 22//31
f 121//41 57//42 27//43
f 24//39 27//43 28//44
f 24//39 29//45 25//40
f 26//46 41//47 33//48
f 27//43 72//49 66//50
f 66//50 109//51 108//51
f 28//44 90//52 89//53
f 29//45 58//54 74//55
f 52//56 73//57 53//58
f 14//15 75//59 13//23
f 67//60 60//61 2//7
f 80//62 35//63 1//64
f 82//65 6//13 61//66
f 50//67 83//68 63//69
f 88//70 87//70 86//70
f 59//71 38//72 13//23
f 91//73 55//74 7//5
f 6//13 12//12 94//75
f 100//76 99//76 22//31
f 3//2 102//77 2//7
f 104//78 32//79 5//11
f 106//80 26//46 42//81
f 107//82 30//83 48//84
f 69//85 48//84 30//83
f 51//86 62//87 12//12
f 114//88 40//89 1//64
f 119//90 118//90 18//19
f 4//3 5//11 120//91
f 25//40 29//45 123//92
f 4//3 1//64 44//1
f 1//64 35//63 44//1
f 8//6 2//7 79//4
f 2//7 60//61 79//4
f 79//4 54//93 7//5
f 2//7 8//6 9//8
f 4//3 3//2 9//8
f 4//3 10//9 11//10
f 5//11 11//10 12//12
f 15//16 7//5 111//94
f 7//5 55//74 111//94
f 111//94 34//14 15//16
f 7//5 15//16 16//17
f 8//6 16//17 17//18
f 10//9 9//8 17//18
f 31//21 11//10 10//9
f 10//9 18//19 31//21
f 51//86 12//12 77//22
f 12//12 11//10 77//22
f 11//10 31//21 78//22
f 13//23 38//72 116//24
f 19//28 14//15 96//26
f 14//15 13//23 70//25
f 96//26 14//15 70//25
f 14//15 19//28 20//29
f 15//16 20//29 21//30
f 16//17 21//30 22//31
f 68//33 18//19 17//18
f 17//18 22//31 68//33
f 19//28 47//27 117//34
f 23//38 20//29 98//95
f 20//29 19//28 98//95
f 19//28 65//35 98//95
f 98//95 97//36 23//38
f 21//30 20//29 23//38
f 21//30 24//39 25//40
f 27//43 23//38 121//41
f 23//38 56//37 122//41
f 122//41 64//96 121//41
f 64//96 63//69 121//41
f 23//38 122//41 121//41
f 24//39 23//38 27//43
f 24//39 28//44 29//45
f 27//43 57//42 72//49
f 72//49 71//49 66//50
f 39//97 28//44 108//51
f 28//44 27//43 108//51
f 27//43 66//50 108//51
f 58//54 29//45 89//53
f 29//45 28//44 89//53
f 28//44 39//97 90//52
f 69//85 30//83 74//55
f 30//83 29//45 74//55
f 14//15 34//14 76//98
f 76//98 75//59 14//15
f 75//59 59//71 13//23
f 1//64 40//89 80//62
f 40//89 81//62 80//62
f 82//65 49//99 6//13
f 63//69 64//96 84//100
f 84//100 42//81 50//67
f 42//81 26//46 50//67
f 84//100 50//67 63//69
f 52//56 53//58 87//70
f 53//58 86//70 87//70
f 85//70 50//67 26//46
f 86//70 85//70 88//70
f 85//70 26//46 33//48
f 88//70 85//70 33//48
f 7//5 54//93 92//101
f 92//101 91//73 7//5
f 12//12 62//87 94//75
f 62//87 95//102 94//75
f 94//75 93//103 61//66
f 6//13 94//75 61//66
f 25//40 37//104 101//76
f 25//40 101//76 100//76
f 99//76 36//32 22//31
f 25//40 100//76 22//31
f 3//2 44//1 103//77
f 103//77 102//77 3//2
f 102//77 67//60 2//7
f 6//13 49//99 5//11
f 49//99 105//105 5//11
f 105//105 104//78 5//11
f 106//80 41//47 26//46
f 107//82 45//106 30//83
f 69//85 110//107 48//84
f 1//64 43//108 115//88
f 114//88 113//88 40//89
f 113//88 112//88 40//89
f 1//64 115//88 114//88
f 18//19 68//33 119//90
f 118//90 46//20 18//19
f 5//11 32//79 120//91
f 120//91 43//108 1//64
f 1//64 4//3 120//91
f 30//83 45//106 29//45
f 45//106 123//92 29//45
f 123//92 37//104 25//40
