# Blender v2.81 (sub 16) OBJ File: ''
# www.blender.org
mtllib United Republic of Tanzania.mtl
o 0_United_Republic_of_Tanzania_sphere.001
v 3.795201 -0.859648 -3.139657
v 3.784328 -0.936910 -3.130662
v 3.938599 -0.392298 -3.055085
v 3.933244 -0.470544 -3.050930
v 3.926918 -0.548674 -3.046025
v 3.919624 -0.626669 -3.040366
v 3.911363 -0.704509 -3.033959
v 3.902136 -0.782175 -3.026799
v 3.891947 -0.859648 -3.018898
v 3.880797 -0.936910 -3.010248
v 4.040596 -0.235535 -2.935658
v 4.037105 -0.313955 -2.933122
v 4.032618 -0.392298 -2.929863
v 4.027134 -0.470544 -2.925878
v 4.020658 -0.548674 -2.921174
v 4.013190 -0.626669 -2.915747
v 4.004732 -0.704509 -2.909603
v 3.995285 -0.782175 -2.902736
v 3.984853 -0.859648 -2.895159
v 3.973437 -0.936910 -2.886864
v 4.133363 -0.157056 -2.809024
v 4.130813 -0.235535 -2.807291
v 4.127244 -0.313955 -2.804866
v 4.122657 -0.392298 -2.801750
v 4.117051 -0.470544 -2.797939
v 4.110431 -0.548674 -2.793440
v 4.102795 -0.626669 -2.788251
v 4.094149 -0.704509 -2.782375
v 4.084491 -0.782175 -2.775809
v 4.073826 -0.859648 -2.768563
v 4.219557 -0.157056 -2.677806
v 4.216954 -0.235535 -2.676154
v 4.213310 -0.313955 -2.673842
v 4.208628 -0.392298 -2.670871
v 4.202905 -0.470544 -2.667238
v 4.196146 -0.548674 -2.662950
v 4.188352 -0.626669 -2.658003
v 4.179525 -0.704509 -2.652402
v 4.169665 -0.782175 -2.646142
v 4.298933 -0.235535 -2.542376
v 4.295218 -0.313955 -2.540180
v 4.290445 -0.392298 -2.537357
v 4.284611 -0.470544 -2.533906
v 4.277721 -0.548674 -2.529832
v 4.269775 -0.626669 -2.525132
v 4.220932 -0.087946 -2.678680
v 4.302762 -0.235535 -2.535662
v 4.284733 -0.626669 -2.498908
v 3.831696 -0.626669 -3.150119
v 3.962407 -1.005456 -2.878850
v 4.074026 -0.157056 -2.893453
v 3.945190 -0.313955 -3.055541
v 4.042127 -0.187379 -2.936770
v 3.780335 -0.859648 -3.157063
v 4.300317 -0.313955 -2.531240
v 4.299946 -0.205583 -2.542975
v 3.871775 -0.470544 -3.127656
v 3.942493 -0.322673 -3.058105
v 4.051727 -0.936910 -2.775468
v 4.261636 -0.697073 -2.520319
v 4.344763 -0.392298 -2.442127
v 4.298173 -0.251574 -2.541926
v 4.295679 -0.304233 -2.540452
v 3.833583 -0.704509 -3.131045
v 3.802195 -0.805112 -3.145442
v 4.292215 -0.157056 -2.559237
v 3.781349 -0.936910 -3.134151
v 4.259115 -0.704509 -2.522523
v 3.939151 -1.013939 -2.907015
v 3.932524 -1.013939 -2.915841
v 4.331295 -0.470544 -2.452059
v 3.873684 -0.548674 -3.112472
v 4.302874 -0.093599 -2.544707
v 4.302309 -0.121463 -2.544373
v 4.169174 -0.785670 -2.645831
v 3.988911 -0.235535 -3.004496
v 4.078966 -0.859648 -2.760739
v 3.811979 -0.782175 -3.139334
v 3.783812 -0.940278 -3.130235
v 3.874175 -0.979050 -3.005111
v 3.876114 -0.392298 -3.133079
v 4.071877 -0.872550 -2.767238
v 4.323132 -0.548674 -2.450218
v 4.134499 -0.098770 -2.809797
v 4.173109 -0.782175 -2.640524
v 4.288024 -0.616223 -2.495633
v 4.317925 -0.567676 -2.454808
v 4.289303 -0.292954 -2.552044
v 4.291053 -0.264642 -2.552170
v 3.832575 -0.737738 -3.124313
v 3.787306 -0.945197 -3.124309
v 3.840666 -0.978393 -3.047146
v 3.873013 -0.977038 -3.007201
v 3.998441 -0.991566 -2.832383
v 4.034320 -0.998502 -2.778933
v 4.331272 -0.517361 -2.442420
v 4.330971 -0.472212 -2.452282
v 3.773286 -0.876645 -3.160537
v 3.750171 -0.895402 -3.182327
v 4.088528 -0.841858 -2.751573
v 4.101318 -0.818045 -2.739319
v 4.149890 -0.801991 -2.670240
v 3.944343 -0.320662 -3.055879
v 3.878602 -0.514655 -3.111907
v 3.934374 -1.015673 -2.912755
v 4.291943 -0.148200 -2.560082
v 4.295245 -0.088504 -2.557387
v 4.245247 -0.089582 -2.638927
v 3.861280 -0.407618 -3.149472
v 3.839568 -0.670212 -3.130941
v 3.833741 -0.696497 -3.132568
v 4.066522 -0.881967 -2.771866
v 4.327225 -0.388086 -2.473477
v 4.313509 -0.356558 -2.502027
v 3.950182 -0.270104 -3.052910
v 4.292956 -0.199509 -2.554837
v 3.887324 -1.002675 -2.979774
v 3.922708 -1.004852 -2.931924
v 4.179818 -0.776139 -2.631311
v 4.210328 -0.761580 -2.585714
v 4.230146 -0.747134 -2.557530
v 4.251804 -0.725206 -2.528497
v 4.299437 -0.311201 -2.533091
v 4.301642 -0.244899 -2.536587
v 4.140731 -0.092456 -2.800581
v 4.149008 -0.082865 -2.788393
v 3.871282 -0.563831 -3.112601
v 3.833703 -0.595455 -3.153521
v 3.830021 -0.617991 -3.153851
v 3.807379 -0.791849 -3.142502
v 4.305432 -0.210555 -2.532962
v 4.310604 -0.098972 -2.530900
vn 0.7705 -0.1589 -0.6173
vn 0.7804 -0.1564 -0.6053
vn 0.7784 -0.1719 -0.6038
vn 0.7569 -0.1874 -0.6261
vn 0.7761 -0.1874 -0.6020
vn 0.7977 -0.0706 -0.5989
vn 0.8074 -0.0627 -0.5866
vn 0.8065 -0.0784 -0.5860
vn 0.7866 -0.0941 -0.6102
vn 0.8054 -0.0941 -0.5852
vn 0.8041 -0.1097 -0.5842
vn 0.7854 -0.1097 -0.6092
vn 0.7839 -0.1253 -0.6081
vn 0.8026 -0.1253 -0.5831
vn 0.8009 -0.1409 -0.5819
vn 0.7823 -0.1409 -0.6068
vn 0.7990 -0.1564 -0.5805
vn 0.7970 -0.1719 -0.5790
vn 0.7947 -0.1874 -0.5773
vn 0.8176 -0.0367 -0.5746
vn 0.8267 -0.0314 -0.5618
vn 0.8261 -0.0471 -0.5614
vn 0.8081 -0.0471 -0.5871
vn 0.8254 -0.0627 -0.5610
vn 0.8245 -0.0784 -0.5603
vn 0.8234 -0.0941 -0.5596
vn 0.8221 -0.1097 -0.5587
vn 0.8206 -0.1253 -0.5576
vn 0.8188 -0.1409 -0.5565
vn 0.8169 -0.1564 -0.5551
vn 0.8148 -0.1719 -0.5537
vn 0.8048 -0.1796 -0.5656
vn 0.8038 -0.1863 -0.5649
vn 0.8356 -0.0236 -0.5488
vn 0.8439 -0.0236 -0.5360
vn 0.8439 -0.0314 -0.5355
vn 0.8434 -0.0471 -0.5352
vn 0.8426 -0.0627 -0.5347
vn 0.8417 -0.0784 -0.5342
vn 0.8406 -0.0941 -0.5334
vn 0.8392 -0.1097 -0.5326
vn 0.8376 -0.1253 -0.5316
vn 0.8359 -0.1409 -0.5305
vn 0.8339 -0.1563 -0.5292
vn 0.8245 -0.1641 -0.5416
vn 0.8581 -0.0784 -0.5075
vn 0.8569 -0.0941 -0.5068
vn 0.8555 -0.1097 -0.5059
vn 0.8539 -0.1253 -0.5050
vn 0.8471 -0.1330 -0.5145
vn 0.8431 -0.1487 -0.5167
vn 0.8524 -0.0236 -0.5223
vn 0.8524 -0.0235 -0.5223
vn 0.8520 -0.0392 -0.5221
vn 0.8580 -0.0392 -0.5122
vn 0.8598 -0.0471 -0.5085
vn 0.8558 -0.0548 -0.5143
vn 0.8590 -0.0628 -0.5080
vn 0.8513 -0.0549 -0.5217
vn 0.8679 -0.0392 -0.4950
vn 0.8677 -0.0464 -0.4949
vn 0.8673 -0.0551 -0.4947
vn 0.8667 -0.0661 -0.4943
vn 0.8665 -0.0706 -0.4942
vn 0.8665 -0.0707 -0.4942
vn 0.8648 -0.0932 -0.4933
vn 0.8641 -0.1020 -0.4928
vn 0.8641 -0.1019 -0.4929
vn 0.8626 -0.1175 -0.4920
vn 0.7718 -0.1487 -0.6183
vn 0.7654 -0.1950 -0.6132
vn 0.8024 -0.1950 -0.5640
vn 0.7921 -0.1950 -0.5783
vn 0.7480 -0.1796 -0.6389
vn 0.7590 -0.1719 -0.6279
vn 0.7764 -0.1019 -0.6220
vn 0.8297 -0.0236 -0.5576
vn 0.7841 -0.1962 -0.5887
vn 0.7817 -0.2107 -0.5869
vn 0.7840 -0.1973 -0.5886
vn 0.8428 -0.1511 -0.5165
vn 0.8303 -0.1640 -0.5327
vn 0.7777 -0.0833 -0.6231
vn 0.7877 -0.0784 -0.6110
vn 0.7771 -0.0923 -0.6225
vn 0.7735 -0.1331 -0.6197
vn 0.7488 -0.1738 -0.6395
vn 0.7674 -0.1641 -0.6198
vn 0.7986 -0.0524 -0.5996
vn 0.7843 -0.1950 -0.5889
vn 0.8673 -0.0549 -0.4947
vn 0.7919 -0.0706 -0.6065
vn 0.7750 -0.1175 -0.6209
vn 0.8620 -0.1233 -0.4917
vn 0.7597 -0.1951 -0.6203
vn 0.7476 -0.1828 -0.6385
vn 0.8114 -0.0392 -0.5832
vn 0.8238 -0.1689 -0.5412
vn 0.8083 -0.1797 -0.5607
vn 0.8588 -0.0236 -0.5117
vn 0.8684 -0.0236 -0.4953
vn 0.8556 -0.0236 -0.5171
vn 0.7698 -0.1641 -0.6167
vn 0.7981 -0.0634 -0.5992
vn 0.8356 -0.0236 -0.5489
vn 0.8245 -0.1642 -0.5416
vn 0.8444 -0.1388 -0.5174
vn 0.8522 -0.0319 -0.5222
vn 0.8524 -0.0236 -0.5224
vn 0.8553 -0.0549 -0.5152
vn 0.8655 -0.0851 -0.4936
vn 0.8635 -0.1081 -0.4925
vn 0.7727 -0.1402 -0.6190
vn 0.7792 -0.1950 -0.5956
vn 0.7654 -0.1951 -0.6133
vn 0.7757 -0.1102 -0.6214
vn 0.7775 -0.0863 -0.6229
vn 0.7745 -0.1232 -0.6205
vn 0.7985 -0.0549 -0.5995
usemtl None
s 1
f 78//1 8//2 9//3
f 2//4 9//3 10//5
f 103//6 12//7 13//8
f 4//9 13//8 14//10
f 4//9 15//11 5//12
f 6//13 15//11 16//14
f 6//13 17//15 7//16
f 8//2 17//15 18//17
f 8//2 19//18 9//3
f 10//5 19//18 20//19
f 51//20 21//21 22//22
f 11//23 23//24 12//7
f 12//7 24//25 13//8
f 14//10 24//25 25//26
f 14//10 26//27 15//11
f 16//14 26//27 27//28
f 16//14 28//29 17//15
f 18//17 28//29 29//30
f 18//17 30//31 19//18
f 112//32 59//33 19//18
f 126//34 46//35 31//36
f 22//22 31//36 32//37
f 22//22 33//38 23//24
f 23//24 34//39 24//25
f 25//26 34//39 35//40
f 25//26 36//41 26//27
f 27//28 36//41 37//42
f 27//28 38//43 28//29
f 29//30 38//43 39//44
f 101//45 100//45 29//30
f 35//40 42//46 43//47
f 35//40 44//48 36//41
f 36//41 45//49 37//42
f 37//42 45//49 60//50
f 120//51 119//51 38//43
f 31//36 108//52 106//53
f 116//54 56//55 40//56
f 63//57 41//58 88//59
f 33//38 42//46 34//39
f 40//56 131//60 47//61
f 41//58 123//62 55//63
f 42//46 114//64 113//65
f 42//46 71//66 43//47
f 97//67 96//68 43//47
f 44//48 87//69 86//69
f 90//70 7//16 8//2
f 2//4 10//5 91//71
f 94//72 50//73 20//19
f 98//74 1//75 2//4
f 104//76 4//9 5//12
f 51//20 84//77 21//21
f 69//78 105//79 70//80
f 85//81 75//82 39//44
f 81//83 3//84 57//85
f 110//86 6//13 7//16
f 54//87 65//88 1//75
f 76//89 11//23 12//7
f 118//90 20//19 69//78
f 124//91 40//56 47//61
f 81//83 58//92 3//84
f 5//12 6//13 127//93
f 48//94 60//50 45//49
f 79//95 67//96 2//4
f 76//89 53//97 11//23
f 77//98 82//99 30//31
f 73//100 132//101 74//102
f 9//3 1//75 65//88
f 65//88 130//103 9//3
f 130//103 78//1 9//3
f 2//4 1//75 9//3
f 13//8 3//84 103//6
f 3//84 58//92 103//6
f 103//6 52//104 12//7
f 4//9 3//84 13//8
f 4//9 14//10 15//11
f 6//13 5//12 15//11
f 6//13 16//14 17//15
f 8//2 7//16 17//15
f 8//2 18//17 19//18
f 10//5 9//3 19//18
f 22//22 11//23 51//20
f 11//23 53//97 51//20
f 11//23 22//22 23//24
f 12//7 23//24 24//25
f 14//10 13//8 24//25
f 14//10 25//26 26//27
f 16//14 15//11 26//27
f 16//14 27//28 28//29
f 18//17 17//15 28//29
f 18//17 29//30 30//31
f 59//33 20//19 19//18
f 19//18 30//31 112//32
f 30//31 82//99 112//32
f 31//36 21//21 126//34
f 21//21 84//77 125//105
f 125//105 126//34 21//21
f 22//22 21//21 31//36
f 22//22 32//37 33//38
f 23//24 33//38 34//39
f 25//26 24//25 34//39
f 25//26 35//40 36//41
f 27//28 26//27 36//41
f 27//28 37//42 38//43
f 29//30 28//29 38//43
f 77//98 30//31 100//45
f 30//31 29//30 100//45
f 29//30 39//44 102//106
f 39//44 75//82 102//106
f 102//106 101//45 29//30
f 35//40 34//39 42//46
f 35//40 43//47 44//48
f 36//41 44//48 45//49
f 68//107 38//43 60//50
f 38//43 37//42 60//50
f 85//81 39//44 119//51
f 39//44 38//43 119//51
f 38//43 68//107 121//51
f 68//107 122//51 121//51
f 121//51 120//51 38//43
f 66//108 31//36 106//53
f 31//36 46//35 108//52
f 108//52 107//109 106//53
f 107//109 73//100 74//102
f 106//53 107//109 74//102
f 40//56 32//37 116//54
f 32//37 31//36 116//54
f 31//36 66//108 116//54
f 41//58 33//38 88//59
f 33//38 32//37 89//59
f 88//59 33//38 89//59
f 32//37 40//56 89//59
f 40//56 62//110 89//59
f 33//38 41//58 42//46
f 40//56 56//55 131//60
f 41//58 63//57 123//62
f 42//46 41//58 114//64
f 41//58 55//63 114//64
f 113//65 61//111 42//46
f 42//46 61//111 71//66
f 83//112 44//48 96//68
f 44//48 43//47 96//68
f 43//47 71//66 97//67
f 48//94 45//49 86//69
f 45//49 44//48 86//69
f 44//48 83//112 87//69
f 8//2 78//1 90//70
f 90//70 64//113 7//16
f 10//5 80//114 93//115
f 93//115 92//71 10//5
f 92//71 91//71 10//5
f 91//71 79//95 2//4
f 20//19 59//33 94//72
f 59//33 95//72 94//72
f 2//4 67//96 98//74
f 67//96 99//74 98//74
f 98//74 54//87 1//75
f 5//12 72//116 104//76
f 104//76 57//85 4//9
f 4//9 57//85 3//84
f 57//85 109//117 81//83
f 7//16 64//113 110//86
f 64//113 111//86 110//86
f 110//86 49//118 6//13
f 12//7 52//104 76//89
f 52//104 115//119 76//89
f 69//78 70//80 118//90
f 118//90 117//90 10//5
f 117//90 80//114 10//5
f 10//5 20//19 118//90
f 20//19 50//73 69//78
f 124//91 62//110 40//56
f 6//13 49//118 127//93
f 49//118 129//93 128//93
f 127//93 49//118 128//93
f 127//93 72//116 5//12
