# Blender v2.81 (sub 16) OBJ File: ''
# www.blender.org
mtllib United Arab Emirates.mtl
o 0_United_Arab_Emirates_sphere.001
v 2.542944 2.128895 -3.741822
v 2.561425 2.057570 -3.769018
v 2.697215 1.985738 -3.712394
v 2.812493 1.985738 -3.625840
v 2.821465 1.951170 -3.637406
v 2.666268 2.057570 -3.695333
v 2.566343 2.037781 -3.776254
v 2.834377 1.985738 -3.608308
v 2.506667 2.128895 -3.765651
v 2.602926 1.985738 -3.778661
v 2.682235 2.043387 -3.691775
v 2.560895 2.057570 -3.769366
v 2.711762 1.927294 -3.732414
v 2.650920 1.913415 -3.782357
v 2.648466 1.913415 -3.784082
v 2.584150 2.128895 -3.712862
v 2.530365 2.175500 -3.723313
v 2.797310 2.041771 -3.606266
v 2.681716 2.043336 -3.692166
v 2.586405 2.028228 -3.767315
v 2.594765 1.995585 -3.779076
v 2.561167 2.147594 -3.718041
v 2.648936 1.912947 -3.783983
v 2.509150 2.106905 -3.776148
v 2.542994 2.106745 -3.754005
v 2.820676 2.056938 -3.578956
v 2.824414 2.035044 -3.588362
v 2.835515 2.034568 -3.579738
v 2.832792 2.053040 -3.571457
v 2.833325 1.953589 -3.626591
v 2.507054 2.196081 -3.726802
v 2.501734 2.169242 -3.745715
v 2.561749 2.055153 -3.770084
v 2.552739 2.043994 -3.781904
v 2.621967 1.962333 -3.777391
v 2.631517 1.929968 -3.787428
v 2.771733 2.047649 -3.622221
v 2.719626 2.045523 -3.662520
v 2.623011 2.096818 -3.703622
vn 0.5086 0.4257 -0.7484
vn 0.5183 0.4328 -0.7375
vn 0.5213 0.4220 -0.7417
vn 0.5222 0.4186 -0.7430
vn 0.5122 0.4115 -0.7539
vn 0.5492 0.4043 -0.7314
vn 0.5590 0.4043 -0.7239
vn 0.5625 0.3971 -0.7252
vn 0.5718 0.4043 -0.7138
vn 0.5734 0.3986 -0.7157
vn 0.5249 0.4080 -0.7469
vn 0.5260 0.4044 -0.7482
vn 0.5394 0.3971 -0.7425
vn 0.5297 0.3890 -0.7537
vn 0.5331 0.3753 -0.7582
vn 0.5306 0.3860 -0.7546
vn 0.4986 0.4186 -0.7590
vn 0.4970 0.4250 -0.7565
vn 0.5757 0.3899 -0.7187
vn 0.4949 0.4328 -0.7534
vn 0.5005 0.4328 -0.7497
vn 0.5174 0.4043 -0.7541
vn 0.5022 0.4043 -0.7644
vn 0.5631 0.3899 -0.7286
vn 0.5399 0.3899 -0.7460
vn 0.5295 0.3899 -0.7534
vn 0.5381 0.4044 -0.7395
vn 0.5719 0.4043 -0.7138
vn 0.5271 0.3997 -0.7499
vn 0.5259 0.4043 -0.7483
vn 0.5000 0.4120 -0.7617
vn 0.5021 0.4043 -0.7645
usemtl None
s 1
f 1//1 22//2 16//3
f 39//4 2//5 16//3
f 37//6 18//7 4//8
f 28//9 8//10 27//9
f 6//11 19//12 3//13
f 14//14 23//15 15//16
f 25//17 9//18 1//1
f 30//19 4//8 8//10
f 32//20 17//21 1//1
f 7//22 33//23 2//5
f 5//24 3//13 4//8
f 13//25 14//14 35//26
f 1//1 17//21 22//2
f 6//11 2//5 39//4
f 2//5 1//1 16//3
f 4//8 3//13 38//6
f 3//13 11//27 38//6
f 38//6 37//6 4//8
f 8//10 4//8 27//9
f 4//8 18//7 27//9
f 27//9 26//28 29//28
f 29//28 28//9 27//9
f 3//13 10//29 6//11
f 10//29 21//30 20//30
f 20//30 7//22 2//5
f 10//29 20//30 6//11
f 19//12 11//27 3//13
f 2//5 6//11 20//30
f 2//5 12//31 25//17
f 25//17 24//17 9//18
f 1//1 2//5 25//17
f 30//19 5//24 4//8
f 1//1 9//18 32//20
f 32//20 31//20 17//21
f 7//22 34//32 33//23
f 33//23 12//31 2//5
f 5//24 13//25 3//13
f 14//14 15//16 36//26
f 35//26 10//29 3//13
f 14//14 36//26 35//26
f 3//13 13//25 35//26
