# Blender v2.81 (sub 16) OBJ File: ''
# www.blender.org
mtllib United Kingdom.mtl
o 0_United_Kingdom_sphere.001
v 2.852359 4.090748 0.360342
v 2.910918 4.048569 0.367740
v 2.850359 4.090748 0.374397
v 2.834497 4.103192 0.358086
v 2.918624 4.045084 0.342373
v 2.921982 4.045084 0.311952
v 2.857534 4.090748 0.313471
v 2.930874 4.038043 0.318284
v 2.908989 4.048024 0.386707
v 2.872659 4.075275 0.371362
v 2.912046 4.048754 0.355167
v 2.885341 4.073144 0.286057
v 2.833387 4.102143 0.376659
v 2.835654 4.104163 0.334808
vn 0.5641 0.8226 0.0707
vn 0.5684 0.8188 0.0809
vn 0.5705 0.8181 0.0721
vn 0.5797 0.8123 0.0640
vn 0.5905 0.8043 0.0652
vn 0.5826 0.8102 0.0643
vn 0.5756 0.8136 0.0819
vn 0.5768 0.8136 0.0731
vn 0.5779 0.8136 0.0638
vn 0.5748 0.8158 0.0634
vn 0.5652 0.8226 0.0624
vn 0.5629 0.8226 0.0801
usemtl None
s 1
f 4//1 3//2 1//3
f 5//4 8//5 6//6
f 10//7 2//8 1//3
f 11//9 5//4 7//10
f 14//11 1//3 7//10
f 4//1 13//12 3//2
f 1//3 3//2 10//7
f 10//7 9//7 2//8
f 5//4 6//6 12//9
f 12//9 7//10 5//4
f 7//10 1//3 11//9
f 1//3 2//8 11//9
f 14//11 4//1 1//3
o 1_United_Kingdom_sphere.001
v 3.002106 3.998423 0.000006
v 3.064539 3.950774 0.000006
v 3.126216 3.902151 0.000006
v 2.873611 4.090748 0.090313
v 2.937480 4.045084 0.092320
v 3.000624 3.998423 0.094304
v 3.063027 3.950774 0.096265
v 3.124674 3.902151 0.098203
v 2.607340 4.263200 0.164046
v 2.673851 4.221639 0.168230
v 2.739701 4.179036 0.172373
v 2.804876 4.135403 0.176474
v 2.869357 4.090748 0.180530
v 2.996182 3.998423 0.188510
v 3.058492 3.950774 0.192430
v 3.120047 3.902151 0.196303
v 3.180833 3.852566 0.200127
v 2.667248 4.221639 0.252135
v 2.732934 4.179036 0.258344
v 2.797949 4.135403 0.264490
v 3.172977 3.852566 0.299940
v 2.600263 4.267470 0.163600
v 2.972527 4.015929 0.187021
v 2.641239 4.242018 0.166179
v 2.672560 4.222446 0.168149
v 2.729425 4.179036 0.290133
v 2.620964 4.250632 0.247760
v 2.873990 4.090748 0.066191
v 2.742428 4.179036 0.114538
v 2.601846 4.263200 0.233844
v 3.001821 3.998423 -0.018157
v 3.118624 3.902151 0.214388
v 2.934668 4.045084 0.151953
v 2.961779 4.028208 0.000006
v 2.608329 4.263200 0.143080
v 3.109972 3.910110 0.195669
v 3.114417 3.906599 0.195948
v 2.938789 4.045084 0.009032
v 2.796788 4.135403 0.275004
v 2.991683 3.998423 0.245668
v 2.808567 4.135403 0.098205
v 2.672286 4.221639 0.188112
v 2.673392 4.221639 0.174066
v 3.171011 3.864407 0.099659
v 3.063213 3.950774 -0.084444
v 2.827735 4.122472 0.088871
v 3.170588 3.854519 0.299715
v 2.821055 4.119361 0.266674
v 2.664864 4.221639 0.273721
v 2.864075 4.090748 0.247644
v 2.677405 4.221639 0.092865
v 3.172681 3.852566 0.302619
v 3.191442 3.843629 0.200794
v 3.181422 3.852566 0.187619
v 3.198345 3.831147 0.302338
v 3.054476 3.950774 0.243455
v 2.891460 4.074922 0.181921
v 3.161987 3.873029 0.000006
v 3.124982 3.902151 -0.078566
v 3.161306 3.873028 0.043446
v 2.668614 4.225660 0.142423
v 2.671285 4.225495 0.091380
v 2.723020 4.182915 0.293417
v 2.675731 4.219297 0.190570
v 2.890497 4.075570 0.182599
v 2.889449 4.076277 0.183309
v 2.872336 4.085099 0.243434
v 3.094296 3.917842 0.269866
v 3.065804 3.939446 0.282645
v 3.070199 3.945277 -0.083619
v 3.090843 3.929336 -0.056696
v 2.598746 4.269153 0.136421
v 2.893913 4.076622 0.056315
v 2.905787 4.068524 0.021825
v 3.192234 3.842899 0.201814
v 3.180837 3.849093 0.252717
v 3.202999 3.827793 0.294040
v 2.793602 4.143692 0.152224
v 2.800545 4.140640 0.101955
v 2.808273 4.135594 0.098346
v 2.976285 4.014065 0.160868
v 2.935970 4.044156 0.151042
v 3.177211 3.857888 0.138162
v 3.162707 3.868720 0.163328
v 2.649282 4.231657 0.268497
v 2.831930 4.111106 0.277002
v 3.186826 3.838922 0.322397
v 3.049112 3.955955 0.225110
v 3.009572 3.984483 0.251139
v 3.013703 3.989275 -0.024729
v 3.025790 3.979282 -0.088837
v 2.852101 4.098672 0.253671
v 2.821647 4.120783 0.232933
v 2.800603 4.134501 0.247387
v 2.730536 4.186972 0.105848
v 3.112005 3.908879 0.185697
v 3.111917 3.908933 0.186121
v 2.762458 4.158348 0.273055
v 2.592776 4.268954 0.227297
v 2.601594 4.265349 0.191572
v 2.964745 4.018734 0.237503
v 3.123328 3.896990 0.235394
v 3.125862 3.901428 -0.079124
v 3.162119 3.872533 -0.030388
v 2.986283 4.009998 -0.009647
vn 0.5941 0.8043 0.0075
vn 0.5875 0.8090 0.0185
vn 0.6001 0.7996 0.0189
vn 0.6005 0.7996 0.0000
vn 0.6126 0.7901 0.0192
vn 0.6129 0.7901 0.0000
vn 0.6253 0.7804 0.0000
vn 0.6250 0.7804 0.0196
vn 0.5680 0.8226 0.0244
vn 0.5610 0.8270 0.0353
vn 0.5739 0.8181 0.0361
vn 0.5748 0.8181 0.0180
vn 0.5806 0.8136 0.0309
vn 0.5849 0.8106 0.0276
vn 0.5934 0.8044 0.0280
vn 0.5935 0.8043 0.0280
vn 0.6117 0.7901 0.0385
vn 0.6185 0.7852 0.0292
vn 0.6180 0.7853 0.0367
vn 0.6240 0.7804 0.0392
vn 0.5215 0.8526 0.0328
vn 0.5142 0.8567 0.0405
vn 0.5230 0.8513 0.0411
vn 0.5349 0.8442 0.0336
vn 0.5283 0.8484 0.0319
vn 0.5398 0.8407 0.0425
vn 0.5408 0.8401 0.0426
vn 0.5335 0.8443 0.0504
vn 0.5466 0.8357 0.0516
vn 0.5596 0.8270 0.0529
vn 0.5669 0.8226 0.0446
vn 0.5993 0.7996 0.0377
vn 0.5923 0.8043 0.0466
vn 0.5993 0.7991 0.0472
vn 0.6049 0.7949 0.0476
vn 0.6155 0.7866 0.0484
vn 0.6280 0.7766 0.0494
vn 0.6294 0.7754 0.0495
vn 0.6290 0.7754 0.0540
vn 0.6362 0.7705 0.0400
vn 0.5260 0.8485 0.0580
vn 0.5334 0.8438 0.0589
vn 0.5392 0.8401 0.0595
vn 0.5437 0.8371 0.0600
vn 0.5522 0.8314 0.0609
vn 0.6346 0.7704 0.0600
vn 0.6363 0.7682 0.0702
vn 0.6313 0.7754 0.0099
vn 0.5286 0.8485 0.0249
vn 0.5277 0.8485 0.0390
vn 0.5199 0.8539 0.0245
vn 0.6419 0.7655 0.0454
vn 0.6339 0.7728 0.0299
vn 0.5796 0.8136 0.0456
vn 0.5796 0.8136 0.0457
vn 0.6179 0.7853 0.0378
vn 0.6172 0.7853 0.0486
vn 0.6191 0.7853 -0.0097
vn 0.5148 0.8567 0.0317
vn 0.5814 0.8136 0.0091
vn 0.6414 0.7655 0.0505
vn 0.5550 0.8314 0.0262
vn 0.5480 0.8357 0.0345
vn 0.6307 0.7754 0.0297
vn 0.5585 0.8271 0.0617
vn 0.5655 0.8226 0.0591
vn 0.5274 0.8485 0.0440
vn 0.6409 0.7655 0.0572
vn 0.6066 0.7949 -0.0095
vn 0.5766 0.8169 0.0090
vn 0.5419 0.8401 0.0255
vn 0.6313 0.7754 -0.0099
vn 0.6270 0.7789 -0.0097
vn 0.5941 0.8043 -0.0093
vn 0.6020 0.7984 -0.0094
vn 0.5890 0.8080 0.0092
vn 0.5632 0.8259 0.0263
vn 0.5929 0.8044 0.0379
vn 0.5322 0.8455 0.0419
vn 0.5714 0.8194 0.0450
vn 0.6048 0.7949 0.0476
vn 0.6310 0.7755 0.0214
vn 0.6313 0.7755 -0.0001
vn 0.5345 0.8448 0.0252
vn 0.5796 0.8135 0.0466
vn 0.6172 0.7852 0.0486
vn 0.6190 0.7853 -0.0097
vn 0.6124 0.7904 -0.0096
vn 0.5152 0.8567 0.0243
vn 0.6415 0.7654 0.0505
vn 0.6415 0.7654 0.0503
vn 0.5549 0.8315 0.0255
vn 0.5463 0.8372 0.0258
vn 0.5652 0.8226 0.0624
vn 0.6396 0.7654 0.0706
vn 0.6315 0.7753 -0.0096
usemtl None
s 1
f 48//13 19//14 20//15
f 15//16 21//17 16//18
f 17//19 21//17 22//20
f 60//21 26//22 27//23
f 18//24 71//25 47//26
f 19//14 96//27 95//28
f 20//15 29//29 21//17
f 110//30 51//31 30//32
f 23//33 114//34 44//35
f 24//36 39//37 57//38
f 78//39 32//40 33//41
f 26//22 33//41 34//42
f 26//22 108//43 107//43
f 28//44 115//45 54//46
f 102//47 70//48 29//29
f 30//32 51//31 46//49
f 116//50 61//51 31//52
f 32//40 99//53 63//54
f 32//40 63//54 77//55
f 33//41 40//56 112//57
f 35//58 61//51 66//59
f 74//60 17//19 22//20
f 75//61 39//37 24//36
f 38//62 49//63 23//33
f 67//64 68//65 31//52
f 27//23 81//66 80//67
f 50//68 70//48 82//69
f 16//18 17//19 85//70
f 49//63 36//71 23//33
f 87//72 18//24 19//14
f 90//73 31//52 35//58
f 92//74 25//75 26//22
f 30//32 31//52 98//76
f 53//77 62//78 34//42
f 44//35 41//79 38//62
f 66//59 69//80 35//58
f 104//81 15//16 16//18
f 42//82 60//21 18//24
f 109//83 24//36 25//75
f 118//84 73//85 17//19
f 119//86 15//16 45//87
f 20//15 15//16 48//13
f 48//13 52//88 19//14
f 15//16 20//15 21//17
f 17//19 16//18 21//17
f 27//23 18//24 60//21
f 60//21 55//89 26//22
f 47//26 19//14 18//24
f 18//24 27//23 71//25
f 28//44 20//15 95//28
f 20//15 19//14 95//28
f 19//14 47//26 96//27
f 95//28 37//90 28//44
f 20//15 28//44 29//29
f 30//32 22//20 110//30
f 22//20 21//17 110//30
f 21//17 29//29 110//30
f 29//29 50//68 111//30
f 29//29 111//30 110//30
f 23//33 36//71 114//34
f 114//34 113//34 44//35
f 33//41 25//75 78//39
f 25//75 24//36 57//38
f 78//39 25//75 57//38
f 78//39 56//91 32//40
f 26//22 25//75 33//41
f 64//92 27//23 107//43
f 27//23 26//22 107//43
f 34//42 62//78 108//43
f 107//43 106//43 64//92
f 26//22 34//42 108//43
f 28//44 37//90 115//45
f 29//29 28//44 102//47
f 28//44 54//46 103//93
f 102//47 28//44 103//93
f 35//58 31//52 61//51
f 31//52 30//32 46//49
f 116//50 31//52 46//49
f 32//40 41//79 99//53
f 40//56 33//41 77//55
f 33//41 32//40 77//55
f 53//77 34//42 112//57
f 34//42 33//41 112//57
f 22//20 58//94 74//60
f 74//60 72//95 17//19
f 24//36 65//96 75//61
f 65//96 76//61 75//61
f 27//23 64//92 81//66
f 80//67 79//97 27//23
f 79//97 71//25 27//23
f 29//29 70//48 50//68
f 70//48 83//98 82//69
f 17//19 73//85 85//70
f 85//70 84//99 59//100
f 59//100 16//18 85//70
f 49//63 86//101 36//71
f 19//14 52//88 88//72
f 87//72 42//82 18//24
f 19//14 88//72 87//72
f 35//58 69//80 91//102
f 90//73 89//103 31//52
f 89//103 67//64 31//52
f 35//58 91//102 90//73
f 26//22 55//89 92//74
f 55//89 94//104 92//74
f 94//104 93//74 92//74
f 92//74 43//105 25//75
f 31//52 68//65 98//76
f 98//76 97//76 22//20
f 97//76 58//94 22//20
f 22//20 30//32 98//76
f 53//77 100//106 62//78
f 32//40 56//91 41//79
f 56//91 38//62 41//79
f 38//62 23//33 44//35
f 66//59 101//107 69//80
f 16//18 59//100 104//81
f 59//100 105//81 104//81
f 104//81 45//87 15//16
f 25//75 43//105 109//83
f 109//83 65//96 24//36
f 17//19 72//95 118//84
f 118//84 117//108 73//85
f 119//86 48//13 15//16
