# Blender v2.81 (sub 16) OBJ File: ''
# www.blender.org
mtllib Uruguay.mtl
o 0_Uruguay_sphere.001
v 2.481415 -2.679137 3.415380
v 2.456370 -2.745117 3.380911
v 2.430724 -2.810420 3.345612
v 2.396271 -2.612495 3.526009
v 2.372911 -2.679137 3.491638
v 2.348961 -2.745117 3.456399
v 2.324436 -2.810420 3.420312
v 2.306038 -2.545210 3.633741
v 2.284333 -2.612495 3.599538
v 2.262065 -2.679137 3.564450
v 2.239234 -2.745117 3.528476
v 2.215855 -2.810420 3.491636
v 2.449703 -2.810420 3.331362
v 2.385139 -2.545210 3.581782
v 2.296761 -2.545210 3.639426
v 2.308326 -2.851895 3.396604
v 2.471703 -2.612495 3.472995
v 2.258942 -2.612495 3.615098
v 2.495011 -2.642044 3.434094
v 2.511630 -2.679137 3.392694
v 2.228205 -2.679137 3.585199
v 2.412215 -2.565375 3.549473
v 2.209143 -2.828546 3.481059
v 2.192287 -2.745117 3.557245
v 2.479599 -2.745117 3.363471
v 2.315146 -2.515946 3.648093
v 2.184736 -2.810420 3.510706
v 2.422176 -2.831464 3.333846
v 2.503587 -2.652902 3.419188
v 2.518811 -2.702899 3.368116
v 2.479568 -2.737789 3.369410
v 2.479475 -2.778853 3.335380
v 2.436186 -2.824443 3.329392
v 2.193589 -2.742180 3.558672
v 2.212646 -2.725894 3.559326
v 2.195536 -2.829154 3.488905
v 2.278496 -2.576211 3.628732
v 2.424817 -2.564090 3.541562
v 2.471218 -2.611880 3.473789
v 2.354130 -2.864184 3.354033
v 2.316438 -2.850024 3.392483
v 2.356980 -2.507982 3.626148
v 2.401055 -2.566283 3.556149
v 2.313445 -2.516238 3.648937
v 2.236722 -2.652581 3.599400
v 2.281254 -2.857599 3.409671
v 2.237487 -2.826747 3.463928
v 2.172409 -2.789061 3.534995
vn 0.4889 -0.5260 0.6958
vn 0.4793 -0.5224 0.7052
vn 0.4746 -0.5358 0.6983
vn 0.4913 -0.5490 0.6762
vn 0.4698 -0.5490 0.6913
vn 0.4649 -0.5620 0.6841
vn 0.4862 -0.5620 0.6691
vn 0.4714 -0.5126 0.7176
vn 0.4612 -0.5090 0.7268
vn 0.4569 -0.5224 0.7199
vn 0.4524 -0.5358 0.7129
vn 0.4478 -0.5490 0.7057
vn 0.4432 -0.5620 0.6984
vn 0.4518 -0.5022 0.7373
vn 0.4494 -0.5101 0.7333
vn 0.4476 -0.5157 0.7305
vn 0.4452 -0.5234 0.7265
vn 0.4433 -0.5291 0.7235
vn 0.4389 -0.5424 0.7163
vn 0.4366 -0.5494 0.7124
vn 0.4345 -0.5555 0.7090
vn 0.4332 -0.5589 0.7070
vn 0.5095 -0.5291 0.6786
vn 0.4963 -0.5358 0.6831
vn 0.5059 -0.5384 0.6738
vn 0.5044 -0.5424 0.6718
vn 0.4993 -0.5555 0.6649
vn 0.4939 -0.5685 0.6579
vn 0.4799 -0.5685 0.6681
vn 0.4298 -0.5685 0.7014
vn 0.4926 -0.5157 0.7009
vn 0.4822 -0.5158 0.7082
vn 0.4730 -0.5685 0.6731
vn 0.4747 -0.5022 0.7227
vn 0.4517 -0.5685 0.6876
vn 0.4940 -0.5291 0.6899
vn 0.4704 -0.5157 0.7161
vn 0.4647 -0.5022 0.7292
vn 0.4412 -0.5358 0.7199
vn 0.4390 -0.5424 0.7163
vn 0.5012 -0.5506 0.6675
vn 0.4975 -0.5599 0.6626
vn 0.4404 -0.5685 0.6948
vn 0.4925 -0.5154 0.7012
vn 0.4608 -0.5685 0.6815
vn 0.4516 -0.5685 0.6876
usemtl None
s 1
f 17//1 4//2 5//3
f 2//4 5//3 6//5
f 2//4 7//6 3//7
f 14//8 8//9 9//10
f 5//3 9//10 10//11
f 6//5 10//11 11//12
f 6//5 12//13 7//6
f 8//9 44//14 15//15
f 8//9 15//15 37//16
f 9//10 18//17 45//18
f 11//12 35//19 24//20
f 11//12 48//21 27//22
f 29//23 1//24 20//25
f 1//24 2//4 31//26
f 32//27 2//4 3//7
f 33//28 3//7 28//29
f 36//30 12//13 27//22
f 38//31 22//32 4//2
f 7//6 40//33 3//7
f 42//34 8//9 14//8
f 7//6 12//13 47//35
f 5//3 1//24 17//1
f 1//24 19//36 17//1
f 2//4 1//24 5//3
f 2//4 6//5 7//6
f 9//10 4//2 43//37
f 4//2 22//32 43//37
f 43//37 14//8 9//10
f 5//3 4//2 9//10
f 6//5 5//3 10//11
f 6//5 11//12 12//13
f 8//9 26//38 44//14
f 18//17 9//10 37//16
f 9//10 8//9 37//16
f 21//39 10//11 45//18
f 10//11 9//10 45//18
f 11//12 10//11 35//19
f 10//11 21//39 35//19
f 35//19 34//40 24//20
f 27//22 12//13 11//12
f 11//12 24//20 48//21
f 29//23 19//36 1//24
f 2//4 25//41 31//26
f 31//26 30//26 20//25
f 20//25 1//24 31//26
f 3//7 13//42 32//27
f 32//27 25//41 2//4
f 33//28 13//42 3//7
f 36//30 23//43 12//13
f 4//2 17//1 39//44
f 39//44 38//31 4//2
f 7//6 16//45 41//33
f 41//33 40//33 7//6
f 40//33 28//29 3//7
f 42//34 26//38 8//9
f 12//13 23//43 47//35
f 47//35 46//46 7//6
f 46//46 16//45 7//6
