# Blender v2.81 (sub 16) OBJ File: ''
# www.blender.org
mtllib Venezuela.mtl
o 0_Venezuela_sphere.001
v 2.379104 0.782170 4.327584
v 2.384734 0.704504 4.337821
v 2.389770 0.626664 4.346982
v 2.394216 0.548669 4.355072
v 2.398071 0.470539 4.362083
v 2.401339 0.392293 4.368026
v 2.236148 0.859643 4.388691
v 2.241997 0.782170 4.400177
v 2.247303 0.704504 4.410587
v 2.252048 0.626664 4.419901
v 2.256239 0.548669 4.428127
v 2.259871 0.470539 4.435256
v 2.262951 0.392293 4.441298
v 2.097193 0.859643 4.456765
v 2.102679 0.782170 4.468429
v 2.107655 0.704504 4.479001
v 2.112105 0.626664 4.488459
v 2.116035 0.548669 4.496812
v 2.119442 0.470539 4.504052
v 2.122330 0.392293 4.510188
v 2.124690 0.313950 4.515205
v 2.126527 0.235530 4.519109
v 2.127840 0.157051 4.521895
v 1.956167 0.859643 4.520440
v 1.961284 0.782170 4.532270
v 1.965926 0.704504 4.542994
v 1.970077 0.626664 4.552587
v 1.973742 0.548669 4.561059
v 1.976920 0.470539 4.568402
v 1.979614 0.392293 4.574627
v 1.981815 0.313950 4.579715
v 1.983529 0.235530 4.583674
v 1.984753 0.157051 4.586500
v 1.808014 0.936904 4.566533
v 1.813212 0.859643 4.579654
v 1.817954 0.782170 4.591640
v 1.822257 0.704504 4.602503
v 1.826105 0.626664 4.612222
v 1.829502 0.548669 4.620806
v 1.658496 1.013934 4.606658
v 1.663684 0.936904 4.621070
v 1.668467 0.859643 4.634349
v 1.672831 0.782170 4.646477
v 1.676790 0.704504 4.657471
v 1.680330 0.626664 4.667305
v 1.517712 0.936904 4.671048
v 1.526056 0.782170 4.696729
v 1.529668 0.704504 4.707841
v 1.532898 0.626664 4.717782
v 2.181517 0.157051 4.495599
v 2.123472 0.354357 4.512618
v 2.123518 0.352860 4.512713
v 1.524401 0.626664 4.720397
v 1.992755 0.078534 4.584919
v 2.074755 0.078534 4.547895
v 1.881388 0.392293 4.615313
v 1.659492 0.999152 4.609423
v 1.660450 0.984926 4.612085
v 1.548090 0.936904 4.660647
v 1.567187 0.936904 4.654109
v 2.398569 0.548669 4.352589
v 2.401461 0.388702 4.368248
v 2.321112 0.859643 4.343706
v 1.521767 0.865096 4.683522
v 1.681081 0.607926 4.669392
v 1.951724 0.920871 4.510176
v 1.465944 0.936904 4.686974
v 1.697874 1.013934 4.591778
v 1.985417 0.086200 4.588034
v 2.230431 0.928555 4.377476
v 1.597176 0.859643 4.658757
v 1.829949 0.536809 4.621935
v 1.901973 0.235530 4.617456
v 2.419837 0.470539 4.349668
v 1.439909 0.859643 4.709747
v 1.518127 0.859643 4.685684
v 2.164522 0.235530 4.500495
v 2.412456 0.782170 4.308560
v 2.374819 0.835651 4.319786
v 1.657055 1.033697 4.602653
v 1.822015 0.936904 4.560733
v 1.735887 0.548669 4.656180
v 2.410748 0.392293 4.362659
v 2.264777 0.335440 4.444884
v 1.462956 0.782170 4.716141
v 1.533374 0.613639 4.719249
v 1.806579 0.956513 4.562907
v 2.465987 0.704504 4.291476
v 1.917951 0.313950 4.606168
v 1.513728 1.001758 4.658782
v 2.095670 0.879206 4.453531
v 1.522913 0.843333 4.687050
v 2.157527 0.313950 4.499118
v 1.498249 0.704504 4.717507
v 2.128304 0.110754 4.522883
v 1.543507 1.013934 4.646027
v 1.566250 1.013934 4.638241
v 1.654382 1.013934 4.608066
v 1.894624 0.470539 4.602490
v 2.446955 0.626664 4.314364
v 2.394761 0.537620 4.356063
v 2.396686 0.498609 4.359564
v 1.949012 0.157051 4.601305
v 2.130239 0.901618 4.432038
v 2.129395 0.923240 4.428054
v 2.224356 0.928454 4.380473
v 1.516125 0.856676 4.686817
v 1.460656 0.789418 4.715587
v 1.417865 0.795197 4.727745
v 1.438261 0.845522 4.712712
v 2.421425 0.745876 4.309729
v 2.460371 0.747815 4.287179
v 2.491237 0.727499 4.273091
v 2.399070 0.542950 4.352978
v 1.881312 0.392569 4.615319
v 1.885566 0.454915 4.607708
v 1.825756 0.915822 4.563352
v 1.896958 0.915026 4.534016
v 2.315191 0.929591 4.332384
v 2.252937 0.904282 4.370576
v 2.282315 0.863716 4.363405
v 2.175202 0.130166 4.499398
v 2.143058 0.115891 4.515521
v 2.069178 0.068790 4.550498
v 2.007348 0.063163 4.578464
v 1.549177 0.906514 4.666142
v 1.573319 0.886354 4.661768
v 1.937319 0.196261 4.604483
v 1.915443 0.226752 4.612249
v 1.663933 0.986161 4.610507
v 1.709104 0.993295 4.591922
v 1.765333 0.991922 4.570966
v 2.168339 0.217753 4.499403
v 2.234809 0.210268 4.467166
v 2.239350 0.191946 4.465742
v 2.183847 0.167118 4.494017
v 1.445085 0.906808 4.699142
v 1.515971 0.638781 4.721287
v 1.495288 0.645964 4.726642
v 1.491635 0.664009 4.725230
v 1.500186 0.696034 4.718101
v 1.962929 0.109305 4.596759
v 1.782304 0.540510 4.639533
v 1.749828 0.531218 4.652822
v 2.404152 0.814948 4.307019
v 2.458637 0.613065 4.309553
v 2.440914 0.596832 4.321874
v 2.395348 0.582980 4.349751
v 1.902423 0.484079 4.597759
v 1.915016 0.530835 4.587361
v 1.886111 0.545756 4.597680
v 1.840794 0.535912 4.617542
v 1.820677 0.944227 4.559711
v 2.379574 0.519038 4.366258
v 2.084362 0.095492 4.543118
v 1.565559 1.000177 4.641368
v 1.518702 0.990244 4.659499
v 1.547503 0.951364 4.657809
v 1.565357 0.951306 4.651709
v 1.515551 1.006116 4.657241
v 2.122222 0.353671 4.513235
v 1.676094 1.053354 4.590933
v 2.257712 0.328777 4.448869
v 2.194900 0.350471 4.477932
v 2.136668 0.361663 4.505578
v 2.157935 0.331048 4.497571
v 1.689804 0.605876 4.666356
v 1.492110 0.730795 4.715258
v 1.473036 0.749767 4.718140
v 1.885874 0.245967 4.623503
v 1.925750 0.289333 4.604403
v 1.922561 0.308846 4.604562
v 1.467203 0.938714 4.686209
v 1.497416 0.963303 4.671800
v 2.435365 0.676728 4.313236
v 2.430881 0.645192 4.320669
v 2.434064 0.453113 4.343292
v 2.445113 0.428572 4.339438
v 2.418866 0.395429 4.357716
v 1.899025 0.334712 4.612418
v 1.980603 0.923864 4.496537
v 2.028282 0.885395 4.482718
v 2.088917 0.874853 4.457453
v 2.343588 0.857282 4.332250
v 2.156303 0.272658 4.502247
v 2.334315 0.362798 4.405875
v 2.279400 0.349337 4.436028
v 1.649982 1.026449 4.606724
v 1.566526 1.020375 4.636680
v 1.550520 0.788344 4.687267
v 1.585344 0.793909 4.674366
v 1.600299 0.856123 4.658307
v 1.641848 0.616877 4.681705
v 1.536800 0.608595 4.718707
vn 0.4615 0.1646 0.8717
vn 0.4472 0.1719 0.8777
vn 0.4484 0.1564 0.8800
vn 0.4758 0.1564 0.8655
vn 0.4494 0.1409 0.8821
vn 0.4769 0.1409 0.8675
vn 0.4780 0.1253 0.8694
vn 0.4504 0.1253 0.8840
vn 0.4788 0.1097 0.8710
vn 0.4512 0.1097 0.8856
vn 0.4519 0.0941 0.8871
vn 0.4655 0.1018 0.8791
vn 0.4796 0.0941 0.8724
vn 0.4526 0.0785 0.8882
vn 0.4803 0.0784 0.8736
vn 0.4328 0.1797 0.8834
vn 0.4234 0.1797 0.8879
vn 0.4194 0.1719 0.8914
vn 0.4205 0.1564 0.8937
vn 0.4215 0.1409 0.8958
vn 0.4224 0.1253 0.8977
vn 0.4232 0.1097 0.8993
vn 0.4239 0.0941 0.9008
vn 0.4245 0.0785 0.9020
vn 0.4048 0.1797 0.8965
vn 0.3912 0.1719 0.9041
vn 0.3923 0.1564 0.9064
vn 0.3932 0.1409 0.9086
vn 0.3940 0.1253 0.9105
vn 0.3947 0.1097 0.9122
vn 0.3954 0.0941 0.9137
vn 0.3959 0.0785 0.9149
vn 0.3963 0.0627 0.9159
vn 0.4104 0.0706 0.9091
vn 0.4249 0.0627 0.9030
vn 0.3967 0.0471 0.9167
vn 0.4253 0.0471 0.9038
vn 0.3969 0.0314 0.9173
vn 0.4256 0.0314 0.9044
vn 0.3626 0.1719 0.9159
vn 0.3764 0.1797 0.9088
vn 0.3636 0.1564 0.9183
vn 0.3644 0.1409 0.9205
vn 0.3652 0.1253 0.9224
vn 0.3659 0.1097 0.9242
vn 0.3807 0.1018 0.9191
vn 0.3812 0.0863 0.9204
vn 0.3813 0.0855 0.9205
vn 0.3817 0.0706 0.9216
vn 0.3818 0.0665 0.9218
vn 0.3821 0.0549 0.9225
vn 0.3824 0.0392 0.9232
vn 0.3467 0.1950 0.9175
vn 0.3467 0.1950 0.9174
vn 0.3327 0.1874 0.9242
vn 0.3616 0.1874 0.9133
vn 0.3337 0.1719 0.9268
vn 0.3345 0.1564 0.9293
vn 0.3353 0.1409 0.9315
vn 0.3360 0.1253 0.9334
vn 0.3510 0.1175 0.9290
vn 0.3512 0.1131 0.9294
vn 0.3316 0.2028 0.9213
vn 0.3166 0.2105 0.9249
vn 0.3170 0.2041 0.9262
vn 0.3177 0.1950 0.9279
vn 0.3182 0.1877 0.9293
vn 0.3186 0.1797 0.9307
vn 0.3189 0.1755 0.9314
vn 0.3195 0.1641 0.9333
vn 0.3052 0.1564 0.9393
vn 0.3059 0.1409 0.9416
vn 0.3066 0.1253 0.9435
vn 0.2884 0.1952 0.9374
vn 0.2890 0.1842 0.9394
vn 0.3035 0.1874 0.9342
vn 0.2900 0.1641 0.9428
vn 0.2897 0.1711 0.9417
vn 0.2907 0.1487 0.9452
vn 0.2907 0.1487 0.9451
vn 0.2914 0.1331 0.9473
vn 0.2916 0.1283 0.9479
vn 0.3161 0.1175 0.9414
vn 0.4899 0.1487 0.8589
vn 0.4934 0.0905 0.8650
vn 0.4719 0.1019 0.8757
vn 0.4929 0.1018 0.8641
vn 0.4723 0.1018 0.8755
vn 0.4603 0.1797 0.8694
vn 0.4466 0.1797 0.8765
vn 0.4398 0.0236 0.8978
vn 0.4397 0.0327 0.8975
vn 0.4115 0.0079 0.9113
vn 0.4114 0.0186 0.9112
vn 0.4114 0.0197 0.9112
vn 0.3187 0.1797 0.9307
vn 0.2953 0.1797 0.9383
vn 0.4396 0.0392 0.8973
vn 0.2892 0.1797 0.9402
vn 0.3826 0.0236 0.9236
vn 0.3825 0.0329 0.9234
vn 0.3516 0.1018 0.9306
vn 0.4887 0.1641 0.8568
vn 0.4894 0.1555 0.8581
vn 0.4919 0.1175 0.8627
vn 0.4777 0.0706 0.8757
vn 0.4936 0.0847 0.8655
vn 0.3753 0.1950 0.9061
vn 0.3759 0.1868 0.9076
vn 0.4114 0.0236 0.9111
vn 0.3176 0.1963 0.9277
vn 0.3441 0.1950 0.9184
vn 0.3463 0.2005 0.9164
vn 0.3380 0.2105 0.9173
vn 0.4388 0.0706 0.8958
vn 0.4390 0.0630 0.8962
vn 0.4910 0.1331 0.8609
vn 0.4936 0.0863 0.8654
vn 0.4393 0.0549 0.8967
vn 0.4668 0.0706 0.8816
vn 0.3171 0.2033 0.9263
vn 0.3217 0.1175 0.9395
vn 0.4702 0.1641 0.8672
vn 0.4616 0.1641 0.8718
vn 0.4327 0.1797 0.8834
vn 0.4048 0.1797 0.8966
vn 0.3916 0.1797 0.9024
vn 0.4202 0.0706 0.9046
vn 0.4201 0.0706 0.9047
vn 0.3811 0.0912 0.9200
vn 0.3669 0.1018 0.9246
vn 0.3815 0.0788 0.9210
vn 0.3822 0.0522 0.9226
vn 0.3545 0.1950 0.9145
vn 0.3352 0.1950 0.9217
vn 0.3384 0.1175 0.9336
vn 0.3195 0.1641 0.9332
vn 0.2942 0.1641 0.9415
vn 0.3135 0.1950 0.9293
vn 0.2884 0.1950 0.9374
vn 0.2904 0.1578 0.9438
vn 0.2895 0.1751 0.9410
vn 0.2911 0.1419 0.9461
vn 0.4902 0.1455 0.8594
vn 0.4925 0.1094 0.8634
vn 0.4229 0.0236 0.9059
vn 0.4115 0.0079 0.9114
vn 0.3182 0.1874 0.9293
vn 0.4395 0.0460 0.8971
vn 0.4040 0.0236 0.9144
vn 0.4920 0.1175 0.8626
vn 0.4918 0.1216 0.8621
vn 0.3456 0.2105 0.9145
vn 0.4466 0.0706 0.8919
vn 0.4668 0.0706 0.8815
usemtl None
s 1
f 63//1 7//2 8//3
f 1//4 9//5 2//6
f 3//7 9//5 10//8
f 4//9 10//8 11//10
f 11//10 12//11 154//12
f 5//13 13//14 6//15
f 104//16 91//17 14//18
f 8//3 14//18 15//19
f 8//3 16//20 9//5
f 10//8 16//20 17//21
f 11//10 17//21 18//22
f 11//10 19//23 12//11
f 12//11 20//24 13//14
f 14//18 182//25 24//26
f 15//19 24//26 25//27
f 15//19 26//28 16//20
f 17//21 26//28 27//29
f 18//22 27//29 28//30
f 18//22 29//31 19//23
f 19//23 30//32 20//24
f 30//32 31//33 161//34
f 21//35 32//36 22//37
f 22//37 33//38 23//39
f 35//40 118//41 117//41
f 25//27 35//40 36//42
f 25//27 37//43 26//28
f 27//29 37//43 38//44
f 28//30 38//44 39//45
f 28//30 151//46 150//46
f 116//47 115//48 30//32
f 30//32 180//49 89//50
f 31//33 172//51 171//51
f 32//36 129//52 128//52
f 131//53 130//54 41//55
f 34//56 42//57 35//40
f 36//42 42//57 43//58
f 36//42 44//59 37//43
f 38//44 44//59 45//60
f 167//61 82//62 38//44
f 40//63 188//64 98//65
f 41//55 159//66 60//67
f 41//55 127//68 71//69
f 190//70 47//71 43//58
f 43//58 48//72 44//59
f 45//60 48//72 49//73
f 173//74 67//75 46//76
f 107//77 75//78 110//77
f 47//71 169//79 168//80
f 48//72 141//81 138//81
f 53//82 86//83 49//73
f 111//84 1//4 2//6
f 74//85 102//86 5//13
f 114//87 4//9 101//88
f 120//89 70//90 7//2
f 122//91 50//92 23//39
f 125//93 55//94 54//95
f 126//96 46//76 64//97
f 23//39 136//98 133//98
f 67//75 137//99 64//97
f 142//100 33//38 103//101
f 82//62 143//102 39//45
f 145//103 1//4 78//104
f 3//7 4//9 148//105
f 62//106 83//107 6//15
f 153//108 34//56 81//109
f 155//110 33//38 54//95
f 96//111 160//66 157//66
f 98//65 57//112 40//63
f 68//113 80//114 40//63
f 166//115 21//35 93//116
f 13//14 20//24 164//115
f 176//117 175//117 2//6
f 179//118 177//118 5//13
f 185//119 21//35 22//37
f 13//14 186//120 6//15
f 97//121 189//64 96//111
f 193//122 45//60 49//73
f 8//3 1//4 63//1
f 1//4 79//123 184//124
f 63//1 1//4 184//124
f 1//4 8//3 9//5
f 3//7 2//6 9//5
f 4//9 3//7 10//8
f 12//11 5//13 154//12
f 5//13 102//86 154//12
f 154//12 101//88 4//9
f 4//9 11//10 154//12
f 5//13 12//11 13//14
f 14//18 7//2 104//16
f 7//2 70//90 106//125
f 104//16 7//2 106//125
f 106//125 105//16 104//16
f 8//3 7//2 14//18
f 8//3 15//19 16//20
f 10//8 9//5 16//20
f 11//10 10//8 17//21
f 11//10 18//22 19//23
f 12//11 19//23 20//24
f 14//18 91//17 183//25
f 182//25 181//126 24//26
f 181//126 66//127 24//26
f 14//18 183//25 182//25
f 15//19 14//18 24//26
f 15//19 25//27 26//28
f 17//21 16//20 26//28
f 18//22 17//21 27//29
f 18//22 28//30 29//31
f 19//23 29//31 30//32
f 31//33 21//35 161//34
f 21//35 52//128 161//34
f 161//34 51//129 20//24
f 20//24 30//32 161//34
f 21//35 31//33 32//36
f 22//37 32//36 33//38
f 35//40 24//26 118//41
f 24//26 66//127 118//41
f 81//109 34//56 117//41
f 34//56 35//40 117//41
f 25//27 24//26 35//40
f 25//27 36//42 37//43
f 27//29 26//28 37//43
f 28//30 27//29 38//44
f 99//130 29//31 149//46
f 29//31 28//30 150//46
f 149//46 29//31 150//46
f 39//45 72//131 152//46
f 39//45 152//46 151//46
f 28//30 39//45 151//46
f 56//132 30//32 115//48
f 30//32 29//31 99//130
f 116//47 30//32 99//130
f 89//50 31//33 30//32
f 30//32 56//132 180//49
f 73//133 32//36 171//51
f 32//36 31//33 171//51
f 31//33 89//50 172//51
f 171//51 170//51 73//133
f 103//101 33//38 128//52
f 33//38 32//36 128//52
f 32//36 73//133 129//52
f 41//55 34//56 131//53
f 34//56 87//134 132//53
f 131//53 34//56 132//53
f 131//53 68//113 130//54
f 68//113 40//63 57//112
f 130//54 68//113 57//112
f 130//54 58//135 41//55
f 34//56 41//55 42//57
f 36//42 35//40 42//57
f 36//42 43//58 44//59
f 38//44 37//43 44//59
f 82//62 39//45 38//44
f 38//44 45//60 167//61
f 45//60 65//136 167//61
f 40//63 80//114 188//64
f 41//55 58//135 159//66
f 71//69 42//57 41//55
f 41//55 60//67 127//68
f 43//58 42//57 192//137
f 42//57 71//69 192//137
f 190//70 92//138 47//71
f 43//58 192//137 191//70
f 191//70 190//70 43//58
f 43//58 47//71 48//72
f 45//60 44//59 48//72
f 46//76 90//139 174//140
f 174//140 173//74 46//76
f 85//141 47//71 108//77
f 47//71 92//138 108//77
f 107//77 76//142 75//78
f 92//138 107//77 110//77
f 108//77 92//138 110//77
f 110//77 109//77 108//77
f 94//143 48//72 168//80
f 48//72 47//71 168//80
f 47//71 85//141 169//79
f 53//82 49//73 138//81
f 49//73 48//72 138//81
f 48//72 94//143 141//81
f 141//81 140//81 138//81
f 140//81 139//81 138//81
f 2//6 88//144 111//84
f 88//144 113//84 112//84
f 111//84 88//144 112//84
f 111//84 78//104 1//4
f 114//87 61//145 4//9
f 7//2 63//1 121//89
f 120//89 119//89 70//90
f 7//2 121//89 120//89
f 23//39 95//146 123//91
f 123//91 122//91 23//39
f 125//93 124//147 55//94
f 126//96 59//148 46//76
f 23//39 50//92 136//98
f 136//98 135//98 134//98
f 133//98 77//149 22//37
f 136//98 134//98 133//98
f 22//37 23//39 133//98
f 75//78 76//142 137//99
f 76//142 64//97 137//99
f 64//97 46//76 67//75
f 142//100 69//150 33//38
f 82//62 144//102 143//102
f 143//102 72//131 39//45
f 145//103 79//123 1//4
f 4//9 61//145 148//105
f 148//105 147//151 3//7
f 147//151 146//151 100//152
f 3//7 147//151 100//152
f 153//108 87//134 34//56
f 54//95 55//94 155//110
f 155//110 95//146 23//39
f 23//39 33//38 155//110
f 33//38 69//150 54//95
f 46//76 59//148 158//66
f 157//66 156//66 96//111
f 156//66 97//121 96//111
f 46//76 158//66 157//66
f 160//66 90//139 157//66
f 90//139 46//76 157//66
f 68//113 162//153 80//114
f 166//115 52//128 21//35
f 20//24 51//129 165//115
f 164//115 163//115 13//14
f 163//115 84//154 13//14
f 20//24 165//115 164//115
f 3//7 100//152 176//117
f 175//117 88//144 2//6
f 3//7 176//117 2//6
f 6//15 83//107 179//118
f 179//118 178//118 177//118
f 177//118 74//85 5//13
f 5//13 6//15 179//118
f 22//37 77//149 185//119
f 185//119 93//116 21//35
f 13//14 84//154 187//155
f 187//155 186//120 13//14
f 186//120 62//106 6//15
f 49//73 86//83 194//122
f 193//122 65//136 45//60
f 49//73 194//122 193//122
