# Blender v2.81 (sub 16) OBJ File: ''
# www.blender.org
mtllib Vietnam.mtl
o 0_Vietnam_sphere.001
v -1.483728 1.394954 -4.566446
v -1.490312 1.319363 -4.586714
v -1.496531 1.243447 -4.605857
v -1.502385 1.167225 -4.623873
v -1.507866 1.090714 -4.640733
v -1.512975 1.013934 -4.656463
v -1.288762 1.913415 -4.435956
v -1.296987 1.840621 -4.464266
v -1.304895 1.767372 -4.491486
v -1.326671 1.545083 -4.566443
v -1.365965 1.013934 -4.701688
v -1.370237 0.936904 -4.716395
v -1.374176 0.859643 -4.729946
v -1.148789 1.913415 -4.474247
v -1.156121 1.840621 -4.502802
v -1.007683 1.913415 -4.508124
v -1.491079 1.394954 -4.563930
v -1.403189 1.394954 -4.591223
v -1.369143 0.956624 -4.712630
v -1.369484 0.950470 -4.713805
v -1.309829 1.719439 -4.508464
v -1.345662 1.767372 -4.478944
v -1.167945 1.767372 -4.528951
v -1.272245 0.782170 -4.771193
v -1.335721 0.782170 -4.753828
v -1.608106 1.167225 -4.587677
v -1.470827 1.167225 -4.633581
v -1.222518 0.912620 -4.761404
v -1.222834 0.905666 -4.762634
v -1.344810 1.545083 -4.560863
v -1.275744 1.545083 -4.580376
v -1.170552 1.686569 -4.559002
v -1.175572 1.629053 -4.578563
v -1.323033 1.913415 -4.425413
v -1.517195 0.936904 -4.671185
v -1.271936 0.936904 -4.743287
v -0.980054 1.913415 -4.513845
v -1.376260 0.814719 -4.737124
v -1.452415 1.319363 -4.598373
v -1.558655 1.319363 -4.563315
v -1.324223 1.571387 -4.558014
v -1.436908 1.837821 -4.422354
v -1.437345 1.834169 -4.423698
v -1.186745 1.693688 -4.551981
v -1.290648 1.693688 -4.523557
v -1.146165 1.938347 -4.464025
v -1.029219 1.840621 -4.533268
v -1.006493 1.926306 -4.502799
v -1.610314 1.090714 -4.605658
v -1.468638 1.090714 -4.652801
v -1.483234 1.400295 -4.564927
v -1.517688 0.937207 -4.670971
v -1.333434 1.470200 -4.589134
v -1.402927 1.470200 -4.567756
v -1.333255 1.470449 -4.589107
v -1.426065 1.840621 -4.424557
v -1.420767 0.859643 -4.715612
v -1.280404 0.859643 -4.755599
v -1.584054 1.243447 -4.575891
v -1.449581 1.243447 -4.620300
v -1.365721 1.017998 -4.700848
v -1.284969 1.945542 -4.422895
v -1.194584 1.619585 -4.576807
v -1.285990 1.619585 -4.551802
v -1.012077 1.863682 -4.527781
v -1.162709 1.772159 -4.528463
v -1.610233 1.013934 -4.623164
v -1.357525 1.013934 -4.703997
v -1.165426 1.772127 -4.527733
v -1.233356 1.600141 -4.572927
v -1.280883 0.861044 -4.755202
v -1.014476 1.930165 -4.499202
v -1.076942 1.929629 -4.484438
v -1.428901 1.436381 -4.570348
v -1.365178 1.428646 -4.592373
v -1.470881 1.170125 -4.632811
v -1.447889 1.226544 -4.625216
v -1.373522 0.950732 -4.712509
v -1.440868 1.836722 -4.421448
v -1.505980 1.384762 -4.561865
v -1.610071 1.160774 -4.588583
v -1.319667 1.890526 -4.436145
v -1.360355 1.857597 -4.437580
v -1.287637 1.689654 -4.525849
v -1.275635 1.632472 -4.549945
v -1.287117 0.944358 -4.737598
v -1.334441 1.002468 -4.712675
v -1.292495 0.747411 -4.771077
v -1.345128 1.766994 -4.479254
v -1.455931 1.310953 -4.599624
v -1.467899 1.068143 -4.658115
v -1.392497 0.827770 -4.729857
v -1.326368 1.936943 -4.413967
v -1.067708 1.772636 -4.551081
v -1.217128 0.909954 -4.763199
v -1.152025 1.939048 -4.462114
v -1.213373 1.981732 -4.426600
v -1.254093 1.951638 -4.428667
v -1.202696 1.700658 -4.544953
v -1.308414 1.502165 -4.585506
v -1.260073 0.802753 -4.770973
v -1.025751 1.846656 -4.531588
v -1.344602 1.545342 -4.560837
v -1.430728 1.370302 -4.590022
v -1.455878 0.899312 -4.697231
v -0.973966 1.910436 -4.516338
v -1.560354 1.317229 -4.563332
v -1.610194 1.010928 -4.623809
v -1.546271 0.954586 -4.657533
v -1.133402 1.649527 -4.581295
v -1.153850 1.679168 -4.565684
vn -0.2817 0.2866 -0.9157
vn -0.2820 0.2828 -0.9167
vn -0.2967 0.2789 -0.9133
vn -0.2830 0.2713 -0.9199
vn -0.2980 0.2638 -0.9174
vn -0.2835 0.2654 -0.9215
vn -0.2842 0.2562 -0.9239
vn -0.2993 0.2487 -0.9212
vn -0.2853 0.2412 -0.9276
vn -0.2853 0.2412 -0.9275
vn -0.3016 0.2181 -0.9281
vn -0.2859 0.2330 -0.9295
vn -0.2870 0.2177 -0.9329
vn -0.3026 0.2028 -0.9313
vn -0.2874 0.2105 -0.9344
vn -0.2732 0.2028 -0.9403
vn -0.2430 0.3898 -0.8882
vn -0.2297 0.3826 -0.8949
vn -0.2578 0.3826 -0.8872
vn -0.2312 0.3681 -0.9005
vn -0.2594 0.3681 -0.8928
vn -0.2320 0.3609 -0.9033
vn -0.2461 0.3609 -0.8995
vn -0.2503 0.3165 -0.9149
vn -0.2507 0.3118 -0.9164
vn -0.2499 0.3210 -0.9135
vn -0.2769 0.2106 -0.9375
vn -0.2587 0.1972 -0.9456
vn -0.2740 0.1873 -0.9433
vn -0.2588 0.1949 -0.9460
vn -0.2595 0.1818 -0.9485
vn -0.2596 0.1796 -0.9489
vn -0.2509 0.1797 -0.9512
vn -0.2150 0.3898 -0.8954
vn -0.2049 0.3898 -0.8978
vn -0.2015 0.3826 -0.9017
vn -0.2109 0.3753 -0.9025
vn -0.2163 0.3753 -0.9013
vn -0.1878 0.3775 -0.9068
vn -0.2884 0.1950 -0.9374
vn -0.2743 0.1950 -0.9416
vn -0.2828 0.3609 -0.8887
vn -0.3020 0.3608 -0.8824
vn -0.2857 0.3609 -0.8878
vn -0.3117 0.2713 -0.9106
vn -0.3155 0.2257 -0.9217
vn -0.3150 0.2323 -0.9202
vn -0.3005 0.2334 -0.9248
vn -0.2725 0.3753 -0.8859
vn -0.2391 0.3312 -0.9127
vn -0.2492 0.3289 -0.9109
vn -0.2488 0.3331 -0.9094
vn -0.2825 0.1950 -0.9392
vn -0.2605 0.1589 -0.9523
vn -0.2609 0.1488 -0.9538
vn -0.2604 0.1609 -0.9520
vn -0.2759 0.3461 -0.8967
vn -0.2610 0.3534 -0.8983
vn -0.2538 0.3460 -0.9032
vn -0.2799 0.3063 -0.9098
vn -0.2653 0.3090 -0.9133
vn -0.2749 0.3016 -0.9129
vn -0.2900 0.1641 -0.9428
vn -0.2748 0.1719 -0.9460
vn -0.2691 0.1641 -0.9490
vn -0.3115 0.2744 -0.9098
vn -0.2904 0.2866 -0.9130
vn -0.3138 0.2476 -0.9166
vn -0.2715 0.3837 -0.8826
vn -0.2550 0.3898 -0.8849
vn -0.2177 0.3609 -0.9068
vn -0.2169 0.3701 -0.9033
vn -0.2488 0.1797 -0.9517
vn -0.2297 0.1796 -0.9565
vn -0.2467 0.3553 -0.9016
vn -0.2476 0.3460 -0.9050
vn -0.2516 0.3015 -0.9197
vn -0.2600 0.1700 -0.9505
vn -0.2603 0.1641 -0.9515
vn -0.2788 0.3169 -0.9065
vn -0.2893 0.1796 -0.9402
vn -0.2883 0.1924 -0.9380
vn -0.3131 0.2562 -0.9145
vn -0.3171 0.2031 -0.9264
vn -0.3177 0.1950 -0.9279
vn -0.2741 0.3621 -0.8909
vn -0.2745 0.3581 -0.8924
vn -0.2203 0.3312 -0.9174
vn -0.2384 0.3312 -0.9129
vn -0.2813 0.2912 -0.9144
vn -0.2808 0.2971 -0.9126
vn -0.2848 0.2479 -0.9260
vn -0.2301 0.3898 -0.8917
vn -0.2558 0.3165 -0.9134
vn -0.2979 0.1950 -0.9345
vn -0.3127 0.2607 -0.9134
vn -0.3161 0.2185 -0.9232
vn -0.2490 0.3312 -0.9101
vn -0.2480 0.3418 -0.9064
vn -0.2588 0.1950 -0.9460
vn -0.2894 0.1757 -0.9409
vn -0.2708 0.3898 -0.8802
vn -0.1880 0.3753 -0.9076
vn -0.2202 0.3312 -0.9175
usemtl None
s 1
f 75//1 18//2 74//1
f 1//3 18//2 104//4
f 2//5 39//6 90//7
f 3//8 77//9 76//10
f 5//11 27//12 50//13
f 6//14 91//15 11//16
f 98//17 96//17 14//18
f 7//19 15//20 8//21
f 15//20 66//22 69//23
f 70//24 31//25 64//26
f 11//16 61//27 68//28
f 12//29 86//30 36//31
f 71//32 36//31 29//33
f 72//34 48//35 16//36
f 16//36 65//37 102//38
f 16//36 48//35 37//39
f 78//40 20//41 12//29
f 43//42 79//43 42//44
f 80//45 1//3 2//5
f 81//46 26//47 4//48
f 82//49 7//19 8//21
f 33//50 63//51 44//52
f 68//28 19//53 11//16
f 24//54 88//55 25//56
f 89//57 9//58 21//59
f 30//60 10//61 55//62
f 92//63 13//64 38//65
f 17//66 51//67 1//3
f 59//68 4//48 26//47
f 34//69 62//70 7//19
f 94//71 15//20 47//72
f 28//73 95//74 29//33
f 9//58 23//75 99//76
f 100//77 10//61 31//25
f 58//78 101//79 25//56
f 103//80 10//61 30//60
f 105//81 35//82 12//29
f 37//39 65//37 16//36
f 107//83 2//5 3//8
f 67//84 5//11 6//14
f 108//85 67//84 6//14
f 56//86 8//21 22//87
f 111//88 33//50 32//89
f 18//2 1//3 51//67
f 74//1 54//90 75//1
f 54//90 53//91 75//1
f 18//2 51//67 74//1
f 39//6 2//5 104//4
f 2//5 1//3 104//4
f 60//92 3//8 90//7
f 3//8 2//5 90//7
f 27//12 4//48 76//10
f 4//48 3//8 76//10
f 3//8 60//92 77//9
f 5//11 4//48 27//12
f 6//14 5//11 91//15
f 5//11 50//13 91//15
f 91//15 61//27 11//16
f 14//18 7//19 98//17
f 7//19 62//70 98//17
f 98//17 97//17 96//17
f 96//17 46//93 14//18
f 7//19 14//18 15//20
f 23//75 9//58 69//23
f 9//58 8//21 69//23
f 8//21 15//20 69//23
f 31//25 10//61 41//94
f 41//94 64//26 31//25
f 64//26 63//51 70//24
f 12//29 20//41 86//30
f 58//78 13//64 71//32
f 13//64 12//29 71//32
f 12//29 36//31 71//32
f 36//31 28//73 29//33
f 16//36 14//18 73//34
f 14//18 46//93 73//34
f 73//34 72//34 16//36
f 47//72 15//20 102//38
f 15//20 14//18 102//38
f 14//18 16//36 102//38
f 12//29 35//82 78//40
f 35//82 52//95 6//14
f 78//40 35//82 6//14
f 6//14 11//16 78//40
f 11//16 19//53 78//40
f 2//5 40//96 80//45
f 80//45 17//66 1//3
f 5//11 49//97 4//48
f 49//97 81//46 4//48
f 8//21 56//86 83//49
f 82//49 34//69 7//19
f 8//21 83//49 82//49
f 63//51 64//26 85//98
f 84//98 45//99 44//52
f 63//51 85//98 44//52
f 85//98 84//98 44//52
f 32//89 33//50 44//52
f 68//28 87//100 19//53
f 89//57 22//87 9//58
f 53//91 54//90 55//62
f 54//90 30//60 55//62
f 92//63 57//101 13//64
f 59//68 3//8 4//48
f 34//69 93//102 62//70
f 94//71 66//22 15//20
f 44//52 45//99 99//76
f 45//99 21//59 9//58
f 99//76 45//99 9//58
f 100//77 55//62 10//61
f 24//54 25//56 101//79
f 25//56 38//65 58//78
f 38//65 13//64 58//78
f 103//80 41//94 10//61
f 13//64 57//101 12//29
f 57//101 105//81 12//29
f 37//39 106//103 65//37
f 3//8 59//68 107//83
f 107//83 40//96 2//5
f 67//84 49//97 5//11
f 6//14 52//95 109//85
f 109//85 108//85 6//14
f 9//58 22//87 8//21
f 22//87 43//42 56//86
f 43//42 42//44 56//86
f 111//88 110//104 33//50
