# Blender v2.81 (sub 16) OBJ File: ''
# www.blender.org
mtllib Yemen.mtl
o 0_Yemen_sphere.001
v 2.914549 1.545083 -3.757408
v 2.929064 1.470200 -3.776119
v 2.942856 1.394954 -3.793902
v 3.031134 1.545083 -3.664006
v 3.046229 1.470200 -3.682252
v 3.060574 1.394954 -3.699593
v 3.074162 1.319363 -3.716018
v 3.144728 1.545083 -3.566987
v 3.160389 1.470200 -3.584750
v 3.175271 1.394954 -3.601632
v 3.189369 1.319363 -3.617623
v 3.202680 1.243447 -3.632721
v 3.271429 1.470200 -3.483711
v 3.286834 1.394954 -3.500117
v 3.301427 1.319363 -3.515657
v 3.315206 1.243447 -3.530330
v 3.328167 1.167225 -3.544132
v 3.379241 1.470200 -3.379234
v 3.395154 1.394954 -3.395148
v 3.410228 1.319363 -3.410222
v 3.424461 1.243447 -3.424454
v 3.437849 1.167225 -3.437843
v 3.483718 1.470200 -3.271422
v 3.500123 1.394954 -3.286829
v 3.515663 1.319363 -3.301421
v 3.530336 1.243447 -3.315200
v 3.538579 1.319363 -3.276237
v 3.079128 1.289985 -3.722020
v 2.946364 1.374663 -3.798424
v 3.165199 1.243447 -3.664733
v 2.909129 1.619585 -3.729903
v 2.961663 1.619585 -3.687815
v 3.511802 1.090714 -3.387009
v 3.497133 1.090714 -3.402146
v 2.882465 1.470200 -3.811106
v 3.488126 1.470200 -3.266578
v 3.312456 1.167225 -3.558428
v 3.003955 1.319363 -3.772265
v 3.017186 1.610669 -3.647145
v 3.177277 1.545083 -3.537370
v 3.137996 1.575592 -3.559352
v 3.538616 1.197721 -3.322975
v 3.541817 1.243447 -3.302582
v 3.208338 1.209006 -3.639138
v 2.904722 1.593140 -3.744739
v 3.329178 1.160856 -3.545208
v 3.448751 1.100708 -3.448745
v 3.480924 1.482320 -3.268798
v 3.373111 1.497612 -3.373104
v 3.269324 1.479926 -3.481469
v 2.935769 1.394954 -3.799223
v 3.523037 1.394954 -3.261645
v 3.266043 1.470200 -3.488612
v 3.232914 1.470200 -3.518757
v 3.490252 1.440232 -3.277558
v 3.491848 1.432909 -3.279058
v 3.541936 1.167225 -3.330433
v 2.896302 1.545083 -3.771108
v 3.360126 1.497857 -3.385580
v 3.350993 1.489519 -3.398101
v 3.294995 1.481193 -3.456034
v 3.271121 1.485438 -3.477300
v 3.025176 1.308689 -3.758890
v 3.167261 1.558775 -3.540308
v 3.521165 1.407229 -3.258249
v 3.488698 1.469201 -3.266393
v 3.541923 1.214838 -3.313024
v 3.464083 1.510081 -3.273562
v 3.445258 1.488379 -3.302850
v 3.427827 1.495888 -3.317425
v 3.499515 1.089359 -3.400108
v 3.203101 1.209810 -3.643348
v 2.947206 1.373000 -3.798349
v 2.953712 1.344344 -3.803491
v 3.334587 1.158659 -3.540676
v 3.386474 1.154126 -3.491856
v 3.402677 1.149315 -3.477707
v 3.419656 1.126890 -3.468490
v 3.436646 1.120768 -3.454001
v 3.261655 1.457598 -3.497700
v 2.927638 1.410167 -3.799639
v 2.875176 1.432528 -3.830666
v 3.231600 1.205069 -3.619293
v 3.249552 1.210036 -3.601290
v 3.292091 1.174922 -3.574374
v 3.541301 1.277285 -3.289821
v 3.550860 1.311916 -3.265674
v 3.538709 1.316046 -3.277400
v 3.449640 1.099172 -3.448339
v 3.478664 1.100937 -3.417800
v 3.539789 1.093747 -3.357118
v 3.546783 1.143489 -3.333336
v 3.135569 1.269350 -3.681009
v 3.230033 1.471444 -3.520848
v 2.886230 1.490843 -3.800117
v 3.536609 1.354423 -3.263712
v 3.526395 1.370651 -3.268138
v 2.910398 1.627772 -3.725203
v 3.490560 1.433977 -3.279928
v 3.537007 1.189877 -3.327435
v 3.100980 1.596018 -3.582005
vn 0.5929 0.3171 -0.7401
vn 0.6036 0.3165 -0.7317
vn 0.6062 0.3090 -0.7328
vn 0.5858 0.2940 -0.7552
vn 0.6092 0.2940 -0.7364
vn 0.6121 0.2790 -0.7399
vn 0.5885 0.2790 -0.7588
vn 0.6160 0.3164 -0.7213
vn 0.6240 0.3165 -0.7145
vn 0.6289 0.3090 -0.7134
vn 0.6321 0.2940 -0.7169
vn 0.6350 0.2790 -0.7203
vn 0.6148 0.2638 -0.7432
vn 0.6379 0.2638 -0.7235
vn 0.6384 0.3164 -0.7016
vn 0.6406 0.3062 -0.7041
vn 0.6417 0.3015 -0.7052
vn 0.6448 0.2865 -0.7086
vn 0.6543 0.2940 -0.6967
vn 0.6574 0.2790 -0.7000
vn 0.6603 0.2638 -0.7031
vn 0.6405 0.2487 -0.7265
vn 0.6630 0.2487 -0.7060
vn 0.6635 0.3015 -0.6847
vn 0.6758 0.2940 -0.6758
vn 0.6790 0.2790 -0.6790
vn 0.6820 0.2638 -0.6820
vn 0.6849 0.2487 -0.6849
vn 0.6656 0.2334 -0.7088
vn 0.6876 0.2334 -0.6876
vn 0.6879 0.3015 -0.6602
vn 0.6967 0.2940 -0.6543
vn 0.6847 0.3015 -0.6635
vn 0.6895 0.2865 -0.6652
vn 0.6880 0.2865 -0.6667
vn 0.7000 0.2789 -0.6574
vn 0.7031 0.2638 -0.6603
vn 0.7060 0.2487 -0.6630
vn 0.7002 0.2411 -0.6720
vn 0.6969 0.2410 -0.6754
vn 0.7075 0.2915 -0.6437
vn 0.7086 0.2865 -0.6448
vn 0.7102 0.2794 -0.6462
vn 0.7118 0.2714 -0.6477
vn 0.7149 0.2562 -0.6505
vn 0.6044 0.2563 -0.7544
vn 0.6183 0.2563 -0.7429
vn 0.5714 0.3070 -0.7611
vn 0.5900 0.3164 -0.7428
vn 0.5829 0.3090 -0.7515
vn 0.5984 0.2714 -0.7538
vn 0.5762 0.2809 -0.7675
vn 0.7087 0.2863 -0.6448
vn 0.6690 0.2258 -0.7081
vn 0.6534 0.2396 -0.7181
vn 0.7178 0.2410 -0.6532
vn 0.7161 0.2499 -0.6516
vn 0.6996 0.2254 -0.6780
vn 0.7020 0.2103 -0.6803
vn 0.6999 0.2237 -0.6782
vn 0.6303 0.2410 -0.7380
vn 0.6427 0.2411 -0.7272
vn 0.6021 0.2694 -0.7515
vn 0.6779 0.2257 -0.6996
vn 0.5752 0.2865 -0.7661
vn 0.6532 0.2410 -0.7178
vn 0.6996 0.2257 -0.6779
vn 0.6983 0.2331 -0.6767
vn 0.6277 0.2562 -0.7350
vn 0.6439 0.2910 -0.7076
vn 0.6593 0.3015 -0.6888
vn 0.5725 0.3015 -0.7625
vn 0.5919 0.3218 -0.7389
vn 0.5899 0.3313 -0.7364
vn 0.6445 0.2882 -0.7082
vn 0.6740 0.3015 -0.6743
vn 0.6941 0.2865 -0.6604
vn 0.7132 0.2649 -0.6490
vn 0.6283 0.2529 -0.7356
vn 0.6018 0.2714 -0.7511
vn 0.6017 0.2714 -0.7512
vn 0.6959 0.2258 -0.6817
vn 0.6779 0.2257 -0.6995
vn 0.6779 0.2258 -0.6996
vn 0.5752 0.2865 -0.7662
vn 0.5742 0.2920 -0.7648
vn 0.6995 0.2258 -0.6779
vn 0.6996 0.2258 -0.6779
usemtl None
s 1
f 32//1 39//2 4//3
f 2//4 4//3 5//5
f 2//4 6//6 3//7
f 101//8 41//9 8//10
f 5//5 8//10 9//11
f 5//5 10//12 6//6
f 7//13 10//12 11//14
f 8//10 64//15 40//16
f 9//11 40//16 94//17
f 80//18 13//19 14//20
f 11//14 14//20 15//21
f 12//22 15//21 16//23
f 61//24 60//24 18//25
f 13//19 19//26 14//20
f 15//21 19//26 20//27
f 16//23 20//27 21//28
f 17//29 21//28 22//30
f 48//31 23//32 69//33
f 18//25 55//34 99//35
f 20//27 24//36 25//37
f 20//27 26//38 21//28
f 26//38 42//39 100//40
f 23//32 48//31 36//41
f 24//36 65//42 52//43
f 97//44 96//44 25//37
f 25//37 88//45 86//45
f 63//46 7//13 28//47
f 58//48 45//49 1//50
f 29//51 51//52 3//7
f 66//53 23//32 36//41
f 46//54 37//55 17//29
f 67//56 26//38 43//57
f 33//58 71//59 34//60
f 72//61 12//22 44//62
f 3//7 6//6 38//63
f 76//64 17//29 22//30
f 2//4 3//7 81//65
f 12//22 16//23 84//66
f 33//58 90//67 57//68
f 7//13 11//14 93//69
f 53//70 50//71 13//19
f 95//72 1//50 2//4
f 31//73 98//74 32//1
f 4//3 1//50 32//1
f 1//50 45//49 32//1
f 45//49 31//73 32//1
f 2//4 1//50 4//3
f 2//4 5//5 6//6
f 8//10 4//3 101//8
f 4//3 39//2 101//8
f 5//5 4//3 8//10
f 5//5 9//11 10//12
f 7//13 6//6 10//12
f 8//10 41//9 64//15
f 9//11 8//10 40//16
f 94//17 54//75 9//11
f 14//20 10//12 54//75
f 10//12 9//11 54//75
f 54//75 80//18 14//20
f 80//18 53//70 13//19
f 11//14 10//12 14//20
f 12//22 11//14 15//21
f 18//25 13//19 61//24
f 13//19 50//71 62//24
f 61//24 13//19 62//24
f 60//24 59//24 18//25
f 59//24 49//76 18//25
f 13//19 18//25 19//26
f 15//21 14//20 19//26
f 16//23 15//21 20//27
f 17//29 16//23 21//28
f 23//32 18//25 69//33
f 18//25 49//76 70//33
f 69//33 18//25 70//33
f 69//33 68//33 48//31
f 24//36 19//26 99//35
f 19//26 18//25 99//35
f 18//25 23//32 55//34
f 99//35 56//77 24//36
f 20//27 19//26 24//36
f 20//27 25//37 26//38
f 57//68 22//30 100//40
f 22//30 21//28 100//40
f 21//28 26//38 100//40
f 24//36 56//77 65//42
f 27//78 25//37 96//44
f 25//37 24//36 97//44
f 24//36 52//43 97//44
f 43//57 26//38 86//45
f 26//38 25//37 86//45
f 25//37 27//78 88//45
f 88//45 87//45 86//45
f 63//46 38//63 7//13
f 66//53 55//34 23//32
f 67//56 42//39 26//38
f 72//61 30//79 12//22
f 7//13 38//63 6//6
f 38//63 74//80 73//81
f 73//81 29//51 3//7
f 38//63 73//81 3//7
f 22//30 47//82 79//83
f 79//83 78//84 22//30
f 78//84 77//64 22//30
f 76//64 75//84 17//29
f 75//84 46//54 17//29
f 22//30 77//64 76//64
f 3//7 51//52 81//65
f 81//65 82//85 35//86
f 35//86 2//4 81//65
f 17//29 37//55 16//23
f 37//55 85//66 16//23
f 84//66 83//66 12//22
f 83//66 44//62 12//22
f 85//66 84//66 16//23
f 33//58 34//60 90//67
f 90//67 89//87 47//82
f 47//82 22//30 90//67
f 22//30 57//68 90//67
f 57//68 92//88 33//58
f 92//88 91//67 33//58
f 12//22 30//79 11//14
f 30//79 93//69 11//14
f 93//69 28//47 7//13
f 2//4 35//86 95//72
f 95//72 58//48 1//50
