# Blender v2.81 (sub 16) OBJ File: ''
# www.blender.org
mtllib Zambia.mtl
o 0_Zambia_sphere.001
v 4.158778 -0.859648 -2.639235
v 4.146863 -0.936910 -2.631673
v 4.133928 -1.013939 -2.623464
v 4.119969 -1.090719 -2.614606
v 4.104997 -1.167230 -2.605103
v 4.250725 -0.782175 -2.513864
v 4.239626 -0.859648 -2.507302
v 4.227480 -0.936910 -2.500118
v 4.214293 -1.013939 -2.492319
v 4.200063 -1.090719 -2.483904
v 4.184800 -1.167230 -2.474877
v 4.168501 -1.243452 -2.465239
v 4.327590 -0.782175 -2.379105
v 4.316291 -0.859648 -2.372895
v 4.303925 -0.936910 -2.366096
v 4.290499 -1.013939 -2.358715
v 4.260472 -1.167230 -2.342208
v 4.243879 -1.243452 -2.333086
v 4.226242 -1.319368 -2.323390
v 4.207561 -1.394959 -2.313120
v 4.362471 -1.013939 -2.222784
v 4.347740 -1.090719 -2.215278
v 4.331941 -1.167230 -2.207227
v 4.315069 -1.243452 -2.198632
v 4.297135 -1.319368 -2.189494
v 4.278141 -1.394959 -2.179816
v 4.258088 -1.470205 -2.169598
v 4.430138 -1.013939 -2.084658
v 4.415178 -1.090719 -2.077619
v 4.399134 -1.167230 -2.070069
v 4.382000 -1.243452 -2.062007
v 4.363789 -1.319368 -2.053437
v 4.344500 -1.394959 -2.044361
v 4.324135 -1.470205 -2.034777
v 4.461985 -1.167230 -1.930867
v 4.444607 -1.243452 -1.923347
v 4.426135 -1.319368 -1.915354
v 4.406570 -1.394959 -1.906888
v 4.385915 -1.470205 -1.897949
v 4.238369 -1.540189 -2.159550
v 4.099357 -1.013939 -2.676093
v 4.309614 -1.520954 -2.027944
v 4.267913 -1.130595 -2.346299
v 4.492654 -1.243452 -1.807352
v 4.323139 -0.859648 -2.359961
v 4.472671 -1.116990 -1.935492
v 4.475527 -1.013939 -1.984130
v 4.226889 -1.470205 -2.228524
v 4.122130 -1.243452 -2.540909
v 4.376931 -1.501161 -1.894061
v 4.405913 -1.470205 -1.849669
v 4.116334 -0.859648 -2.703850
v 4.411688 -1.013939 -2.122319
v 4.362908 -1.013939 -2.221891
v 4.240198 -1.090719 -2.413539
v 4.165905 -1.319368 -2.429173
v 4.290382 -1.090719 -2.323609
v 4.084559 -1.090719 -2.668513
v 4.474427 -1.319368 -1.798766
v 4.316161 -0.936910 -2.342986
v 4.459355 -1.090719 -1.979777
v 4.258501 -0.722093 -2.518465
v 4.103802 -0.936910 -2.697229
v 4.362562 -1.013427 -2.222830
v 4.092622 -1.226232 -2.597250
v 4.436310 -0.979641 -2.087563
v 4.338746 -0.782175 -2.358035
v 4.509840 -1.167230 -1.815333
v 4.169173 -0.785678 -2.645830
v 4.203723 -1.394959 -2.319847
v 4.203278 -1.411298 -2.310766
v 4.088313 -1.167230 -2.630503
v 4.284715 -1.044595 -2.355536
v 4.451889 -1.394959 -1.797480
v 4.354319 -1.013939 -2.238180
v 4.307130 -1.013939 -2.327305
v 4.333304 -0.738807 -2.382248
v 4.163032 -1.267420 -2.462004
v 4.173094 -0.782175 -2.640548
v 4.089241 -1.106236 -2.654836
v 4.407990 -1.021069 -2.126378
v 4.375598 -1.032994 -2.186664
v 4.417354 -1.453228 -1.835316
v 4.160514 -1.336747 -2.428732
v 4.189250 -1.348206 -2.371831
v 4.204691 -1.381734 -2.325677
v 4.122196 -0.840284 -2.700795
v 4.149868 -0.801924 -2.670295
v 4.248617 -1.541795 -2.137477
v 4.263209 -1.532175 -2.114605
v 4.306632 -1.523162 -2.032446
v 4.451109 -1.117038 -1.983220
v 4.285325 -1.099035 -2.329044
v 4.080083 -1.076576 -2.680873
v 4.316258 -0.935967 -2.343170
v 4.259145 -1.145854 -2.354532
v 4.226807 -1.146461 -2.410944
v 4.325075 -0.834283 -2.365325
v 4.339633 -0.796279 -2.351344
v 4.457716 -1.384844 -1.790866
v 4.427617 -0.982291 -2.104110
v 4.248313 -1.054661 -2.414980
v 4.257002 -1.070192 -2.392998
v 4.178451 -1.276783 -2.429962
v 4.101723 -1.005855 -2.675420
v 4.460251 -1.087704 -1.979370
v 4.461311 -1.055730 -1.993751
v 4.475358 -1.015735 -1.983567
v 4.339878 -1.050763 -2.248513
v 4.307023 -1.062655 -2.305094
v 4.292421 -1.037060 -2.344447
v 4.306088 -1.021836 -2.325639
v 4.314713 -1.516932 -2.019741
v 4.316944 -1.510025 -2.020108
v 4.335873 -1.491202 -1.992648
v 4.359498 -1.486381 -1.944028
v 4.230312 -1.485978 -2.211399
v 4.236713 -1.539918 -2.162862
v 4.520624 -1.115999 -1.820323
v 4.087776 -1.185191 -2.623195
v 4.058745 -1.207067 -2.657492
v 4.335607 -0.741295 -2.377100
v 4.325650 -0.730938 -2.398056
v 4.270099 -0.716352 -2.499874
v 4.251762 -0.725176 -2.528574
v 4.230091 -0.747060 -2.557642
v 4.210282 -0.761487 -2.585814
v 4.179785 -0.776110 -2.631375
v 4.381598 -1.505378 -1.879310
v 4.202308 -1.410820 -2.312756
v 4.099331 -0.913216 -2.711917
v 4.103817 -0.936474 -2.697350
v 4.478925 -0.974219 -1.995803
v 4.487472 -0.947659 -1.989709
v 4.474931 -0.949795 -2.016450
v 4.468088 -0.976397 -2.018750
v 4.451952 -0.974351 -2.055475
v 4.357273 -1.006095 -2.235935
v 4.214691 -1.417338 -2.285349
vn 0.8414 -0.1617 -0.5156
vn 0.8501 -0.1564 -0.5028
vn 0.8479 -0.1719 -0.5014
vn 0.8294 -0.1874 -0.5263
vn 0.8455 -0.1874 -0.5000
vn 0.8268 -0.2028 -0.5247
vn 0.8429 -0.2028 -0.4985
vn 0.8400 -0.2181 -0.4968
vn 0.8240 -0.2181 -0.5229
vn 0.8210 -0.2334 -0.5210
vn 0.8369 -0.2334 -0.4949
vn 0.8590 -0.1487 -0.4899
vn 0.8645 -0.1487 -0.4800
vn 0.8655 -0.1564 -0.4758
vn 0.8632 -0.1719 -0.4746
vn 0.8608 -0.1874 -0.4732
vn 0.8581 -0.2028 -0.4717
vn 0.8542 -0.2105 -0.4754
vn 0.8492 -0.2104 -0.4844
vn 0.8491 -0.2105 -0.4844
vn 0.8462 -0.2257 -0.4827
vn 0.8521 -0.2334 -0.4684
vn 0.8488 -0.2487 -0.4666
vn 0.8337 -0.2487 -0.4930
vn 0.8740 -0.1487 -0.4627
vn 0.8726 -0.1585 -0.4620
vn 0.8718 -0.1641 -0.4616
vn 0.8694 -0.1796 -0.4603
vn 0.8705 -0.1726 -0.4609
vn 0.8680 -0.1879 -0.4596
vn 0.8653 -0.2034 -0.4581
vn 0.8618 -0.2215 -0.4563
vn 0.8695 -0.2181 -0.4430
vn 0.8664 -0.2334 -0.4414
vn 0.8630 -0.2487 -0.4397
vn 0.8594 -0.2638 -0.4379
vn 0.8452 -0.2638 -0.4647
vn 0.8556 -0.2790 -0.4360
vn 0.8415 -0.2790 -0.4626
vn 0.8726 -0.2021 -0.4445
vn 0.8719 -0.1939 -0.4495
vn 0.8784 -0.2079 -0.4303
vn 0.8779 -0.2105 -0.4301
vn 0.8860 -0.2028 -0.4169
vn 0.8830 -0.2181 -0.4155
vn 0.8798 -0.2334 -0.4140
vn 0.8764 -0.2487 -0.4124
vn 0.8727 -0.2638 -0.4107
vn 0.8689 -0.2790 -0.4089
vn 0.8516 -0.2940 -0.4339
vn 0.8648 -0.2940 -0.4069
vn 0.8939 -0.1950 -0.4036
vn 0.8922 -0.2039 -0.4029
vn 0.8910 -0.2105 -0.4023
vn 0.8910 -0.2103 -0.4024
vn 0.8897 -0.2169 -0.4017
vn 0.8879 -0.2257 -0.4009
vn 0.8941 -0.2258 -0.3868
vn 0.8924 -0.2334 -0.3862
vn 0.8889 -0.2487 -0.3847
vn 0.8852 -0.2638 -0.3831
vn 0.8813 -0.2790 -0.3814
vn 0.8772 -0.2940 -0.3796
vn 0.9000 -0.2257 -0.3728
vn 0.8983 -0.2334 -0.3721
vn 0.8948 -0.2487 -0.3706
vn 0.8911 -0.2639 -0.3691
vn 0.8892 -0.2714 -0.3683
vn 0.8881 -0.2757 -0.3678
vn 0.8851 -0.2865 -0.3666
vn 0.8841 -0.2903 -0.3662
vn 0.8142 -0.2257 -0.5348
vn 0.8272 -0.2424 -0.5069
vn 0.8360 -0.2714 -0.4769
vn 0.8245 -0.1641 -0.5416
vn 0.8354 -0.1642 -0.5245
vn 0.8318 -0.1719 -0.5278
vn 0.8562 -0.3015 -0.4194
vn 0.8182 -0.2039 -0.5375
vn 0.8808 -0.1950 -0.4315
vn 0.8788 -0.2059 -0.4305
vn 0.8396 -0.2562 -0.4789
vn 0.8197 -0.1950 -0.5385
vn 0.8639 -0.2105 -0.4574
vn 0.8690 -0.3015 -0.3923
vn 0.8426 -0.3015 -0.4461
vn 0.8426 -0.3015 -0.4462
vn 0.8209 -0.2411 -0.5177
vn 0.8112 -0.2410 -0.5328
vn 0.8333 -0.2563 -0.4898
vn 0.8432 -0.1487 -0.5167
vn 0.8431 -0.1487 -0.5167
vn 0.8809 -0.3015 -0.3649
vn 0.8322 -0.2865 -0.4746
vn 0.8406 -0.2865 -0.4596
vn 0.8223 -0.1791 -0.5401
vn 0.8231 -0.1733 -0.5407
vn 0.8650 -0.2047 -0.4580
vn 0.8467 -0.2865 -0.4483
vn 0.8524 -0.1487 -0.5012
vn 0.8589 -0.1487 -0.4899
vn 0.8478 -0.2177 -0.4836
vn 0.8581 -0.2258 -0.4612
vn 0.8609 -0.2257 -0.4558
vn 0.8880 -0.1951 -0.4163
vn 0.8909 -0.2105 -0.4024
vn 0.8130 -0.2319 -0.5340
vn 0.8163 -0.2146 -0.5362
vn 0.8345 -0.2774 -0.4760
vn 0.8360 -0.2713 -0.4769
vn 0.8377 -0.2644 -0.4778
vn 0.8245 -0.1642 -0.5416
vn 0.8610 -0.3015 -0.4095
vn 0.8498 -0.3015 -0.4322
vn 0.8171 -0.2105 -0.5367
vn 0.8213 -0.1855 -0.5395
vn 0.8761 -0.3015 -0.3762
vn 0.8690 -0.3014 -0.3924
vn 0.8457 -0.2902 -0.4478
vn 0.8222 -0.1797 -0.5401
vn 0.8668 -0.1951 -0.4589
usemtl None
s 1
f 79//1 6//2 7//3
f 2//4 7//3 8//5
f 3//6 8//5 9//7
f 3//6 10//8 4//9
f 5//10 10//8 11//11
f 123//12 77//13 13//14
f 6//2 14//15 7//3
f 8//5 14//15 15//16
f 8//5 16//17 9//7
f 73//18 103//19 102//20
f 97//21 96//21 17//22
f 11//11 18//23 12//24
f 13//14 122//25 67//26
f 13//14 99//27 98//27
f 95//28 15//16 45//29
f 16//17 60//30 76//31
f 57//32 22//33 23//34
f 17//22 24//35 18//23
f 18//23 25//36 19//37
f 19//37 26//38 20//39
f 21//40 64//41 54//42
f 81//43 28//44 29//45
f 23//34 29//45 30//46
f 23//34 31//47 24//35
f 25//36 31//47 32//48
f 25//36 33//49 26//38
f 27//50 33//49 34//51
f 136//52 133//52 47//53
f 107//54 106//55 61//56
f 92//57 46//58 35//59
f 30//46 36//60 31//47
f 32//48 36//60 37//61
f 32//48 38//62 33//49
f 34//51 38//62 39//63
f 35//59 119//64 68//65
f 36//60 68//65 44//66
f 37//61 44//66 59//67
f 59//67 100//68 74//69
f 38//62 83//70 51//71
f 80//72 4//9 5//10
f 11//11 49//73 5//10
f 86//74 85//74 19//37
f 88//75 69//76 1//77
f 27//50 34//51 90//78
f 41//79 3//6 4//9
f 101//80 28//44 53//81
f 18//23 19//37 104//82
f 105//83 2//4 3//6
f 109//84 21//40 22//33
f 111//84 73//18 16//17
f 115//85 114//85 34//51
f 118//86 117//87 27//50
f 65//88 120//89 5//10
f 78//90 49//73 12//24
f 126//91 125//92 6//2
f 129//93 39//63 51//71
f 130//94 20//39 71//95
f 132//96 52//97 2//4
f 75//98 64//41 21//40
f 20//39 26//38 139//99
f 7//3 1//77 79//1
f 1//77 69//76 79//1
f 2//4 1//77 7//3
f 3//6 2//4 8//5
f 3//6 9//7 10//8
f 5//10 4//9 10//8
f 13//14 6//2 123//12
f 6//2 62//100 124//101
f 123//12 6//2 124//101
f 6//2 13//14 14//15
f 8//5 7//3 14//15
f 8//5 15//16 16//17
f 55//102 10//8 102//20
f 10//8 9//7 102//20
f 9//7 16//17 102//20
f 16//17 73//18 102//20
f 11//11 10//8 97//21
f 10//8 55//102 97//21
f 96//21 43//103 17//22
f 11//11 97//21 17//22
f 11//11 17//22 18//23
f 13//14 77//13 122//25
f 45//29 14//15 98//27
f 14//15 13//14 98//27
f 13//14 67//26 99//27
f 60//30 15//16 95//28
f 15//16 14//15 45//29
f 16//17 15//16 60//30
f 23//34 17//22 93//104
f 17//22 43//103 93//104
f 93//104 57//32 23//34
f 17//22 23//34 24//35
f 18//23 24//35 25//36
f 19//37 25//36 26//38
f 29//45 22//33 82//43
f 22//33 21//40 54//42
f 82//43 22//33 54//42
f 81//43 53//81 28//44
f 82//43 81//43 29//45
f 23//34 22//33 29//45
f 23//34 30//46 31//47
f 25//36 24//35 31//47
f 25//36 32//48 33//49
f 27//50 26//38 33//49
f 47//53 28//44 136//52
f 28//44 66//105 137//52
f 136//52 28//44 137//52
f 136//52 135//52 133//52
f 135//52 134//52 133//52
f 61//56 29//45 107//54
f 29//45 28//44 107//54
f 28//44 47//53 107//54
f 47//53 108//106 107//54
f 35//59 30//46 92//57
f 30//46 29//45 92//57
f 29//45 61//56 92//57
f 30//46 35//59 36//60
f 32//48 31//47 36//60
f 32//48 37//61 38//62
f 34//51 33//49 38//62
f 35//59 46//58 119//64
f 36//60 35//59 68//65
f 37//61 36//60 44//66
f 74//69 38//62 37//61
f 37//61 59//67 74//69
f 51//71 39//63 38//62
f 38//62 74//69 83//70
f 5//10 72//107 80//72
f 80//72 58//108 4//9
f 12//24 49//73 11//11
f 49//73 65//88 5//10
f 20//39 70//109 86//74
f 85//74 84//110 56//111
f 19//37 20//39 86//74
f 85//74 56//111 19//37
f 1//77 52//97 87//112
f 87//112 88//75 1//77
f 34//51 42//113 91//78
f 90//78 89//78 27//50
f 89//78 40//114 27//50
f 34//51 91//78 90//78
f 4//9 58//108 41//79
f 58//108 94//115 41//79
f 101//80 66//105 28//44
f 19//37 56//111 104//82
f 104//82 78//90 12//24
f 12//24 18//23 104//82
f 3//6 41//79 105//83
f 105//83 63//116 2//4
f 22//33 57//32 110//84
f 109//84 75//98 21//40
f 22//33 110//84 109//84
f 16//17 76//31 111//84
f 76//31 112//84 111//84
f 39//63 50//117 116//85
f 39//63 116//85 34//51
f 116//85 115//85 34//51
f 113//118 42//113 114//85
f 42//113 34//51 114//85
f 27//50 40//114 118//86
f 117//87 48//119 27//50
f 65//88 121//89 120//89
f 120//89 72//107 5//10
f 6//2 79//1 128//92
f 6//2 128//92 127//92
f 125//92 62//100 6//2
f 6//2 127//92 126//91
f 129//93 50//117 39//63
f 130//94 70//109 20//39
f 2//4 63//116 132//96
f 132//96 131//120 52//97
f 52//97 1//77 2//4
f 75//98 138//121 64//41
f 27//50 48//119 26//38
f 48//119 139//99 26//38
f 139//99 71//95 20//39
