# Blender v2.81 (sub 16) OBJ File: ''
# www.blender.org
mtllib Zimbabwe.mtl
o 0_Zimbabwe_sphere.001
v 4.035014 -1.470205 -2.560691
v 4.015019 -1.545088 -2.548002
v 3.994032 -1.619590 -2.534683
v 3.972061 -1.693693 -2.520740
v 4.132828 -1.394959 -2.444142
v 4.113456 -1.470205 -2.432684
v 4.093072 -1.545088 -2.420630
v 4.071678 -1.619590 -2.407977
v 4.049279 -1.693693 -2.394730
v 4.025881 -1.767377 -2.380893
v 4.001489 -1.840626 -2.366467
v 4.187839 -1.470205 -2.302277
v 4.167087 -1.545088 -2.290869
v 4.145305 -1.619590 -2.278894
v 4.122501 -1.693693 -2.266358
v 4.098680 -1.767377 -2.253262
v 4.073847 -1.840626 -2.239610
v 4.236989 -1.545088 -2.158847
v 4.214841 -1.619590 -2.147562
v 4.191655 -1.693693 -2.135749
v 4.139454 -1.367663 -2.448060
v 3.983058 -1.619590 -2.551389
v 4.203009 -1.693693 -2.112572
v 3.955989 -1.693693 -2.545207
v 4.014473 -1.470205 -2.591961
v 3.985324 -1.886993 -2.356907
v 3.950737 -1.840626 -2.449288
v 4.072598 -1.844147 -2.238923
v 4.203276 -1.411305 -2.310765
v 4.183426 -1.718726 -2.131556
v 3.949211 -1.767377 -2.506008
v 4.081521 -1.840626 -2.225118
v 4.295722 -1.545088 -2.038958
v 3.994795 -1.545088 -2.578790
v 3.949282 -1.766820 -2.506284
v 4.226917 -1.470205 -2.228471
v 4.252913 -1.619590 -2.069846
v 4.238370 -1.540185 -2.159551
v 4.049018 -1.414748 -2.569579
v 4.082480 -1.394959 -2.526301
v 4.203723 -1.394959 -2.319847
v 4.139710 -1.767377 -2.175769
v 3.993667 -1.894862 -2.335847
v 4.017862 -1.881072 -2.304702
v 4.034462 -1.880224 -2.276292
v 4.022653 -1.437755 -2.597185
v 4.114635 -1.366296 -2.489298
v 4.090055 -1.384019 -2.519845
v 4.075513 -1.404768 -2.532055
v 4.053107 -1.410980 -2.565064
v 3.971778 -1.662291 -2.541253
v 3.957325 -1.686634 -2.547687
v 3.995003 -1.543207 -2.579558
v 3.987780 -1.600653 -2.555707
v 3.947541 -1.734886 -2.530391
v 3.952010 -1.742395 -2.518543
v 3.983405 -1.885226 -2.361408
v 3.958195 -1.893194 -2.396371
v 3.944641 -1.801221 -2.488409
v 4.204706 -1.381700 -2.325672
v 4.189289 -1.348129 -2.371806
v 4.160547 -1.336700 -2.428702
v 4.150208 -1.368047 -2.428986
v 4.202329 -1.410817 -2.312720
v 4.306634 -1.523133 -2.032461
v 4.263244 -1.532102 -2.114587
v 4.248646 -1.541760 -2.137443
v 4.261273 -1.604064 -2.064555
v 4.273019 -1.589330 -2.051750
v 4.235055 -1.651777 -2.080611
v 4.214725 -1.417285 -2.285321
v 4.236719 -1.539907 -2.162858
v 4.230345 -1.485908 -2.211384
v 4.145198 -1.750744 -2.178517
v 4.164438 -1.742016 -2.149059
v 4.106626 -1.831183 -2.185508
v 4.135496 -1.779559 -2.173658
v 4.072918 -1.843811 -2.238608
vn 0.8179 -0.2823 -0.5012
vn 0.8266 -0.2790 -0.4888
vn 0.8227 -0.2940 -0.4865
vn 0.8070 -0.2940 -0.5121
vn 0.8186 -0.3090 -0.4841
vn 0.8030 -0.3090 -0.5096
vn 0.7988 -0.3239 -0.5069
vn 0.8143 -0.3239 -0.4816
vn 0.8098 -0.3387 -0.4789
vn 0.7944 -0.3387 -0.5041
vn 0.8360 -0.2714 -0.4769
vn 0.8337 -0.2805 -0.4755
vn 0.8322 -0.2865 -0.4747
vn 0.8385 -0.2866 -0.4634
vn 0.8375 -0.2940 -0.4604
vn 0.8334 -0.3090 -0.4582
vn 0.8291 -0.3239 -0.4558
vn 0.8245 -0.3387 -0.4533
vn 0.8197 -0.3534 -0.4506
vn 0.8052 -0.3534 -0.4762
vn 0.8003 -0.3681 -0.4733
vn 0.8148 -0.3681 -0.4479
vn 0.8467 -0.2865 -0.4483
vn 0.8437 -0.2978 -0.4467
vn 0.8427 -0.3013 -0.4462
vn 0.8492 -0.3015 -0.4335
vn 0.8474 -0.3089 -0.4317
vn 0.8430 -0.3239 -0.4295
vn 0.8383 -0.3387 -0.4271
vn 0.8292 -0.3460 -0.4390
vn 0.8291 -0.3461 -0.4390
vn 0.8242 -0.3608 -0.4364
vn 0.8239 -0.3618 -0.4362
vn 0.8547 -0.3069 -0.4187
vn 0.8563 -0.3014 -0.4194
vn 0.8519 -0.3164 -0.4173
vn 0.8473 -0.3313 -0.4151
vn 0.8461 -0.3351 -0.4145
vn 0.8051 -0.3753 -0.4592
vn 0.8007 -0.2865 -0.5260
vn 0.7989 -0.2940 -0.5247
vn 0.8206 -0.2714 -0.5029
vn 0.8283 -0.2714 -0.4901
vn 0.7886 -0.3313 -0.5180
vn 0.7969 -0.3014 -0.5235
vn 0.7928 -0.3164 -0.5208
vn 0.7984 -0.3459 -0.4928
vn 0.7841 -0.3461 -0.5151
vn 0.7866 -0.3378 -0.5167
vn 0.7903 -0.3753 -0.4843
vn 0.7939 -0.3648 -0.4865
vn 0.7952 -0.3608 -0.4873
vn 0.7982 -0.3516 -0.4891
vn 0.8325 -0.3461 -0.4326
vn 0.8191 -0.3753 -0.4338
vn 0.8169 -0.2865 -0.5006
vn 0.8118 -0.2865 -0.5087
vn 0.8426 -0.3015 -0.4462
vn 0.8267 -0.3534 -0.4377
vn 0.8562 -0.3015 -0.4194
vn 0.8503 -0.3216 -0.4165
vn 0.8092 -0.3753 -0.4520
vn 0.7995 -0.3754 -0.4688
vn 0.7908 -0.3236 -0.5195
vn 0.7953 -0.3077 -0.5224
usemtl None
s 1
f 40//1 5//2 6//3
f 1//4 7//5 2//6
f 3//7 7//5 8//8
f 3//7 9//9 4//10
f 63//11 61//11 41//12
f 64//13 29//14 12//15
f 6//3 13//16 7//5
f 8//8 13//16 14//17
f 8//8 15//18 9//9
f 9//9 16//19 10//20
f 11//21 16//19 17//22
f 12//15 71//23 36//24
f 72//25 38//26 18//27
f 14//17 18//27 19//28
f 14//17 20//29 15//18
f 74//30 20//29 75//31
f 76//32 32//33 16//19
f 33//34 18//27 67//35
f 18//27 69//36 68//36
f 19//28 70//37 23//38
f 11//21 17//22 44//39
f 46//40 1//4 25//41
f 47//42 21//43 5//2
f 51//44 3//7 4//10
f 53//45 1//4 2//6
f 54//46 2//6 3//7
f 35//47 9//9 10//20
f 55//48 24//49 4//10
f 58//50 27//51 11//21
f 59//52 31//53 10//20
f 23//38 30//54 20//29
f 78//55 17//22 32//33
f 6//3 1//4 49//56
f 1//4 39//57 50//56
f 49//56 1//4 50//56
f 49//56 40//1 6//3
f 1//4 6//3 7//5
f 3//7 2//6 7//5
f 3//7 8//8 9//9
f 41//12 5//2 63//11
f 5//2 21//43 63//11
f 63//11 62//11 61//11
f 61//11 60//11 41//12
f 12//15 6//3 64//13
f 6//3 5//2 64//13
f 5//2 41//12 64//13
f 6//3 12//15 13//16
f 8//8 7//5 13//16
f 8//8 14//17 15//18
f 9//9 15//18 16//19
f 11//21 10//20 16//19
f 12//15 29//14 71//23
f 18//27 13//16 72//25
f 13//16 12//15 36//24
f 72//25 13//16 73//58
f 36//24 73//58 13//16
f 14//17 13//16 18//27
f 14//17 19//28 20//29
f 42//59 16//19 74//30
f 16//19 15//18 74//30
f 15//18 20//29 74//30
f 20//29 30//54 75//31
f 32//33 17//22 16//19
f 16//19 42//59 77//32
f 77//32 76//32 16//19
f 18//27 38//26 67//35
f 67//35 66//60 33//34
f 66//60 65//60 33//34
f 37//61 19//28 68//36
f 19//28 18//27 68//36
f 18//27 33//34 69//36
f 23//38 20//29 19//28
f 19//28 37//61 70//37
f 17//22 28//62 45//39
f 44//39 43//39 11//21
f 43//39 26//63 11//21
f 17//22 45//39 44//39
f 46//40 39//57 1//4
f 5//2 40//1 48//42
f 48//42 47//42 5//2
f 4//10 24//49 52//44
f 51//44 22//64 3//7
f 4//10 52//44 51//44
f 2//6 34//65 53//45
f 53//45 25//41 1//4
f 3//7 22//64 54//46
f 54//46 34//65 2//6
f 10//20 31//53 35//47
f 35//47 4//10 9//9
f 4//10 35//47 56//48
f 56//48 55//48 4//10
f 11//21 26//63 57//50
f 57//50 58//50 11//21
f 11//21 27//51 10//20
f 27//51 59//52 10//20
f 78//55 28//62 17//22
